<?xml version="1.0" encoding="utf-8"?>
<!-- Generator: Adobe Illustrator 24.3.0, SVG Export Plug-In . SVG Version: 6.00 Build 0)  -->
<svg version="1.1" id="Layer_1" xmlns="http://www.w3.org/2000/svg" xmlns:xlink="http://www.w3.org/1999/xlink" x="0px"
	y="0px" viewBox="0 0 38.7 38.7" style="enable-background:new 0 0 38.7 38.7;" xml:space="preserve">
	<style type="text/css">
		.st0 {
			fill: #F1E554;
		}
	</style>
	<g id="Layer_2_1_">
		<g id="BG">
			<path fill="#F1E554" d="M4,0h30.7c2.2,0,4,1.8,4,4v30.8c0,2.2-1.8,4-4,4H4c-2.2,0-4-1.8-4-4V4C0,1.8,1.8,0,4,0z" />
			<path fill="#000"
				d="M29.3,34.1l1.4-1.4l-5.6-15.4l7.6-7.6c0.8-0.8,0.7-2.1,0-2.8c0,0,0,0-0.1-0.1c-0.7-0.8-2-0.9-2.8-0.2c0,0,0,0-0.1,0.1
			l-7.7,7.6L6.7,8.7l-1.4,1.4l13.1,8.1l-5.3,6.3l-5.8-1.4l-1.4,1.4l5.9,3.1l3.1,5.9l1.4-1.4l-1.4-5.9l6.3-5.3L29.3,34.1z" />
		</g>
	</g>
</svg>