<svg xmlns="http://www.w3.org/2000/svg" viewBox="0 0 67.94 66.92"><defs><style>.cls-1{fill:#1554c2;}.cls-2{fill:#f4f5f5;}.cls-3{fill:#fff;}.cls-4{fill:#f0efef;}.cls-5{fill:#dfdede;}.cls-6{fill:#cfcfcf;}.cls-7{fill:#c0bebe;}.cls-8{fill:#eaeae8;}.cls-9{fill:#c7c4c2;}.cls-10{fill:#cacac9;}.cls-11{fill:#2f2f2f;}.cls-12{fill:#f1efef;}.cls-13{fill:#acabab;}.cls-14{fill:#d2d1d1;}.cls-15{fill:#edecec;}.cls-16{fill:#434343;}.cls-17{fill:#8a8a8a;}.cls-18{fill:#726f6e;}.cls-19{fill:#bfbdbc;}.cls-20{fill:#696969;}.cls-21{fill:#f4f5f4;}.cls-22{fill:#807e7e;}.cls-23{fill:#8c8b8b;}.cls-24{fill:#adadad;}.cls-25{fill:#4f4f4f;}.cls-26{fill:#8b8a89;}.cls-27{fill:#b3b0ae;}.cls-28{fill:#c6c3c2;}.cls-29{fill:#d4d2cf;}.cls-30{fill:#e2e0df;}.cls-31{fill:#7a7574;}.cls-32{fill:#878685;}.cls-33{fill:#9d9998;}.cls-34{fill:#a7a6a6;}.cls-35{fill:#393939;}.cls-36{fill:#868585;}.cls-37{fill:#928f8f;}.cls-38{fill:#9b9a99;}.cls-39{fill:#474949;}.cls-40{fill:#969695;}.cls-41{fill:#b1adac;}.cls-42{fill:#9a999a;}.cls-43{fill:#afaba9;}.cls-44{fill:#e0e1e1;}.cls-45{fill:#afafb0;}.cls-46{fill:#908e8e;}.cls-47{fill:#d6d4d3;}.cls-48{fill:#c0bcbb;}.cls-49{fill:#bcbbbb;}.cls-50{fill:#c7c4c3;}.cls-51{fill:#cac6c5;}.cls-52{fill:#91908f;}.cls-53{fill:#686361;}.cls-54{fill:#939394;}.cls-55{fill:#b0adad;}.cls-56{fill:#b6b2b1;}.cls-57{fill:#c8c3c2;}.cls-58{fill:#8c8787;}.cls-59{fill:#bbb7b5;}.cls-60{fill:#747170;}.cls-61{fill:#7d7674;}.cls-62{fill:#7b7978;}.cls-63{fill:#a19592;}.cls-64{fill:#9e9794;}.cls-65{fill:#fafbfa;}.cls-66{fill:#9a9999;}.cls-67{fill:#f6f7f7;}.cls-68{fill:#f2f2f2;}.cls-69{fill:#e5e4e2;}.cls-70{fill:#dbdada;}.cls-71{fill:#e0dfdf;}.cls-72{fill:#e8e7e7;}.cls-73{fill:#e8e7e6;}.cls-74{fill:#e7e5e4;}.cls-75{fill:#e8e8e6;}.cls-76{fill:#e4e2e2;}.cls-77{fill:#b2b3b4;}.cls-78{fill:#b2b0b1;}.cls-79{fill:#c2c1c1;}.cls-80{fill:#aaa;}.cls-81{fill:#d6d6d5;}.cls-82{fill:#b2b0af;}.cls-83{fill:#908d8d;}.cls-84{fill:#5d5c5c;}.cls-85{fill:#bbb9b9;}.cls-86{fill:#eeedec;}.cls-87{fill:#d7d6d4;}.cls-88{fill:#cfcdcc;}.cls-89{fill:#b6b3b1;}.cls-90{fill:#c7c5c3;}.cls-91{fill:#b8b5b5;}.cls-92{fill:#e9e8e8;}.cls-93{fill:#dad9d8;}.cls-94{fill:#d3d3d2;}.cls-95{fill:#131314;}.cls-96{fill:#212120;}.cls-97{fill:#4d4e4e;}.cls-98{fill:#333;}.cls-99{fill:#2f2e2d;}.cls-100{fill:#8d8c8c;}.cls-101{fill:#e8eaec;}.cls-102{fill:#e8e8e9;}.cls-103{fill:#575757;}.cls-104{fill:#e0dedd;}.cls-105{fill:#f5f5f5;}.cls-106{fill:#e9e8e7;}.cls-107{fill:#e4e3e2;}.cls-108{fill:#cfcdcb;}.cls-109{fill:#9d9e9e;}.cls-110{fill:#a09f9f;}.cls-111{fill:#9a9a9a;}.cls-112{fill:#f0eeee;}.cls-113{fill:#2e2e2f;}.cls-114{fill:#3e3e3d;}.cls-115{fill:#4d4c4d;}.cls-116{fill:#444344;}.cls-117{fill:#282827;}.cls-118{fill:#f2f0f0;}.cls-119{fill:#f3f3f3;}.cls-120{fill:#dfdddd;}.cls-121{fill:#dbdad9;}.cls-122{fill:#e3e2e1;}.cls-123{fill:#343333;}.cls-124{fill:#292929;}.cls-125{fill:#eceae9;}.cls-126{fill:#edeceb;}.cls-127{fill:#6a6b6a;}.cls-128{fill:#4b4b4c;}.cls-129{fill:#595a5a;}.cls-130{fill:#7e7f80;}.cls-131{fill:#737677;}.cls-132{fill:#6f7576;}.cls-133{fill:#969696;}.cls-134{fill:#8a8989;}.cls-135{fill:#ebebeb;}</style></defs><g id="Layer_2" data-name="Layer 2"><g id="Layer_1-2" data-name="Layer 1"><path class="cls-1" d="M3.32,32.67c0,1.15-.82,2.5-1.61,3.81-1,1.64-2,3.34-1.61,4.92S2.33,44,4.06,45a8.42,8.42,0,0,1,3.19,2.38,8.47,8.47,0,0,1,.48,4c0,2-.08,4,1.1,5.15S12,57.66,14,57.61c1.5,0,3.06-.06,4,.49a8.42,8.42,0,0,1,2.38,3.19c.94,1.73,1.92,3.52,3.57,4a2.76,2.76,0,0,0,.75.1c1.36,0,2.79-.87,4.17-1.71S31.52,62,32.67,62s2.5.82,3.81,1.61c1.64,1,3.34,2,4.92,1.61S44,63,45,61.29a8.42,8.42,0,0,1,2.38-3.19c1-.55,2.52-.52,4-.49,2,0,4,.09,5.15-1.09s1.14-3.2,1.09-5.15c0-1.5-.06-3.06.49-4A8.42,8.42,0,0,1,61.29,45c1.73-.94,3.52-1.92,4-3.57s-.61-3.28-1.61-4.92C62.85,35.17,62,33.82,62,32.67s.82-2.5,1.61-3.8c1-1.64,2-3.34,1.61-4.92s-2.23-2.63-4-3.57A8.42,8.42,0,0,1,58.1,18c-.55-1-.52-2.52-.49-4,0-2,.09-4-1.09-5.15s-3.21-1.14-5.15-1.1a8.47,8.47,0,0,1-4-.48A8.42,8.42,0,0,1,45,4.06C44,2.33,43.05.54,41.4.1s-3.28.61-4.92,1.61c-1.31.79-2.66,1.61-3.81,1.61s-2.49-.82-3.8-1.61C27.23.71,25.52-.33,24,.1s-2.63,2.23-3.57,4A8.42,8.42,0,0,1,18,7.25c-1,.55-2.52.52-4,.49-2,0-4-.09-5.15,1.09S7.69,12,7.73,14a8.47,8.47,0,0,1-.48,4,8.42,8.42,0,0,1-3.19,2.38C2.33,21.32.54,22.3.1,24s.61,3.28,1.61,4.92C2.5,30.17,3.32,31.52,3.32,32.67Z"/><path class="cls-2" d="M19.67,38.07c.08-.09.13-.2.23-.26l.07-.14a.7.7,0,0,1,.11-.27l0-.09a1.39,1.39,0,0,1,.08-.46l0-.23v-.18a1.12,1.12,0,0,1,.05-.45.4.4,0,0,0,0-.34v-.14c.05-.16.09-.33.14-.49s.06-.21.1-.32.09-.24.13-.37l.12-.22c.08.12,0,.26,0,.4a.35.35,0,0,0,.18-.18,4.89,4.89,0,0,0,.52-1,3.25,3.25,0,0,1,.41-.81c.4-.67.74-1.38,1.17-2,.73-1.12,1.46-2.25,2.28-3.31.66-.86,1.29-1.74,1.91-2.63s1.27-1.87,1.86-2.85a13.55,13.55,0,0,0,.71-1.23c.22-.46.5-.89.67-1.36v0h0a.77.77,0,0,1,.12-.26l0-.1,0,0v-.08l0-.05,0-.06,0,0,0-.06c0-.06,0-.15.13-.16l0,.18a11.37,11.37,0,0,1-1,2.56c-.35.64-.68,1.29-1,1.94s-.63,1.08-1,1.6a19.82,19.82,0,0,1-1.27,1.87c-.3.36-.61.71-.89,1.09a25.22,25.22,0,0,0-1.44,2.2c-.3.53-.58,1.08-.92,1.58-.07.1-.11.2-.22.26a.35.35,0,0,0-.18.2c-.21.37-.42.73-.66,1.08a5.09,5.09,0,0,0-.53,1.19,5.55,5.55,0,0,1-.24.56,2.93,2.93,0,0,0-.33,1.23,1.35,1.35,0,0,1-.16.64.9.9,0,0,0-.05.87l0,.21a12.32,12.32,0,0,0,.08,1.82c0,.16,0,.32.21.42s.11.22.13.34a15.06,15.06,0,0,0,.74,2.54,2.06,2.06,0,0,0,.54.88l0,.19a.45.45,0,0,1-.32.07,1.55,1.55,0,0,1-.49-.81,12.52,12.52,0,0,1-.77-2.62.79.79,0,0,0-.19-.46l-.08-.2a5.55,5.55,0,0,1-.12-.9l-.07-.21a.93.93,0,0,1-.22-.47c0-.12-.06-.24-.22-.27l0-.17a3.85,3.85,0,0,1,.13-.37,3,3,0,0,0-.33.7c0,.14-.18.17-.3.2Z"/><path class="cls-3" d="M30.77,18.41v0l0,0,0,0v-.11l.25-.54L31,17.7l.06-.11a.82.82,0,0,0,.17-.35c.08-.25.18-.49.27-.74s.15-.4.22-.61a4.59,4.59,0,0,0,.17-.48c.09-.33.18-.66.26-1,0-.18.08-.35.11-.52l.06-.15.12-.05.08.07c.06.2.16.39.21.6a9.65,9.65,0,0,0,.31,1.14l0,.13L33,15.59v.05c0,.09.07.18.09.27.1.4.24.8.38,1.19,0,.11.07.21.09.32a4.65,4.65,0,0,0,.34,1c.16.41.33.82.51,1.22.5,1.14,1,2.31,1.56,3.4.13.23.25.47.37.7a2.69,2.69,0,0,0,.5.71,5.78,5.78,0,0,1,.84,1.14c.4.62.81,1.21,1.23,1.8.75,1.05,1.51,2.09,2.21,3.17.13.2.24.41.37.61s.25.65.42,1,0,.28-.25.29l0,0,0,0v0l0,0,0,0,0-.06,0,0,0,0v0l0,0,0,0,0,0,0,0v0l0,0,0-.06,0,0,0,0v0a24.58,24.58,0,0,0-1.75-2.52c-1-1.26-2-2.51-2.87-3.82a9.85,9.85,0,0,1-1-1.61,1.74,1.74,0,0,0-.44-.5.86.86,0,0,1-.25-.42c-.09-.31-.2-.62-.32-.92a12.73,12.73,0,0,1-.45-1.82c-.13-.65-.35-1.27-.54-1.91-.1-.33-.22-.66-.31-.94,0,.45.19.93.26,1.43l0,.21a2.37,2.37,0,0,0-.25.47.34.34,0,0,1-.49.2.86.86,0,0,0-.45,0c-.1,0-.16-.05-.2-.15a3.8,3.8,0,0,1-.14-.67l0-.16a1.37,1.37,0,0,1-.35-.7.29.29,0,0,0-.11.2l0,.06,0,.07,0,.07,0,.06,0,.06,0,.06,0,.07-.06.08h-.06c-.15-.16-.1-.37-.1-.56v-.17l0,0,0,0v0L31,18l-.11.15-.08.2Z"/><path class="cls-4" d="M30.49,19.05l0,.19c-.11.3-.3.56-.43.84l-.05.09a1,1,0,0,1-.17.37c-.12.24-.27.47-.4.7s-.35.6-.54.89c-.41.65-.82,1.29-1.25,1.92-.1.14-.2.29-.31.43s-.14.21-.21.31l-.9,1.27a3.06,3.06,0,0,1-.21.29,4.58,4.58,0,0,1-.35.42l-.09.11a7.91,7.91,0,0,1-.54.75,5.36,5.36,0,0,1-.34.49c-.28.36-.52.76-.79,1.13s-.32.51-.48.77l-.13.18-.5.8-.12.18-.07.12a4.81,4.81,0,0,1-.25.51.83.83,0,0,1-.17.27l0,.07c-.12.22-.25.43-.36.66s-.12.21-.17.33a.52.52,0,0,0-.1.27l0,.08c-.1.2-.18.41-.3.6l-.1.17a1,1,0,0,1-.28.33h-.05l0,0a.82.82,0,0,1,0-.35v-.1l.11-.3c.15-.32.29-.65.47-1s.35-.7.57-1c.07-.11.11-.23.18-.33s.21-.38.33-.57.3-.52.48-.76a2.45,2.45,0,0,1,.26-.37c.1-.22.28-.39.38-.6l.11-.14c.13-.19.25-.38.39-.57s.47-.69.73-1c.15-.19.29-.39.43-.59.31-.44.63-.87.95-1.3s.5-.64.73-1,.42-.56.62-.84.32-.45.48-.68c.39-.52.74-1.07,1.1-1.61.24-.35.46-.72.68-1.09s.42-.73.61-1.1Z"/><path class="cls-5" d="M37.35,23.48l.09.08.87,1.17.55.72.61.8c.21.28.43.55.65.82l.16.22v0h0l.12.16h0l.29.37.11.14h0c.09.14.19.26.28.39l.16.21h0l.1.14.21.29h0l.12.16h0l.08.12h0l0,.08a2.2,2.2,0,0,0,.34.55,25.06,25.06,0,0,1,1.4,2.32c.14.27.26.55.41.82l0,.05a3.78,3.78,0,0,0,.31.64l0,.06a1.77,1.77,0,0,0,.14.56l0,.23-.06,0a2.27,2.27,0,0,1-.32-.75,1.12,1.12,0,0,0-.1-.31,22.75,22.75,0,0,0-1.51-2.79l0,0-.09-.17c-.34-.52-.67-1-1-1.55a12.51,12.51,0,0,0-.86-1.2l0,0,0,0,0,0,0,0,0-.05,0,0,0,0h0l0,0v0l0,0,0,0c-.49-.67-1-1.31-1.48-2l-1-1.3c-.11-.18-.25-.33-.36-.5Z"/><path class="cls-6" d="M19.83,42.2l0-.13,0-.19a2.39,2.39,0,0,1,.08-1h0a.21.21,0,0,0,.19-.28c0-.25-.08-.51-.1-.78,0,.07,0,.16-.13.2a4.34,4.34,0,0,0-.12-.89,2.53,2.53,0,0,1,0-.91l.09-.09.09.13a1,1,0,0,0,0,.63,1.37,1.37,0,0,1,.07.29c0,.06,0,.14.09.15s.15.23.2.36a3,3,0,0,1,.25,1l-.06.21a.69.69,0,0,0-.13.46l0,.18c0,.13-.1.14-.22,0a.74.74,0,0,1-.06-.28c0,.22,0,.45,0,.7V42Z"/><path class="cls-7" d="M45.12,35.74c.1.3.18.6.26.91l0,.12c0,.44-.13.88-.17,1.32l0,.2c0,.19,0,.34-.24.42s-.15.29-.15.46,0,.2,0,.3v.06l0,.12c-.17.51-.23,1.05-.38,1.57l0,.1,0,.07,0,.1,0,.06,0,.07,0,.06,0,.09,0,.06,0,.07,0,.06,0,.08v0l0,.09,0,.06,0,.06,0,.06,0,.06,0,.06,0,.06,0,.06,0,.06,0,0,0,.06,0,0,0,.08,0,0,0,.06,0,.06,0,.06,0,.06,0,.06,0,0-.06.05-.06-.06a1.47,1.47,0,0,1,.14-.45,13.72,13.72,0,0,0,.61-2.17c.09-.45.24-.89.32-1.34,0-.11,0-.21,0-.32s0-.46.3-.56c.09,0,.09-.14.07-.22a1.38,1.38,0,0,1,0-.64,3.64,3.64,0,0,0,0-1.47C45.05,36,45,35.83,45.12,35.74Z"/><path class="cls-8" d="M37.35,23.48a1.16,1.16,0,0,0,.23.37,1.69,1.69,0,0,1,.21.31l0,.15c-.1,0-.12,0-.16-.1l-.41-.57,0-.05c-.41-.6-.81-1.2-1.19-1.82L36,21.72c-.34-.52-.66-1-1-1.58L34.9,20c-.38-.65-.72-1.33-1-2l0,0,0-.18,0-.08c.1.21.19.42.3.62s.27.53.41.79c.28.49.56,1,.86,1.46s.81,1.25,1.22,1.86c.21.32.44.63.66.94v0h0l.08.12Z"/><path class="cls-9" d="M27.37,49.25a1.7,1.7,0,0,1-.45-.15l0-.06L27,49a.9.9,0,0,1,.4.09,15.86,15.86,0,0,0,2.06.5l.15,0a14,14,0,0,0,1.45.19c.54.05,1.08,0,1.62,0a15.72,15.72,0,0,0,2.64-.25c.43-.07.85-.19,1.28-.26l.13,0,0,.05-.15.09-.15,0-.05,0-.13,0h-.05l-.14,0h0l-.15,0H35.8l-.12,0H35.6l-.15,0h-.08l-.19,0h-.06l-.19,0h-.08l-.19,0H34.6l-.26,0-.09,0-.24,0-.15,0a1.1,1.1,0,0,0-.36,0h-.17a2.67,2.67,0,0,0-.56,0,7.06,7.06,0,0,1-.92,0l-.13,0c-.35,0-.7,0-1,0-.18,0-.35,0-.53-.06l-.15,0h-.12l-.13,0h-.11l-.14,0h-.08l-.35-.08-.35-.07-.59-.16H28A3.39,3.39,0,0,0,27.37,49.25Z"/><path class="cls-10" d="M45.12,35.74l0,.14c0,.18.07.35.1.52v.24a1.76,1.76,0,0,1,0,.51v.16a1.18,1.18,0,0,1-.1.45V38l0,.19v.23l-.1.09a.19.19,0,0,0-.18.13.74.74,0,0,0-.08.39c-.13,0-.07-.17-.11-.24v-.14c0-.16.08-.29.26-.32l.11-.16a2.32,2.32,0,0,1,0-1.05,4.89,4.89,0,0,0-.2-1.75,1.69,1.69,0,0,0-.11-.34l0-.21c0-.06,0-.14.07-.15v0l0,0,.33.94Z"/><path class="cls-11" d="M44.93,43.47v0a8.72,8.72,0,0,1-1,1.58c-.1,0-.15.17-.25.21l0,0v-.11c0-.09,0-.22.14-.27V45a10.77,10.77,0,0,0,.73-1.23,1.48,1.48,0,0,0,.25-.44,7.47,7.47,0,0,0,.66-2.17l.08-.24h.06l0,.06a4.49,4.49,0,0,1-.16.89v.06l0,.13v0l0,.1v0l0,.11,0,0,0,.08v0l0,.08v0l0,.06,0,0,0,.1C45.11,43.06,45,43.26,44.93,43.47Z"/><path class="cls-12" d="M21.89,45.92l-.06,0c-.1-.16-.25-.27-.34-.43l0-.05v0h-.05l0,0-.12-.2c-.1-.1-.16-.24-.25-.35a2.75,2.75,0,0,0-.17-.29,11,11,0,0,1-.59-1.36l0-.21.09-.09.09.14A10.92,10.92,0,0,0,21,44.2a8.1,8.1,0,0,0,1.42,2,.66.66,0,0,1,.24.28l-.05.07a1.66,1.66,0,0,1-.35-.35,2.5,2.5,0,0,0-.27-.29l-.06,0Z"/><path class="cls-13" d="M44.77,39.18a.7.7,0,0,1,.06-.4c0-.09.09-.16.2-.15l.12-.11v-.2c0-.19.05-.39.06-.58a4.22,4.22,0,0,0,.1-.7.45.45,0,0,1,.08-.27c.05.16.08.33.12.49a.75.75,0,0,1,0,.3.65.65,0,0,0-.16.52,2.25,2.25,0,0,0-.13.51.21.21,0,0,1-.17.2c-.14,0-.17.11-.22.21S44.87,39.17,44.77,39.18Z"/><path class="cls-14" d="M44.72,34.63l0,.12,0,.23h0a2.48,2.48,0,0,1-.27-.7l-.15-.49c-.12-.22-.21-.45-.32-.67-.22-.5-.49-1-.73-1.45l.06-.06a3,3,0,0,1,.24.43c.16.28.31.56.45.85s.42.86.6,1.3A2.87,2.87,0,0,1,44.72,34.63Z"/><path class="cls-15" d="M19.67,39.1l.08.13a2.59,2.59,0,0,1,0,.62V40l.07-.21,0-.12h0l0,0a1.47,1.47,0,0,0,0,.29c0,.16,0,.31.07.46a1.06,1.06,0,0,0,0,.31v0L20,40.9H19.9l-.07,0v-.16l0-.13.05-.06.05.07c0-.14,0-.29,0-.42-.06.06.11.24-.1.26l0-.21,0-.06a2.67,2.67,0,0,0,0-.63C19.74,39.37,19.67,39.24,19.67,39.1Z"/><path class="cls-16" d="M45.63,37.92a2.31,2.31,0,0,1,0,.46,1,1,0,0,1,0,.43c-.08.28-.1.29-.37.16l-.08-.18a1.86,1.86,0,0,0,0-.34l0,0,.15.12h.09l0-.1-.14-.1v-.15l0-.11,0-.13.13.16-.08-.21C45.53,37.77,45.59,37.79,45.63,37.92Z"/><path class="cls-17" d="M20.3,42.91a3.69,3.69,0,0,0,.19.56c.12.31.26.61.41.91l.05.11h-.1a1.29,1.29,0,0,1-.19-.32,6.47,6.47,0,0,1-.36-.75c0-.19-.13-.35-.18-.54l0-.08,0-.11,0-.08.06-.15h0l.05.1,0,0,0,.09Z"/><path class="cls-18" d="M36.12,49.68c-.4.09-.81.16-1.22.21L34,50h-.18l-.28,0,.09-.06a19.63,19.63,0,0,0,2.16-.28l.15,0H36l.16,0h.05l0,.08h-.07Z"/><path class="cls-19" d="M43.25,46l-.07.08h0l0,0h0v0l-.16.16h0l0-.05h0v0h0l0,.05-.19.2,0,0h0a2.31,2.31,0,0,0-.29.24,8.57,8.57,0,0,1-.75.6c-.13.1-.26.18-.39.27l0-.06a5.13,5.13,0,0,1,.69-.54,9.79,9.79,0,0,0,1.4-1.33l.12-.1c.11,0,.06.12,0,.19S43.25,45.86,43.25,46Z"/><path class="cls-20" d="M45.72,38.78l0,.15a12.72,12.72,0,0,1-.07,2,.7.7,0,0,1,0,.29l0-.2,0-.14a12.86,12.86,0,0,1,.09-2Z"/><path class="cls-21" d="M33.82,17.66l0,.08.06.19c-.11,0-.13-.09-.16-.16s-.1-.28-.15-.42c-.19-.47-.36-1-.52-1.44L33,15.69v-.14l.07.09,0,.15c.14.35.26.7.41,1.05s.19.46.3.68v.1Z"/><path class="cls-22" d="M30.57,49.93h-.11c0-.11.12,0,.19-.05h.16l.26,0a3.62,3.62,0,0,0,.46,0,8.58,8.58,0,0,0,1.34,0,.47.47,0,0,1,.31,0c0,.12-.09.06-.14.06H31.65L30.77,50Z"/><path class="cls-23" d="M43.25,46l0-.07.14-.16v-.12a.63.63,0,0,1,.32-.44v.12h0l.09-.08.19-.12a2.15,2.15,0,0,1-.32.41C43.52,45.66,43.39,45.81,43.25,46Z"/><path class="cls-24" d="M20.34,43.43l.06.18.21.42.05.15-.08-.09A8.8,8.8,0,0,1,20,42.65v-.09l0-.15.05,0c.13.16.09.38.18.55Z"/><path class="cls-25" d="M45.72,38.78l0,.08a3.35,3.35,0,0,0-.06.47c-.14-.12-.33-.11-.44-.25l.08-.13.2,0,.11,0a.42.42,0,0,1,.08-.26v-.31A1.07,1.07,0,0,1,45.72,38.78Z"/><path class="cls-26" d="M37.32,49.38l-.21.06-.14,0-.14,0v-.05l0,0,.12,0,.12,0,0,0,.12,0,.12,0h0a1.66,1.66,0,0,1,.38-.11l0,0v0l-.06.07-.06,0-.06,0-.08,0h0l0,0-.09,0h0l-.08,0Z"/><path class="cls-27" d="M42,29.7l.09.09c.27.4.54.8.78,1.23l0,.05c-.3-.41-.55-.85-.84-1.27v-.08Z"/><path class="cls-28" d="M26.77,49.05a12.15,12.15,0,0,1-1.33-.58l-.07,0,.05,0a3.9,3.9,0,0,1,.64.26l.09.05,0,0,.09,0,0,0,.43.16,0,0,0,0Z"/><path class="cls-29" d="M25.42,48.42h-.05a3.61,3.61,0,0,1-.56-.27l-.74-.45.05-.05c.16,0,.26.14.4.21s.52.3.79.44Z"/><path class="cls-30" d="M24.11,47.67l0,0c-.29-.2-.58-.4-.85-.62a1,1,0,0,1-.26-.25h0l.16.07a10.52,10.52,0,0,0,.86.63Z"/><path class="cls-31" d="M31.88,50l.17,0h1l.17,0,.26,0,.14.08-.11,0C33,50.05,32.41,50.06,31.88,50Z"/><path class="cls-22" d="M36.83,49.41l.17,0v0h0l-.65.16h-.06l0-.07c.06-.13.18-.08.28-.12l0,0,.12,0,.05,0Z"/><path class="cls-32" d="M30.66,49.88l-.2,0a3.94,3.94,0,0,1-.6-.08l-.13,0h-.07l-.16,0h0l0-.07h.08l.12,0h.12l.12,0H30l.12,0a1.55,1.55,0,0,1,.31,0l.24,0v0Z"/><path class="cls-22" d="M45.63,37.92l0,0h-.11l0,0,0,.05,0,.11h0a2.42,2.42,0,0,1,0-.27.24.24,0,0,1,.2-.25h0l0,.12Z"/><path class="cls-33" d="M40.28,48.18c-.34.18-.68.36-1,.51l0-.06.19-.14c.29-.1.54-.28.83-.37Z"/><path class="cls-12" d="M19.79,40.41l.08-.14a.92.92,0,0,1,0-.28l0,.08a1.24,1.24,0,0,0,0,.27c0,.11,0,.24,0,.35l0,.05h-.07l0-.21,0,.17,0-.08Z"/><path class="cls-34" d="M28.11,49.38a2,2,0,0,1,.6.15l-.08.07a2,2,0,0,1-.52-.14Z"/><path class="cls-35" d="M45.63,41v.2a3.13,3.13,0,0,1-.16.75h0c0-.16.07-.32.09-.48s0-.31.07-.47Z"/><path class="cls-12" d="M19.83,40.85c0,.12-.06.24,0,.37a1.94,1.94,0,0,0,0,.54v.12l0-.09a5,5,0,0,1,0-.55A.77.77,0,0,1,19.83,40.85Z"/><path class="cls-36" d="M37.6,49.3l-.05-.06h0l.09,0h.06l.06,0,.08,0h0l.07,0,.09,0,0,0,.1,0,.17,0,.05.06A5.49,5.49,0,0,1,37.6,49.3Z"/><path class="cls-37" d="M29.42,49.69l0,.07a2,2,0,0,1-.43-.07l0-.08A.85.85,0,0,1,29.42,49.69Z"/><path class="cls-38" d="M29.07,49.61l0,.08a1.79,1.79,0,0,1-.4-.09l.08-.07A.9.9,0,0,1,29.07,49.61Z"/><path class="cls-39" d="M44.93,43.47l0-.18a3,3,0,0,0,.19-.5l0-.08h0l0,0A3.29,3.29,0,0,1,44.93,43.47Z"/><path class="cls-15" d="M19.63,38.19v.41a1.26,1.26,0,0,0,0,.43v.07l-.08-.23V38.3Z"/><path class="cls-40" d="M27.37,49.25l.07,0,.13,0a1,1,0,0,0,.34.1l.05,0-.08,0-.4-.12-.08,0Z"/><path class="cls-41" d="M41.15,47.59l0,0-.51.32,0,0A.77.77,0,0,1,41.15,47.59Z"/><path class="cls-42" d="M20.85,44.5H21a1.08,1.08,0,0,1,.16.28l-.05,0A1.11,1.11,0,0,1,20.85,44.5Z"/><path class="cls-43" d="M40.68,47.89v0a2,2,0,0,1-.4.24l0,0A.5.5,0,0,1,40.68,47.89Z"/><path class="cls-44" d="M42.9,46.24l0,0a1.9,1.9,0,0,1-.24.25l-.08,0h0l0-.05a.88.88,0,0,1,.24-.23Z"/><path class="cls-45" d="M21.06,44.82l.05,0c.07.12.15.24.23.36l0,0A2,2,0,0,1,21.06,44.82Z"/><path class="cls-46" d="M38.38,49l-.05,0c.06-.13.2-.12.31-.18l.13,0,0,.06A2.39,2.39,0,0,1,38.38,49Z"/><path class="cls-47" d="M40.68,27.89l-.08-.08-.17-.23,0-.09.09.07c.08.09.15.19.23.29Z"/><path class="cls-48" d="M42.86,31.06l0,0a1.4,1.4,0,0,1,.24.43h0A.82.82,0,0,1,42.86,31.06Z"/><path class="cls-48" d="M41.07,28.4a1.13,1.13,0,0,1-.27-.4c.1.05.13.16.21.24l.11.16Z"/><path class="cls-49" d="M20,42.39v.17a1,1,0,0,1-.12-.36V42C20,42.12,20,42.26,20,42.39Z"/><path class="cls-50" d="M41.55,29,41.46,29l-.14-.2,0,0A.87.87,0,0,1,41.55,29Z"/><path class="cls-10" d="M21.3,45.17l0,0,.07.1.08.1,0,0h0v0l-.05,0C21.43,45.35,21.35,45.27,21.3,45.17Z"/><path class="cls-30" d="M22.92,46.8l-.08,0-.19-.2,0,0c.14,0,.21.11.26.23Z"/><path class="cls-51" d="M41.75,29.39v-.08a.54.54,0,0,1,.2.27v.05C41.81,29.61,41.83,29.46,41.75,29.39Z"/><path class="cls-52" d="M39.2,48.65l0,0-.28.12,0-.06.2-.11Z"/><polygon class="cls-53" points="33.59 50.01 33.47 49.97 33.58 49.96 33.75 49.97 33.86 50 33.59 50.01"/><polygon class="cls-54" points="27.88 49.41 27.96 49.37 28.11 49.38 28.11 49.46 27.88 49.41"/><path class="cls-39" d="M45.4,42.12v0l0,0,0,0a.57.57,0,0,1-.08.28l0,0,0-.1v0Z"/><path class="cls-55" d="M41.07,28.4h0l.12.2A.31.31,0,0,1,41.07,28.4Z"/><path class="cls-48" d="M43.26,31.61l0,0c-.07,0-.13-.1-.08-.2h0Z"/><polygon class="cls-15" points="19.71 38.11 19.63 38.19 19.67 38.07 19.75 38.07 19.83 38.11 19.71 38.11"/><path class="cls-50" d="M41.67,29.19,41.55,29Z"/><polygon class="cls-56" points="41.35 28.72 41.31 28.76 41.24 28.6 41.35 28.72"/><polygon class="cls-57" points="40.68 27.89 40.72 27.85 40.8 28 40.68 27.89"/><path class="cls-47" d="M40.4,27.49l-.12-.16Z"/><polygon class="cls-58" points="38.93 48.77 38.97 48.81 38.83 48.86 38.78 48.83 38.93 48.77"/><polygon class="cls-59" points="26.77 49.05 26.81 49.01 26.87 48.99 26.93 49.03 26.96 49.05 26.92 49.1 26.77 49.05"/><path class="cls-32" d="M30.57,49.93l.2,0Z"/><polygon class="cls-39" points="45.44 41.92 45.48 41.92 45.44 42.08 45.43 42.07 45.44 41.96 45.44 41.92"/><polygon class="cls-27" points="41.95 29.63 41.95 29.58 42.03 29.7 42.03 29.71 41.95 29.63"/><path class="cls-51" d="M41.75,29.31l-.08-.12Z"/><path class="cls-5" d="M37.35,23.49l-.08-.12Z"/><path class="cls-37" d="M29.5,49.77l.16,0Z"/><polygon class="cls-39" points="45.31 42.39 45.32 42.35 45.33 42.34 45.35 42.35 45.36 42.36 45.33 42.48 45.3 42.47 45.31 42.39"/><path class="cls-13" d="M45.59,37.68l0-.12Z"/><path class="cls-37" d="M29.73,49.81l.13,0Z"/><polygon class="cls-39" points="45.28 42.51 45.28 42.47 45.29 42.46 45.31 42.47 45.33 42.48 45.28 42.6 45.26 42.59 45.28 42.51"/><polygon class="cls-60" points="37 49.45 37.11 49.45 37.04 49.45 36.99 49.45 37 49.45"/><polygon class="cls-39" points="45.24 42.63 45.24 42.59 45.25 42.58 45.27 42.58 45.28 42.6 45.24 42.72 45.23 42.7 45.24 42.63"/><polygon class="cls-61" points="37.32 49.38 37.33 49.34 37.39 49.37 37.32 49.38"/><path class="cls-22" d="M36.12,49.68l.09,0Z"/><polygon class="cls-62" points="37.47 49.33 37.45 49.31 37.49 49.3 37.51 49.33 37.47 49.33"/><path class="cls-9" d="M27.4,49.25l.08,0Z"/><polygon class="cls-63" points="43.1 46.12 43.09 46.09 43.1 46.08 43.1 46.12"/><path class="cls-64" d="M43.1,46.08l0,0Z"/><path class="cls-47" d="M40.29,27.33v0Z"/><polygon class="cls-12" points="21.89 45.92 21.93 45.96 21.89 45.92 21.89 45.92"/><path class="cls-14" d="M44.76,34.7l0,0Z"/><polygon class="cls-5" points="37.27 23.37 37.26 23.34 37.27 23.33 37.27 23.37"/><path class="cls-12" d="M21.93,46h0Z"/><path class="cls-4" d="M30.49,19v0Z"/><path class="cls-65" d="M30.69,18.61l0,0Z"/><polygon class="cls-26" points="36.99 49.45 37.04 49.45 36.99 49.48 36.99 49.45"/><rect class="cls-30" x="22.94" y="46.79" height="0.06" transform="translate(-26.38 29.93) rotate(-45)"/><polygon class="cls-30" points="22.64 46.56 22.61 46.52 22.63 46.51 22.64 46.56"/><polygon class="cls-30" points="22.57 46.52 22.61 46.48 22.61 46.5 22.61 46.52 22.57 46.52"/><polygon class="cls-66" points="43.14 46.04 43.17 46.04 43.16 46.05 43.14 46.04"/><path class="cls-8" d="M33.78,17.62v0Z"/><path class="cls-65" d="M31.36,18.25v-.08l0,0v0l.16.07a1.3,1.3,0,0,1,.17.58c0,.16,0,.33,0,.5s0,.34.14.46l.05.13c0,.31.12.61.13.92l.05.23c0,.13,0,.26-.12.31l0,.14a1.84,1.84,0,0,1,.16.85A3,3,0,0,1,32,23.39a4,4,0,0,0-.24.66l-.09.16c-.44.6-.9,1.18-1.34,1.78a2.89,2.89,0,0,1-.35.35,3,3,0,0,0-.62.79l-.14.09a.88.88,0,0,0-.66.38c-.47.54-1,1-1.45,1.62s-.8,1-1.19,1.5-.61.84-.89,1.26a14.83,14.83,0,0,0-1.38,2.24l-.09.13a.64.64,0,0,0-.3.42A.57.57,0,0,1,23,35a.64.64,0,0,0-.25.39c-.09.42-.21.84-.27,1.26l-.1.23a.4.4,0,0,0-.14.37,7.35,7.35,0,0,0,.08,1.48c0,.11,0,.17.17.14s.26,0,.3.22a6.18,6.18,0,0,0,.12.62,9.4,9.4,0,0,0,.44,1.15c.21.5.36,1,.58,1.53l.18.38a1.76,1.76,0,0,1,.25.74,1.45,1.45,0,0,0,.17.56c.08.21.3.3.45.44a5.58,5.58,0,0,0,.74.49.59.59,0,0,0,.39.13.49.49,0,0,1,.25.1,9.34,9.34,0,0,0,1.5.71c.26.09.51,0,.76,0h.06a1.52,1.52,0,0,0,.84-.15h0c.24.12.47,0,.7,0s.21,0,.19-.19.09-.19.16-.26l1.31-1.13,2.17-1.87,2.47-2.14c.63-.55,1.26-1.09,1.88-1.65s1.36-1.23,2-1.89a9.83,9.83,0,0,0,.67-.76l.12-.13c.36-.16.43-.52.5-.85a.91.91,0,0,0-.22-.7c-.3-.39-.33-.34,0-.79a.43.43,0,0,0,0-.52,1.61,1.61,0,0,1-.21-.59,1.15,1.15,0,0,0-.12-.37c0-.1,0-.11.07-.14l0,0,0,.08,0,.08,0,.08,0,0,0,0v0l0,0v0l0,0,0,0a2.4,2.4,0,0,1,.34.55c0,.09.09.17.21.12a.16.16,0,0,0,0-.23,6.55,6.55,0,0,1-.29-.85,3.17,3.17,0,0,1-.13-.67v-.07c.11,0,.14.06.17.13a13,13,0,0,1,.68,1.52l0,.15a2.76,2.76,0,0,0-.06.57l-.07.17-.18,0a1.83,1.83,0,0,1-.38-.44,2.42,2.42,0,0,1,.17,1.21l-.09.22A.43.43,0,0,0,42,35a1.75,1.75,0,0,1-.24,1.49,1.59,1.59,0,0,0-.24.55c0,.24-.26.4-.42.57A13.5,13.5,0,0,1,40,38.71c-.83.69-1.6,1.44-2.42,2.13S35.87,42.27,35.06,43c-1,.88-2,1.77-3,2.63a.52.52,0,0,1-.31.14l-.13,0c-.18.2-.45.21-.67.3l-.12,0a1,1,0,0,0-.63.06,1.85,1.85,0,0,0-.33.12,1.34,1.34,0,0,1-.86.1c-.32-.06-.61-.19-.93-.22a.91.91,0,0,0-.72.06h-.21a1.73,1.73,0,0,0-.77-.14,1.89,1.89,0,0,1-.63-.22.54.54,0,0,0-.41-.08l-.17,0A5.44,5.44,0,0,1,24,45.1H23.9c-.08.11-.16.06-.23,0a.7.7,0,0,0-.33-.17.5.5,0,0,1-.33-.24c-.09-.15-.18-.3-.26-.46a.51.51,0,0,1,.23-.76,2.75,2.75,0,0,0,.4-.26c.15-.11.15-.17,0-.3a1.83,1.83,0,0,1-.35-.64c-.07-.19-.16-.38-.22-.57a5.86,5.86,0,0,0-.32-.61,5.84,5.84,0,0,1-.41-1.41c0-.17-.05-.33-.25-.41s-.1-.15-.12-.24a5.16,5.16,0,0,1-.1-1c0-.41,0-.81.05-1.21a.35.35,0,0,1,.08-.26,1.27,1.27,0,0,0,.23-.62,1.65,1.65,0,0,1,.38-.9l.06-.1c0-.35.33-.52.55-.75l.1-.14a4.66,4.66,0,0,1,.57-1.19,2.26,2.26,0,0,1,.26-.42v-.22c-.11-.12-.17-.12-.25,0a9.81,9.81,0,0,0-.7,1.37,1.05,1.05,0,0,1-.2.34l-.18.05,0-.16a2.23,2.23,0,0,1,.27-.61c.21-.38.39-.76.6-1.14.13-.23.12-.24-.06-.43s-.14-.1-.12-.21c.17-.27.34-.54.52-.81l0-.05a3.3,3.3,0,0,1,.27-.53c.08-.18.23-.34.32-.51l.13-.25a6.17,6.17,0,0,1,.48-.77l0,0a2.08,2.08,0,0,1,.34-.48l.12-.16a6.63,6.63,0,0,1,.49-.69c.09-.11.18-.22.26-.34l.15-.18a3.91,3.91,0,0,0,.5-.59c.22-.32.44-.64.65-1s.43-.66.64-1a4.68,4.68,0,0,1,.27-.44,2.55,2.55,0,0,0,.24-.39l.38-.7c.15-.27.28-.54.42-.81s.28-.55.44-.82.26-.56.41-.83.17-.4.26-.6a1.07,1.07,0,0,0,.07-.27,2.86,2.86,0,0,1,.07-.28c0-.11.07-.22.1-.32l.08-.26,0-.15L31,18l0,0v0l0,0,.06.11a1.6,1.6,0,0,0,0,.49,3,3,0,0,1-.18.78,15,15,0,0,1-.76,2c-.27.6-.43,1.25-.76,1.83l-.63,1.11c-.28.49-.55,1-.84,1.46a4.75,4.75,0,0,1-.31.45A12.16,12.16,0,0,0,29,24.13l.18-.24h.09l0,.08-.06.21c-.15.33-.33.64-.49,1a12.23,12.23,0,0,0,1.43-2.93c.31-1.1.72-2.16.93-3.28a.67.67,0,0,1,.16-.4l0-.08v-.08l0,0v-.08Z"/><path class="cls-67" d="M23.24,31.41a4.12,4.12,0,0,0,.28.31c.08.08.08.08,0,.18a1.94,1.94,0,0,1-.22.4l0,0A4.37,4.37,0,0,1,23,33c-.06.14-.15.27-.21.4a1.73,1.73,0,0,0-.21.53l0,.06h.06l.07-.06a1.39,1.39,0,0,0,.18-.31,5.93,5.93,0,0,1,.31-.68c.14-.26.28-.52.43-.78l.07-.1h.08l0,0,.22.23a1.2,1.2,0,0,1-.16.27c-.13.22-.27.44-.39.67s-.19.36-.29.54l-.05.18a.35.35,0,0,1-.17.3l-.17.17-.18.17-.1.16a.42.42,0,0,1-.15.34,1.34,1.34,0,0,0-.27.53c0,.12-.06.25-.08.38a3.25,3.25,0,0,1-.11.42l-.06.08a.4.4,0,0,0-.14.29v.34a2.16,2.16,0,0,0,0,.57v.39l0,.18,0,.05c-.06.12,0,.24,0,.35a2.78,2.78,0,0,0,.08.49l.15.14c.1,0,.13.07.15.15s.07.32.09.48l.05.2c0,.18.1.35.15.53a1.75,1.75,0,0,0,.12.32,1,1,0,0,0,.23.41l.21.51c.11.24.17.5.3.73a.93.93,0,0,0,.22.3l.08.08v.11l-.17.18a2.27,2.27,0,0,1-.44.27l-.13.14c-.17.24-.17.24,0,.49s.2.35.29.52a.42.42,0,0,0,.36.21l.19.08.15.14.1,0V45l.1,0,.18.18.16.12a4.39,4.39,0,0,1,.47.27,5.2,5.2,0,0,1,.46.25h.13a.24.24,0,0,1,.28,0l.46.23.2,0,.12,0a.35.35,0,0,0,.3,0h.13l.22.09a.3.3,0,0,0,.37,0,.21.21,0,0,1,.25,0h.1a2.68,2.68,0,0,1,.79.14l.52.13h.15c.16,0,.31,0,.47,0l.19-.11.19-.08a.47.47,0,0,0,.28-.07.33.33,0,0,1,.32,0,.29.29,0,0,0,.3,0l.22,0,.12,0,.09-.08c.11-.07.21-.17.37-.15l.19-.09.65-.58c.2-.16.39-.33.58-.5s.41-.36.62-.52a3,3,0,0,1,.43-.37l0,0c.11-.2.32-.31.48-.47s.27-.23.4-.34l.06,0a6.44,6.44,0,0,1,.57-.49c.15-.12.28-.26.43-.38l.4-.35.06,0a4.19,4.19,0,0,1,.45-.39,5.63,5.63,0,0,1,.45-.38c.15-.12.27-.27.42-.38s.32-.32.51-.44l0,0c.19-.21.43-.38.64-.59s.32-.27.46-.43l0,0a1,1,0,0,0,.37-.3l.8-.79c.17-.17.31-.36.48-.53l.1-.14,0-.19,0-.14a2.44,2.44,0,0,0,.34-.61c0-.11.09-.22.14-.34a.62.62,0,0,0,0-.27A1.83,1.83,0,0,0,42,35a.52.52,0,0,1,.06-.42.76.76,0,0,0,.1-.39.82.82,0,0,0-.07-.44c0-.13-.07-.26-.08-.39a.37.37,0,0,0-.12-.22l0,0v-.05h.06l0,.05a2.28,2.28,0,0,0,.42.51l.12.08.08,0v-.2c0-.11.05-.23,0-.35l0-.07v-.16a1.26,1.26,0,0,1-.13-.37l0-.07-.54-1.13-.1-.11a2.11,2.11,0,0,1-.37-.58c-.45-.7-1-1.36-1.45-2s-.85-1.21-1.27-1.82-.7-1.14-1.13-1.66a7.41,7.41,0,0,1-.55-.68c-.24-.38-.43-.8-.67-1.19-.4-.66-.79-1.34-1.13-2s-.83-1.63-1.19-2.46a5.62,5.62,0,0,1-.46-1.2v-.18a.82.82,0,0,1,.15.36.44.44,0,0,0,.13.23c.26.54.5,1.08.79,1.59L35.43,21c.42.79.92,1.54,1.38,2.3s.84,1.34,1.29,2a4.22,4.22,0,0,0,.38.46l0,0,0,0,0,0,0,0,.11.13,0,0v0l0,0,0,0,0,0,0,0a5.31,5.31,0,0,0,.62,1c.43.62.88,1.22,1.31,1.83.23.32.43.65.64,1,.4.67.79,1.34,1.17,2,.14.27.26.55.38.83a3.51,3.51,0,0,1,.12.8,1.28,1.28,0,0,0,.06.34,1.06,1.06,0,0,1,0,.53c0,.12-.13.15-.22.06l-.14-.21,0-.05v0a1.29,1.29,0,0,0-.25-.28v.19a.69.69,0,0,1,0,.47l0,.23.09.2c.17.35.16.43-.1.71l-.1.15A2.76,2.76,0,0,0,42.23,37a.64.64,0,0,1-.35.62l-.17.17a13.21,13.21,0,0,1-1.58,1.68l-1.49,1.36c-.55.5-1.12,1-1.67,1.46L35,44c-.62.53-1.23,1.07-1.86,1.6l-.26.24a2.76,2.76,0,0,1-1.06.55,3.45,3.45,0,0,1-.89.24c-.38,0-.76.1-1.14.16s-.56.2-.87.11a1.23,1.23,0,0,1-.84.12c-.51-.09-1,0-1.53-.16a8.62,8.62,0,0,0-1.24-.18.64.64,0,0,1-.29-.16,2,2,0,0,0-.72-.43,1.29,1.29,0,0,1-.47-.15c-.11-.06-.12.15-.25.11v.14a1.12,1.12,0,0,0,.11.25l.08.22-.16-.05a1.68,1.68,0,0,1-.24-.29l0,0,0,0,0,0-.06-.1c-.09-.28-.23-.53-.34-.8s-.26-.72-.38-1.08a1.08,1.08,0,0,0-.41-.51s-.13,0-.07-.12l.23,0,.23,0,.34-.09,0-.1c-.18,0-.23-.21-.31-.34A4.28,4.28,0,0,1,22,42c-.05-.2-.13-.39-.18-.58a5.25,5.25,0,0,1-.18-.65l0-.11a1.6,1.6,0,0,1-.11-.48c0-.09,0-.18-.05-.27a.2.2,0,0,0-.17-.21l-.09-.11,0-.21c0-.16,0-.32,0-.48l0-.27V37.39c0-.08,0-.17-.08-.22l0-.09v-.26a1.24,1.24,0,0,0,0-.27.54.54,0,0,1,.09-.24l.08-.13.07-.25v-.5a1.81,1.81,0,0,0,.14-.45,2,2,0,0,1,.27-.65l.09-.2a9.32,9.32,0,0,1,.38-1,2.25,2.25,0,0,1,.34-.6c.12-.16.22-.34.33-.51s.17-.31.25-.47l.08-.11C23.15,31.38,23.15,31.38,23.24,31.41Z"/><path class="cls-68" d="M22.45,43.66h-.24c-.28,0-.35-.21-.45-.42a11,11,0,0,1-.79-2.7,2.59,2.59,0,0,0-.23-.73c0-.12-.19-.19-.22-.35s0-.18,0-.27c0-.28-.09-.53-.43-.58-.07-.18,0-.36,0-.55-.08,0-.14.11-.24.07l0,0-.08,0,.07-.06c.13,0,.17-.07.21-.16a1.82,1.82,0,0,1,.17-.44l.07-.09.08-.13.1-.17v.08c-.07.13-.06.29-.14.43l0,.11.06.07h0l.12.07h0c0,.15.11.28.12.44l.1.16a.28.28,0,0,1,.13.27,4.13,4.13,0,0,0,.11.86v.12l.09.17c.1,0,.12.13.14.22.06.28.11.57.17.85s.12.43.17.65.2.65.32,1,.24.6.37.89a.27.27,0,0,0,.19.18Z"/><path class="cls-65" d="M30.73,18.49l0,0Z"/><path class="cls-65" d="M30.77,18.41l0,0Z"/><path class="cls-65" d="M41.23,31.77l0,.07a.63.63,0,0,1,.14.46.61.61,0,0,1,.08.3l.07.14a.64.64,0,0,1,.16.49l-.05.16c-.08.1-.14.2-.21.29a.17.17,0,0,0,0,.24l.2.24.08.14c.06.15.1.3.15.45v.19a6,6,0,0,1-.3.69l-.16.1-.14.1a2.85,2.85,0,0,1-.31.38c-.41.48-.88.9-1.31,1.35-.19.13-.33.31-.5.45s-.27.27-.42.38-.31.31-.5.43l0,0-.54.5c-.13.12-.28.23-.41.34l-.06,0c-.14.16-.33.27-.47.43a3.89,3.89,0,0,0-.39.32,3.11,3.11,0,0,0-.33.29l-.43.37c-.15.12-.28.27-.43.38a4.71,4.71,0,0,0-.42.36c-.14.13-.29.25-.44.37l-.06,0c-.17.18-.38.33-.56.49l-.43.38c-.13.13-.28.23-.42.36l-.29.24-.25.22c-.14.14-.3.26-.45.39a5.63,5.63,0,0,1-.45.38,3.33,3.33,0,0,0-.39.36l-.26.21-.11.11,0,.15,0,.12a.27.27,0,0,1-.25.09l-.2.05a.21.21,0,0,1-.27,0l-.06,0a.32.32,0,0,0-.3,0l-.27.11H29a.47.47,0,0,0-.35,0h-.07a.48.48,0,0,0-.31.05l-.09,0c-.1,0-.21,0-.31-.08l-.8-.33-.07,0c-.22-.12-.43-.23-.64-.36l-.24-.07a.48.48,0,0,1-.26-.07,1.45,1.45,0,0,1-.29-.19l-.13-.09a1.76,1.76,0,0,1-.37-.23l-.07,0-.16-.17-.18-.11a.84.84,0,0,1-.19-.39l-.05-.18a.42.42,0,0,1-.07-.29V43.3l0-.13c-.11-.21-.23-.42-.32-.64a7.61,7.61,0,0,1-.35-.9c-.1-.27-.19-.54-.31-.79a2.78,2.78,0,0,1-.16-.4l-.05-.15a1.16,1.16,0,0,1-.16-.4l-.07-.25c0-.16-.06-.33-.08-.5l0-.13c-.07-.09-.11-.1-.22-.06l-.09,0-.13-.1a1.81,1.81,0,0,0-.08-.56V37l.08-.1a.2.2,0,0,0,.14-.22,2,2,0,0,0,0-.35v0c.1-.29.14-.59.22-.88A.72.72,0,0,1,23,35a.51.51,0,0,0,.21-.37.22.22,0,0,1,.17-.21l.16-.16c0-.1.08-.19.13-.29a4.29,4.29,0,0,1,.31-.55c.13-.21.25-.42.39-.61s.25-.33.35-.5a2.75,2.75,0,0,1,.26-.4c.17-.2.3-.44.46-.66a4.23,4.23,0,0,1,.32-.42c.13-.15.23-.32.35-.48a2.88,2.88,0,0,0,.26-.35c.17-.12.24-.33.4-.45l.05-.06a5.29,5.29,0,0,1,.47-.59c.15-.19.34-.34.48-.54a3.83,3.83,0,0,1,.28-.29c.17-.21.38-.4.54-.62l.16-.15.09-.05.33,0,.11-.11a.22.22,0,0,1,.13-.21l.1-.11a1.51,1.51,0,0,1,.22-.28l.41-.4.15-.21a1.26,1.26,0,0,1,.21-.26l.08-.1a.76.76,0,0,1,.2-.27l.33-.37.14-.26a.93.93,0,0,1,.22-.3.48.48,0,0,0,.2-.37l.07-.18c0-.14.11-.27.17-.4A.62.62,0,0,0,32,23v-.19a.59.59,0,0,1,0-.27.53.53,0,0,0,0-.39L32,22a1.12,1.12,0,0,0-.1-.48l0-.09c0-.1,0-.14.1-.14s.13,0,.12-.14h0a1.15,1.15,0,0,1-.08-.55l0-.07a.86.86,0,0,1-.06-.35c0-.11,0-.22-.05-.33l-.1-.12-.09-.18v-.83l-.06-.22-.06-.19c0-.07,0-.15-.16-.16a.58.58,0,0,1,.11-.31h.1l0,.09c0,.12.07.22.1.34l.14.2a.3.3,0,0,1,.12.26,2.5,2.5,0,0,0,.15.71c0,.11.07.13.17.09a.36.36,0,0,1,.32,0,.63.63,0,0,0,.33.06l.13-.07a.88.88,0,0,0,.17-.35l.1-.17a.21.21,0,0,0,.08-.26c0-.14-.05-.28-.07-.43a4.31,4.31,0,0,0-.11-.49l0-.14a2.19,2.19,0,0,0,0-.51v0l.06.09a1.31,1.31,0,0,0,.12.33l.08.24,0,.12c0,.18.13.34.18.52s.1.34.15.51l.18.6a10.52,10.52,0,0,1,.25,1.08c0,.26.1.53.17.79s.15.47.23.71.19.54.28.82a.66.66,0,0,0,.14.26c.11.1.21.21.32.32a1,1,0,0,1,.27.41,1.63,1.63,0,0,0,.29.49,5.74,5.74,0,0,1,.43.66,7.57,7.57,0,0,0,.52.74c.13.18.27.36.39.54a5.47,5.47,0,0,0,.41.54c.13.16.24.34.37.51s.35.49.55.72.48.64.74.95l.49.64c.13.17.26.34.38.52s.43.62.63.93A3.35,3.35,0,0,1,41.23,31.77Z"/><path class="cls-3" d="M34,19.23a5.2,5.2,0,0,1,.26.53c.09.23.19.46.29.69s.2.49.31.73a6.28,6.28,0,0,0,.4.88c.05.18.2.32.25.51l.07.14a2.87,2.87,0,0,1,.26.49c.13.29.29.56.44.83a1.23,1.23,0,0,0,.24.31,4.81,4.81,0,0,1,.42.48c.22.3.42.62.62.94s.28.41.41.62a2.87,2.87,0,0,0,.37.49l0,.05a2.93,2.93,0,0,0,.34.5c.26.35.5.71.75,1.07a1.71,1.71,0,0,0,.21.26,3,3,0,0,1,.19.3c.1.12.18.26.27.38a5.76,5.76,0,0,0,.35.51,2.11,2.11,0,0,1,.21.31c.13.22.29.42.41.65s.2.32.3.48a.61.61,0,0,1,.08.26.32.32,0,0,0,.1.25l.11.21v.08l-.11,0-.09-.13c-.12-.24-.28-.46-.42-.69l-.45-.72-.19-.25-.89-1.23a2.37,2.37,0,0,0-.29-.34l-.15-.19a3.05,3.05,0,0,0-.46-.61c-.1-.13-.21-.26-.3-.4l-.16-.19c-.1-.13-.19-.27-.28-.41l-.2-.24-.13-.15a5,5,0,0,0-.4-.58c-.21-.28-.4-.57-.62-.84a3.52,3.52,0,0,1-.28-.46,1.33,1.33,0,0,0-.24-.33,2.3,2.3,0,0,1-.21-.33c-.07-.12-.13-.24-.19-.37a.56.56,0,0,0-.24-.31l-.06-.05a1.75,1.75,0,0,0-.28-.33l-.05-.1c-.06-.17-.12-.34-.17-.5s-.21-.5-.28-.76a6.33,6.33,0,0,1-.19-.75c-.06-.27-.11-.54-.17-.81s-.14-.58-.21-.88Z"/><path class="cls-65" d="M33.58,17.34a1.46,1.46,0,0,0,.12.5c.21.46.4.93.62,1.38s.53,1.05.78,1.58a1.51,1.51,0,0,0,.13.29c.21.35.36.73.57,1.08s.45.76.67,1.14c.12.22.25.44.36.66a4.27,4.27,0,0,0,.3.51,1.63,1.63,0,0,0,.23.29,4.74,4.74,0,0,1,.4.49l.34.44a1.78,1.78,0,0,1,.17.3,1.06,1.06,0,0,0,.29.4l.1.17.06.14c.18.25.35.51.55.74l.06.1a.49.49,0,0,0,.15.23l.07.07a3.11,3.11,0,0,0,.25.38c.14.21.3.41.44.63a4,4,0,0,0,.32.4l.14.21a1.31,1.31,0,0,0,.19.27l.08.11c.16.23.31.46.46.69l.13.22a3.21,3.21,0,0,0,.19.31l0,.11c0,.1.05.2.07.3v.06a.23.23,0,0,0,0,.25L42,32l0,.14,0,.09c0,.18.09.31.16.45l.06.2c0,.17,0,.15-.15.2s-.15,0-.2-.09-.19-.38-.3-.56l0-.09a.25.25,0,0,0,.27-.06l0-.09a.9.9,0,0,0-.18-.35l-.07-.22-.05-.18a5.15,5.15,0,0,0-.33-.56c-.14-.23-.28-.46-.44-.68s-.26-.39-.4-.58a3.87,3.87,0,0,1-.21-.34l-.13-.16-.31-.44-.33-.46c-.11-.16-.23-.31-.33-.47l-.32-.45-.56-.78c-.11-.15-.2-.31-.3-.46s-.31-.48-.46-.72-.32-.46-.49-.69l-.22-.23a2.31,2.31,0,0,1-.51-.76l-.09-.15c-.13-.22-.22-.45-.35-.67l-.22-.44c-.08-.17-.17-.35-.27-.52a5,5,0,0,1-.23-.53c0-.11-.09-.21-.14-.32-.17-.36-.31-.74-.48-1.1a8.59,8.59,0,0,1-.37-.88L34,18.88a.53.53,0,0,1-.08-.24l-.06-.14-.07-.14a2.38,2.38,0,0,0-.23-.55l0-.2v0a3.19,3.19,0,0,1-.13-.44c-.11-.3-.2-.61-.3-.91l0-.11,0-.2.11.25c.06.14.11.28.16.43s.15.35.21.53Z"/><path class="cls-3" d="M32.44,14.32l.07,0,.12.73.09.41c.11.44.17.9.3,1.34a4.25,4.25,0,0,1,.12.62c0,.18,0,.36.08.54s.05.21.06.31a2.34,2.34,0,0,1,.07.45l-.06.16a.51.51,0,0,0-.15.23l0,.07a.27.27,0,0,1-.4.14.37.37,0,0,0-.27,0l-.07,0-.16-.11a2.92,2.92,0,0,1-.09-.5c0-.1,0-.19,0-.29L32,18.35l-.16-.2a1.46,1.46,0,0,1-.12-.37l-.09-.24h-.1l-.08.11c0,.14-.1.26-.12.4l0,.07,0,0,0,0,0-.2v-.19a.83.83,0,0,1,.14-.38,1.5,1.5,0,0,0,.16-.34l.05-.08,0,.05V17l.13.07.11-.11a1.65,1.65,0,0,0,.16-.42,7.63,7.63,0,0,0,.17-.83,2.49,2.49,0,0,1,.09-.46,2.11,2.11,0,0,0,.05-.35C32.37,14.72,32.42,14.52,32.44,14.32Z"/><path class="cls-65" d="M31.25,18.57v.08A10.07,10.07,0,0,0,31,19.73a8.42,8.42,0,0,1-.36,1.21,4,4,0,0,0-.18.59c-.11.38-.2.77-.34,1.15a4.19,4.19,0,0,1-.2.49c-.13.26-.26.51-.38.77s-.39.7-.6,1l-.17.27,0,0h0v0a2.55,2.55,0,0,1,.13-.29c.08-.16.17-.32.25-.49a4.46,4.46,0,0,0,.22-.5v0h0a1.31,1.31,0,0,0-.17.24,1.42,1.42,0,0,1-.21.33,10.18,10.18,0,0,1-.62.94c-.14.18-.29.36-.44.53l-.18.23-.07,0h0v0l.1-.17a2,2,0,0,0,.34-.49,3.24,3.24,0,0,1,.21-.35,3.91,3.91,0,0,0,.26-.44l.14-.22.07-.18.11-.2L28.8,24a6,6,0,0,0,.45-.77.87.87,0,0,0,.15-.34,1.14,1.14,0,0,0,.19-.34,3.38,3.38,0,0,0,.23-.63,1.72,1.72,0,0,1,.19-.47,2.11,2.11,0,0,0,.16-.34c.13-.32.27-.64.4-1l0-.11a7,7,0,0,1,.25-.73,1.11,1.11,0,0,0,.07-.26l.08-.25a1.17,1.17,0,0,0,0-.27v-.26l0-.25,0-.12,0-.08h.08V18a1.07,1.07,0,0,0,0,.56Z"/><path class="cls-65" d="M31.29,18.49l0,.08Z"/><path class="cls-65" d="M41.32,31.89l0-.08Z"/><path class="cls-65" d="M41.35,32l0-.08Z"/><path class="cls-65" d="M41.39,32.05l0-.08Z"/><path class="cls-65" d="M41.43,32.09l0,0Z"/><path class="cls-65" d="M41.47,32.13l0,0Z"/><path class="cls-65" d="M41.51,32.21l0,0Z"/><path class="cls-65" d="M41.55,32.29l0,0Z"/><path class="cls-65" d="M41.59,32.33l0,0Z"/><path class="cls-65" d="M41.27,31.81l0,0Z"/><path class="cls-65" d="M31.33,18.37l0,0Z"/><path class="cls-65" d="M31.36,18.25l0,0Z"/><path class="cls-65" d="M31.4,18.13l0,0Z"/><path class="cls-65" d="M31,17.94l0,0Z"/><path class="cls-65" d="M31.05,17.86l0,0Z"/><path class="cls-69" d="M44,33.55l.08.16a3.89,3.89,0,0,0,.25.75l.07.16a3.06,3.06,0,0,1,.25.83,4.83,4.83,0,0,1,.05,1.47,2,2,0,0,0,.09.54c0,.29,0,.36-.29.36-.09,0-.12.06-.16.12l-.14,0a.54.54,0,0,1-.07-.51c0-.13.09-.15.2-.06l.14.05,0-.16c-.1-.66,0-1.34-.17-2-.06-.29-.17-.57-.25-.85a4.19,4.19,0,0,1-.14-.47C44,33.78,43.92,33.65,44,33.55Z"/><path class="cls-70" d="M44.25,33.79l0,0a1.21,1.21,0,0,1,.16.45l0,.13c.09.18.13.39.2.57a3.57,3.57,0,0,1,.26,1,4.66,4.66,0,0,1,0,1.58c0,.18.06.34,0,.51s0,.16-.1.18a.3.3,0,0,0-.24.25c-.09.05-.09.05-.17-.12l0-.05,0-.09v-.09a.37.37,0,0,1,.29-.21c.1,0,.09-.08.09-.14a3.48,3.48,0,0,1-.06-.85,3.58,3.58,0,0,0,0-1,4.11,4.11,0,0,0-.25-1.09l0-.23a.59.59,0,0,0-.1-.29A1.26,1.26,0,0,1,44.25,33.79Z"/><path class="cls-71" d="M44.45,34.62a4,4,0,0,0,.16.49l.07.27a2.93,2.93,0,0,0,0,.29,2,2,0,0,1,.07.54,1.05,1.05,0,0,0,0,.31.77.77,0,0,1,0,.37v.27a.42.42,0,0,0,0,.27c0,.13.05.25.08.38v.08l-.13.09,0,0-.12,0-.13.14-.11-.09V38c0-.28,0-.21.23-.18l.07,0,.13-.09v-.12a2.83,2.83,0,0,0-.08-.4.72.72,0,0,1,0-.41l0-.18v-.53a.9.9,0,0,0,0-.4l0-.1a2.24,2.24,0,0,0-.15-.67.81.81,0,0,1-.05-.27Z"/><path class="cls-72" d="M40.48,27.77c.08.11.18.19.25.3s.27.39.39.59l.13.18,0,0c.13.25.31.46.45.69l.42.64a1.69,1.69,0,0,0,.21.31v.06l.08.16,0,.16c-.12,0-.16-.08-.2-.15-.6-1-1.27-1.93-1.93-2.88-.08-.11-.2-.21-.19-.38h.05l0,0,0,0,0,0,0,.08,0,0Z"/><path class="cls-73" d="M42.5,30.9l0-.16.11.11a3.38,3.38,0,0,0,.24.41,3.9,3.9,0,0,1,.28.49l0,0a2.09,2.09,0,0,1,.25.44,3.55,3.55,0,0,1,.23.43l.11.21c.08.22.2.42.3.64v.41c-.17-.06-.17-.23-.2-.37a1.71,1.71,0,0,0-.27-.58c-.18-.3-.3-.63-.47-.94s-.32-.6-.5-.89C42.52,31.06,42.44,31,42.5,30.9Z"/><path class="cls-70" d="M42,29.63l.08.08,0,.12L42.81,31l0,.11.21.33.07.06.08.2a2.49,2.49,0,0,0,.2.4,4.64,4.64,0,0,1,.23.44c.08.14.15.29.23.44l0,.19-.09-.1-.15-.32-.08-.16-.08-.16,0-.09c-.2-.28-.33-.61-.51-.91L42.78,31a4,4,0,0,0-.22-.34c-.13-.16-.2-.36-.33-.52s-.23-.37-.38-.55l-.1-.23.07.07Z"/><path class="cls-74" d="M40.24,27.49h0l-.08,0a17,17,0,0,1-1.29-1.68l-.1-.16,0-.05,0-.1.11.1.3.41.61.8c.16.22.31.44.47.65Z"/><path class="cls-75" d="M38.74,25.47v.12l-.13-.06c-.2-.31-.45-.58-.62-.91a2,2,0,0,0-.16-.28v0l0-.16.18.22c.24.34.48.67.73,1Z"/><path class="cls-70" d="M43.93,33.12l.08.08c.08.18.15.36.23.53v.06l-.11-.13L44,33.41A.58.58,0,0,1,43.93,33.12Z"/><path class="cls-73" d="M42.46,30.74l-.08-.16Z"/><path class="cls-74" d="M40.4,27.69l0-.08Z"/><path class="cls-74" d="M40.48,27.77l0,0Z"/><path class="cls-74" d="M40.44,27.73l0,0Z"/><path class="cls-74" d="M40.36,27.61l0,0Z"/><path class="cls-74" d="M40.28,27.53l0,0Z"/><path class="cls-74" d="M40.32,27.57l0,0Z"/><path class="cls-76" d="M19.71,38.11h.12a.88.88,0,0,1,.22.48l0,.09.1.19a.88.88,0,0,1,.27.55.93.93,0,0,0,.23.59l.1.24c.11.55.24,1.1.4,1.65a12.16,12.16,0,0,0,.51,1.43l.14.18c.05.05.14.1,0,.15h-.09l-.13-.07A6.43,6.43,0,0,1,21,42c-.19-.55-.3-1.12-.46-1.68l-.08-.17a2.51,2.51,0,0,1-.17-.61,1,1,0,0,0-.23-.47.5.5,0,0,1-.11-.26l-.05-.16,0-.13,0-.05c0-.08-.08-.16,0-.25Z"/><path class="cls-77" d="M20,38.78v0a.66.66,0,0,0,.18.34.61.61,0,0,1,.14.29c0,.24.12.47.18.7l.05.16c-.05.1-.05.22-.11.32h0a.86.86,0,0,0-.05-.27l-.11-.41-.06-.19c0-.1-.09-.2-.14-.3l-.08-.14,0,0A1,1,0,0,1,20,38.78Z"/><path class="cls-78" d="M19.91,39.26v.1l0,0,0,0-.05-.25c0-.11,0-.24-.1-.33v-.14a1.29,1.29,0,0,0,0-.39l.08,0a.9.9,0,0,1,.08.28C19.88,38.76,19.89,39,19.91,39.26Z"/><path class="cls-49" d="M19.83,41.92v-.33l0-.19v-.26a1.07,1.07,0,0,1,.12.34l.23.45,0,.16c-.12,0-.11-.09-.15-.14s0-.12-.06-.1h0Z"/><path class="cls-79" d="M20.19,41.92l-.05,0a1,1,0,0,1-.15-.41l0,0h.08l0-.13v-.19a.4.4,0,0,1,.16-.38l0,.09V41l0,.11a3.55,3.55,0,0,0,0,.46C20.23,41.66,20.27,41.8,20.19,41.92Z"/><path class="cls-80" d="M20.31,40.93v-.12l0-.2h0c.13.1.14.25.18.39l0,.12-.12,0Z"/><path class="cls-24" d="M19.83,41.92l.09-.16.07.08v.31l0,.24h0a.61.61,0,0,1-.08-.27l0-.08Z"/><path class="cls-81" d="M44.64,38.75l0,.12,0,.12a3,3,0,0,1-.12.79,1.84,1.84,0,0,0-.09.25l0,.18v.11a6.41,6.41,0,0,0-.17.73c0,.2-.11.39-.15.59s-.13.44-.2.66-.07.21-.11.32-.1.24-.13.37-.1.2-.1.31v0l0,.05v0c0,.11-.14.19-.15.32l-.06.05h-.1l-.13-.05,0-.08,0,0,.11-.05a.56.56,0,0,0,.14-.25,15.86,15.86,0,0,0,.8-2.68c.07-.4.14-.8.24-1.19C44.52,39.21,44.57,39,44.64,38.75Z"/><path class="cls-82" d="M43.73,43.15v-.08l0,0V43l0,0v0l0-.08v0l0-.08v0l0,0v-.08l0,0v-.08l0,0v-.07l0,0v-.08l0-.08v0l0-.08v-.08l0,0v-.08l0-.08V41.6l0,0v-.08l0-.08v-.08l0-.08c.09-.36.17-.73.24-1.1l0-.17a.84.84,0,0,0,.08-.3l0-.05.05.11a3,3,0,0,1-.08.43v.06l0,.18c-.08.38-.18.77-.27,1.15s-.26.85-.4,1.26c0,.14-.1.27-.16.4l-.07.14,0,0,0,0H43.6l0-.07,0,0h0l0,0,0,0v0Z"/><path class="cls-83" d="M45.36,38.08h0v.12l-.12.25a1,1,0,0,1,0,.35v0l0,0-.17.07c-.15.16-.13.38-.2.57h0v-.32l0-.08.09-.24.16-.11c.1,0,.14,0,.16-.14v0a2.4,2.4,0,0,1,0-.28C45.27,38.22,45.35,38.17,45.36,38.08Z"/><path class="cls-84" d="M44.77,39.5h0c.13.15.09.34.1.52s0,.28-.07.4c-.11-.05-.1-.18-.19-.25a1.83,1.83,0,0,1,.07-.32l0-.11,0-.2Z"/><polygon class="cls-83" points="44.76 39.54 44.73 39.74 44.72 39.62 44.76 39.54"/><path class="cls-85" d="M44.13,42l0,.08Z"/><path class="cls-85" d="M44.09,42.08l0,.08Z"/><path class="cls-85" d="M44.21,41.68l0,.08Z"/><path class="cls-85" d="M44.29,41.4l0,.08Z"/><path class="cls-85" d="M44.33,41.24l0,.08Z"/><path class="cls-85" d="M43.89,42.67l0,.08Z"/><path class="cls-85" d="M43.85,42.79l0,.08Z"/><path class="cls-85" d="M43.69,43.23l0,0Z"/><path class="cls-85" d="M43.73,43.15l0,0Z"/><path class="cls-85" d="M43.77,43l0,0Z"/><path class="cls-85" d="M43.81,42.91l0,0Z"/><path class="cls-85" d="M43.93,42.59l0,0Z"/><path class="cls-85" d="M44,42.47l0,0Z"/><path class="cls-85" d="M44,42.35l0,0Z"/><path class="cls-85" d="M44.05,42.24l0,0Z"/><path class="cls-85" d="M44.25,41.56l0,0Z"/><path class="cls-85" d="M44.17,41.84l0,0Z"/><path class="cls-68" d="M38.7,26l-.12-.16,0,0,0,0c-.51-.71-1-1.47-1.47-2.2-.38-.56-.74-1.13-1.09-1.71s-.66-1.15-1-1.73l0-.18.09.1a7.14,7.14,0,0,1,.4.71,6.4,6.4,0,0,1,.42.64,1.64,1.64,0,0,1,.16.29L36.81,23l.46.65a4.6,4.6,0,0,0,.46.69c.41.63.86,1.23,1.29,1.85.17.26.41.47.6.71s.35.55.54.82c.33.44.63.89,1,1.33l.08.14c.24.43.52.84.8,1.25a2.78,2.78,0,0,1,.28.47c.21.46.45.9.69,1.34a4.63,4.63,0,0,1,.46,1.13c.06.3.17.6.23.9a4.09,4.09,0,0,1,.12,1.16l0,.15c-.05.12-.12.11-.19,0l0,0-.14-.14,0,.24a.89.89,0,0,0,.11.35.46.46,0,0,1,.06.34c-.08.35-.06.7-.11,1l0,.18c.13.06.11.17.11.29,0,.36-.16.69-.21,1a.38.38,0,0,1-.17.28l-.12.16a4.3,4.3,0,0,0-.23.69,1.73,1.73,0,0,1-.64,1.08l-.15.18a6.71,6.71,0,0,1-1.54,1.9l-1.83,1.66A9.09,9.09,0,0,1,37.29,46a2.55,2.55,0,0,1-1.1.52,1.7,1.7,0,0,0-.55.25,8,8,0,0,1-1.16.4c-.58.18-1.17.31-1.75.48-.21.07-.43.12-.64.2a3.26,3.26,0,0,1-.7.07,1.93,1.93,0,0,0-.5.11,2.9,2.9,0,0,1-1,.22l-.12,0a1.26,1.26,0,0,1-.81.09c-.27,0-.54.07-.81,0a15.8,15.8,0,0,1-2.89-.89,4.54,4.54,0,0,0-.75-.31c-.09,0-.2,0-.22.11h-.11l0,0,0,0,0,0,0,0L24,47,24,47v-.06c.08-.21.11-.22.31-.14.46.2.92.43,1.39.59a10.6,10.6,0,0,0,2.65.62h.14c.62-.17,1.27-.11,1.89-.27l.12,0a2.43,2.43,0,0,1,.92-.26c.18,0,.35,0,.53,0s.42-.14.64-.2a2.45,2.45,0,0,1,.54-.1A.7.7,0,0,0,33.4,47a5.72,5.72,0,0,1,1.7-.54,2.83,2.83,0,0,0,1.3-.63l1.29-1.1a.27.27,0,0,0,.12-.22c0-.12.1-.19.19-.26l1-.86c.37-.32.73-.65,1.09-1,.09-.09.17-.17.3-.16l.19-.1c.39-.36.73-.78,1.11-1.15l.08-.11a5.15,5.15,0,0,1,.59-1.05,1.8,1.8,0,0,0,.27-.62l.06-.14A3.65,3.65,0,0,0,43.19,38v-.18a.42.42,0,0,1-.09-.36,5.56,5.56,0,0,1,.08-.7,1.71,1.71,0,0,0,0-.78c0-.2-.09-.4-.14-.6a.83.83,0,0,1,0-.27c0-.2.09-.24.27-.15l0,0,.14.13c.09-.14,0-.29,0-.44v-.05a15.37,15.37,0,0,0-.53-2l0-.05,0-.08,0,0c-.12-.29-.3-.55-.43-.84l0,0,0,0,0,0,0,0,0,0,0,0,0,0,0,0,0,0,0,0,0,0,0,0h0l0,0,0,0,0,0,0,0,0-.05,0,0,0-.06,0,0,0,0,0,0,0-.06,0,0-.14-.25,0,0,0,0,0,0,0-.07,0,0,0-.06,0,0L41.49,30l0,0c-.86-1.3-1.7-2.61-2.64-3.86l0,0,0,0Z"/><path class="cls-86" d="M41.16,29.15,41.08,29a3.81,3.81,0,0,1-.24-.32c-.16-.19-.28-.42-.45-.62s-.3-.43-.45-.64l-.09-.13-.08-.17,0-.11a4,4,0,0,1-.34-.38,6.35,6.35,0,0,1-.75-1,2,2,0,0,0-.37-.51,1.86,1.86,0,0,1-.23-.32c-.09-.17-.21-.31-.31-.47l-.15-.24L37.47,24a1.14,1.14,0,0,1-.18-.25l0-.14.08.08c.14.21.29.41.43.6l0,0c.07.09.12.19.19.27a2.37,2.37,0,0,0,.22.33c.13.17.25.35.37.53l.13.14.12.15c0,.13.14.21.21.3s.19.28.3.42.28.37.42.56.28.31.41.47l0,.06.26.37.34.48a4,4,0,0,0,.38.54l0,0a3.9,3.9,0,0,0,.36.54c.12.18.25.35.36.53a3.81,3.81,0,0,1,.37.61.45.45,0,0,0,.19.24.82.82,0,0,0,.14.26,6.24,6.24,0,0,1,.47.84,4.83,4.83,0,0,1,.27.56c0,.12.13.24.19.36a7.17,7.17,0,0,1,.37,1l0,.14L43.78,34a2.17,2.17,0,0,1-.22-.6.82.82,0,0,0-.12-.33l0-.05a14.78,14.78,0,0,0-.91-1.77C42.08,30.53,41.63,29.83,41.16,29.15Z"/><path class="cls-21" d="M34.93,20a.8.8,0,0,0,.12.27l.11.2a1.58,1.58,0,0,0,.2.36c.19.31.37.62.54.94.06.12.15.23.22.35a7.92,7.92,0,0,0,.42.69c.17.22.32.46.48.7l.75,1.13.17.24a2.88,2.88,0,0,1,.22.38,1.06,1.06,0,0,0,.17.26.9.9,0,0,1,.17.3,1.45,1.45,0,0,1-.39-.43c-.3-.43-.58-.85-.87-1.28a4.43,4.43,0,0,1-.29-.46,4,4,0,0,0-.24-.41L36.59,23l-.22-.35c-.26-.44-.53-.87-.79-1.3-.09-.16-.16-.32-.25-.47a4.31,4.31,0,0,0-.26-.47L35,20.26c-.06-.13-.13-.25-.19-.37s-.21-.4-.32-.59a4.11,4.11,0,0,1-.21-.42l-.1-.22c-.07-.17-.15-.35-.23-.52l-.07-.21.1.15.39.79c.11.21.24.41.34.63A3.33,3.33,0,0,1,34.93,20Z"/><path class="cls-86" d="M37.27,23.6l-.11-.1-.51-.75a1.67,1.67,0,0,1-.21-.33l0,0c-.11-.08-.15-.22-.23-.33A2,2,0,0,1,36,21.7l.08.05c.15.24.29.49.45.72s.27.42.41.62l.16.21A1.11,1.11,0,0,1,37.27,23.6Z"/><path class="cls-87" d="M26.93,49.05l0,0L26.81,49h0c-.16-.08-.32-.13-.47-.21l-.05-.05v0l0,0h.23a13.92,13.92,0,0,0,3.18.83l.23.05a8.9,8.9,0,0,0,1.45.14,17.36,17.36,0,0,0,2,0c.58-.05,1.16-.13,1.74-.22a18.85,18.85,0,0,0,3-.74,5.52,5.52,0,0,0,.88-.34l.06,0c.19-.05.36-.15.55-.2s.13,0,.11.08l0,0,0,0,0,0,0,0,0,0,0,0-.15,0c-.45.13-.87.34-1.32.48-.62.19-1.25.36-1.89.49s-1.09.22-1.65.29a12.18,12.18,0,0,1-1.47.14l-.95,0a14.2,14.2,0,0,1-2.34-.19l-.21,0c-.2,0-.41-.07-.61-.12-.35-.07-.7-.14-1-.24l-.2,0L27,49l-.1,0v0Z"/><path class="cls-88" d="M29.54,49.61a2.76,2.76,0,0,1,.57.06l.06,0c.17,0,.35.06.53,0a4.58,4.58,0,0,0,.64,0,11.43,11.43,0,0,0,1.17,0h.08a3,3,0,0,1,.67,0l.23,0h.08a2.05,2.05,0,0,0,.55,0,4,4,0,0,0,.5-.06,3.05,3.05,0,0,1,.41,0l.24,0c.29-.07.59-.12.88-.18.46-.1.91-.22,1.36-.35s.69-.22,1-.34l.37-.15.42-.16.08,0c-.06.17-.21.2-.35.23-.38.07-.71.26-1.07.36s-.69.22-1.05.31c-.11,0-.23,0-.34,0a6.19,6.19,0,0,0-.62.13l-.28.07q-.48.06-.93.15a3.34,3.34,0,0,1-.43,0,1.75,1.75,0,0,1-.32,0,.59.59,0,0,0-.29,0h-.14a.93.93,0,0,0-.33,0h-1.9l-.21,0h-.08a4.26,4.26,0,0,1-.61,0L30,49.7l-.39-.05Z"/><path class="cls-89" d="M33.58,50H31.63l-.11,0a.58.58,0,0,1,.32,0h.95c.18-.06.37,0,.56,0h.16c.11,0,.24,0,.35,0H34l.24,0h.08l.28,0h0l.2,0h.08l.2,0h0l.2,0h.08l.16,0h.08l.12,0h0l.16,0h0l.16,0h0l.12,0h.2l-.23.08-.09,0h0l-.16,0h0l-.12,0a1.28,1.28,0,0,0-.33.06l-1.17.18c-.22,0-.43,0-.65,0Z"/><path class="cls-90" d="M36.6,49.33l.2-.07c.4-.09.8-.22,1.19-.34s.49-.19.74-.28l.28-.09.05,0v0l0,0,0,0a1.78,1.78,0,0,1-.43.18h0c-.35.12-.71.2-1.06.32l-.13,0h0l-.12,0h0l-.11,0-.05,0-.09,0h-.05l-.11,0Z"/><path class="cls-91" d="M31.84,49.92h-.79l-.24,0h-.15v0a3.51,3.51,0,0,1,.56,0,2.66,2.66,0,0,0,.49,0Z"/><path class="cls-91" d="M33.35,49.89l-.13,0h-.43l.13,0Z"/><polygon class="cls-91" points="33.86 49.85 33.76 49.89 33.51 49.89 33.61 49.85 33.86 49.85"/><polygon class="cls-91" points="34.62 49.77 34.53 49.81 34.34 49.81 34.42 49.77 34.62 49.77"/><polygon class="cls-91" points="34.26 49.81 34.17 49.85 34.02 49.85 34.1 49.81 34.26 49.81"/><path class="cls-91" d="M34.85,49.73l-.2,0Z"/><path class="cls-91" d="M35.13,49.69l-.2,0Z"/><path class="cls-91" d="M35.37,49.65l-.2,0Z"/><path class="cls-91" d="M36,49.53l-.16,0Z"/><path class="cls-91" d="M36.2,49.49l-.16,0Z"/><polygon class="cls-91" points="36.56 49.45 36.4 49.45 36.56 49.41 36.57 49.43 36.56 49.45 36.56 49.45"/><polygon class="cls-91" points="36.56 49.41 36.72 49.37 36.73 49.39 36.72 49.41 36.72 49.41 36.56 49.41 36.56 49.41"/><polygon class="cls-91" points="36.72 49.33 36.88 49.33 36.88 49.36 36.88 49.37 36.86 49.37 36.84 49.37 36.72 49.37 36.72 49.33"/><path class="cls-91" d="M35.61,49.61l-.16,0Z"/><path class="cls-91" d="M35.81,49.57l-.12,0Z"/><path class="cls-37" d="M29.62,49.73l-.12,0Z"/><path class="cls-37" d="M29.86,49.76l-.12,0Z"/><path class="cls-37" d="M30.1,49.8l-.12,0Z"/><path class="cls-91" d="M36.36,49.45l-.12,0Z"/><polygon class="cls-92" points="26.93 49.05 26.93 49.02 26.96 49.05 26.93 49.05"/><path class="cls-93" d="M44.64,38.75a1.51,1.51,0,0,1,0,.47l0,.05c-.14,0-.1.17-.1.27l0,.13-.06.2a1.08,1.08,0,0,1-.09.44l0,.07a2.92,2.92,0,0,1-.17.83c0,.09,0,.18,0,.27s-.09.36-.16.53-.09.29-.13.43-.1.27-.15.4a2.7,2.7,0,0,0-.14.4,1.39,1.39,0,0,1-.16.35l-.07,0a1.59,1.59,0,0,1,.17-.61,20.46,20.46,0,0,0,.62-2,6.53,6.53,0,0,0,.19-1.16,4.62,4.62,0,0,0,.19-.88,1,1,0,0,1,.16-.32h0Z"/><path class="cls-94" d="M44.64,38.63h0v-.12l0-.23c0-.09.07-.11.18-.1l.13-.1a1.06,1.06,0,0,0-.06-.39.86.86,0,0,1,0-.39v0c0-.22.06-.43,0-.65l0-.18,0-.09a5.19,5.19,0,0,0-.14-1,2.86,2.86,0,0,1-.1-.42h0l.07.1c.07.26.14.52.2.78a5.37,5.37,0,0,1,.09.89l0,.24a1.83,1.83,0,0,0,0,.33l0,.25v.21c0,.12,0,.26.06.38v.08l-.1.11h-.1c-.09,0-.14.06-.15.15Z"/><path class="cls-3" d="M39.06,48.58a.82.82,0,0,0,.35-.2l.12,0,0,0,0,0h0l0,0,.11-.09,0,0h0l0,0,0,0,0,0,0,0,0,0,.05,0,.22-.17a2.33,2.33,0,0,0,.35-.27l.18-.14,0-.05.06,0,0-.06.14-.15c.1-.09.18-.19.28-.29a2,2,0,0,0,.37-.45c.45-.6.94-1.16,1.34-1.78a5.44,5.44,0,0,0,.44-.91l.12-.22h0l.06-.07a3,3,0,0,0,.67-.65l.13-.06.06.15a2.24,2.24,0,0,1-.11.5l-.18.52a4.84,4.84,0,0,1-.18.49l0,.09,0,0,0,.06,0,0,0,.06,0,0,0,.11,0,0,0,.06,0,0,0,.05h0l-.11.28c-.11.15-.22.29-.32.44l-.19.2L43,46a4.31,4.31,0,0,1-.57.56c-.12.1-.23.22-.36.32s-.57.44-.86.64l-.08.07-.47.3a2.38,2.38,0,0,0-.44.25l-.25.12-.63.31-.16.08h-.07c-.05,0-.1.05-.11,0h0Z"/><path class="cls-95" d="M44.08,44.29a3.86,3.86,0,0,1,.2-.51,10.18,10.18,0,0,0,.45-1.56h0l-.11.13,0-.17A4.13,4.13,0,0,0,44.79,41l.1-.24c.1,0,.1.13.11.21a2.48,2.48,0,0,1,.06.61c0,.17.06.34,0,.5a3,3,0,0,1-.09.51,4.08,4.08,0,0,1-.44,1.27,7.23,7.23,0,0,1-.55,1l-.17.22h0l0-.13h0l0-.08h0l0-.09h0l.09-.19h0l0-.09h0l0-.09h0Z"/><path class="cls-96" d="M44.57,43.82l0-.19a3.12,3.12,0,0,0,.23-.67,2.7,2.7,0,0,0,.15-.75l0-.11v-.17l0-.13v-.34a2.84,2.84,0,0,0-.08-.66l0-.07,0,0,0,0H45l0,0c0,.15,0,.31.14.45s.14.06.18,0,0-.21.21-.16c-.08.45-.17.9-.29,1.34s-.22.64-.35.95l-.11.21-.1.21Z"/><path class="cls-97" d="M45.63,41h0v0l-.11,0c-.16.15-.2,0-.25-.1l-.05-.19c0-.09.06-.19.11-.29s.08-.18.19-.16.11.12.12.2a4,4,0,0,0,0,.49Z"/><path class="cls-35" d="M45.2,40.65a.77.77,0,0,1,.12.24h.09c.08-.07.1-.07.19,0h0c-.13,0-.14.11-.16.2h-.09c-.06-.18-.23-.29-.31-.47a.35.35,0,0,1,0-.28c0-.3,0-.6,0-.9a1,1,0,0,1,.07-.41.15.15,0,0,0-.06-.2l.2,0,0,0h0l0,.16-.08.11v.15c-.07.4,0,.81-.08,1.21C45.09,40.52,45.16,40.58,45.2,40.65Z"/><polygon class="cls-35" points="45.35 42.35 45.32 42.35 45.36 42.24 45.35 42.35"/><polygon class="cls-35" points="45.44 41.96 45.43 42.07 45.4 42.08 45.44 41.96"/><polygon class="cls-35" points="45.24 42.63 45.23 42.7 45.2 42.71 45.24 42.63"/><path class="cls-35" d="M45.4,42.12l0,.08Z"/><polygon class="cls-35" points="45.31 42.47 45.28 42.47 45.31 42.39 45.31 42.47"/><polygon class="cls-35" points="45.27 42.58 45.24 42.59 45.28 42.51 45.27 42.58"/><path class="cls-35" d="M45.2,42.71l0,.08Z"/><path class="cls-3" d="M21.61,43.59l.12,0,.11,0h.05a3.45,3.45,0,0,1,.65,1.07,7.58,7.58,0,0,0,.7,1.43l0,.08,0,0,0,0a1.52,1.52,0,0,0,.36.4A2.36,2.36,0,0,1,24,47l0,0v0l0,0,0,0c0,.09.13.13.21.18l.13.1,0,0,0,0,0,0,0,0h0l0,0,0,0,.07,0,.06,0,.05.05,0,0,.13.07,0,0,0,0,0,0,0,0h0l0,0h0l0,0h0l.08,0c.13.09.27.17.41.25l.4.23.07,0,0,0h0l0,0,0,0h0l-.08,0h0l-.08,0a3.25,3.25,0,0,1-.43-.18l-.24-.1-.08-.06c-.3-.16-.6-.32-.89-.49-.12-.06-.23-.14-.34-.2L24,47.55a8.28,8.28,0,0,1-.89-.67L23,46.83l0,0-.19-.2-.08,0,0,0v0a2.73,2.73,0,0,0-.33-.35,7.66,7.66,0,0,1-1.1-1.43,9.09,9.09,0,0,1-.68-1.45l-.12-.39-.08,0-.08-.2,0-.08v0l0-.09v0l-.08-.14v-.08l0-.13h0l.06,0,.05.09c0,.09.09.19.15.28l.09.13a2.72,2.72,0,0,0,.34.42l.24.2a3.37,3.37,0,0,0,.32.19l.07,0,.08,0Z"/><path class="cls-3" d="M21.54,45.41v0Z"/><path class="cls-3" d="M21.53,45.37l0,0Z"/><path class="cls-98" d="M45.39,38.35a.25.25,0,0,1,.23.13l0,.11h-.17l-.09-.15Z"/><path class="cls-99" d="M45.44,38l0-.05.12.12,0,.18A.22.22,0,0,1,45.44,38Z"/><polygon class="cls-22" points="45.39 38.35 45.32 38.43 45.28 38.44 45.29 38.38 45.4 38.19 45.39 38.35"/><path class="cls-40" d="M20,42.39a1.46,1.46,0,0,0,0-.36l.07-.11h0l.06.09v.19a3,3,0,0,0,0,.42v.08l0,.08V43a1,1,0,0,1-.12-.32Z"/><path class="cls-100" d="M20.15,43v-.08a1.85,1.85,0,0,1,.19.56A1.66,1.66,0,0,1,20.15,43Z"/><polygon class="cls-100" points="20.11 42.63 20.07 42.57 20.04 42.36 20.07 42.2 20.09 42.23 20.11 42.31 20.15 42.47 20.11 42.63"/><path class="cls-100" d="M20.15,42.5l0,.09Z"/><path class="cls-100" d="M20.19,42.63l0,.08Z"/><path class="cls-100" d="M20.15,42.79l0-.08Z"/><path class="cls-22" d="M36,49.61l.16,0Z"/><path class="cls-22" d="M35.88,49.64l.12,0Z"/><path class="cls-3" d="M42.66,46.47l0,.05Z"/><rect class="cls-101" x="42.89" y="46.22" width="0.06" transform="translate(-20.11 43.89) rotate(-45)"/><rect class="cls-102" x="42.93" y="46.18" width="0.06" transform="translate(-20.1 44.68) rotate(-45.71)"/><polygon class="cls-72" points="42.98 46.16 42.99 46.14 42.99 46.15 42.98 46.16 42.98 46.16"/><path class="cls-103" d="M45.2,40.65l-.08,0L45,40.51v-.1a2.81,2.81,0,0,0,0-.65l0-.25v-.18l0-.19,0-.08.12.06.13,0,.09,0,.09.08c0-.1,0-.2,0-.3l.06-.11v.43l0,.23v.16a2.06,2.06,0,0,0,0,.43,2.57,2.57,0,0,1,0,.62v.12l0-.05c0-.16,0-.32,0-.48l0-.08-.12,0-.1.19,0,.17Z"/><path class="cls-32" d="M30.81,49.89l.24,0Z"/><polygon class="cls-11" points="43.69 45.29 43.69 45.3 43.69 45.29 43.69 45.29"/><path class="cls-89" d="M37.43,49.17l1-.35h.08c0,.12-.13.1-.2.14l-.07,0-.12.07-.09,0h0l-.09,0,0,0h-.05l-.22.06-.22.06v0Z"/><polygon class="cls-91" points="36.99 49.29 37.15 49.25 37.16 49.28 37.15 49.29 37.12 49.29 36.99 49.29"/><polygon class="cls-91" points="37.43 49.17 37.43 49.21 37.39 49.21 37.31 49.21 37.43 49.17"/><polygon class="cls-89" points="37.31 49.21 37.39 49.21 37.27 49.25 37.26 49.23 37.27 49.21 37.31 49.21"/><polygon class="cls-89" points="37.15 49.29 37.15 49.25 37.27 49.25 37.27 49.25 37.15 49.29"/><polygon class="cls-89" points="36.99 49.29 37.12 49.29 36.99 49.33 36.98 49.31 36.99 49.29"/><polygon class="cls-89" points="36.88 49.37 36.88 49.33 36.99 49.33 36.99 49.33 36.88 49.37"/><polygon class="cls-89" points="36.72 49.37 36.84 49.37 36.84 49.41 36.72 49.41 36.72 49.37"/><path class="cls-88" d="M37.73,49.2h0Z"/><path class="cls-88" d="M37.87,49.13l-.08,0Z"/><polygon class="cls-90" points="37.95 49.09 37.94 49.13 37.87 49.13 37.87 49.09 37.87 49.09 37.95 49.09"/><polygon class="cls-88" points="37.58 49.24 37.56 49.24 37.55 49.24 37.57 49.23 37.58 49.24"/><path class="cls-92" d="M26.29,48.78l0,0a1.8,1.8,0,0,1,.48.24A1.37,1.37,0,0,1,26.29,48.78Z"/><polygon class="cls-92" points="26.8 48.98 26.89 49.02 26.81 49.01 26.8 48.98"/><path class="cls-92" d="M26.17,48.74l.08,0Z"/><path class="cls-92" d="M26.09,48.7l.08,0Z"/><polygon class="cls-89" points="36.56 49.41 36.72 49.41 36.56 49.45 36.56 49.41"/><path class="cls-88" d="M38.15,49.06v0l.12-.05,0,0a.55.55,0,0,0,.24-.12h0l.08,0-.33.15Z"/><polygon class="cls-90" points="38.03 49.1 38.02 49.07 38.06 49.09 38.03 49.1"/><path class="cls-104" d="M38.66,48.86l-.08,0a3.49,3.49,0,0,0,.44-.2l.11,0-.2.11-.15.06Z"/><polygon class="cls-65" points="28.2 25.96 28.17 26.01 28.13 26.02 28.12 25.99 28.18 25.95 28.2 25.96"/><polygon class="cls-65" points="28.19 25.94 28.2 25.93 28.21 25.93 28.19 25.94"/><path class="cls-105" d="M24,47.07a.87.87,0,0,1-.31-.35.72.72,0,0,0-.14-.26.67.67,0,0,1-.1-.3l0-.15.18,0,0-.11.14,0,.07.07.2.07.25.06.21.06a3.19,3.19,0,0,1,.32.23l.3.23.22,0,.18,0,.25,0h.35l.17,0a.68.68,0,0,0,.42.09c.09,0,.17.05.27.05s.2.06.3,0,.2,0,.29,0a.75.75,0,0,1,.29.06l.17,0h.44a.28.28,0,0,0,.29-.07.31.31,0,0,1,.28,0l.07,0a.27.27,0,0,0,.32-.05l.15-.08,0,0a.82.82,0,0,0,.35,0l.23,0,.21-.1h.16a2.94,2.94,0,0,0,.51,0l.11,0,.15,0,.22-.07a.35.35,0,0,1,.28-.09L32,46.3a.5.5,0,0,1,.27-.11A.48.48,0,0,0,32.6,46l.4-.35c.19-.17.4-.34.59-.52s.47-.37.68-.57l.43-.37a5.72,5.72,0,0,1,.46-.4,3.73,3.73,0,0,0,.3-.26l.43-.38c.16-.12.3-.28.47-.39l.29-.26.43-.38c.13-.12.27-.23.41-.34l.06,0a4.18,4.18,0,0,1,.44-.4l.68-.6.38-.34c.17-.13.31-.29.47-.43s.36-.36.56-.52.6-.57.9-.86.32-.37.48-.55.19-.24.27-.36l.16-.12.13-.1a.72.72,0,0,0,.17-.51,1.42,1.42,0,0,1,.11-.7c0-.09.06-.2.1-.3l.14-.2.16-.22v-.21c-.06-.12-.11-.25-.18-.37a.39.39,0,0,1,0-.38v-.23a1.59,1.59,0,0,1-.07-.38V33.9l.07,0a1.23,1.23,0,0,1,.29.35l0,.07c.06.25,0,.51.05.76l.08.22a1.85,1.85,0,0,1-.2,1.6,1.87,1.87,0,0,0-.17.52,2.74,2.74,0,0,1-.5,1.31,14.82,14.82,0,0,1-1.3,1.44.92.92,0,0,0-.24.34.73.73,0,0,1-.2.26c-.72.73-1.5,1.39-2.27,2.06l-1.66,1.44a1.12,1.12,0,0,1-.44.27,1.88,1.88,0,0,0-.67.48L33.82,46.3a.64.64,0,0,1-.44.15.47.47,0,0,0-.32.08l-.11,0a1.49,1.49,0,0,0-.71.15,1.14,1.14,0,0,0-.3.13,1,1,0,0,1-.33.12,6.23,6.23,0,0,1-1.15.14l-.18.1a.45.45,0,0,1-.43.14l-.24,0a1,1,0,0,1-.55.11,3.82,3.82,0,0,0-.59,0,1.08,1.08,0,0,1-.59,0,7.3,7.3,0,0,0-.81-.18c-.13,0-.25.05-.38.06a2,2,0,0,1-1-.26,2.49,2.49,0,0,0-.84-.26l-.21-.11c-.12-.07-.24-.16-.37-.22a.28.28,0,0,0-.35,0c-.09.1,0,.18.06.26l0,.05,0,.09L24,47l0,0v0Z"/><path class="cls-21" d="M24,46.87a2.16,2.16,0,0,1-.18-.3l0-.09.16-.09H24a1.38,1.38,0,0,1,.42.17l.28.19.2,0,.15,0a.37.37,0,0,0,.27.09l.09,0a4.49,4.49,0,0,0,.71.31.63.63,0,0,0,.45.05h.08l.22,0,.21,0c.1,0,.2.09.31,0h0a5,5,0,0,0,.52.14,1.08,1.08,0,0,0,.36,0,3.44,3.44,0,0,1,.45,0h.46a.51.51,0,0,0,.3-.07l.09,0,.2,0,.12,0a.29.29,0,0,0,.3-.14l.16-.11.35,0L31,47h.13l.22,0a.36.36,0,0,1,.26-.07.39.39,0,0,0,.3-.08l.16-.12.11,0a.35.35,0,0,0,.26-.09.41.41,0,0,1,.34-.07.39.39,0,0,0,.33-.07l.17-.05h.14a.5.5,0,0,0,.39-.15c.13-.12.28-.23.42-.35l.4-.36.45-.38.06,0a5.34,5.34,0,0,1,.44-.39.84.84,0,0,1,.41-.23.62.62,0,0,0,.3-.18l.57-.49c.15-.12.28-.26.43-.38s.27-.23.41-.34l.06-.05a2.73,2.73,0,0,1,.44-.39c.15-.13.29-.27.45-.39s.32-.29.48-.44a2.61,2.61,0,0,0,.31-.27l.31-.28a2.2,2.2,0,0,0,.31-.3l.21-.21a.65.65,0,0,0,.24-.35l.1-.15.18-.18a11,11,0,0,0,.82-.86,4.72,4.72,0,0,0,.71-1,.51.51,0,0,0,.08-.29l0-.17a1,1,0,0,0,.09-.38.74.74,0,0,1,.14-.43,1.48,1.48,0,0,0,.21-.5l.08-.25a1.29,1.29,0,0,0,0-.73l-.14-.42a.41.41,0,0,1,0-.29.36.36,0,0,0,0-.27l0-.09,0-.11.09,0,0,0,.12.2.07.07.1-.06a.51.51,0,0,1,0-.3v-.11l-.08-.27v-.05c0-.22-.07-.43-.06-.65a.77.77,0,0,0-.11-.39c-.06-.12-.11-.24-.17-.35a2.48,2.48,0,0,0-.27-.54l-.09-.16c-.13-.26-.28-.51-.43-.75s-.11-.21-.18-.31-.24-.44-.37-.65l.12,0,.08.11,0,.08.08.12,0,0c.06.13.13.24.2.36l0,.08,0,0,.08.12,0,.08,0,.08,0,0,0,0,0,.07,0,.08,0,0,0,.08,0,0a7.68,7.68,0,0,0,.48.95l0,.08a7.65,7.65,0,0,1,.39,1.62,6.06,6.06,0,0,1,.16.61l0,.05,0,.26L43.3,35l0,0c-.07,0-.11-.18-.22-.11s-.08.17-.08.27l0,.17a1.65,1.65,0,0,1,.14,1,2.66,2.66,0,0,1,0,.49l0,.13c0,.4-.23.73-.3,1.11s-.1.56-.27.8l-.16.27a2.93,2.93,0,0,0-.53,1.35,1.29,1.29,0,0,1-.29.7l-.16.09-.05-.19a1.39,1.39,0,0,0,.09-.42c-1.83,1.87-3.84,3.48-5.8,5.21a3.1,3.1,0,0,0,.59-.11h.19l-.09.18a.47.47,0,0,1-.28.16l-.13,0a1.18,1.18,0,0,1-.78.25,3.22,3.22,0,0,0-.6.19c-.38.09-.78.14-1.16.22l-.24.09a1.3,1.3,0,0,1-.62.23c-.33.1-.68.06-1,.16a1.61,1.61,0,0,1-.61.15h-.22c-.1,0-.18,0-.17.12l-.14.12a2.1,2.1,0,0,1-.43,0,2.84,2.84,0,0,0-.92.06h-.08a1.5,1.5,0,0,0-.84,0,2.16,2.16,0,0,1-.8,0c-.47-.09-.93-.23-1.39-.35a5.34,5.34,0,0,1-1.27-.56,2.14,2.14,0,0,0-.42-.16C24.05,46.65,24.05,46.83,24,46.87Z"/><path class="cls-15" d="M21.85,43.66h0v0l0,0,0,0a.82.82,0,0,1-.24-.46c-.15-.41-.3-.83-.42-1.25s-.27-1.14-.38-1.71c0-.11,0-.23-.18-.25l-.08-.12c0-.13-.06-.25-.09-.37s-.06-.47-.31-.6L20,38.67v-.08h0l.07,0h.15l.13.15a1.21,1.21,0,0,1,.09.34,2.38,2.38,0,0,0,.11.53c0,.07,0,.07.11,0h0l0,.16a.39.39,0,0,0,.1.25l0,.09.12.56c.06.29.1.59.18.88s.14.38.18.58.1.3.12.46l.08.17.1.2.21.49.13.09.15.08h-.36Z"/><path class="cls-21" d="M41.51,30l-.12,0c-.15-.25-.31-.5-.47-.75l-.12-.16c-.16-.23-.34-.45-.49-.68s-.34-.45-.5-.69l-.46-.66c-.12-.17-.24-.34-.35-.52a1.15,1.15,0,0,1-.18-.39,1.9,1.9,0,0,1,.39.41l.59.87a1.17,1.17,0,0,1,.15.27,2.4,2.4,0,0,0,.18.26l.57.78.14.24.27.38c.14.2.26.41.39.62Z"/><path class="cls-65" d="M21.85,43.66H22v0a.44.44,0,0,1,.32.24l.12.13a.3.3,0,0,1,.1.22l0,.16a4.2,4.2,0,0,1,.17.5,1.69,1.69,0,0,0,.13.31,1.25,1.25,0,0,1,.11.29,1.47,1.47,0,0,0,.14.28,1.48,1.48,0,0,1,.13.35.87.87,0,0,1-.23-.31,10.84,10.84,0,0,1-.5-1l0-.15a1.4,1.4,0,0,0-.22-.44C22.11,44.05,22,43.85,21.85,43.66Z"/><path class="cls-65" d="M22.29,34.38a.66.66,0,0,1-.14.32h-.06l0,0a2.63,2.63,0,0,1,.09-.3l.06-.08h0l0,0Z"/><path class="cls-21" d="M38.78,26.1l0,0Z"/><path class="cls-21" d="M38.74,26.06l0,0Z"/><path class="cls-21" d="M38.7,26l0,0Z"/><path class="cls-105" d="M42.86,34.31l0,0Z"/><path class="cls-21" d="M38.54,25.82l0,0Z"/><path class="cls-21" d="M38.5,25.78l0,0Z"/><path class="cls-65" d="M23.36,46.32l0,0Z"/><path class="cls-65" d="M23.32,46.28l0,0Z"/><path class="cls-15" d="M20.07,38.59h0l0-.13-.14-.22,0-.13.13,0,.19-.12v.15c0,.12-.05.24-.07.36Z"/><path class="cls-3" d="M22.92,37.05v-.24a1.73,1.73,0,0,1,.1-.68,4.48,4.48,0,0,0,.11-.5l0-.11.09-.1.12-.11.12-.27c.05-.14.12-.28.3-.3a.34.34,0,0,0,.26-.28,1.4,1.4,0,0,1,.24-.49,2.59,2.59,0,0,0,.17-.33,2.18,2.18,0,0,1,.2-.37,2.34,2.34,0,0,1,.26-.43l0,0a1.61,1.61,0,0,1,.25-.42c.1-.13.16-.28.28-.41l.15-.25.52-.69.15-.21.08-.09a1,1,0,0,0,.25-.29A2,2,0,0,1,27,30c.22-.18.42-.38.65-.55a3.24,3.24,0,0,0,.49-.49,2.22,2.22,0,0,1,.37-.38l.1-.09a2.91,2.91,0,0,1,.31-.3,4.11,4.11,0,0,1,.3-.29c.11-.11.22-.22.34-.32a.4.4,0,0,1,.31-.1h.4l.09-.1c0-.17.07-.24.18-.31l.09,0,.18-.15.06-.08c.14-.05.22-.18.33-.27l.34-.26a8.18,8.18,0,0,0,.64-.53l.09-.07a2.55,2.55,0,0,1,.91-.36l.35,0a.86.86,0,0,1,.27.05h.06a1,1,0,0,1,.48.14,1.5,1.5,0,0,1,.44.26l.12.07a1.73,1.73,0,0,1,.41.3.67.67,0,0,0,.25.19.47.47,0,0,1,.22.2l.05.05c.13.09.21.22.34.3l.18.18a2.73,2.73,0,0,0,.37.32l.18.16c.29.25.55.53.84.78l.53.5a2.55,2.55,0,0,1,.38.35c.13.19.31.33.46.51a5.89,5.89,0,0,0,.42.45l.36.42.26.32c.09.11.18.24.27.36l.44.58.08.16a.75.75,0,0,0,.16.35l.11.16a.18.18,0,0,1,0,.27,10.44,10.44,0,0,0-.66.83l0,.05a7.72,7.72,0,0,1-.68.72c-.2.16-.36.37-.57.52a7.43,7.43,0,0,1-.59.53l0,0a3.49,3.49,0,0,1-.49.45,4.19,4.19,0,0,1-.45.39l0,0a3.8,3.8,0,0,1-.47.42,3.23,3.23,0,0,1-.45.38l0,0c-.17.17-.36.32-.54.47l-.06.05a4.69,4.69,0,0,1-.54.46l-.06.06c-.16.16-.35.31-.53.46l-.06.05a4.69,4.69,0,0,1-.54.46l0,0a6.33,6.33,0,0,1-.56.47l0,0c-.17.17-.36.32-.55.48s-.28.25-.43.38l-.42.35-.06.06c-.18.17-.38.32-.56.49s-.29.25-.44.37a6,6,0,0,1-.46.4l-.33.29a3.81,3.81,0,0,1-.43.37c-.15.12-.27.27-.43.38a4.59,4.59,0,0,0-.41.36l-.47.39a.25.25,0,0,1-.33,0l-.17,0-.07.06,0,.07.11.08v.15a3.21,3.21,0,0,1-.41.34h-.2a.22.22,0,0,0-.29,0l-.07,0c-.1,0-.1,0-.2,0l-.06,0a.22.22,0,0,0-.32,0l-.27,0a1.24,1.24,0,0,1-.41-.59L26,43.8a.65.65,0,0,0-.2-.26c-.12-.12-.19-.26-.29-.38l-.17-.24-.05-.1.05-.07a.32.32,0,0,1,.23.09l.18.18h.12l.05,0V42.8l-.29-.3a5.62,5.62,0,0,1-.55-.64L25,41.75a.88.88,0,0,1-.19-.27l-.16-.12-.17-.1c-.15-.21-.25-.45-.38-.67s-.11-.28-.18-.42a1.32,1.32,0,0,1-.16-.52l0-.09a.86.86,0,0,1-.12-.35l0-.1a1.28,1.28,0,0,1-.09-.44l-.09-.08-.15,0-.14-.09a2.13,2.13,0,0,0-.07-.27,2,2,0,0,1-.05-.35,4.3,4.3,0,0,1,0-.8Z"/><path class="cls-8" d="M43.89,34.07V33.9c-.06-.1-.06-.23-.13-.33l0-.09a.72.72,0,0,0-.11-.41l0-.15.11.14c0,.09.08.18.12.27l.05.15a.94.94,0,0,0,.13.4l0,0c.07.19.12.38.19.57a2.26,2.26,0,0,0,.11.37l.08.25,0,.13.05.25v.07c-.06.13,0,.25,0,.37l0,.12a2.44,2.44,0,0,1,0,.27v.27a.75.75,0,0,0,0,.42c0,.11,0,.22.05.33l-.1.14-.16,0,0-.05-.08-.06,0,.09a1.93,1.93,0,0,0,0,.34l.08.14a14.51,14.51,0,0,1-.17,1.46.91.91,0,0,1-.14.3,1.34,1.34,0,0,0-.19.55,17.09,17.09,0,0,1-.64,2,11.13,11.13,0,0,1-.61,1.19c-.06.13-.2.14-.31.19l-.17,0c-.17-.09-.19-.2-.05-.31a1.44,1.44,0,0,0,.46-.7l.06-.13a7.22,7.22,0,0,0,1-2.52.87.87,0,0,1,.17-.38.91.91,0,0,0,.17-.5,2.07,2.07,0,0,0,0-1.39,1,1,0,0,1-.06-.57c0-.11,0-.23.15-.27l.08,0,.15.16c.11,0,0-.15,0-.23a4.73,4.73,0,0,1,0-.65,7.42,7.42,0,0,0-.32-1.93Z"/><path class="cls-106" d="M42.19,43.5l.07-.07a.21.21,0,0,0,.21-.14l.36-.71,0,0a1.52,1.52,0,0,0,.23-.5c.06-.15.1-.3.17-.44l.07-.21a3.82,3.82,0,0,1,.2-.53l0-.13c0-.19.09-.37.12-.56l0-.11a.79.79,0,0,0,.08-.3l.11-.17.08-.13,0-.17c0-.11,0-.22.07-.33a.91.91,0,0,0,0-.37,1.55,1.55,0,0,1,.08-.64l0-.06.08.07,0,.08c.07.23-.06.44,0,.66a2.17,2.17,0,0,1-.1.62c-.16.77-.37,1.52-.59,2.28a16.45,16.45,0,0,1-.75,1.91.15.15,0,0,1-.18.11l-.15,0A.32.32,0,0,1,42.19,43.5Z"/><path class="cls-107" d="M42.54,43.62l.1-.07h.16l.06-.14c.06-.15.13-.29.19-.44l.3-.74c.11-.26.19-.54.29-.8a2.05,2.05,0,0,0,.07-.34c0-.12.07-.23.1-.34s.07-.32.12-.48a2.37,2.37,0,0,1,.18-.59l0-.08a.44.44,0,0,1,.06-.3V39a1.31,1.31,0,0,0,.09-.34v-.08l0-.21c0-.11.05-.22.07-.33l.08.12v.08l0,0v0a5.17,5.17,0,0,1-.19,1.24,7.84,7.84,0,0,0-.23,1.07,12.85,12.85,0,0,1-.59,2.1,5.45,5.45,0,0,1-.39.89l-.16.11c-.1.05-.18,0-.27,0l-.1-.05Z"/><path class="cls-71" d="M43.06,43.62a1.73,1.73,0,0,1,.16-.37,1.46,1.46,0,0,0,.16-.41l.06-.18a3.15,3.15,0,0,0,.24-.67l.07-.22v0a1.53,1.53,0,0,1,.11-.42l0-.21c.05-.27.12-.54.17-.81a5.41,5.41,0,0,1,.12-.55,1.67,1.67,0,0,1,.08-.3,1,1,0,0,0,.09-.42l0-.22,0-.15a.81.81,0,0,1,.08-.34l.07.13,0,.07v.12l-.07.17,0,.12-.05.22,0,.23a1.76,1.76,0,0,1-.12.45c-.08.33-.12.66-.19,1s-.16.7-.27,1-.27.89-.44,1.33c-.06.16-.08.34-.25.43Z"/><path class="cls-71" d="M44.49,38.27l0,0Z"/><path class="cls-75" d="M38.86,25.74l-.12-.15Z"/><path class="cls-8" d="M38,24.59a.48.48,0,0,1-.19-.27A.44.44,0,0,1,38,24.59Z"/><path class="cls-15" d="M20,38.67a2,2,0,0,0,.24.16.2.2,0,0,1,.12.19v.08a4.07,4.07,0,0,1,.16.67l.1.07c.11,0,.11,0,.13.1s.1.42.14.63l0,.1A.66.66,0,0,0,21,41l.06.24,0,.12,0,.17a1.82,1.82,0,0,0,.17.56.68.68,0,0,1,.1.27l0,.1a2,2,0,0,1,.15.47,1.19,1.19,0,0,0,.12.29c.06.1.08.23.14.34l-.16-.13c-.08-.17-.14-.36-.23-.54l0-.11a1.17,1.17,0,0,0-.12-.31,1.78,1.78,0,0,1-.13-.45l-.06-.23a2.26,2.26,0,0,1-.14-.49V41.2c-.1-.22-.1-.47-.18-.7l0-.27a.43.43,0,0,0-.15-.27l-.09-.15c0-.19-.09-.37-.12-.56a.39.39,0,0,0-.12-.24l-.11-.11A.23.23,0,0,1,20,38.67Z"/><path class="cls-108" d="M21.61,43.59h-.07l0,0-.07-.09,0,0-.09-.25,0-.1,0,0c-.07-.22-.17-.44-.23-.66s-.11-.32-.14-.49l0-.13,0-.06c0-.1-.06-.2-.09-.3-.08-.27-.14-.55-.22-.82V40.3l0-.17.08.11c.09.35.18.7.28,1,0,.14.06.27.1.4.12.38.24.77.37,1.15l.19.49.17.21Z"/><path class="cls-109" d="M19.91,39.26h0a2,2,0,0,1-.05-.69l0-.05h0l0,.12,0,.15A2.52,2.52,0,0,1,19.91,39.26Z"/><path class="cls-78" d="M19.91,38.63l0-.12Z"/><polygon class="cls-68" points="21.81 43.62 21.81 43.66 21.73 43.62 21.81 43.62"/><path class="cls-110" d="M20.5,40.3c.06.23.13.47.18.7a2.92,2.92,0,0,1,.1.4l-.13,0c-.24-.09-.24-.09-.37.14h-.05a2.19,2.19,0,0,1,0-.51l0-.08h0l.06,0,.16.12,0-.21c0-.09-.07-.18-.1-.27a.66.66,0,0,1,.05-.28Z"/><path class="cls-111" d="M20.23,41.52l0-.12a.15.15,0,0,1,.19-.15l.18,0,.14.1a.61.61,0,0,1,.08.32c-.08.21-.1.22-.31.17l-.19,0-.08.08v.28l0,0,0-.08,0,0h0v0h0l0-.16A1.09,1.09,0,0,1,20.23,41.52Z"/><path class="cls-70" d="M20.15,42.08v0l0,.12h0v0L20,42l0-.08V41.8h0A1.34,1.34,0,0,0,20.15,42.08Z"/><path class="cls-80" d="M20.31,40.93l0,.08Z"/><path class="cls-86" d="M42.62,43.66l.15,0,.17,0h.2l.12,0c-.3,0-.54.28-.86.21-.13,0-.2.09-.25.19-.2.35-.42.68-.64,1l-.15.19a1.26,1.26,0,0,0-.3.48,1.76,1.76,0,0,1-.23.37l-.07.21a.26.26,0,0,0,.26.11l.15,0h.2l0,.23c0,.06,0,.18-.15.18a.2.2,0,0,0-.23-.05l-.33.08a.27.27,0,0,1-.32-.12c-.08-.14-.13-.27,0-.41a3,3,0,0,1,.23-.3l-.16.08h-.18l0-.16a3,3,0,0,0,.22-.25.59.59,0,0,0-.55.15,1.15,1.15,0,0,1-.46.3l-.6.22a1.87,1.87,0,0,0-.48.26c-.18.13-.41.18-.59.31a2.79,2.79,0,0,1-1.26.43c-.16,0-.26.17-.42.2-.6.11-1.16.36-1.75.49a7.84,7.84,0,0,1-.83.23.91.91,0,0,0-.63.25l-.1.05a5.19,5.19,0,0,0-.87.19c-.49.13-1,.12-1.5.23a3.62,3.62,0,0,1-.47,0A4.7,4.7,0,0,1,28.94,49l-.23-.09c0-.12.11-.13.19-.1.37.09.75,0,1.12.09h.08a10.62,10.62,0,0,1,1.25-.14,1.26,1.26,0,0,0,.33-.1,2.37,2.37,0,0,0,.7-.33c.09-.05.21,0,.31,0a6.92,6.92,0,0,0,1.63-.39c.4,0,.65-.32,1-.36a4.64,4.64,0,0,0,1.09-.3,2.6,2.6,0,0,1,.4-.1,5.06,5.06,0,0,0,1.61-.76,2.31,2.31,0,0,1,.51-.22,2.21,2.21,0,0,0,.62-.34c.4-.27.74-.61,1.13-.9l.06,0h.13l0,.12c-.09.11-.2.2-.29.31a1.28,1.28,0,0,0,.67-.56,4.27,4.27,0,0,1,.3-.44,1.14,1.14,0,0,0,.18-.3.58.58,0,0,0-.14-.77.2.2,0,0,1-.05-.27c.06-.1.13-.19.27-.14l.15-.1A6.71,6.71,0,0,0,42.91,41a13,13,0,0,0,.4-1.35.34.34,0,0,1,.19-.29l.12-.19c.1-.43.19-.86.25-1.3v-.15c-.23-.29,0-.64-.16-.94v0c0-.11,0-.22.17-.2a.17.17,0,0,1,.14.25.23.23,0,0,0-.11.23,1.3,1.3,0,0,0,0,.34,2.7,2.7,0,0,0,.12.47l.06.25v.1c0,.22-.08.45-.11.67l0,.16a1.49,1.49,0,0,0-.09.3l-.12.24-.11.2a2.88,2.88,0,0,0-.09.4,8.81,8.81,0,0,1-.28.87l-.15.42,0,.07a2,2,0,0,0-.22.47,1.38,1.38,0,0,1-.23.36l-.11.18a2.62,2.62,0,0,1-.22.48.76.76,0,0,1-.23.24l-.08.06,0,.16.21.1a1.12,1.12,0,0,0,.35.12Z"/><path class="cls-112" d="M41.27,46.87l.09-.17,0-.2-.08,0-.12.06a.38.38,0,0,1-.42-.08v-.23A2.35,2.35,0,0,0,41,45.9l.06-.12a.69.69,0,0,1,.22-.39l.27-.34c.11-.17.23-.33.34-.51s.15-.25.23-.38l.05-.09.16-.17h.23a.21.21,0,0,0,.25,0,.7.7,0,0,1,.49-.12h.12l-.1.16a4.19,4.19,0,0,0-1,1.32,7.82,7.82,0,0,1-.73,1.37l-.16.2a1.2,1.2,0,0,1-.27.28l0-.07Z"/><path class="cls-105" d="M41.43,46.79a.38.38,0,0,1,.15-.22A3,3,0,0,0,41.9,46c.08-.17.15-.34.24-.49a1.66,1.66,0,0,0,.18-.35,1.76,1.76,0,0,1,.24-.45,3.24,3.24,0,0,1,.7-.82l.12-.11,0,0c.06-.11.08-.25.21-.31h.07a1.63,1.63,0,0,1-.13.37,5,5,0,0,1-.44.86,2.3,2.3,0,0,1-.33.44l-.11.16a3.43,3.43,0,0,1-.36.47c-.13.15-.23.3-.35.46l-.19.24-.13.18A.66.66,0,0,1,41.43,46.79Z"/><path class="cls-5" d="M43.14,43.62a.92.92,0,0,0,.13-.24l.06-.12,0-.09a.82.82,0,0,1,.11-.31,3,3,0,0,0,.15-.48v0c.08-.1.06-.24.11-.35s.09-.24.13-.35l0-.12v-.1a2.31,2.31,0,0,0,.16-.64l0-.19a1.16,1.16,0,0,0,.07-.37l0-.11,0-.17.07-.12a5.32,5.32,0,0,1-.06.56,5.54,5.54,0,0,0-.11.56,1.11,1.11,0,0,1-.08.3c0,.16-.07.31-.11.46l-.06.17c-.08.18-.12.39-.19.57a3.73,3.73,0,0,1-.2.56l0,.09a2.58,2.58,0,0,1-.19.53Z"/><path class="cls-85" d="M43.62,43.39c-.09.09-.12.22-.21.31l0,0c.09-.1.11-.23.2-.33Z"/><polygon class="cls-5" points="43.14 43.7 42.94 43.7 42.99 43.62 43.06 43.62 43.14 43.62 43.14 43.7"/><path class="cls-85" d="M43.61,43.3l0,0Z"/><path class="cls-113" d="M44.84,41a3.83,3.83,0,0,1-.24,1.34l.07-.05.06-.11.05-.07,0,.06a14.55,14.55,0,0,1-.42,1.47l-.1.17.06-.19c.07-.23.15-.46.2-.7a.64.64,0,0,0,0-.28l-.19.21-.19.2-.2.18-.24.15,0,0,.07-.1a1.47,1.47,0,0,1,.31-.3,2.11,2.11,0,0,0,.39-.76c.11-.33.17-.67.25-1C44.74,41.09,44.72,41,44.84,41Z"/><path class="cls-114" d="M44.09,43a2.43,2.43,0,0,1-.32.24,1.74,1.74,0,0,1,.15-.4,17.77,17.77,0,0,0,.64-1.72l.09-.24a1.89,1.89,0,0,0,.11-.25c0-.07,0-.14.13-.09v.16a20.58,20.58,0,0,1-.64,2A2.49,2.49,0,0,1,44.09,43Z"/><path class="cls-115" d="M44.88,40.53l-.07.06a.48.48,0,0,1-.13.3,2.32,2.32,0,0,0-.24.53c0,.06,0,.15-.12.14l0-.14c.07-.31.15-.62.23-.94l0-.11,0-.16v0h.09l.09.19h0v-.31A.37.37,0,0,1,44.88,40.53Z"/><path class="cls-116" d="M44.32,41.56l.08-.17.09-.24.12-.2.07-.06c0,.13-.09.26-.13.39s-.15.42-.21.63a2.38,2.38,0,0,1-.25.59l-.08.18-.09.15,0-.15q.18-.52.33-1Z"/><path class="cls-84" d="M44.64,40.21l0,.16Z"/><polygon class="cls-85" points="43.7 43.33 43.73 43.35 43.69 43.38 43.7 43.33"/><path class="cls-117" d="M44.88,40.53v-.35l0-.13a2.55,2.55,0,0,0,0-.55,1.57,1.57,0,0,1,.09-.48l.11-.16.2,0,0,.09-.07.14c0,.13-.06.26-.05.4s0,.29,0,.44a1.71,1.71,0,0,1,0,.31,2.51,2.51,0,0,0,0,.39h-.12Z"/><path class="cls-16" d="M45.24,38.79l0,0Z"/><path class="cls-118" d="M24.51,47.51l-.16-.12-.08-.12v0c0-.17,0-.17.15-.16a.93.93,0,0,1,.41.12l.37.16c.15,0,.3.13.45.19l.13.05.65.23c.23.09.48.16.72.23s.23,0,.35.05l.24.07a1.19,1.19,0,0,0,.36.09l.12,0h.21a3.77,3.77,0,0,1,.75,0l.08,0a.37.37,0,0,0,.32,0,.71.71,0,0,1,.35-.1h.32a1,1,0,0,1,.28-.08.68.68,0,0,0,.31-.11l.1,0a1.39,1.39,0,0,1,.54-.09.73.73,0,0,1,.33,0,.73.73,0,0,0,.5-.14l.22-.06.25,0a5.05,5.05,0,0,0,.55-.18l.09,0,.19-.05a1,1,0,0,1,.46-.11l.2,0,.11,0a2.63,2.63,0,0,0,.3-.09,3.45,3.45,0,0,1,.46-.12,1,1,0,0,0,.32-.14l.2-.09a.83.83,0,0,0,.3-.14.64.64,0,0,1,.35-.12.8.8,0,0,0,.39-.14A1.66,1.66,0,0,1,37.1,46l.22-.13c.1-.1.22-.17.32-.27s.22-.18.33-.27l.39-.34.21-.18,0,0a1.36,1.36,0,0,1,.24-.24,6.52,6.52,0,0,1,.55-.5c.2-.18.38-.37.58-.54.35-.3.69-.61,1-.94l.34-.39c.12-.14.22-.29.33-.44a3,3,0,0,0,.32-.54l.09-.13.2-.21.17-.16a.44.44,0,0,0,.19-.29c0-.14.07-.28.11-.42a.94.94,0,0,1,.11-.32,1.84,1.84,0,0,0,.09-.28l.07-.2.1-.09.14-.15a3.25,3.25,0,0,0,.08-.43.9.9,0,0,1,.08-.28l0-.13a1.84,1.84,0,0,1,0-.41l-.08-.11c-.11,0-.13-.08-.1-.18l0-.21c0-.2,0-.41,0-.61a1.5,1.5,0,0,1,.06-.29.32.32,0,0,0,0-.27l-.09-.17a.82.82,0,0,1-.06-.41l.06-.16h.13l.16.27,0,0,0,0a1.6,1.6,0,0,0,0-.69,1.54,1.54,0,0,1-.05-.43l0-.25,0-.11c-.07-.24-.14-.48-.19-.72a2.34,2.34,0,0,0-.2-.58,3.25,3.25,0,0,1-.18-.43l-.09-.17a3.36,3.36,0,0,1-.27-.49,2.27,2.27,0,0,1-.23-.47.87.87,0,0,1-.16-.3l0-.07.12.1c.28.43.5.89.74,1.34a7.67,7.67,0,0,0,.36.7v0c.08.08.07.2.1.3.09.33.22.66.28,1A5,5,0,0,1,44,35.83a1.88,1.88,0,0,1,0,.34c0,.19-.08.2-.22.08l-.1-.09,0,0a2.29,2.29,0,0,1,0,1,.21.21,0,0,0,.1.24.2.2,0,0,1,.09.24,12.87,12.87,0,0,1-.3,1.37l-.06.15a2.12,2.12,0,0,0-.37.79,7.93,7.93,0,0,1-.7,1.61l-.11.23c-.05.11-.1.22-.21.26-.33.14-.36.51-.57.73V43a.58.58,0,0,1-.17.67,11.08,11.08,0,0,1-1.76,1.73l-.07,0c-.5.2-.92.57-1.44.73a2,2,0,0,0-.46.3,1,1,0,0,1-.31.18c-.52.15-1,.34-1.55.48a6.09,6.09,0,0,0-1,.38,1,1,0,0,1-.36.09l-.26,0c-.25.15-.56.18-.82.32l-.09,0c-.45,0-.87.24-1.31.28a1,1,0,0,0-.34.11.87.87,0,0,1-.37.13c-.31,0-.61.11-.92.13a4.82,4.82,0,0,1-.85.11,4.75,4.75,0,0,1-1.14-.15c-.42-.13-.88-.14-1.29-.3a12.8,12.8,0,0,1-1.9-.72,2.67,2.67,0,0,0-.4-.13C24.6,47.38,24.56,47.45,24.51,47.51Z"/><path class="cls-119" d="M43.1,36.8a1.06,1.06,0,0,0,0-.35v-.09a2.52,2.52,0,0,0,0-.67L43,35.47A.65.65,0,0,1,42.9,35l.05-.12c.1-.12.17-.12.26,0l.09.13-.08,0-.1,0,0,.1v.23c.06.28.13.55.2.83l0,.09a.69.69,0,0,0,0,.32v.13c0,.19-.06.38-.09.56a2.4,2.4,0,0,0,0,.46l.09.12,0,.15a3.62,3.62,0,0,0-.2.55,2.45,2.45,0,0,1-.32.57l-.08.15a2,2,0,0,1-.35.77c-.14.21-.27.42-.4.63l-.09.22-.11.21c-.36.32-.65.71-1,1l-.2.19-.18.05-.14,0c-.2.23-.46.4-.67.63l-.26.22a.88.88,0,0,1-.25.22l0,0c-.16.14-.31.29-.47.42s-.25.23-.4.33l-.22.22v.2l-.06.07c-.1.06-.17.15-.26.21s-.25.24-.39.33a3.73,3.73,0,0,0-.3.26c-.13.12-.28.22-.4.35l-.3.26-.24.1-.2.11a.39.39,0,0,1-.26.12c-.16,0-.33.06-.49.09l-.11,0a3.44,3.44,0,0,1-.55.15,1.55,1.55,0,0,0-.43.14h0a1.43,1.43,0,0,0-.49.21,1.23,1.23,0,0,1-.44.07l-.17,0-.24.07-.18.07-.19.07a.82.82,0,0,0-.3.07h-.09a.59.59,0,0,0-.35,0,1.18,1.18,0,0,1-.37,0,.61.61,0,0,0-.39.13.64.64,0,0,1-.27.11h-.12a.52.52,0,0,1-.28.06,2.32,2.32,0,0,0-.58.08h-.12a1.33,1.33,0,0,0-.56.06l-.17,0h-.21a.62.62,0,0,0-.27,0,.82.82,0,0,1-.35,0,2.25,2.25,0,0,0-.56-.12,2,2,0,0,0-.48-.1,1.06,1.06,0,0,1-.33-.14.57.57,0,0,0-.26-.08l-.13,0-.19,0-.15,0-.32-.16a1.22,1.22,0,0,0-.33-.14h0c-.21-.09-.41-.17-.63-.24l-.15-.09-.1,0L24,47l0,0,0-.08,0-.11c0-.13.12-.16.28-.09l.13,0,.2.07a4.88,4.88,0,0,0,.79.4l.11,0a3.76,3.76,0,0,0,.86.28,2.8,2.8,0,0,1,.63.17l.17,0a.41.41,0,0,1,.27,0l.11,0,.2,0h.08l.48-.07.11,0a.38.38,0,0,1,.33,0l.15,0,.19,0,.19,0c.22,0,.43,0,.65,0a3.87,3.87,0,0,0,.49-.05l.05-.09,0,0a.11.11,0,0,1,.12-.15l.13,0,.24,0,.11,0a.23.23,0,0,0,.25-.05l.21-.07.19,0a.52.52,0,0,1,.35,0l.18,0,.24-.07a2.09,2.09,0,0,1,.35,0l.09,0a1,1,0,0,1,.56-.27l.35,0a2,2,0,0,0,.41-.07,1.05,1.05,0,0,1,.36-.08l.18-.08a.4.4,0,0,1,.26-.08l.56-.08.11-.05.17-.13L36,46a.31.31,0,0,0,.24-.12c0-.05.11-.08.13-.18a5.49,5.49,0,0,1-.78.18h0l.1-.17.21-.18.43-.36.06-.06c.18-.17.38-.33.57-.49s.28-.25.43-.38l.4-.34.06,0a3.31,3.31,0,0,1,.45-.39c.15-.13.29-.27.45-.39s.31-.3.48-.43.33-.32.52-.45l.1-.1c.24-.26.52-.47.76-.72l.75-.74.09-.08h0l0,.05a1.69,1.69,0,0,1-.09.34l0,.14,0,.12.09-.07a.92.92,0,0,0,.24-.47c0-.21.1-.42.15-.63a1.78,1.78,0,0,1,.36-.82,3.05,3.05,0,0,0,.28-.5.89.89,0,0,0,.12-.39.76.76,0,0,1,.11-.32c.11,0,.11.12.13.2a1.23,1.23,0,0,1,0,.42.7.7,0,0,0,.12-.48A9.09,9.09,0,0,1,43.1,36.8Z"/><path class="cls-112" d="M43.45,33l-.17-.23L42.87,32a6.23,6.23,0,0,0-.51-.91l-.13-.19A7.81,7.81,0,0,0,41.7,30a1.81,1.81,0,0,1-.19-.29,2.46,2.46,0,0,0-.17-.27.92.92,0,0,1-.18-.32l.12.13c.08.12.19.23.26.36a4,4,0,0,1,.32.52l0,.05c.2.24.33.52.51.77s.32.53.47.8.24.49.38.73A2.3,2.3,0,0,1,43.45,33Z"/><path class="cls-21" d="M43.3,35l.11,0c.12.06.12.05.12-.06l0-.18-.18-.52,0-.23a1.69,1.69,0,0,0-.13-.63l0-.17a.89.89,0,0,0-.08-.33.64.64,0,0,1-.08-.36,1.3,1.3,0,0,1,.2.43,1.87,1.87,0,0,1,.12.57,1,1,0,0,0,.06.29,4.73,4.73,0,0,1,.19.74,2,2,0,0,1,0,.49l0,.09h-.13Z"/><path class="cls-21" d="M42.94,32.48l-.14-.16,0-.06a1.53,1.53,0,0,0-.19-.41,1.09,1.09,0,0,1-.1-.32l.08.11c.08.15.15.31.24.45a3.13,3.13,0,0,1,.15.32Z"/><path class="cls-21" d="M42,30.74a.57.57,0,0,1-.2-.36A.86.86,0,0,1,42,30.74Z"/><path class="cls-105" d="M24.27,47.27l.08.12a.31.31,0,0,1-.24-.24h0l0,0Z"/><path class="cls-21" d="M42.11,31,42,30.86Z"/><path class="cls-21" d="M41.71,30.34l-.08-.12Z"/><path class="cls-21" d="M41.59,30.14,41.51,30Z"/><path class="cls-21" d="M42.42,31.49l0-.08Z"/><path class="cls-21" d="M42.35,31.37l0-.08Z"/><path class="cls-21" d="M42.31,31.29l0-.07Z"/><path class="cls-21" d="M42.19,31.14l0-.08Z"/><path class="cls-21" d="M42.15,31.06l0-.08Z"/><path class="cls-21" d="M43,32.56l0-.08Z"/><path class="cls-21" d="M42,30.82l0-.08Z"/><path class="cls-21" d="M41.63,30.22l0-.08Z"/><path class="cls-21" d="M41.75,30.38l0,0Z"/><path class="cls-21" d="M42,30.86l0,0Z"/><path class="cls-119" d="M24.19,47.19l0,0Z"/><polygon class="cls-119" points="24.15 47.15 24.11 47.15 24.1 47.13 24.11 47.11 24.15 47.15"/><polygon class="cls-21" points="24.11 47.07 24.11 47.11 24.07 47.11 24.06 47.09 24.07 47.07 24.11 47.07"/><polygon class="cls-119" points="24.11 47.07 24.07 47.07 24.06 47.06 24.06 47.04 24.07 47.03 24.11 47.07"/><path class="cls-21" d="M42.23,31.18l0,0Z"/><polygon class="cls-119" points="24.03 47.03 24.03 46.99 24.07 47.03 24.03 47.03"/><path class="cls-21" d="M42.27,31.22l0,0Z"/><path class="cls-21" d="M42.38,31.41l0,0Z"/><path class="cls-21" d="M42.46,31.53l0,0Z"/><path class="cls-112" d="M24.51,47.51v-.1l.09-.07.46.12.09,0a3.1,3.1,0,0,0,.72.32l.58.19a1.48,1.48,0,0,1,.35.13l.19.07.21.06.09,0a3.72,3.72,0,0,1,.87.17,1.4,1.4,0,0,0,.53.11c.15.05.31,0,.45.07h.52A.73.73,0,0,0,30,48.6a.83.83,0,0,1,.35-.06.77.77,0,0,0,.42-.07h.16a.63.63,0,0,0,.27,0l.1,0,.16,0a1.06,1.06,0,0,1,.51-.19,1.86,1.86,0,0,0,.47-.09,2.09,2.09,0,0,1,.61-.14.64.64,0,0,0,.35-.12.3.3,0,0,1,.26-.07l.2-.07a.79.79,0,0,1,.51-.17.67.67,0,0,0,.41-.11,3.07,3.07,0,0,1,.42-.17,1.05,1.05,0,0,0,.31-.12.76.76,0,0,1,.32-.11,1.31,1.31,0,0,0,.34-.09l.36-.11.82-.27.15-.08.39-.31.11,0a2.12,2.12,0,0,0,.74-.36,1.53,1.53,0,0,1,.48-.23.94.94,0,0,0,.32-.19L40,45a5.39,5.39,0,0,0,.43-.39,5.32,5.32,0,0,0,.38-.45,4.11,4.11,0,0,1,.29-.3,2.43,2.43,0,0,0,.3-.34,1.48,1.48,0,0,0,.12-.29l0-.17a.16.16,0,0,1,0-.24,2.3,2.3,0,0,0,.33-.54l.14-.12a.22.22,0,0,0,.19-.13l.1-.15a2,2,0,0,1,.2-.38,3.15,3.15,0,0,0,.35-.77,3.12,3.12,0,0,1,.15-.39,2.24,2.24,0,0,0,.14-.39l0-.18a.74.74,0,0,0,.12-.31l.11-.16a.21.21,0,0,0,.12-.19V39a4.91,4.91,0,0,0,.17-.66,1.57,1.57,0,0,0,0-.37l.06-.25,0-.12-.09-.13c-.14,0-.14,0-.11-.2v-.09a.86.86,0,0,1,0-.28,1,1,0,0,0,0-.52l-.05-.25,0-.1.08.05.21.22a.54.54,0,0,0,0-.32v-.08a3,3,0,0,0,0-.73,4.3,4.3,0,0,1-.1-.72l0-.13a1.93,1.93,0,0,1-.13-.47,3.19,3.19,0,0,0-.13-.44l0-.23,0-.15.12.15,0,.18a.71.71,0,0,0,.12.37l.05.14.11.19a7.88,7.88,0,0,1,.26,1.19,3.87,3.87,0,0,1,0,.68,3.29,3.29,0,0,0,0,.63c0,.1,0,.23-.15.19l0,0-.11-.21h-.1a.31.31,0,0,0,0,.28l0,.19v.27a.2.2,0,0,0,.05.27.27.27,0,0,1,.08.27,5,5,0,0,0-.08.54v0a1.29,1.29,0,0,0-.08.38c0,.16-.08.32-.11.48l-.11.11a.22.22,0,0,0-.17.21c0,.2-.09.41-.15.61a4.69,4.69,0,0,1-.2.6,4.81,4.81,0,0,0-.2.53c0,.12-.09.24-.13.35l0,.06c-.14.22-.26.47-.42.69s-.2.28-.29.42l-.16,0-.06,0-.16.19v.11a1.18,1.18,0,0,1,.22.28l.09,0,0,.09a1.73,1.73,0,0,0-.11.32l0,.15a.64.64,0,0,1-.13.26,3.22,3.22,0,0,0-.38.53,1.11,1.11,0,0,1-.46.45l-.29.17h-.06v-.07l.29-.29.15-.16-.17.06c-.22.2-.45.36-.66.57a1.91,1.91,0,0,1-.36.25l-.13.1-.15.13a2.31,2.31,0,0,1-.51.22,1.22,1.22,0,0,0-.55.29l-.1.07a1.38,1.38,0,0,0-.46.25l-.14.06a.51.51,0,0,0-.29.13l-.12.07c-.19,0-.4.08-.59.15a.8.8,0,0,0-.37.11l-.11,0a3.19,3.19,0,0,0-.55.16l-.33.06h-.1a.57.57,0,0,0-.33.16.51.51,0,0,1-.41.15l-.19,0a3.47,3.47,0,0,1-.71.23h0a2.2,2.2,0,0,0-.58.1,1.89,1.89,0,0,1-.47.06.32.32,0,0,0-.3.15.3.3,0,0,1-.27.13h-.12l-.12.05a.24.24,0,0,1-.23.11l-.11,0h-.24l-.22,0-.15,0h-.18a.32.32,0,0,0-.27,0,.5.5,0,0,1-.4,0h-.46a2,2,0,0,1-.54-.07l-.19,0h0a12.52,12.52,0,0,1-3.06-1L25,47.63a.34.34,0,0,0-.28,0l-.09,0,0,0,0,0Z"/><path class="cls-120" d="M26.21,48.66h0a3.07,3.07,0,0,1-.39-.23c-.11-.12,0-.12.07-.11a1,1,0,0,1,.34.1c.57.23,1.16.42,1.75.61a11.08,11.08,0,0,0,2.14.41c.16,0,.31,0,.47.06a10.09,10.09,0,0,0,2.69,0h.14a2.52,2.52,0,0,0,.78-.06c.53-.07,1.05-.12,1.57-.23L36,49.1l.05,0a1.56,1.56,0,0,0,.52-.11l.05,0,.12,0,.08,0,.12,0H37a2.19,2.19,0,0,0,.5-.14h.06a4.91,4.91,0,0,0,1.12-.37l.05,0,.14,0h0c.15,0,.27-.18.44-.09,0,.15-.18.1-.25.17a16.6,16.6,0,0,1-2.86.88c-.68.16-1.37.25-2.07.35a17.16,17.16,0,0,1-2.58.13,12.8,12.8,0,0,1-1.64-.13l-.41,0L29,49.41c-.2,0-.4-.07-.59-.12s-.63-.15-.93-.24-.56-.2-.84-.28l-.23-.1-.13,0h0Z"/><path class="cls-121" d="M29.94,49.57a1.26,1.26,0,0,1,.43,0c.26,0,.52.06.79,0a.74.74,0,0,1,.33,0h.65a4,4,0,0,1,.85,0,.83.83,0,0,0,.27,0h.08a2.94,2.94,0,0,0,.59,0,4.14,4.14,0,0,0,.6-.09l.18,0,.27,0a2.65,2.65,0,0,1,.62-.09l.13,0a1.17,1.17,0,0,1,.37-.08l.15,0L37,49l1.12-.31a2.87,2.87,0,0,0,.4-.18,3.18,3.18,0,0,1,.58-.17L39,48.4l-.1,0a3.17,3.17,0,0,1-.51.2l-.58.2c-.16.06-.34.1-.51.15l-.37.11-.23,0c-.3.09-.6.15-.9.21s-.55.11-.83.14-.27.06-.41.07a3,3,0,0,0-.6.09H33.8l-.23,0h0c-.21,0-.42,0-.63,0H31.34l-.24,0H31c-.23,0-.45,0-.68,0L30,49.59Z"/><path class="cls-121" d="M39.09,48.34l.07-.08.17-.08,0-.07a2.78,2.78,0,0,1,.56-.24c.12,0,.16,0,.13.11h0l0,0h0l-.08,0,0,0,0,0-.16.08,0-.09a1,1,0,0,1-.27.09l-.14.07Z"/><path class="cls-121" d="M39.69,48.22l0,0Z"/><path class="cls-121" d="M39.61,48.26l0,0Z"/><path class="cls-121" d="M39.57,48.3l0,0Z"/><path class="cls-92" d="M26.33,48.74l0,0Z"/><polygon class="cls-91" points="37.27 49.25 37.15 49.25 37.27 49.21 37.27 49.25"/><polygon class="cls-91" points="36.99 49.33 36.88 49.33 36.99 49.29 36.99 49.33"/><path class="cls-88" d="M39.06,48.58l0,0Z"/><path class="cls-72" d="M27.92,49.05h-.08c-.25-.09-.51-.16-.76-.26a5.45,5.45,0,0,0-.65-.21l-.07,0c-.14-.12-.33-.11-.49-.2h-.06l0,.08a1.14,1.14,0,0,1-.44-.28l-.08,0,0,0h0c0-.17.15-.12.24-.09l.55.22a15.44,15.44,0,0,0,2.66.82,11.5,11.5,0,0,0,3,.21,16.76,16.76,0,0,0,2-.28c.55-.12,1.1-.19,1.64-.29.72-.14,1.45-.21,2.16-.37a13,13,0,0,0,2.77-1,1.68,1.68,0,0,1,.42-.17c.11,0,.2,0,.21.14a.55.55,0,0,1-.19.21.84.84,0,0,1-.36.28v-.07l0-.07-.22.08c-.6.23-1.17.53-1.79.72a20.55,20.55,0,0,1-2.55.61c-.46.08-.93.18-1.39.22a12.68,12.68,0,0,1-1.74.19c-.27,0-.53.08-.81.08a16.75,16.75,0,0,1-3.07-.32C28.45,49.17,28.19,49.1,27.92,49.05Z"/><path class="cls-122" d="M40.32,47.75v0a.48.48,0,0,1-.27.19l0-.08a.47.47,0,0,0-.26.08l-.2.09-.22.11a.51.51,0,0,0-.29.08l-.18,0c0-.1.07-.11.13-.13l1.15-.47C40.2,47.67,40.3,47.59,40.32,47.75Z"/><polygon class="cls-15" points="41.16 46.99 41.16 47.07 41 47.23 40.98 47.21 40.98 47.16 41.03 47.08 41.13 46.98 41.16 46.99"/><path class="cls-15" d="M40.68,47.51l.16-.16,0,0,0,0C40.83,47.42,40.78,47.5,40.68,47.51Z"/><path class="cls-11" d="M44,44.54l-.09.19Z"/><path class="cls-11" d="M44.08,44.29l0,.08Z"/><path class="cls-11" d="M44.05,44.37l0,.09Z"/><path class="cls-11" d="M44,44.45l0,.09Z"/><path class="cls-11" d="M43.88,44.72l0,.09Z"/><path class="cls-11" d="M43.85,44.81l0,.08Z"/><path class="cls-122" d="M39.93,48.06,40,48Z"/><path class="cls-122" d="M39.89,48.1l0,0Z"/><path class="cls-122" d="M39.85,48.14l0,0Z"/><path class="cls-122" d="M40,48l0,0Z"/><polygon class="cls-15" points="40.92 47.31 40.88 47.35 40.88 47.35 40.87 47.32 40.87 47.3 40.9 47.3 40.92 47.31"/><polygon class="cls-15" points="40.96 47.27 40.92 47.31 40.92 47.31 40.9 47.29 40.91 47.27 40.94 47.26 40.96 47.27"/><polygon class="cls-15" points="41 47.23 40.96 47.27 40.94 47.25 40.95 47.23 41 47.23"/><path class="cls-123" d="M44.09,43a1.63,1.63,0,0,1,.13-.37,4,4,0,0,0,.27-.76c.07-.26.14-.52.22-.78a1.92,1.92,0,0,1,.17-.39v0l0,.24,0,.1a3.48,3.48,0,0,0-.12.56l-.08.26a2.92,2.92,0,0,1-.25.7l-.06.14A.47.47,0,0,1,44.09,43Z"/><path class="cls-124" d="M45,40.65l.11.11a.41.41,0,0,1,.2.28l.09.09-.09.15h-.1l-.06-.1-.06-.07L45,41Z"/><path class="cls-25" d="M45.2,39.06l0,.08Z"/><path class="cls-125" d="M40.88,47.31v0h0l0-.1-.09,0a1.52,1.52,0,0,0-.28.09l-.41.2a3.9,3.9,0,0,1-.47.2l-.89.32c-.25.09-.52.14-.78.21l-.15,0a3.57,3.57,0,0,1-.79.16,1.86,1.86,0,0,1-.33,0l-.13,0a.67.67,0,0,1-.34.07l-.22,0-.14,0a.59.59,0,0,0-.32.06l-.08,0a1.43,1.43,0,0,0-.36.06l-.53.1-.34.06h-.12a2.14,2.14,0,0,0-.56.11,1.18,1.18,0,0,1-.27.06,6.48,6.48,0,0,0-1,.14h-.18l-.19,0h0c-.14-.05-.28,0-.42,0h-.9a.82.82,0,0,1-.31,0h-.1a1,1,0,0,1-.29,0c-.09.06-.18,0-.27,0a2.7,2.7,0,0,1-.48-.09.5.5,0,0,0-.32,0h-.1a2.82,2.82,0,0,0-.57-.15c-.11,0-.22-.07-.33-.1l-.11,0a2,2,0,0,1-.51-.14c-.17-.06-.33-.09-.49-.16s-.21,0-.28-.12h0c-.23,0-.41-.17-.63-.22A2,2,0,0,1,25.4,48l-.18.06h0l0,0,0,0,0,0h0c-.11-.1,0-.14.06-.15a.84.84,0,0,1,.27.08c.22.07.42.19.64.26l.08,0,.05,0h0l.11,0,0,0,.06,0,0,0,.07,0,.05,0a4.38,4.38,0,0,0,.43.13H27l.07,0,0,0,.19.06.05,0a.67.67,0,0,0,.28.06h.08l.11,0h.06a9.36,9.36,0,0,0,1.8.34,6.52,6.52,0,0,0,.77,0,2.76,2.76,0,0,0,.86,0,9.44,9.44,0,0,0,1.4-.2,8.84,8.84,0,0,0,1.66-.44,5.09,5.09,0,0,1,1-.24c.63-.11,1.25-.24,1.86-.41a2.19,2.19,0,0,1,.72,0,3,3,0,0,0,.85-.15,13.85,13.85,0,0,0,2-.64c.19-.07.28,0,.27.14l0,.08,0,0,0,0Z"/><path class="cls-126" d="M26.05,48.18l-.18,0c-.2-.11-.41-.17-.61-.26l-.15,0-.05.1h0l-.2-.11v0c-.05-.13,0-.2.13-.16a6.86,6.86,0,0,1,1,.46Z"/><path class="cls-127" d="M20.82,43.11a1.54,1.54,0,0,1-.36-.44v0h0a.88.88,0,0,1,.41.42Z"/><path class="cls-128" d="M21.45,43.43v0l-.05,0a1.1,1.1,0,0,1-.35-.2l0-.06A.59.59,0,0,1,21.45,43.43Z"/><path class="cls-129" d="M21.1,43.26l0,.05a.91.91,0,0,1-.24-.2l0,0A.26.26,0,0,1,21.1,43.26Z"/><path class="cls-130" d="M20.38,42.56a1.07,1.07,0,0,1-.16-.32h0c.16,0,.16.16.21.26Z"/><polygon class="cls-131" points="20.38 42.56 20.43 42.51 20.46 42.63 20.46 42.67 20.38 42.56"/><polygon class="cls-132" points="21.41 43.51 21.46 43.46 21.53 43.53 21.46 43.55 21.41 43.51"/><polygon class="cls-118" points="24.63 47.63 24.71 47.63 24.75 47.68 24.75 47.71 24.63 47.63"/><polygon class="cls-40" points="20.07 42.23 20.11 42.24 20.11 42.31 20.07 42.23"/><polygon class="cls-76" points="21.46 43.55 21.53 43.53 21.54 43.58 21.46 43.55"/><path class="cls-126" d="M25.26,48.1l.08,0Z"/><path class="cls-126" d="M25.22,48.06l0,0Z"/><path class="cls-126" d="M25.14,48l0,0Z"/><path class="cls-126" d="M25.1,48l0,0Z"/><path class="cls-126" d="M25.06,47.94l0,0Z"/><polygon class="cls-118" points="24.86 47.83 24.82 47.78 24.85 47.78 24.87 47.81 24.86 47.83"/><path class="cls-92" d="M26.21,48.66l0,0Z"/><polygon class="cls-118" points="24.82 47.78 24.79 47.75 24.81 47.74 24.83 47.77 24.82 47.78"/><polygon class="cls-118" points="24.79 47.75 24.75 47.71 24.79 47.75 24.79 47.75"/><path class="cls-118" d="M24.59,47.59l0,0Z"/><path class="cls-118" d="M24.55,47.55l0,0Z"/><path class="cls-118" d="M24.51,47.51l0,0Z"/><polygon class="cls-105" points="24.07 47.11 24.11 47.11 24.11 47.15 24.07 47.11"/><polygon class="cls-105" points="24.07 47.07 24.07 47.11 24.03 47.07 24.07 47.07"/><path class="cls-49" d="M20.15,42.11l0,0Z"/><path class="cls-24" d="M20,41.92,20,42Z"/><path class="cls-26" d="M37.94,49.09h0Z"/><path class="cls-90" d="M38.3,48.94l0,0Z"/><path class="cls-21" d="M24,46.87,24,47Z"/><rect class="cls-21" x="24.03" y="47.03" width="0.04" height="0.04"/><path class="cls-21" d="M43.1,36.8a1.73,1.73,0,0,1,0,.51v.12a1.23,1.23,0,0,1,0,.33A1.31,1.31,0,0,0,43,38v.14a1,1,0,0,1-.17.59l-.05,0,0,0,0-.22a.8.8,0,0,0,0-.46l0,0a2.48,2.48,0,0,1,.24-.66l0-.19V37Z"/><path class="cls-86" d="M44.05,36.76c.1,0,.14-.07.11-.14s0-.21-.06-.31v-.12a1.18,1.18,0,0,0,0-.56v-.39a.93.93,0,0,1,0-.29,1.39,1.39,0,0,0-.09-.38,1.08,1.08,0,0,1-.08-.5.64.64,0,0,1,.13.32,5.11,5.11,0,0,1,.13.53c0,.1,0,.22.06.33s.06.42,0,.63a.74.74,0,0,0,0,.29v.25a.6.6,0,0,0,.05.35l0,.21h-.13Z"/><path class="cls-106" d="M42.62,43.66l-.08,0Z"/><path class="cls-52" d="M20.23,42.12v-.2l.17.07a1.38,1.38,0,0,0,.66.36c.07.21.15.42.22.62l0,.1A1.83,1.83,0,0,1,20.23,42.12Z"/><path class="cls-133" d="M21.06,42.35l-.08,0h-.09l-.19-.07-.1-.06a2.37,2.37,0,0,0-.34-.29l0,0,0-.18a2.29,2.29,0,0,0,.37.12h.12l.05-.1.07-.05h0l0,.12A2.32,2.32,0,0,1,21.06,42.35Z"/><path class="cls-134" d="M20.23,42.12l.06.05a1.87,1.87,0,0,0,.36.43,2,2,0,0,1,.24.26l.13.06c.14,0,.21.07.28.15h0l0,.08a1,1,0,0,1,.12.28,2.81,2.81,0,0,1-.35-.17l-.24-.19a5.56,5.56,0,0,0-.39-.44l0-.12-.12-.19-.08-.08Z"/><path class="cls-111" d="M20.9,41.84l0-.12Z"/><path class="cls-52" d="M21.33,43.15l0-.08Z"/><path class="cls-15" d="M41.27,46.87l-.11.12a.23.23,0,0,0-.24-.06,11.63,11.63,0,0,0-1.26.32c-.16.08-.34,0-.52,0l0,0c0-.14-.16-.28,0-.42a13.27,13.27,0,0,1-2,.75c-.65.28-1.34.32-2,.55l-.12,0H35a2.65,2.65,0,0,0-.91.31,1.1,1.1,0,0,1-.64.17l-.2,0a3.47,3.47,0,0,1-1.09.3,3.63,3.63,0,0,1-1.09.15,4.32,4.32,0,0,1-.88,0c-.06,0-.14,0-.15-.08h.22a.93.93,0,0,0,.33,0l.23,0,.11,0a.62.62,0,0,1,.3,0,2,2,0,0,0,.48-.08l.23,0a.52.52,0,0,0,.34-.1l.24-.06a1.55,1.55,0,0,0,.31,0l.17-.1a.56.56,0,0,1,.44-.19l.13,0a1.07,1.07,0,0,1,.35-.06l.11,0,.24-.1a.49.49,0,0,1,.27-.06l.09,0,.24-.08.24-.07.21-.06a1.27,1.27,0,0,0,.41-.15l.16,0H36c.14-.07.31-.06.43-.19l.21-.08a2.21,2.21,0,0,0,.46-.09l.14,0a.41.41,0,0,0,.33-.15L37.7,47a.56.56,0,0,0,.29-.16l.21-.09a.36.36,0,0,0,.24-.13.77.77,0,0,1,.29-.17l.59-.22.39-.17.21-.18.08-.08a.93.93,0,0,1,.4-.09l.17,0,0,0v0l-.28.29-.06.12.15,0,.19-.1h.09l0,.08a3.73,3.73,0,0,0-.26.3.24.24,0,0,0,0,.29l0,0c.09.16.15.18.33.14l.41-.12.12.06Z"/><path class="cls-126" d="M30,49v0c.1.06.22,0,.33,0a.43.43,0,0,0,.31,0l.17,0h.24a2.39,2.39,0,0,0,.53-.06l.25,0H32a4.45,4.45,0,0,0,.45-.13.5.5,0,0,1,.32,0,.37.37,0,0,0,.3-.1.42.42,0,0,1,.31-.1,1.18,1.18,0,0,0,.8-.26l.12-.06.56-.14.15,0c0,.1-.08.11-.14.14a5.13,5.13,0,0,0-.76.33.66.66,0,0,1-.28.09c-.55.12-1.1.25-1.65.35a15,15,0,0,1-1.63.18l-.06,0h-.31a1.23,1.23,0,0,1-.27,0c-.14,0-.29,0-.43-.06a3.63,3.63,0,0,1-.66-.1h-.11a1.57,1.57,0,0,1-.65-.13l-.22-.07c.13-.1.27,0,.39,0s.32.06.48.11a.63.63,0,0,0,.3.07l.66.09h.13Z"/><path class="cls-86" d="M28.71,48.86a1.74,1.74,0,0,1-.45-.06,1.19,1.19,0,0,0-.42-.06l-.08,0h-.08l-.32-.08-.24-.08h0l0,0h0a3.45,3.45,0,0,0-.52-.16l-.08,0-.08,0h0l-.12,0,0,0h-.08l-.1-.09-.44-.2-.49-.2-.09,0-.05,0,0,.11,0,0,0,0,0,0,0-.08c.06-.12.17-.1.26-.06l.41.17c.3.14.59.29.9.4l.72.23.4.15a2.32,2.32,0,0,0,.58.13l.34.07.23.06Z"/><path class="cls-76" d="M40.32,47.75l-.09-.06,0,0c-.18.1-.39.14-.58.24l-.1,0a.7.7,0,0,1-.27.11l-.33.13-.06.07-.12,0h0a8.92,8.92,0,0,1-1.14.37l-.05,0L37,48.9h0l-.11,0h-.08l-.12,0a3.48,3.48,0,0,1-.56.12,4.79,4.79,0,0,1-1,.2l-1.16.16a2.7,2.7,0,0,1-.49,0h-.12a9.83,9.83,0,0,1-1.21.08,12.49,12.49,0,0,1-1.37,0l-.16,0a.82.82,0,0,1-.31,0h-.06a3.15,3.15,0,0,1-.53,0c-.17,0-.33-.06-.5-.09l-.54-.11L28,49.1l-.08-.05a1.34,1.34,0,0,1,.48.08l.25,0,.16,0a1,1,0,0,0,.35,0l.11,0a2.66,2.66,0,0,0,.39.07,5.06,5.06,0,0,1,.68.09l.08,0a4,4,0,0,1,.6,0,.62.62,0,0,0,.3,0h.13a2.42,2.42,0,0,0,.89,0,.92.92,0,0,1,.29,0h.23a1.88,1.88,0,0,0,.53-.06l.5-.09h.39l.5-.1a1.14,1.14,0,0,1,.37,0l.2,0A4.1,4.1,0,0,1,36,49l.14,0c.28,0,.56-.14.84-.17a2.39,2.39,0,0,0,.46-.12,1.77,1.77,0,0,1,.44-.11l.15,0c.24-.08.49-.17.73-.23s.19-.1.29-.14a1.28,1.28,0,0,0,.41-.19l.07,0a8,8,0,0,0,.81-.32l.11,0,.05,0v.06Z"/><path class="cls-122" d="M33.39,49.49l.08,0h.24l.17,0a.7.7,0,0,1,.35-.05.92.92,0,0,0,.29,0,2.33,2.33,0,0,1,.36-.08l.18,0a2.46,2.46,0,0,0,.37,0l.46-.1H36l-.08.08a4.17,4.17,0,0,1-.49.08l-.09,0a3.23,3.23,0,0,1-.76.1l-.25,0a3.54,3.54,0,0,1-.47.07l-.39.05Z"/><path class="cls-122" d="M30.53,49.53h.32l.22,0a1,1,0,0,0,.38,0h.39l.17,0c.11,0,.2,0,.31,0a1.13,1.13,0,0,1,.32,0h.08a2,2,0,0,1,.55,0,.52.52,0,0,1-.3.08h-.35a1.15,1.15,0,0,1-.45,0h-1a1.29,1.29,0,0,1-.39,0h-.15Z"/><path class="cls-122" d="M37.51,48.74l.18-.11,1-.29-.07.07a4.83,4.83,0,0,1-.76.25l-.11,0Z"/><path class="cls-122" d="M36,49.09l.07,0a.5.5,0,0,0,.26-.08h.23l-.13.08-.28.07Z"/><path class="cls-122" d="M37,48.9a1.25,1.25,0,0,1,.56-.16A1.34,1.34,0,0,1,37,48.9Z"/><path class="cls-122" d="M36.6,49l.12,0Z"/><path class="cls-122" d="M36.8,48.93l.11,0Z"/><path class="cls-122" d="M38.74,48.34l.12,0Z"/><path class="cls-135" d="M30.49,49.13h.06a1.59,1.59,0,0,1,.53,0,2.42,2.42,0,0,0,.54-.07h.1a1.92,1.92,0,0,0,.41,0,2.85,2.85,0,0,0,.5-.14h.1a1.14,1.14,0,0,0,.55-.13,1,1,0,0,1,.29-.07l.15,0a1.23,1.23,0,0,0,.58-.23l.14-.06a.62.62,0,0,0,.26-.09l.16-.07.15-.08h0l.08,0a1.24,1.24,0,0,0,.45-.14h.07a1.84,1.84,0,0,0,.53-.09l.25,0a1.19,1.19,0,0,0,.51-.2,1.52,1.52,0,0,1,.59-.19l.21,0,.72-.27a3.06,3.06,0,0,0,.51-.26l.22-.1h0v0l-.14.12v.09l.06,0,0,.1-.06.1.13,0,.24,0h.18l.26-.11a1.13,1.13,0,0,1,.32-.06,1.35,1.35,0,0,0,.29-.05,3.17,3.17,0,0,0,.44-.12c.14,0,.16,0,.19.13l-.12.12c0-.11,0-.12-.12-.12l-.09,0c-.13.06-.26.09-.39.14a6.18,6.18,0,0,1-.72.26l-.26.09a.82.82,0,0,1-.34.09l-.18,0-.58.18,0,0h-.68a.51.51,0,0,0-.3,0,6.46,6.46,0,0,1-.76.18l-.09,0c-.29.09-.58.11-.87.19s-.31,0-.46.08l-.21.06a.63.63,0,0,1-.3.07l-.23.06a.94.94,0,0,1-.43.16,2.88,2.88,0,0,0-.42.11.9.9,0,0,0-.32.09h-.06a1.13,1.13,0,0,0-.31.06,2.07,2.07,0,0,1-.5.06.58.58,0,0,0-.29.06.71.71,0,0,1-.32.07.74.74,0,0,0-.39,0,7.09,7.09,0,0,1-.79,0Z"/><polygon class="cls-135" points="40.96 47.23 41 47.19 41 47.23 40.96 47.23"/><polygon class="cls-135" points="40.88 47.31 40.92 47.27 40.92 47.31 40.88 47.31"/><polygon class="cls-135" points="40.92 47.27 40.96 47.23 40.96 47.27 40.92 47.27"/><path class="cls-126" d="M26.49,48.34a.89.89,0,0,1,.52.16h-.1A4.09,4.09,0,0,1,26.49,48.34Z"/><path class="cls-126" d="M27.36,48.62a.61.61,0,0,1,.32.08h-.06A.51.51,0,0,1,27.36,48.62Z"/><path class="cls-126" d="M27.12,48.54l.24.08Z"/><path class="cls-126" d="M26.17,48.22l.12,0Z"/><path class="cls-126" d="M27.76,48.7l.08,0Z"/><path class="cls-126" d="M26.41,48.3l.08,0Z"/><path class="cls-126" d="M26.33,48.26l.08,0Z"/><path class="cls-126" d="M26.13,48.18l0,0Z"/><path class="cls-126" d="M27,48.5l0,0Z"/><path class="cls-135" d="M38.31,46.87l.08,0,0,0a1.16,1.16,0,0,1-.37.13h0v0A.69.69,0,0,1,38.31,46.87Z"/><path class="cls-126" d="M35.13,48l-.08,0Z"/><path d="M67.94,53.82a13.11,13.11,0,1,1-13.1-13.1A13.1,13.1,0,0,1,67.94,53.82Z"/><polygon class="cls-3" points="53.9 56.39 48.93 65.46 61.36 54.58 56.38 51.85 61.35 42.78 48.92 53.66 53.9 56.39"/></g></g></svg>