<svg xmlns="http://www.w3.org/2000/svg" viewBox="0 0 113.46 39.31"><defs><style>.cls-1{fill:#4d73a8;}.cls-2{fill:#fff;}.cls-3{font-size:17px;font-family:ArialNarrow, Arial Narrow;}</style></defs><g id="Layer_2" data-name="Layer 2"><g id="BG"><path class="cls-1" d="M38.88,19.65V39c0,.29,0,.29-.33.29H.33C0,39.31,0,39.31,0,39V.29C0,0,0,0,.33,0H38.55c.33,0,.33,0,.33.29Z"/><polygon class="cls-2" points="4.93 26.14 4.93 13.79 12.57 13.79 12.57 15.88 7.18 15.88 7.18 18.8 11.83 18.8 11.83 20.89 7.18 20.89 7.18 26.14 4.93 26.14"/><path class="cls-2" d="M14.41,13.79h4.11a7.53,7.53,0,0,1,2.12.23,3.77,3.77,0,0,1,1.68,1.14,5.46,5.46,0,0,1,1.06,2,9.83,9.83,0,0,1,.37,2.92,8.84,8.84,0,0,1-.34,2.63,5.5,5.5,0,0,1-1.2,2.18,3.73,3.73,0,0,1-1.58,1,6.27,6.27,0,0,1-2,.26H14.41Zm2.25,2.09v8.18h1.68a5.45,5.45,0,0,0,1.36-.12,2,2,0,0,0,.91-.51,2.8,2.8,0,0,0,.59-1.19A9.12,9.12,0,0,0,21.42,20a8.36,8.36,0,0,0-.22-2.2,3,3,0,0,0-.64-1.19,2.06,2.06,0,0,0-1-.58,9.12,9.12,0,0,0-1.85-.12Z"/><path class="cls-2" d="M35.7,26.14H33.25l-1-2.8H27.83l-.92,2.8H24.52l4.34-12.35h2.38Zm-4.14-4.89L30,16.67l-1.5,4.58Z"/><text class="cls-3" transform="translate(46.05 26.79)">Registered</text></g></g></svg>