<svg xmlns="http://www.w3.org/2000/svg" viewBox="0 0 189.14 34.38"><defs><style>.cls-1,.cls-3{fill:#fff;}.cls-2{fill:#4d73a8;}.cls-3{font-size:13.37px;font-family:DMSans-Bold, DM Sans;font-weight:700;}.cls-4{fill:#be353b;}.cls-5{font-size:17px;fill:#4073ae;font-family:DMSans-Italic, DM Sans;font-style:italic;}.cls-6{letter-spacing:-0.02em;}</style></defs><g id="Layer_2" data-name="Layer 2"><g id="BG"><rect class="cls-1" x="71.65" y="1.69" width="55.95" height="31.63"/><rect class="cls-2" x="137.39" width="51.75" height="34.38" rx="2.97"/><text class="cls-3" transform="translate(143.7 15.65) scale(1.02 1)">MADE</text><text class="cls-3" transform="translate(141.46 27.54) scale(1.02 1)">IN USA</text><rect class="cls-4" x="96.65" y="1.69" width="30.95" height="3.51"/><rect class="cls-4" x="96.65" y="8.59" width="30.95" height="3.51"/><rect class="cls-4" x="96.65" y="15.51" width="30.95" height="3.51"/><rect class="cls-4" x="71.65" y="22.54" width="55.95" height="3.51"/><rect class="cls-4" x="71.65" y="29.82" width="55.95" height="3.51"/><rect class="cls-2" x="71.65" y="1.69" width="25.06" height="17.33"/><polygon class="cls-1" points="72.97 4.27 74.34 4.27 74.84 2.83 75.4 4.27 76.75 4.27 75.72 5.21 76.1 6.64 74.86 5.84 73.7 6.64 74.04 5.21 72.97 4.27"/><polygon class="cls-1" points="77.55 4.27 78.92 4.27 79.42 2.83 79.98 4.27 81.33 4.27 80.3 5.21 80.68 6.64 79.44 5.84 78.28 6.64 78.62 5.21 77.55 4.27"/><polygon class="cls-1" points="82.13 4.27 83.5 4.27 84 2.83 84.56 4.27 85.91 4.27 84.88 5.21 85.26 6.64 84.02 5.84 82.86 6.64 83.2 5.21 82.13 4.27"/><polygon class="cls-1" points="86.5 4.27 87.87 4.27 88.37 2.83 88.92 4.27 90.28 4.27 89.25 5.21 89.63 6.64 88.39 5.84 87.23 6.64 87.57 5.21 86.5 4.27"/><polygon class="cls-1" points="90.8 4.27 92.17 4.27 92.67 2.83 93.22 4.27 94.58 4.27 93.55 5.21 93.93 6.64 92.69 5.84 91.53 6.64 91.87 5.21 90.8 4.27"/><polygon class="cls-1" points="72.97 14.63 74.34 14.63 74.84 13.19 75.4 14.63 76.75 14.63 75.72 15.57 76.1 17 74.86 16.2 73.7 17 74.04 15.57 72.97 14.63"/><polygon class="cls-1" points="77.55 14.63 78.92 14.63 79.42 13.19 79.98 14.63 81.33 14.63 80.3 15.57 80.68 17 79.44 16.2 78.28 17 78.62 15.57 77.55 14.63"/><polygon class="cls-1" points="82.13 14.63 83.5 14.63 84 13.19 84.56 14.63 85.91 14.63 84.88 15.57 85.26 17 84.02 16.2 82.86 17 83.2 15.57 82.13 14.63"/><polygon class="cls-1" points="86.5 14.63 87.87 14.63 88.37 13.19 88.92 14.63 90.28 14.63 89.25 15.57 89.63 17 88.39 16.2 87.23 17 87.57 15.57 86.5 14.63"/><polygon class="cls-1" points="90.8 14.63 92.17 14.63 92.67 13.19 93.22 14.63 94.58 14.63 93.55 15.57 93.93 17 92.69 16.2 91.53 17 91.87 15.57 90.8 14.63"/><polygon class="cls-1" points="74.27 9.45 75.64 9.45 76.14 8.01 76.69 9.45 78.05 9.45 77.02 10.39 77.4 11.82 76.16 11.02 75 11.82 75.34 10.39 74.27 9.45"/><polygon class="cls-1" points="78.85 9.45 80.22 9.45 80.72 8.01 81.27 9.45 82.63 9.45 81.6 10.39 81.98 11.82 80.74 11.02 79.58 11.82 79.92 10.39 78.85 9.45"/><polygon class="cls-1" points="83.43 9.45 84.8 9.45 85.3 8.01 85.85 9.45 87.21 9.45 86.18 10.39 86.56 11.82 85.32 11.02 84.16 11.82 84.5 10.39 83.43 9.45"/><polygon class="cls-1" points="87.79 9.45 89.16 9.45 89.67 8.01 90.22 9.45 91.58 9.45 90.55 10.39 90.93 11.82 89.69 11.02 88.53 11.82 88.86 10.39 87.79 9.45"/><polygon class="cls-1" points="92.09 9.45 93.46 9.45 93.96 8.01 94.52 9.45 95.88 9.45 94.84 10.39 95.22 11.82 93.98 11.02 92.82 11.82 93.16 10.39 92.09 9.45"/><text class="cls-5" transform="translate(0 22.51)">P<tspan class="cls-6" x="9.91" y="0">r</tspan><tspan x="15.86" y="0">oudly</tspan></text></g></g></svg>