<?xml version="1.0" encoding="utf-8"?>
<!-- Generator: Adobe Illustrator 25.0.0, SVG Export Plug-In . SVG Version: 6.00 Build 0)  -->
<svg version="1.1" id="Layer_1" xmlns="http://www.w3.org/2000/svg" xmlns:xlink="http://www.w3.org/1999/xlink" x="0px" y="0px"
	 viewBox="0 0 201.7 158.6" style="enable-background:new 0 0 201.7 158.6;" xml:space="preserve">
<style type="text/css">
	.st0{fill:url(#SVGID_1_);}
	.st1{fill:none;stroke:#000000;stroke-width:14.06;stroke-miterlimit:10;}
	.st2{fill:url(#SVGID_2_);}
	.st3{fill:url(#SVGID_3_);}
	.st4{fill:url(#SVGID_4_);}
</style>
<g id="Layer_2_1_">
	<g id="Layer_1-2">
		
			<radialGradient id="SVGID_1_" cx="99.98" cy="80.06" r="79.39" gradientTransform="matrix(1 0 0 -1 0 160)" gradientUnits="userSpaceOnUse">
			<stop  offset="0" style="stop-color:#ffffff"/>
			<stop  offset="1" style="stop-color:#f3fdf4"/>
		</radialGradient>
		<path class="st0" d="M37.7,0h126c9,0,16.3,7.3,16.3,16.3v126c0,9-7.3,16.3-16.3,16.3h-126c-9,0-16.3-7.3-16.3-16.3v-126
			C21.4,7.3,28.7,0,37.7,0z"/>
		<g>
			<g>
				<line class="st1" x1="99.5" y1="96.4" x2="119.6" y2="82.9"/>
				<line class="st1" x1="43.6" y1="84.4" x2="55.7" y2="94.3"/>
				
					<radialGradient id="SVGID_2_" cx="143.88" cy="110.91" r="48.79" gradientTransform="matrix(1 0 0 -1 0 160)" gradientUnits="userSpaceOnUse">
					<stop  offset="0" style="stop-color:#FFFFFF"/>
					<stop  offset="1" style="stop-color:#64B0ED"/>
				</radialGradient>
				<circle class="st2" cx="152.9" cy="63" r="48.8"/>
				
					<radialGradient id="SVGID_3_" cx="23.24" cy="94.95" r="27.87" gradientTransform="matrix(1 0 0 -1 0 160)" gradientUnits="userSpaceOnUse">
					<stop  offset="0" style="stop-color:#FFFFFF"/>
					<stop  offset="1" style="stop-color:#ADADAD"/>
				</radialGradient>
				<circle class="st3" cx="27.9" cy="70.7" r="27.9"/>
				
					<radialGradient id="SVGID_4_" cx="73.64" cy="55.71" r="32.84" gradientTransform="matrix(1 0 0 -1 0 160)" gradientUnits="userSpaceOnUse">
					<stop  offset="0" style="stop-color:#FFFFFF"/>
					<stop  offset="1" style="stop-color:#3B7AAD"/>
				</radialGradient>
				<circle class="st4" cx="76.3" cy="111.8" r="32.8"/>
			</g>
		</g>
	</g>
</g>
</svg>
