<?xml version="1.0" encoding="utf-8"?>
<!-- Generator: Adobe Illustrator 25.2.0, SVG Export Plug-In . SVG Version: 6.00 Build 0)  -->
<svg version="1.1" id="Layer_1" xmlns="http://www.w3.org/2000/svg" xmlns:xlink="http://www.w3.org/1999/xlink" x="0px" y="0px"
	 viewBox="0 0 236.2 192.9" style="enable-background:new 0 0 236.2 192.9;" xml:space="preserve">
<style type="text/css">
	.st0{fill:#E0EEFA;}
	.st1{enable-background:new    ;}
	.st2{fill:none;stroke:#000000;stroke-width:0.5;stroke-miterlimit:10;}
	.st3{fill:none;stroke:#4172B2;stroke-miterlimit:10;}
	.st4{fill:#FFFFFF;stroke:#000000;stroke-width:0.5;stroke-miterlimit:10;}
</style>
<g id="Layer_2_1_">
	<g id="Layer_1-2">
		<path class="st0" d="M210.5,142.1H38.4c-7.2,0-14,3.1-18.8,8.5l0,0c-14.2,16.1-2.7,41.4,18.8,41.4h172.1
			c21.5,0,32.9-25.3,18.8-41.4l0,0C224.5,145.2,217.6,142.1,210.5,142.1z"/>
		<g class="st1">
			<path d="M98.1,85V73.6L96,74.1V73l2.7-1.1h1.1V85H98.1z"/>
			<path d="M107.6,85.2c-1.2,0-2.2-0.3-3-0.9c-0.8-0.6-1.5-1.4-1.9-2.4s-0.7-2.2-0.7-3.6c0-1.4,0.2-2.5,0.7-3.6s1.1-1.8,1.9-2.4
				c0.8-0.6,1.9-0.9,3-0.9c1.2,0,2.2,0.3,3,0.9c0.8,0.6,1.5,1.4,1.9,2.4s0.7,2.2,0.7,3.6c0,1.4-0.2,2.5-0.7,3.6s-1.1,1.8-1.9,2.4
				C109.8,84.9,108.8,85.2,107.6,85.2z M107.6,83.8c0.8,0,1.5-0.2,2.1-0.6c0.6-0.4,1.1-1.1,1.4-1.9c0.3-0.8,0.5-1.8,0.5-2.9
				s-0.2-2.1-0.5-2.9s-0.8-1.4-1.4-1.9c-0.6-0.4-1.3-0.6-2.1-0.6c-0.8,0-1.5,0.2-2.1,0.6c-0.6,0.4-1.1,1.1-1.4,1.9
				c-0.4,0.8-0.5,1.8-0.5,2.9s0.2,2.1,0.5,2.9c0.4,0.8,0.8,1.4,1.4,1.9C106.1,83.6,106.8,83.8,107.6,83.8z"/>
			<path d="M115.4,85v-9.3h1.4L117,77c0.3-0.5,0.7-0.9,1.2-1.2c0.5-0.3,1.1-0.4,1.7-0.4c0.7,0,1.4,0.2,1.9,0.5
				c0.5,0.3,0.9,0.8,1.2,1.4c0.3-0.6,0.8-1,1.3-1.3c0.6-0.3,1.2-0.5,1.9-0.5c1.1,0,2,0.3,2.7,1s1,1.7,1,3.1V85h-1.6v-5.3
				c0-1-0.2-1.7-0.6-2.2s-0.9-0.7-1.7-0.7c-0.8,0-1.4,0.3-1.9,0.9c-0.5,0.6-0.7,1.4-0.7,2.5V85h-1.6v-5.3c0-1-0.2-1.7-0.6-2.2
				s-0.9-0.7-1.7-0.7c-0.7,0-1.4,0.3-1.9,0.9c-0.5,0.6-0.7,1.4-0.7,2.5V85H115.4z"/>
			<path d="M133.2,73.6c-0.3,0-0.6-0.1-0.8-0.3s-0.3-0.5-0.3-0.8c0-0.3,0.1-0.6,0.3-0.8c0.2-0.2,0.5-0.3,0.8-0.3
				c0.3,0,0.6,0.1,0.8,0.3c0.2,0.2,0.3,0.5,0.3,0.8c0,0.3-0.1,0.6-0.3,0.8C133.8,73.5,133.5,73.6,133.2,73.6z M132.4,85v-9.3h1.6V85
				H132.4z"/>
			<path d="M136.8,85v-9.3h1.4l0.1,1.7c0.3-0.6,0.7-1.1,1.3-1.4s1.2-0.5,1.9-0.5c1.1,0,2,0.3,2.6,1c0.7,0.7,1,1.7,1,3.1V85h-1.6
				v-5.3c0-1.9-0.8-2.9-2.4-2.9c-0.8,0-1.5,0.3-2,0.9c-0.5,0.6-0.8,1.4-0.8,2.5V85H136.8z"/>
		</g>
		<path class="st2" d="M136.8,58.3l-3.1-5.3c-0.2-0.3-0.5-0.3-0.8-0.2c-0.3,0.2-0.4,0.5-0.2,0.8l3.1,5.3c-4.5,2.5-9.5,3.8-14.6,3.9
			v-6.2c0-0.3-0.3-0.5-0.6-0.5c-0.3,0-0.4,0.2-0.5,0.5v6.2c-5.1-0.1-10.1-1.4-14.6-3.9l3.1-5.3c0.2-0.3,0.1-0.6-0.2-0.7c0,0,0,0,0,0
			c-0.3-0.2-0.6-0.1-0.8,0.2l-3.1,5.3c-4.4-2.6-8-6.3-10.7-10.7l5.3-3.1c0.3-0.2,0.4-0.5,0.2-0.8s-0.5-0.4-0.8-0.2l-5.3,3.1
			c-2.5-4.5-3.8-9.5-3.9-14.6h6.2c0.3,0,0.6-0.2,0.6-0.5S96,31,95.7,31c0,0-0.1,0-0.1,0h-6.2c0.1-5.1,1.4-10.1,3.9-14.6l5.3,3.1
			c0.1,0,0.2,0.1,0.3,0.1c0.2,0,0.4-0.1,0.5-0.3c0.2-0.3,0.1-0.6-0.2-0.8l-5.3-3.1c2.6-4.4,6.3-8,10.7-10.7l3.1,5.3
			c0.1,0.2,0.3,0.3,0.5,0.3c0.1,0,0.2,0,0.3-0.1c0.3-0.1,0.4-0.5,0.2-0.7c0,0,0,0,0,0l-3.1-5.3c4.5-2.5,9.5-3.8,14.6-3.9v6.2
			c0,0.3,0.2,0.6,0.5,0.6s0.6-0.2,0.6-0.5c0,0,0-0.1,0-0.1V0.2c5.1,0.1,10.1,1.4,14.6,3.9l-3.1,5.3c-0.2,0.3-0.1,0.6,0.2,0.8
			c0.3,0.2,0.6,0.1,0.8-0.2l3.1-5.3c4.4,2.6,8,6.3,10.7,10.7l-5.3,3.1c-0.2,0.2-0.3,0.5-0.1,0.8c0.1,0.1,0.2,0.2,0.4,0.2
			c0.1,0,0.2,0,0.3-0.1l5.4-3c2.5,4.5,3.8,9.5,3.9,14.6h-6.2c-0.3,0-0.6,0.2-0.6,0.5c0,0.3,0.2,0.6,0.5,0.6c0,0,0.1,0,0.1,0h6.2
			c-0.1,5.1-1.4,10.1-3.9,14.5l-5.3-3.1c-0.3-0.2-0.6-0.1-0.8,0.2c-0.2,0.3-0.1,0.6,0.2,0.7c0,0,0,0,0,0l5.3,3.1
			C144.8,52,141.1,55.7,136.8,58.3z"/>
		<path d="M129.6,22.5c-0.2-0.2-0.5-0.2-0.8,0c0,0,0,0,0,0l-7.5,7.5h-0.1V10.6c0-0.3-0.2-0.6-0.5-0.6c-0.3,0-0.6,0.2-0.6,0.5
			c0,0,0,0.1,0,0.1V30c-0.8,0.3-1.2,1.2-0.9,2c0.3,0.8,1.2,1.2,2,0.9c0.6-0.2,1-0.8,1-1.5c0-0.2,0-0.5-0.2-0.7l7.5-7.5
			C129.8,23.1,129.8,22.7,129.6,22.5z"/>
		<line class="st2" x1="0.4" y1="128.1" x2="236.2" y2="128.1"/>
		<path class="st2" d="M0,128.1c66.8,2,129.1,7.2,130,20.4c0.6,9.3-29.1,16.5-28.4,25.5c0.6,8.6,29.1,16.8,134.6,18.6"/>
		<line class="st3" x1="59.8" y1="140.3" x2="59.8" y2="160.1"/>
		<line class="st3" x1="59.8" y1="173.2" x2="59.8" y2="192.9"/>
		<line class="st3" x1="33.5" y1="166.6" x2="53.2" y2="166.6"/>
		<line class="st3" x1="66.3" y1="166.6" x2="86" y2="166.6"/>
		<line class="st3" x1="23.1" y1="139.6" x2="23.1" y2="149.4"/>
		<line class="st3" x1="23.1" y1="156" x2="23.1" y2="165.9"/>
		<line class="st3" x1="9.9" y1="152.7" x2="19.8" y2="152.7"/>
		<line class="st3" x1="26.3" y1="152.7" x2="36.2" y2="152.7"/>
		<line class="st2" x1="148.5" y1="139.5" x2="232.8" y2="178.2"/>
		<line class="st2" x1="161.9" y1="137.8" x2="217.2" y2="163.2"/>
		<rect x="20.9" y="112.4" class="st4" width="196.3" height="15.7"/>
		<path class="st4" d="M198,105.7l-1.1,0.3l0.7,1c0.8,1.1,0.6,2.6-0.5,3.5c-0.3,0.2-0.7,0.4-1.1,0.5l-1.1,0.2l0.5,1
			c0.2,0.4,0.3,0.7,0.3,1.1c0,1.3-1,2.4-2.3,2.5h-14.3c-1.1,0-2.2-0.4-3.1-1.1c-0.2-0.2-0.5-0.4-0.8-0.5l-0.3-0.1l0,0v-13.3l1.5-1.3
			l5-9.3c0.2-0.3,0.4-0.7,0.6-1.1c0.1-0.4,0.1-0.9,0.1-1.3l-0.4-5.2c0.4-0.2,0.7-0.3,1.1-0.3c2.2,0,4,3.5,4,6.3c0,0.4,0,0.8-0.1,1.2
			l-0.9,5.7h10.9c0.7,0,1.4,0.3,1.9,0.8c0.5,0.4,0.7,1.1,0.7,1.7c0,0.8-0.4,1.5-1,2l-1,0.8l1.1,0.6c0.8,0.4,1.3,1.3,1.3,2.2
			C199.8,104.5,199,105.4,198,105.7z M173.2,97.1h-9.5c-1,0-1.7,0.8-1.7,1.7v18c0,1,0.8,1.7,1.7,1.7h9.5c0.9,0,1.7-0.8,1.7-1.7l0,0
			v-18C174.9,97.9,174.2,97.1,173.2,97.1L173.2,97.1z M169.5,115.4c-1,0-1.8-0.8-1.8-1.8c0-1,0.8-1.8,1.8-1.8c1,0,1.8,0.8,1.8,1.8
			C171.3,114.6,170.5,115.4,169.5,115.4L169.5,115.4z"/>
	</g>
</g>
</svg>
