<?xml version="1.0" encoding="utf-8"?>
<!-- Generator: Adobe Illustrator 25.0.0, SVG Export Plug-In . SVG Version: 6.00 Build 0)  -->
<svg version="1.1" id="Layer_1" xmlns="http://www.w3.org/2000/svg" xmlns:xlink="http://www.w3.org/1999/xlink" x="0px" y="0px"
	 viewBox="0 0 38.7 38.7" style="enable-background:new 0 0 38.7 38.7;" xml:space="preserve">
<style type="text/css">
	.st0{fill:#4D73A8;}
	.st1{fill:#FFFFFF;}
</style>
<g id="Layer_2_1_">
	<g id="Layer_1-2">
		<path class="st0" d="M4,0h30.8c2.2,0,4,1.8,4,4v30.8c0,2.2-1.8,4-4,4H4c-2.2,0-4-1.8-4-4V4C0,1.8,1.8,0,4,0z"/>
		<g>
			<path class="st1" d="M4.1,26V13.3h8.3v1.9h-6v3.5h5.4v1.8H6.5v3.7h6V26H4.1z"/>
			<path class="st1" d="M14.6,26V13.3h4.7c1,0,1.9,0.2,2.5,0.5c0.7,0.3,1.2,0.8,1.5,1.4c0.3,0.6,0.5,1.3,0.5,2
				c0,0.7-0.2,1.3-0.5,1.9c-0.3,0.6-0.8,1.1-1.5,1.4c-0.7,0.4-1.5,0.5-2.6,0.5H17V26H14.6z M17,19.2h2.2c0.8,0,1.4-0.2,1.8-0.5
				c0.4-0.4,0.5-0.8,0.5-1.5c0-0.6-0.2-1.1-0.5-1.5c-0.4-0.4-0.9-0.5-1.8-0.5H17V19.2z"/>
			<path class="st1" d="M23.5,26l4.6-12.7h2.6L35.4,26h-2.5l-1-2.9h-5l-1,2.9H23.5z M27.6,21.3h3.7L29.4,16L27.6,21.3z"/>
		</g>
	</g>
</g>
</svg>
