<svg xmlns="http://www.w3.org/2000/svg" xmlns:xlink="http://www.w3.org/1999/xlink" viewBox="0 0 398.42 462.3"><defs><style>.cls-1{fill:none;}.cls-2{clip-path:url(#clip-path);}.cls-3{fill:#d5e3ef;}.cls-4{fill:#aadcfa;}.cls-5{clip-path:url(#clip-path-2);}.cls-6{fill:#fff;}.cls-7{fill:#4172ad;}.cls-8{fill:#225faa;}.cls-9{fill:#005fb0;}</style><clipPath id="clip-path" transform="translate(-45.15 -1.17)"><polyline class="cls-1" points="0 10.3 443.57 10.3 443.57 520.53 0 520.53 0 10.3"/></clipPath><clipPath id="clip-path-2" transform="translate(-45.15 -1.17)"><polyline class="cls-1" points="95.56 280.44 212.86 280.44 212.86 0 95.56 0 95.56 280.44"/></clipPath></defs><g id="Layer_2" data-name="Layer 2"><g id="GUIDES"><g class="cls-2"><path class="cls-3" d="M244.17,144.76h6V195.9h-6V144.76m7-1h-8v.5h0V196.9h8V143.76" transform="translate(-45.15 -1.17)"/><path class="cls-3" d="M244.17,315h6v46.16h-6V315m7-1h-8v.5h0v47.66h8V314" transform="translate(-45.15 -1.17)"/><path class="cls-3" d="M130.8,251.09h67v6h-67v-6m68-1h-69v.5h0v7.53h69v-8" transform="translate(-45.15 -1.17)"/><path class="cls-3" d="M297.78,251.09H366.5v6H297.78v-6m69.72-1H296.78v.5h0v7.53H367.5v-8" transform="translate(-45.15 -1.17)"/><path class="cls-3" d="M412.9,144.76h6V195.9h-6V144.76m7-1h-8v.5h0V196.9h8V143.76" transform="translate(-45.15 -1.17)"/><path class="cls-3" d="M412.9,315h6v46.16h-6V315m7-1h-8v.5h0v47.66h8V314" transform="translate(-45.15 -1.17)"/><path class="cls-3" d="M224.13,79.14h46.11V43.4h9.55V125h-9.55V87.22H224.13v.5h0V125h-9.25V43.4h9.25V79.14M280.79,42.4H269.24V78.14H225.13V42.4H213.88V126h11.25V88.22h44.11V126h11.55V42.4" transform="translate(-45.15 -1.17)"/><path class="cls-3" d="M248.94,295.79c-11.3,0-20.44-4.12-26.79-11.44s-9.91-17.88-9.91-30.83,3.64-23.51,10-30.83,15.53-11.43,26.68-11.44a35.54,35.54,0,0,1,22.54,7.51,31.06,31.06,0,0,1,11.14,19h-9.56c-2.82-10.85-12.62-17.87-24.39-17.87h0a24.44,24.44,0,0,0-19.51,9c-4.7,5.75-7.34,13.94-7.34,23.76,0,.27,0,.55,0,.82h0c0,10.18,2.58,18.57,7.28,24.43s11.53,9.16,19.85,9.16h0a27.68,27.68,0,0,0,15.55-4.26A21.17,21.17,0,0,0,273,271.3h9.54c-1.94,7.81-5.84,13.86-11.41,18-5.73,4.24-13.23,6.49-22.23,6.49m0-85.54h0c-11.4,0-20.86,4.23-27.43,11.78s-10.27,18.36-10.27,31.49,3.61,23.94,10.16,31.49,16,11.78,27.52,11.78h0c9.17,0,16.9-2.29,22.82-6.69s10-10.89,11.94-19.18l.15-.62H272.3l-.11.36A20.19,20.19,0,0,1,263.93,282a26.66,26.66,0,0,1-15,4.09c-8.07,0-14.56-3.15-19.09-8.78s-7.06-13.8-7.06-23.82h0c0-.27,0-.53,0-.8,0-9.64,2.6-17.6,7.11-23.13a23.43,23.43,0,0,1,18.76-8.66h0c11.52,0,21,6.88,23.54,17.49l.09.38H283.8l-.09-.58A32.15,32.15,0,0,0,272.11,218,36.58,36.58,0,0,0,249,210.25" transform="translate(-45.15 -1.17)"/><path class="cls-3" d="M269.74,416.1h0v0h0m.5,0V380.86h9.55v81.61h-9.55V424.68H224.13v37.79h-9.25V380.86h9.25V416.6h46.11v-.5m10.55-36.24H269.24V415.6H225.13V379.86H213.88v83.61h11.25V425.68h44.11v37.79h11.55V379.86" transform="translate(-45.15 -1.17)"/><path class="cls-3" d="M101,247.37h0v0h0m.5,0V212.13h9.55v81.61h-9.55V256H55.4v37.79H46.15V212.13H55.4v35.74h46.11v-.5m10.55-36.24H100.51v35.74H56.4V211.13H45.15v83.61H56.4V257h44.11v37.79h11.55V211.13" transform="translate(-45.15 -1.17)"/><path class="cls-3" d="M417.4,219.92h0a24.44,24.44,0,0,0-19.51,9c-4.7,5.75-7.34,13.94-7.34,23.76,0,.27,0,.55,0,.82h0c0,10.18,2.58,18.57,7.28,24.43s11.53,9.16,19.85,9.16h0a27.68,27.68,0,0,0,15.55-4.26,21.17,21.17,0,0,0,8.55-11.56h1.8v-1H441l-.11.36A20.22,20.22,0,0,1,432.67,282a26.72,26.72,0,0,1-15,4.09c-8.07,0-14.56-3.15-19.09-8.78s-7.06-13.8-7.06-23.82h0c0-.27,0-.53,0-.8,0-9.64,2.6-17.6,7.11-23.13a23.43,23.43,0,0,1,18.76-8.66h0c11.52,0,20.95,6.88,23.54,17.49l.09.38h2.56v-1h-1.78c-2.82-10.85-12.62-17.87-24.39-17.87m.28-9.67h0c-11.4,0-20.86,4.23-27.43,11.78S380,240.39,380,253.52s3.61,23.94,10.16,31.49,16,11.78,27.52,11.78h0c9.17,0,16.9-2.29,22.82-6.69a28.77,28.77,0,0,0,3.08-2.64V286a28.42,28.42,0,0,1-3.67,3.26c-5.72,4.24-13.23,6.49-22.23,6.49-11.3,0-20.44-4.12-26.79-11.44S381,266.47,381,253.52s3.64-23.51,10-30.83,15.53-11.43,26.68-11.44a35.56,35.56,0,0,1,22.54,7.51,30.24,30.24,0,0,1,3.36,3.14v-1.45a32,32,0,0,0-2.73-2.47,36.58,36.58,0,0,0-23.16-7.73" transform="translate(-45.15 -1.17)"/><polyline class="cls-3" points="398.42 41.23 392.82 41.23 392.82 76.97 348.71 76.97 348.71 41.23 337.46 41.23 337.46 124.83 348.71 124.83 348.71 87.05 392.82 87.05 392.82 124.83 398.42 124.83 398.42 123.83 393.82 123.83 393.82 86.05 347.71 86.05 347.71 86.55 348.21 86.55 347.71 86.55 347.71 123.83 338.46 123.83 338.46 42.23 347.71 42.23 347.71 77.96 393.82 77.96 393.82 42.23 398.42 42.23 398.42 41.23"/><path class="cls-3" d="M438.47,416.1h0v0h0m5.1-36.24H438V415.6H393.86V379.86H382.61v83.61h11.25V425.68H438v37.79h5.6v-1H439V424.68H392.86v37.79h-9.25V380.86h9.25V416.6H439V380.86h4.6v-1" transform="translate(-45.15 -1.17)"/></g><path class="cls-4" d="M333.38,138.54h.5A120.83,120.83,0,1,0,213.05,259.37,120.83,120.83,0,0,0,333.88,138.54h-1a119.84,119.84,0,1,1-35.1-84.73,119.42,119.42,0,0,1,35.1,84.73Z" transform="translate(-45.15 -1.17)"/><g class="cls-5"><path class="cls-6" d="M110.07,223.35a2.5,2.5,0,0,1-.81,1.87,2.59,2.59,0,0,1-1.89.82,2.48,2.48,0,0,1-1.81-.73,2.51,2.51,0,0,1-.76-1.84,2.59,2.59,0,0,1,.82-1.89,2.55,2.55,0,0,1,1.87-.8" transform="translate(-45.15 -1.17)"/><path class="cls-7" d="M109.07,223.35v0a1.52,1.52,0,0,1-.52,1.13,1.58,1.58,0,0,1-1.18.53,1.47,1.47,0,0,1-1.1-.45,1.49,1.49,0,0,1-.47-1.13,1.58,1.58,0,0,1,.53-1.18,1.49,1.49,0,0,1,1.13-.51h0l0-2h-.05a3.55,3.55,0,0,0-2.55,1.1,3.61,3.61,0,0,0-1.11,2.59,3.53,3.53,0,0,0,1.06,2.54,3.47,3.47,0,0,0,2.51,1,3.78,3.78,0,0,0,3.7-3.65v0Z" transform="translate(-45.15 -1.17)"/><path class="cls-6" d="M115.2,219.28a2.61,2.61,0,0,1-1.89.83,2.56,2.56,0,0,1-2.57-2.58,2.56,2.56,0,0,1,.82-1.88,2.54,2.54,0,0,1,3.69,0,2.46,2.46,0,0,1,.76,1.79A2.5,2.5,0,0,1,115.2,219.28Z" transform="translate(-45.15 -1.17)"/><path class="cls-7" d="M115.2,219.28l-.71-.7a1.58,1.58,0,0,1-1.18.53,1.47,1.47,0,0,1-1.1-.45,1.49,1.49,0,0,1-.47-1.13,1.6,1.6,0,0,1,.53-1.18,1.52,1.52,0,0,1,1.13-.51h0a1.53,1.53,0,0,1,1.13.48,1.51,1.51,0,0,1,.46,1.1h0v0a1.52,1.52,0,0,1-.52,1.14l.71.7.71.71a3.59,3.59,0,0,0,1.1-2.55v0h0a3.62,3.62,0,0,0-3.56-3.56h0a3.55,3.55,0,0,0-2.55,1.1,3.61,3.61,0,0,0-1.11,2.59,3.58,3.58,0,0,0,3.57,3.58,3.66,3.66,0,0,0,2.6-1.12Z" transform="translate(-45.15 -1.17)"/><path class="cls-6" d="M121.14,213.35a2.63,2.63,0,0,1-1.89.82,2.56,2.56,0,0,1-2.57-2.58,2.56,2.56,0,0,1,.82-1.88,2.5,2.5,0,0,1,1.87-.81,2.55,2.55,0,0,1,1.82.78,2.42,2.42,0,0,1,.75,1.79A2.53,2.53,0,0,1,121.14,213.35Z" transform="translate(-45.15 -1.17)"/><path class="cls-7" d="M121.14,213.35l-.71-.71a1.58,1.58,0,0,1-1.18.53,1.43,1.43,0,0,1-1.1-.45,1.47,1.47,0,0,1-.47-1.13,1.56,1.56,0,0,1,.52-1.18,1.54,1.54,0,0,1,1.14-.51h0a1.62,1.62,0,0,1,1.59,1.58h0v0a1.56,1.56,0,0,1-.52,1.14l.71.71.7.7a3.51,3.51,0,0,0,1.1-2.55v0h0a3.6,3.6,0,0,0-3.55-3.56h0a3.55,3.55,0,0,0-2.55,1.1,3.61,3.61,0,0,0-1.11,2.59,3.58,3.58,0,0,0,3.57,3.58,3.58,3.58,0,0,0,2.59-1.12Z" transform="translate(-45.15 -1.17)"/><path class="cls-6" d="M119.18,203.26a2.59,2.59,0,0,1-1.89.82,2.56,2.56,0,0,1-2.57-2.57,2.59,2.59,0,0,1,.82-1.89,2.54,2.54,0,0,1,3.69,0,2.46,2.46,0,0,1,.76,1.79A2.56,2.56,0,0,1,119.18,203.26Z" transform="translate(-45.15 -1.17)"/><path class="cls-7" d="M119.18,203.26l-.71-.71a1.58,1.58,0,0,1-1.18.53,1.43,1.43,0,0,1-1.1-.45,1.47,1.47,0,0,1-.47-1.12,1.57,1.57,0,0,1,.52-1.18,1.54,1.54,0,0,1,1.14-.52h0a1.54,1.54,0,0,1,1.13.49,1.48,1.48,0,0,1,.46,1.1l1,0h-1v0a1.55,1.55,0,0,1-.52,1.13l.71.71.71.7a3.52,3.52,0,0,0,1.09-2.54v0h0a3.5,3.5,0,0,0-1-2.49,3.6,3.6,0,0,0-2.51-1.07h-.05a3.55,3.55,0,0,0-2.55,1.1,3.62,3.62,0,0,0-1.11,2.6,3.53,3.53,0,0,0,1.06,2.54,3.46,3.46,0,0,0,2.51,1,3.58,3.58,0,0,0,2.59-1.12Z" transform="translate(-45.15 -1.17)"/><path class="cls-6" d="M125.12,197.32a2.59,2.59,0,0,1-1.89.82,2.56,2.56,0,0,1-2.57-2.57,2.59,2.59,0,0,1,.82-1.89,2.5,2.5,0,0,1,1.87-.81,2.55,2.55,0,0,1,1.82.78,2.48,2.48,0,0,1,.75,1.8A2.55,2.55,0,0,1,125.12,197.32Z" transform="translate(-45.15 -1.17)"/><path class="cls-7" d="M125.12,197.32l-.71-.71a1.58,1.58,0,0,1-1.18.53,1.46,1.46,0,0,1-1.1-.44,1.51,1.51,0,0,1-.48-1.13,1.58,1.58,0,0,1,.53-1.18,1.52,1.52,0,0,1,1.14-.52h0a1.62,1.62,0,0,1,1.59,1.59h0v0a1.54,1.54,0,0,1-.52,1.13l.71.71.7.71a3.55,3.55,0,0,0,1.1-2.55v0a3.5,3.5,0,0,0-1-2.48,3.58,3.58,0,0,0-2.51-1.08h-.05a3.55,3.55,0,0,0-2.55,1.1,3.62,3.62,0,0,0-1.11,2.6,3.57,3.57,0,0,0,3.57,3.57,3.61,3.61,0,0,0,2.59-1.11Z" transform="translate(-45.15 -1.17)"/><path class="cls-6" d="M131.06,191.38a2.59,2.59,0,0,1-1.89.82,2.44,2.44,0,0,1-1.81-.74,2.49,2.49,0,0,1-.76-1.83,2.59,2.59,0,0,1,.82-1.89,2.5,2.5,0,0,1,1.87-.81,2.55,2.55,0,0,1,1.82.78,2.52,2.52,0,0,1,.75,1.8A2.55,2.55,0,0,1,131.06,191.38Z" transform="translate(-45.15 -1.17)"/><path class="cls-7" d="M131.06,191.38l-.71-.71a1.58,1.58,0,0,1-1.18.53,1.46,1.46,0,0,1-1.1-.44,1.51,1.51,0,0,1-.48-1.13,1.58,1.58,0,0,1,.53-1.18,1.52,1.52,0,0,1,1.14-.52h0a1.54,1.54,0,0,1,1.12.49,1.46,1.46,0,0,1,.46,1.1h0v0a1.52,1.52,0,0,1-.51,1.14l.71.7.7.71a3.55,3.55,0,0,0,1.1-2.55v0a3.5,3.5,0,0,0-1-2.48,3.59,3.59,0,0,0-2.52-1.08h0a3.8,3.8,0,0,0-3.66,3.7,3.57,3.57,0,0,0,3.57,3.57,3.61,3.61,0,0,0,2.59-1.11Z" transform="translate(-45.15 -1.17)"/><path class="cls-6" d="M142.93,179.5a2.56,2.56,0,0,1-1.88.82,2.45,2.45,0,0,1-1.81-.73,2.52,2.52,0,0,1-.77-1.84,2.63,2.63,0,0,1,.82-1.89,2.56,2.56,0,0,1,3.7,0,2.54,2.54,0,0,1-.06,3.66Z" transform="translate(-45.15 -1.17)"/><path class="cls-7" d="M142.93,179.5l-.7-.7a1.61,1.61,0,0,1-1.18.53,1.44,1.44,0,0,1-1.1-.45,1.5,1.5,0,0,1-.48-1.13,1.58,1.58,0,0,1,.53-1.18,1.5,1.5,0,0,1,1.13-.51h0a1.51,1.51,0,0,1,1.12.48,1.47,1.47,0,0,1,.46,1.1h0v0a1.54,1.54,0,0,1-.51,1.14l.7.7.71.71a3.55,3.55,0,0,0,1.1-2.55v0h0a3.47,3.47,0,0,0-1.05-2.49,3.51,3.51,0,0,0-2.51-1.07h-.05a3.51,3.51,0,0,0-2.54,1.1,3.58,3.58,0,0,0-1.12,2.59,3.53,3.53,0,0,0,1.06,2.54,3.48,3.48,0,0,0,2.52,1,3.57,3.57,0,0,0,2.59-1.11Z" transform="translate(-45.15 -1.17)"/><path class="cls-6" d="M119.18,191.21a2.59,2.59,0,0,1-1.89.82,2.45,2.45,0,0,1-1.81-.74,2.49,2.49,0,0,1-.76-1.83,2.79,2.79,0,0,1,2.69-2.7,2.55,2.55,0,0,1,1.82.78,2.5,2.5,0,0,1,.76,1.8A2.56,2.56,0,0,1,119.18,191.21Z" transform="translate(-45.15 -1.17)"/><path class="cls-7" d="M119.18,191.21l-.71-.7a1.54,1.54,0,0,1-1.18.52,1.46,1.46,0,0,1-1.1-.44,1.5,1.5,0,0,1-.47-1.13,1.57,1.57,0,0,1,.52-1.18,1.54,1.54,0,0,1,1.14-.52h0a1.58,1.58,0,0,1,1.13.49,1.49,1.49,0,0,1,.46,1.1h0v0a1.57,1.57,0,0,1-.52,1.14l.71.7.71.71a3.54,3.54,0,0,0,1.09-2.55v-.05a3.6,3.6,0,0,0-3.55-3.55h-.05a3.51,3.51,0,0,0-2.55,1.1,3.61,3.61,0,0,0-1.11,2.59,3.53,3.53,0,0,0,1.06,2.54,3.46,3.46,0,0,0,2.51,1,3.61,3.61,0,0,0,2.59-1.11Z" transform="translate(-45.15 -1.17)"/><path class="cls-6" d="M137,173.4a2.6,2.6,0,0,1-1.88.82,2.46,2.46,0,0,1-1.81-.74,2.51,2.51,0,0,1-.77-1.84,2.6,2.6,0,0,1,.82-1.88,2.55,2.55,0,0,1,3.7,0,2.49,2.49,0,0,1,.75,1.79A2.54,2.54,0,0,1,137,173.4Z" transform="translate(-45.15 -1.17)"/><path class="cls-7" d="M137,173.4l-.7-.71a1.6,1.6,0,0,1-1.18.53,1.41,1.41,0,0,1-1.1-.45,1.5,1.5,0,0,1-.48-1.13,1.6,1.6,0,0,1,.53-1.18,1.54,1.54,0,0,1,1.13-.51h0a1.6,1.6,0,0,1,1.58,1.59l1,0h-1v0a1.54,1.54,0,0,1-.51,1.14l.7.71.71.7a3.55,3.55,0,0,0,1.1-2.55v0h0a3.6,3.6,0,0,0-3.56-3.56h-.05a3.55,3.55,0,0,0-2.54,1.1,3.62,3.62,0,0,0-1.12,2.59,3.58,3.58,0,0,0,3.58,3.58,3.58,3.58,0,0,0,2.59-1.12Z" transform="translate(-45.15 -1.17)"/><path class="cls-6" d="M125.12,173.23a2.63,2.63,0,0,1-1.89.82,2.56,2.56,0,0,1-2.57-2.58,2.56,2.56,0,0,1,.82-1.88,2.5,2.5,0,0,1,1.87-.81,2.55,2.55,0,0,1,1.82.78,2.46,2.46,0,0,1,.75,1.79A2.57,2.57,0,0,1,125.12,173.23Z" transform="translate(-45.15 -1.17)"/><path class="cls-7" d="M125.12,173.23l-.71-.71a1.58,1.58,0,0,1-1.18.53,1.43,1.43,0,0,1-1.1-.45,1.48,1.48,0,0,1-.48-1.13,1.61,1.61,0,0,1,.53-1.18,1.54,1.54,0,0,1,1.14-.51h0a1.62,1.62,0,0,1,1.59,1.58h0v0a1.55,1.55,0,0,1-.52,1.13l.71.71.7.7a3.55,3.55,0,0,0,1.1-2.54v0h0a3.6,3.6,0,0,0-3.55-3.56h-.05a3.55,3.55,0,0,0-2.55,1.1,3.61,3.61,0,0,0-1.11,2.59,3.5,3.5,0,0,0,1.06,2.55,3.46,3.46,0,0,0,2.51,1,3.58,3.58,0,0,0,2.59-1.12Z" transform="translate(-45.15 -1.17)"/><path class="cls-6" d="M137,161.35a2.56,2.56,0,0,1-1.88.82,2.47,2.47,0,0,1-1.81-.74,2.5,2.5,0,0,1-.77-1.83,2.63,2.63,0,0,1,.82-1.89,2.55,2.55,0,0,1,3.7,0,2.49,2.49,0,0,1,.75,1.79A2.52,2.52,0,0,1,137,161.35Z" transform="translate(-45.15 -1.17)"/><path class="cls-7" d="M137,161.35l-.7-.71a1.58,1.58,0,0,1-1.18.53,1.42,1.42,0,0,1-1.1-.45,1.48,1.48,0,0,1-.48-1.12,1.58,1.58,0,0,1,.53-1.18,1.52,1.52,0,0,1,1.14-.52h0a1.52,1.52,0,0,1,1.12.49,1.46,1.46,0,0,1,.46,1.1l1,0h-1v0a1.52,1.52,0,0,1-.51,1.13l.7.71.71.7a3.53,3.53,0,0,0,1.1-2.54v0h0a3.5,3.5,0,0,0-1-2.48,3.59,3.59,0,0,0-2.52-1.08h0a3.55,3.55,0,0,0-2.55,1.1,3.63,3.63,0,0,0-1.12,2.6,3.53,3.53,0,0,0,1.06,2.54,3.48,3.48,0,0,0,2.52,1,3.58,3.58,0,0,0,2.59-1.12Z" transform="translate(-45.15 -1.17)"/><path class="cls-6" d="M142.93,155.41a2.56,2.56,0,0,1-1.88.82,2.46,2.46,0,0,1-1.81-.74,2.5,2.5,0,0,1-.77-1.83,2.63,2.63,0,0,1,.82-1.89,2.58,2.58,0,1,1,3.64,3.64Z" transform="translate(-45.15 -1.17)"/><path class="cls-7" d="M142.93,155.41l-.7-.71a1.61,1.61,0,0,1-1.18.53,1.43,1.43,0,0,1-1.1-.44,1.51,1.51,0,0,1-.48-1.13,1.58,1.58,0,0,1,.53-1.18,1.52,1.52,0,0,1,1.13-.52h0a1.52,1.52,0,0,1,1.12.49,1.46,1.46,0,0,1,.46,1.1h0v0a1.52,1.52,0,0,1-.51,1.13l.7.71.71.71a3.57,3.57,0,0,0,1.1-2.55v0a3.47,3.47,0,0,0-1.05-2.48,3.55,3.55,0,0,0-2.51-1.08h-.05a3.55,3.55,0,0,0-2.54,1.1,3.6,3.6,0,0,0-1.12,2.6,3.53,3.53,0,0,0,1.06,2.54,3.48,3.48,0,0,0,2.52,1,3.61,3.61,0,0,0,2.59-1.11Z" transform="translate(-45.15 -1.17)"/><path class="cls-6" d="M142.85,203.17A2.61,2.61,0,0,1,141,204a2.56,2.56,0,0,1-2.57-2.58,2.59,2.59,0,0,1,.82-1.89,2.55,2.55,0,0,1,3.69,0,2.46,2.46,0,0,1,.76,1.79A2.5,2.5,0,0,1,142.85,203.17Z" transform="translate(-45.15 -1.17)"/><path class="cls-7" d="M142.85,203.17l-.71-.7A1.58,1.58,0,0,1,141,203a1.47,1.47,0,0,1-1.1-.45,1.49,1.49,0,0,1-.47-1.13,1.58,1.58,0,0,1,.53-1.18,1.49,1.49,0,0,1,1.13-.51h0a1.53,1.53,0,0,1,1.13.48,1.51,1.51,0,0,1,.46,1.1h0v0a1.52,1.52,0,0,1-.52,1.13l.71.7.71.71a3.54,3.54,0,0,0,1.09-2.54v0h0a3.46,3.46,0,0,0-1-2.49,3.51,3.51,0,0,0-2.51-1.07h0a3.55,3.55,0,0,0-2.55,1.1,3.61,3.61,0,0,0-1.11,2.59A3.57,3.57,0,0,0,141,205a3.61,3.61,0,0,0,2.6-1.11Z" transform="translate(-45.15 -1.17)"/><path class="cls-6" d="M148.79,197.24a2.63,2.63,0,0,1-1.89.82,2.56,2.56,0,0,1-2.57-2.58,2.56,2.56,0,0,1,.82-1.88,2.5,2.5,0,0,1,1.87-.81,2.55,2.55,0,0,1,1.82.78,2.46,2.46,0,0,1,.76,1.79A2.62,2.62,0,0,1,148.79,197.24Z" transform="translate(-45.15 -1.17)"/><path class="cls-7" d="M148.79,197.24l-.71-.71a1.58,1.58,0,0,1-1.18.53,1.43,1.43,0,0,1-1.1-.45,1.49,1.49,0,0,1-.47-1.13,1.77,1.77,0,0,1,1.66-1.69h0a1.53,1.53,0,0,1,1.13.48,1.51,1.51,0,0,1,.46,1.1h0v0a1.56,1.56,0,0,1-.52,1.14l.71.71.7.7a3.51,3.51,0,0,0,1.1-2.55v0h0a3.48,3.48,0,0,0-1-2.49,3.53,3.53,0,0,0-2.51-1.07h0a3.55,3.55,0,0,0-2.55,1.1,3.61,3.61,0,0,0-1.11,2.59,3.5,3.5,0,0,0,1.06,2.54,3.43,3.43,0,0,0,2.51,1,3.62,3.62,0,0,0,2.59-1.12Z" transform="translate(-45.15 -1.17)"/><path class="cls-6" d="M154.73,191.3a2.63,2.63,0,0,1-1.89.82,2.56,2.56,0,0,1-2.57-2.57,2.56,2.56,0,0,1,.82-1.89,2.5,2.5,0,0,1,1.87-.81,2.55,2.55,0,0,1,1.82.78,2.49,2.49,0,0,1,.75,1.79A2.57,2.57,0,0,1,154.73,191.3Z" transform="translate(-45.15 -1.17)"/><path class="cls-7" d="M154.73,191.3l-.71-.71a1.58,1.58,0,0,1-1.18.53,1.43,1.43,0,0,1-1.1-.45,1.48,1.48,0,0,1-.48-1.12,1.62,1.62,0,0,1,.53-1.19,1.54,1.54,0,0,1,1.14-.51h0a1.47,1.47,0,0,1,1.12.49,1.44,1.44,0,0,1,.46,1.1l1,0h-1v0a1.5,1.5,0,0,1-.51,1.13l.71.71.7.7a3.51,3.51,0,0,0,1.1-2.54v0h0a3.54,3.54,0,0,0-1-2.49,3.58,3.58,0,0,0-2.52-1.07h0a3.55,3.55,0,0,0-2.55,1.1,3.62,3.62,0,0,0-1.11,2.6,3.58,3.58,0,0,0,3.57,3.57,3.58,3.58,0,0,0,2.59-1.12Z" transform="translate(-45.15 -1.17)"/><path class="cls-6" d="M187.86,131.35a2.39,2.39,0,0,1-1.74.75,2.23,2.23,0,0,1-1.66-.68,2.3,2.3,0,0,1-.71-1.69,2.39,2.39,0,0,1,.76-1.73,2.31,2.31,0,0,1,1.73-.75,2.34,2.34,0,0,1,1.67.72,2.27,2.27,0,0,1,.7,1.65A2.36,2.36,0,0,1,187.86,131.35Z" transform="translate(-45.15 -1.17)"/><path class="cls-7" d="M187.86,131.35l-.7-.71a1.4,1.4,0,0,1-1,.47,1.27,1.27,0,0,1-1-.39,1.32,1.32,0,0,1-.42-1,1.38,1.38,0,0,1,.47-1,1.32,1.32,0,0,1,1-.45h0a1.34,1.34,0,0,1,1,.43,1.3,1.3,0,0,1,.4,1l1,0h-1v0a1.3,1.3,0,0,1-.46,1h0l.7.71.71.7a3.31,3.31,0,0,0,1-2.4h0v0h0a3.3,3.3,0,0,0-1-2.35,3.4,3.4,0,0,0-2.37-1h-.05a3.35,3.35,0,0,0-2.4,1,3.45,3.45,0,0,0-1.05,2.44,3.33,3.33,0,0,0,1,2.4,3.29,3.29,0,0,0,2.37,1,3.38,3.38,0,0,0,2.45-1h0Z" transform="translate(-45.15 -1.17)"/><path class="cls-6" d="M193.33,125.88a2.39,2.39,0,0,1-1.74.75,2.23,2.23,0,0,1-1.66-.68,2.3,2.3,0,0,1-.71-1.69,2.39,2.39,0,0,1,.76-1.73,2.31,2.31,0,0,1,1.73-.75,2.34,2.34,0,0,1,1.67.72,2.27,2.27,0,0,1,.7,1.65A2.36,2.36,0,0,1,193.33,125.88Z" transform="translate(-45.15 -1.17)"/><path class="cls-7" d="M193.33,125.88l-.7-.71a1.39,1.39,0,0,1-1,.47,1.27,1.27,0,0,1-1-.39,1.32,1.32,0,0,1-.42-1,1.38,1.38,0,0,1,.47-1,1.32,1.32,0,0,1,1-.45h0a1.34,1.34,0,0,1,1,.43,1.3,1.3,0,0,1,.4,1l1,0h-1v0a1.3,1.3,0,0,1-.46,1l.71.71.71.7a3.32,3.32,0,0,0,1-2.4h0v0h0a3.35,3.35,0,0,0-1-2.35,3.4,3.4,0,0,0-2.37-1h-.05a3.35,3.35,0,0,0-2.4,1,3.4,3.4,0,0,0-1,2.44,3.35,3.35,0,0,0,3.36,3.37,3.38,3.38,0,0,0,2.45-1Z" transform="translate(-45.15 -1.17)"/><path class="cls-6" d="M237.92,81.29a2.4,2.4,0,0,1-1.74.76,2.27,2.27,0,0,1-1.66-.68,2.32,2.32,0,0,1-.71-1.69A2.43,2.43,0,0,1,238,77.91a2.29,2.29,0,0,1,.69,1.65A2.33,2.33,0,0,1,237.92,81.29Z" transform="translate(-45.15 -1.17)"/><path class="cls-7" d="M237.92,81.29l-.71-.71a1.38,1.38,0,0,1-1,.47,1.25,1.25,0,0,1-1-.39,1.29,1.29,0,0,1-.41-1,1.41,1.41,0,0,1,.46-1,1.34,1.34,0,0,1,1-.45h0a1.44,1.44,0,0,1,1.39,1.39l1,0h-1v0a1.38,1.38,0,0,1-.46,1l.71.7.71.71a3.34,3.34,0,0,0,1-2.41h0v0h0a3.4,3.4,0,0,0-3.35-3.35h-.05a3.57,3.57,0,0,0-3.45,3.49,3.33,3.33,0,0,0,1,2.39,3.29,3.29,0,0,0,2.37,1,3.46,3.46,0,0,0,2.45-1Z" transform="translate(-45.15 -1.17)"/><path class="cls-6" d="M209.74,109.47a2.39,2.39,0,0,1-1.74.75,2.23,2.23,0,0,1-1.66-.68,2.3,2.3,0,0,1-.71-1.69,2.43,2.43,0,0,1,.76-1.74,2.34,2.34,0,0,1,3.4,0,2.27,2.27,0,0,1,.7,1.65A2.32,2.32,0,0,1,209.74,109.47Z" transform="translate(-45.15 -1.17)"/><path class="cls-7" d="M209.74,109.47l-.7-.71a1.39,1.39,0,0,1-1,.47,1.27,1.27,0,0,1-.95-.39,1.32,1.32,0,0,1-.42-1,1.38,1.38,0,0,1,.47-1,1.32,1.32,0,0,1,1-.45h0a1.31,1.31,0,0,1,1,.43,1.29,1.29,0,0,1,.4,1h0v0a1.33,1.33,0,0,1-.45,1h0l.7.71.71.7a3.31,3.31,0,0,0,1-2.4h0v0h0a3.35,3.35,0,0,0-1-2.35,3.4,3.4,0,0,0-2.37-1h0a3.35,3.35,0,0,0-2.4,1,3.4,3.4,0,0,0-1,2.44,3.35,3.35,0,0,0,3.36,3.37,3.38,3.38,0,0,0,2.45-1h0Z" transform="translate(-45.15 -1.17)"/><path class="cls-6" d="M237.82,104a2.42,2.42,0,0,1-1.74.75,2.26,2.26,0,0,1-1.67-.68,2.3,2.3,0,0,1-.7-1.69,2.39,2.39,0,0,1,.76-1.74,2.31,2.31,0,0,1,1.72-.74,2.35,2.35,0,0,1,1.68.72,2.3,2.3,0,0,1,.69,1.65A2.35,2.35,0,0,1,237.82,104Z" transform="translate(-45.15 -1.17)"/><path class="cls-7" d="M237.82,104l-.71-.71a1.38,1.38,0,0,1-1,.47,1.27,1.27,0,0,1-1-.39,1.31,1.31,0,0,1-.41-1,1.37,1.37,0,0,1,.46-1,1.34,1.34,0,0,1,1-.45h0a1.3,1.3,0,0,1,1,.43,1.25,1.25,0,0,1,.4,1h0v0a1.33,1.33,0,0,1-.45,1l.71.71.71.7a3.35,3.35,0,0,0,1-2.4h0v0h0a3.34,3.34,0,0,0-1-2.35,3.4,3.4,0,0,0-2.38-1h0a3.33,3.33,0,0,0-2.4,1,3.41,3.41,0,0,0-1,2.44,3.33,3.33,0,0,0,1,2.4,3.28,3.28,0,0,0,2.37,1,3.34,3.34,0,0,0,2.44-1Z" transform="translate(-45.15 -1.17)"/><path class="cls-6" d="M220.68,98.53a2.39,2.39,0,0,1-1.74.75,2.23,2.23,0,0,1-1.66-.68,2.3,2.3,0,0,1-.71-1.69,2.43,2.43,0,0,1,.76-1.74,2.34,2.34,0,0,1,3.4,0,2.27,2.27,0,0,1,.7,1.65A2.32,2.32,0,0,1,220.68,98.53Z" transform="translate(-45.15 -1.17)"/><path class="cls-7" d="M220.68,98.53l-.7-.71a1.34,1.34,0,0,1-1,.46,1.26,1.26,0,0,1-.95-.38,1.32,1.32,0,0,1-.42-1,1.38,1.38,0,0,1,.47-1,1.32,1.32,0,0,1,1-.45h0a1.31,1.31,0,0,1,1,.43,1.29,1.29,0,0,1,.4,1h0v0a1.33,1.33,0,0,1-.45,1h0l.7.71.71.7a3.35,3.35,0,0,0,1-2.4h0v0h0a3.42,3.42,0,0,0-3.36-3.36h0a3.35,3.35,0,0,0-2.4,1,3.4,3.4,0,0,0-1,2.44,3.35,3.35,0,0,0,3.36,3.37,3.41,3.41,0,0,0,2.45-1h0Z" transform="translate(-45.15 -1.17)"/><path class="cls-6" d="M176.69,131.43a2.42,2.42,0,0,1-1.74.75,2.22,2.22,0,0,1-1.66-.68,2.27,2.27,0,0,1-.71-1.69,2.39,2.39,0,0,1,.76-1.74,2.34,2.34,0,0,1,3.4,0,2.3,2.3,0,0,1,.69,1.65A2.35,2.35,0,0,1,176.69,131.43Z" transform="translate(-45.15 -1.17)"/><path class="cls-7" d="M176.69,131.43l-.71-.71a1.37,1.37,0,0,1-1,.46,1.27,1.27,0,0,1-1-.38,1.31,1.31,0,0,1-.41-1,1.41,1.41,0,0,1,.46-1,1.34,1.34,0,0,1,1-.45h0a1.29,1.29,0,0,1,1,.43,1.25,1.25,0,0,1,.4,1h0v0a1.33,1.33,0,0,1-.45,1h0l.71.71.71.7a3.36,3.36,0,0,0,1-2.4h0v0h0a3.31,3.31,0,0,0-1-2.35,3.35,3.35,0,0,0-2.36-1H175a3.35,3.35,0,0,0-2.4,1,3.41,3.41,0,0,0-1,2.44,3.33,3.33,0,0,0,1,2.4,3.28,3.28,0,0,0,2.37,1,3.38,3.38,0,0,0,2.44-1.05h0Z" transform="translate(-45.15 -1.17)"/><path class="cls-6" d="M148.25,126a2.39,2.39,0,0,1-1.74.75,2.23,2.23,0,0,1-1.66-.68,2.3,2.3,0,0,1-.71-1.69,2.43,2.43,0,0,1,.76-1.74,2.34,2.34,0,0,1,3.4,0,2.27,2.27,0,0,1,.7,1.65A2.36,2.36,0,0,1,148.25,126Z" transform="translate(-45.15 -1.17)"/><path class="cls-7" d="M148.25,126l-.7-.71a1.39,1.39,0,0,1-1,.46,1.26,1.26,0,0,1-.95-.38,1.32,1.32,0,0,1-.42-1,1.38,1.38,0,0,1,.47-1,1.32,1.32,0,0,1,1-.45h0a1.4,1.4,0,0,1,1.39,1.38h0v0a1.33,1.33,0,0,1-.45,1l.7.71.71.7a3.32,3.32,0,0,0,1-2.4v0h0a3.4,3.4,0,0,0-3.35-3.36h0a3.35,3.35,0,0,0-2.4,1,3.39,3.39,0,0,0-1.05,2.44,3.33,3.33,0,0,0,1,2.4,3.29,3.29,0,0,0,2.37,1,3.41,3.41,0,0,0,2.45-1Z" transform="translate(-45.15 -1.17)"/><path class="cls-6" d="M187.63,120.49a2.4,2.4,0,0,1-1.74.75,2.22,2.22,0,0,1-1.66-.68,2.3,2.3,0,0,1-.71-1.69,2.39,2.39,0,0,1,.76-1.74,2.34,2.34,0,0,1,3.4,0,2.3,2.3,0,0,1,.69,1.65A2.35,2.35,0,0,1,187.63,120.49Z" transform="translate(-45.15 -1.17)"/><path class="cls-7" d="M187.63,120.49l-.71-.71a1.37,1.37,0,0,1-1,.46,1.27,1.27,0,0,1-1-.38,1.31,1.31,0,0,1-.41-1,1.41,1.41,0,0,1,.46-1,1.34,1.34,0,0,1,1-.45h0a1.31,1.31,0,0,1,1,.42,1.29,1.29,0,0,1,.4,1h0v0a1.33,1.33,0,0,1-.45,1h0l.71.71.71.7a3.36,3.36,0,0,0,1-2.4h0v0h0a3.34,3.34,0,0,0-1-2.35,3.39,3.39,0,0,0-2.37-1H186a3.35,3.35,0,0,0-2.4,1,3.41,3.41,0,0,0-1,2.44,3.33,3.33,0,0,0,1,2.4,3.28,3.28,0,0,0,2.37,1,3.38,3.38,0,0,0,2.44-1h0Z" transform="translate(-45.15 -1.17)"/><path class="cls-6" d="M198.75,143.27A2.36,2.36,0,0,1,197,144a2.26,2.26,0,0,1-1.66-.68,2.32,2.32,0,0,1-.71-1.69,2.43,2.43,0,0,1,4.16-1.77,2.36,2.36,0,0,1-.05,3.38Z" transform="translate(-45.15 -1.17)"/><path class="cls-7" d="M198.75,143.27l-.71-.71a1.38,1.38,0,0,1-1,.47,1.24,1.24,0,0,1-1-.39,1.29,1.29,0,0,1-.41-1,1.39,1.39,0,0,1,.46-1,1.32,1.32,0,0,1,1-.46h0a1.34,1.34,0,0,1,1,.43,1.26,1.26,0,0,1,.4,1l1,0h-1v0a1.32,1.32,0,0,1-.45,1h0l.71.71.71.71a3.38,3.38,0,0,0,1-2.4h0v-.05h0a3.3,3.3,0,0,0-1-2.34,3.35,3.35,0,0,0-2.37-1h0a3.34,3.34,0,0,0-2.4,1,3.41,3.41,0,0,0-1.05,2.45,3.31,3.31,0,0,0,1,2.39,3.25,3.25,0,0,0,2.37,1,3.41,3.41,0,0,0,2.45-1.05h0Z" transform="translate(-45.15 -1.17)"/><path class="cls-6" d="M198.57,109.55a2.42,2.42,0,0,1-1.74.75,2.22,2.22,0,0,1-1.66-.68,2.3,2.3,0,0,1-.71-1.69,2.39,2.39,0,0,1,.76-1.74,2.34,2.34,0,0,1,3.4,0,2.3,2.3,0,0,1,.69,1.65A2.35,2.35,0,0,1,198.57,109.55Z" transform="translate(-45.15 -1.17)"/><path class="cls-7" d="M198.57,109.55l-.71-.71a1.37,1.37,0,0,1-1,.46,1.27,1.27,0,0,1-1-.38,1.31,1.31,0,0,1-.41-1,1.41,1.41,0,0,1,.46-1,1.34,1.34,0,0,1,1-.45h0a1.31,1.31,0,0,1,1,.42,1.29,1.29,0,0,1,.4,1h0v0a1.34,1.34,0,0,1-.45,1l.71.71.71.7a3.38,3.38,0,0,0,1-2.4h0v0h0a3.4,3.4,0,0,0-3.35-3.36h-.05a3.35,3.35,0,0,0-2.4,1,3.39,3.39,0,0,0-1,2.44,3.33,3.33,0,0,0,1,2.4,3.28,3.28,0,0,0,2.37,1,3.38,3.38,0,0,0,2.44-1Z" transform="translate(-45.15 -1.17)"/><path class="cls-6" d="M164.48,109.73a2.39,2.39,0,0,1-1.74.75,2.23,2.23,0,0,1-1.66-.68,2.3,2.3,0,0,1-.71-1.69,2.39,2.39,0,0,1,.76-1.74,2.34,2.34,0,0,1,3.4,0,2.27,2.27,0,0,1,.7,1.65A2.36,2.36,0,0,1,164.48,109.73Z" transform="translate(-45.15 -1.17)"/><path class="cls-7" d="M164.48,109.73l-.7-.71a1.37,1.37,0,0,1-1,.46,1.28,1.28,0,0,1-1-.38,1.34,1.34,0,0,1-.41-1,1.38,1.38,0,0,1,.47-1,1.32,1.32,0,0,1,1-.45h0a1.31,1.31,0,0,1,1,.43,1.29,1.29,0,0,1,.4,1h0v0a1.3,1.3,0,0,1-.46,1l.71.71.71.7a3.32,3.32,0,0,0,1-2.4v0h0a3.34,3.34,0,0,0-1-2.35,3.37,3.37,0,0,0-2.37-1h-.05a3.35,3.35,0,0,0-2.4,1,3.41,3.41,0,0,0-1,2.44,3.33,3.33,0,0,0,1,2.4,3.29,3.29,0,0,0,2.37,1,3.38,3.38,0,0,0,2.45-1Z" transform="translate(-45.15 -1.17)"/><path class="cls-6" d="M209.51,98.61a2.39,2.39,0,0,1-1.74.75,2.26,2.26,0,0,1-1.66-.68A2.3,2.3,0,0,1,205.4,97a2.39,2.39,0,0,1,.76-1.74,2.34,2.34,0,0,1,3.4,0,2.3,2.3,0,0,1,.69,1.65A2.35,2.35,0,0,1,209.51,98.61Z" transform="translate(-45.15 -1.17)"/><path class="cls-7" d="M209.51,98.61l-.71-.71a1.37,1.37,0,0,1-1,.46,1.28,1.28,0,0,1-1-.38,1.31,1.31,0,0,1-.41-1,1.41,1.41,0,0,1,.46-1,1.34,1.34,0,0,1,1-.45h0a1.4,1.4,0,0,1,1.38,1.38h0v0a1.31,1.31,0,0,1-.45,1l.71.71.71.7a3.34,3.34,0,0,0,1-2.4h0v0h0a3.4,3.4,0,0,0-3.35-3.36h-.05a3.35,3.35,0,0,0-2.4,1,3.39,3.39,0,0,0-1,2.44,3.33,3.33,0,0,0,1,2.4,3.28,3.28,0,0,0,2.37,1,3.41,3.41,0,0,0,2.45-1Z" transform="translate(-45.15 -1.17)"/><path class="cls-6" d="M176.69,120.33a2.43,2.43,0,0,1-1.74.76,2.26,2.26,0,0,1-1.66-.68,2.28,2.28,0,0,1-.71-1.69,2.43,2.43,0,0,1,4.16-1.77,2.36,2.36,0,0,1-.05,3.38Z" transform="translate(-45.15 -1.17)"/><path class="cls-7" d="M176.69,120.33l-.71-.71a1.38,1.38,0,0,1-1,.47,1.37,1.37,0,0,1-1.37-1.37,1.41,1.41,0,0,1,.46-1,1.34,1.34,0,0,1,1-.45h0a1.32,1.32,0,0,1,1,.43,1.26,1.26,0,0,1,.4,1l1,0h-1v0a1.33,1.33,0,0,1-.45,1l.71.71.71.71a3.4,3.4,0,0,0,1-2.41h0v0h0a3.27,3.27,0,0,0-1-2.34,3.31,3.31,0,0,0-2.36-1H175a3.57,3.57,0,0,0-3.45,3.49,3.38,3.38,0,0,0,3.37,3.37,3.43,3.43,0,0,0,2.44-1Z" transform="translate(-45.15 -1.17)"/><path class="cls-6" d="M182.16,83a2.39,2.39,0,0,1-1.74.76,2.37,2.37,0,0,1-2.37-2.37,2.36,2.36,0,0,1,.76-1.74A2.37,2.37,0,1,1,182.16,83Z" transform="translate(-45.15 -1.17)"/><path class="cls-7" d="M182.16,83l-.71-.7a1.41,1.41,0,0,1-1,.46,1.24,1.24,0,0,1-1-.39,1.29,1.29,0,0,1-.41-1,1.41,1.41,0,0,1,.46-1,1.31,1.31,0,0,1,1-.45h0a1.31,1.31,0,0,1,1,.42,1.28,1.28,0,0,1,.4,1h0v0a1.36,1.36,0,0,1-.45,1h0l.71.7.71.71a3.38,3.38,0,0,0,1-2.4h0v-.06a3.42,3.42,0,0,0-3.35-3.35h-.05a3.34,3.34,0,0,0-2.4,1,3.41,3.41,0,0,0-1,2.45,3.33,3.33,0,0,0,1,2.4,3.28,3.28,0,0,0,2.37,1,3.38,3.38,0,0,0,2.44-1h0Z" transform="translate(-45.15 -1.17)"/><path class="cls-6" d="M187.63,109.39a2.43,2.43,0,0,1-1.74.76,2.26,2.26,0,0,1-1.66-.68,2.32,2.32,0,0,1-.71-1.69,2.43,2.43,0,0,1,4.16-1.77,2.36,2.36,0,0,1-.05,3.38Z" transform="translate(-45.15 -1.17)"/><path class="cls-7" d="M187.63,109.39l-.71-.71a1.38,1.38,0,0,1-1,.47,1.37,1.37,0,0,1-1.37-1.37,1.41,1.41,0,0,1,.46-1,1.34,1.34,0,0,1,1-.45h0a1.32,1.32,0,0,1,1,.43,1.26,1.26,0,0,1,.4,1l1,0h-1v0a1.33,1.33,0,0,1-.45,1l.71.71.71.71a3.4,3.4,0,0,0,1-2.41h0v0h0a3.3,3.3,0,0,0-1-2.34,3.4,3.4,0,0,0-2.37-1H186a3.57,3.57,0,0,0-3.45,3.49,3.33,3.33,0,0,0,1,2.39,3.29,3.29,0,0,0,2.37,1,3.42,3.42,0,0,0,2.44-1.05Z" transform="translate(-45.15 -1.17)"/><path class="cls-6" d="M236.49,60.53a2.39,2.39,0,0,1-1.74.75,2.23,2.23,0,0,1-1.66-.68,2.3,2.3,0,0,1-.71-1.69,2.35,2.35,0,0,1,.76-1.73,2.3,2.3,0,0,1,1.72-.75,2.35,2.35,0,0,1,1.68.72,2.26,2.26,0,0,1,.69,1.65A2.35,2.35,0,0,1,236.49,60.53Z" transform="translate(-45.15 -1.17)"/><path class="cls-7" d="M236.49,60.53l-.71-.71a1.37,1.37,0,0,1-1,.47,1.29,1.29,0,0,1-1-.39,1.31,1.31,0,0,1-.41-1,1.41,1.41,0,0,1,.46-1,1.34,1.34,0,0,1,1-.45h0a1.31,1.31,0,0,1,1,.43,1.28,1.28,0,0,1,.39,1h0v0a1.29,1.29,0,0,1-.45,1l.71.71.71.7a3.35,3.35,0,0,0,1-2.4h0v0h0a3.34,3.34,0,0,0-1-2.35,3.42,3.42,0,0,0-2.37-1l0,1,0-1h-.06a3.35,3.35,0,0,0-2.4,1,3.41,3.41,0,0,0-1.05,2.44,3.33,3.33,0,0,0,1,2.4,3.29,3.29,0,0,0,2.37,1,3.38,3.38,0,0,0,2.45-1.05Z" transform="translate(-45.15 -1.17)"/><path class="cls-6" d="M215.52,58.89a2.36,2.36,0,0,1-1.74.76,2.27,2.27,0,0,1-1.66-.68,2.32,2.32,0,0,1-.71-1.69,2.4,2.4,0,0,1,.76-1.74,2.33,2.33,0,0,1,1.73-.74,2.41,2.41,0,0,1,2.37,2.37A2.34,2.34,0,0,1,215.52,58.89Z" transform="translate(-45.15 -1.17)"/><path class="cls-7" d="M215.52,58.89l-.7-.7a1.41,1.41,0,0,1-1,.46,1.25,1.25,0,0,1-1-.39,1.32,1.32,0,0,1-.41-1,1.37,1.37,0,0,1,.47-1,1.3,1.3,0,0,1,1-.46h0a1.38,1.38,0,0,1,1,.43,1.3,1.3,0,0,1,.4,1h0v0a1.33,1.33,0,0,1-.46,1l.71.7.71.71a3.34,3.34,0,0,0,1-2.4h0v-.06a3.28,3.28,0,0,0-1-2.34,3.32,3.32,0,0,0-2.37-1v1l0-1h-.06a3.34,3.34,0,0,0-2.4,1,3.46,3.46,0,0,0-1.05,2.45,3.38,3.38,0,0,0,3.37,3.37,3.41,3.41,0,0,0,2.45-1Z" transform="translate(-45.15 -1.17)"/><path class="cls-6" d="M209.51,87.51a2.4,2.4,0,0,1-1.74.76,2.26,2.26,0,0,1-1.66-.68,2.37,2.37,0,0,1,0-3.43,2.3,2.3,0,0,1,1.72-.75,2.38,2.38,0,0,1,1.63,4.1Z" transform="translate(-45.15 -1.17)"/><path class="cls-7" d="M209.51,87.51l-.71-.71a1.38,1.38,0,0,1-1,.47,1.37,1.37,0,0,1-1.37-1.37,1.41,1.41,0,0,1,.46-1,1.34,1.34,0,0,1,1-.45h0a1.31,1.31,0,0,1,1,.43,1.26,1.26,0,0,1,.4,1l1,0h-1v0a1.29,1.29,0,0,1-.45,1l.71.71.71.7a3.32,3.32,0,0,0,1-2.4h0v0h0a3.3,3.3,0,0,0-1-2.34,3.4,3.4,0,0,0-2.37-1h-.05a3.35,3.35,0,0,0-2.4,1,3.41,3.41,0,0,0-1,2.45,3.33,3.33,0,0,0,1,2.39,3.28,3.28,0,0,0,2.37,1,3.4,3.4,0,0,0,2.45-1Z" transform="translate(-45.15 -1.17)"/><path class="cls-6" d="M238.31,47.61a2.39,2.39,0,0,1-1.74.76A2.36,2.36,0,0,1,234.2,46a2.39,2.39,0,0,1,.76-1.74,2.31,2.31,0,0,1,1.72-.74,2.35,2.35,0,0,1,1.68.72,2.34,2.34,0,0,1-.05,3.37Z" transform="translate(-45.15 -1.17)"/><path class="cls-7" d="M238.31,47.61l-.71-.7a1.37,1.37,0,0,1-1,.46,1.24,1.24,0,0,1-1-.39,1.27,1.27,0,0,1-.41-1,1.37,1.37,0,0,1,.46-1,1.34,1.34,0,0,1,1-.45h0a1.33,1.33,0,0,1,1,.42,1.28,1.28,0,0,1,.4,1h0v0a1.34,1.34,0,0,1-.45,1h0l.71.7.71.71a3.38,3.38,0,0,0,1-2.4h0v-.06a3.42,3.42,0,0,0-3.36-3.35v1l0-1h-.06a3.33,3.33,0,0,0-2.4,1A3.38,3.38,0,0,0,233.2,46a3.33,3.33,0,0,0,1,2.4,3.28,3.28,0,0,0,2.37,1,3.38,3.38,0,0,0,2.44-1h0Z" transform="translate(-45.15 -1.17)"/><path class="cls-6" d="M204,81.88a2.38,2.38,0,0,1-1.74.76,2.26,2.26,0,0,1-1.66-.68,2.3,2.3,0,0,1-.71-1.69,2.36,2.36,0,0,1,.76-1.74,2.34,2.34,0,0,1,3.4,0,2.3,2.3,0,0,1,.69,1.65A2.33,2.33,0,0,1,204,81.88Z" transform="translate(-45.15 -1.17)"/><path class="cls-7" d="M204,81.88l-.71-.7a1.41,1.41,0,0,1-1,.46,1.24,1.24,0,0,1-1-.39,1.29,1.29,0,0,1-.41-1,1.41,1.41,0,0,1,.46-1,1.31,1.31,0,0,1,1-.45h0a1.3,1.3,0,0,1,1,.42,1.28,1.28,0,0,1,.4,1h0v0a1.34,1.34,0,0,1-.45,1h0l.71.7.71.71a3.38,3.38,0,0,0,1-2.4h0v-.06a3.42,3.42,0,0,0-3.35-3.35h-.05a3.34,3.34,0,0,0-2.4,1,3.41,3.41,0,0,0-1,2.45,3.33,3.33,0,0,0,1,2.4,3.28,3.28,0,0,0,2.37,1,3.41,3.41,0,0,0,2.45-1h0Z" transform="translate(-45.15 -1.17)"/><path class="cls-6" d="M198.49,131.35a2.4,2.4,0,0,1-1.74.76,2.24,2.24,0,0,1-1.66-.69,2.3,2.3,0,0,1-.71-1.68,2.36,2.36,0,0,1,.76-1.74,2.3,2.3,0,0,1,1.72-.75,2.35,2.35,0,0,1,1.68.72,2.24,2.24,0,0,1,.69,1.65A2.31,2.31,0,0,1,198.49,131.35Z" transform="translate(-45.15 -1.17)"/><path class="cls-7" d="M198.49,131.35l-.7-.71a1.4,1.4,0,0,1-1,.47,1.37,1.37,0,0,1-1.37-1.37,1.41,1.41,0,0,1,.46-1,1.36,1.36,0,0,1,1-.45h0a1.31,1.31,0,0,1,1,.43,1.27,1.27,0,0,1,.41,1l1,0h-1v0a1.34,1.34,0,0,1-.46,1h0l.7.71.71.7a3.3,3.3,0,0,0,1-2.39h0v0h0a3.3,3.3,0,0,0-1-2.35,3.42,3.42,0,0,0-2.37-1h0a3.35,3.35,0,0,0-2.4,1,3.41,3.41,0,0,0-1.05,2.45,3.33,3.33,0,0,0,1,2.39,3.29,3.29,0,0,0,2.37,1,3.4,3.4,0,0,0,2.45-1h0Z" transform="translate(-45.15 -1.17)"/><path class="cls-6" d="M198.31,165.44a2.39,2.39,0,0,1-1.74.75,2.23,2.23,0,0,1-1.66-.68,2.3,2.3,0,0,1-.71-1.69,2.39,2.39,0,0,1,.76-1.74,2.34,2.34,0,0,1,3.4,0,2.26,2.26,0,0,1,.69,1.65A2.35,2.35,0,0,1,198.31,165.44Z" transform="translate(-45.15 -1.17)"/><path class="cls-7" d="M198.31,165.44l-.71-.71a1.37,1.37,0,0,1-1,.46,1.28,1.28,0,0,1-1-.38,1.31,1.31,0,0,1-.41-1,1.41,1.41,0,0,1,.46-1,1.36,1.36,0,0,1,1-.45h0a1.3,1.3,0,0,1,1,.42,1.34,1.34,0,0,1,.41,1h0v0a1.31,1.31,0,0,1-.45,1l.71.71.71.7a3.34,3.34,0,0,0,1-2.4h0v0h0a3.34,3.34,0,0,0-1-2.35,3.37,3.37,0,0,0-2.37-1h0a3.35,3.35,0,0,0-2.4,1,3.41,3.41,0,0,0-1.05,2.44,3.33,3.33,0,0,0,1,2.4,3.28,3.28,0,0,0,2.37,1,3.41,3.41,0,0,0,2.45-1.05Z" transform="translate(-45.15 -1.17)"/><path class="cls-6" d="M209.43,120.41a2.39,2.39,0,0,1-1.74.75,2.23,2.23,0,0,1-1.66-.68,2.3,2.3,0,0,1-.71-1.68,2.36,2.36,0,0,1,.76-1.74,2.31,2.31,0,0,1,1.73-.75,2.34,2.34,0,0,1,1.67.72,2.27,2.27,0,0,1,.7,1.65A2.36,2.36,0,0,1,209.43,120.41Z" transform="translate(-45.15 -1.17)"/><path class="cls-7" d="M209.43,120.41l-.7-.71a1.4,1.4,0,0,1-1,.47,1.25,1.25,0,0,1-.95-.39,1.31,1.31,0,0,1-.42-1,1.39,1.39,0,0,1,.47-1,1.32,1.32,0,0,1,1-.45h0a1.34,1.34,0,0,1,1,.43,1.3,1.3,0,0,1,.4,1l1,0h-1v0a1.34,1.34,0,0,1-.46,1h0l.7.71.71.7a3.31,3.31,0,0,0,1-2.4h0v0h0a3.3,3.3,0,0,0-1-2.35,3.42,3.42,0,0,0-2.37-1h0a3.35,3.35,0,0,0-2.4,1,3.41,3.41,0,0,0-1.05,2.45,3.33,3.33,0,0,0,1,2.39,3.29,3.29,0,0,0,2.37,1,3.4,3.4,0,0,0,2.45-1h0Z" transform="translate(-45.15 -1.17)"/><path class="cls-7" d="M182.45,154.25c-.7,2.38-1.3,4.31-3.37,3s-1.33-3.39-.46-5.81,1.67-4.14,3.36-2.79S183.16,151.86,182.45,154.25Zm3.25,8.54c-.51-.32-1-.66-1.49-1a16.74,16.74,0,0,0,1.29-3.44l.69.3a.57.57,0,0,0,.68-.4.58.58,0,0,0-.2-.78l-.84-.39c.08-.33.16-.65.23-1l.15-.62c.17-.69.33-1.37.48-2l.72.67.07,0a.5.5,0,0,0,.64-.23.67.67,0,0,0-.05-.84c-.37-.33-.73-.68-1.09-1a16.78,16.78,0,0,0,.35-2.71l.55.4h0a.46.46,0,0,0,.66-.22.63.63,0,0,0-.15-.8l-1.12-.82a6.78,6.78,0,0,0-1.29-3.33l.9-.55a.51.51,0,0,0,.14-.7.5.5,0,0,0-.67-.23c-.35.19-.71.41-1.11.65a7.06,7.06,0,0,0-.76-.66,8.52,8.52,0,0,0-1.12-.73c.17-.37.35-.72.53-1a.54.54,0,0,0-.21-.69.45.45,0,0,0-.65.1c-.21.39-.41.81-.61,1.25a3.72,3.72,0,0,0-2.82.23c-.24-.46-.48-.9-.7-1.33a.52.52,0,0,0-.66-.25.49.49,0,0,0-.17.67c.24.46.48.95.74,1.44l-.06,0a10.24,10.24,0,0,0-2,2.81l-1.3-.89h0a.43.43,0,0,0-.62.28.7.7,0,0,0,.2.82l1.2.85c-.32.71-.62,1.44-.88,2.14-.15.37-.29.75-.43,1.13l-.26.69-1.29-.79c-.23-.13-.5.06-.6.44a.92.92,0,0,0,.19.9l0,0c.41.24.8.49,1.2.74a29.39,29.39,0,0,0-1.06,3.95c-.62.05-1.26.1-1.9.17-.24,0-.44.38-.45.8a.82.82,0,0,0,.22.66l.18.05,1.77-.16a9.84,9.84,0,0,0,.08,2.18,5.93,5.93,0,0,0,2.68,4.18l.1.06-.4.64a.86.86,0,0,0,0,.9l.12.11a.37.37,0,0,0,.49-.17l.64-1,.07,0a7.68,7.68,0,0,0,2.78.67c.09.54.18,1,.27,1.48a.46.46,0,0,0,.26.35.4.4,0,0,0,.3,0,.67.67,0,0,0,.35-.73c-.07-.35-.15-.74-.22-1.16a4.64,4.64,0,0,0,2.12-1,6.58,6.58,0,0,0,1-1.05c.49.36,1,.71,1.52,1l.08,0a.64.64,0,0,0,.54-1.08Zm-4-.94c-.95.79-2.41.78-4.32-.1a5.79,5.79,0,0,1-.89-.52,4,4,0,0,1-1.83-2.72c-.26-1.8.66-4.38,1.76-7.27l.45-1.18c2.4-5.7,4.06-7,6.24-5.49l.37.29c2.59,2.13,2.09,4.81.82,10.15l-.15.65C183.55,158.37,182.92,160.86,181.72,161.85Zm-30,1.66c1-1,2-.28,3.15.65s2.22,1.71,1.34,2.71-2,.18-3.29-.73S150.65,164.46,151.69,163.51Zm-6.48-2,.71.06a3.55,3.55,0,0,0-.38,1.61,3.35,3.35,0,0,0,.12.79c-.29.32-.55.62-.8.93a.46.46,0,0,0,.06.66.51.51,0,0,0,.69,0l.5-.55a7.4,7.4,0,0,0,1.31,1.45c-.15.26-.3.51-.43.76a.49.49,0,0,0,.28.65.56.56,0,0,0,.73-.15l.32-.54c.61.46,1.28.92,2,1.39l0,0,.41.27-.26.25c-.18.18-.11.46.17.63a.74.74,0,0,0,.83,0l.27-.24a21.9,21.9,0,0,0,2.82,1.53c-.1.24-.19.48-.28.72s.13.43.46.51.69,0,.77-.2l.26-.59a7.82,7.82,0,0,0,2,.32,5.37,5.37,0,0,0,1-.07l.37.56a.8.8,0,0,0,.79.21c.31-.07.46-.27.34-.45l-.41-.61a4.82,4.82,0,0,0,1.34-.83l.38.16a.69.69,0,0,0,.78-.14.32.32,0,0,0-.09-.49l-.11-.06-.35-.15a3.57,3.57,0,0,0,0-3.85c-.12-.2-.25-.41-.39-.62.24-.17.47-.36.68-.54a.62.62,0,0,0-.08-.85l-.12-.1a.58.58,0,0,0-.72-.07,6.15,6.15,0,0,1-.62.5,18.56,18.56,0,0,0-1.76-1.67c.15-.29.29-.57.41-.85A.75.75,0,0,0,159,161l-.06-.05a.49.49,0,0,0-.76.1c-.11.24-.23.49-.36.73l-.75-.61-1.16-.95c.2-.33.39-.66.56-1a.72.72,0,0,0-.22-.83l0,0a.48.48,0,0,0-.75.06c-.18.33-.37.66-.58,1a9.89,9.89,0,0,0-2.12-1.25l.15-.65.14-.6a.69.69,0,0,0-.19-.64l-.18-.12a.43.43,0,0,0-.62.3l-.16.59-.21.81a4.07,4.07,0,0,0-2.69.53l-.53-.68,0-.05a.42.42,0,0,0-.6,0,.56.56,0,0,0-.06.72l.43.56a9.37,9.37,0,0,0-.92.81,7.5,7.5,0,0,0-.77.89l-1.16-.09a.51.51,0,0,0-.48.47A.41.41,0,0,0,145.21,161.5Zm3.46-.18c2.54-2.39,4.12-1.18,7.21,1.46l1,.81c2.83,2.3,3.87,3.65,2.43,5.63a2.53,2.53,0,0,1-1.93.88c-1.43,0-3.46-1.35-5.76-2.86l0,0a28.15,28.15,0,0,1-2.73-2c-.89-.79-1.31-1.4-1.34-1.93A2.68,2.68,0,0,1,148.67,161.32Zm13.46-25.56c-.15.59-.29,1.07-1,.92s-.66-.68-.54-1.31.22-1.14,1-.9S162.27,135.18,162.13,135.76Zm1.76,1.16a.27.27,0,0,0-.28-.25h-.1c.06-.18.11-.36.16-.53l0-.06,0-.06.11,0a.25.25,0,0,0,.3-.22h0a.27.27,0,0,0-.22-.3h-.07c0-.16.07-.31.1-.46l0-.32.37,0a.26.26,0,0,0,.25-.22v-.05a.28.28,0,0,0-.28-.26l-.38,0a1.74,1.74,0,0,0-.5-.92l.1-.09.1-.16-.06-.21a.27.27,0,0,0-.37,0l-.2.16a4.42,4.42,0,0,0-.87-.41v-.15a.26.26,0,0,0-.26-.27.27.27,0,0,0-.27.25,2,2,0,0,0-1.49.14,1.51,1.51,0,0,0-.38.33l-.35-.29a.27.27,0,0,0-.34.41l.4.33a4.41,4.41,0,0,0-.26.8l-.28-.08a.28.28,0,0,0-.33.19.28.28,0,0,0,.19.33l.32.08,0,.23,0,.21c0,.18-.05.35-.08.52l-.32-.05a.26.26,0,0,0-.3.22.26.26,0,0,0,.22.3l.35.06a4,4,0,0,0,.06,1.06l-.39.17a.26.26,0,0,0-.14.35.27.27,0,0,0,.35.13l.35-.14a1.61,1.61,0,0,0,.17.28,1.75,1.75,0,0,0,.52.45c0,.11-.07.21-.11.31a.28.28,0,0,0,.17.34.28.28,0,0,0,.34-.18l.09-.26a2.85,2.85,0,0,0,.44.09l.36,0,.09.27a.27.27,0,0,0,.34.17.27.27,0,0,0,.18-.21l0-.13,0-.14a1.9,1.9,0,0,0,1-.51l.35,0a.26.26,0,0,0,.28-.23v0a.25.25,0,0,0-.24-.28h0a4.16,4.16,0,0,0,.24-.47h.32a.26.26,0,0,0,.25-.22Zm-3,.72a1.05,1.05,0,0,1-.74-.34,3.32,3.32,0,0,1-.07-2.11l0-.2c.1-.66.23-1.38.55-1.57a1.49,1.49,0,0,1,1.1.09c1.27.46,1.2,1,1.14,1.38a8.92,8.92,0,0,1-.22.9l0,.06C162.25,137.23,162,137.78,160.88,137.64Z" transform="translate(-45.15 -1.17)"/></g><polyline class="cls-8" points="255.47 102.94 255.47 126.63 259.4 126.63 259.4 102.94"/><polyline class="cls-8" points="255.47 142.39 255.47 166.09 259.4 166.09 259.4 142.39"/><polyline class="cls-8" points="225.86 136.48 249.56 136.48 249.56 132.54 225.86 132.54"/><polyline class="cls-8" points="265.31 136.48 289.01 136.48 289.01 132.54 265.31 132.54"/><polyline class="cls-8" points="211.37 102.03 211.37 113.88 215.31 113.88 215.31 102.03"/><polyline class="cls-8" points="211.37 121.76 211.37 133.61 215.31 133.61 215.31 121.76"/><polyline class="cls-8" points="197.55 119.79 209.4 119.79 209.4 115.85 197.55 115.85"/><polyline class="cls-8" points="217.28 119.79 229.13 119.79 229.13 115.85 217.28 115.85"/><polyline class="cls-9" points="168.28 0 168.28 277.08 175.37 277.08 175.37 0"/></g></g></svg>