<svg xmlns="http://www.w3.org/2000/svg" viewBox="0 0 569.03 837.68"><defs><style>.cls-1{fill:#0072b6;}.cls-2{fill:#0273b6;}.cls-3{fill:#0374b7;}.cls-4{fill:#0575b7;}.cls-5{fill:#0776b8;}.cls-6{fill:#0877b8;}.cls-7{fill:#0a77b9;}.cls-8{fill:#0b78b9;}.cls-9{fill:#0d79ba;}.cls-10{fill:#0f7aba;}.cls-11{fill:#107bbb;}.cls-12{fill:#127cbb;}.cls-13{fill:#147dbc;}.cls-14{fill:#157ebc;}.cls-15{fill:#177fbd;}.cls-16{fill:#1980bd;}.cls-17{fill:#1a80bd;}.cls-18{fill:#1c81be;}.cls-19{fill:#1d82be;}.cls-20{fill:#1f83bf;}.cls-21{fill:#2184bf;}.cls-22{fill:#2285c0;}.cls-23{fill:#2486c0;}.cls-24{fill:#2687c1;}.cls-25{fill:#2788c1;}.cls-26{fill:#2989c2;}.cls-27{fill:#2b8ac2;}.cls-28{fill:#2c8ac3;}.cls-29{fill:#2e8bc3;}.cls-30{fill:#2f8cc4;}.cls-31{fill:#318dc4;}.cls-32{fill:#338ec5;}.cls-33{fill:#348fc5;}.cls-34{fill:#3690c5;}.cls-35{fill:#3891c6;}.cls-36{fill:#3992c6;}.cls-37{fill:#3b93c7;}.cls-38{fill:#3c93c7;}.cls-39{fill:#3e94c8;}.cls-40{fill:#4095c8;}.cls-41{fill:#4196c9;}.cls-42{fill:#4397c9;}.cls-43{fill:#4598ca;}.cls-44{fill:#4699ca;}.cls-45{fill:#489acb;}.cls-46{fill:#4a9bcb;}.cls-47{fill:#4b9ccc;}.cls-48{fill:#4d9ccc;}.cls-49{fill:#4e9dcc;}.cls-50{fill:#509ecd;}.cls-51{fill:#529fcd;}.cls-52{fill:#53a0ce;}.cls-53{fill:#55a1ce;}.cls-54{fill:#57a2cf;}.cls-55{fill:#58a3cf;}.cls-56{fill:#5aa4d0;}.cls-57{fill:#5ca5d0;}.cls-58{fill:#5da6d1;}.cls-59{fill:#5fa6d1;}.cls-60{fill:#60a7d2;}.cls-61{fill:#62a8d2;}.cls-62{fill:#64a9d3;}.cls-63{fill:#65aad3;}.cls-64{fill:#67abd3;}.cls-65{fill:#69acd4;}.cls-66{fill:#6aadd4;}.cls-67{fill:#6caed5;}.cls-68{fill:#6eafd5;}.cls-69{fill:#6fafd6;}.cls-70{fill:#71b0d6;}.cls-71{fill:#72b1d7;}.cls-72{fill:#74b2d7;}.cls-73{fill:#76b3d8;}.cls-74{fill:#77b4d8;}.cls-75{fill:#79b5d9;}.cls-76{fill:#7bb6d9;}.cls-77{fill:#7cb7da;}.cls-78{fill:#7eb8da;}.cls-79{fill:#80b9db;}.cls-80{fill:#81b9db;}.cls-81{fill:#83badb;}.cls-82{fill:#84bbdc;}.cls-83{fill:#86bcdc;}.cls-84{fill:#88bddd;}.cls-85{fill:#89bedd;}.cls-86{fill:#8bbfde;}.cls-87{fill:#8dc0de;}.cls-88{fill:#8ec1df;}.cls-89{fill:#90c2df;}.cls-90{fill:#91c2e0;}.cls-91{fill:#93c3e0;}.cls-92{fill:#95c4e1;}.cls-93{fill:#96c5e1;}.cls-94{fill:#98c6e2;}.cls-95{fill:#9ac7e2;}.cls-96{fill:#9bc8e2;}.cls-97{fill:#9dc9e3;}.cls-98{fill:#9fcae3;}.cls-99{fill:#a0cbe4;}.cls-100{fill:#a2cbe4;}.cls-101{fill:#a3cce5;}.cls-102{fill:#a5cde5;}.cls-103{fill:#a7cee6;}.cls-104{fill:#a8cfe6;}.cls-105{fill:#aad0e7;}.cls-106{fill:gray;}.cls-107{fill:#838383;}.cls-108{fill:#868686;}.cls-109{fill:#898989;}.cls-110{fill:#8c8c8c;}.cls-111{fill:#8f8f8f;}.cls-112{fill:#929292;}.cls-113{fill:#959595;}.cls-114{fill:#989898;}.cls-115{fill:#9a9a9a;}.cls-116{fill:#9d9d9d;}.cls-117{fill:#a0a0a0;}.cls-118{fill:#a3a3a3;}.cls-119{fill:#a6a6a6;}.cls-120{fill:#a9a9a9;}.cls-121{fill:#acacac;}.cls-122{fill:#afafaf;}.cls-123{fill:#b2b2b2;}.cls-124{fill:#b5b5b5;}.cls-125{fill:#b8b8b8;}.cls-126{fill:#bbb;}.cls-127{fill:#bebebe;}.cls-128{fill:#c1c1c1;}.cls-129{fill:#c4c4c4;}.cls-130{fill:#c7c7c7;}.cls-131{fill:#c9c9c9;}.cls-132{fill:#ccc;}.cls-133{fill:#cfcfcf;}.cls-134{fill:#d2d2d2;}.cls-135{fill:#d5d5d5;}.cls-136{fill:#d8d8d8;}.cls-137{fill:#dbdbdb;}.cls-138{fill:#dedede;}.cls-139{fill:#2e72af;}</style></defs><g id="Layer_2" data-name="Layer 2"><g id="Layer_1-2" data-name="Layer 1"><path class="cls-1" d="M5.92,417.81A151.83,151.83,0,0,1,26.11,416a28.85,28.85,0,0,1,4.64.29,4.11,4.11,0,0,1,2.45,1,1.68,1.68,0,0,1,.08,1.88c-.38.64-1.77,1.12-3.72,1.4a52.71,52.71,0,0,1-7.1.38c-7.46,0-16-.84-16.44-.91l-.14.1.1.15c.43.07,9,.91,16.48.92a51.62,51.62,0,0,0,7.14-.4c2-.29,3.39-.73,3.89-1.51a1.88,1.88,0,0,0,.29-1,1.91,1.91,0,0,0-.38-1.15A4.28,4.28,0,0,0,30.79,416a30.49,30.49,0,0,0-4.68-.3,156.17,156.17,0,0,0-20.25,1.87l-.09.15.15.1Z"/><path class="cls-2" d="M9.74,415.57c1.09,0,9.4-.87,16.84-.87a50.71,50.71,0,0,1,7.59.45c2.11.32,3.65.87,4.15,1.65a2,2,0,0,1,.34,1.12,1.93,1.93,0,0,1-.24.94A2.88,2.88,0,0,1,37,419.92c-3.23,1.42-10.73,1.72-17,1.72-4.25,0-7.94-.14-9.41-.14H10v.25h.57c1.46,0,5.16.14,9.41.14,6.29,0,13.77-.29,17.1-1.74a3.14,3.14,0,0,0,1.6-1.17,2.31,2.31,0,0,0,.26-1.06,2.25,2.25,0,0,0-.38-1.26c-.61-.9-2.19-1.42-4.32-1.76a51.68,51.68,0,0,0-7.56-.46c-7.45,0-15.79.84-16.84.87v.25Z"/><path class="cls-3" d="M13.63,413.32h.63c1.73,0,5.83-.18,10.45-.18a96.2,96.2,0,0,1,11.76.6c3.52.46,6.26,1.3,7,2.6a2.61,2.61,0,0,1,.35,1.25,2.29,2.29,0,0,1-.23,1,3.16,3.16,0,0,1-1.46,1.22c-3,1.63-9.5,2.32-15.5,2.63-3,.17-5.91.26-8.19.33a42.44,42.44,0,0,0-4.51.24v.24c.53-.1,2.2-.16,4.48-.23,3.42-.11,8.23-.25,12.75-.67s8.75-1.12,11-2.36a3.56,3.56,0,0,0,1.57-1.33,2.62,2.62,0,0,0-.14-2.49c-.89-1.45-3.66-2.24-7.21-2.72a96.69,96.69,0,0,0-11.79-.6c-4.63,0-8.73.18-10.45.18h-.61v.25Z"/><path class="cls-4" d="M17.43,411.08c1.73.2,8.78.09,15.8.6A62,62,0,0,1,43,413c2.79.67,4.87,1.63,5.56,2.91a2.79,2.79,0,0,1,.36,1.38,2.7,2.7,0,0,1-.21,1.05,3.7,3.7,0,0,1-1.45,1.38c-3,1.95-9.63,3-15.84,3.64s-12,.87-13.57,1.23l.06.25c1.47-.36,7.32-.6,13.53-1.23s12.84-1.68,16-3.68a3.89,3.89,0,0,0,1.5-1.51,3,3,0,0,0,.23-1.15,3.16,3.16,0,0,0-.39-1.5c-.78-1.41-2.91-2.35-5.73-3a83.05,83.05,0,0,0-15-1.62c-5-.19-9.33-.17-10.59-.32v.25Z"/><path class="cls-5" d="M21.27,408.84c2.12.31,9.45.46,16.66,1.3a59.56,59.56,0,0,1,10,1.88c2.85.86,5,2,5.73,3.47A3.33,3.33,0,0,1,54,417a3,3,0,0,1-.21,1.11,4,4,0,0,1-1.44,1.54c-3.07,2.3-9.78,3.7-16.18,4.62s-12.49,1.38-14.41,1.89l.06.24c1.87-.49,8-1,14.39-1.89s13.12-2.3,16.29-4.66a4.19,4.19,0,0,0,1.53-1.65,3.51,3.51,0,0,0-.17-2.82c-.82-1.59-3-2.73-5.89-3.6-8.64-2.62-23.61-2.72-26.73-3.19Z"/><path class="cls-6" d="M25.12,406.59c2.49.43,10.11.85,17.53,2A59.5,59.5,0,0,1,52.93,411c2.92,1.05,5.11,2.39,5.9,4.05a3.72,3.72,0,0,1,.38,1.64,3.49,3.49,0,0,1-.2,1.16,4.47,4.47,0,0,1-1.44,1.7c-3.12,2.67-9.93,4.4-16.51,5.6s-13,1.9-15.27,2.54l.07.24c2.27-.63,8.65-1.32,15.24-2.53s13.42-3,16.64-5.66a4.65,4.65,0,0,0,1.51-1.81,3.76,3.76,0,0,0,.21-1.24,4.26,4.26,0,0,0-.4-1.75c-.86-1.77-3.1-3.11-6.05-4.17-8.83-3.18-24.15-3.8-27.85-4.43v.24Z"/><path class="cls-7" d="M29,404.35c2.87.54,10.78,1.22,18.39,2.72A56.66,56.66,0,0,1,57.9,410c3,1.24,5.22,2.76,6.06,4.62a4.38,4.38,0,0,1,.38,1.78,4.06,4.06,0,0,1-.18,1.2,5.12,5.12,0,0,1-1.43,1.83c-3.18,3.05-10.09,5.12-16.86,6.61s-13.4,2.39-16.12,3.19l.07.25c2.67-.78,9.33-1.69,16.11-3.18s13.7-3.55,17-6.66a5.11,5.11,0,0,0,1.5-2,4.14,4.14,0,0,0,.2-1.21,4.67,4.67,0,0,0-.4-1.88c-.89-2-3.18-3.5-6.2-4.75-9-3.75-24.7-4.87-29-5.68v.25Z"/><path class="cls-8" d="M32.82,402.11c3.25.65,11.44,1.59,19.26,3.42A56,56,0,0,1,62.86,409c3.06,1.43,5.35,3.15,6.23,5.2a4.8,4.8,0,0,1,.39,1.91,4.33,4.33,0,0,1-.18,1.24,5.32,5.32,0,0,1-1.41,2c-3.24,3.43-10.24,5.84-17.2,7.6s-13.87,2.9-17,3.82l.07.24c3.07-.91,10-2,17-3.81s14-4.17,17.32-7.67a5.59,5.59,0,0,0,1.47-2.12,4.53,4.53,0,0,0,.19-1.32,5.08,5.08,0,0,0-.41-2c-.93-2.15-3.27-3.89-6.35-5.33-9.24-4.31-25.25-5.94-30.11-6.91v.25Z"/><path class="cls-9" d="M36.63,399.87c3.65.76,12.11,2,20.14,4.11s15.6,5.29,17.41,9.79a5.36,5.36,0,0,1,.41,2.05,5.06,5.06,0,0,1-.17,1.28A6.16,6.16,0,0,1,73,419.28c-3.29,3.82-10.38,6.57-17.53,8.61s-14.33,3.38-17.85,4.44l.07.24c3.48-1.05,10.67-2.39,17.83-4.44s14.29-4.79,17.65-8.68a6.11,6.11,0,0,0,1.46-2.28,5.11,5.11,0,0,0,.18-1.35,5.64,5.64,0,0,0-.42-2.15c-1.92-4.67-9.54-7.76-17.58-9.93s-16.53-3.36-20.15-4.12Z"/><path class="cls-10" d="M40.51,397.62c4,.87,12.78,2.34,21,4.82s15.93,6,17.82,10.89a5.93,5.93,0,0,1,.42,2.2,5.3,5.3,0,0,1-.16,1.32,6.73,6.73,0,0,1-1.4,2.34c-3.33,4.21-10.53,7.3-17.86,9.62s-14.8,3.87-18.7,5.07l.08.24c3.87-1.19,11.34-2.75,18.69-5.07s14.58-5.41,18-9.71a6.67,6.67,0,0,0,1.44-2.43,5.32,5.32,0,0,0,.17-1.38,6.42,6.42,0,0,0-.43-2.29c-2-5-9.74-8.54-18-11s-16.95-3.95-20.95-4.8l-.06.24Z"/><path class="cls-11" d="M44.36,395.38a211.12,211.12,0,0,1,21.89,5.52c8.44,2.81,16.26,6.73,18.22,12a6.74,6.74,0,0,1,.43,2.35,6.14,6.14,0,0,1-.15,1.35,7.08,7.08,0,0,1-1.39,2.5c-3.38,4.61-10.67,8-18.2,10.63s-15.26,4.35-19.53,5.71l.07.24c4.27-1.33,12-3.1,19.57-5.69s14.86-6,18.31-10.73A7.25,7.25,0,0,0,85,416.67a6,6,0,0,0,.16-1.4,7,7,0,0,0-.44-2.44c-2-5.42-9.93-9.32-18.38-12.15a211.53,211.53,0,0,0-21.91-5.53l-.06.25Z"/><path class="cls-12" d="M48.21,393.14A186.77,186.77,0,0,1,71,399.36c8.65,3.14,16.6,7.45,18.63,13.11A7.3,7.3,0,0,1,90,415a6.41,6.41,0,0,1-.15,1.38A7.83,7.83,0,0,1,88.52,419c-3.42,5-10.81,8.79-18.53,11.65S54.26,435.49,49.57,437l.08.24c4.67-1.47,12.7-3.44,20.43-6.31s15.17-6.64,18.64-11.74a8.19,8.19,0,0,0,1.42-2.75,7,7,0,0,0,.15-1.44,7.48,7.48,0,0,0-.45-2.57c-2.11-5.82-10.12-10.11-18.78-13.27a189.1,189.1,0,0,0-22.79-6.23Z"/><path class="cls-13" d="M52.06,390.9a173.81,173.81,0,0,1,23.64,6.91c8.85,3.47,16.93,8.18,19,14.23a7.92,7.92,0,0,1,.45,2.64,7.41,7.41,0,0,1-.14,1.41,8.49,8.49,0,0,1-1.37,2.82c-6.88,10.86-30,16.38-40.13,19.6l.07.24c10.14-3.23,33.26-8.7,40.28-19.7a9,9,0,0,0,1.4-2.91,7.15,7.15,0,0,0,.14-1.46,8.4,8.4,0,0,0-.46-2.72c-2.17-6.2-10.31-10.9-19.18-14.38a174.3,174.3,0,0,0-23.67-6.93l-.06.25Z"/><path class="cls-14" d="M55.91,388.65a163,163,0,0,1,24.52,7.62c9.06,3.8,17.26,8.9,19.43,15.34a8.82,8.82,0,0,1,.46,2.79,7.71,7.71,0,0,1-.13,1.44,9.25,9.25,0,0,1-1.36,3c-6.94,11.67-30.38,17.74-41.33,21.23l.08.24c10.93-3.5,34.4-9.52,41.47-21.34a9.58,9.58,0,0,0,1.39-3.07,8.14,8.14,0,0,0,.13-1.48,9,9,0,0,0-.47-2.87c-2.23-6.58-10.5-11.68-19.58-15.49A163.33,163.33,0,0,0,56,388.44l-.06.24Z"/><path class="cls-15" d="M59.76,386.44a153.34,153.34,0,0,1,25.4,8.32c9.27,4.12,17.59,9.62,19.83,16.45a9.55,9.55,0,0,1,.47,3,8.78,8.78,0,0,1-.12,1.45A10.19,10.19,0,0,1,104,418.8c-7,12.49-30.79,19.11-42.52,22.87l.07.24c11.73-3.78,35.56-10.34,42.67-23a10.35,10.35,0,0,0,1.42-3.27,9.39,9.39,0,0,0,.13-1.5,9.87,9.87,0,0,0-.49-3c-2.29-7-10.68-12.46-20-16.6a154.48,154.48,0,0,0-25.44-8.34l-.06.25Z"/><path class="cls-16" d="M63.63,384.17a147.94,147.94,0,0,1,26.28,9c9.47,4.46,17.93,10.35,20.22,17.57a9.9,9.9,0,0,1,.49,3.1,9.14,9.14,0,0,1-.12,1.48,10.89,10.89,0,0,1-1.33,3.3c-7,13.31-31.19,20.46-43.72,24.51l.08.24c12.52-4.06,36.72-11.17,43.87-24.63a11.24,11.24,0,0,0,1.35-3.38,8.59,8.59,0,0,0,.13-1.52,10.41,10.41,0,0,0-.5-3.18C108,403.32,99.51,397.42,90,393a146.49,146.49,0,0,0-26.32-9l-.06.25Z"/><path class="cls-17" d="M67.46,381.93a141,141,0,0,1,27.17,9.71c9.68,4.78,18.27,11.07,20.62,18.68a11.27,11.27,0,0,1,.51,3.26,9.48,9.48,0,0,1-.12,1.5,11.91,11.91,0,0,1-1.32,3.46c-7.07,14.13-31.59,21.82-44.92,26.14l.08.24c13.32-4.34,37.89-12,45.07-26.27a12.38,12.38,0,0,0,1.34-3.53,9.89,9.89,0,0,0,.12-1.54,11.81,11.81,0,0,0-.51-3.34c-2.41-7.73-11-14-20.76-18.83a142.08,142.08,0,0,0-27.21-9.73l-.06.25Z"/><path class="cls-18" d="M71.31,379.68a136.28,136.28,0,0,1,28,10.42c9.89,5.11,18.61,11.8,21,19.79a11.74,11.74,0,0,1,.52,3.43,10.81,10.81,0,0,1-.11,1.5,12.56,12.56,0,0,1-1.31,3.62c-7.1,15-32,23.18-46.11,27.78l.08.24c14.11-4.61,39.06-12.8,46.26-27.91a12.74,12.74,0,0,0,1.33-3.69,9.88,9.88,0,0,0,.11-1.54,12.28,12.28,0,0,0-.52-3.51c-2.47-8.11-11.24-14.81-21.15-19.94a136.89,136.89,0,0,0-28-10.43Z"/><path class="cls-19" d="M75.16,377.44a133.79,133.79,0,0,1,28.92,11.11c10.11,5.44,19,12.53,21.42,20.91a12.48,12.48,0,0,1,.53,3.59,11,11,0,0,1-.1,1.52,14,14,0,0,1-1.3,3.78c-7.12,15.77-32.4,24.54-47.31,29.42l.08.24c14.91-4.9,40.23-13.57,47.46-29.57a14.15,14.15,0,0,0,1.32-3.85,11.42,11.42,0,0,0,.1-1.55,13,13,0,0,0-.53-3.67c-2.53-8.5-11.42-15.59-21.55-21.05a133.3,133.3,0,0,0-29-11.14l-.06.25Z"/><path class="cls-20" d="M79,375.2A130.55,130.55,0,0,1,108.82,387c10.31,5.77,19.28,13.25,21.81,22a13.3,13.3,0,0,1,.54,3.76,12.79,12.79,0,0,1-.09,1.52,14.8,14.8,0,0,1-1.29,3.94c-7.14,16.6-32.8,25.9-48.5,31.06l.08.24c15.7-5.17,41.42-14.44,48.65-31.2a15.25,15.25,0,0,0,1.31-4,13.61,13.61,0,0,0,.1-1.56,13.4,13.4,0,0,0-.56-3.83c-2.57-8.89-11.59-16.39-21.93-22.17a130.46,130.46,0,0,0-29.87-11.84l-.06.25Z"/><path class="cls-21" d="M82.86,373a128,128,0,0,1,30.69,12.48c10.52,6.1,19.62,14,22.21,23.14a14.92,14.92,0,0,1,.56,3.93,11.23,11.23,0,0,1-.1,1.53,15.86,15.86,0,0,1-1.27,4.1c-7.16,17.42-33.21,27.26-49.7,32.69l.08.25c16.5-5.45,42.61-15.26,49.85-32.84a16,16,0,0,0,1.3-4.17,13.6,13.6,0,0,0,.09-1.56,15,15,0,0,0-.57-4c-2.63-9.28-11.78-17.17-22.32-23.29a128.63,128.63,0,0,0-30.76-12.53l-.06.25Z"/><path class="cls-22" d="M86.7,370.71a126.21,126.21,0,0,1,31.59,13.21c10.73,6.43,20,14.7,22.6,24.24a15.93,15.93,0,0,1,.57,4.12,13.08,13.08,0,0,1-.09,1.53,17.11,17.11,0,0,1-1.26,4.26c-7.17,18.24-33.61,28.62-50.89,34.33l.08.24c17.29-5.73,43.79-16.07,51.05-34.48a17.6,17.6,0,0,0,1.28-4.32c.05-.52.08-1,.08-1.56a15.56,15.56,0,0,0-.58-4.18c-2.68-9.66-12-18-22.71-24.4a126.39,126.39,0,0,0-31.65-13.26l-.06.24Z"/><path class="cls-23" d="M90.55,368.44A124.75,124.75,0,0,1,123,382.35c10.94,6.75,20.29,15.42,23,25.35a16.37,16.37,0,0,1,.58,4.29,9.81,9.81,0,0,1-.08,1.53,17.43,17.43,0,0,1-1.25,4.42c-7.17,19.07-34,30-52.09,36l.08.24c18.09-6,45-16.89,52.25-36.12a18.32,18.32,0,0,0,1.26-4.48,13.6,13.6,0,0,0,.09-1.56,16.84,16.84,0,0,0-.6-4.35c-2.74-10.05-12.14-18.74-23.11-25.51a125.65,125.65,0,0,0-32.52-13.94l-.07.25Z"/><path class="cls-24" d="M94.4,366.23a124.06,124.06,0,0,1,33.36,14.6c11.15,7.08,20.63,16.15,23.39,26.47a17.31,17.31,0,0,1,.59,4.47,11.2,11.2,0,0,1-.07,1.53,19.17,19.17,0,0,1-1.24,4.58c-7.18,19.89-34.41,31.34-53.28,37.61l.08.24c18.88-6.29,46.18-17.71,53.44-37.77a19.2,19.2,0,0,0,1.25-4.64c.05-.51.08-1,.08-1.55a17.35,17.35,0,0,0-.61-4.53c-2.79-10.43-12.32-19.52-23.5-26.62A124.23,124.23,0,0,0,94.47,366Z"/><path class="cls-25" d="M98.25,364a122.94,122.94,0,0,1,34.24,15.3c11.36,7.41,21,16.87,23.79,27.58a18.26,18.26,0,0,1,.61,4.65,11,11,0,0,1-.07,1.52,20.42,20.42,0,0,1-1.23,4.74c-7.18,20.72-34.82,32.7-54.48,39.25l.08.24c19.68-6.56,47.38-18.52,54.64-39.4a20.3,20.3,0,0,0,1.24-4.8c.05-.51.07-1,.07-1.55a18.29,18.29,0,0,0-.62-4.71C153.67,396,144,386.5,132.63,379.08a123.88,123.88,0,0,0-34.31-15.34Z"/><path class="cls-26" d="M102.1,361.74a122.87,122.87,0,0,1,35.13,16c11.57,7.74,21.3,17.6,24.18,28.7a20.26,20.26,0,0,1,.62,4.84,10.83,10.83,0,0,1-.07,1.51,21.69,21.69,0,0,1-1.21,4.9c-7.18,21.54-35.22,34.06-55.68,40.88l.09.24c20.47-6.83,48.58-19.34,55.83-41a22,22,0,0,0,1.23-5c0-.5.07-1,.07-1.53a19.33,19.33,0,0,0-.64-4.9c-2.9-11.2-12.68-21.09-24.28-28.85a122.86,122.86,0,0,0-35.2-16l-.07.24Z"/><path class="cls-27" d="M106,359.5C127.05,365,160.69,383,166.53,406a20.52,20.52,0,0,1,.64,5,12.71,12.71,0,0,1-.06,1.51,22.51,22.51,0,0,1-1.2,5C158.74,439.89,130.29,453,109,460.05l.08.24c21.27-7.12,49.79-20.16,57-42.69a22.93,22.93,0,0,0,1.22-5.11q.06-.76.06-1.53a20.28,20.28,0,0,0-.65-5.08c-5.92-23.17-39.61-41.16-60.76-46.7l-.07.25Z"/><path class="cls-28" d="M109.8,357.26c21.87,5.72,55.92,24.56,61.86,48.32a21.75,21.75,0,0,1,.66,5.21,12.29,12.29,0,0,1-.06,1.49,24,24,0,0,1-1.19,5.22c-7.17,23.19-36,36.78-58.07,44.16l.09.24c22-7.39,51-21,58.23-44.33a25,25,0,0,0,1.2-5.27c0-.5,0-1,0-1.51a22.25,22.25,0,0,0-.66-5.27c-6-23.94-40.12-42.75-62-48.51l-.07.25Z"/><path class="cls-29" d="M113.63,355c22.64,5.94,57.09,25.6,63.14,50.13a22.88,22.88,0,0,1,.67,5.4,14.64,14.64,0,0,1-.05,1.48,25.71,25.71,0,0,1-1.16,5.41c-7.16,24-36.43,38.15-59.26,45.8l.08.25c22.85-7.68,52.2-21.8,59.43-46a25.79,25.79,0,0,0,1.18-5.43c0-.5.06-1,.06-1.5a23.39,23.39,0,0,0-.68-5.46c-6.13-24.71-40.63-44.34-63.32-50.32l-.07.25Z"/><path class="cls-30" d="M117.5,352.77c23.41,6.17,58.26,26.64,64.42,52a24,24,0,0,1,.69,5.6v1.45a27.59,27.59,0,0,1-1.17,5.54c-7.15,24.83-36.83,39.5-60.46,47.44l.08.24c23.57-7.95,53.36-22.62,60.57-47.61a26.73,26.73,0,0,0,1.17-5.59v-1.47a24.49,24.49,0,0,0-.69-5.66c-6.23-25.49-41.14-45.93-64.6-52.13l-.07.24Z"/><path class="cls-31" d="M121.35,350.53c24.17,6.39,59.44,27.67,65.7,53.76a25.13,25.13,0,0,1,.7,5.79,13.86,13.86,0,0,1-.05,1.44,27,27,0,0,1-1.15,5.69c-7.14,25.66-37.23,40.87-61.65,49.08l.08.24c24.44-8.22,54.62-23.44,61.82-49.25a28.79,28.79,0,0,0,1.16-5.74v-1.46a25.65,25.65,0,0,0-.71-5.85c-6.34-26.26-41.65-47.52-65.88-54l-.07.25Z"/><path class="cls-32" d="M125.2,348.29c24.94,6.61,60.61,28.71,67,55.57a26.4,26.4,0,0,1,.72,6,11.06,11.06,0,0,1,0,1.41,29.2,29.2,0,0,1-1.14,5.86c-7.13,26.47-37.63,42.22-62.85,50.71l.08.25c25.24-8.51,55.83-24.26,63-50.9a29.6,29.6,0,0,0,1.15-5.9v-1.43a26.76,26.76,0,0,0-.72-6.05c-6.44-27-42.16-49.11-67.16-55.76l-.07.25Z"/><path class="cls-33" d="M129.05,346.05c25.71,6.83,61.78,29.74,68.26,57.38a27.49,27.49,0,0,1,.73,6.19V411a30.68,30.68,0,0,1-1.13,6c-7.11,27.3-38,43.59-64,52.36l.08.24c26-8.78,57-25.08,64.21-52.53a31.29,31.29,0,0,0,1.14-6.06v-1.41a28,28,0,0,0-.74-6.25c-6.54-27.81-42.67-50.7-68.44-57.57l-.07.25Z"/><path class="cls-34" d="M132.9,343.8c26.48,7.06,63,30.79,69.54,59.2a28.77,28.77,0,0,1,.75,6.4v1.36a32.21,32.21,0,0,1-1.12,6.17c-7.09,28.11-38.44,44.95-65.24,54l.08.24c26.83-9.06,58.26-25.9,65.41-54.17a32,32,0,0,0,1.13-6.22v-1.34a29.31,29.31,0,0,0-.75-6.46c-6.64-28.58-43.18-52.29-69.72-59.38l-.07.24Z"/><path class="cls-35" d="M136.75,341.56c27.25,7.28,64.14,31.82,70.82,61a30,30,0,0,1,.76,6.6v1.33a32.41,32.41,0,0,1-1.11,6.33c-7.08,28.93-38.84,46.31-66.43,55.63l.08.25c27.62-9.34,59.47-26.73,66.6-55.82a32.78,32.78,0,0,0,1.11-6.38v-1.34a30.51,30.51,0,0,0-.77-6.66c-6.74-29.35-43.69-53.88-71-61.2l-.07.25Z"/><path class="cls-36" d="M140.63,339.32c28,7.5,65.31,32.85,72.1,62.82a31.26,31.26,0,0,1,.78,6.81v1.3a35.61,35.61,0,0,1-1.08,6.49c-7.07,29.75-39.25,47.67-67.64,57.27l.08.24c28.41-9.61,60.69-27.54,67.81-57.45a36.16,36.16,0,0,0,1.09-6.54V409a31.65,31.65,0,0,0-.78-6.86c-6.85-30.14-44.2-55.48-72.28-63l-.07.25Z"/><path class="cls-37" d="M144.45,337.08c28.78,7.72,66.49,33.89,73.38,64.63a33,33,0,0,1,.79,7V410a36.44,36.44,0,0,1-1.07,6.65c-7,30.57-39.66,49-68.84,58.91l.09.24c29.2-9.89,61.9-28.36,69-59.09a38,38,0,0,0,1.08-6.7v-1.27a33,33,0,0,0-.8-7.07c-7-30.91-44.71-57.07-73.56-64.83l-.07.25Z"/><path class="cls-38" d="M148.3,334.83c29.55,7.95,67.67,34.93,74.66,66.45a34,34,0,0,1,.81,7.24v1.22a39.07,39.07,0,0,1-1.06,6.81c-7,31.38-40.06,50.39-70,60.54l.08.25c30-10.17,63.12-29.19,70.2-60.74a38.75,38.75,0,0,0,1.07-6.85v-1.23a34.36,34.36,0,0,0-.81-7.29c-7-31.68-45.21-58.67-74.84-66.65l-.07.25Z"/><path class="cls-39" d="M152.15,332.59c30.32,8.17,68.84,36,75.93,68.26a35.22,35.22,0,0,1,.83,7.45v1.14a39.36,39.36,0,0,1-1,7c-7,32.21-40.46,51.75-71.23,62.19l.09.24c30.79-10.45,64.34-30,71.39-62.38a40.4,40.4,0,0,0,1.06-7v-1.15a35.68,35.68,0,0,0-.83-7.5c-7.15-32.5-45.71-60.3-76.12-68.5Z"/><path class="cls-40" d="M156,330.35c31.09,8.39,70,37,77.21,70.07a36.64,36.64,0,0,1,.85,7.67v1.14a42.68,42.68,0,0,1-1,7.12c-7,33-40.86,53.12-72.42,63.83l.08.24c31.59-10.72,65.56-30.83,72.59-64a40.19,40.19,0,0,0,1-7.17V408.1a36.45,36.45,0,0,0-.85-7.72c-7.24-33.23-46.22-61.85-77.39-70.27l-.07.25Z"/><path class="cls-41" d="M159.85,328.11c31.86,8.61,71.2,38,78.49,71.88a38.15,38.15,0,0,1,.86,7.9V409a44.85,44.85,0,0,1-1,7.29c-7,33.84-41.27,54.48-73.62,65.46l.09.25c32.38-11,66.78-31.66,73.78-65.66a43.08,43.08,0,0,0,1-7.33v-1.09a38,38,0,0,0-.87-7.95c-7.34-34-46.73-63.44-78.67-72.08l-.07.25Z"/><path class="cls-42" d="M163.7,325.86c32.63,8.84,72.38,39.08,79.77,73.7a39.59,39.59,0,0,1,.88,8.12v1a44.5,44.5,0,0,1-1,7.44c-6.94,34.66-41.67,55.84-74.81,67.11l.08.24c33.18-11.28,68-32.48,75-67.3a44.83,44.83,0,0,0,1-7.48v-1.05a39.39,39.39,0,0,0-.89-8.17c-7.44-34.78-47.24-65-80-73.9l-.07.25Z"/><path class="cls-43" d="M167.55,323.62c33.4,9.06,73.56,40.11,81,75.51a41,41,0,0,1,.89,8.34v1a46.25,46.25,0,0,1-1,7.6c-6.92,35.47-42.07,57.2-76,68.74l.09.25c34-11.56,69.22-33.31,76.17-68.94a45.92,45.92,0,0,0,1-7.65v-1a40.81,40.81,0,0,0-.9-8.39c-7.54-35.55-47.75-66.64-81.22-75.71l-.07.25Z"/><path class="cls-44" d="M171.4,321.38c34.17,9.28,74.74,41.15,82.33,77.32a42.47,42.47,0,0,1,.91,8.56v.95a47.08,47.08,0,0,1-1,7.76c-6.89,36.29-42.47,58.56-77.2,70.38l.08.25C211.28,474.76,247,452.47,253.89,416a47.7,47.7,0,0,0,1-7.8v-1a42.26,42.26,0,0,0-.92-8.61c-7.64-36.32-48.26-68.21-82.51-77.52l-.07.25Z"/><path class="cls-45" d="M175.25,319.14c34.94,9.5,75.92,42.18,83.61,79.13a43.33,43.33,0,0,1,.93,8.8V408a51.51,51.51,0,0,1-1,7.92c-6.87,37.1-42.87,59.92-78.4,72l.08.24C216,476,252.14,453.12,259,415.9a50,50,0,0,0,1-8V407a43.9,43.9,0,0,0-.94-8.85c-7.74-37.1-48.77-69.8-83.79-79.33l-.07.25Z"/><path class="cls-46" d="M179.1,316.89c35.71,9.73,77.1,43.23,84.89,80.95a44.65,44.65,0,0,1,.94,9v.83a51,51,0,0,1-1,8.08c-6.84,37.92-43.3,61.28-79.59,73.69l.08.25c36.35-12.39,72.89-35.79,79.77-73.86a50.33,50.33,0,0,0,1-8.12v-.84a45.44,45.44,0,0,0-.95-9.08c-7.84-37.87-49.28-71.39-85.07-81.15l-.07.25Z"/><path class="cls-47" d="M183,314.65c36.47,10,78.28,44.26,86.17,82.76a46.54,46.54,0,0,1,1,9.26v.77a53.06,53.06,0,0,1-.95,8.24c-6.81,38.73-43.68,62.64-80.79,75.3l.08.24c37.15-12.67,74.12-36.61,81-75.5a52.37,52.37,0,0,0,1-8.28v-.78a47,47,0,0,0-1-9.31c-7.93-38.64-49.79-73-86.35-83l-.07.25Z"/><path class="cls-48" d="M186.8,312.44c37.24,10.17,79.46,45.3,87.45,84.57a48.18,48.18,0,0,1,1,9.5v.71a55.09,55.09,0,0,1-.94,8.4c-6.79,39.55-44.08,64-82,76.94l.08.24c37.94-12.94,75.33-37.43,82.16-77.14a55.48,55.48,0,0,0,.94-8.43v-.72a48.61,48.61,0,0,0-1-9.55c-8-39.42-50.3-74.57-87.63-84.77l-.07.25Z"/><path class="cls-49" d="M190.63,310.17c38,10.39,80.64,46.33,88.73,86.38a49.94,49.94,0,0,1,1,9.75v.64a55.76,55.76,0,0,1-.93,8.55c-6.76,40.37-44.48,65.37-83.18,78.58l.08.25c38.74-13.23,76.56-38.26,83.36-78.78a56.41,56.41,0,0,0,.93-8.6v-.64a49.68,49.68,0,0,0-1-9.8c-8.13-40.19-50.81-76.16-88.92-86.58l-.06.25Z"/><path class="cls-50" d="M194.5,307.92c38.78,10.62,81.82,47.38,90,88.2a51.62,51.62,0,0,1,1,10v.57a58.29,58.29,0,0,1-.87,8.75c-6.73,41.18-44.88,66.73-84.38,80.22l.09.24c39.53-13.5,77.78-39.09,84.55-80.42a59.69,59.69,0,0,0,.92-8.75v-.58a50.85,50.85,0,0,0-1-10c-8.23-41-51.32-77.75-90.2-88.4l-.06.25Z"/><path class="cls-51" d="M198.35,305.68c39.55,10.84,83,48.41,91.28,90a52.38,52.38,0,0,1,1,10.22v.54a61.31,61.31,0,0,1-.91,8.87c-6.7,42-45.29,68.09-85.57,81.86l.08.25c40.32-13.78,79-39.92,85.75-82.07a60.47,60.47,0,0,0,.91-8.91v-.52a52.81,52.81,0,0,0-1-10.27c-8.33-41.74-51.83-79.34-91.47-90.21l-.07.25Z"/><path class="cls-52" d="M202.2,303.44c40.32,11.06,84.18,49.45,92.56,91.82a54.13,54.13,0,0,1,1.06,10.47v.44a61.64,61.64,0,0,1-.88,9c-6.69,42.81-45.7,69.45-86.78,83.49l.09.25c41.11-14.06,80.23-40.74,86.94-83.7a61.37,61.37,0,0,0,.89-9.07v-.45A54.64,54.64,0,0,0,295,395.17c-8.42-42.51-52.34-80.93-92.76-92l-.06.25Z"/><path class="cls-53" d="M206.05,301.2c41.09,11.28,85.36,50.48,93.84,93.63A55.91,55.91,0,0,1,301,405.55v.37a64.37,64.37,0,0,1-.87,9.19c-6.66,43.62-46.1,70.81-88,85.14l.08.24c41.91-14.33,81.46-41.57,88.14-85.34a62,62,0,0,0,.88-9.23v-.37a56.43,56.43,0,0,0-1.07-10.77c-8.52-43.29-52.85-82.52-94-93.83l-.06.25Z"/><path class="cls-54" d="M209.9,299c41.86,11.49,86.54,51.49,95.12,95.49a58,58,0,0,1,1.09,11v.3a65,65,0,0,1-.86,9.34c-6.63,44.44-46.5,72.18-89.17,86.78l.09.25c42.7-14.62,82.68-42.4,89.33-87a67,67,0,0,0,.87-9.38v-.29a58,58,0,0,0-1.09-11c-8.62-44.06-53.36-84.11-95.32-95.65l-.06.25Z"/><path class="cls-55" d="M213.74,296.71c42.64,11.73,87.74,52.56,96.41,97.26a59.53,59.53,0,0,1,1.11,11.22v.25a67.35,67.35,0,0,1-.85,9.51c-6.6,45.25-46.91,73.54-90.36,88.41l.08.25c43.5-14.89,83.91-43.17,90.5-88.62a67.92,67.92,0,0,0,.86-9.55v-.22A60.05,60.05,0,0,0,310.38,394c-8.72-44.83-53.87-85.7-96.6-97.46l-.07.25Z"/><path class="cls-56" d="M217.63,294.44c43.4,12,88.91,53.59,97.68,99.07A60.62,60.62,0,0,1,316.44,405v.14a71,71,0,0,1-.84,9.66c-6.57,46.07-47.31,74.9-91.56,90.06l.09.24c44.29-15.16,85.13-44,91.73-90.26a71.6,71.6,0,0,0,.84-9.7V405a61.35,61.35,0,0,0-1.13-11.55c-8.82-45.61-54.38-87.29-97.88-99.27Z"/><path class="cls-57" d="M221.44,292.23c44.17,12.17,90.1,54.63,99,100.88a62.39,62.39,0,0,1,1.19,11.73v.06a71.89,71.89,0,0,1-.83,9.83c-6.54,46.87-47.71,76.26-92.75,91.69l.08.25c45.09-15.45,86.36-44.88,92.93-91.91a72.33,72.33,0,0,0,.83-9.86v-.06a63.85,63.85,0,0,0-1.26-11.78c-8.91-46.38-54.89-88.88-99.16-101.09l-.06.26Z"/><path class="cls-58" d="M225.29,290c44.94,12.4,91.28,55.67,100.25,102.7a64.46,64.46,0,0,1,1.16,12,72.75,72.75,0,0,1-.81,10c-6.51,47.69-48.11,77.62-93.95,93.33l.09.25c45.87-15.72,87.58-45.7,94.12-93.54a72.75,72.75,0,0,0,.81-10,64.46,64.46,0,0,0-1.16-12c-9-47.16-55.4-90.47-100.44-102.9l-.07.25Z"/><path class="cls-59" d="M229.14,287.74c45.71,12.62,92.49,56.7,101.49,104.51a66.56,66.56,0,0,1,1.22,12.19v.1a74.34,74.34,0,0,1-.8,10c-6.48,48.5-48.51,79-95.15,95l.09.24c46.67-16,88.81-46.53,95.32-95.18a75.66,75.66,0,0,0,.8-10.08v-.08a66.53,66.53,0,0,0-1.19-12.19c-9.1-47.93-55.9-92.06-101.71-104.71l-.07.25Z"/><path class="cls-60" d="M233,285.5c46.48,12.84,93.64,57.74,102.81,106.32a68,68,0,0,1,1.2,12.32v.16a76.54,76.54,0,0,1-.79,10.14c-6.45,49.32-48.92,80.35-96.34,96.61l.08.25c47.47-16.28,90-47.36,96.52-96.83a77,77,0,0,0,.79-10.17v-.16a67.61,67.61,0,0,0-1.21-12.37c-9.19-48.7-56.41-93.65-103-106.52l-.07.25Z"/><path class="cls-61" d="M236.84,283.26c47.25,13.06,94.79,58.78,104.09,108.18a70.77,70.77,0,0,1,1.22,12.49v.24a79.49,79.49,0,0,1-.78,10.22c-6.42,50.13-49.32,81.71-97.54,98.25l.09.25c48.26-16.55,91.27-48.19,97.71-98.45a80.11,80.11,0,0,0,.78-10.26v-.24a70.89,70.89,0,0,0-1.23-12.5C331.89,342,284.26,296.2,236.91,283.1l-.07.26Z"/><path class="cls-62" d="M240.69,281c48,13.29,96,59.82,105.37,110a72.82,72.82,0,0,1,1.24,12.67V404a82.44,82.44,0,0,1-.77,10.3c-6.39,50.94-49.72,83.07-98.73,99.89l.08.25c49.06-16.84,92.5-49,98.91-100.11a82.92,82.92,0,0,0,.77-10.33v-.32A72.43,72.43,0,0,0,346.31,391c-9.39-50.25-57.43-96.83-105.55-110.15l-.07.25Z"/><path class="cls-63" d="M244.54,278.77c48.79,13.51,97.19,60.86,106.64,111.76a72.75,72.75,0,0,1,1.26,12.84v.4a85.82,85.82,0,0,1-.75,10.38c-6.36,51.75-50.12,84.43-99.93,101.53l.09.25c49.85-17.11,93.72-49.85,100.1-101.75a84.33,84.33,0,0,0,.76-10.41v-.4a73.29,73.29,0,0,0-1.26-12.88c-9.48-51-57.94-98.43-106.83-112l-.07.25Z"/><path class="cls-64" d="M248.39,276.53C298,290.26,346.77,338.42,356.31,390.1a75.65,75.65,0,0,1,1.28,13v.48a85.11,85.11,0,0,1-.74,10.46c-6.33,52.56-50.52,85.79-101.12,103.16l.08.25c50.64-17.39,94.95-50.67,101.3-103.38a87.64,87.64,0,0,0,.75-10.49v-.48A75.3,75.3,0,0,0,356.63,390c-9.58-51.81-58.45-100-108.11-113.78l-.07.25Z"/><path class="cls-65" d="M252.24,274.29c50.33,14,99.56,62.93,109.2,115.38a76.77,76.77,0,0,1,1.3,13.19v.58A90.42,90.42,0,0,1,362,414c-6.29,53.38-50.93,87.15-102.32,104.81l.09.25c51.43-17.67,96.17-51.51,102.49-105a90.93,90.93,0,0,0,.73-10.56v-.57a77.33,77.33,0,0,0-1.3-13.23c-9.68-52.58-59-101.61-109.39-115.6l-.07.26Z"/><path class="cls-66" d="M256.09,272c51.1,14.18,100.74,64,110.48,117.2a78.88,78.88,0,0,1,1.32,13.37v.66a91.74,91.74,0,0,1-.71,10.6c-6.27,54.18-51.34,88.51-103.52,106.44l.08.25c52.23-17.94,97.41-52.33,103.7-106.66a92.26,92.26,0,0,0,.71-10.63v-.66a79.45,79.45,0,0,0-1.32-13.41c-9.77-53.36-59.47-103.2-110.67-117.41Z"/><path class="cls-67" d="M259.94,269.8c51.87,14.39,101.92,65,111.76,119A82.07,82.07,0,0,1,373,402.34v.76a97.5,97.5,0,0,1-.7,10.66c-6.24,55-51.71,89.88-104.71,108.09l.09.24c53-18.22,98.63-53.16,104.89-108.3a98,98,0,0,0,.7-10.69v-.76A82.44,82.44,0,0,0,372,388.76C362.1,334.63,312,284,260,269.54l-.07.25Z"/><path class="cls-68" d="M263.79,267.56c52.64,14.61,103.11,66.05,113,120.82a83.15,83.15,0,0,1,1.35,13.72V403a96.13,96.13,0,0,1-.69,10.72c-6.16,55.77-52.09,91.24-105.82,109.77l.08.25c53.82-18.5,99.86-54,106.09-110a96.66,96.66,0,0,0,.69-10.75v-.85a83.54,83.54,0,0,0-1.36-13.76c-10-54.9-60.49-106.38-113.23-121l-.07.25Z"/><path class="cls-69" d="M267.63,265.32C321.05,280.15,371.93,332.44,382,388a86.35,86.35,0,0,1,1.37,13.89v1a99.69,99.69,0,0,1-.68,10.79c-6.18,56.62-52.54,92.6-107.11,111.36l.09.25c54.62-18.8,101.09-54.87,107.29-111.63a100.24,100.24,0,0,0,.68-10.82v-1a86.85,86.85,0,0,0-1.38-13.93c-10.06-55.68-61-108-114.51-122.85l-.07.26Z"/><path class="cls-70" d="M271.49,263.07C325.66,278.13,377,331.2,387.09,387.52a87.45,87.45,0,0,1,1.39,14.07v1a100.79,100.79,0,0,1-.67,10.85c-6.15,57.43-52.95,94-108.31,113l.09.24C335,507.63,381.91,471,388.07,413.44a101.34,101.34,0,0,0,.67-10.88v-1a88,88,0,0,0-1.39-14.12C377.19,331,325.84,277.88,271.56,262.78l-.07.25Z"/><path class="cls-71" d="M275.34,260.83C330.28,276.11,382,330,392.22,387.09a89.46,89.46,0,0,1,1.41,14.24v1.11a104.56,104.56,0,0,1-.66,10.91c-6.11,58.24-53.35,95.32-109.5,114.64l.09.25c56.2-19.33,103.55-56.48,109.68-114.84a105.1,105.1,0,0,0,.66-10.93v-1.15A88.81,88.81,0,0,0,392.49,387c-10.25-57.23-62-111.15-117.07-126.47l-.07.25Z"/><path class="cls-72" d="M279.19,258.59c55.71,15.5,107.84,70.2,118.16,128.07a92.94,92.94,0,0,1,1.43,14.42v1.25a109.13,109.13,0,0,1-.65,11c-6.08,59-53.75,96.68-110.7,116.28l.09.25c57-19.61,104.77-57.31,110.87-116.5a109.13,109.13,0,0,0,.65-11v-1.25a92.71,92.71,0,0,0-1.41-14.49c-10.35-58-62.53-112.74-118.35-128.28l-.07.25Z"/><path class="cls-73" d="M283,256.35c56.48,15.72,109,71.23,119.44,129.88a92.82,92.82,0,0,1,1.44,14.6v1.35a109.12,109.12,0,0,1-.64,11c-6,59.87-54.15,98.05-111.89,117.93l.08.25c57.79-19.89,106-58.14,112.07-118.15a109.12,109.12,0,0,0,.64-11v-1.36a94.42,94.42,0,0,0-1.45-14.63c-10.45-58.77-63-114.33-119.63-130.1l-.07.26Z"/><path class="cls-74" d="M286.89,254.1c57.25,16,110.21,72.28,120.72,131.7a96.35,96.35,0,0,1,1.46,14.77v1.48c0,3.72-.27,7.4-.63,11.05-6,60.67-54.55,99.41-113.09,119.56l.09.25c58.58-20.17,107.23-59,113.26-119.79.36-3.65.63-7.33.63-11.07v-1.48a96.76,96.76,0,0,0-1.47-14.81C397.33,326.21,344.32,269.84,287,253.85Z"/><path class="cls-75" d="M290.74,251.86c58,16.17,111.39,73.31,122,133.51a98.72,98.72,0,0,1,1.48,14.95v1.58c0,3.74-.26,7.44-.62,11.1-6,61.49-55,100.77-114.28,121.2l.08.25C358.78,514,407.86,474.66,413.86,413c.36-3.67.62-7.37.62-11.13v-1.59a99.37,99.37,0,0,0-1.48-15C402.36,325,348.94,267.8,290.81,251.59l-.07.25Z"/><path class="cls-76" d="M294.63,249.62C353.42,266,407.21,324,417.91,384.94a101,101,0,0,1,1.5,15.12v1.7c0,3.76-.26,7.47-.61,11.15C412.85,475.2,363.44,515,303.32,535.75l.09.25c60.22-20.72,109.69-60.63,115.66-123.07.35-3.68.6-7.4.6-11.17v-1.7a100.2,100.2,0,0,0-1.5-15.16C407.44,323.8,353.6,265.8,294.7,249.36Z"/><path class="cls-77" d="M298.44,247.38C358,264,412.2,322.76,423,384.51a103.41,103.41,0,0,1,1.53,15.3v1.82c0,3.77-.25,7.49-.6,11.18C418,475.92,368.16,516.3,307.25,537.29l.08.25c61-21,110.92-61.46,116.86-124.71.34-3.69.59-7.42.59-11.2V399.8a101.44,101.44,0,0,0-1.53-15.36c-10.82-61.87-65.07-120.69-124.74-137.35l-.07.26Z"/><path class="cls-78" d="M302.29,245.13c60.33,16.84,114.94,76.43,125.83,139a103.64,103.64,0,0,1,1.51,15.42v1.95c0,3.78-.25,7.51-.59,11.21-5.89,63.92-56.16,104.86-117.87,126.12l.09.25C373,517.81,423.4,476.8,429.31,412.74c.34-3.71.58-7.45.58-11.24v-1.95A104.9,104.9,0,0,0,428.34,384c-10.91-62.64-65.58-122.28-126-139.16l-.07.25Z"/><path class="cls-79" d="M306.14,242.89c61.1,17.06,116.13,77.46,127.11,140.76a106.65,106.65,0,0,1,1.56,15.65v2.06c0,3.79-.24,7.54-.58,11.26-5.85,64.73-56.6,106.22-119.06,127.76l.08.25c62.58-21.56,113.38-63.12,119.28-128,.33-3.72.57-7.48.57-11.28v-2.07a105.72,105.72,0,0,0-1.57-15.68c-11-63.42-66.09-123.87-127.3-141l-.07.25Z"/><path class="cls-80" d="M310,240.65c61.87,17.28,117.31,78.5,128.39,142.58A109,109,0,0,1,440,399v2.19c0,3.8-.23,7.56-.56,11.29-5.83,65.54-57,107.58-120.27,129.4l.09.25c63.34-21.83,114.6-64,120.44-129.62.33-3.74.56-7.51.56-11.32V399a109.54,109.54,0,0,0-1.59-15.86C427.53,319,372,257.72,310.06,240.44l-.07.26Z"/><path class="cls-81" d="M313.84,238.44c62.64,17.5,118.5,79.53,129.67,144.39a110.21,110.21,0,0,1,1.6,16v2.31c0,3.81-.23,7.59-.55,11.33-5.8,66.34-57.38,108.94-121.46,131l.08.25C387.35,521.61,439,478.94,444.85,412.44c.33-3.75.55-7.52.55-11.35v-2.32a111.62,111.62,0,0,0-1.6-16c-11.2-65-67.11-127-129.86-144.6l-.07.26Z"/><path class="cls-82" d="M317.69,236.16c63.41,17.73,119.68,80.58,131,146.21a113.72,113.72,0,0,1,1.62,16.16V401c0,3.81-.22,7.59-.54,11.33C444,479.49,392,522.63,327.11,545l.09.25C392.13,522.87,444.26,479.65,450,412.35c.32-3.75.54-7.53.54-11.35v-2.47A113.11,113.11,0,0,0,449,382.32c-11.32-65.74-67.67-128.64-131.19-146.41Z"/><path class="cls-83" d="M321.54,233.92c64.18,18,120.86,81.61,132.23,148a116.27,116.27,0,0,1,1.64,16.34v2.59c0,3.83-.22,7.61-.53,11.36-5.73,68-58.18,111.67-123.86,134.32l.09.25c65.72-22.66,118.29-66.44,124-134.54.32-3.76.53-7.55.53-11.39v-2.6A117,117,0,0,0,454,381.87c-11.37-66.49-68.1-130.21-132.37-148.2l-.07.25Z"/><path class="cls-84" d="M325.39,231.68c64.95,18.17,122.05,82.65,133.51,149.83A117.33,117.33,0,0,1,460.55,398v2.73c0,3.83-.21,7.63-.52,11.39-5.7,68.77-58.58,113-125,136l.09.26c66.51-23,119.51-67.32,125.21-136.24.31-3.77.53-7.57.53-11.41V398a118.24,118.24,0,0,0-1.7-16.58c-11.53-67.27-68.64-131.8-133.7-150l-.07.26Z"/><path class="cls-85" d="M329.24,229.44C395,247.83,452.47,313.13,464,381.08a119.9,119.9,0,0,1,1.67,16.69v2.87c0,3.83-.21,7.63-.51,11.4-5.66,69.59-59,114.39-126.25,137.6l.09.25c67.31-23.22,120.75-68.1,126.42-137.83.31-3.77.52-7.58.52-11.42v-2.88A120.34,120.34,0,0,0,464.29,381c-11.58-68.06-69.15-133.41-135-151.85l-.07.26Z"/><path class="cls-86" d="M333.09,227.19c66.48,18.62,124.42,84.73,136.07,153.46a122.21,122.21,0,0,1,1.69,16.86v3c0,3.84-.2,7.64-.5,11.41C464.72,482.31,411,527.67,342.91,551.15l.08.25c68.11-23.49,122-69,127.64-139.46.31-3.78.51-7.58.51-11.43v-3a124.51,124.51,0,0,0-1.7-16.91c-11.68-68.83-69.66-135-136.26-153.66Z"/><path class="cls-87" d="M336.94,225c67.25,18.84,125.6,85.77,137.35,155.27a127.48,127.48,0,0,1,1.71,17v3.22c0,3.84-.19,7.64-.49,11.42-5.6,71.21-59.79,117.11-128.64,140.88l.09.25c68.9-23.78,123.21-69.76,128.82-141.11.29-3.78.49-7.59.49-11.44,0-1.06,0-2.12,0-3.18a125.57,125.57,0,0,0-1.71-17.08C462.74,310.57,404.34,243.59,337,224.71l-.07.25Z"/><path class="cls-88" d="M340.79,222.71c68,19.06,126.79,86.8,138.63,157.08A129,129,0,0,1,481.15,397c0,1.11.05,2.22.05,3.32,0,3.84-.2,7.65-.49,11.43-5.56,72-60.19,118.48-129.83,142.52l.08.25c69.7-24,124.44-70.59,130-142.75.29-3.78.48-7.6.48-11.45V397a128.19,128.19,0,0,0-1.81-17.26c-11.85-70.38-70.66-138.18-138.8-157.3l-.07.26Z"/><path class="cls-89" d="M344.63,220.44c68.79,19.28,128,87.84,139.9,158.89a128.39,128.39,0,0,1,1.75,17.39c0,1.16.06,2.31.06,3.47,0,3.84-.19,7.66-.48,11.44-5.53,72.81-60.59,119.81-131,144.15l.09.25c70.46-24.3,125.68-71.39,131.19-144.35.28-3.79.47-7.61.47-11.46,0-1.16,0-2.32-.05-3.48a130.77,130.77,0,0,0-1.75-17.43c-12-71.16-71.19-139.77-140.1-159.1Z"/><path class="cls-90" d="M348.49,218.22c69.56,19.51,129.14,88.88,141.14,160.71a132.57,132.57,0,0,1,1.77,17.56q.06,1.83.06,3.63c0,3.85-.19,7.66-.47,11.44-5.49,73.64-61,121.2-132.22,145.8l.08.25c71.28-24.61,126.9-72.25,132.41-146,.28-3.79.47-7.6.47-11.46q0-1.81-.06-3.63a133.48,133.48,0,0,0-1.77-17.61C477.84,307,418.2,237.55,348.52,218l-.07.25Z"/><path class="cls-91" d="M352.34,216C422.63,235.71,482.68,305.9,494.8,378.5a133.67,133.67,0,0,1,1.83,17.74q.06,1.89.06,3.78c0,3.85-.18,7.66-.46,11.45C490.77,485.91,434.83,534,362.81,558.9l.09.25C435,534.27,491,486.07,496.5,411.49c.28-3.8.46-7.62.46-11.47,0-1.26,0-2.52-.06-3.79a136.11,136.11,0,0,0-1.83-17.79c-12.15-72.7-72.21-142.95-142.66-162.72l-.07.25Z"/><path class="cls-92" d="M356.19,213.74c71.1,19.95,131.52,90.95,143.74,164.33A136.18,136.18,0,0,1,501.74,396c0,1.32.06,2.63.06,3.94,0,3.85-.17,7.66-.45,11.45-5.43,75.25-61.8,123.92-134.61,149.07l.08.26c72.87-25.17,129.36-73.92,134.81-149.26.27-3.79.45-7.61.45-11.47,0-1.31,0-2.63-.06-3.94a139.46,139.46,0,0,0-1.81-18C488,304.54,427.48,233.44,356.26,213.44l-.07.26Z"/><path class="cls-93" d="M360,211.5c71.87,20.17,132.71,92,145,166.14a140.87,140.87,0,0,1,1.83,18.09q.06,2.07.06,4.11c0,3.84-.17,7.65-.43,11.43C501.1,487.34,444.29,536.56,370.68,562l.09.25c73.66-25.44,130.58-74.75,136-150.95.27-3.78.44-7.6.44-11.45,0-1.37,0-2.74-.07-4.12a139.52,139.52,0,0,0-1.82-18.13C493,303.34,432.1,231.44,360.11,211.24Z"/><path class="cls-94" d="M363.88,209.25c72.65,20.4,133.9,93,146.31,168A140.47,140.47,0,0,1,512,395.44c.05,1.43.08,2.86.08,4.28,0,3.84-.17,7.65-.43,11.43-5.37,76.87-62.61,126.64-137,152.35l.09.25C449.23,538,506.63,488.18,512,411.17c.27-3.79.43-7.6.43-11.45,0-1.42,0-2.85-.07-4.28a142.32,142.32,0,0,0-1.85-18.31C498,302.13,436.74,229.4,364,209l-.08.25Z"/><path class="cls-95" d="M367.74,207c73.41,20.62,135.08,94.07,147.58,169.77a146.17,146.17,0,0,1,1.86,18.44c.05,1.48.08,3,.08,4.44,0,3.83-.16,7.64-.42,11.42-5.34,77.68-63,128-138.21,154l.09.26c75.24-26,133-76.41,138.38-154.23.26-3.78.43-7.6.43-11.44,0-1.48,0-3-.08-4.45a145.06,145.06,0,0,0-1.82-18.49c-12.52-75.8-74.24-149.32-147.77-170l-.07.26Z"/><path class="cls-96" d="M371.63,204.77c74.19,20.84,136.27,95.11,148.87,171.58A147.18,147.18,0,0,1,522.38,395c.06,1.53.08,3.07.08,4.6,0,3.83-.16,7.64-.41,11.42-5.35,78.45-63.42,129.36-139.42,155.63l.09.25C458.72,540.59,517,489.63,522.3,411c.26-3.78.42-7.59.42-11.43,0-1.53,0-3.07-.08-4.61a146,146,0,0,0-1.89-18.66C508.09,299.73,446,225.44,371.63,204.51l-.07.26Z"/><path class="cls-97" d="M375.43,202.53c75,21.06,137.46,96.14,150.15,173.39a149.88,149.88,0,0,1,1.9,18.79c.06,1.6.08,3.2.08,4.79,0,3.83-.15,7.62-.4,11.39-5.27,79.3-63.82,130.73-140.6,157.27l.09.25c76.83-26.55,135.5-78.06,140.78-157.5.25-3.78.4-7.58.4-11.41,0-1.59,0-3.19-.08-4.8a150.53,150.53,0,0,0-1.91-18.83c-12.71-77.35-75.21-152.5-150.33-173.6Z"/><path class="cls-98" d="M379.28,200.28C455,221.57,517.92,297.44,530.71,375.49a154.38,154.38,0,0,1,1.92,18.95c.06,1.65.09,3.31.09,5,0,3.82-.16,7.61-.4,11.37-5.23,80.11-64.22,132.1-141.8,158.91l.09.26c77.63-26.83,136.74-78.9,142-159.15.24-3.77.39-7.57.39-11.39,0-1.66,0-3.31-.09-5a151.35,151.35,0,0,0-1.92-19C518.18,297.32,455.22,221.35,379.38,200l-.08.25Z"/><path class="cls-99" d="M383.13,198c76.5,21.51,139.83,98.22,152.71,177a155.52,155.52,0,0,1,1.94,19.14q.09,2.58.09,5.13c0,3.82-.15,7.61-.39,11.37-5.2,80.91-64.62,133.45-143,160.55l.09.25c78.42-27.11,138-79.73,143.17-160.79.24-3.76.39-7.55.39-11.38,0-1.7,0-3.42-.1-5.14A152.35,152.35,0,0,0,536.09,375c-12.9-78.9-76.28-155.68-152.89-177.23l-.08.26Z"/><path class="cls-100" d="M387,195.8c77.26,21.73,141,99.26,154,178.83A156.48,156.48,0,0,1,542.93,394c.07,1.77.1,3.55.1,5.31,0,3.81-.14,7.59-.38,11.34-5.17,81.73-65,134.84-144.2,162.19l.09.25c79.22-27.38,139.2-80.56,144.37-162.42.24-3.76.38-7.54.38-11.36,0-1.77,0-3.54-.1-5.32a159.17,159.17,0,0,0-2-19.36c-13-79.67-76.79-157.27-154.17-179l-.08.26Z"/><path class="cls-101" d="M390.83,193.56c78,21.95,142.2,100.29,155.26,180.64a161.29,161.29,0,0,1,2,19.49c.07,1.84.1,3.68.1,5.51,0,3.79-.14,7.56-.37,11.31-5.19,82.53-65.45,136.17-145.4,163.82l.09.26c80-27.67,140.42-81.4,145.56-164.07.23-3.75.37-7.52.37-11.32,0-1.84,0-3.67-.1-5.52a161.78,161.78,0,0,0-2-19.52C533.25,293.71,469,215.29,390.89,193.3l-.08.26Z"/><path class="cls-102" d="M394.68,191.31c78.8,22.18,143.38,101.34,156.54,182.46a160.24,160.24,0,0,1,2,19.67c.07,1.9.11,3.79.11,5.68,0,3.79-.14,7.55-.37,11.29-5.1,83.34-65.83,137.54-146.58,165.47l.09.25c80.8-27.94,141.65-82.22,146.76-165.7.23-3.75.37-7.51.37-11.31,0-1.89,0-3.79-.11-5.69a164.75,164.75,0,0,0-2-19.7C538.3,292.5,473.68,213.27,394.76,191.06l-.08.26Z"/><path class="cls-103" d="M398.53,189.07c79.57,22.37,144.56,102.37,157.82,184.27a167.07,167.07,0,0,1,2,19.84c.07,2,.11,3.92.11,5.87,0,3.78-.13,7.53-.36,11.26-5,84.13-66.21,138.9-147.75,167.13l.08.26c81.6-28.22,142.89-83.06,148-167.35.22-3.74.36-7.5.36-11.28,0-1.95,0-3.91-.11-5.88a167.57,167.57,0,0,0-2-19.87c-13.28-82-78.32-162-158-184.49l-.08.26Z"/><path class="cls-104" d="M402.38,186.83c80.34,22.61,145.75,103.41,159.1,186.08a169.75,169.75,0,0,1,2,20c.08,2,.11,4,.11,6.06,0,3.76-.13,7.51-.35,11.23-5,85-66.63,140.26-149,168.74l.09.26c82.39-28.5,144.11-83.89,149.15-169,.22-3.72.35-7.47.35-11.24,0-2,0-4-.12-6.07a166.42,166.42,0,0,0-2-20.05c-13.38-82.78-78.83-163.64-159.29-186.3l-.08.26Z"/><path class="cls-105" d="M406.23,184.59C487.34,207.44,553.16,289,566.63,372.44a168.73,168.73,0,0,1,2,20.19c.09,2.09.13,4.17.13,6.26,0,3.75-.13,7.48-.35,11.19-5,85.77-67,141.63-150.16,170.39l.08.25C501.52,552,563.68,496,568.68,410.1c.22-3.72.35-7.45.35-11.21q0-3.12-.13-6.27a171.53,171.53,0,0,0-2-20.22c-13.47-83.55-79.34-165.23-160.57-188.11l-.08.26Z"/><path class="cls-106" d="M1,444.79H1a.9.9,0,0,0-.77,1,.91.91,0,0,0,1,.77A.9.9,0,0,0,1,444.78ZM11.1,443.3h0a.9.9,0,0,0,.22,1.79.89.89,0,0,0,.78-1v0a.9.9,0,0,0-1-.75Zm10-1.86h0a.91.91,0,0,0-.68,1.08h0a.9.9,0,1,0,.68-1.08Zm.14-1.34h0a.9.9,0,0,0,.36-1.76l-.12,0h-.06a.9.9,0,0,0-.18,1.79Zm-10.12-.54h0a.9.9,0,1,0,0-1.8h0a.9.9,0,0,0,0,1.8ZM.9,439.44h0a.89.89,0,0,0,.9-.88h0a.9.9,0,0,0-.89-.91h0a.9.9,0,1,0,0,1.79Z"/><path class="cls-107" d="M16.07,447.71h0a.9.9,0,1,0,1,.77v0A.91.91,0,0,0,16.07,447.71ZM26,445.56h0a.9.9,0,1,0,1.11.62h0a.89.89,0,0,0-1.09-.62Zm8.53-4.12h0a.9.9,0,1,0,1.26-.19A.91.91,0,0,0,34.48,441.44Zm-5.09-4.87h0a.9.9,0,1,0-.66-1.1h0a.9.9,0,0,0,.66,1.09h0Zm-10-1.35h0a.91.91,0,0,0,1-.81h0a.91.91,0,0,0-.79-1h0a.91.91,0,0,0-1,.79h0a.91.91,0,0,0,.81,1h0Zm-10.15-.4h0a.9.9,0,1,0-.9-.9h0a.9.9,0,0,0,.9.9Z"/><path class="cls-108" d="M21.87,452.09h0a.9.9,0,1,0,1,.77v-.05A.91.91,0,0,0,21.87,452.09Zm9.85-2.25h0a.9.9,0,1,0,1.12.62A.91.91,0,0,0,31.72,449.84Zm9.1-3.88h0a.89.89,0,0,0-.26,1.23h0a.9.9,0,0,0,1.5-1,.89.89,0,0,0-1.23-.26Zm3.81-7.52h0a.9.9,0,0,0,1.75-.41V438a.91.91,0,1,0-1.75.49Zm-7-5.57h0a.9.9,0,1,0-.56-1.14A.9.9,0,0,0,37.63,432.87Zm-9.79-2h0a.91.91,0,0,0,1-.79h0a.9.9,0,0,0-.77-1h0a.9.9,0,0,0-1,.77h0a.91.91,0,0,0,.79,1Zm-10.1-.65h0a.9.9,0,1,0-.9-.9h0A.9.9,0,0,0,17.74,430.22Z"/><path class="cls-109" d="M28,456.44h0a.88.88,0,1,0,.1,0Zm9.84-2.25h0a.91.91,0,1,0,.14,0Zm9.22-3.8h0a.9.9,0,0,0-.32,1.23A.88.88,0,0,0,48,452h0a.9.9,0,1,0-.9-1.56h0Zm6.73-6.68h0a.9.9,0,0,0,1.64.74.89.89,0,0,0-.43-1.18h0a.91.91,0,0,0-1.19.46Zm-.51-8.95h0a.9.9,0,1,0,.32-1.24h0A.91.91,0,0,0,53.32,434.76ZM45.78,429h0a.93.93,0,0,0,1.18-.49.89.89,0,0,0-.49-1.17.9.9,0,1,0-.69,1.66Zm-9.64-2.52h0a.89.89,0,0,0,1-.75.9.9,0,0,0-1.79-.23.9.9,0,0,0,.78,1h0Zm-10.06-.89h0a.9.9,0,1,0-.87-.93.9.9,0,0,0,.87.93Z"/><path class="cls-110" d="M44.29,458.58h0a.9.9,0,1,0,1.12.61.9.9,0,0,0-1.12-.61Zm9.28-3.73h0a.9.9,0,0,0,.86,1.59.88.88,0,0,0,.36-1.2h0a.91.91,0,0,0-1.22-.37Zm7.66-6.08h0a.89.89,0,0,0,.12,1.25h0a.91.91,0,0,0,1.27-.13h0a.9.9,0,0,0-1.4-1.12Zm3.32-8.83h0a.9.9,0,1,0,.9-.9h0a.9.9,0,0,0-.9.9Zm-2.85-9h0a.93.93,0,1,0,1.86-.07.93.93,0,0,0-1-.89.92.92,0,0,0-.89.89ZM54,425.1h0a.91.91,0,1,0-.43-1.21h0a.9.9,0,0,0,.43,1.2h0Zm-9.51-3h0a.9.9,0,0,0,1.05-.72h0a.87.87,0,1,0-1,.72h-.05Zm-10-1.13h0a.9.9,0,0,0,.09-1.8h0a.9.9,0,0,0-.09,1.8Z"/><path class="cls-111" d="M50.86,463h0a.9.9,0,1,0,.5,1.73h0a.9.9,0,1,0-.5-1.73Zm9.32-3.66h0a.91.91,0,0,0-.38,1.22.9.9,0,1,0,.38-1.22Zm8.06-5.74h0a.91.91,0,0,0,0,1.28.9.9,0,1,0,0-1.28Zm5.22-8.17h0a.89.89,0,0,0,.55,1.13h0a.88.88,0,0,0,1.12-.54h0a.88.88,0,0,0-.54-1.12h0a.9.9,0,0,0-1.13.56Zm.65-9.62h0a.64.64,0,0,0,.61-.67.65.65,0,0,0-.67-.61.64.64,0,0,0,0,1.28v.07ZM70,427.12h0a.91.91,0,0,0,1.27.1.9.9,0,0,0,.1-1.27h0A.9.9,0,1,0,70,427.12Zm-7.77-6h0a.9.9,0,1,0-.33-1.23s0,.05,0,.08A.9.9,0,0,0,62.2,421.12Zm-9.38-3.33h0a.9.9,0,1,0-.68-1.08.91.91,0,0,0,.68,1.08Zm-10-1.37h0a.9.9,0,0,0,.09-1.8.91.91,0,0,0-.17,1.81h.08Z"/><path class="cls-112" d="M57.56,467.38h0a.9.9,0,0,0-.63,1.11h0a.89.89,0,0,0,1.09.62h0a.89.89,0,0,0,.63-1.08h0a.89.89,0,0,0-1.08-.65Zm9.35-3.57h0a.9.9,0,1,0,.94,1.53.9.9,0,0,0-.8-1.6Zm8.29-5.52h0a.9.9,0,0,0,1.18,1.36h0a.89.89,0,0,0,.08-1.26h0a.89.89,0,0,0-1.25-.1h0Zm6.2-7.63h0a.91.91,0,0,0,.36,1.22.89.89,0,0,0,1.21-.34h0a.91.91,0,0,0-.4-1.21.9.9,0,0,0-1.18.35Zm2.81-9.34h0a.83.83,0,1,0,0-.12Zm-1.08-9.72h0a.89.89,0,0,0,1.13.56.89.89,0,1,0-.57-1.69h0a.89.89,0,0,0-.57,1.12h0Zm-4.93-8.41h0a.89.89,0,0,0,1.26.07h0a.9.9,0,1,0-1.27-.06Zm-7.78-6.06h0a.9.9,0,1,0-.36-1.22h0a.89.89,0,0,0,.34,1.21Zm-9.27-3.69h0a.9.9,0,1,0-.64-1.1h0A.9.9,0,0,0,61.15,413.44Zm-9.89-1.6h0a.91.91,0,0,0,1-.81h0a.91.91,0,0,0-.79-1h0a.9.9,0,0,0-.12,1.8Z"/><path class="cls-113" d="M64.34,471.77h0a.91.91,0,0,0-.65,1.1.9.9,0,0,0,1.1.64.88.88,0,0,0,.65-1.06h0a.91.91,0,0,0-1.07-.69Zm9.39-3.47h0a.94.94,0,1,0,.14-.06l-.14.07ZM82.16,463h0a.9.9,0,0,0,1.07,1.45l.07-.06a.9.9,0,0,0,.13-1.26A.91.91,0,0,0,82.16,463Zm6.78-7.24h0a.9.9,0,1,0,1.61.81.9.9,0,0,0-1.49-1Zm4.2-8.91h0a.9.9,0,0,0,.61,1.1h0a.91.91,0,0,0,1.11-.63h0a.9.9,0,0,0-1.73-.47Zm1-9.81h0a.9.9,0,0,0,1,.84h0a.89.89,0,0,0,.85-.93h0v-.07a.89.89,0,0,0-.87-.91h0a.91.91,0,0,0-.91.88V437Zm-2.3-9.56h0a.9.9,0,0,0,1.7-.6v-.11a.9.9,0,0,0-1.7.6Zm-5.42-8.21h0a.9.9,0,1,0,0-1.28.91.91,0,0,0,0,1.26Zm-7.79-6.17h0a.89.89,0,0,0,1.2-.37v0a.85.85,0,1,0-1.5-.79v0A.9.9,0,0,0,78.63,413.06Zm-9.16-3.95h0a.91.91,0,0,0,1.12-.6A.89.89,0,0,0,70,407.4h0a.89.89,0,0,0-1.12.58h0a.91.91,0,0,0,.58,1.13Zm-9.84-1.84h0a.9.9,0,0,0,1-.76.89.89,0,0,0-.75-1h-.12a.9.9,0,0,0-.14,1.79Z"/><path class="cls-114" d="M71.19,476.14h0a.91.91,0,0,0-.65,1.1.9.9,0,0,0,1.07.65.9.9,0,0,0-.39-1.76h0Zm9.44-3.33h0a.9.9,0,0,0-.43,1.2h0a.9.9,0,1,0,.43-1.2Zm8.54-5.21h0a.9.9,0,1,0,1.26.17h0a.9.9,0,0,0-1.26-.17Zm7.14-7h0a.9.9,0,0,0,.14,1.27.89.89,0,0,0,1.25-.13h0a.91.91,0,0,0-.07-1.28h0a.89.89,0,0,0-1.25.17h-.07Zm5.09-8.52h0a.9.9,0,1,0,1.18-.48.9.9,0,0,0-1.18.48Zm2.46-9.59h0a.9.9,0,1,0,1.76.38h0v-.19a.9.9,0,0,0-.77-1h0a.91.91,0,0,0-1,.79h0Zm-.35-9.92h0a.9.9,0,1,0,1.78-.23.91.91,0,0,0-1-.78h0a.91.91,0,0,0-.73,1h0Zm-3.13-9.38h0a.9.9,0,0,0,1.64-.74v-.08a.89.89,0,0,0-1.19-.4h0a.91.91,0,0,0-.47,1.19l0,0Zm-5.75-8h0a.9.9,0,0,0,1.27,0,.91.91,0,0,0,0-1.28.89.89,0,0,0-1.26,0h0a.9.9,0,0,0,0,1.27ZM86.87,409h0a.9.9,0,0,0,1.24-.3h0a.9.9,0,1,0-1.25.3Zm-9-4.21h0a.9.9,0,0,0,.72-1.65h-.15a.9.9,0,1,0-.72,1.65Zm-9.77-2.06h0a.9.9,0,0,0,1.06-.71.91.91,0,0,0-.72-1.06h-.17a.9.9,0,0,0-1,.8.89.89,0,0,0,.73,1Z"/><path class="cls-115" d="M87.63,477.32h0a.9.9,0,0,0,.69,1.66h.07a.9.9,0,0,0-.69-1.66Zm8.62-5.09h0a.9.9,0,1,0,1.24.27l-.06-.09A.9.9,0,0,0,96.25,472.23Zm7.4-6.73h0a.91.91,0,0,0,.19,1.26.92.92,0,0,0,1.15-.07.9.9,0,0,0-1.23-1.32h0Zm5.7-8.18h0a.93.93,0,1,0,1.86-.07.93.93,0,0,0-1-.89.92.92,0,0,0-.89.89Zm3.53-9.3h0a.9.9,0,0,0,.67,1.08.89.89,0,0,0,1.08-.65h0a.9.9,0,0,0-1.73-.5h0V448Zm1.08-9.9h0a.9.9,0,1,0,.91-.89h0a.93.93,0,0,0-.89.91Zm-1.33-9.87h0a.9.9,0,0,0,1.74-.46.9.9,0,1,0-1.75.43Zm-3.77-9.19h0a.9.9,0,1,0,.33-1.23h0a.91.91,0,0,0-.34,1.23Zm-6-7.95h0a.89.89,0,0,0,1.26,0h0a.9.9,0,1,0-1.32,0h0Zm-7.74-6.3h0a.91.91,0,1,0-.25-1.26h0a.9.9,0,0,0,.26,1.25Zm-9-4.44h0a.9.9,0,1,0-.54-1.15h0a.91.91,0,0,0,.55,1.15h0Zm-9.7-2.28h0a.91.91,0,0,0,1-.79h0a.9.9,0,0,0-.77-1h0a.9.9,0,0,0-.24,1.78h0Z"/><path class="cls-116" d="M94.63,481.83h0a.9.9,0,1,0,1.19.46.91.91,0,0,0-1.19-.46Zm8.69-5h0a.9.9,0,0,0-.22,1.24h0a.83.83,0,1,0,1.42-.86,1.06,1.06,0,0,0-.17-.2.89.89,0,0,0-1-.19Zm7.58-6.57h0a.89.89,0,0,0,0,1.27.9.9,0,0,0,1.2.05l.08-.08a.9.9,0,0,0-1.3-1.24Zm6.13-7.9h0a.9.9,0,1,0,1.24-.29.9.9,0,0,0-1.24.29h0v0Zm4.32-9h0a.9.9,0,0,0,1.63.77L123,454a.9.9,0,1,0-1.63-.77Zm2.2-9.73h0a.9.9,0,0,0,.77,1h0a.9.9,0,0,0,1-.79h0a.89.89,0,0,0-.79-1,.9.9,0,0,0-1,.79h0Zm0-10h0a.91.91,0,0,0,1,.81.9.9,0,0,0,.8-1h0a.9.9,0,0,0-1-.8h0a.88.88,0,0,0-.81.95h0v.05Zm-2.09-9.75h0a.9.9,0,0,0,1.7-.58.9.9,0,0,0-1.74.47Zm-4.25-9h0a.9.9,0,0,0,1.24.29h0a.88.88,0,0,0,.3-1.21h0a.9.9,0,0,0-1.6.83ZM111,407h0a.9.9,0,1,0,0-1.19.91.91,0,0,0,0,1.19Zm-7.71-6.38h0a.9.9,0,1,0-.24-1.25h0a.88.88,0,0,0,.23,1.22h0ZM94.47,396h0a.91.91,0,0,0,1.17-.51.93.93,0,0,0-1.71-.73.91.91,0,0,0,.42,1.2Zm-9.63-2.5h0a.9.9,0,1,0-.79-1,.91.91,0,0,0,.79,1Z"/><path class="cls-117" d="M101.63,486.34h0a.9.9,0,1,0,1.18.48.9.9,0,0,0-1.18-.48Zm8.75-4.86h0a.9.9,0,0,0,1,1.48.9.9,0,0,0-.82-1.6Zm7.72-6.42h0a.9.9,0,1,0,.08-.08Zm6.45-7.69h0a.74.74,0,1,0,0-.05h0Zm4.89-8.74h0a.9.9,0,0,0,.46,1.19.89.89,0,0,0,1.18-.46.9.9,0,0,0-.45-1.19h0A.9.9,0,0,0,129.44,458.63Zm3.08-9.52h0a.89.89,0,0,0,.67,1.07h0a.89.89,0,0,0,1.07-.66h0a.9.9,0,0,0-.65-1.07.91.91,0,0,0-1.07.69Zm1.13-9.94h0a.9.9,0,1,0,.91-.92.9.9,0,0,0-.91.92v0Zm-.79-10h0a.88.88,0,0,0,.93.83.88.88,0,1,0-.93-.93Zm-2.72-9.63h0a.9.9,0,1,0,1.72-.51.09.09,0,0,0,0,0,.89.89,0,0,0-1.12-.57h-.1a.9.9,0,0,0-.48,1.11Zm-4.62-8.87h0a.91.91,0,1,0,.26-1.26h0a.89.89,0,0,0-.27,1.24v0Zm-6.3-7.79h0a.9.9,0,0,0,1.36-1.18l-.08-.08a.9.9,0,1,0-1.36,1.18Zm-7.67-6.44h0a.89.89,0,0,0,1.26-.15.9.9,0,1,0-1.41-1.11.44.44,0,0,0-.08.11A.91.91,0,0,0,111.55,396.44Zm-8.77-4.84h0a.9.9,0,1,0-.48-1.18.9.9,0,0,0,.48,1.18Zm-9.56-2.72h0a.9.9,0,0,0,.37-1.76h-.14a.9.9,0,0,0-.37,1.76Z"/><path class="cls-118" d="M108.73,490.84h0a.9.9,0,1,0,1.17.5h0A.91.91,0,0,0,108.73,490.84Zm8.81-4.74h0a.9.9,0,0,0,.88,1.57l.12-.08a.91.91,0,0,0,.25-1.25.9.9,0,0,0-1.25-.24Zm7.83-6.3h0a.9.9,0,0,0,1.24,1.3.9.9,0,1,0-1.16-1.38Zm6.69-7.51h0a.9.9,0,1,0,1.38,1.16l.05-.07a.9.9,0,1,0-1.38-1.16h0Zm5.33-8.5h0a.89.89,0,1,0,0-.08Zm3.76-9.3h0a.91.91,0,0,0,.6,1.12.89.89,0,0,0,1.11-.57h0a.9.9,0,0,0-1.72-.52Zm2-9.82h0a.9.9,0,1,0,1.79.2h0a.89.89,0,0,0-.79-1A.9.9,0,0,0,143.15,444.67Zm.26-10h0a1,1,0,1,0,0-.05ZM142,424.74h0a.9.9,0,0,0,1.08.67.91.91,0,0,0,.67-1.09.9.9,0,0,0-1.09-.66h0a.89.89,0,0,0-.66,1.07Zm-3.23-9.49h0a.9.9,0,1,0,.46-1.19.91.91,0,0,0-.46,1.19Zm-4.89-8.81h0a.9.9,0,1,0,.34-1.22l-.11.07A.9.9,0,0,0,133.83,406.44Zm-6.39-7.73h0a.9.9,0,0,0,1.28-1.27.91.91,0,0,0-1.28,0h0a.91.91,0,0,0,0,1.28Zm-7.66-6.51h0a.9.9,0,0,0,1-1.47.91.91,0,0,0-1.25.21h0a.89.89,0,0,0,.16,1.25h0Zm-8.68-5h0a.89.89,0,0,0,1.19-.4v0a.9.9,0,0,0-.41-1.2h0a.9.9,0,0,0-.74,1.64Zm-9.47-2.89h0a.89.89,0,0,0,1.07-.68.91.91,0,0,0-.68-1.08h-.13a.89.89,0,0,0-1.07.69.9.9,0,0,0,.68,1.07h.13Z"/><path class="cls-119" d="M115.85,495.32h0a.9.9,0,1,0,1.16.54A.9.9,0,0,0,115.85,495.32Zm8.86-4.6h0A.9.9,0,1,0,126,491a.9.9,0,0,0-1.25-.25Zm7.93-6.2h0a.9.9,0,0,0,0,1.27.9.9,0,1,0,.06-1.33Zm6.87-7.35h0a.9.9,0,0,0,.13,1.27.89.89,0,0,0,1.26-.13.9.9,0,0,0-.12-1.27h0a.92.92,0,0,0-1.25.14Zm5.68-8.3h0a.89.89,0,0,0,.32,1.22h0a.9.9,0,0,0,1.23-.33h0a.9.9,0,1,0-1.5-1h0Zm4.29-9.09h0a.9.9,0,1,0,1.16-.53.91.91,0,0,0-1.16.53Zm2.76-9.66h0a.9.9,0,1,0,1.71.57s0-.05,0-.08v-.14a.9.9,0,1,0-1.71-.57l0,.08Zm1.13-10h0a.9.9,0,1,0,.93-.87.9.9,0,0,0-.93.87Zm-.45-10.05h0a.9.9,0,1,0,.79-1h0a.91.91,0,0,0-.78,1Zm-2-9.83h0a.9.9,0,1,0,.61-1.12.9.9,0,0,0-.61,1.12Zm-3.63-9.36h0a.89.89,0,1,0-.07-.14Zm-5.14-8.63h0a.9.9,0,0,0,1.5-1v-.06a.9.9,0,1,0-1.5,1Zm-6.48-7.7h0a.9.9,0,1,0,1.28-1.27.91.91,0,0,0-1.28,0h0a.89.89,0,0,0-.07,1.26h.07ZM128.05,388h0a.9.9,0,1,0,1-1.46.9.9,0,0,0-1.25.2.91.91,0,0,0,.2,1.26Zm-8.6-5.17h0a.9.9,0,0,0,1.16-.52.91.91,0,0,0-.39-1.1.89.89,0,0,0-1.19.4h0a.9.9,0,0,0,.43,1.2h0ZM110,379.7h0a.88.88,0,1,0-.78-1A.9.9,0,0,0,110,379.7Z"/><path class="cls-120" d="M123,499.77h0a.9.9,0,1,0,1.14.57.9.9,0,0,0-1.14-.57Zm8.93-4.43h0a.91.91,0,1,0,1.26.27v0a.91.91,0,0,0-1.25-.25Zm8-6.1h0a.9.9,0,0,0-.19,1.26h0a.88.88,0,0,0,1.23.21l0,0,.13-.11a.9.9,0,0,0,.19-1.26h0a.88.88,0,0,0-1.23-.21l0,0Zm7-7.23h0a.9.9,0,0,0,1.38,1.16.89.89,0,0,0-.1-1.25h0a.9.9,0,0,0-1.27.1h0Zm6-8.13h0a.91.91,0,1,0,1.26-.26h0a.92.92,0,0,0-1.27.2l0,.06Zm4.72-8.89h0a.9.9,0,1,0,1.19-.46.9.9,0,0,0-1.19.46ZM161,455.5h0a.9.9,0,0,0,.63,1.11h0a.9.9,0,0,0,.49-1.74h0a.9.9,0,0,0-1.11.63h0Zm1.89-9.88h0a.9.9,0,0,0,.65,1.09.88.88,0,0,0,1.09-.65.14.14,0,0,0,0-.07v-.16a.9.9,0,0,0-.79-1h0a.9.9,0,0,0-1,.77h0Zm.39-10.05h0a.92.92,0,0,0,.93.87.9.9,0,0,0,.87-.93h0a.89.89,0,0,0-.91-.87h0a.9.9,0,0,0-.87.93h0Zm-1-10h0a.9.9,0,1,0,1.76-.38.9.9,0,0,0-1-.7.89.89,0,0,0-.76,1Zm-2.52-9.74h0a.9.9,0,1,0,1.74-.47h0v-.11a.9.9,0,0,0-1.7.58Zm-4-9.24h0a.9.9,0,0,0,1.66-.7l-.07-.13a.9.9,0,0,0-1.59.83Zm-5.33-8.54h0a.91.91,0,0,0,1.26.2.9.9,0,0,0,.19-1.26h0a.88.88,0,0,0-1.23-.21h0a.9.9,0,0,0-.29,1.24l0,0Zm-6.58-7.61h0a.89.89,0,0,0,1.26,0h0a.9.9,0,0,0-1.28-1.27h0a.9.9,0,0,0,0,1.27Zm-7.59-6.61h0a.86.86,0,0,0,1.22-.15h0a.9.9,0,1,0-1.26.18h0Zm-8.52-5.39h0a.9.9,0,1,0-.4-1.21A.91.91,0,0,0,127.73,378.44Zm-9.35-3.34h0a.89.89,0,0,0,1.07-.67h0a.91.91,0,0,0-.68-1.08h-.07a.91.91,0,0,0-1,.73.89.89,0,0,0,.72,1Z"/><path class="cls-121" d="M139.15,500h0a.9.9,0,1,0,1.24.29.9.9,0,0,0-1.24-.29Zm8.06-6h0a.91.91,0,0,0-.09,1.27.9.9,0,0,0,1.36-1.18.9.9,0,0,0-1.27-.11h0Zm7.15-7.11h0a.91.91,0,0,0,.08,1.27.89.89,0,1,0-.08-1.27Zm6.17-8h0a.9.9,0,0,0,.24,1.25h0a.91.91,0,0,0,1.25-.25.9.9,0,0,0-1.41-1.12h0Zm5.06-8.72h0a.9.9,0,0,0,1.62.79.91.91,0,0,0-.41-1.2.89.89,0,0,0-1.17.41Zm3.84-9.31h0A.9.9,0,0,0,170,462a.9.9,0,1,0,.61-1.69l-.05,0a.9.9,0,0,0-1.1.56Zm2.52-9.76h0a.9.9,0,0,0,.72,1.05h0a.9.9,0,0,0,.28-1.77h0a.89.89,0,0,0-1,.72Zm1.13-10h0a.9.9,0,1,0,.94-.86.9.9,0,0,0-.94.86ZM172.86,431h0a.9.9,0,0,0,1.8-.06v-.1a.9.9,0,1,0-1.8.06Zm-1.56-10h0a.9.9,0,1,0,.67-1.08h0a.91.91,0,0,0-.68,1.09h0Zm-2.93-9.54h0a.9.9,0,1,0,1.72-.51.09.09,0,0,0,0-.05v-.08a.9.9,0,0,0-1.68.64Zm-4.25-9.12h0a.9.9,0,0,0,1.61-.8l0-.06h0a.9.9,0,0,0-1.22-.35A.91.91,0,0,0,164.12,402.32Zm-5.49-8.51h0a.9.9,0,1,0,.18-1.26.9.9,0,0,0-.18,1.26Zm-6.58-7.63h0a.9.9,0,1,0,0-1.28.89.89,0,0,0,0,1.28Zm-7.57-6.67h0a.9.9,0,0,0,1.25-.23.89.89,0,0,0-.16-1.2.9.9,0,0,0-1.16,1.38ZM136,374.06h0a.89.89,0,0,0,1.21-.35h0a.88.88,0,1,0-1.22.37Zm-9.27-3.53h0a.9.9,0,0,0,1.06-.71h0a.9.9,0,0,0-.7-1.05h0a.89.89,0,0,0-1,.7h0a.89.89,0,0,0,.64,1.06Z"/><path class="cls-122" d="M146.4,504.58h0a.9.9,0,1,0,.88,1.57l.05,0a.89.89,0,0,0,.31-1.22h0A.91.91,0,0,0,146.4,504.58Zm8.13-5.93h0a.9.9,0,0,0,1.06,1.46l.1-.09a.9.9,0,0,0-1.16-1.37Zm7.25-7h0a.91.91,0,0,0,0,1.26h0a.87.87,0,0,0,1.24-.09.88.88,0,0,0-1.3-1.18Zm6.34-7.86h0a.9.9,0,1,0,1.26-.21.91.91,0,0,0-1.26.21Zm5.35-8.56h0a.9.9,0,1,0,1.23-.32l0,0a.91.91,0,0,0-1.18.35Zm4.24-9.15h0a.9.9,0,1,0,1.68.65.9.9,0,0,0-.5-1.17.91.91,0,0,0-1.18.5h0Zm3-9.61h0a.9.9,0,1,0,1.09-.66.9.9,0,0,0-1.09.66Zm1.78-9.93h0a.9.9,0,0,0,1.76.38v-.18a.9.9,0,1,0-1.76-.38h0Zm.49-10.07h0a.9.9,0,1,0,.9-.9h0a.9.9,0,0,0-.9.87Zm-.71-10h0a.87.87,0,1,0,0-.11v0Zm-2-9.87h0a.9.9,0,0,0,1.11.63h0a.9.9,0,0,0,.63-1.11.9.9,0,0,0-1.75.43ZM177,407.06h0a.91.91,0,0,0,1.17.5.92.92,0,0,0,.5-1.18.89.89,0,0,0-1.17-.49h0A.9.9,0,0,0,177,407Zm-4.49-9h0a.9.9,0,1,0,.33-1.23.9.9,0,0,0-.33,1.23Zm-5.6-8.38h0a.9.9,0,0,0,1.6-.83l-.07-.11-.11-.15a.9.9,0,0,0-1.6.83l.07.11Zm-6.62-7.62h0a.89.89,0,0,0,1.26,0h0a.9.9,0,1,0-1.28-.08Zm-7.54-6.71h0a.92.92,0,0,0,1.27-.16.89.89,0,0,0-.09-1.27.91.91,0,0,0-1.27.09.9.9,0,0,0,.08,1.26Zm-8.37-5.58h0a.9.9,0,1,0,1-1.5l-.12-.07a.91.91,0,0,0-1.23.35.9.9,0,0,0,.35,1.22Zm-9.2-3.72h0a.91.91,0,0,0,1.07-.69.9.9,0,0,0-.69-1.07h0a.89.89,0,0,0-1.07.67v0h0a.91.91,0,0,0,.69,1Z"/><path class="cls-123" d="M153.63,509.2h0a.9.9,0,1,0,1.23.32h0A.9.9,0,0,0,153.63,509.2Zm8.18-5.85h0a.9.9,0,1,0,1.27.11.9.9,0,0,0-1.27-.11Zm7.34-6.94h0a.9.9,0,0,0,0,1.27.89.89,0,0,0,1.26,0h0a.89.89,0,0,0,0-1.26h0a.9.9,0,0,0-1.27,0l-.07.08Zm6.5-7.74h0a.9.9,0,0,0,.18,1.26h0a.9.9,0,1,0-.18-1.26Zm5.58-8.43h0a.9.9,0,0,0,.39,1.2h0a.85.85,0,1,0,.79-1.5h0a.9.9,0,0,0-1.17.31Zm4.57-9h0a.91.91,0,0,0,.46,1.19h0a.88.88,0,0,0,1.17-.45h0a.9.9,0,0,0-1.65-.72h0Zm3.49-9.47h0a.9.9,0,0,0,1.73.51.91.91,0,0,0-.59-1.11h0a.91.91,0,0,0-1.14.6Zm2.33-9.82h0a.9.9,0,0,0,1.77.31.92.92,0,0,0-.74-1,.89.89,0,0,0-1,.69Zm1.12-10h0a.91.91,0,0,0,.85.94.9.9,0,0,0,.95-.85h0a.9.9,0,0,0-1.8-.09Zm-.05-10.1h0a.89.89,0,0,0,.93.85h.07a.9.9,0,0,0,.84-.95v-.05a.9.9,0,0,0-1.8,0v.15Zm-1.22-10h0a.91.91,0,0,0,1,.78.9.9,0,1,0-.23-1.79h-.06a.88.88,0,0,0-.68,1Zm-2.41-9.8h0a.9.9,0,1,0,1.73-.5h0a.9.9,0,0,0-1.72.53Zm-3.57-9.43h0a.94.94,0,1,0,1.88-.05.94.94,0,0,0-1.88,0Zm-4.69-8.94h0a.91.91,0,0,0,1.24.3.89.89,0,0,0,.31-1.22h0a.9.9,0,1,0-1.57.88l0,.05Zm-5.71-8.33h0a.89.89,0,0,0,1.25.17h0a.9.9,0,0,0-.88-1.57l-.12.08-.09.07a.89.89,0,0,0-.12,1.22Zm-6.65-7.6h0a.89.89,0,0,0,1.26,0h0a.93.93,0,1,0-1.36-.09l.08.08ZM160.93,371h0a.9.9,0,0,0,1.27-.14.89.89,0,0,0-.13-1.25h0a.91.91,0,0,0-1.27.13h0a.88.88,0,0,0,.18,1.22Zm-8.3-5.73h0a.9.9,0,1,0-.33-1.23.9.9,0,0,0,.33,1.23Zm-9.11-3.92h0a.9.9,0,0,0,1.08-.65h0a.9.9,0,0,0-.68-1.08.9.9,0,0,0-.42,1.75Z"/><path class="cls-124" d="M161,513.82h0a.9.9,0,0,0,.79,1.62h0l.1-.06a.9.9,0,0,0-.79-1.62h0Zm8.24-5.77h0a.9.9,0,1,0,1.07,1.45h0l.07-.06a.89.89,0,0,0,.06-1.27.91.91,0,0,0-1.2-.12Zm7.41-6.86h0a.9.9,0,0,0-.12,1.27.91.91,0,0,0,1.27.12l.07-.07.08-.08a.9.9,0,0,0-1.3-1.24Zm6.62-7.65h0a.9.9,0,1,0,1.26-.16h0a.89.89,0,0,0-1.25.15h0Zm5.77-8.3h0a.9.9,0,1,0,1.46,1.05.9.9,0,0,0-.2-1.25l-.11-.07a.9.9,0,0,0-1.15.27Zm4.87-8.87h0a.91.91,0,1,0,0-.08Zm3.86-9.33h0a.9.9,0,0,0,1.69.63h0a.9.9,0,0,0-1.7-.59Zm2.8-9.7h0a.9.9,0,0,0,1.75.4.9.9,0,0,0-.61-1.12.91.91,0,0,0-1.11.59Zm1.68-10h0a.9.9,0,1,0,1-.79.91.91,0,0,0-1,.79Zm.56-10.08h0a.9.9,0,1,0,.9-.9h0a.9.9,0,0,0-.9.9Zm-.53-10.09h0a.89.89,0,0,0,1,.79h0a.9.9,0,0,0,.8-1h0a.9.9,0,0,0-1-.79h0a.89.89,0,0,0-.8,1Zm-1.64-10h0a.9.9,0,1,0,.69-1.07h0a.9.9,0,0,0-.65,1.07Zm-2.74-9.73h0a.9.9,0,1,0,.56-1.15.91.91,0,0,0-.6,1.13v.09ZM194,398.09h0a.9.9,0,0,0,1.2.43h0a.91.91,0,0,0,.4-1.1.9.9,0,0,0-1.2-.43h0a.89.89,0,0,0-.4,1.17Zm-4.86-8.86h0a.9.9,0,1,0,.29-1.24.9.9,0,0,0-.29,1.24l0,0ZM183.36,381h0a.9.9,0,1,0,1.42-1.11h0a.91.91,0,1,0-1.43,1.12h0Zm-6.67-7.52h0a.9.9,0,0,0,1.36-1.18h0l-.08-.08a.9.9,0,0,0-1.27.07A.91.91,0,0,0,176.69,373.44Zm-7.47-6.8h0a.9.9,0,1,0-.14-1.3.89.89,0,0,0,.14,1.3ZM161,360.83h0a.91.91,0,0,0,1-1.51h0a.91.91,0,1,0-1,1.51Zm-9-4.1h0a.9.9,0,1,0,.44-1.74.88.88,0,0,0-1.09.64A.91.91,0,0,0,152,356.73Z"/><path class="cls-125" d="M168.27,518.44h0a.9.9,0,1,0,1.23.38h0a.92.92,0,0,0-1.23-.38Zm8.29-5.67h0a.89.89,0,0,0-.15,1.24h0a.89.89,0,0,0,1.25.15h0a.89.89,0,0,0,.18-1.24v0a.91.91,0,0,0-1.26-.18ZM184,506h0a.89.89,0,0,0,.09,1.27h0a.9.9,0,0,0,1.19,0,.91.91,0,0,0,.12-1.27.9.9,0,0,0-1.27-.11l0,0Zm6.72-7.57h0a.91.91,0,0,0,.13,1.27h0a.89.89,0,0,0,1.25-.13h0a.9.9,0,0,0-1.4-1.13Zm5.94-8.19h0A.91.91,0,1,0,198,490h0a.9.9,0,0,0-1.25.24Zm5.1-8.74h0a.91.91,0,0,0,.38,1.22.92.92,0,0,0,1.22-.39.9.9,0,0,0-1.6-.83Zm4.19-9.2h0a.9.9,0,1,0,1.68.65.9.9,0,0,0-.51-1.16h0a.9.9,0,0,0-1.16.49Zm3.2-9.58h0a.89.89,0,0,0,.62,1.1h0a.9.9,0,1,0,.47-1.74.9.9,0,0,0-1.1.63Zm2.18-9.87h0a.9.9,0,1,0,1.12-.8.91.91,0,0,0-1.1.65Zm1.11-10.05h0a.89.89,0,0,0,.83,1h0a.91.91,0,0,0,1-.79v-.05a.9.9,0,0,0-1.8-.11Zm.07-10.1h0a.9.9,0,1,0,1.8.09v-.17a.9.9,0,0,0-1.8-.09Zm-1-10.06h0a.89.89,0,1,0,.76-1,.89.89,0,0,0-.76,1Zm-2-9.91h0a.91.91,0,0,0,1.1.65.9.9,0,0,0,.64-1.1.89.89,0,0,0-1.06-.65h0a.91.91,0,0,0-.69,1.07Zm-3-9.63h0a.9.9,0,0,0,1.8-.13.91.91,0,0,0-1-.83.89.89,0,0,0-.83.83Zm-4.06-9.26h0a.9.9,0,1,0,.4-1.21A.91.91,0,0,0,202.49,393.81Zm-5-8.78h0a.9.9,0,0,0,1.23.38.92.92,0,0,0,.38-1.23L199,384a.91.91,0,0,0-1.61.85A1.3,1.3,0,0,0,197.49,385Zm-5.86-8.25h0a.89.89,0,0,0,1.25.15h0a.89.89,0,0,0,.15-1.25h0a.89.89,0,0,0-1.25-.15h0a.89.89,0,0,0-.17,1.25Zm-6.69-7.59h0a.9.9,0,1,0,1.28-1.27h0a.91.91,0,0,0-1.28,0h0a.9.9,0,0,0-.05,1.26h.05Zm-7.44-6.84h0a.9.9,0,0,0,1.27-.1.89.89,0,0,0-.1-1.26l0,0a.92.92,0,0,0-1.29.12.91.91,0,0,0,.12,1.28h0Zm-8.22-5.91h0a.9.9,0,1,0-.29-1.24.9.9,0,0,0,.29,1.24Zm-9-4.29h0a.87.87,0,1,0-.63-1.13h0a.9.9,0,0,0,.63,1.11h0Z"/><path class="cls-126" d="M175.63,523h0a.9.9,0,1,0,1.21.4A.91.91,0,0,0,175.63,523Zm8.34-5.56h0a.92.92,0,0,0-.15,1.27.9.9,0,0,0,1.27.14.9.9,0,0,0-1.12-1.41Zm7.53-6.74h0a.9.9,0,1,0,.08-.08Zm6.81-7.49h0a.9.9,0,1,0,1.27-.06l-.07-.06a.91.91,0,0,0-1.2.12Zm6.09-8.1h0a.9.9,0,0,0,1.34,1.2v0l.13-.18a.9.9,0,0,0-1.36-1.18h0Zm5.3-8.62h0a.9.9,0,0,0,1.57.87.9.9,0,1,0-1.5-1h0Zm4.43-9.06h0a.9.9,0,0,0,1.6.82l.05-.11a.9.9,0,0,0-1.65-.71Zm3.56-9.47h0a.9.9,0,1,0,1.15-.57h0a.91.91,0,0,0-1.15.56Zm2.6-9.77h0a.9.9,0,0,0,1.76.4h0a.9.9,0,0,0-1.76-.37Zm1.61-10h0a.9.9,0,1,0,1-.8A.9.9,0,0,0,221.9,448.2Zm.61-10.1h0a.9.9,0,1,0,.9-.9h0a.9.9,0,0,0-.9.9ZM222.14,428h0a.9.9,0,0,0,1.8-.12.9.9,0,0,0-1.8,0Zm-1.34-10h0a.91.91,0,0,0,1,.78.9.9,0,0,0-.23-1.79h-.06A.89.89,0,0,0,220.8,418Zm-2.33-9.83h0a.9.9,0,1,0,.61-1.12.9.9,0,0,0-.61,1.12Zm-3.31-9.56h0a.9.9,0,1,0,1.73-.5l-.07-.17a.92.92,0,0,0-1.19-.49h0a.88.88,0,0,0-.5,1.15h0Zm-4.25-9.16h0a.9.9,0,1,0,1.6-.83.9.9,0,0,0-1.21-.38h0A.9.9,0,0,0,210.91,389.44Zm-5.14-8.71h0a.9.9,0,1,0,.26-1.25.91.91,0,0,0-.26,1.21Zm-6-8.19h0a.89.89,0,0,0,1.25.15h0a.88.88,0,0,0,.13-1.26.9.9,0,1,0-1.4,1.12Zm-6.7-7.58h0a.85.85,0,1,0-.09-.08Zm-7.42-6.89h0a.9.9,0,0,0,1.27,0,.91.91,0,0,0,0-1.28l-.09-.07a.9.9,0,0,0-1.25.1h0a.9.9,0,0,0,.11,1.27h0Zm-8.11-6h0a.91.91,0,1,0-.24-1.26h0a.89.89,0,0,0,.28,1.24h0Zm-8.89-4.47h0a.9.9,0,1,0,.62-1.69h-.1a.9.9,0,0,0-.52,1.72Z"/><path class="cls-127" d="M182.94,527.57h0a.9.9,0,0,0,.69,1.66h.05a.9.9,0,0,0-.74-1.64Zm8.39-5.42h0a.91.91,0,0,0-.15,1.27.89.89,0,0,0,1.25.16h0a.89.89,0,0,0,.16-1.25h0a.9.9,0,0,0-1.26-.18Zm7.58-6.69h0a.85.85,0,1,0,.08-.09ZM205.8,508h0a.9.9,0,1,0,1.27-.11.9.9,0,0,0-1.27.11Zm6.21-8h0a.9.9,0,1,0,1.26-.21h0A.89.89,0,0,0,212,500h0Zm5.48-8.52h0a.89.89,0,0,0,.37,1.2h0a.9.9,0,0,0,1.16-.3.9.9,0,1,0-1.5-1h0Zm4.7-9h0a.9.9,0,0,0,.42,1.19h0a.9.9,0,0,0,1.2-.43h0a.89.89,0,1,0-1.62-.76Zm3.86-9.36h0a.9.9,0,0,0,.52,1.15h0a.89.89,0,0,0,1.14-.51h0a.9.9,0,0,0-1.69-.61Zm3-9.67h0a.91.91,0,0,0,.65,1.1.9.9,0,0,0,1.09-.65.91.91,0,0,0-.65-1.1.9.9,0,0,0-1.09.61Zm2-9.91h0a.88.88,0,1,0,1-.74h0A.9.9,0,0,0,231.1,453.57Zm1.1-10.05h0a.9.9,0,0,0,.85,1,.9.9,0,1,0-.85-1Zm.16-10.12h0a.9.9,0,1,0,.88-.92h0a.89.89,0,0,0-.87.91v0Zm-.73-10.06h0a.9.9,0,1,0,.79-1A.91.91,0,0,0,231.63,423.34Zm-1.69-10h0a.9.9,0,1,0,.69-1.07.89.89,0,0,0-.69,1.07Zm-2.63-9.77h0a.9.9,0,1,0,.58-1.13h0a.9.9,0,0,0-.59,1.12Zm-3.54-9.47h0a.91.91,0,0,0,1.18.47.9.9,0,0,0,.48-1.17h0a.9.9,0,0,0-1.18-.48h0a.92.92,0,0,0-.48,1.18ZM219.35,385h0a.9.9,0,0,0,1.61-.8v-.06a.9.9,0,0,0-1.58.86Zm-5.24-8.66h0a.9.9,0,1,0,.24-1.25.91.91,0,0,0-.31,1.25h.07Zm-6-8.15h0a.9.9,0,1,0,.14-1.3.9.9,0,0,0-.14,1.3Zm-6.72-7.58h0a.92.92,0,0,0,1.27,0,.9.9,0,0,0-1.27-1.28A.91.91,0,0,0,201.39,360.6ZM194,353.67h0a.9.9,0,1,0-.1-1.27.9.9,0,0,0,.1,1.27Zm-8.05-6.1h0a.9.9,0,0,0,1.25-.25.9.9,0,0,0-1.5-1,.89.89,0,0,0,.25,1.25Zm-8.8-4.64h0a.9.9,0,1,0,.78-1.62l-.12-.05h-.11a.89.89,0,0,0-1.13.56h0a.9.9,0,0,0,.57,1.14h0Z"/><path class="cls-128" d="M198.74,526.86h0a.9.9,0,0,0-.16,1.26.89.89,0,0,0,1.25.17h0A.89.89,0,0,0,200,527h0A.9.9,0,0,0,198.74,526.86Zm7.62-6.65h0a.9.9,0,1,0,1.26,1.29h0a.9.9,0,1,0-1.26-1.29Zm7-7.37h0a.91.91,0,0,0,.09,1.27.9.9,0,1,0,1.18-1.36h0a.91.91,0,0,0-1.27.09Zm6.31-7.93h0a.9.9,0,0,0,.2,1.25.88.88,0,0,0,1.23-.17h0a.9.9,0,0,0-.19-1.26h0a.92.92,0,0,0-1.28.17h0Zm5.63-8.43h0a.9.9,0,1,0,1.24-.3.91.91,0,0,0-1.24.3Zm4.91-8.86h0a.89.89,0,0,0,.45,1.18h0a.86.86,0,0,0,.81-1.52l-.12,0a.92.92,0,0,0-1.15.39Zm4.13-9.25h0a.91.91,0,0,0,.51,1.17A.9.9,0,0,0,236,479h0a.88.88,0,0,0-.48-1.15h0a.92.92,0,0,0-1.19.48Zm3.31-9.57h0a.9.9,0,1,0,1.68.65v-.14a.9.9,0,0,0-.6-1.11h0a.91.91,0,0,0-1.1.6Zm2.44-9.82h0a.9.9,0,0,0,1.73.49v-.14a.89.89,0,0,0-.68-1.05h0a.9.9,0,0,0-1.06.68Zm1.55-10h0a.9.9,0,1,0,1-.8.9.9,0,0,0-1,.8h0Zm.64-10.1h0a.9.9,0,1,0,.92-.88.9.9,0,0,0-.92.88ZM242,428.76h0a.9.9,0,0,0,1.79-.2.91.91,0,0,0-1-.8h0a.9.9,0,0,0-.84.95v.05h0Zm-1.11-10.06h0a.9.9,0,0,0,.76,1,1,1,0,0,0-.06-2,.9.9,0,0,0-.75,1Zm-2-9.92h0a.64.64,0,0,0,.61-.67.65.65,0,0,0-.67-.61.64.64,0,0,0,0,1.28h.06Zm-2.89-9.7h0a.9.9,0,0,0,1.15.55h0a.88.88,0,0,0,.56-1.11h0a.9.9,0,0,0-1.14-.56.92.92,0,0,0-.62,1.13h0Zm-3.75-9.4h0a.64.64,0,0,0,.61-.67.65.65,0,0,0-.67-.61.64.64,0,0,0,0,1.28h.06Zm-4.57-9h0a.9.9,0,1,0,.36-1.22h0a.91.91,0,0,0-.34,1.21Zm-5.34-8.61h0a.9.9,0,0,0,1.57-.88l-.08-.12a.9.9,0,0,0-1.49,1ZM216.32,364h0a.89.89,0,0,0,1.25.15l0,0h0a.9.9,0,0,0,.14-1.25h0a.9.9,0,0,0-1.4,1.13Zm-6.69-7.58h0a.9.9,0,1,0,1.28-1.27.91.91,0,0,0-1.28,0h0a.89.89,0,0,0,0,1.23Zm-7.36-7h0a.9.9,0,0,0,1.27-.1h0a.9.9,0,0,0-.09-1.26h0a.88.88,0,0,0-1.24.07h0a.89.89,0,0,0,0,1.26h.06Zm-8-6.19h0a.89.89,0,0,0,1.26-.15.9.9,0,1,0-1.41-1.11.44.44,0,0,0-.08.11.91.91,0,0,0,.2,1.15Zm-8.72-4.82h0a.9.9,0,1,0-.55-1.15.9.9,0,0,0,.55,1.15Z"/><path class="cls-129" d="M206.17,531.57h0a.9.9,0,1,0,1.26.16h0a.89.89,0,0,0-1.25-.17h0Zm7.66-6.61h0a.9.9,0,0,0,1.24,1.3.9.9,0,0,0-1.16-1.38h0Zm7-7.32h0a.9.9,0,1,0,1.27-.08.91.91,0,0,0-1.27.08Zm6.4-7.87h0a.9.9,0,1,0,1.26-.18.9.9,0,0,0-1.26.18Zm5.77-8.34h0a.91.91,0,1,0,1.26-.25h0a.9.9,0,0,0-1.25.27Zm5.08-8.77h0a.91.91,0,0,0,.38,1.22.9.9,0,0,0,1.21-.38.88.88,0,0,0-.34-1.2h0a.91.91,0,0,0-1.24.34v0Zm4.37-9.14h0a.9.9,0,1,0,1.18-.48.91.91,0,0,0-1.18.48Zm3.6-9.47h0a.9.9,0,1,0,1.14-.57.9.9,0,0,0-1.14.57Zm2.79-9.74h0a.9.9,0,0,0,1.75.43.92.92,0,0,0-.67-1.09.9.9,0,0,0-1.08.65h0Zm1.94-9.93h0a.88.88,0,1,0,1-.77.9.9,0,0,0-1,.77Zm1.09-10.07h0a.91.91,0,0,0,.79,1h.05a.91.91,0,0,0,1-.81h0a.9.9,0,0,0-1.8-.12Zm.24-10.12h0a.86.86,0,0,0,.86.88h0a.89.89,0,0,0,.88-.9h0a.9.9,0,0,0-.9-.88h0a.88.88,0,0,0-.88.86v0Zm-.6-10.11h0a.89.89,0,1,0,1.77-.23.89.89,0,0,0-1.77.22Zm-1.45-10h0a.9.9,0,1,0,.72-1.05.9.9,0,0,0-.72,1.05Zm-2.28-9.86h0a.9.9,0,1,0,.62-1.11h0a.89.89,0,0,0-.62,1.09Zm-3.15-9.66h0a.9.9,0,1,0,.54-1.15h0A.89.89,0,0,0,244.63,394.56Zm-3.93-9.33h0a.9.9,0,1,0,.43-1.2.9.9,0,0,0-.43,1.2Zm-4.71-9h0a1,1,0,1,0-.07-.14l.08.14Zm-5.36-8.53h0a.86.86,0,1,0-.12-.18Zm-6.1-8.1h0a.9.9,0,0,0,1.25.14h0a.89.89,0,0,0,.15-1.25l0,0h0a.9.9,0,0,0-1.25-.25h0a.89.89,0,0,0-.25,1.23h0l.11.14ZM217.8,352h0a.9.9,0,0,0,1.37-1.17l-.08-.08a.92.92,0,0,0-1.27,0,.89.89,0,0,0,0,1.26h0Zm-7.34-7h0a.9.9,0,0,0,1.27,0,.91.91,0,0,0,0-1.28h0a.9.9,0,0,0-1.27.11h0a.9.9,0,0,0,0,1.22Zm-7.94-6.27h0a.83.83,0,1,0,1-1.31,1.18,1.18,0,0,0-.19-.11.93.93,0,0,0-1,.2.91.91,0,0,0,.18,1.22Zm-8.64-5h0a.9.9,0,1,0-.55-1.21.9.9,0,0,0,.47,1.18h0Z"/><path class="cls-130" d="M213.63,536.27h0a.9.9,0,1,0,1.26.18h0A.91.91,0,0,0,213.63,536.27Zm7.69-6.56h0a.9.9,0,0,0,1.24,1.3.9.9,0,0,0-1.16-1.38Zm7.07-7.28h0a.9.9,0,1,0,1.3,1.25h0v0a.9.9,0,0,0-1.34-1.2Zm6.48-7.8h0a.9.9,0,1,0,1.26-.17h0a.89.89,0,0,0-1.25.14h0Zm5.88-8.27h0a.9.9,0,0,0,.24,1.24h0a.89.89,0,0,0,1.24-.23v0h0a.91.91,0,0,0-.26-1.25h0a.89.89,0,0,0-1.23.25Zm5.24-8.68h0a.9.9,0,1,0,1.22-.36h0a.89.89,0,0,0-1.22.36Zm4.58-9.05h0a.9.9,0,1,0,1.56.9v0l.06-.13a.88.88,0,0,0-.52-1.14h0a.88.88,0,0,0-1.09.4Zm3.85-9.37h0a.9.9,0,0,0,1.69.62.9.9,0,0,0-.54-1.16h0a.89.89,0,0,0-1.15.5v0h0Zm3.1-9.65h0a.9.9,0,0,0,1.7.6v-.12a.91.91,0,0,0-.63-1.11.9.9,0,0,0-1.07.63Zm2.3-9.86h0a.9.9,0,1,0,1.05-.72.9.9,0,0,0-1.05.72Zm1.49-10h0a.9.9,0,1,0,1-.81h0a.92.92,0,0,0-1,.8Zm.68-10.11h0a.91.91,0,0,0,.78,1,.9.9,0,0,0,1-.77h0v-.18a.9.9,0,0,0-1-.83h0a.91.91,0,0,0-.78.79Zm-.14-10.13h0a.89.89,0,1,0,.86-.92h0a.89.89,0,0,0-.85.93h0Zm-1-10.07h0a.87.87,0,1,0,0-.11v0Zm-1.74-10h0a.91.91,0,0,0,1.07.69.9.9,0,0,0,.69-1.07h0a.9.9,0,0,0-1.07-.69h0a.91.91,0,0,0-.64,1.07Zm-2.48-9.8h0a.9.9,0,0,0,1.13.58.9.9,0,0,0-.53-1.72.9.9,0,0,0-.61,1.12Zm-3.34-9.57h0a.91.91,0,0,0,1.17.51.9.9,0,0,0-.66-1.68.91.91,0,0,0-.52,1.17Zm-4.1-9.27h0a.9.9,0,1,0,1.62-.79h0a.9.9,0,0,0-1.62.79Zm-4.82-8.91h0a.89.89,0,0,0,1.22.32h0a.9.9,0,0,0,.32-1.23.89.89,0,0,0-1.23-.31.9.9,0,0,0-.32,1.23Zm-5.5-8.52h0a.9.9,0,1,0,1.63-.77h0l-.16-.23a.91.91,0,0,0-1.48,1Zm-6.14-8.07h0a.89.89,0,0,0,1.26.07h0a.9.9,0,1,0-1.33-.13ZM226,347.72h0a.91.91,0,0,0,1.28,0,.9.9,0,0,0-1.27-1.27.91.91,0,0,0,0,1.28Zm-7.3-7h0a.89.89,0,0,0,1.27,0,.9.9,0,0,0,0-1.28h0l-.13-.11a.91.91,0,0,0-1.28,0,.9.9,0,0,0,0,1.27Zm-7.89-6.35h0a.9.9,0,1,0,1-1.46.9.9,0,0,0-1.25.2.91.91,0,0,0,.19,1.26Zm-8.56-5.16h0a.89.89,0,0,0,1.19-.45.9.9,0,0,0-.37-1.15l-.14-.06a.9.9,0,0,0-.9,1.56l.08,0Z"/><path class="cls-131" d="M221.06,541h0a.9.9,0,1,0,1.26.18.9.9,0,0,0-1.26-.18Zm7.73-6.53h0a.9.9,0,1,0,1.34,1.2.89.89,0,0,0,0-1.2.88.88,0,0,0-1.25-.11h0Zm7.11-7.24h0a.9.9,0,0,0,0,1.26h0a.9.9,0,0,0,1.27-.06.89.89,0,1,0-1.32-1.2Zm6.54-7.75h0a.88.88,0,0,0,.14,1.25h0a.89.89,0,0,0,1.26-.14h0a.9.9,0,0,0-1.42-1.11Zm6-8.2h0a.9.9,0,0,0,1.49,1,.9.9,0,0,0-1.41-1.12Zm5.39-8.6h0a.9.9,0,1,0,1.23-.33.9.9,0,0,0-1.23.33Zm4.76-9h0a.9.9,0,1,0,1.2-.42h0a.9.9,0,0,0-1.16.42Zm4-9.23h0a.9.9,0,0,0,1.62.78l.05-.12a.9.9,0,0,0-.23-1.25.91.91,0,0,0-1.26.23.93.93,0,0,0-.14.36Zm3.37-9.56h0a.9.9,0,0,0,.58,1.13.89.89,0,0,0,1.13-.57v0a.9.9,0,0,0-.61-1.12h0a.91.91,0,0,0-1.07.59Zm2.63-9.79h0a.9.9,0,0,0,.61,1.12.91.91,0,0,0,1.11-.59v-.13a.9.9,0,0,0-1.75-.4Zm1.86-10h0a.9.9,0,1,0,1.78.27h0a.9.9,0,0,0-.76-1h0a.9.9,0,0,0-1,.77v0Zm1.14-10h0a.92.92,0,0,0,1.84.14v0a.91.91,0,0,0-.79-1h0a.91.91,0,0,0-1,.81Zm.3-10.13h0a.9.9,0,0,0,1.79.19V435a.92.92,0,0,0-.91-.9.9.9,0,0,0-.89.91h0Zm-.47-10.13h0a.9.9,0,0,0,1,.83h0a.91.91,0,0,0,.82-1h0a.9.9,0,0,0-1-.82h0a.88.88,0,0,0-.82.94h0v0Zm-1.24-10.05h0a.92.92,0,1,0,.86-1h-.15a.9.9,0,0,0-.76,1h0Zm-2-9.93h0a.9.9,0,1,0,.66-1.09.9.9,0,0,0-.66,1.09Zm-2.78-9.75h0a.92.92,0,0,0,1.14.58.9.9,0,0,0,.57-1.14h0a.9.9,0,0,0-1.71.56Zm-3.52-9.5h0a.88.88,0,0,0,1.15.5h0a.88.88,0,1,0-1.17-.49Zm-4.25-9.2h0a.9.9,0,1,0,.39-1.21h0a.9.9,0,0,0-.44,1.19h.05Zm-4.93-8.86h0a.91.91,0,0,0,1.24.3.92.92,0,1,0-1.27-.35Zm-5.57-8.48h0a.9.9,0,0,0,1.24.22h0a.83.83,0,0,0,.29-1.15.83.83,0,0,0-1.34-.14.89.89,0,0,0-.2,1ZM241,351h0a.9.9,0,0,0,1.27.12h0A.9.9,0,1,0,241,351Zm-6.74-7.59h0a.9.9,0,1,0,0-1.28A.91.91,0,0,0,234.22,343.42Zm-7.28-7.07h0a.9.9,0,1,0,1.22-1.33h0a.9.9,0,0,0-1.27.07.89.89,0,0,0,0,1.26h.05Zm-7.83-6.43h0a.9.9,0,0,0,1.26-.19h0a.86.86,0,0,0-.15-1.22h0a.89.89,0,0,0-1.25.16h0a.91.91,0,0,0,.12,1.26Zm-8.48-5.36h0a.9.9,0,1,0-.46-1.19.91.91,0,0,0,.46,1.19Z"/><path class="cls-132" d="M228.54,545.7h0a.9.9,0,0,0,0,1.27.89.89,0,0,0,1,.19.9.9,0,0,0,0-1.27A.89.89,0,0,0,228.54,545.7Zm7.75-6.49h0a.9.9,0,0,0-.06,1.26h0a.92.92,0,0,0,1.3-.1.93.93,0,0,0,0-1.17.9.9,0,0,0-1.26-.06h0Zm7.14-7.21h0a.9.9,0,0,0,1.17,1.37l.08-.08.07-.07a.9.9,0,0,0-1.32-1.22Zm6.61-7.7h0a.9.9,0,0,0,.14,1.27.89.89,0,0,0,1.25-.13h0a.91.91,0,0,0-.13-1.27h0a.89.89,0,0,0-1.25.13Zm6.07-8.14h0a.89.89,0,1,0,1.25-.25.89.89,0,0,0-1.25.25h0Zm5.52-8.52h0a.9.9,0,0,0,1.62.79.9.9,0,0,0-1.54-.92Zm4.92-8.88h0a.89.89,0,1,0,0-.08Zm4.28-9.19h0a.9.9,0,1,0,1.18-.48.9.9,0,0,0-1.18.48Zm3.62-9.48h0a.9.9,0,0,0,.56,1.14.91.91,0,0,0,1.15-.56.9.9,0,0,0-.56-1.14.91.91,0,0,0-1.16.56h0Zm2.92-9.71h0a.9.9,0,0,0,.64,1.1.89.89,0,0,0,1.09-.62h0a.9.9,0,0,0-.66-1.09h0a.89.89,0,0,0-1.07.61Zm2.19-9.89h0a.9.9,0,0,0,1.77.28h0a.88.88,0,0,0-.67-1.06h0a.91.91,0,0,0-1.07.68v.11Zm1.44-10h0a.91.91,0,0,0,.79,1h0a.9.9,0,0,0,1-.77h0a.9.9,0,1,0-1.79-.19Zm.7-10.11h0a.91.91,0,0,0,1,.8.89.89,0,0,0,.8-.8.9.9,0,1,0-1.79-.19h0Zm-.07-10.17h0a.9.9,0,1,0,1.8.09h0v-.17a.9.9,0,0,0-1.8-.09Zm-.78-10.11h0a.9.9,0,1,0,.79-1A.91.91,0,0,0,280.85,420.1Zm-1.52-10h0a.9.9,0,0,0,1.05.72h0a.91.91,0,0,0,.72-1.06.9.9,0,0,0-1.05-.72h0A.91.91,0,0,0,279.33,410.1Zm-2.26-9.88h0a.9.9,0,0,0,1.11.63.9.9,0,0,0-.48-1.74A.91.91,0,0,0,277.07,400.22Zm-3-9.69h0a.91.91,0,0,0,1.15.56.9.9,0,0,0,.55-1.15h0a.88.88,0,0,0-1.11-.56h0a.9.9,0,0,0-.6,1.12Zm-3.69-9.44h0a.9.9,0,0,0,1.17.48h0a.9.9,0,1,0-.71-1.66h0A.9.9,0,0,0,270.38,381.09ZM266,372h0a.9.9,0,1,0,.38-1.22A.91.91,0,0,0,266,372Zm-5-8.81h0a.9.9,0,1,0,.29-1.24.9.9,0,0,0-.29,1.24Zm-5.63-8.44h0a.9.9,0,1,0,.2-1.26h0a.9.9,0,0,0-.2,1.24Zm-6.2-8h0a.91.91,0,0,0,1.26.2.9.9,0,0,0,.19-1.26h0l-.07-.09a.91.91,0,0,0-1.26-.2.9.9,0,0,0-.19,1.26h0Zm-6.74-7.59h0a.9.9,0,0,0,1.28-1.27.91.91,0,0,0-1.28,0h0a.89.89,0,0,0,0,1.26Zm-7.25-7.1h0a.91.91,0,0,0,1.27-.06.9.9,0,1,0-1.27.06Zm-7.78-6.57h0a.9.9,0,1,0-.17-1.26h0A.9.9,0,0,0,227.39,325.44ZM219,320h0a.9.9,0,1,0,.77-1.62.89.89,0,0,0-1.19.41A.9.9,0,0,0,219,320Z"/><path class="cls-133" d="M236,550.44h0a.9.9,0,1,0,1.26.22A.91.91,0,0,0,236,550.44Zm7.77-6.46h0a.91.91,0,0,0,0,1.28.9.9,0,0,0,1.27,0,.91.91,0,0,0,.05-1.27.92.92,0,0,0-1.28,0Zm7.18-7.17h0a.89.89,0,0,0,0,1.26h0a.88.88,0,0,0,1.24-.07.89.89,0,0,0-.07-1.25.89.89,0,0,0-1.22,0Zm6.66-7.67h0a.9.9,0,1,0,1.27-.1l0,0A.9.9,0,0,0,257.63,529.14Zm6.15-8.08h0a.9.9,0,1,0,1.26-.21.91.91,0,0,0-1.26.21h0Zm5.62-8.46h0a.9.9,0,1,0,1.24-.29.9.9,0,0,0-1.24.29Zm5.06-8.8h0a.9.9,0,1,0,1.22-.37.91.91,0,0,0-1.22.37Zm4.47-9.11h0a.9.9,0,0,0,1.62.79v-.05a.9.9,0,0,0-1.64-.74Zm3.84-9.39h0a.9.9,0,0,0,.53,1.16h0a.9.9,0,0,0,.62-1.69h0a.91.91,0,0,0-1.16.53Zm3.18-9.63h0a.9.9,0,1,0,1.73.5h0a.9.9,0,0,0-1.73-.5Zm2.49-9.83h0a.91.91,0,0,0,.7,1.07.9.9,0,0,0,.39-1.76h0a.91.91,0,0,0-1.09.69Zm1.78-10h0a.91.91,0,0,0,.77,1,.89.89,0,1,0,.24-1.76.89.89,0,0,0-1,.76h0Zm1.06-10.08h0a.9.9,0,1,0,1-.84.91.91,0,0,0-1,.79v.05Zm.35-10.13h0a.9.9,0,0,0,.9.9.92.92,0,0,0,.9-.91.9.9,0,1,0-1.8,0Zm-.37-10.14h0a.9.9,0,1,0,1.8-.13h0a.9.9,0,0,0-1.8.13Zm-1.06-10.05h0a.93.93,0,1,0,0-.09Zm-1.78-10h0a.9.9,0,1,0,.69-1.07.89.89,0,0,0-.69,1.07Zm-2.48-9.83h0a.91.91,0,0,0,1.17.5.82.82,0,0,0,.34-1.11.82.82,0,0,0-1.51.61ZM282.76,386h0a.9.9,0,1,0,.62-1.32.88.88,0,0,0-.7,1,.3.3,0,0,0,0,.1Zm-3.86-9.38h0a.9.9,0,1,0,1.69-.61l0-.08v-.05a.9.9,0,0,0-1.64.74Zm-4.5-9.09h0a.9.9,0,1,0,1.65-.72l-.07-.13a.9.9,0,0,0-1.65.72h0Zm-5.11-8.77h0a.9.9,0,1,0,.28-1.24h0a.9.9,0,0,0-.28,1.23Zm-5.66-8.42h0a.9.9,0,0,0,1.46-1.05.91.91,0,0,0-1.26-.2A.9.9,0,0,0,263.63,350.32Zm-6.22-8h0a.89.89,0,0,0,1.37-1.14.89.89,0,0,0-1.38,1.13Zm-6.74-7.6h0a.9.9,0,1,0,1.28-1.27.91.91,0,0,0-1.28,0h0a.89.89,0,0,0,0,1.25Zm-7.22-7.13h0a.89.89,0,0,0,1.26,0h0a.9.9,0,1,0-1.27,0h0ZM235.72,321h0a.9.9,0,0,0,1.26-.16.88.88,0,0,0-.13-1.24h0a.89.89,0,0,0-1.25.13h0A.92.92,0,0,0,235.72,321Zm-8.32-5.64h0a.9.9,0,0,0,.84-1.59h0a.9.9,0,0,0-.82,1.61Z"/><path class="cls-134" d="M243.53,555.14h0a.9.9,0,1,0,1.25.24h0a.89.89,0,0,0-1.23-.25Zm7.79-6.42h0a.9.9,0,1,0,1.34.06h0a.91.91,0,0,0-1.27-.12l-.06.06Zm7.2-7.15h0a.89.89,0,0,0,0,1.26h0a.9.9,0,0,0,1.27,0l.07-.08a.91.91,0,0,0,0-1.28.89.89,0,0,0-1.26,0h-.05Zm6.7-7.64h0a.9.9,0,0,0,.13,1.27h0a.87.87,0,0,0,1.24-.1h0a.89.89,0,0,0-.1-1.25l0,0h0a.91.91,0,0,0-1.26.11Zm6.22-8h0A.9.9,0,1,0,272.9,527a.9.9,0,0,0-.2-1.25.91.91,0,0,0-1.26.2Zm5.72-8.39h0a.9.9,0,0,0,.28,1.24.89.89,0,0,0,1.23-.26h0a.9.9,0,0,0-.29-1.25.91.91,0,0,0-1.23.25Zm5.19-8.73h0a.9.9,0,1,0,1.15-.41.92.92,0,0,0-1.12.33h0Zm4.64-9h0a.9.9,0,0,0,.32,1.23.91.91,0,0,0,1.24-.32l.06-.14a.9.9,0,0,0-.43-1.2h0a.9.9,0,0,0-1.19.42Zm4-9.31h0a.9.9,0,1,0,1.16-.51.9.9,0,0,0-1.16.51Zm3.41-9.56h0a1.24,1.24,0,1,0,0-.06Zm2.77-9.76h0a.9.9,0,1,0,1.69.63v-.2a.9.9,0,0,0-1.74-.43Zm2.09-9.92h0a.9.9,0,0,0,.67,1.08.89.89,0,0,0,1.08-.65v-.12a.91.91,0,0,0-.73-1.05.92.92,0,0,0-1,.74Zm1.4-10h0a.89.89,0,1,0,1-.8.89.89,0,0,0-1,.8v0Zm.7-10.12h0a.9.9,0,0,0,1.8.08.91.91,0,0,0-.85-.94h0a.9.9,0,0,0-.9.76Zm0-10.14h0a.9.9,0,0,0,1.8.12h0v-.18a.9.9,0,0,0-1.8-.12h0Zm-.66-10.12h0a.9.9,0,1,0,.81-1,.9.9,0,0,0-.81,1Zm-1.33-10.06h0a.91.91,0,0,0,1,.74.88.88,0,0,0,.73-1,.89.89,0,0,0-.91-.89.9.9,0,0,0-.89.9.53.53,0,0,0,0,.13v.15Zm-2-9.93h0a.91.91,0,1,0,1.81-.18.91.91,0,0,0-1.81,0Zm-2.7-9.78h0a.9.9,0,1,0,.59-1.13.89.89,0,0,0-.64,1.08.09.09,0,0,0,0,.05Zm-3.3-9.67h0a.91.91,0,0,0,1.17.51.9.9,0,0,0-.63-1.69h0a.89.89,0,0,0-.53,1.14v0Zm-4-9.33h0a.89.89,0,1,0,.43-1.19.9.9,0,0,0-.43,1.19h0Zm-4.61-9h0a.89.89,0,0,0,1.2.37h0a.87.87,0,1,0-1.22-.36Zm-5.13-8.76h0a.89.89,0,0,0,1.23.28h0a.91.91,0,0,0-1-1.51h0a.89.89,0,0,0-.28,1.23h0ZM271.89,346h0a.9.9,0,0,0,1.26.19h0a.88.88,0,0,0,.21-1.23h0a.9.9,0,0,0-1.25-.2A.92.92,0,0,0,271.89,346Zm-6.25-8h0a.9.9,0,1,0,.12-1.27.89.89,0,0,0-.13,1.27h0Zm-6.73-7.6h0a.9.9,0,1,0,0-1.27l0,0a.91.91,0,0,0,0,1.28Zm-7.2-7.17h0a.9.9,0,1,0,1.28-1.27.91.91,0,0,0-1.28,0h0a.9.9,0,0,0-.08,1.26ZM244,316.56h0a.89.89,0,0,0,1.25-.13h0a.9.9,0,0,0-1.41-1.12h0a.89.89,0,0,0,.1,1.25Zm-8.24-5.8h0a.9.9,0,1,0,1-1.5l-.12-.07a.9.9,0,0,0-1,1.5h0Z"/><path class="cls-135" d="M258.85,553.49h0a.9.9,0,1,0,1.27,0h0A.9.9,0,0,0,258.85,553.49Zm7.22-7.15h0a.91.91,0,0,0,0,1.28.9.9,0,1,0,0-1.28Zm6.75-7.6h0a.9.9,0,1,0,1.27-.11.9.9,0,0,0-1.27.11Zm6.28-8h0a.9.9,0,1,0,1.26-.19.91.91,0,0,0-1.26.19Zm5.81-8.34h0a.9.9,0,0,0,.26,1.25h0a.89.89,0,0,0,1.23-.26h0a.9.9,0,1,0-1.5-1h0Zm5.3-8.66h0a.9.9,0,1,0,1.23-.33.89.89,0,0,0-1.22.32h0Zm4.78-9h0a.9.9,0,0,0,1.62.79.9.9,0,0,0-1.62-.8Zm4.22-9.24h0a.9.9,0,1,0,1.18-.48.9.9,0,0,0-1.18.48Zm3.63-9.48h0a.91.91,0,0,0,.56,1.15.9.9,0,0,0,.6-1.7h0A.92.92,0,0,0,302.84,486Zm3-9.69h0a.9.9,0,0,0,.53,1.17.91.91,0,1,0,.64-1.7l-.17-.05A.91.91,0,0,0,305.84,476.33Zm2.38-9.86h0a.9.9,0,0,0,1.76.36.92.92,0,0,0-.7-1.06.9.9,0,0,0-1.06.68Zm1.71-10h0a.9.9,0,0,0,.71,1.06h0a.91.91,0,0,0,1.06-.72v-.09a.9.9,0,0,0-1.78-.25Zm1.06-10h0a.92.92,0,0,0,1.84.14v0a.9.9,0,0,0-.8-.95.91.91,0,0,0-1,.79Zm.38-10.14h0a.9.9,0,1,0,.9-.9h0a.9.9,0,0,0-.9.87Zm-.27-10.14h0a.9.9,0,1,0,.92-.88h-.15a.9.9,0,0,0-.77.84Zm-.92-10.1h0A.9.9,0,1,0,312,416v-.14a.9.9,0,0,0-1-.78.88.88,0,0,0-.78,1v0h0Zm-1.58-10h0a.91.91,0,0,0,1,.71.88.88,0,0,0,.72-1h0a.9.9,0,0,0-1-.84.92.92,0,0,0-.84,1,.13.13,0,0,1,0,.06v.16Zm-2.24-9.9h0a.91.91,0,0,0,1.06.71.89.89,0,0,0,.7-1.06v-.1a.9.9,0,0,0-1.1-.64.87.87,0,0,0-.64,1h0Zm-2.89-9.75h0a.9.9,0,1,0,.57-1.14.9.9,0,0,0-.57,1.14ZM300,376.92h0a.92.92,0,0,0,1.18.5.91.91,0,0,0,.49-1.18.88.88,0,0,0-1.15-.5h0A.91.91,0,0,0,300,376.92Zm-4.12-9.27h0a.9.9,0,0,0,1.2.41.89.89,0,0,0,.41-1.19h0a.9.9,0,0,0-1.2-.41.89.89,0,0,0-.41,1.19Zm-4.71-9h0a.9.9,0,1,0,1.57-.89.9.9,0,0,0-1.57.89ZM285.86,350h0a.89.89,0,0,0,1.23.28h0a.91.91,0,0,0-1-1.51.89.89,0,0,0-.25,1.22h0Zm-5.78-8.35h0a.9.9,0,1,0,.19-1.26.91.91,0,0,0-.19,1.26Zm-6.27-8h0a.91.91,0,0,0,1.26.2.9.9,0,0,0,.19-1.26h0l-.07-.09a.9.9,0,0,0-1.38,1.15ZM267.08,326h0a.9.9,0,0,0,1.27.11h0a.89.89,0,0,0,.12-1.25h0l-.07-.08a.9.9,0,0,0-1.27-.11h0a.89.89,0,0,0-.12,1.25h0Zm-7.17-7.19h0a.89.89,0,0,0,1.26,0h0a.9.9,0,0,0,0-1.27l-.08-.07a.9.9,0,0,0-1.27,0,.91.91,0,0,0,0,1.28Zm-7.63-6.71h0a.9.9,0,1,0,1.27-1.27l-.06-.06-.07-.06a.89.89,0,0,0-1.25.1l0,0h0a.91.91,0,0,0,.13,1.27Zm-8.15-6h0a.9.9,0,0,0,1.23-.32.87.87,0,0,0-.29-1.21h0a.9.9,0,0,0-1.23.32.89.89,0,0,0,.31,1.23h0Z"/><path class="cls-136" d="M266.4,558.26h0a.9.9,0,0,0-.12,1.27h0a.91.91,0,0,0,1.27.12l.07-.07a.9.9,0,1,0-1.15-1.39h0Zm7.24-7.13h0a.89.89,0,1,0,1.3,1.23h0a.89.89,0,0,0-1.3-1.23Zm6.78-7.58h0a.9.9,0,0,0,0,1.27.89.89,0,0,0,1.26,0h0l.09-.1a.9.9,0,0,0-.11-1.27h0A.9.9,0,0,0,280.42,543.55Zm6.33-7.95h0a.91.91,0,0,0,.18,1.26.89.89,0,0,0,1.27-.06.9.9,0,0,0-.05-1.27l-.14-.1a.89.89,0,0,0-1.25.16Zm5.89-8.28h0a.9.9,0,1,0,1.41,1.12l.08-.12a.9.9,0,0,0-.24-1.25h0a.9.9,0,0,0-1.26.25Zm5.41-8.6h0a.9.9,0,1,0,1.23-.32h0a.9.9,0,0,0-1.23.32Zm4.91-8.89h0a.9.9,0,1,0,1.56.9h0v-.08a.9.9,0,0,0-1.56-.9Zm4.38-9.17h0a.9.9,0,1,0,1.19-.46.91.91,0,0,0-1.19.46Zm3.83-9.4h0a.9.9,0,1,0,1.62.79h0l.06-.17a.9.9,0,0,0-1.62-.79Zm3.24-9.62h0a.89.89,0,0,0,.57,1.11h0a.9.9,0,1,0-.6-1.14Zm2.63-9.8h0a.89.89,0,0,0,.65,1.08h0a.91.91,0,0,0,1.09-.67.9.9,0,0,0-.67-1.08.88.88,0,0,0-1.07.63Zm2-9.95h0a.9.9,0,1,0,1.75.43h0v-.13a.92.92,0,0,0-.74-1,.9.9,0,0,0-1,.74Zm1.36-10.05h0a.89.89,0,0,0,.83,1,.9.9,0,1,0-.83-1h0Zm.72-10.12h0a.9.9,0,1,0,.94-.86h0a.89.89,0,0,0-.93.85Zm.08-10.15h0a.9.9,0,1,0,.9-.9h0A.9.9,0,0,0,321.2,431.57Zm-.57-10.13h0a.9.9,0,0,0,1,.83h0a.91.91,0,0,0,.82-1h0a.9.9,0,0,0-1-.82h0a.88.88,0,0,0-.82.94h0Zm-1.18-10.07h0a.9.9,0,0,0,1,.76.92.92,0,0,0,.76-1,.89.89,0,0,0-1.76.25Zm-1.81-10h0a.9.9,0,1,0,.69-1.07.89.89,0,0,0-.69,1.07Zm-2.44-9.85h0a.9.9,0,1,0,.65-1.16.88.88,0,0,0-.67,1.06v0Zm-3.06-9.67h0a.9.9,0,0,0,1.1.64.88.88,0,0,0,.65-1.06v0l-.05-.15a.9.9,0,0,0-1.1-.64.89.89,0,0,0-.65,1.06v0Zm-3.64-9.41h0a.9.9,0,1,0,.48-1.18.9.9,0,0,0-.48,1.18Zm-4.25-9.22h0a.9.9,0,0,0,1.19.42h0a.91.91,0,0,0,.4-1.21.88.88,0,0,0-1.17-.41h0a.89.89,0,0,0-.41,1.15Zm-4.8-9h0a.9.9,0,0,0,1.23.33h0a.89.89,0,0,0,.34-1.2h0a.9.9,0,0,0-1.56.89Zm-5.32-8.65h0a.9.9,0,1,0,.25-1.25.9.9,0,0,0-.25,1.25Zm-5.82-8.33h0a.9.9,0,1,0,.19-1.26.91.91,0,0,0-.19,1.26Zm-6.28-8h0a.9.9,0,0,0,1.27.11h0a.89.89,0,0,0,.12-1.25h0a.91.91,0,0,0-1.26-.2.9.9,0,0,0-.19,1.26h0Zm-6.73-7.62h0a.91.91,0,0,0,1.28,0,.9.9,0,0,0,0-1.27.91.91,0,0,0-1.28,0A.9.9,0,0,0,275.3,321.62Zm-7.15-7.18h0a.9.9,0,1,0,1.28-1.27.91.91,0,0,0-1.28,0h0a.89.89,0,0,0,0,1.26h0Zm-7.58-6.77h0a.9.9,0,0,0,1.27-.1h0a.91.91,0,0,0-.1-1.27.9.9,0,0,0-1.27.1h0a.89.89,0,0,0,.11,1.23Zm-8.06-6.1h0a.91.91,0,0,0,1-1.51.93.93,0,0,0-1.25.28.9.9,0,0,0,.28,1.24Z"/><path class="cls-137" d="M274,563h0a.9.9,0,1,0,1.27,1.28h0a.91.91,0,0,0,0-1.28h0A.9.9,0,0,0,274,563Zm7.24-7.13h0a.89.89,0,0,0,0,1.27.9.9,0,0,0,1.2.05l.08-.08a.9.9,0,0,0-1.3-1.24Zm6.81-7.56h0a.9.9,0,1,0,1.27-.1.9.9,0,0,0-1.27.1Zm6.38-7.91h0a.9.9,0,1,0,1.38,1.16l.05-.07a.89.89,0,0,0-.15-1.25h0a.93.93,0,0,0-1.28.16Zm6-8.24h0a.9.9,0,1,0,1.25-.23h0a.89.89,0,0,0-1.25.17h0Zm5.5-8.54h0a.9.9,0,0,0,.31,1.23.88.88,0,0,0,1.21-.28h0a.91.91,0,0,0-.35-1.23.9.9,0,0,0-1.18.29Zm5-8.83h0a.9.9,0,0,0,1.59.85.89.89,0,0,0-.35-1.21h0a.91.91,0,0,0-1.23.37Zm4.53-9.09h0a.91.91,0,0,0,.44,1.2.92.92,0,0,0,1.2-.45.9.9,0,0,0-1.64-.75Zm4-9.34h0a.9.9,0,1,0,1.68.65.9.9,0,0,0-.51-1.16.92.92,0,0,0-1.17.54h0Zm3.45-9.55h0a.89.89,0,0,0,.56,1.13h0a.89.89,0,0,0,1.17-.49l0-.05h0a.89.89,0,0,0-.54-1.15.9.9,0,0,0-1.16.54v.05Zm2.87-9.74h0a.9.9,0,0,0,.66,1.09.89.89,0,0,0,1.08-.63.91.91,0,0,0-.65-1.1.88.88,0,0,0-1.08.6h0Zm2.26-9.89h0a.9.9,0,0,0,.71,1.06.9.9,0,1,0,.35-1.77.9.9,0,0,0-1.06.71Zm1.66-10h0a.9.9,0,1,0,1.79.23h0a.9.9,0,0,0-.78-1h0a.92.92,0,0,0-1,.74h0Zm1-10.1h0a.9.9,0,0,0,.77,1h.06a.9.9,0,0,0,.17-1.79.89.89,0,0,0-1,.79h0Zm.42-10.14h0a.9.9,0,0,0,1.8,0,.93.93,0,0,0-.89-.91.9.9,0,0,0-.91.89h0Zm-.2-10.15h0a.9.9,0,1,0,.86-.94.92.92,0,0,0-.84.93Zm-.8-10.11h0a.9.9,0,1,0,1.79-.2h0a.9.9,0,0,0-1-.79h0a.89.89,0,0,0-.79,1Zm-1.41-10h0a.9.9,0,0,0,1.79-.21h0v-.1a.9.9,0,1,0-1.79.21Zm-2-9.94h0a.88.88,0,0,0,1.05.66h0a.9.9,0,1,0-1.08-.67h0ZM324.05,387h0a.9.9,0,0,0,1.12.61h0a.9.9,0,0,0,.61-1.12.91.91,0,0,0-1.13-.61h0a.87.87,0,0,0-.6,1.09h0Zm-3.23-9.62h0a.88.88,0,0,0,1.12.54h0a.89.89,0,0,0,.55-1.13v0a.88.88,0,0,0-1.15-.53A.89.89,0,0,0,320.82,377.35Zm-3.8-9.41h0a.9.9,0,0,0,1.73-.51l0-.1,0-.12a.9.9,0,0,0-1.73.51l0,.1Zm-4.39-9.24h0a.9.9,0,0,0,1.67-.67l-.07-.14a.9.9,0,0,0-1.69.63l0,0Zm-4.88-8.9h0a.9.9,0,1,0,.32-1.23h0a.88.88,0,0,0-.29,1.22h0Zm-5.38-8.62h0a.9.9,0,1,0,.24-1.24h0a.89.89,0,0,0-.24,1.24Zm-5.86-8.31h0a.91.91,0,0,0,1.26.19.94.94,0,0,0-1.06-1.55.91.91,0,0,0-.29,1.24Zm-6.3-8h0a.9.9,0,0,0,1.25.14h0a.91.91,0,0,0,.12-1.27.9.9,0,0,0-1.27-.11h0a.91.91,0,0,0-.12,1.27Zm-6.72-7.62h0a.91.91,0,0,0,1.28,0,.9.9,0,0,0,0-1.27.91.91,0,0,0-1.28,0A.9.9,0,0,0,283.49,317.25ZM276.37,310h0a.89.89,0,0,0,1.26,0h0a.91.91,0,0,0,0-1.28.89.89,0,0,0-1.26,0,.9.9,0,0,0,0,1.26l.09.08Zm-7.53-6.82h0a.89.89,0,0,0,1.25-.1h0a.89.89,0,0,0-1.36-1.16h0a.9.9,0,0,0,.09,1.26h0Zm-8-6.26h0a.9.9,0,0,0,1-1.48.91.91,0,0,0-1.26.23.9.9,0,0,0,.23,1.25Z"/><path class="cls-138" d="M281.55,567.83h0a.9.9,0,0,0-.06,1.26h0a.92.92,0,1,0,1.38-1.22.93.93,0,0,0-1.26-.11Zm7.25-7.14h0a.89.89,0,0,0,0,1.26h0a.87.87,0,0,0,1.33-1.12.75.75,0,0,0-.16-.15.9.9,0,0,0-1.19,0Zm6.83-7.54h0a.9.9,0,1,0,1.27-.08h0a.9.9,0,0,0-1.26.09h0Zm6.42-7.88h0a.9.9,0,0,0,1.43,1.1.9.9,0,0,0-.16-1.26.92.92,0,0,0-1.27.16Zm6-8.19h0a.9.9,0,1,0,1.36,1.18l.12-.18a.9.9,0,0,0-1.48-1Zm5.59-8.5h0a.9.9,0,1,0,1.24-.29.88.88,0,0,0-1.23.27h0Zm5.14-8.77h0a.91.91,0,0,0,.36,1.23.9.9,0,1,0-.36-1.23Zm4.66-9h0a.92.92,0,0,0,.42,1.21.91.91,0,0,0,1.2-.42.9.9,0,0,0-.43-1.16h0a.91.91,0,0,0-1.19.37Zm4.16-9.26h0a.87.87,0,0,0,.47,1.15h0a.9.9,0,0,0,1.18-.48h0a.9.9,0,1,0-1.67-.69Zm3.64-9.49h0a.9.9,0,0,0,1.7.6.9.9,0,0,0-1.7-.6Zm3.08-9.67h0a.9.9,0,1,0,1.11-.62h0a.91.91,0,0,0-1.09.59Zm2.51-9.84h0a.9.9,0,1,0,1.07-.69.91.91,0,0,0-1.07.69Zm1.93-10h0a.9.9,0,0,0,.65,1.09.91.91,0,0,0,1.1-.65v-.15a.9.9,0,0,0-.83-1,.92.92,0,0,0-.94.68Zm1.33-10.06h0a.9.9,0,0,0,1.78.24v-.06a.9.9,0,0,0-1.79-.18Zm.73-10.12h0a1,1,0,1,0,0-.18v.17Zm.13-10.15h0a.9.9,0,0,0,1.8,0h0a.9.9,0,0,0-1.8,0Zm-.46-10.14h0a.9.9,0,0,0,1.79-.2.91.91,0,0,0-1-.8.9.9,0,0,0-.83,1v0Zm-1-10.1h0a.9.9,0,0,0,1,.77.89.89,0,0,0,.77-1h0a.92.92,0,0,0-1-.78.91.91,0,0,0-.77,1Zm-1.63-10h0a.88.88,0,1,0,1.72-.35.89.89,0,0,0-1.05-.71.9.9,0,0,0-.72,1.05Zm-2.23-9.92h0a.91.91,0,0,0,1.14.57.9.9,0,0,0,.6-1,.9.9,0,0,0-1.74.43Zm-2.81-9.75h0a.9.9,0,0,0,1.71-.55.9.9,0,0,0-1.75.44Zm-3.38-9.58h0a.9.9,0,1,0,1.73-.51l0-.05v-.08a.89.89,0,0,0-1.14-.53h0a.91.91,0,0,0-.58,1.15Zm-3.92-9.36h0a.9.9,0,1,0,.45-1.19h0a.89.89,0,0,0-.45,1.18h0Zm-4.46-9.13h0a.9.9,0,1,0,1.74-.47,1,1,0,0,0-.17-.33.9.9,0,1,0-1.66.7l.07.13Zm-5-8.87h0a.91.91,0,0,0,1.24.34.91.91,0,1,0-.91-1.58h0A.91.91,0,0,0,316.06,345.37Zm-5.43-8.58h0a.9.9,0,1,0-.08-.12Zm-5.89-8.29h0a.9.9,0,1,0,1.44-1.08h0a.9.9,0,0,0-1.44,1.08Zm-6.31-8h0a.9.9,0,0,0,1.27.11h0a.89.89,0,0,0,.12-1.25h0a.9.9,0,0,0-1.38,1.16h0Zm-6.71-7.64h0a.9.9,0,0,0,1.25-1.29.9.9,0,0,0-1.2-.05.91.91,0,0,0-.12,1.27Zm-7.09-7.25h0a.9.9,0,1,0,0-1.3h0a.9.9,0,0,0,0,1.27Zm-7.48-6.89h0a.9.9,0,1,0-.08-1.27h0a.87.87,0,0,0,.07,1.23h0Zm-7.9-6.4h0a.9.9,0,1,0-.18-1.26h0A.9.9,0,0,0,269.25,292.32Z"/><path class="cls-139" d="M32.94,417.86c1.74.15,2.81.27,3.43.38.31.06.51.11.61.14H37l.09-.13-.12.09.09-.13-.12.09.2-.15h-.25v.15l.2-.15h-.25v.19c.06.1.13.18.19.29a.44.44,0,0,1,.09.27V419a1,1,0,0,1-.5.28,6.33,6.33,0,0,1-1.49.23.3.3,0,0,0-.35.26.3.3,0,0,0,.24.35h.11a5.28,5.28,0,0,0,2-.39,1.14,1.14,0,0,0,.47-.37.84.84,0,0,0,.16-.48,1.22,1.22,0,0,0-.21-.64l-.13-.18-.2.11h.22v-.11l-.2.11h.22a.38.38,0,0,0-.16-.31,1.33,1.33,0,0,0-.43-.17,29.93,29.93,0,0,0-4-.49.3.3,0,0,0-.33.27h0a.3.3,0,0,0,.27.33h0Z"/><path class="cls-139" d="M109.11,313.53A74.72,74.72,0,0,1,120.94,323c16.11,15.19,41.26,47.26,41.81,93.83v1.64a134,134,0,0,1-22.94,74.77,137,137,0,0,1-17.48,21.32c-5.24,5.18-9.51,8.41-11.49,9.51a.31.31,0,0,0-.08.43.3.3,0,0,0,.38.11c2.07-1.16,6.34-4.4,11.62-9.61,15.83-15.64,40.61-49,40.61-96.53v-1.62a129.43,129.43,0,0,0-24.05-73.45,137.77,137.77,0,0,0-18-20.81A74.1,74.1,0,0,0,109.38,313a.32.32,0,0,0-.44.06.31.31,0,0,0,.06.43h.11Z"/><path class="cls-139" d="M185.39,209.23c6.71,4.72,32.14,25.22,56.06,60s46.35,84,47.1,146.09v3.19c0,63-22.33,113.3-46.25,148.9s-49.44,56.55-55.76,61a.31.31,0,0,0,0,.44h0a.32.32,0,0,0,.38.06c6.39-4.44,31.94-25.42,55.92-61.1s46.36-86,46.36-149.24v-3.18C288.46,353.2,266,303.92,242,269s-49.44-55.44-56.22-60.21a.31.31,0,0,0-.39.49h0Z"/><path class="cls-139" d="M261.68,104.93c18.44,14,150.44,122.75,152.66,309v4.76c0,189.12-134.84,301-152.12,314.08a.31.31,0,0,0-.06.43.33.33,0,0,0,.44.06C280,720.09,415,608.13,415,418.69v-4.77c-2.24-186.56-134.4-295.37-152.91-309.48a.31.31,0,0,0-.42,0h0a.3.3,0,0,0,.05.42Z"/><path class="cls-139" d="M338,.64c23.45,18.65,199.2,163.53,202.16,411.87v6.33c0,252.17-180.31,400.89-202.2,418.31a.31.31,0,0,0,0,.44h0a.29.29,0,0,0,.42,0h0c21.94-17.46,202.43-166.3,202.44-418.79v-6.36c-3-248.65-178.9-393.65-202.4-412.35a.29.29,0,0,0-.42,0h0a.31.31,0,0,0,0,.44h0Z"/></g></g></svg>