<svg xmlns="http://www.w3.org/2000/svg" viewBox="0 0 261.79 293.91"><defs><style>.cls-1{fill:#e0eefa;}.cls-10,.cls-11,.cls-12,.cls-13,.cls-14,.cls-15,.cls-16,.cls-17,.cls-18,.cls-19,.cls-2,.cls-20,.cls-21,.cls-22,.cls-23,.cls-24,.cls-25,.cls-26,.cls-27,.cls-28,.cls-29,.cls-3,.cls-30,.cls-31,.cls-32,.cls-33,.cls-34,.cls-35,.cls-36,.cls-38,.cls-39,.cls-4,.cls-40,.cls-41,.cls-42,.cls-43,.cls-5,.cls-6,.cls-7,.cls-8,.cls-9{fill:none;}.cls-2{stroke:#474747;}.cls-10,.cls-11,.cls-12,.cls-13,.cls-14,.cls-15,.cls-16,.cls-17,.cls-18,.cls-19,.cls-2,.cls-20,.cls-21,.cls-22,.cls-23,.cls-24,.cls-25,.cls-26,.cls-27,.cls-28,.cls-29,.cls-3,.cls-30,.cls-31,.cls-32,.cls-33,.cls-34,.cls-35,.cls-36,.cls-4,.cls-40,.cls-41,.cls-42,.cls-43,.cls-5,.cls-6,.cls-7,.cls-8,.cls-9{stroke-linecap:round;stroke-linejoin:round;}.cls-10,.cls-11,.cls-12,.cls-13,.cls-14,.cls-15,.cls-16,.cls-17,.cls-18,.cls-19,.cls-2,.cls-20,.cls-21,.cls-22,.cls-23,.cls-24,.cls-25,.cls-26,.cls-27,.cls-28,.cls-29,.cls-3,.cls-30,.cls-31,.cls-32,.cls-33,.cls-34,.cls-4,.cls-5,.cls-6,.cls-7,.cls-8,.cls-9{stroke-width:1.09px;stroke-dasharray:0 7.45;}.cls-3{stroke:#4d4d4d;}.cls-4{stroke:#535353;}.cls-5{stroke:#585858;}.cls-6{stroke:#5e5e5e;}.cls-7{stroke:#646464;}.cls-8{stroke:#6a6a6a;}.cls-9{stroke:#6f6f6f;}.cls-10{stroke:#757575;}.cls-11{stroke:#7b7b7b;}.cls-12{stroke:#818181;}.cls-13{stroke:#868686;}.cls-14{stroke:#8c8c8c;}.cls-15{stroke:#929292;}.cls-16{stroke:#989898;}.cls-17{stroke:#9d9d9d;}.cls-18{stroke:#a3a3a3;}.cls-19{stroke:#a9a9a9;}.cls-20{stroke:#afafaf;}.cls-21{stroke:#b4b4b4;}.cls-22{stroke:#bababa;}.cls-23{stroke:silver;}.cls-24{stroke:#c6c6c6;}.cls-25{stroke:#cbcbcb;}.cls-26{stroke:#d1d1d1;}.cls-27{stroke:#d7d7d7;}.cls-28{stroke:#ddd;}.cls-29{stroke:#e2e2e2;}.cls-30{stroke:#e8e8e8;}.cls-31{stroke:#eee;}.cls-32{stroke:#f4f4f4;}.cls-33{stroke:#f9f9f9;}.cls-34{stroke:#fff;}.cls-35,.cls-36,.cls-37,.cls-38,.cls-39,.cls-41,.cls-42,.cls-43{stroke:#000;}.cls-35{stroke-dasharray:0 5;}.cls-36,.cls-37,.cls-39,.cls-40{stroke-width:0.5px;}.cls-37{fill:#fff;}.cls-37,.cls-38,.cls-39{stroke-miterlimit:10;}.cls-39{fill-rule:evenodd;}.cls-40{stroke:#424242;}.cls-41,.cls-42,.cls-43{stroke-width:3px;}.cls-42{opacity:0.55;}.cls-43{opacity:0.1;}</style></defs><g id="Layer_2" data-name="Layer 2"><g id="Layer_1-2" data-name="Layer 1"><circle class="cls-1" cx="158.76" cy="249.47" r="9.84"/><path class="cls-2" d="M160,249.47c-.52-14.78-1.3-18.23-2-18.25s-1.68,3.39-3.28,18.25"/><path class="cls-3" d="M163.18,243.23c-.65-14.49-2.51-19.17-5-19.22s-4.75,4.66-6.43,19.22"/><path class="cls-4" d="M166.35,237c-.78-14.21-3.73-20.13-8.14-20.2s-7.8,5.93-9.57,20.2"/><path class="cls-5" d="M169.51,230.77c-.9-13.93-4.93-21.09-11.22-21.17-6.47-.1-10.87,7.2-12.72,21.17"/><path class="cls-6" d="M172.67,224.54c-1-13.65-6.14-22-14.31-22.15-8.4-.12-13.92,8.47-15.86,22.15"/><path class="cls-7" d="M175.84,218.3c-1.16-13.36-7.35-23-17.4-23.12-10.34-.14-17,9.74-19,23.12"/><path class="cls-8" d="M179,212.07c-1.28-13.08-8.56-23.94-20.49-24.1-12.28-.16-20,11-22.14,24.1"/><path class="cls-9" d="M182.16,205.84c-1.41-12.8-9.77-24.9-23.57-25.08-14.22-.18-23.11,12.29-25.29,25.08"/><path class="cls-10" d="M185.33,199.61c-1.54-12.52-11-25.86-26.67-26.06-16.15-.2-26.16,13.56-28.43,26.06"/><path class="cls-11" d="M188.49,193.37c-1.66-12.23-12.19-26.8-29.75-27-18.09-.23-29.23,14.82-31.58,27"/><path class="cls-12" d="M191.65,187.14c-1.79-11.95-13.4-27.76-32.84-28-20-.25-32.28,16.1-34.72,28"/><path class="cls-13" d="M194.82,180.91c-1.92-11.67-14.61-28.72-35.93-29-22-.27-35.35,17.37-37.87,29"/><path class="cls-14" d="M198,174.68c-2-11.39-15.82-29.67-39-30-23.9-.29-38.4,18.64-41,30"/><path class="cls-15" d="M201.14,168.44c-2.16-11.1-17-30.62-42.1-30.93-25.84-.31-41.47,19.91-44.16,30.93"/><path class="cls-16" d="M204.31,162.21c-2.3-10.82-18.24-31.57-45.2-31.91-27.78-.34-44.52,21.19-47.3,31.91"/><path class="cls-17" d="M207.47,156c-2.42-10.54-19.45-32.53-48.28-32.88-29.72-.37-47.59,22.45-50.45,32.88"/><path class="cls-18" d="M210.63,149.75c-2.54-10.26-20.66-33.49-51.37-33.86-31.65-.39-50.64,23.72-53.59,33.86"/><path class="cls-19" d="M213.8,143.51c-2.68-10-21.87-34.43-54.46-34.83-33.59-.41-53.71,25-56.74,34.83"/><path class="cls-20" d="M217,137.28c-2.8-9.69-23.08-35.39-57.55-35.81-35.52-.43-56.76,26.27-59.88,35.81"/><path class="cls-21" d="M220.12,131.05c-2.92-9.41-24.28-36.35-60.63-36.79-37.47-.45-59.83,27.54-63,36.79"/><path class="cls-22" d="M223.29,124.82c-3.06-9.13-25.5-37.3-63.73-37.76-39.4-.48-62.88,28.81-66.17,37.76"/><path class="cls-23" d="M226.45,118.58c-3.18-8.84-26.71-38.25-66.81-38.73-41.34-.5-65.95,30.08-69.32,38.73"/><path class="cls-24" d="M229.61,112.35c-3.3-8.56-27.91-39.21-69.9-39.71-43.27-.52-69,31.35-72.46,39.71"/><path class="cls-25" d="M232.77,106.12c-3.43-8.28-29.12-40.16-73-40.69-45.22-.54-72.07,32.62-75.61,40.69"/><path class="cls-26" d="M235.94,99.89c-3.56-8-30.34-41.12-76.08-41.67-47.15-.56-75.12,33.9-78.75,41.67"/><path class="cls-27" d="M239.1,93.65c-3.68-7.71-31.54-42.06-79.16-42.64C110.85,50.42,81.75,86.18,78,93.65"/><path class="cls-28" d="M242.26,87.42c-3.8-7.43-32.75-43-82.25-43.61-51-.62-81.25,36.43-85,43.61"/><path class="cls-29" d="M245.43,81.19c-3.94-7.15-34-44-85.34-44.59-53-.64-84.31,37.71-88.19,44.59"/><path class="cls-30" d="M248.59,75c-4.06-6.87-35.17-44.93-88.43-45.57-54.9-.66-87.37,39-91.33,45.57"/><path class="cls-31" d="M251.75,68.72c-4.18-6.58-36.38-45.88-91.51-46.54C103.4,21.5,69.81,62.43,65.76,68.72"/><path class="cls-32" d="M254.92,62.49c-4.32-6.3-37.6-46.84-94.61-47.52-58.77-.7-93.49,41.52-97.62,47.52"/><path class="cls-33" d="M258.08,56.26c-4.44-6-38.8-47.79-97.69-48.5C99.67,7,63.84,50.56,59.62,56.26"/><path class="cls-34" d="M261.24,50c-4.56-5.75-40-48.75-100.78-49.47C97.81-.19,60.85,44.62,56.55,50"/><path class="cls-35" d="M.5,175.25A66.53,66.53,0,1,0,97.38,116"/><path class="cls-36" d="M73.93,109.07a68.4,68.4,0,0,0-6.9-.35A66.53,66.53,0,0,0,.5,175.25"/><polygon class="cls-37" points="67.03 127.84 86.41 109.02 67.03 89.59 67.03 127.84"/><line class="cls-38" x1="204.99" y1="167.16" x2="220.86" y2="183.02"/><line class="cls-38" x1="178.97" y1="141.14" x2="194.84" y2="157"/><line class="cls-38" x1="194.84" y1="167.16" x2="178.97" y2="183.02"/><line class="cls-38" x1="220.86" y1="141.14" x2="204.99" y2="157"/><line class="cls-38" x1="207.09" y1="162.08" x2="229.53" y2="162.08"/><line class="cls-38" x1="170.3" y1="162.08" x2="192.74" y2="162.08"/><line class="cls-38" x1="199.92" y1="154.9" x2="199.92" y2="132.46"/><line class="cls-38" x1="199.92" y1="191.69" x2="199.92" y2="169.26"/><line class="cls-38" x1="250.33" y1="92.28" x2="250.33" y2="100.68"/><line class="cls-38" x1="250.33" y1="106.27" x2="250.33" y2="114.68"/><line class="cls-38" x1="239.13" y1="103.48" x2="247.54" y2="103.48"/><line class="cls-38" x1="253.13" y1="103.48" x2="261.54" y2="103.48"/><path class="cls-39" d="M163,259.79a11,11,0,0,0-4.08-21.23h0a11,11,0,0,0-4.13,21.21m4.12-9.3a2,2,0,0,1,2,1.88v15.79a.73.73,0,0,0,.71.74.73.73,0,0,0,.74-.72v-3.79a1.77,1.77,0,1,1,3.53,0v4.83a.71.71,0,0,0,.71.73.73.73,0,0,0,.74-.72h0v-3.76a1.77,1.77,0,1,1,3.53,0v4.74a.73.73,0,0,0,1.45,0v-3.72a1.84,1.84,0,0,1,1.8-1.9,1.78,1.78,0,0,1,1.81,1.83.28.28,0,0,0,0,.09s.09,2.62.08,5.58a45.63,45.63,0,0,1-.44,7.42,10.2,10.2,0,0,1-.78,2.19,4.8,4.8,0,0,0-.53,1.46,15.45,15.45,0,0,0-.1,3.14h-17.4V284s0-.14,0-.31a2.4,2.4,0,0,0-.12-.61,1.71,1.71,0,0,0-.25-.44,1.73,1.73,0,0,0-.14-.19h0l-10.18-12.9a2.54,2.54,0,0,1-.55-1.27,1.21,1.21,0,0,1,.34-1l.33-.34a1.53,1.53,0,0,1,2.19,0l6.51,6.18a1.45,1.45,0,0,0,.12.19,1.14,1.14,0,0,0,.92.44.88.88,0,0,0,.58-.26.94.94,0,0,0,.22-.33,1.77,1.77,0,0,0,.14-.52,5.68,5.68,0,0,0,.06-.6h0l-.06-19.71a1.94,1.94,0,0,1,2-1.88Zm-5.27,37.27h23.61s0,0,.05.1a1.49,1.49,0,0,1,.17.7v4.32a1.49,1.49,0,0,1-.17.7c-.08.13-.1.1-.05.1H153.62c.06,0,0,0-.05-.1a1.5,1.5,0,0,1-.16-.7v-4.32a1.5,1.5,0,0,1,.16-.7C153.66,287.71,153.68,287.74,153.62,287.74Z"/><line class="cls-40" x1="127.28" y1="259.79" x2="8.5" y2="259.79"/><line class="cls-40" x1="127.28" y1="267.52" x2="8.5" y2="267.52"/><line class="cls-40" x1="127.28" y1="275.24" x2="8.5" y2="275.24"/><line class="cls-40" x1="127.28" y1="282.97" x2="8.5" y2="282.97"/><line class="cls-40" x1="127.28" y1="290.7" x2="8.5" y2="290.7"/><polyline class="cls-41" points="71.09 230.08 53.54 249.16 47.22 242.48"/><polyline class="cls-42" points="51.09 230.08 33.54 249.16 27.22 242.48"/><polyline class="cls-43" points="31.09 230.08 13.54 249.16 7.22 242.48"/></g></g></svg>