<svg xmlns="http://www.w3.org/2000/svg" viewBox="0 0 370.8 224.07"><defs><style>.cls-1{fill:#e0eefa;}.cls-10,.cls-11,.cls-12,.cls-13,.cls-14,.cls-15,.cls-16,.cls-17,.cls-18,.cls-19,.cls-2,.cls-20,.cls-21,.cls-22,.cls-23,.cls-24,.cls-25,.cls-26,.cls-27,.cls-3,.cls-4,.cls-5,.cls-6,.cls-7,.cls-8,.cls-9{fill:none;stroke-linecap:round;stroke-linejoin:round;}.cls-2{stroke:#08040a;stroke-width:0.5px;}.cls-10,.cls-11,.cls-12,.cls-13,.cls-14,.cls-15,.cls-16,.cls-17,.cls-18,.cls-19,.cls-20,.cls-21,.cls-22,.cls-23,.cls-24,.cls-25,.cls-26,.cls-3,.cls-4,.cls-5,.cls-6,.cls-7,.cls-8,.cls-9{stroke:#424242;}.cls-4{stroke-dasharray:0 8.35;}.cls-5{stroke-dasharray:0 8.4;}.cls-6{stroke-dasharray:0 8.28;}.cls-7{stroke-dasharray:0 8.32;}.cls-8{stroke-dasharray:0 8.37;}.cls-9{stroke-dasharray:0 8.24;}.cls-10{stroke-dasharray:0 8.28;}.cls-11{stroke-dasharray:0 8.34;}.cls-12{stroke-dasharray:0 8.4;}.cls-13{stroke-dasharray:0 8.24;}.cls-14{stroke-dasharray:0 8.3;}.cls-15{stroke-dasharray:0 8.36;}.cls-16{stroke-dasharray:0 8.43;}.cls-17{stroke-dasharray:0 8.24;}.cls-18{stroke-dasharray:0 8.31;}.cls-19{stroke-dasharray:0 8.4;}.cls-20{stroke-dasharray:0 8.17;}.cls-21{stroke-dasharray:0 8.25;}.cls-22{stroke-dasharray:0 8.34;}.cls-23{stroke-dasharray:0 8.46;}.cls-24{stroke-dasharray:0 8.14;}.cls-25{stroke-dasharray:0 8.26;}.cls-26{stroke-dasharray:0 8.4;}.cls-27{stroke:#000;stroke-width:0.75px;}</style></defs><g id="Layer_2" data-name="Layer 2"><g id="Layer_1-2" data-name="Layer 1"><polygon class="cls-1" points="291.49 130.21 87.11 130.21 8.05 179 370.55 179 291.49 130.21"/><polygon class="cls-2" points="291.49 152.51 87.11 152.51 8.05 201.31 370.55 201.31 291.49 152.51"/><line class="cls-3" x1="0.5" y1="223.57" x2="0.5" y2="223.57"/><path class="cls-4" d="M8.85,223.57H111.92c104.55,0,189.3-84.76,189.3-189.31V4.68"/><line class="cls-3" x1="301.22" y1="0.5" x2="301.22" y2="0.5"/><line class="cls-3" x1="0.5" y1="214.77" x2="0.5" y2="214.77"/><path class="cls-5" d="M8.9,214.77H110.59A181.84,181.84,0,0,0,292.43,32.93V4.7"/><line class="cls-3" x1="292.43" y1="0.5" x2="292.43" y2="0.5"/><line class="cls-3" x1="0.5" y1="205.98" x2="0.5" y2="205.98"/><path class="cls-6" d="M8.78,206H109.25A174.38,174.38,0,0,0,283.63,31.6v-27"/><line class="cls-3" x1="283.63" y1="0.5" x2="283.63" y2="0.5"/><line class="cls-3" x1="0.5" y1="197.18" x2="0.5" y2="197.18"/><path class="cls-7" d="M8.82,197.18h99.1A166.91,166.91,0,0,0,274.84,30.27V4.66"/><line class="cls-3" x1="274.84" y1="0.5" x2="274.84" y2="0.5"/><line class="cls-3" x1="0.5" y1="188.38" x2="0.5" y2="188.38"/><path class="cls-8" d="M8.87,188.38h97.72A159.45,159.45,0,0,0,266,28.93V4.68"/><line class="cls-3" x1="266.04" y1="0.5" x2="266.04" y2="0.5"/><line class="cls-3" x1="0.5" y1="179.59" x2="0.5" y2="179.59"/><path class="cls-9" d="M8.74,179.59h96.52a152,152,0,0,0,152-152v-23"/><line class="cls-3" x1="257.24" y1="0.5" x2="257.24" y2="0.5"/><line class="cls-3" x1="0.5" y1="170.79" x2="0.5" y2="170.79"/><path class="cls-10" d="M8.78,170.79h95.15A144.52,144.52,0,0,0,248.45,26.27V4.64"/><line class="cls-3" x1="248.45" y1="0.5" x2="248.45" y2="0.5"/><line class="cls-3" x1="0.5" y1="161.99" x2="0.5" y2="161.99"/><path class="cls-11" d="M8.84,162H102.6a137.05,137.05,0,0,0,137.05-137V4.67"/><line class="cls-3" x1="239.65" y1="0.5" x2="239.65" y2="0.5"/><line class="cls-3" x1="0.5" y1="153.2" x2="0.5" y2="153.2"/><path class="cls-12" d="M8.9,153.2h92.37A129.59,129.59,0,0,0,230.85,23.61V4.7"/><line class="cls-3" x1="230.85" y1="0.5" x2="230.85" y2="0.5"/><line class="cls-3" x1="0.5" y1="144.4" x2="0.5" y2="144.4"/><path class="cls-13" d="M8.74,144.4H99.93A122.13,122.13,0,0,0,222.06,22.28V4.62"/><line class="cls-3" x1="222.06" y1="0.5" x2="222.06" y2="0.5"/><line class="cls-3" x1="0.5" y1="135.6" x2="0.5" y2="135.6"/><path class="cls-14" d="M8.8,135.6H98.6A114.65,114.65,0,0,0,213.26,21V4.65"/><line class="cls-3" x1="213.26" y1="0.5" x2="213.26" y2="0.5"/><line class="cls-3" x1="0.5" y1="126.81" x2="0.5" y2="126.81"/><path class="cls-15" d="M8.86,126.81H97.27A107.19,107.19,0,0,0,204.46,19.62V4.68"/><line class="cls-3" x1="204.46" y1="0.5" x2="204.46" y2="0.5"/><line class="cls-3" x1="0.5" y1="118.01" x2="0.5" y2="118.01"/><path class="cls-16" d="M8.93,118h87a99.73,99.73,0,0,0,99.73-99.73V4.72"/><line class="cls-3" x1="195.67" y1="0.5" x2="195.67" y2="0.5"/><line class="cls-3" x1="0.5" y1="109.21" x2="0.5" y2="109.21"/><path class="cls-17" d="M8.74,109.21H94.61A92.26,92.26,0,0,0,186.87,17V4.62"/><line class="cls-3" x1="186.87" y1="0.5" x2="186.87" y2="0.5"/><line class="cls-3" x1="0.5" y1="100.42" x2="0.5" y2="100.42"/><path class="cls-18" d="M8.81,100.42H93.28a84.8,84.8,0,0,0,84.79-84.8v-11"/><line class="cls-3" x1="178.07" y1="0.5" x2="178.07" y2="0.5"/><line class="cls-3" x1="0.5" y1="91.62" x2="0.5" y2="91.62"/><path class="cls-19" d="M8.9,91.62H92a77.33,77.33,0,0,0,77.33-77.33V4.7"/><line class="cls-3" x1="169.28" y1="0.5" x2="169.28" y2="0.5"/><line class="cls-3" x1="0.5" y1="82.82" x2="0.5" y2="82.82"/><path class="cls-20" d="M8.67,82.82h82A69.86,69.86,0,0,0,160.48,13V4.58"/><line class="cls-3" x1="160.48" y1="0.5" x2="160.48" y2="0.5"/><line class="cls-3" x1="0.5" y1="74.03" x2="0.5" y2="74.03"/><path class="cls-21" d="M8.75,74H89.28a62.4,62.4,0,0,0,62.4-62.4v-7"/><line class="cls-3" x1="151.68" y1="0.5" x2="151.68" y2="0.5"/><line class="cls-3" x1="0.5" y1="65.23" x2="0.5" y2="65.23"/><path class="cls-22" d="M8.84,65.23H88A54.93,54.93,0,0,0,142.89,10.3V4.67"/><line class="cls-3" x1="142.89" y1="0.5" x2="142.89" y2="0.5"/><line class="cls-3" x1="0.5" y1="56.43" x2="0.5" y2="56.43"/><path class="cls-23" d="M9,56.43H86.62A47.46,47.46,0,0,0,134.09,9V4.73"/><line class="cls-3" x1="134.09" y1="0.5" x2="134.09" y2="0.5"/><line class="cls-3" x1="0.5" y1="47.64" x2="0.5" y2="47.64"/><path class="cls-24" d="M8.64,47.64H85.29a40,40,0,0,0,40-40V4.57"/><line class="cls-3" x1="125.29" y1="0.5" x2="125.29" y2="0.5"/><line class="cls-3" x1="0.5" y1="38.84" x2="0.5" y2="38.84"/><path class="cls-25" d="M8.76,38.84H84A32.54,32.54,0,0,0,116.5,6.3V4.63"/><line class="cls-3" x1="116.5" y1="0.5" x2="116.5" y2="0.5"/><line class="cls-3" x1="0.5" y1="30.04" x2="0.5" y2="30.04"/><path class="cls-26" d="M8.9,30H82.63A25.07,25.07,0,0,0,107.7,5V4.7"/><line class="cls-3" x1="107.7" y1="0.5" x2="107.7" y2="0.5"/><path class="cls-2" d="M189.41.5a.22.22,0,0,0-.22.22,15.24,15.24,0,0,1-.45,1.57A223.65,223.65,0,0,1,176,30.94c-7.84,14.55-18.8,26.86-27.09,39.62-2.46,3.81-10.29,16.79-9.62,30.67a33.43,33.43,0,0,0,1.57,8.28,30.6,30.6,0,0,0,5.14,9.63,46.45,46.45,0,0,0,20.15,14.55,63.14,63.14,0,0,0,23.28,4.25h0a63.14,63.14,0,0,0,23.28-4.25,46.45,46.45,0,0,0,20.15-14.55,30.6,30.6,0,0,0,5.14-9.63,33.43,33.43,0,0,0,1.57-8.28c.67-13.88-7.16-26.86-9.62-30.67-8.29-12.76-19.25-25.07-27.09-39.62A223.65,223.65,0,0,1,190.08,2.29a15.24,15.24,0,0,1-.45-1.57A.22.22,0,0,0,189.41.5Z"/><path class="cls-27" d="M360.25,195c-93.85,2.48-154.75,1.49-155.35-5.28-.63-7.32,69.53-16.48,69-23.85-.51-6.48-55.55-9.26-195.62-5.88"/></g></g></svg>