<svg xmlns="http://www.w3.org/2000/svg" xmlns:xlink="http://www.w3.org/1999/xlink" width="100%" viewBox="0 0 326.84 143.4"><defs><style>.cls-1,.cls-10,.cls-11,.cls-16,.cls-18,.cls-4,.cls-5,.cls-6,.cls-7,.cls-8,.cls-9{fill:none;}.cls-2{fill:#fff;}.cls-3{clip-path:url(#clip-path);}.cls-10,.cls-11,.cls-15,.cls-18,.cls-19,.cls-4,.cls-5,.cls-6,.cls-7,.cls-8,.cls-9{stroke:#000;}.cls-16,.cls-4,.cls-5,.cls-6,.cls-7,.cls-8,.cls-9{stroke-linecap:round;stroke-linejoin:round;}.cls-4,.cls-5,.cls-6,.cls-7,.cls-8,.cls-9{stroke-width:1.96px;}.cls-5{stroke-dasharray:0 5.16;}.cls-6{stroke-dasharray:0 5.51;}.cls-7{stroke-dasharray:0 4.95;}.cls-8{stroke-dasharray:0 5.5;}.cls-9{stroke-dasharray:0 4.13;}.cls-10,.cls-11,.cls-15,.cls-18,.cls-19{stroke-miterlimit:10;}.cls-10{stroke-width:0.72px;}.cls-11{stroke-width:4.81px;}.cls-12{fill:url(#radial-gradient);}.cls-13{fill:url(#radial-gradient-2);}.cls-14{fill:url(#radial-gradient-3);}.cls-15,.cls-19{fill:#c5e2f8;}.cls-16{stroke:#221f20;}.cls-17{fill:#221f20;}.cls-18{stroke-width:0.9px;}.cls-19,.cls-20{fill-rule:evenodd;}</style><clipPath id="clip-path"><rect class="cls-1" x="116.32" width="93.95" height="93.95" rx="23.06"/></clipPath><radialGradient id="radial-gradient" cx="61.93" cy="-15.39" r="16.67" gradientTransform="translate(0 52)" gradientUnits="userSpaceOnUse"><stop offset="0" stop-color="#fff"/><stop offset="1" stop-color="#64b0ed"/></radialGradient><radialGradient id="radial-gradient-2" cx="20.7" cy="-9.93" r="9.52" gradientTransform="translate(0 52)" gradientUnits="userSpaceOnUse"><stop offset="0" stop-color="#fff"/><stop offset="1" stop-color="#adadad"/></radialGradient><radialGradient id="radial-gradient-3" cx="37.93" cy="3.48" r="11.22" gradientTransform="translate(0 52)" gradientUnits="userSpaceOnUse"><stop offset="0" stop-color="#fff"/><stop offset="1" stop-color="#3b7aad"/></radialGradient></defs><g id="Layer_2" data-name="Layer 2"><g id="Layer_1-2" data-name="Layer 1"><rect class="cls-2" x="116.71" y="0.39" width="93.17" height="93.17" rx="22.67"/><path d="M187.21.78a22.3,22.3,0,0,1,22.28,22.28V70.89a22.3,22.3,0,0,1-22.28,22.27H139.38A22.3,22.3,0,0,1,117.1,70.89V23.06A22.31,22.31,0,0,1,139.38.78h47.83m0-.78H139.38a23.06,23.06,0,0,0-23.06,23.06V70.89A23.07,23.07,0,0,0,139.38,94h47.83a23.06,23.06,0,0,0,23.06-23.06V23.06A23.05,23.05,0,0,0,187.21,0Z"/><g class="cls-3"><line class="cls-4" x1="166.05" y1="66.55" x2="166.05" y2="66.55"/><path class="cls-5" d="M171.18,66a25.35,25.35,0,0,0,8.91-3.67c8.72-5.78,11-15.34,11.66-20"/><line class="cls-4" x1="191.98" y1="39.77" x2="191.98" y2="39.77"/><line class="cls-4" x1="185.42" y1="37.5" x2="185.42" y2="37.5"/><path class="cls-6" d="M184.57,42.93a21.52,21.52,0,0,1-8.66,12.63,20.45,20.45,0,0,1-8.48,3.17"/><line class="cls-4" x1="164.69" y1="58.94" x2="164.69" y2="58.94"/><line class="cls-4" x1="178.86" y1="35.24" x2="178.86" y2="35.24"/><path class="cls-7" d="M178,40.11a15.78,15.78,0,0,1-6.26,8.68,15.34,15.34,0,0,1-5.95,2.32"/><line class="cls-4" x1="163.32" y1="51.33" x2="163.32" y2="51.33"/><line class="cls-4" x1="172.3" y1="32.98" x2="172.3" y2="32.98"/><path class="cls-8" d="M170.89,38.27a9.91,9.91,0,0,1-6.22,5.06"/><line class="cls-4" x1="161.95" y1="43.72" x2="161.95" y2="43.72"/><line class="cls-4" x1="165.73" y1="30.72" x2="165.73" y2="30.72"/><path class="cls-9" d="M164.26,34.5a4.64,4.64,0,0,1-.88.75,4.84,4.84,0,0,1-.8.43"/><line class="cls-4" x1="160.58" y1="36.11" x2="160.58" y2="36.11"/><line class="cls-4" x1="159.17" y1="28.46" x2="159.17" y2="28.46"/><line class="cls-4" x1="159.21" y1="28.49" x2="159.21" y2="28.49"/><circle class="cls-10" cx="155.82" cy="24.91" r="2.74"/><path class="cls-10" d="M156.65,14.53l9.55,9.55a7,7,0,0,1,0,10l-9,9L137.68,23.53l9-9A7,7,0,0,1,156.65,14.53Z"/><path class="cls-10" d="M157,48.75h0a13.58,13.58,0,0,0-4-9.92l-11.1-11.09a13.55,13.55,0,0,0-9.91-4h0a11.51,11.51,0,0,0-7.86,3.36L68.5,82.75A11.49,11.49,0,0,0,68.5,99l13.22,13.23a11.5,11.5,0,0,0,16.25,0L153.6,56.6A11.48,11.48,0,0,0,157,48.75Z"/><path d="M126.27,42a3.7,3.7,0,0,0-4.61-2.74,4.26,4.26,0,0,0-1.82,1.08,4.09,4.09,0,0,0-1.14,1.79,3.64,3.64,0,0,0,0,2,4.09,4.09,0,0,0,2.21,2.66,3.86,3.86,0,0,0,1.31.41.41.41,0,0,0,.37-.12.55.55,0,0,0,.13-.4.49.49,0,0,0-.16-.32.57.57,0,0,0-.35-.16,2.64,2.64,0,0,1-.9-.3,2.91,2.91,0,0,1-.84-.62,2.84,2.84,0,0,1-.77-1.36,2.8,2.8,0,0,1,0-1.49,3,3,0,0,1,.65-1l4,4.12a.47.47,0,0,0,.35.17.45.45,0,0,0,.36-.15,4.17,4.17,0,0,0,1.13-1.69A3.35,3.35,0,0,0,126.27,42Zm-1.11,1.59a3.13,3.13,0,0,1-.61.87L121,40.77a3.43,3.43,0,0,1,.86-.54,2.6,2.6,0,0,1,2.7.72,2.53,2.53,0,0,1,.68,1.26A2.45,2.45,0,0,1,125.16,43.57Z"/><path d="M141.69,58a3.9,3.9,0,0,0-.95-1.6,3.53,3.53,0,0,0-1.47-.94,3.19,3.19,0,0,0-1.23-.08l.43-.42a.57.57,0,0,0-.36-1,.62.62,0,0,0-.4.17l-4.86,4.65a.51.51,0,0,0,0,.78.49.49,0,0,0,.37.18.57.57,0,0,0,.4-.16l3-2.93a1.8,1.8,0,0,1,1-.5,2.31,2.31,0,0,1,1.15.13,3.08,3.08,0,0,1,1.77,1.87,2.13,2.13,0,0,1,0,1.25,2.74,2.74,0,0,1-.82,1.26l-2.68,2.57a.48.48,0,0,0-.18.38.54.54,0,0,0,.17.4.52.52,0,0,0,.37.16.52.52,0,0,0,.4-.15l2.68-2.57a3.93,3.93,0,0,0,1.12-1.71A3.14,3.14,0,0,0,141.69,58Z"/><path d="M136.75,50.15a.52.52,0,0,0-.51-.53.51.51,0,0,0-.52.5,4.8,4.8,0,1,1-1.24-3.27L133.24,48l3.11.12.07-3.12-1.2,1.14a5.7,5.7,0,0,0-4.12-1.9,5.77,5.77,0,1,0,5.65,5.9Z"/></g><rect class="cls-2" x="0.64" y="0.39" width="93.17" height="93.17" rx="22.67"/><path d="M71.14.78A22.31,22.31,0,0,1,93.42,23.06V70.89A22.3,22.3,0,0,1,71.14,93.16H23.31A22.3,22.3,0,0,1,1,70.89V23.06A22.31,22.31,0,0,1,23.31.78H71.14m0-.78H23.31A23.06,23.06,0,0,0,.25,23.06V70.89A23.07,23.07,0,0,0,23.31,94H71.14A23.06,23.06,0,0,0,94.2,70.89V23.06A23.05,23.05,0,0,0,71.14,0Z"/><g id="Layer_1-2-2" data-name="Layer 1-2"><line class="cls-11" x1="46.76" y1="52.78" x2="53.63" y2="48.17"/><line class="cls-11" x1="27.66" y1="48.68" x2="31.8" y2="52.06"/><circle class="cls-12" cx="65.01" cy="41.37" r="16.68"/><circle class="cls-13" cx="22.29" cy="44" r="9.54"/><circle class="cls-14" cx="38.84" cy="58.05" r="11.21"/></g><circle cx="76.9" cy="85" r="13.1"/><polygon class="cls-2" points="75.95 87.57 70.99 96.64 83.42 85.76 78.44 83.04 83.41 73.96 70.98 84.85 75.95 87.57"/><path d="M.3,115.41v-7.7h.92l4.1,6.17v-6.17h.93v7.7H5.32l-4.1-6.17v6.17Z"/><path d="M9.64,115.54a2.54,2.54,0,0,1-1.14-.23,1.55,1.55,0,0,1-.67-.62,1.69,1.69,0,0,1-.22-.83,1.5,1.5,0,0,1,.64-1.29,3,3,0,0,1,1.74-.45h1.47v-.07a1.46,1.46,0,0,0-.37-1.08,1.34,1.34,0,0,0-1-.37,1.59,1.59,0,0,0-.93.27,1.16,1.16,0,0,0-.49.79h-1a1.76,1.76,0,0,1,.4-1A2.27,2.27,0,0,1,9,110a2.7,2.7,0,0,1,1.1-.22,2.26,2.26,0,0,1,1.72.61,2.29,2.29,0,0,1,.58,1.62v3.36h-.83l-.05-1a2.23,2.23,0,0,1-.68.79A2,2,0,0,1,9.64,115.54Zm.14-.78a1.55,1.55,0,0,0,.91-.27,1.83,1.83,0,0,0,.57-.72,2.09,2.09,0,0,0,.2-.92H10.07a1.78,1.78,0,0,0-1.15.28.85.85,0,0,0-.34.69.84.84,0,0,0,.31.69A1.39,1.39,0,0,0,9.78,114.76Z"/><path d="M15.77,115.41a1.76,1.76,0,0,1-1.17-.36,1.65,1.65,0,0,1-.43-1.31v-3h-.95V110h.95l.12-1.31h.8V110H16.7v.78H15.09v3a.93.93,0,0,0,.21.7,1.16,1.16,0,0,0,.74.18h.57v.79Z"/><path d="M19.87,115.54a2,2,0,0,1-1.54-.59,2.46,2.46,0,0,1-.58-1.81V110h.93V113c0,1.14.46,1.71,1.4,1.71a1.54,1.54,0,0,0,1.18-.51,2.1,2.1,0,0,0,.47-1.46V110h.92v5.46h-.84l-.06-1a1.81,1.81,0,0,1-.76.81A2.13,2.13,0,0,1,19.87,115.54Z"/><path d="M24.17,115.41V110H25l.08,1a2,2,0,0,1,.77-.86,2.41,2.41,0,0,1,1.28-.32v1h-.26A2.35,2.35,0,0,0,26,111a1.35,1.35,0,0,0-.65.58,2.19,2.19,0,0,0-.24,1.12v2.75Z"/><path d="M30,115.54a2.54,2.54,0,0,1-1.14-.23,1.55,1.55,0,0,1-.67-.62,1.59,1.59,0,0,1-.22-.83,1.47,1.47,0,0,1,.64-1.29,3,3,0,0,1,1.74-.45H31.8v-.07a1.46,1.46,0,0,0-.37-1.08,1.36,1.36,0,0,0-1-.37,1.59,1.59,0,0,0-.93.27,1.16,1.16,0,0,0-.49.79h-1a1.76,1.76,0,0,1,.4-1,2.2,2.2,0,0,1,.87-.62,2.7,2.7,0,0,1,1.1-.22,2.26,2.26,0,0,1,1.72.61,2.29,2.29,0,0,1,.58,1.62v3.36H31.9l0-1a2.23,2.23,0,0,1-.68.79A2,2,0,0,1,30,115.54Zm.14-.78a1.55,1.55,0,0,0,.91-.27,1.83,1.83,0,0,0,.57-.72,2.09,2.09,0,0,0,.2-.92H30.4a1.81,1.81,0,0,0-1.15.28.87.87,0,0,0-.33.69.84.84,0,0,0,.31.69A1.39,1.39,0,0,0,30.12,114.76Z"/><path d="M34.11,115.41v-7.92H35v7.92Z"/><path d="M36.55,115.41v-7.92h.93v7.92Z"/><path d="M39.59,117.83l1.35-3h-.32L38.46,110h1l1.8,4.25L43.17,110h1l-3.57,7.88Z"/><path d="M51.58,115.54a3.89,3.89,0,0,1-2-.5,3.45,3.45,0,0,1-1.33-1.4,4.37,4.37,0,0,1-.48-2.08,4.28,4.28,0,0,1,.48-2.07,3.54,3.54,0,0,1,1.33-1.41,4.23,4.23,0,0,1,4,0,3.59,3.59,0,0,1,1.32,1.41,4.27,4.27,0,0,1,.47,2.07,4.37,4.37,0,0,1-.47,2.08,3.5,3.5,0,0,1-1.32,1.4A3.93,3.93,0,0,1,51.58,115.54Zm0-.81a2.92,2.92,0,0,0,1.49-.38,2.64,2.64,0,0,0,1-1.09,3.71,3.71,0,0,0,.36-1.7,3.67,3.67,0,0,0-.36-1.69,2.64,2.64,0,0,0-1-1.09,3.11,3.11,0,0,0-3,0,2.64,2.64,0,0,0-1,1.09,3.67,3.67,0,0,0-.36,1.69,3.71,3.71,0,0,0,.36,1.7,2.64,2.64,0,0,0,1,1.09A2.9,2.9,0,0,0,51.58,114.73Z"/><path d="M59.16,115.54a2.79,2.79,0,0,1-1.41-.36,2.46,2.46,0,0,1-1-1,3.31,3.31,0,0,1,0-3,2.52,2.52,0,0,1,1-1,2.79,2.79,0,0,1,1.41-.36,2.6,2.6,0,0,1,1.63.51,2.2,2.2,0,0,1,.84,1.35h-.94a1.27,1.27,0,0,0-.54-.79,1.85,1.85,0,0,0-1-.28,1.77,1.77,0,0,0-.87.23,1.79,1.79,0,0,0-.66.7,2.32,2.32,0,0,0-.26,1.14,2.36,2.36,0,0,0,.26,1.15,1.76,1.76,0,0,0,.66.69,1.68,1.68,0,0,0,.87.24,1.77,1.77,0,0,0,1-.28,1.26,1.26,0,0,0,.54-.8h.94A2.19,2.19,0,0,1,60.8,115,2.59,2.59,0,0,1,59.16,115.54Z"/><path d="M64.91,115.54a2,2,0,0,1-1.54-.59,2.5,2.5,0,0,1-.57-1.81V110h.92V113c0,1.14.47,1.71,1.4,1.71a1.52,1.52,0,0,0,1.18-.51,2.1,2.1,0,0,0,.47-1.46V110h.92v5.46h-.83l-.07-1a1.84,1.84,0,0,1-.75.81A2.17,2.17,0,0,1,64.91,115.54Z"/><path d="M69.21,115.41V110h.84l.07,1a2,2,0,0,1,.77-.86,2.43,2.43,0,0,1,1.28-.32v1h-.25A2.31,2.31,0,0,0,71,111a1.31,1.31,0,0,0-.65.58,2.19,2.19,0,0,0-.25,1.12v2.75Z"/><path d="M73.2,115.41V110H74l.08,1a1.94,1.94,0,0,1,.77-.86,2.39,2.39,0,0,1,1.27-.32v1h-.25A2.35,2.35,0,0,0,75,111a1.35,1.35,0,0,0-.65.58,2.19,2.19,0,0,0-.24,1.12v2.75Z"/><path d="M77.76,108.74a.63.63,0,0,1-.46-.18.61.61,0,0,1-.18-.45.57.57,0,0,1,.18-.44.63.63,0,0,1,.46-.18.64.64,0,0,1,.45.18.58.58,0,0,1,.19.44.62.62,0,0,1-.19.45A.64.64,0,0,1,77.76,108.74Zm-.46,6.67V110h.92v5.46Z"/><path d="M79.83,115.41V110h.83l.06,1a2,2,0,0,1,.76-.81,2.11,2.11,0,0,1,1.12-.3,2.06,2.06,0,0,1,1.54.59,2.48,2.48,0,0,1,.58,1.81v3.19H83.8v-3.09q0-1.71-1.41-1.71a1.49,1.49,0,0,0-1.17.52,2.07,2.07,0,0,0-.47,1.45v2.83Z"/><path d="M88.27,113.69a2.8,2.8,0,0,1-.84-.12l-.55.52a1.05,1.05,0,0,0,.3.15,4,4,0,0,0,.52.11c.23,0,.55.07,1,.1a2.55,2.55,0,0,1,1.57.51,1.42,1.42,0,0,1,.48,1.12,1.71,1.71,0,0,1-.26.9,2,2,0,0,1-.79.71,3.07,3.07,0,0,1-1.37.27,4,4,0,0,1-1.31-.19,1.93,1.93,0,0,1-.9-.58,1.61,1.61,0,0,1-.15-1.65,1.77,1.77,0,0,1,.62-.68,2.73,2.73,0,0,1-.42-.22,2.42,2.42,0,0,1-.31-.25v-.26l.94-.92a1.79,1.79,0,0,1-.65-1.45,1.91,1.91,0,0,1,.25-1,1.79,1.79,0,0,1,.74-.7,2.47,2.47,0,0,1,1.17-.26,2.83,2.83,0,0,1,.86.13h2v.7l-1,0a1.89,1.89,0,0,1-.67,2.74A2.37,2.37,0,0,1,88.27,113.69Zm-1.6,2.42a.88.88,0,0,0,.46.82,2.26,2.26,0,0,0,1.16.27,1.9,1.9,0,0,0,1.09-.29.93.93,0,0,0,.41-.8.8.8,0,0,0-.28-.61,1.81,1.81,0,0,0-1.06-.3c-.4,0-.75-.07-1-.11a1.38,1.38,0,0,0-.6.52A1.23,1.23,0,0,0,86.67,116.11Zm1.6-3.18a1.37,1.37,0,0,0,.93-.3,1.09,1.09,0,0,0,.35-.87,1.11,1.11,0,0,0-.35-.87,1.37,1.37,0,0,0-.93-.3,1.4,1.4,0,0,0-.94.3,1.1,1.1,0,0,0-.34.87,1.09,1.09,0,0,0,.34.87A1.4,1.4,0,0,0,88.27,112.93Z"/><path d="M.3,128.61v-7.7h.92v3.4h4v-3.4h.93v7.7H5.21v-3.54h-4v3.54Z"/><path d="M8.3,131l1.36-2.95H9.34l-2.17-4.93h1L10,127.4l1.91-4.25h1L9.27,131Z"/><path d="M13.83,131v-7.88h.83l.09.91a2.59,2.59,0,0,1,.75-.72,2.3,2.3,0,0,1,1.25-.32,2.62,2.62,0,0,1,1.42.38,2.44,2.44,0,0,1,.94,1,3.35,3.35,0,0,1,0,2.94,2.48,2.48,0,0,1-.94,1,2.67,2.67,0,0,1-1.43.37,2.54,2.54,0,0,1-1.19-.27,1.92,1.92,0,0,1-.8-.77V131Zm2.81-3.09a1.83,1.83,0,0,0,1-.26,1.77,1.77,0,0,0,.66-.72,2.55,2.55,0,0,0,0-2.16,1.91,1.91,0,0,0-.66-.72,1.83,1.83,0,0,0-1-.26,1.79,1.79,0,0,0-1,.26,1.91,1.91,0,0,0-.66.72A2.46,2.46,0,0,0,15,127a1.77,1.77,0,0,0,.66.72A1.79,1.79,0,0,0,16.64,127.94Z"/><path d="M23.22,128.74a2.77,2.77,0,0,1-1.38-.35,2.55,2.55,0,0,1-1-1,3.31,3.31,0,0,1,0-3,2.62,2.62,0,0,1,1-1,2.84,2.84,0,0,1,1.39-.35,2.79,2.79,0,0,1,1.39.35,2.59,2.59,0,0,1,1,1,3.35,3.35,0,0,1,0,3,2.57,2.57,0,0,1-1,1A2.81,2.81,0,0,1,23.22,128.74Zm0-.79a1.78,1.78,0,0,0,.88-.23,1.83,1.83,0,0,0,.66-.69,2.36,2.36,0,0,0,.25-1.15,2.46,2.46,0,0,0-.24-1.14,1.79,1.79,0,0,0-.66-.7,1.77,1.77,0,0,0-.87-.23,1.7,1.7,0,0,0-1.54.93,2.75,2.75,0,0,0,0,2.29,1.83,1.83,0,0,0,.66.69A1.73,1.73,0,0,0,23.22,128Z"/><path d="M29.75,128.74a2.75,2.75,0,0,1-1.4-.36,2.55,2.55,0,0,1-1-1,3.39,3.39,0,0,1,0-3,2.62,2.62,0,0,1,1-1,2.75,2.75,0,0,1,1.4-.36,2.61,2.61,0,0,1,1.64.51,2.24,2.24,0,0,1,.84,1.35h-.95a1.22,1.22,0,0,0-.53-.79,1.86,1.86,0,0,0-1-.28,1.72,1.72,0,0,0-1.53.93,2.75,2.75,0,0,0,0,2.29,1.71,1.71,0,0,0,.67.69,1.67,1.67,0,0,0,.86.24,1.78,1.78,0,0,0,1-.28,1.21,1.21,0,0,0,.53-.8h.95a2.16,2.16,0,0,1-.84,1.34A2.56,2.56,0,0,1,29.75,128.74Z"/><path d="M33.52,128.61v-7.92h.92v3.4a1.91,1.91,0,0,1,.78-.79,2.33,2.33,0,0,1,1.1-.28,2,2,0,0,1,1.52.59,2.52,2.52,0,0,1,.57,1.81v3.19H37.5v-3.09q0-1.71-1.38-1.71a1.58,1.58,0,0,0-1.2.52,2,2,0,0,0-.48,1.45v2.83Z"/><path d="M39.81,128.61v-7.92h.92v7.92Z"/><path d="M44.74,128.74a2.79,2.79,0,0,1-1.39-.35,2.59,2.59,0,0,1-1-1,3.35,3.35,0,0,1,0-3,2.57,2.57,0,0,1,1-1,2.81,2.81,0,0,1,1.39-.35,2.77,2.77,0,0,1,1.38.35,2.62,2.62,0,0,1,1,1,3.31,3.31,0,0,1,0,3,2.62,2.62,0,0,1-1,1A2.84,2.84,0,0,1,44.74,128.74Zm0-.79a1.71,1.71,0,0,0,1.54-.92,2.48,2.48,0,0,0,.25-1.15,2.34,2.34,0,0,0-.25-1.14,1.7,1.7,0,0,0-.65-.7,1.78,1.78,0,0,0-1.75,0,1.79,1.79,0,0,0-.66.7,2.65,2.65,0,0,0,0,2.29,1.81,1.81,0,0,0,.65.69A1.77,1.77,0,0,0,44.74,128Z"/><path d="M48.76,128.61v-5.46h.84l.07,1a2,2,0,0,1,.78-.86,2.37,2.37,0,0,1,1.27-.32v1h-.25a2.35,2.35,0,0,0-.89.17,1.35,1.35,0,0,0-.65.58,2.19,2.19,0,0,0-.24,1.12v2.75Z"/><path d="M55,128.74a2.77,2.77,0,0,1-1.38-.35,2.62,2.62,0,0,1-1-1,3.39,3.39,0,0,1,0-3,2.62,2.62,0,0,1,1-1,2.84,2.84,0,0,1,1.39-.35,2.79,2.79,0,0,1,1.39.35,2.59,2.59,0,0,1,1,1,3.35,3.35,0,0,1,0,3,2.57,2.57,0,0,1-1,1A2.81,2.81,0,0,1,55,128.74Zm0-.79a1.78,1.78,0,0,0,.88-.23,1.83,1.83,0,0,0,.66-.69,2.36,2.36,0,0,0,.26-1.15,2.46,2.46,0,0,0-.25-1.14,1.79,1.79,0,0,0-.66-.7,1.77,1.77,0,0,0-.87-.23,1.83,1.83,0,0,0-.88.23,1.79,1.79,0,0,0-.66.7,2.75,2.75,0,0,0,0,2.29,1.83,1.83,0,0,0,.66.69A1.73,1.73,0,0,0,55,128Z"/><path d="M61.05,128.74a2,2,0,0,1-1.54-.59,2.5,2.5,0,0,1-.57-1.81v-3.19h.92v3.09c0,1.14.47,1.71,1.4,1.71a1.54,1.54,0,0,0,1.18-.51,2.1,2.1,0,0,0,.47-1.46v-2.83h.92v5.46H63l-.07-1a1.84,1.84,0,0,1-.75.81A2.17,2.17,0,0,1,61.05,128.74Z"/><path d="M67.44,128.74a2.61,2.61,0,0,1-1.63-.49,2,2,0,0,1-.76-1.35h1a1.3,1.3,0,0,0,.46.75,1.45,1.45,0,0,0,1,.31,1.24,1.24,0,0,0,.86-.25.76.76,0,0,0,.27-.59.66.66,0,0,0-.35-.66,5.07,5.07,0,0,0-1-.29,5.86,5.86,0,0,1-.88-.26,2.06,2.06,0,0,1-.74-.46,1.12,1.12,0,0,1-.29-.8,1.44,1.44,0,0,1,.53-1.17,2.14,2.14,0,0,1,1.45-.46,2.23,2.23,0,0,1,1.42.44,1.73,1.73,0,0,1,.64,1.23h-.91a1,1,0,0,0-.36-.65,1.26,1.26,0,0,0-.81-.24,1.21,1.21,0,0,0-.76.21.66.66,0,0,0-.27.55.59.59,0,0,0,.35.52,3.92,3.92,0,0,0,.94.32,6.73,6.73,0,0,1,1,.27,1.81,1.81,0,0,1,.75.47,1.31,1.31,0,0,1,.29.91,1.47,1.47,0,0,1-.56,1.21A2.28,2.28,0,0,1,67.44,128.74Z"/><path d="M73.34,128.61l2.83-7.7h1l2.83,7.7H79l-.7-2H75l-.72,2Zm2-2.73H78l-1.36-3.8Z"/><path d="M83.28,128.74a2.73,2.73,0,0,1-1.4-.36,2.48,2.48,0,0,1-1-1,3.3,3.3,0,0,1,0-3,2.55,2.55,0,0,1,1-1,2.73,2.73,0,0,1,1.4-.36,2.6,2.6,0,0,1,1.63.51,2.16,2.16,0,0,1,.84,1.35h-.94a1.2,1.2,0,0,0-.54-.79,1.85,1.85,0,0,0-1-.28,1.77,1.77,0,0,0-.87.23,1.79,1.79,0,0,0-.66.7,2.75,2.75,0,0,0,0,2.29,1.76,1.76,0,0,0,.66.69,1.68,1.68,0,0,0,.87.24,1.77,1.77,0,0,0,1-.28,1.19,1.19,0,0,0,.54-.8h.94a2.15,2.15,0,0,1-.83,1.34A2.59,2.59,0,0,1,83.28,128.74Z"/><path d="M87.6,121.94a.61.61,0,0,1-.45-.18.58.58,0,0,1-.19-.45.55.55,0,0,1,.19-.44.65.65,0,0,1,.9,0,.55.55,0,0,1,.19.44.58.58,0,0,1-.19.45A.61.61,0,0,1,87.6,121.94Zm-.46,6.67v-5.46h.92v5.46Z"/><path d="M92.15,128.74a2.67,2.67,0,0,1-1.43-.37,2.56,2.56,0,0,1-1-1,3.18,3.18,0,0,1-.33-1.47,3.07,3.07,0,0,1,.34-1.47,2.57,2.57,0,0,1,1-1,2.65,2.65,0,0,1,1.43-.37,2.39,2.39,0,0,1,1.18.28,1.94,1.94,0,0,1,.81.77v-3.38h.92v7.92h-.83l-.09-.9a2.61,2.61,0,0,1-.76.71A2.28,2.28,0,0,1,92.15,128.74Zm.09-.8a1.86,1.86,0,0,0,1-.26,1.77,1.77,0,0,0,.66-.72,2.65,2.65,0,0,0,0-2.16,1.91,1.91,0,0,0-.66-.72,1.86,1.86,0,0,0-1-.26,1.82,1.82,0,0,0-1,.26,1.91,1.91,0,0,0-.66.72,2.55,2.55,0,0,0,0,2.16,1.77,1.77,0,0,0,.66.72A1.82,1.82,0,0,0,92.24,127.94Z"/><path d="M2.21,143.4a8,8,0,0,1-1.1-1.35,7.16,7.16,0,0,1-.81-1.77,7.31,7.31,0,0,1-.3-2.13A7.21,7.21,0,0,1,.3,136a6.84,6.84,0,0,1,.81-1.77,7.67,7.67,0,0,1,1.1-1.36h1V133a7.53,7.53,0,0,0-1.62,2.31,6.75,6.75,0,0,0-.62,2.86A6.67,6.67,0,0,0,1.54,141a7.93,7.93,0,0,0,1.62,2.32v.08Z"/><path d="M4.39,141.81v-7.7h.92v3.4h4v-3.4h.92v7.7H9.31v-3.54h-4v3.54Z"/><path d="M15.36,141.94a3.89,3.89,0,0,1-2-.5A3.45,3.45,0,0,1,12,140a4.37,4.37,0,0,1-.48-2.08,4.28,4.28,0,0,1,.48-2.07,3.54,3.54,0,0,1,1.33-1.41,3.89,3.89,0,0,1,2-.5,3.89,3.89,0,0,1,2,.5,3.54,3.54,0,0,1,1.33,1.41,4.39,4.39,0,0,1,.47,2.07,4.49,4.49,0,0,1-.47,2.08,3.45,3.45,0,0,1-1.33,1.4A3.89,3.89,0,0,1,15.36,141.94Zm0-.81a2.92,2.92,0,0,0,1.49-.38,2.58,2.58,0,0,0,1-1.09,3.71,3.71,0,0,0,.36-1.7,3.67,3.67,0,0,0-.36-1.69,2.64,2.64,0,0,0-1-1.09,2.92,2.92,0,0,0-1.49-.38,2.87,2.87,0,0,0-1.49.38,2.66,2.66,0,0,0-1,1.09,3.8,3.8,0,0,0-.35,1.69,3.85,3.85,0,0,0,.35,1.7,2.6,2.6,0,0,0,1,1.09A2.87,2.87,0,0,0,15.36,141.13Z"/><path d="M23.86,141.94a3.67,3.67,0,0,1-1.95-.5,3.32,3.32,0,0,1-1.27-1.4,4.91,4.91,0,0,1,0-4.15,3.4,3.4,0,0,1,1.27-1.41,3.67,3.67,0,0,1,1.95-.5,3.45,3.45,0,0,1,2.15.63,2.83,2.83,0,0,1,1.06,1.77h-1a2.07,2.07,0,0,0-.72-1.15,2.32,2.32,0,0,0-1.47-.44,2.71,2.71,0,0,0-1.44.38,2.47,2.47,0,0,0-1,1.09,4.42,4.42,0,0,0,0,3.4,2.47,2.47,0,0,0,1,1.09,2.71,2.71,0,0,0,1.44.38,2.32,2.32,0,0,0,1.47-.43,2,2,0,0,0,.72-1.12h1A2.77,2.77,0,0,1,26,141.31,3.45,3.45,0,0,1,23.86,141.94Z"/><path d="M28.4,141.81v-7.7h.93v7.7Z"/><path d="M30.56,143.4v-.08A8.13,8.13,0,0,0,32.18,141a6.67,6.67,0,0,0,.62-2.85,6.74,6.74,0,0,0-.61-2.86A8.08,8.08,0,0,0,30.57,133v-.09h.93a6.57,6.57,0,0,1,1.11,1.36,7.22,7.22,0,0,1,1.1,3.9,7.31,7.31,0,0,1-.3,2.13,7.52,7.52,0,0,1-.8,1.77,6.78,6.78,0,0,1-1.11,1.35Z"/><path d="M123.82,115.54a3.72,3.72,0,0,1-1.95-.5,3.32,3.32,0,0,1-1.27-1.4,5,5,0,0,1,0-4.15,3.4,3.4,0,0,1,1.27-1.41,3.72,3.72,0,0,1,1.95-.5,3.45,3.45,0,0,1,2.15.63A2.79,2.79,0,0,1,127,110h-1a2.07,2.07,0,0,0-.72-1.15,2.28,2.28,0,0,0-1.47-.44,2.71,2.71,0,0,0-1.44.38,2.47,2.47,0,0,0-.95,1.09,4.42,4.42,0,0,0,0,3.4,2.53,2.53,0,0,0,.95,1.09,2.71,2.71,0,0,0,1.44.38,2.28,2.28,0,0,0,1.47-.43,2,2,0,0,0,.72-1.12h1a2.73,2.73,0,0,1-1.06,1.73A3.45,3.45,0,0,1,123.82,115.54Z"/><path d="M130.8,115.54a2.79,2.79,0,0,1-1.39-.35,2.52,2.52,0,0,1-1-1,3.35,3.35,0,0,1,0-3,2.57,2.57,0,0,1,1-1,2.92,2.92,0,0,1,2.77,0,2.62,2.62,0,0,1,1,1,3.31,3.31,0,0,1,0,3,2.62,2.62,0,0,1-1,1A2.84,2.84,0,0,1,130.8,115.54Zm0-.79a1.71,1.71,0,0,0,1.54-.92,2.48,2.48,0,0,0,.25-1.15,2.32,2.32,0,0,0-.25-1.14,1.7,1.7,0,0,0-.65-.7,1.78,1.78,0,0,0-1.75,0,1.79,1.79,0,0,0-.66.7,2.32,2.32,0,0,0-.26,1.14,2.36,2.36,0,0,0,.26,1.15,1.81,1.81,0,0,0,.65.69A1.77,1.77,0,0,0,130.8,114.75Z"/><path d="M134.82,115.41V110h.84l.05,1a2,2,0,0,1,.76-.81,2.13,2.13,0,0,1,1.12-.3,2.09,2.09,0,0,1,1.55.59,2.52,2.52,0,0,1,.58,1.81v3.19h-.93v-3.09q0-1.71-1.41-1.71a1.51,1.51,0,0,0-1.17.52,2.07,2.07,0,0,0-.46,1.45v2.83Z"/><path d="M143.27,115.41a1.79,1.79,0,0,1-1.18-.36,1.69,1.69,0,0,1-.43-1.31v-3h-.94V110h.94l.12-1.31h.81V110h1.6v.78h-1.6v3a.93.93,0,0,0,.21.7,1.13,1.13,0,0,0,.73.18h.58v.79Z"/><path d="M145.93,108.74a.65.65,0,0,1-.46-.18.61.61,0,0,1-.18-.45.57.57,0,0,1,.18-.44.65.65,0,0,1,.46-.18.61.61,0,0,1,.45.18.55.55,0,0,1,.19.44.58.58,0,0,1-.19.45A.61.61,0,0,1,145.93,108.74Zm-.46,6.67V110h.92v5.46Z"/><path d="M148,115.41V110h.83l.06,1a2,2,0,0,1,.76-.81,2.11,2.11,0,0,1,1.12-.3,2.09,2.09,0,0,1,1.55.59,2.52,2.52,0,0,1,.57,1.81v3.19H152v-3.09q0-1.71-1.41-1.71a1.49,1.49,0,0,0-1.17.52,2.07,2.07,0,0,0-.47,1.45v2.83Z"/><path d="M156.28,115.54a2.06,2.06,0,0,1-1.54-.59,2.5,2.5,0,0,1-.57-1.81V110h.92V113c0,1.14.47,1.71,1.4,1.71a1.52,1.52,0,0,0,1.18-.51,2.05,2.05,0,0,0,.47-1.46V110h.93v5.46h-.84l-.07-1a1.84,1.84,0,0,1-.75.81A2.15,2.15,0,0,1,156.28,115.54Z"/><path d="M163.07,115.54a2.81,2.81,0,0,1-1.39-.35,2.59,2.59,0,0,1-1-1,3.35,3.35,0,0,1,0-3,2.71,2.71,0,0,1,1-1,2.94,2.94,0,0,1,2.78,0,2.59,2.59,0,0,1,1,1,3.35,3.35,0,0,1,0,3,2.64,2.64,0,0,1-1,1A2.81,2.81,0,0,1,163.07,115.54Zm0-.79a1.81,1.81,0,0,0,.88-.23,1.83,1.83,0,0,0,.66-.69,2.36,2.36,0,0,0,.25-1.15,2.32,2.32,0,0,0-.25-1.14,1.7,1.7,0,0,0-.65-.7,1.77,1.77,0,0,0-.87-.23,1.7,1.7,0,0,0-1.54.93,2.32,2.32,0,0,0-.25,1.14,2.36,2.36,0,0,0,.25,1.15,1.83,1.83,0,0,0,.66.69A1.7,1.7,0,0,0,163.07,114.75Z"/><path d="M169.09,115.54a2,2,0,0,1-1.54-.59,2.46,2.46,0,0,1-.58-1.81V110h.93V113c0,1.14.46,1.71,1.39,1.71a1.54,1.54,0,0,0,1.19-.51,2.1,2.1,0,0,0,.47-1.46V110h.92v5.46H171l-.06-1a1.81,1.81,0,0,1-.76.81A2.13,2.13,0,0,1,169.09,115.54Z"/><path d="M175.48,115.54a2.59,2.59,0,0,1-1.63-.49,1.93,1.93,0,0,1-.76-1.35H174a1.29,1.29,0,0,0,.45.75,1.5,1.5,0,0,0,1,.31,1.24,1.24,0,0,0,.86-.25.76.76,0,0,0,.27-.59.65.65,0,0,0-.36-.66,4.75,4.75,0,0,0-1-.29,5.54,5.54,0,0,1-.88-.26,2,2,0,0,1-.74-.46,1.09,1.09,0,0,1-.3-.8,1.45,1.45,0,0,1,.54-1.17,2.09,2.09,0,0,1,1.44-.46,2.26,2.26,0,0,1,1.43.44,1.73,1.73,0,0,1,.64,1.23h-.91a1,1,0,0,0-.36-.65,1.26,1.26,0,0,0-.81-.24,1.21,1.21,0,0,0-.76.21.66.66,0,0,0-.27.55.58.58,0,0,0,.34.52,4.25,4.25,0,0,0,.94.32,7.26,7.26,0,0,1,1,.27,1.81,1.81,0,0,1,.75.47,1.31,1.31,0,0,1,.29.91,1.5,1.5,0,0,1-.56,1.21A2.3,2.3,0,0,1,175.48,115.54Z"/><path d="M184.31,115.54a3.22,3.22,0,0,1-1.47-.31,2.24,2.24,0,0,1-1-.85,2.38,2.38,0,0,1-.34-1.28h1a1.67,1.67,0,0,0,.2.83,1.7,1.7,0,0,0,.61.61,2,2,0,0,0,1,.22,1.79,1.79,0,0,0,1.21-.37,1.18,1.18,0,0,0,.43-.94,1.27,1.27,0,0,0-.2-.74,1.49,1.49,0,0,0-.53-.46,4.57,4.57,0,0,0-.77-.31c-.29-.08-.59-.18-.91-.29a3.29,3.29,0,0,1-1.32-.77,1.64,1.64,0,0,1-.43-1.19,2,2,0,0,1,.29-1.1,2.09,2.09,0,0,1,.84-.74,3.19,3.19,0,0,1,2.57,0,2.1,2.1,0,0,1,.85.76,2,2,0,0,1,.31,1.1h-1a1.34,1.34,0,0,0-.16-.63,1.29,1.29,0,0,0-.5-.51,1.63,1.63,0,0,0-.84-.2,1.51,1.51,0,0,0-1,.32,1.1,1.1,0,0,0-.4.91,1,1,0,0,0,.28.76,2.18,2.18,0,0,0,.79.44l1.16.39a5,5,0,0,1,1,.46,2,2,0,0,1,.69.68,2.12,2.12,0,0,1,.25,1.07,2.07,2.07,0,0,1-.29,1,2.13,2.13,0,0,1-.86.79A3,3,0,0,1,184.31,115.54Z"/><path d="M188.16,117.83V110H189l.08.91a2.51,2.51,0,0,1,.76-.72,2.24,2.24,0,0,1,1.24-.32,2.62,2.62,0,0,1,1.42.38,2.53,2.53,0,0,1,.95,1,3.44,3.44,0,0,1,0,2.94,2.5,2.5,0,0,1-.95,1,2.67,2.67,0,0,1-1.43.37,2.57,2.57,0,0,1-1.19-.27,2,2,0,0,1-.8-.77v3.33Zm2.82-3.09a1.79,1.79,0,0,0,1-.26,1.77,1.77,0,0,0,.66-.72,2.46,2.46,0,0,0,0-2.16,1.84,1.84,0,0,0-.66-.72,1.79,1.79,0,0,0-1-.26,1.77,1.77,0,0,0-1.63,1,2.55,2.55,0,0,0,0,2.16,1.77,1.77,0,0,0,.66.72A1.83,1.83,0,0,0,191,114.74Z"/><path d="M195.07,115.41V110h.83l.08,1a2,2,0,0,1,.77-.86,2.41,2.41,0,0,1,1.28-.32v1h-.26a2.35,2.35,0,0,0-.89.17,1.35,1.35,0,0,0-.65.58,2.19,2.19,0,0,0-.24,1.12v2.75Z"/><path d="M200.88,115.54a2.54,2.54,0,0,1-1.14-.23,1.55,1.55,0,0,1-.67-.62,1.59,1.59,0,0,1-.22-.83,1.47,1.47,0,0,1,.64-1.29,3,3,0,0,1,1.74-.45h1.47v-.07a1.46,1.46,0,0,0-.37-1.08,1.34,1.34,0,0,0-1-.37,1.59,1.59,0,0,0-.93.27,1.16,1.16,0,0,0-.49.79H199a1.76,1.76,0,0,1,.4-1,2.2,2.2,0,0,1,.87-.62,2.7,2.7,0,0,1,1.1-.22,2.26,2.26,0,0,1,1.72.61,2.29,2.29,0,0,1,.58,1.62v3.36h-.83l-.05-1a2.23,2.23,0,0,1-.68.79A2,2,0,0,1,200.88,115.54Zm.14-.78a1.55,1.55,0,0,0,.91-.27,1.83,1.83,0,0,0,.57-.72,2.09,2.09,0,0,0,.2-.92h-1.4a1.76,1.76,0,0,0-1.14.28.85.85,0,0,0-.34.69.84.84,0,0,0,.31.69A1.39,1.39,0,0,0,201,114.76Z"/><path d="M205.44,117.83l1.35-3h-.32L204.31,110h1l1.8,4.25L209,110H210l-3.57,7.88Z"/><path d="M120.45,128.61v-7.7h4.68v.76h-3.76v2.7h3.2v.75h-3.2v3.49Z"/><path d="M126.83,121.94a.62.62,0,0,1-.46-.18.61.61,0,0,1-.18-.45.57.57,0,0,1,.18-.44.62.62,0,0,1,.46-.18.64.64,0,0,1,.45.18.57.57,0,0,1,.18.44.61.61,0,0,1-.18.45A.64.64,0,0,1,126.83,121.94Zm-.47,6.67v-5.46h.93v5.46Z"/><path d="M128.89,128.61v-5.46h.84l.05,1a2,2,0,0,1,.76-.81,2.15,2.15,0,0,1,1.13-.3,2.06,2.06,0,0,1,1.54.59,2.48,2.48,0,0,1,.58,1.81v3.19h-.93v-3.09c0-1.14-.47-1.71-1.4-1.71a1.53,1.53,0,0,0-1.18.52,2.07,2.07,0,0,0-.46,1.45v2.83Z"/><path d="M137.64,128.74a2.69,2.69,0,0,1-1.39-.36,2.52,2.52,0,0,1-.95-1,3.15,3.15,0,0,1-.35-1.51,3.25,3.25,0,0,1,.34-1.5,2.5,2.5,0,0,1,1-1,2.69,2.69,0,0,1,1.41-.36,2.54,2.54,0,0,1,1.37.36,2.51,2.51,0,0,1,.89.94,2.71,2.71,0,0,1,.3,1.25v.25a2.26,2.26,0,0,0,0,.27h-4.34a2.16,2.16,0,0,0,.29,1,1.68,1.68,0,0,0,.65.62,1.71,1.71,0,0,0,.83.21,1.66,1.66,0,0,0,1-.26,1.56,1.56,0,0,0,.57-.72h.91a2.39,2.39,0,0,1-2.43,1.76Zm0-4.94a1.88,1.88,0,0,0-1.17.4,1.59,1.59,0,0,0-.59,1.18h3.43a1.54,1.54,0,0,0-.51-1.16A1.67,1.67,0,0,0,137.64,123.8Z"/><path d="M141.33,125.8V125h4.36v.78Z"/><path d="M147.09,128.61v-5.46h.83l.07.8a1.79,1.79,0,0,1,.7-.69,2.07,2.07,0,0,1,1-.24,2.19,2.19,0,0,1,1.12.27,1.71,1.71,0,0,1,.72.8,2,2,0,0,1,.79-.78,2.27,2.27,0,0,1,2.64.3,2.48,2.48,0,0,1,.58,1.81v3.19h-.91v-3.09a2,2,0,0,0-.34-1.28,1.19,1.19,0,0,0-1-.43,1.35,1.35,0,0,0-1.09.52,2.17,2.17,0,0,0-.44,1.45v2.83h-.92v-3.09a2.08,2.08,0,0,0-.34-1.28,1.21,1.21,0,0,0-1-.43,1.36,1.36,0,0,0-1.09.52,2.22,2.22,0,0,0-.43,1.45v2.83Z"/><path d="M157.49,121.94a.61.61,0,0,1-.45-.18.58.58,0,0,1-.19-.45.55.55,0,0,1,.19-.44.65.65,0,0,1,.9,0,.55.55,0,0,1,.19.44.58.58,0,0,1-.19.45A.61.61,0,0,1,157.49,121.94Zm-.46,6.67v-5.46H158v5.46Z"/><path d="M161.65,128.74a2.61,2.61,0,0,1-1.63-.49,2,2,0,0,1-.76-1.35h1a1.3,1.3,0,0,0,.46.75,1.45,1.45,0,0,0,1,.31,1.24,1.24,0,0,0,.86-.25.76.76,0,0,0,.27-.59.66.66,0,0,0-.35-.66,5.07,5.07,0,0,0-1-.29,5.86,5.86,0,0,1-.88-.26,2.06,2.06,0,0,1-.74-.46,1.12,1.12,0,0,1-.29-.8,1.44,1.44,0,0,1,.53-1.17,2.14,2.14,0,0,1,1.45-.46,2.23,2.23,0,0,1,1.42.44,1.73,1.73,0,0,1,.64,1.23h-.91a1,1,0,0,0-.36-.65,1.26,1.26,0,0,0-.81-.24,1.21,1.21,0,0,0-.76.21.66.66,0,0,0-.27.55.59.59,0,0,0,.35.52,3.92,3.92,0,0,0,.94.32,6.73,6.73,0,0,1,1,.27,1.81,1.81,0,0,1,.75.47,1.31,1.31,0,0,1,.29.91,1.47,1.47,0,0,1-.56,1.21A2.28,2.28,0,0,1,161.65,128.74Z"/><path d="M167,128.61a1.74,1.74,0,0,1-1.17-.36,1.65,1.65,0,0,1-.43-1.31v-3h-1v-.78h1l.12-1.31h.8v1.31h1.61v.78h-1.61v3a.93.93,0,0,0,.21.7,1.16,1.16,0,0,0,.74.18h.57v.79Z"/><path d="M173.8,128.74a2.52,2.52,0,0,1-1.13-.23,1.55,1.55,0,0,1-.67-.62,1.59,1.59,0,0,1-.22-.83,1.47,1.47,0,0,1,.64-1.29,3,3,0,0,1,1.74-.45h1.47v-.07a1.46,1.46,0,0,0-.37-1.08,1.36,1.36,0,0,0-1-.37,1.59,1.59,0,0,0-.93.27,1.16,1.16,0,0,0-.49.79h-1a1.76,1.76,0,0,1,.4-1,2.2,2.2,0,0,1,.87-.62,2.7,2.7,0,0,1,1.1-.22,2.26,2.26,0,0,1,1.72.61,2.29,2.29,0,0,1,.57,1.62v3.36h-.82l-.06-1a2.2,2.2,0,0,1-.67.79A2.05,2.05,0,0,1,173.8,128.74ZM174,128a1.5,1.5,0,0,0,.9-.27,1.77,1.77,0,0,0,.58-.72,2.24,2.24,0,0,0,.2-.92h-1.4a1.81,1.81,0,0,0-1.15.28.87.87,0,0,0-.33.69.84.84,0,0,0,.31.69A1.39,1.39,0,0,0,174,128Z"/><path d="M180.45,128.74a2.73,2.73,0,0,1-1.4-.36,2.48,2.48,0,0,1-1-1,3.31,3.31,0,0,1,0-3,2.55,2.55,0,0,1,1-1,2.73,2.73,0,0,1,1.4-.36,2.6,2.6,0,0,1,1.63.51,2.16,2.16,0,0,1,.84,1.35H182a1.27,1.27,0,0,0-.54-.79,1.85,1.85,0,0,0-1-.28,1.77,1.77,0,0,0-.87.23,1.79,1.79,0,0,0-.66.7,2.75,2.75,0,0,0,0,2.29,1.76,1.76,0,0,0,.66.69,1.68,1.68,0,0,0,.87.24,1.77,1.77,0,0,0,1-.28,1.26,1.26,0,0,0,.54-.8h.94a2.15,2.15,0,0,1-.83,1.34A2.59,2.59,0,0,1,180.45,128.74Z"/><path d="M186.21,128.61a1.74,1.74,0,0,1-1.17-.36,1.65,1.65,0,0,1-.43-1.31v-3h-1v-.78h1l.12-1.31h.8v1.31h1.61v.78h-1.61v3a.93.93,0,0,0,.21.7,1.14,1.14,0,0,0,.74.18h.57v.79Z"/><path d="M190.3,128.74a2,2,0,0,1-1.54-.59,2.5,2.5,0,0,1-.57-1.81v-3.19h.93v3.09c0,1.14.46,1.71,1.39,1.71a1.56,1.56,0,0,0,1.19-.51,2.1,2.1,0,0,0,.46-1.46v-2.83h.93v5.46h-.84l-.06-1a1.81,1.81,0,0,1-.76.81A2.15,2.15,0,0,1,190.3,128.74Z"/><path d="M196.42,128.74a2.52,2.52,0,0,1-1.13-.23,1.5,1.5,0,0,1-.67-.62,1.59,1.59,0,0,1-.22-.83,1.47,1.47,0,0,1,.64-1.29,2.94,2.94,0,0,1,1.73-.45h1.48v-.07a1.46,1.46,0,0,0-.38-1.08,1.34,1.34,0,0,0-1-.37,1.59,1.59,0,0,0-.93.27,1.19,1.19,0,0,0-.49.79h-.94a1.69,1.69,0,0,1,.4-1,2.24,2.24,0,0,1,.86-.62,2.74,2.74,0,0,1,1.1-.22,2.07,2.07,0,0,1,2.3,2.23v3.36h-.82l-.06-1a2.13,2.13,0,0,1-.68.79A2,2,0,0,1,196.42,128.74Zm.14-.78a1.51,1.51,0,0,0,.91-.27,1.85,1.85,0,0,0,.58-.72,2.24,2.24,0,0,0,.2-.92h-1.4a1.79,1.79,0,0,0-1.15.28.88.88,0,0,0-.34.69.85.85,0,0,0,.32.69A1.36,1.36,0,0,0,196.56,128Z"/><path d="M202.56,128.61a1.79,1.79,0,0,1-1.18-.36,1.69,1.69,0,0,1-.43-1.31v-3H200v-.78H201l.12-1.31h.81v1.31h1.6v.78h-1.6v3a.93.93,0,0,0,.21.7,1.11,1.11,0,0,0,.73.18h.57v.79Z"/><path d="M207,128.74a2.77,2.77,0,0,1-1.38-.35,2.55,2.55,0,0,1-1-1,3.31,3.31,0,0,1,0-3,2.62,2.62,0,0,1,1-1A2.84,2.84,0,0,1,207,123a2.79,2.79,0,0,1,1.39.35,2.59,2.59,0,0,1,1,1,3.35,3.35,0,0,1,0,3,2.64,2.64,0,0,1-1,1A2.81,2.81,0,0,1,207,128.74Zm0-.79a1.78,1.78,0,0,0,.88-.23,1.83,1.83,0,0,0,.66-.69,2.36,2.36,0,0,0,.25-1.15,2.46,2.46,0,0,0-.24-1.14,1.79,1.79,0,0,0-.66-.7,1.77,1.77,0,0,0-.87-.23,1.7,1.7,0,0,0-1.54.93,2.75,2.75,0,0,0,0,2.29,1.83,1.83,0,0,0,.66.69A1.73,1.73,0,0,0,207,128Z"/><path d="M211,128.61v-5.46h.83l.08,1a2,2,0,0,1,.77-.86A2.41,2.41,0,0,1,214,123v1h-.26a2.35,2.35,0,0,0-.89.17,1.35,1.35,0,0,0-.65.58,2.19,2.19,0,0,0-.24,1.12v2.75Z"/><path d="M251.32,115.41v-6.94H249v-.76h5.52v.76h-2.3v6.94Z"/><path d="M257.94,115.54a3.22,3.22,0,0,1-1.47-.31,2.3,2.3,0,0,1-1-.85,2.38,2.38,0,0,1-.34-1.28h1a1.78,1.78,0,0,0,.2.83,1.65,1.65,0,0,0,.62.61,2,2,0,0,0,1,.22,1.77,1.77,0,0,0,1.21-.37,1.18,1.18,0,0,0,.43-.94,1.27,1.27,0,0,0-.2-.74,1.49,1.49,0,0,0-.53-.46,4.57,4.57,0,0,0-.77-.31c-.29-.08-.59-.18-.91-.29a3.29,3.29,0,0,1-1.32-.77,1.64,1.64,0,0,1-.43-1.19,2,2,0,0,1,.29-1.1,2.09,2.09,0,0,1,.84-.74,3.19,3.19,0,0,1,2.57,0,2.1,2.1,0,0,1,.85.76,2,2,0,0,1,.31,1.1h-1a1.35,1.35,0,0,0-.17-.63,1.29,1.29,0,0,0-.5-.51,1.63,1.63,0,0,0-.84-.2,1.51,1.51,0,0,0-1,.32,1.1,1.1,0,0,0-.4.91,1,1,0,0,0,.28.76,2.18,2.18,0,0,0,.79.44l1.16.39a5,5,0,0,1,1,.46,1.88,1.88,0,0,1,.69.68,2.12,2.12,0,0,1,.25,1.07,2.07,2.07,0,0,1-.29,1,2.13,2.13,0,0,1-.86.79A3,3,0,0,1,257.94,115.54Z"/><path d="M261.36,115.41l2.84-7.7h1l2.82,7.7h-1l-.71-2H263l-.71,2Zm2-2.73h2.73l-1.37-3.8Z"/><path d="M268.65,112.6v-.78H273v.78Z"/><path d="M274.46,115.41v-7.7h4.69v.76h-3.76v2.7h3.2v.75h-3.2v3.49Z"/><path d="M280.28,115.41V110h.84l.07,1a2,2,0,0,1,.77-.86,2.43,2.43,0,0,1,1.28-.32v1H283a2.31,2.31,0,0,0-.89.17,1.31,1.31,0,0,0-.65.58,2.19,2.19,0,0,0-.25,1.12v2.75Z"/><path d="M284.83,108.74a.62.62,0,0,1-.63-.63.57.57,0,0,1,.18-.44.61.61,0,0,1,.45-.18.65.65,0,0,1,.46.18.57.57,0,0,1,.18.44.61.61,0,0,1-.18.45A.65.65,0,0,1,284.83,108.74Zm-.46,6.67V110h.93v5.46Z"/><path d="M289.36,115.54a2.64,2.64,0,0,1-1.39-.36,2.52,2.52,0,0,1-1-1,3.15,3.15,0,0,1-.35-1.51,3.25,3.25,0,0,1,.34-1.5,2.54,2.54,0,0,1,.95-1,2.75,2.75,0,0,1,1.42-.36,2.54,2.54,0,0,1,1.37.36,2.41,2.41,0,0,1,.88.94,2.6,2.6,0,0,1,.31,1.25,2.18,2.18,0,0,1,0,.25v.27h-4.35a2.16,2.16,0,0,0,.3,1,1.61,1.61,0,0,0,.65.62,1.71,1.71,0,0,0,.83.21,1.66,1.66,0,0,0,.95-.26,1.48,1.48,0,0,0,.56-.72h.92a2.39,2.39,0,0,1-2.43,1.76Zm0-4.94a1.93,1.93,0,0,0-1.18.4,1.62,1.62,0,0,0-.58,1.17H291a1.53,1.53,0,0,0-.51-1.15A1.67,1.67,0,0,0,289.36,110.6Z"/><path d="M293.16,115.41V110H294l.05,1a2,2,0,0,1,.76-.81,2.13,2.13,0,0,1,1.12-.3,2.09,2.09,0,0,1,1.55.59,2.52,2.52,0,0,1,.58,1.81v3.19h-.93v-3.09q0-1.71-1.41-1.71a1.49,1.49,0,0,0-1.17.52,2.07,2.07,0,0,0-.47,1.45v2.83Z"/><path d="M301.93,115.54a2.7,2.7,0,0,1-1.43-.37,2.53,2.53,0,0,1-.94-1,3.07,3.07,0,0,1-.34-1.47,3.19,3.19,0,0,1,.34-1.47,2.58,2.58,0,0,1,2.38-1.38,2.43,2.43,0,0,1,1.19.28,2,2,0,0,1,.8.77v-3.38h.92v7.92H304l-.09-.9a2.61,2.61,0,0,1-.76.71A2.26,2.26,0,0,1,301.93,115.54Zm.1-.8a1.85,1.85,0,0,0,1-.26,1.77,1.77,0,0,0,.66-.72,2.55,2.55,0,0,0,0-2.16,1.77,1.77,0,0,0-1.63-1,1.88,1.88,0,0,0-1,.26,1.74,1.74,0,0,0-.65.72,2.55,2.55,0,0,0,0,2.16,1.68,1.68,0,0,0,.65.72A1.88,1.88,0,0,0,302,114.74Z"/><path d="M306.36,115.41v-7.92h.93v7.92Z"/><path d="M309.4,117.83l1.35-3h-.32L308.26,110h1l1.81,4.25L313,110h1l-3.57,7.88Z"/><path d="M249.39,128.61V128c.52-.41,1-.83,1.48-1.25a16.36,16.36,0,0,0,1.25-1.25,6.24,6.24,0,0,0,.85-1.21,2.41,2.41,0,0,0,.32-1.14,2.14,2.14,0,0,0-.14-.76,1.25,1.25,0,0,0-.45-.57,1.71,1.71,0,0,0-1.68,0,1.38,1.38,0,0,0-.51.59,2,2,0,0,0-.17.81h-.89a2.5,2.5,0,0,1,.32-1.31,2.11,2.11,0,0,1,.87-.83,2.63,2.63,0,0,1,1.24-.28,2.48,2.48,0,0,1,1.68.57,2.21,2.21,0,0,1,.65,1.73,2.87,2.87,0,0,1-.34,1.34,6.64,6.64,0,0,1-.87,1.29,11.27,11.27,0,0,1-1.13,1.16c-.4.36-.77.68-1.11,1h3.72v.77Z"/><path d="M258.72,128.61v-7.7h4.69v.76h-3.76v2.7h3.2v.75h-3.2v3.49Z"/><path d="M264.6,128.61v-7.7h.92v7h3.59v.74Z"/><path d="M270.63,128.66a.61.61,0,0,1-.45-.18A.6.6,0,0,1,270,128a.63.63,0,1,1,1.26,0,.6.6,0,0,1-.18.44A.61.61,0,0,1,270.63,128.66Z"/><path d="M278.93,128.74a3.89,3.89,0,0,1-2-.5,3.45,3.45,0,0,1-1.33-1.4,4.37,4.37,0,0,1-.48-2.08,4.28,4.28,0,0,1,.48-2.07,3.54,3.54,0,0,1,1.33-1.41,4.21,4.21,0,0,1,4,0,3.54,3.54,0,0,1,1.33,1.41,4.27,4.27,0,0,1,.47,2.07,4.37,4.37,0,0,1-.47,2.08,3.45,3.45,0,0,1-1.33,1.4A3.87,3.87,0,0,1,278.93,128.74Zm0-.81a2.92,2.92,0,0,0,1.49-.38,2.58,2.58,0,0,0,1-1.09,3.71,3.71,0,0,0,.36-1.7,3.67,3.67,0,0,0-.36-1.69,2.64,2.64,0,0,0-1-1.09,3.11,3.11,0,0,0-3,0,2.57,2.57,0,0,0-1,1.09,3.67,3.67,0,0,0-.36,1.69,3.71,3.71,0,0,0,.36,1.7,2.52,2.52,0,0,0,1,1.09A2.9,2.9,0,0,0,278.93,127.93Z"/><path d="M283.72,128.61v-.73l3.8-6.17h-3.74v-.8h4.82v.73l-3.81,6.17h3.85v.8Z"/><path d="M290.2,128.66a.61.61,0,0,1-.45-.18.6.6,0,0,1-.18-.44.63.63,0,1,1,1.26,0,.6.6,0,0,1-.18.44A.61.61,0,0,1,290.2,128.66Z"/><path d="M249.51,141.81v-7.7H252a3.24,3.24,0,0,1,1.49.3,1.86,1.86,0,0,1,.86.8,2.29,2.29,0,0,1,.28,1.14,2.4,2.4,0,0,1-.27,1.14,2.11,2.11,0,0,1-.86.81,3.28,3.28,0,0,1-1.5.3h-1.6v3.21Zm.93-4H252a1.83,1.83,0,0,0,1.32-.39,1.69,1.69,0,0,0,0-2.16,1.83,1.83,0,0,0-1.32-.39h-1.58Z"/><path d="M258,141.94a2.63,2.63,0,0,1-1.38-.36,2.54,2.54,0,0,1-1-1,3.5,3.5,0,0,1,0-3,2.48,2.48,0,0,1,.95-1,2.74,2.74,0,0,1,1.41-.36,2.52,2.52,0,0,1,1.37.36,2.43,2.43,0,0,1,.89.94,2.72,2.72,0,0,1,.31,1.25c0,.08,0,.16,0,.25v.27h-4.35a2.16,2.16,0,0,0,.29,1,1.68,1.68,0,0,0,.65.62,1.83,1.83,0,0,0,1.79,0,1.54,1.54,0,0,0,.56-.72h.91a2.36,2.36,0,0,1-.84,1.26A2.46,2.46,0,0,1,258,141.94Zm0-4.94a1.88,1.88,0,0,0-1.17.4,1.63,1.63,0,0,0-.59,1.18h3.43a1.57,1.57,0,0,0-.5-1.16A1.71,1.71,0,0,0,258,137Z"/><path d="M261.77,141.81v-5.46h.83l.08,1.05a2,2,0,0,1,.77-.86,2.41,2.41,0,0,1,1.28-.32v1h-.26a2.35,2.35,0,0,0-.89.17,1.35,1.35,0,0,0-.65.58,2.19,2.19,0,0,0-.24,1.12v2.75Z"/><path d="M267.85,141.94a2.63,2.63,0,0,1-1.63-.49,2,2,0,0,1-.76-1.35h1a1.3,1.3,0,0,0,.46.75,1.45,1.45,0,0,0,1,.31,1.23,1.23,0,0,0,.86-.25.77.77,0,0,0,.28-.59.63.63,0,0,0-.36-.65,4.41,4.41,0,0,0-1-.3,5.86,5.86,0,0,1-.88-.26,1.93,1.93,0,0,1-.74-.46,1.12,1.12,0,0,1-.29-.8,1.44,1.44,0,0,1,.53-1.17,2.14,2.14,0,0,1,1.45-.46,2.23,2.23,0,0,1,1.42.44,1.7,1.7,0,0,1,.64,1.23h-.91a.91.91,0,0,0-.36-.65,1.25,1.25,0,0,0-.8-.24,1.24,1.24,0,0,0-.77.21.66.66,0,0,0-.27.55.59.59,0,0,0,.35.52,3.92,3.92,0,0,0,.94.32,6.73,6.73,0,0,1,1,.27,1.69,1.69,0,0,1,.75.47,1.31,1.31,0,0,1,.29.91,1.49,1.49,0,0,1-.55,1.21A2.31,2.31,0,0,1,267.85,141.94Z"/><path d="M273.75,141.94a2.79,2.79,0,0,1-1.39-.35,2.59,2.59,0,0,1-1-1,3.35,3.35,0,0,1,0-3,2.57,2.57,0,0,1,1-1,2.94,2.94,0,0,1,2.78,0,2.59,2.59,0,0,1,1,1,3,3,0,0,1,.36,1.51,2.91,2.91,0,0,1-.37,1.51,2.62,2.62,0,0,1-1,1A2.84,2.84,0,0,1,273.75,141.94Zm0-.79a1.81,1.81,0,0,0,.88-.23,1.83,1.83,0,0,0,.66-.69,2.75,2.75,0,0,0,0-2.29,1.7,1.7,0,0,0-.65-.7,1.78,1.78,0,0,0-1.75,0,1.79,1.79,0,0,0-.66.7,2.75,2.75,0,0,0,0,2.29,1.88,1.88,0,0,0,.65.69A1.77,1.77,0,0,0,273.75,141.15Z"/><path d="M277.77,141.81v-5.46h.84l.05,1a2,2,0,0,1,.76-.81,2.13,2.13,0,0,1,1.12-.3,2.07,2.07,0,0,1,1.55.59,2.48,2.48,0,0,1,.58,1.81v3.19h-.93v-3.09c0-1.14-.47-1.71-1.4-1.71a1.53,1.53,0,0,0-1.18.52,2.07,2.07,0,0,0-.46,1.45v2.83Z"/><path d="M285.88,141.94a2.49,2.49,0,0,1-1.13-.23,1.5,1.5,0,0,1-.67-.62,1.59,1.59,0,0,1-.22-.83,1.49,1.49,0,0,1,.63-1.29,3,3,0,0,1,1.74-.45h1.48v-.07a1.46,1.46,0,0,0-.38-1.08,1.38,1.38,0,0,0-1-.37,1.59,1.59,0,0,0-.93.27,1.19,1.19,0,0,0-.49.79H284a1.69,1.69,0,0,1,.4-1,2.24,2.24,0,0,1,.86-.62,2.74,2.74,0,0,1,1.1-.22,2.07,2.07,0,0,1,2.3,2.23v3.36h-.83l-.05-1a2.13,2.13,0,0,1-.68.79A2,2,0,0,1,285.88,141.94Zm.14-.78a1.51,1.51,0,0,0,.91-.27,1.85,1.85,0,0,0,.58-.72,2.24,2.24,0,0,0,.2-.92h-1.4a1.79,1.79,0,0,0-1.15.28.88.88,0,0,0-.34.69.85.85,0,0,0,.32.69A1.36,1.36,0,0,0,286,141.16Z"/><path d="M290,141.81v-7.92h.92v7.92Z"/><path d="M297.88,141.94a3.22,3.22,0,0,1-1.47-.31,2.3,2.3,0,0,1-1-.85,2.38,2.38,0,0,1-.34-1.28h1a1.67,1.67,0,0,0,.2.83,1.62,1.62,0,0,0,.61.61,2,2,0,0,0,1,.22,1.79,1.79,0,0,0,1.21-.37,1.18,1.18,0,0,0,.43-.94,1.27,1.27,0,0,0-.2-.74,1.49,1.49,0,0,0-.53-.46,5.6,5.6,0,0,0-.77-.31c-.29-.08-.59-.18-.91-.29a3.29,3.29,0,0,1-1.32-.77,1.64,1.64,0,0,1-.43-1.19,1.9,1.9,0,0,1,.29-1.09,2,2,0,0,1,.84-.75,3.19,3.19,0,0,1,2.57,0,2.1,2.1,0,0,1,.85.76,2,2,0,0,1,.31,1.1h-1a1.34,1.34,0,0,0-.16-.63,1.29,1.29,0,0,0-.5-.51,1.63,1.63,0,0,0-.84-.2,1.51,1.51,0,0,0-1,.32,1.1,1.1,0,0,0-.4.91,1,1,0,0,0,.28.76,2.18,2.18,0,0,0,.79.44l1.16.39a5,5,0,0,1,1,.46,2,2,0,0,1,.69.68,2.12,2.12,0,0,1,.25,1.07,2.07,2.07,0,0,1-.29,1,2.13,2.13,0,0,1-.86.79A3,3,0,0,1,297.88,141.94Z"/><path d="M302.29,135.14a.65.65,0,0,1-.46-.18.61.61,0,0,1-.18-.45.57.57,0,0,1,.18-.44.65.65,0,0,1,.46-.18.61.61,0,0,1,.45.18.55.55,0,0,1,.19.44.58.58,0,0,1-.19.45A.61.61,0,0,1,302.29,135.14Zm-.46,6.67v-5.46h.92v5.46Z"/><path d="M304,141.81v-.76l3-3.93h-3v-.77h4v.76L305,141h3.09v.77Z"/><path d="M311.78,141.94a2.63,2.63,0,0,1-1.38-.36,2.45,2.45,0,0,1-.95-1,3,3,0,0,1-.35-1.51,3.13,3.13,0,0,1,.34-1.5,2.48,2.48,0,0,1,.95-1,2.75,2.75,0,0,1,1.42-.36,2.51,2.51,0,0,1,1.36.36,2.43,2.43,0,0,1,.89.94,2.6,2.6,0,0,1,.31,1.25,2.18,2.18,0,0,1,0,.25v.27H310a2.16,2.16,0,0,0,.29,1,1.73,1.73,0,0,0,1.48.83,1.72,1.72,0,0,0,1-.26,1.54,1.54,0,0,0,.56-.72h.91a2.36,2.36,0,0,1-.84,1.26A2.46,2.46,0,0,1,311.78,141.94Zm0-4.94a1.88,1.88,0,0,0-1.17.4,1.63,1.63,0,0,0-.59,1.18h3.44a1.61,1.61,0,0,0-.51-1.16A1.7,1.7,0,0,0,311.78,137Z"/><circle class="cls-15" cx="190.56" cy="85.04" r="13.06"/><path class="cls-16" d="M194.38,92a7.7,7.7,0,0,1-11.25-8.71"/><polygon class="cls-17" points="185.33 85.34 185.12 79.86 180.47 82.78 185.33 85.34"/><path class="cls-16" d="M186.74,78.62A7.7,7.7,0,0,1,198,87.33"/><polygon class="cls-17" points="195.8 85.27 196.01 90.75 200.65 87.83 195.8 85.27"/><rect class="cls-2" x="232.79" y="0.39" width="93.17" height="93.17" rx="22.67"/><path d="M303.28.78a22.3,22.3,0,0,1,22.28,22.28V70.89a22.3,22.3,0,0,1-22.28,22.27H255.45a22.29,22.29,0,0,1-22.27-22.27V23.06A22.3,22.3,0,0,1,255.45.78h47.83m0-.78H255.45a23.05,23.05,0,0,0-23,23.06V70.89a23.06,23.06,0,0,0,23,23.06h47.83a23.06,23.06,0,0,0,23.06-23.06V23.06A23.05,23.05,0,0,0,303.28,0Z"/><path class="cls-18" d="M290.3,64.7,292,63,285.23,44.7l9.11-9.12A2.54,2.54,0,0,0,290.76,32l-9.12,9.12L263.3,34.38,261.64,36l15.58,9.72-6.28,7.52-7-1.65-1.66,1.65,7,3.72,3.72,7,1.66-1.66-1.66-7,7.52-6.28Z"/><path class="cls-19" d="M314.11,72.22l1.15.84a1.18,1.18,0,0,0,1.1.25l1.35-.32a1.41,1.41,0,0,1,1.54.71l.71,1.22a1.23,1.23,0,0,0,1,.71l1.28.26a1.42,1.42,0,0,1,1.16,1.22l.13,1.42a1.55,1.55,0,0,0,.58,1l1.16.77a1.43,1.43,0,0,1,.51,1.61l-.45,1.35a1.46,1.46,0,0,0,.13,1.16l.71,1.16a1.36,1.36,0,0,1-.19,1.67l-1,1.09a1.4,1.4,0,0,0-.32,1.1l.13,1.35A1.44,1.44,0,0,1,324,92.3l-1.29.58a1.37,1.37,0,0,0-.77.9l-.45,1.29a1.34,1.34,0,0,1-1.35,1h-1.42a1.34,1.34,0,0,0-1,.52l-.9,1a1.4,1.4,0,0,1-1.67.39l-1.29-.58a1.23,1.23,0,0,0-1.15,0l-1.23.58a1.4,1.4,0,0,1-1.67-.39l-1-1a1.16,1.16,0,0,0-1.09-.45h-1.35a1.45,1.45,0,0,1-1.35-1l-.45-1.42a1.43,1.43,0,0,0-.78-.84l-1.22-.51a1.44,1.44,0,0,1-.84-1.48l.13-1.42a1.16,1.16,0,0,0-.38-1.09l-.9-1a1.36,1.36,0,0,1-.2-1.67l.71-1.23a1.48,1.48,0,0,0,.13-1.16l-.45-1.28a1.44,1.44,0,0,1,.51-1.61l1.16-.84a1.32,1.32,0,0,0,.58-1l.13-1.35a1.44,1.44,0,0,1,1.16-1.22l1.35-.32a1.29,1.29,0,0,0,1-.71l.64-1.16a1.38,1.38,0,0,1,1.54-.71l1.42.32a1.56,1.56,0,0,0,1.16-.25l1-.84A1.7,1.7,0,0,1,314.11,72.22Z"/><path class="cls-20" d="M308,85.54a.82.82,0,0,1,0-1.16.9.9,0,0,1,1.16.07L311.66,87l5.66-5.67a.82.82,0,0,1,1.16,0,1,1,0,0,1,0,1.16l-6.24,6.24a.88.88,0,0,1-1.16-.06Z"/></g></g></svg>