<svg xmlns="http://www.w3.org/2000/svg" xmlns:xlink="http://www.w3.org/1999/xlink" viewBox="0 0 426.22 428.75"><defs><style>.cls-1,.cls-10,.cls-100,.cls-101,.cls-102,.cls-103,.cls-104,.cls-105,.cls-106,.cls-107,.cls-108,.cls-109,.cls-11,.cls-110,.cls-111,.cls-112,.cls-113,.cls-114,.cls-115,.cls-116,.cls-117,.cls-118,.cls-119,.cls-12,.cls-120,.cls-121,.cls-122,.cls-123,.cls-124,.cls-125,.cls-126,.cls-127,.cls-128,.cls-129,.cls-13,.cls-130,.cls-131,.cls-132,.cls-133,.cls-134,.cls-135,.cls-136,.cls-137,.cls-138,.cls-139,.cls-14,.cls-140,.cls-141,.cls-142,.cls-143,.cls-144,.cls-145,.cls-146,.cls-147,.cls-148,.cls-149,.cls-15,.cls-150,.cls-151,.cls-152,.cls-153,.cls-154,.cls-155,.cls-156,.cls-157,.cls-158,.cls-159,.cls-16,.cls-160,.cls-161,.cls-162,.cls-163,.cls-164,.cls-165,.cls-166,.cls-167,.cls-168,.cls-169,.cls-17,.cls-170,.cls-171,.cls-172,.cls-173,.cls-174,.cls-175,.cls-176,.cls-177,.cls-178,.cls-179,.cls-18,.cls-180,.cls-181,.cls-182,.cls-183,.cls-184,.cls-185,.cls-186,.cls-187,.cls-188,.cls-189,.cls-19,.cls-190,.cls-191,.cls-192,.cls-193,.cls-194,.cls-195,.cls-196,.cls-197,.cls-199,.cls-20,.cls-200,.cls-202,.cls-203,.cls-204,.cls-205,.cls-206,.cls-207,.cls-208,.cls-209,.cls-21,.cls-22,.cls-23,.cls-24,.cls-25,.cls-26,.cls-27,.cls-28,.cls-29,.cls-3,.cls-30,.cls-31,.cls-32,.cls-33,.cls-34,.cls-35,.cls-36,.cls-37,.cls-38,.cls-39,.cls-4,.cls-40,.cls-41,.cls-42,.cls-43,.cls-44,.cls-45,.cls-46,.cls-47,.cls-48,.cls-49,.cls-5,.cls-50,.cls-51,.cls-52,.cls-53,.cls-54,.cls-55,.cls-56,.cls-57,.cls-58,.cls-59,.cls-6,.cls-60,.cls-61,.cls-62,.cls-63,.cls-64,.cls-65,.cls-66,.cls-67,.cls-68,.cls-69,.cls-7,.cls-70,.cls-71,.cls-72,.cls-73,.cls-74,.cls-75,.cls-76,.cls-77,.cls-78,.cls-79,.cls-8,.cls-80,.cls-81,.cls-82,.cls-83,.cls-84,.cls-85,.cls-86,.cls-87,.cls-88,.cls-89,.cls-9,.cls-90,.cls-91,.cls-92,.cls-93,.cls-94,.cls-95,.cls-96,.cls-97,.cls-98,.cls-99{fill:none;}.cls-2{clip-path:url(#clip-path);}.cls-3,.cls-8{stroke:#0071bd;}.cls-165,.cls-166,.cls-167,.cls-168,.cls-169,.cls-170,.cls-171,.cls-172,.cls-173,.cls-174,.cls-175,.cls-176,.cls-177,.cls-178,.cls-179,.cls-180,.cls-181,.cls-182,.cls-183,.cls-184,.cls-185,.cls-186,.cls-187,.cls-188,.cls-189,.cls-190,.cls-191,.cls-192,.cls-193,.cls-194,.cls-195,.cls-196,.cls-197,.cls-3,.cls-4,.cls-5,.cls-6,.cls-7,.cls-8{stroke-linecap:round;stroke-linejoin:round;}.cls-3{stroke-width:0.25px;}.cls-4{stroke:#398ec7;stroke-width:0.44px;}.cls-5{stroke:#73abd1;stroke-width:0.63px;}.cls-6{stroke:#acc8db;stroke-width:0.81px;}.cls-197,.cls-7{stroke:#e5e5e5;}.cls-8{stroke-width:0.24px;}.cls-9{stroke:#0272bd;stroke-width:0.24px;}.cls-10,.cls-100,.cls-101,.cls-102,.cls-103,.cls-104,.cls-105,.cls-106,.cls-107,.cls-108,.cls-109,.cls-11,.cls-110,.cls-111,.cls-112,.cls-113,.cls-114,.cls-115,.cls-116,.cls-117,.cls-118,.cls-119,.cls-12,.cls-120,.cls-121,.cls-122,.cls-123,.cls-124,.cls-125,.cls-126,.cls-127,.cls-128,.cls-129,.cls-13,.cls-130,.cls-131,.cls-132,.cls-133,.cls-134,.cls-135,.cls-136,.cls-137,.cls-138,.cls-139,.cls-14,.cls-140,.cls-141,.cls-142,.cls-143,.cls-144,.cls-145,.cls-146,.cls-147,.cls-148,.cls-149,.cls-15,.cls-150,.cls-151,.cls-152,.cls-153,.cls-154,.cls-155,.cls-156,.cls-157,.cls-158,.cls-159,.cls-16,.cls-160,.cls-161,.cls-162,.cls-163,.cls-164,.cls-17,.cls-18,.cls-19,.cls-199,.cls-20,.cls-200,.cls-202,.cls-203,.cls-204,.cls-205,.cls-206,.cls-207,.cls-208,.cls-209,.cls-21,.cls-22,.cls-23,.cls-24,.cls-25,.cls-26,.cls-27,.cls-28,.cls-29,.cls-30,.cls-31,.cls-32,.cls-33,.cls-34,.cls-35,.cls-36,.cls-37,.cls-38,.cls-39,.cls-40,.cls-41,.cls-42,.cls-43,.cls-44,.cls-45,.cls-46,.cls-47,.cls-48,.cls-49,.cls-50,.cls-51,.cls-52,.cls-53,.cls-54,.cls-55,.cls-56,.cls-57,.cls-58,.cls-59,.cls-60,.cls-61,.cls-62,.cls-63,.cls-64,.cls-65,.cls-66,.cls-67,.cls-68,.cls-69,.cls-70,.cls-71,.cls-72,.cls-73,.cls-74,.cls-75,.cls-76,.cls-77,.cls-78,.cls-79,.cls-80,.cls-81,.cls-82,.cls-83,.cls-84,.cls-85,.cls-86,.cls-87,.cls-88,.cls-89,.cls-9,.cls-90,.cls-91,.cls-92,.cls-93,.cls-94,.cls-95,.cls-96,.cls-97,.cls-98,.cls-99{stroke-miterlimit:10;}.cls-10{stroke:#0373be;stroke-width:0.24px;}.cls-11{stroke:#0574be;stroke-width:0.24px;}.cls-12{stroke:#0775bf;stroke-width:0.24px;}.cls-13{stroke:#0876bf;stroke-width:0.24px;}.cls-14{stroke:#0a76c0;stroke-width:0.24px;}.cls-15{stroke:#0b77c0;stroke-width:0.24px;}.cls-16{stroke:#0d78c0;stroke-width:0.24px;}.cls-17{stroke:#0f79c1;stroke-width:0.24px;}.cls-18{stroke:#107ac1;stroke-width:0.24px;}.cls-19{stroke:#127bc2;stroke-width:0.24px;}.cls-20{stroke:#147cc2;stroke-width:0.24px;}.cls-21{stroke:#157dc3;stroke-width:0.25px;}.cls-22{stroke:#177ec3;stroke-width:0.25px;}.cls-23{stroke:#197fc3;stroke-width:0.25px;}.cls-24{stroke:#1a80c4;stroke-width:0.25px;}.cls-25{stroke:#1c80c4;stroke-width:0.25px;}.cls-26{stroke:#1d81c5;stroke-width:0.25px;}.cls-27{stroke:#1f82c5;stroke-width:0.25px;}.cls-28{stroke:#2183c5;stroke-width:0.25px;}.cls-29{stroke:#2284c6;stroke-width:0.25px;}.cls-30{stroke:#2485c6;stroke-width:0.25px;}.cls-31{stroke:#2686c7;stroke-width:0.25px;}.cls-32{stroke:#2787c7;stroke-width:0.25px;}.cls-33{stroke:#2988c8;stroke-width:0.25px;}.cls-34{stroke:#2b89c8;stroke-width:0.25px;}.cls-35{stroke:#2c8ac8;stroke-width:0.25px;}.cls-36{stroke:#2e8ac9;stroke-width:0.25px;}.cls-37{stroke:#2f8bc9;stroke-width:0.25px;}.cls-38{stroke:#318cca;stroke-width:0.25px;}.cls-39{stroke:#338dca;stroke-width:0.25px;}.cls-40{stroke:#348ecb;stroke-width:0.25px;}.cls-41{stroke:#368fcb;stroke-width:0.25px;}.cls-42{stroke:#3890cb;stroke-width:0.26px;}.cls-43{stroke:#3991cc;stroke-width:0.26px;}.cls-44{stroke:#3b92cc;stroke-width:0.26px;}.cls-45{stroke:#3c93cd;stroke-width:0.26px;}.cls-46{stroke:#3e94cd;stroke-width:0.26px;}.cls-47{stroke:#4095ce;stroke-width:0.26px;}.cls-48{stroke:#4195ce;stroke-width:0.26px;}.cls-49{stroke:#4396ce;stroke-width:0.26px;}.cls-50{stroke:#4597cf;stroke-width:0.26px;}.cls-51{stroke:#4698cf;stroke-width:0.26px;}.cls-52{stroke:#4899d0;stroke-width:0.26px;}.cls-53{stroke:#4a9ad0;stroke-width:0.26px;}.cls-54{stroke:#4b9bd0;stroke-width:0.26px;}.cls-55{stroke:#4d9cd1;stroke-width:0.26px;}.cls-56{stroke:#4e9dd1;stroke-width:0.26px;}.cls-57{stroke:#509ed2;stroke-width:0.26px;}.cls-58{stroke:#529fd2;stroke-width:0.26px;}.cls-59{stroke:#539fd3;stroke-width:0.26px;}.cls-60{stroke:#55a0d3;stroke-width:0.26px;}.cls-61{stroke:#57a1d3;stroke-width:0.26px;}.cls-62{stroke:#58a2d4;stroke-width:0.26px;}.cls-63{stroke:#5aa3d4;stroke-width:0.27px;}.cls-64{stroke:#5ca4d5;stroke-width:0.27px;}.cls-65{stroke:#5da5d5;stroke-width:0.27px;}.cls-66{stroke:#5fa6d6;stroke-width:0.27px;}.cls-67{stroke:#60a7d6;stroke-width:0.27px;}.cls-68{stroke:#62a8d6;stroke-width:0.27px;}.cls-69{stroke:#64a9d7;stroke-width:0.27px;}.cls-70{stroke:#65a9d7;stroke-width:0.27px;}.cls-71{stroke:#67aad8;stroke-width:0.27px;}.cls-72{stroke:#69abd8;stroke-width:0.27px;}.cls-73{stroke:#6aacd9;stroke-width:0.27px;}.cls-74{stroke:#6cadd9;stroke-width:0.27px;}.cls-75{stroke:#6eaed9;stroke-width:0.27px;}.cls-76{stroke:#6fafda;stroke-width:0.27px;}.cls-77{stroke:#71b0da;stroke-width:0.27px;}.cls-78{stroke:#72b1db;stroke-width:0.27px;}.cls-79{stroke:#74b2db;stroke-width:0.27px;}.cls-80{stroke:#76b3db;stroke-width:0.27px;}.cls-81{stroke:#77b3dc;stroke-width:0.27px;}.cls-82{stroke:#79b4dc;stroke-width:0.27px;}.cls-83{stroke:#7bb5dd;stroke-width:0.27px;}.cls-84{stroke:#7cb6dd;stroke-width:0.28px;}.cls-85{stroke:#7eb7de;stroke-width:0.28px;}.cls-86{stroke:#80b8de;stroke-width:0.28px;}.cls-87{stroke:#81b9de;stroke-width:0.28px;}.cls-88{stroke:#83badf;stroke-width:0.28px;}.cls-89{stroke:#84bbdf;stroke-width:0.28px;}.cls-90{stroke:#86bce0;stroke-width:0.28px;}.cls-91{stroke:#88bde0;stroke-width:0.28px;}.cls-92{stroke:#89bde1;stroke-width:0.28px;}.cls-93{stroke:#8bbee1;stroke-width:0.28px;}.cls-94{stroke:#8dbfe1;stroke-width:0.28px;}.cls-95{stroke:#8ec0e2;stroke-width:0.28px;}.cls-96{stroke:#90c1e2;stroke-width:0.28px;}.cls-97{stroke:#91c2e3;stroke-width:0.28px;}.cls-98{stroke:#93c3e3;stroke-width:0.28px;}.cls-99{stroke:#95c4e3;stroke-width:0.28px;}.cls-100{stroke:#96c5e4;stroke-width:0.28px;}.cls-101{stroke:#98c6e4;stroke-width:0.28px;}.cls-102{stroke:#9ac7e5;stroke-width:0.28px;}.cls-103{stroke:#9bc7e5;stroke-width:0.28px;}.cls-104{stroke:#9dc8e6;stroke-width:0.28px;}.cls-105{stroke:#9fc9e6;stroke-width:0.29px;}.cls-106{stroke:#a0cae6;stroke-width:0.29px;}.cls-107{stroke:#a2cbe7;stroke-width:0.29px;}.cls-108{stroke:#a3cce7;stroke-width:0.29px;}.cls-109{stroke:#a5cde8;stroke-width:0.29px;}.cls-110{stroke:#a7cee8;stroke-width:0.29px;}.cls-111{stroke:#a8cfe9;stroke-width:0.29px;}.cls-112{stroke:#aad0e9;stroke-width:0.29px;}.cls-113{stroke:#acd1e9;stroke-width:0.29px;}.cls-114{stroke:#add1ea;stroke-width:0.29px;}.cls-115{stroke:#afd2ea;stroke-width:0.29px;}.cls-116{stroke:#b1d3eb;stroke-width:0.29px;}.cls-117{stroke:#b2d4eb;stroke-width:0.29px;}.cls-118{stroke:#b4d5ec;stroke-width:0.29px;}.cls-119{stroke:#b5d6ec;stroke-width:0.29px;}.cls-120{stroke:#b7d7ec;stroke-width:0.29px;}.cls-121{stroke:#b9d8ed;stroke-width:0.29px;}.cls-122{stroke:#bad9ed;stroke-width:0.29px;}.cls-123{stroke:#bcdaee;stroke-width:0.29px;}.cls-124{stroke:#bedbee;stroke-width:0.29px;}.cls-125{stroke:#bfdbee;stroke-width:0.29px;}.cls-126{stroke:#c1dcef;stroke-width:0.3px;}.cls-127{stroke:#c3ddef;stroke-width:0.3px;}.cls-128{stroke:#c4def0;stroke-width:0.3px;}.cls-129{stroke:#c6dff0;stroke-width:0.3px;}.cls-130{stroke:#c7e0f1;stroke-width:0.3px;}.cls-131{stroke:#c9e1f1;stroke-width:0.3px;}.cls-132{stroke:#cbe2f1;stroke-width:0.3px;}.cls-133{stroke:#cce3f2;stroke-width:0.3px;}.cls-134{stroke:#cee4f2;stroke-width:0.3px;}.cls-135{stroke:#d0e5f3;stroke-width:0.3px;}.cls-136{stroke:#d1e6f3;stroke-width:0.3px;}.cls-137{stroke:#d3e6f4;stroke-width:0.3px;}.cls-138{stroke:#d4e7f4;stroke-width:0.3px;}.cls-139{stroke:#d6e8f4;stroke-width:0.3px;}.cls-140{stroke:#d8e9f5;stroke-width:0.3px;}.cls-141{stroke:#d9eaf5;stroke-width:0.3px;}.cls-142{stroke:#dbebf6;stroke-width:0.3px;}.cls-143{stroke:#ddecf6;stroke-width:0.3px;}.cls-144{stroke:#deedf7;stroke-width:0.3px;}.cls-145{stroke:#e0eef7;stroke-width:0.3px;}.cls-146{stroke:#e2eff7;stroke-width:0.31px;}.cls-147{stroke:#e3f0f8;stroke-width:0.31px;}.cls-148{stroke:#e5f0f8;stroke-width:0.31px;}.cls-149{stroke:#e6f1f9;stroke-width:0.31px;}.cls-150{stroke:#e8f2f9;stroke-width:0.31px;}.cls-151{stroke:#eaf3f9;stroke-width:0.31px;}.cls-152{stroke:#ebf4fa;stroke-width:0.31px;}.cls-153{stroke:#edf5fa;stroke-width:0.31px;}.cls-154{stroke:#eff6fb;stroke-width:0.31px;}.cls-155{stroke:#f0f7fb;stroke-width:0.31px;}.cls-156{stroke:#f2f8fc;stroke-width:0.31px;}.cls-157{stroke:#f4f9fc;stroke-width:0.31px;}.cls-158{stroke:#f5fafc;stroke-width:0.31px;}.cls-159{stroke:#f7fafd;stroke-width:0.31px;}.cls-160{stroke:#f8fbfd;stroke-width:0.31px;}.cls-161{stroke:#fafcfe;stroke-width:0.31px;}.cls-162{stroke:#fcfdfe;stroke-width:0.31px;}.cls-163{stroke:#fdfeff;stroke-width:0.31px;}.cls-164{stroke:#fff;stroke-width:0.31px;}.cls-165{stroke:gray;}.cls-165,.cls-166,.cls-167,.cls-168,.cls-169,.cls-170,.cls-171,.cls-172,.cls-173,.cls-174,.cls-175,.cls-176,.cls-177,.cls-178,.cls-179,.cls-180,.cls-181,.cls-182,.cls-183,.cls-184,.cls-185,.cls-186,.cls-187,.cls-188,.cls-189,.cls-190,.cls-191,.cls-192,.cls-193,.cls-194,.cls-195,.cls-196,.cls-197{stroke-width:0.87px;stroke-dasharray:0 5.96;}.cls-166{stroke:#838383;}.cls-167{stroke:#868686;}.cls-168{stroke:#898989;}.cls-169{stroke:#8d8d8d;}.cls-170{stroke:#909090;}.cls-171{stroke:#939393;}.cls-172{stroke:#969696;}.cls-173{stroke:#999;}.cls-174{stroke:#9c9c9c;}.cls-175{stroke:#a0a0a0;}.cls-176{stroke:#a3a3a3;}.cls-177{stroke:#a6a6a6;}.cls-178{stroke:#a9a9a9;}.cls-179{stroke:#acacac;}.cls-180{stroke:#afafaf;}.cls-181{stroke:#b3b3b3;}.cls-182{stroke:#b6b6b6;}.cls-183{stroke:#b9b9b9;}.cls-184{stroke:#bcbcbc;}.cls-185{stroke:#bfbfbf;}.cls-186{stroke:#c2c2c2;}.cls-187{stroke:#c5c5c5;}.cls-188{stroke:#c9c9c9;}.cls-189{stroke:#ccc;}.cls-190{stroke:#cfcfcf;}.cls-191{stroke:#d2d2d2;}.cls-192{stroke:#d5d5d5;}.cls-193{stroke:#d8d8d8;}.cls-194{stroke:#dcdcdc;}.cls-195{stroke:#dfdfdf;}.cls-196{stroke:#e2e2e2;}.cls-198{fill:#fff;}.cls-199,.cls-200,.cls-202,.cls-203,.cls-204,.cls-205,.cls-206,.cls-207,.cls-208,.cls-209{stroke:#000;}.cls-199{stroke-width:0.5px;}.cls-200{stroke-width:0.78px;}.cls-201{fill:url(#radial-gradient);}.cls-202{stroke-width:0.74px;}.cls-203{stroke-width:0.52px;}.cls-204{stroke-width:0.58px;}.cls-205{stroke-width:1.19px;}.cls-206{stroke-width:2.67px;stroke-dasharray:3.26;}.cls-207{stroke-width:1.23px;}.cls-208{stroke-width:2.83px;}.cls-208,.cls-209{stroke-dasharray:3.45;}.cls-209{stroke-width:2.59px;}</style><clipPath id="clip-path" transform="translate(-3.24 -18.44)"><rect class="cls-1" x="-16.34" y="16.34" width="451.21" height="418.54" transform="translate(-16.34 434.87) rotate(-90)"/></clipPath><radialGradient id="radial-gradient" cx="241.67" cy="303.63" r="45.42" gradientUnits="userSpaceOnUse"><stop offset="0.04" stop-color="#e5e5e5"/><stop offset="1" stop-color="#fff"/></radialGradient></defs><g id="Layer_2" data-name="Layer 2"><g id="Layer_1-2" data-name="Layer 1"><g class="cls-2"><path class="cls-3" d="M215.68,18.59c.14,1.78.25,2.19.33,2.19s.19-.42.3-2.22" transform="translate(-3.24 -18.44)"/><path class="cls-4" d="M162.69,57.35c2.48,4.32,21,27,52.6,27.33,32.59.39,51.87-23.19,54.18-27.35" transform="translate(-3.24 -18.44)"/><path class="cls-5" d="M109.71,96.12c4.82,6.85,41.69,51.72,104.85,52.47,65.11.78,103.55-46,108.08-52.49" transform="translate(-3.24 -18.44)"/><path class="cls-6" d="M56.73,134.88c7.15,9.39,62.4,76.49,157.11,77.62,97.62,1.16,155.23-68.76,162-77.63" transform="translate(-3.24 -18.44)"/><path class="cls-7" d="M3.74,173.64c9.49,11.92,83.13,101.26,209.37,102.77C343.26,278,420,184.87,429,173.64" transform="translate(-3.24 -18.44)"/><path class="cls-8" d="M215.3,25.62c-.13.65-1.72,14.65.18,16a1.06,1.06,0,0,0,1.18,0c2-1.31.14-15.6.05-16" transform="translate(-3.24 -18.44)"/><path class="cls-9" d="M214.29,27.57c0,1.08-1.15,15.23,1.12,16.65a1.27,1.27,0,0,0,1.28,0c2.36-1.36.95-15.81,1-16.64" transform="translate(-3.24 -18.44)"/><path class="cls-10" d="M213.28,29.53c.14,1.5-.6,15.81,2.07,17.28a1.44,1.44,0,0,0,1.38,0c2.75-1.42,1.75-16,1.93-17.28" transform="translate(-3.24 -18.44)"/><path class="cls-11" d="M212.27,31.49c.27,1.92-.06,16.39,3,17.92a1.71,1.71,0,0,0,1.48,0c3.16-1.48,2.56-16.26,2.88-17.92" transform="translate(-3.24 -18.44)"/><path class="cls-12" d="M211.25,33.44c.42,2.35.49,17,4,18.57a2,2,0,0,0,1.58,0c3.56-1.52,3.36-16.47,3.81-18.56" transform="translate(-3.24 -18.44)"/><path class="cls-13" d="M210.24,35.4c.55,2.77,1,17.57,4.92,19.21a2.24,2.24,0,0,0,1.67,0c4-1.57,4.17-16.69,4.75-19.2" transform="translate(-3.24 -18.44)"/><path class="cls-14" d="M209.23,37.36c.69,3.19,1.57,18.16,5.86,19.84a2.54,2.54,0,0,0,1.78,0c4.39-1.61,5-16.92,5.69-19.84" transform="translate(-3.24 -18.44)"/><path class="cls-15" d="M208.22,39.31c.82,3.62,2.1,18.77,6.81,20.49a2.88,2.88,0,0,0,1.88,0c4.8-1.66,5.77-17.14,6.62-20.49" transform="translate(-3.24 -18.44)"/><path class="cls-16" d="M207.21,41.27c1,4,2.63,19.36,7.75,21.13a3.12,3.12,0,0,0,2,0c5.22-1.68,6.59-17.35,7.56-21.12" transform="translate(-3.24 -18.44)"/><path class="cls-17" d="M206.2,43.23c1.09,4.46,3.16,20,8.7,21.77A3.51,3.51,0,0,0,217,65c5.63-1.72,7.39-17.58,8.5-21.76" transform="translate(-3.24 -18.44)"/><path class="cls-18" d="M205.19,45.18c1.23,4.89,3.69,20.58,9.64,22.41a3.85,3.85,0,0,0,2.18,0c6.05-1.76,8.2-17.8,9.44-22.41" transform="translate(-3.24 -18.44)"/><path class="cls-19" d="M204.17,47.14c1.37,5.32,4.23,21.19,10.6,23a4.2,4.2,0,0,0,2.28,0c6.47-1.78,9-18,10.37-23" transform="translate(-3.24 -18.44)"/><path class="cls-20" d="M203.16,49.1c1.51,5.74,4.76,21.79,11.54,23.69a4.68,4.68,0,0,0,2.38,0C224,71,226.89,54.56,228.4,49.12" transform="translate(-3.24 -18.44)"/><path class="cls-21" d="M202.15,51.06c1.64,6.16,5.29,22.4,12.49,24.33a5.08,5.08,0,0,0,2.48,0c7.3-1.84,10.61-18.46,12.25-24.33" transform="translate(-3.24 -18.44)"/><path class="cls-22" d="M201.14,53c1.78,6.59,5.82,23,13.43,25a5.36,5.36,0,0,0,2.58,0c7.72-1.87,11.42-18.68,13.19-25" transform="translate(-3.24 -18.44)"/><path class="cls-23" d="M200.13,55c1.91,7,6.35,23.64,14.38,25.61a5.78,5.78,0,0,0,2.68,0c8.14-1.89,12.22-18.9,14.13-25.6" transform="translate(-3.24 -18.44)"/><path class="cls-24" d="M199.12,56.93c2,7.43,6.88,24.25,15.32,26.25a6.41,6.41,0,0,0,2.79,0c8.55-1.91,13-19.12,15.06-26.25" transform="translate(-3.24 -18.44)"/><path class="cls-25" d="M198.1,58.88c2.19,7.86,7.41,24.87,16.28,26.89a6.66,6.66,0,0,0,2.88,0c9-1.94,13.83-19.34,16-26.89" transform="translate(-3.24 -18.44)"/><path class="cls-26" d="M197.09,60.84c2.33,8.28,7.94,25.49,17.22,27.53a7.17,7.17,0,0,0,3,0c9.39-1.95,14.63-19.56,16.94-27.52" transform="translate(-3.24 -18.44)"/><path class="cls-27" d="M196.08,62.8c2.46,8.7,8.47,26.11,18.17,28.17a7.79,7.79,0,0,0,3.08,0c9.81-2,15.44-19.78,17.88-28.16" transform="translate(-3.24 -18.44)"/><path class="cls-28" d="M195.07,64.75c2.6,9.13,9,26.73,19.11,28.82a8.35,8.35,0,0,0,3.19,0c10.22-2,16.24-20,18.81-28.81" transform="translate(-3.24 -18.44)"/><path class="cls-29" d="M194.06,66.71c2.73,9.55,9.53,27.35,20.06,29.45a8.62,8.62,0,0,0,3.28,0c10.65-2,17-20.23,19.76-29.45" transform="translate(-3.24 -18.44)"/><path class="cls-30" d="M193.05,68.67c2.87,10,10.06,28,21,30.09a9,9,0,0,0,3.39,0c11.06-2,17.85-20.44,20.69-30.08" transform="translate(-3.24 -18.44)"/><path class="cls-31" d="M192,70.62c3,10.41,10.58,28.6,22,30.74a9.92,9.92,0,0,0,3.48,0c11.48-2.06,18.66-20.66,21.64-30.73" transform="translate(-3.24 -18.44)"/><path class="cls-32" d="M191,72.58c3.15,10.83,11.12,29.22,22.9,31.38a10.56,10.56,0,0,0,3.59,0c11.9-2.08,19.46-20.89,22.57-31.37" transform="translate(-3.24 -18.44)"/><path class="cls-33" d="M190,74.54c3.28,11.25,11.65,29.84,23.85,32a10.58,10.58,0,0,0,3.68,0c12.32-2.09,20.27-21.1,23.51-32" transform="translate(-3.24 -18.44)"/><path class="cls-34" d="M189,76.5c3.42,11.67,12.18,30.46,24.8,32.65a11.16,11.16,0,0,0,3.78,0c12.73-2.11,21.07-21.32,24.45-32.65" transform="translate(-3.24 -18.44)"/><path class="cls-35" d="M188,78.45c3.55,12.1,12.71,31.09,25.74,33.3a12.09,12.09,0,0,0,3.89,0c13.15-2.13,21.87-21.55,25.38-33.29" transform="translate(-3.24 -18.44)"/><path class="cls-36" d="M187,80.41c3.69,12.52,13.24,31.72,26.69,33.94a13,13,0,0,0,4,0c13.57-2.15,22.69-21.77,26.32-33.93" transform="translate(-3.24 -18.44)"/><path class="cls-37" d="M186,82.37c3.82,12.94,13.77,32.34,27.63,34.57a13,13,0,0,0,4.09,0c14-2.16,23.49-22,27.26-34.57" transform="translate(-3.24 -18.44)"/><path class="cls-38" d="M185,84.32c4,13.37,14.3,33,28.59,35.22a13.63,13.63,0,0,0,4.18,0c14.41-2.18,24.3-22.21,28.2-35.21" transform="translate(-3.24 -18.44)"/><path class="cls-39" d="M183.94,86.28c4.1,13.79,14.83,33.59,29.53,35.86a14.69,14.69,0,0,0,4.29,0c14.82-2.2,25.1-22.43,29.13-35.85" transform="translate(-3.24 -18.44)"/><path class="cls-40" d="M182.93,88.24c4.24,14.21,15.36,34.22,30.48,36.5a15.3,15.3,0,0,0,4.38,0c15.24-2.2,25.91-22.65,30.08-36.49" transform="translate(-3.24 -18.44)"/><path class="cls-41" d="M181.92,90.19c4.37,14.64,15.89,34.85,31.42,37.14a15.71,15.71,0,0,0,4.49,0c15.66-2.22,26.71-22.87,31-37.13" transform="translate(-3.24 -18.44)"/><path class="cls-42" d="M180.91,92.15c4.51,15.06,16.42,35.48,32.37,37.78a16.34,16.34,0,0,0,4.58,0c16.08-2.24,27.52-23.09,31.95-37.77" transform="translate(-3.24 -18.44)"/><path class="cls-43" d="M179.9,94.11c4.64,15.49,16.95,36.1,33.31,38.42a17.13,17.13,0,0,0,4.69,0c16.49-2.26,28.32-23.32,32.89-38.42" transform="translate(-3.24 -18.44)"/><path class="cls-44" d="M178.89,96.06c4.78,15.92,17.48,36.73,34.26,39.07a17.79,17.79,0,0,0,4.78,0c16.91-2.27,29.13-23.53,33.83-39" transform="translate(-3.24 -18.44)"/><path class="cls-45" d="M177.87,98c4.92,16.34,18,37.36,35.21,39.7a18.62,18.62,0,0,0,4.89,0C235.3,135.45,247.9,114,252.73,98" transform="translate(-3.24 -18.44)"/><path class="cls-46" d="M176.86,100c5.06,16.76,18.54,38,36.16,40.34a19.38,19.38,0,0,0,5,0c17.74-2.3,30.73-24,35.7-40.34" transform="translate(-3.24 -18.44)"/><path class="cls-47" d="M175.85,101.94c5.2,17.18,19.07,38.61,37.1,41a19.71,19.71,0,0,0,5.09,0c18.16-2.31,31.54-24.19,36.64-41" transform="translate(-3.24 -18.44)"/><path class="cls-48" d="M174.84,103.89c5.33,17.61,19.6,39.24,38,41.63a20.49,20.49,0,0,0,5.19,0c18.58-2.33,32.34-24.41,37.58-41.61" transform="translate(-3.24 -18.44)"/><path class="cls-49" d="M173.83,105.85c5.47,18,20.13,39.87,39,42.26a21.77,21.77,0,0,0,5.29,0c19-2.34,33.15-24.64,38.52-42.26" transform="translate(-3.24 -18.44)"/><path class="cls-50" d="M172.82,107.81c5.6,18.45,20.66,40.5,39.94,42.9a22.6,22.6,0,0,0,5.39,0c19.41-2.36,33.95-24.86,39.45-42.9" transform="translate(-3.24 -18.44)"/><path class="cls-51" d="M171.8,109.76c5.75,18.88,21.2,41.13,40.89,43.55a22.92,22.92,0,0,0,5.49,0c19.84-2.37,34.76-25.07,40.4-43.53" transform="translate(-3.24 -18.44)"/><path class="cls-52" d="M170.79,111.72c5.88,19.3,21.73,41.76,41.84,44.19a23.76,23.76,0,0,0,5.59,0c20.25-2.38,35.56-25.3,41.33-44.17" transform="translate(-3.24 -18.44)"/><path class="cls-53" d="M169.78,113.68c6,19.72,22.26,42.38,42.79,44.82a24.52,24.52,0,0,0,5.68,0c20.67-2.4,36.37-25.52,42.27-44.82" transform="translate(-3.24 -18.44)"/><path class="cls-54" d="M168.77,115.63c6.15,20.15,22.78,43,43.73,45.47a25.48,25.48,0,0,0,5.79,0c21.08-2.41,37.17-25.73,43.21-45.45" transform="translate(-3.24 -18.44)"/><path class="cls-55" d="M167.76,117.59c6.29,20.58,23.31,43.65,44.68,46.11a26.28,26.28,0,0,0,5.88,0c21.51-2.42,38-26,44.15-46.09" transform="translate(-3.24 -18.44)"/><path class="cls-56" d="M166.75,119.55c6.42,21,23.84,44.27,45.62,46.75a27.26,27.26,0,0,0,6,0c21.92-2.44,38.79-26.18,45.08-46.74" transform="translate(-3.24 -18.44)"/><path class="cls-57" d="M165.74,121.5c6.56,21.43,24.37,44.91,46.57,47.39a27.56,27.56,0,0,0,6.09,0c22.33-2.46,39.59-26.4,46-47.38" transform="translate(-3.24 -18.44)"/><path class="cls-58" d="M164.72,123.46c6.7,21.85,24.91,45.53,47.52,48a28.47,28.47,0,0,0,6.19,0c22.75-2.46,40.4-26.62,47-48" transform="translate(-3.24 -18.44)"/><path class="cls-59" d="M163.71,125.42c6.84,22.27,25.44,46.16,48.47,48.67a30.06,30.06,0,0,0,6.29,0c23.17-2.48,41.2-26.84,47.89-48.66" transform="translate(-3.24 -18.44)"/><path class="cls-60" d="M162.7,127.38c7,22.69,26,46.79,49.41,49.31a31,31,0,0,0,6.39,0c23.59-2.49,42-27.06,48.84-49.3" transform="translate(-3.24 -18.44)"/><path class="cls-61" d="M161.69,129.33c7.11,23.12,26.5,47.43,50.36,49.95a30.61,30.61,0,0,0,6.49,0c24-2.5,42.81-27.28,49.77-49.93" transform="translate(-3.24 -18.44)"/><path class="cls-62" d="M160.68,131.29c7.24,23.54,27,48.05,51.3,50.59a31.56,31.56,0,0,0,6.59,0c24.43-2.52,43.62-27.5,50.71-50.58" transform="translate(-3.24 -18.44)"/><path class="cls-63" d="M159.67,133.25c7.38,24,27.56,48.68,52.25,51.23a33.24,33.24,0,0,0,6.69,0c24.84-2.53,44.42-27.72,51.65-51.22" transform="translate(-3.24 -18.44)"/><path class="cls-64" d="M158.65,135.2c7.52,24.39,28.1,49.32,53.2,51.88a35,35,0,0,0,6.79,0c25.26-2.55,45.23-28,52.59-51.86" transform="translate(-3.24 -18.44)"/><path class="cls-65" d="M157.64,137.16c7.66,24.81,28.62,49.94,54.15,52.51a34.49,34.49,0,0,0,6.89,0c25.67-2.55,46-28.16,53.52-52.5" transform="translate(-3.24 -18.44)"/><path class="cls-66" d="M156.63,139.12c7.79,25.24,29.15,50.57,55.09,53.15a35.59,35.59,0,0,0,7,0c26.09-2.57,46.83-28.38,54.46-53.14" transform="translate(-3.24 -18.44)"/><path class="cls-67" d="M155.62,141.07c7.93,25.67,29.68,51.21,56,53.8a36.51,36.51,0,0,0,7.09,0c26.51-2.59,47.64-28.61,55.4-53.78" transform="translate(-3.24 -18.44)"/><path class="cls-68" d="M154.61,143c8.06,26.09,30.21,51.84,57,54.44a37.65,37.65,0,0,0,7.2,0c26.92-2.59,48.44-28.82,56.34-54.42" transform="translate(-3.24 -18.44)"/><path class="cls-69" d="M153.6,145c8.2,26.51,30.74,52.46,57.93,55.07a38.6,38.6,0,0,0,7.29,0c27.34-2.61,49.25-29,57.28-55.06" transform="translate(-3.24 -18.44)"/><path class="cls-70" d="M152.59,147c8.33,26.93,31.27,53.09,58.87,55.71a39.77,39.77,0,0,0,7.4,0c27.76-2.62,50.05-29.27,58.21-55.7" transform="translate(-3.24 -18.44)"/><path class="cls-71" d="M151.57,148.9c8.48,27.36,31.81,53.73,59.83,56.36a40.74,40.74,0,0,0,7.49,0c28.18-2.64,50.86-29.49,59.16-56.35" transform="translate(-3.24 -18.44)"/><path class="cls-72" d="M150.56,150.86c8.61,27.78,32.34,54.36,60.77,57a41.05,41.05,0,0,0,7.6,0c28.59-2.64,51.66-29.7,60.09-57" transform="translate(-3.24 -18.44)"/><path class="cls-73" d="M149.55,152.82c8.75,28.2,32.87,55,61.72,57.63a42,42,0,0,0,7.69,0c29-2.66,52.47-29.93,61-57.62" transform="translate(-3.24 -18.44)"/><path class="cls-74" d="M148.54,154.77c8.88,28.63,33.4,55.62,62.67,58.28a44.06,44.06,0,0,0,7.79,0c29.43-2.67,53.27-30.15,62-58.26" transform="translate(-3.24 -18.44)"/><path class="cls-75" d="M147.53,156.73c9,29.05,33.93,56.25,63.61,58.92a44.24,44.24,0,0,0,7.89,0c29.85-2.68,54.09-30.36,62.91-58.9" transform="translate(-3.24 -18.44)"/><path class="cls-76" d="M146.52,158.69c9.15,29.47,34.46,56.88,64.56,59.56a45.37,45.37,0,0,0,8,0c30.26-2.69,54.89-30.59,63.84-59.54" transform="translate(-3.24 -18.44)"/><path class="cls-77" d="M145.5,160.64c9.3,29.9,35,57.51,65.51,60.2a45.65,45.65,0,0,0,8.1,0c30.67-2.71,55.69-30.81,64.78-60.18" transform="translate(-3.24 -18.44)"/><path class="cls-78" d="M144.49,162.6c9.43,30.33,35.53,58.14,66.46,60.84a47.66,47.66,0,0,0,8.19,0c31.1-2.72,56.5-31,65.72-60.83" transform="translate(-3.24 -18.44)"/><path class="cls-79" d="M143.48,164.56c9.57,30.75,36.05,58.77,67.4,61.48a49,49,0,0,0,8.3,0c31.51-2.73,57.3-31.25,66.65-61.46" transform="translate(-3.24 -18.44)"/><path class="cls-80" d="M142.47,166.51c9.7,31.18,36.58,59.41,68.35,62.13a50,50,0,0,0,8.39,0c31.93-2.74,58.11-31.47,67.6-62.1" transform="translate(-3.24 -18.44)"/><path class="cls-81" d="M141.46,168.47c9.84,31.6,37.11,60,69.29,62.76a50.26,50.26,0,0,0,8.5,0c32.34-2.76,58.91-31.7,68.53-62.75" transform="translate(-3.24 -18.44)"/><path class="cls-82" d="M140.45,170.43c10,32,37.64,60.66,70.24,63.4a50.29,50.29,0,0,0,8.59,0c32.77-2.76,59.72-31.91,69.47-63.38" transform="translate(-3.24 -18.44)"/><path class="cls-83" d="M139.44,172.39c10.11,32.44,38.17,61.29,71.18,64a52.65,52.65,0,0,0,8.7,0c33.18-2.78,60.52-32.13,70.41-64" transform="translate(-3.24 -18.44)"/><path class="cls-84" d="M138.42,174.34c10.25,32.87,38.71,61.93,72.14,64.69a54.89,54.89,0,0,0,8.79,0c33.6-2.79,61.33-32.36,71.35-64.67" transform="translate(-3.24 -18.44)"/><path class="cls-85" d="M137.41,176.3c10.39,33.29,39.24,62.56,73.08,65.32a55.1,55.1,0,0,0,8.9,0c34-2.81,62.13-32.58,72.29-65.31" transform="translate(-3.24 -18.44)"/><path class="cls-86" d="M136.4,178.26c10.52,33.71,39.77,63.19,74,66a55.07,55.07,0,0,0,9,0c34.44-2.81,62.94-32.79,73.23-65.94" transform="translate(-3.24 -18.44)"/><path class="cls-87" d="M135.39,180.21c10.66,34.14,40.3,63.83,75,66.61a56.43,56.43,0,0,0,9.1,0c34.85-2.83,63.74-33,74.16-66.59" transform="translate(-3.24 -18.44)"/><path class="cls-88" d="M134.38,182.17c10.79,34.56,40.83,64.45,75.92,67.25a58.87,58.87,0,0,0,9.2,0c35.26-2.84,64.54-33.24,75.1-67.23" transform="translate(-3.24 -18.44)"/><path class="cls-89" d="M133.37,184.13c10.93,35,41.36,65.08,76.86,67.88a57.76,57.76,0,0,0,9.3,0c35.68-2.85,65.35-33.45,76-67.86" transform="translate(-3.24 -18.44)"/><path class="cls-90" d="M132.35,186.08c11.07,35.42,41.9,65.72,77.82,68.53a60.2,60.2,0,0,0,9.4,0c36.1-2.86,66.15-33.68,77-68.51" transform="translate(-3.24 -18.44)"/><path class="cls-91" d="M131.34,188c11.21,35.84,42.43,66.35,78.76,69.17a61.49,61.49,0,0,0,9.5,0c36.52-2.88,67-33.9,77.92-69.15" transform="translate(-3.24 -18.44)"/><path class="cls-92" d="M130.33,190c11.34,36.26,43,67,79.71,69.81a62.79,62.79,0,0,0,9.6,0c36.93-2.89,67.76-34.12,78.85-69.79" transform="translate(-3.24 -18.44)"/><path class="cls-93" d="M129.32,192c11.48,36.69,43.49,67.62,80.66,70.45a62.7,62.7,0,0,0,9.69,0c37.35-2.9,68.57-34.34,79.79-70.43" transform="translate(-3.24 -18.44)"/><path class="cls-94" d="M128.31,193.91c11.61,37.11,44,68.24,81.6,71.09a64.13,64.13,0,0,0,9.8,0c37.77-2.91,69.37-34.56,80.73-71.07" transform="translate(-3.24 -18.44)"/><path class="cls-95" d="M127.3,195.87c11.75,37.53,44.55,68.87,82.55,71.73a66.64,66.64,0,0,0,9.89,0c38.19-2.93,70.19-34.78,81.67-71.71" transform="translate(-3.24 -18.44)"/><path class="cls-96" d="M126.29,197.83c11.88,37.95,45.08,69.5,83.49,72.37a66.77,66.77,0,0,0,10,0c38.6-2.93,71-35,82.6-72.35" transform="translate(-3.24 -18.44)"/><path class="cls-97" d="M125.27,199.78c12,38.38,45.61,70.14,84.45,73a66.64,66.64,0,0,0,10.09,0c39-2.95,71.8-35.22,83.55-73" transform="translate(-3.24 -18.44)"/><path class="cls-98" d="M124.26,201.74c12.17,38.8,46.14,70.77,85.39,73.65a69.46,69.46,0,0,0,10.2,0c39.44-3,72.6-35.44,84.48-73.63" transform="translate(-3.24 -18.44)"/><path class="cls-99" d="M123.25,203.7c12.3,39.22,46.67,71.4,86.34,74.29a70.83,70.83,0,0,0,10.3,0c39.85-3,73.4-35.67,85.41-74.27" transform="translate(-3.24 -18.44)"/><path class="cls-100" d="M122.24,205.65c12.44,39.65,47.2,72,87.28,74.94a72.21,72.21,0,0,0,10.4,0c40.27-3,74.21-35.88,86.36-74.91" transform="translate(-3.24 -18.44)"/><path class="cls-101" d="M121.23,207.61c12.57,40.07,47.73,72.66,88.23,75.57a72.16,72.16,0,0,0,10.5,0c40.68-3,75-36.1,87.29-75.55" transform="translate(-3.24 -18.44)"/><path class="cls-102" d="M120.22,209.57c12.71,40.5,48.26,73.29,89.17,76.21a73.54,73.54,0,0,0,10.6,0c41.11-3,75.82-36.33,88.24-76.19" transform="translate(-3.24 -18.44)"/><path class="cls-103" d="M119.21,211.52c12.84,40.93,48.79,73.93,90.12,76.86a74.94,74.94,0,0,0,10.7,0c41.52-3,76.62-36.54,89.17-76.83" transform="translate(-3.24 -18.44)"/><path class="cls-104" d="M118.19,213.48c13,41.35,49.33,74.56,91.07,77.5a76.34,76.34,0,0,0,10.8,0c41.94-3,77.43-36.76,90.11-77.47" transform="translate(-3.24 -18.44)"/><path class="cls-105" d="M117.18,215.44c13.12,41.77,49.86,75.19,92,78.13a77.75,77.75,0,0,0,10.9,0c42.35-3.05,78.23-37,91-78.11" transform="translate(-3.24 -18.44)"/><path class="cls-106" d="M116.17,217.39c13.26,42.2,50.39,75.83,93,78.78a79.18,79.18,0,0,0,11,0c42.78-3.06,79-37.21,92-78.76" transform="translate(-3.24 -18.44)"/><path class="cls-107" d="M115.16,219.35c13.39,42.62,50.92,76.46,93.91,79.42a79.09,79.09,0,0,0,11.1,0c43.19-3.06,79.84-37.42,92.92-79.39" transform="translate(-3.24 -18.44)"/><path class="cls-108" d="M114.15,221.31c13.53,43,51.45,77.08,94.85,80.06a82.24,82.24,0,0,0,11.21,0c43.6-3.08,80.64-37.65,93.86-80" transform="translate(-3.24 -18.44)"/><path class="cls-109" d="M113.14,223.27c13.66,43.46,52,77.71,95.8,80.69a82,82,0,0,0,11.3,0c44-3.09,81.45-37.87,94.8-80.68" transform="translate(-3.24 -18.44)"/><path class="cls-110" d="M112.12,225.22c13.81,43.89,52.52,78.35,96.75,81.34a83.56,83.56,0,0,0,11.41,0c44.44-3.1,82.25-38.08,95.73-81.31" transform="translate(-3.24 -18.44)"/><path class="cls-111" d="M111.11,227.18c13.94,44.31,53.05,79,97.7,82a84.88,84.88,0,0,0,11.5,0c44.86-3.11,83.06-38.31,96.68-81.95" transform="translate(-3.24 -18.44)"/><path class="cls-112" d="M110.1,229.14c14.08,44.73,53.58,79.61,98.64,82.62a86.51,86.51,0,0,0,11.61,0c45.27-3.13,83.86-38.53,97.61-82.6" transform="translate(-3.24 -18.44)"/><path class="cls-113" d="M109.09,231.09c14.21,45.17,54.11,80.25,99.59,83.26a87.85,87.85,0,0,0,11.7,0c45.69-3.14,84.67-38.76,98.55-83.24" transform="translate(-3.24 -18.44)"/><path class="cls-114" d="M108.08,233.05c14.35,45.59,54.64,80.88,100.54,83.9a87.69,87.69,0,0,0,11.8,0c46.11-3.15,85.48-39,99.49-83.87" transform="translate(-3.24 -18.44)"/><path class="cls-115" d="M107.07,235c14.48,46,55.17,81.51,101.48,84.54a89.17,89.17,0,0,0,11.9,0C267,316.37,306.74,280.34,320.88,235" transform="translate(-3.24 -18.44)"/><path class="cls-116" d="M106.06,237c14.62,46.44,55.7,82.15,102.43,85.19a92.42,92.42,0,0,0,12,0C267.43,319,307.58,282.71,321.85,237" transform="translate(-3.24 -18.44)"/><path class="cls-117" d="M105,238.92c14.76,46.86,56.24,82.77,103.38,85.82a90.49,90.49,0,0,0,12.1,0c47.36-3.18,87.9-39.63,102.31-85.79" transform="translate(-3.24 -18.44)"/><path class="cls-118" d="M104,240.88c14.9,47.28,56.77,83.4,104.33,86.46a93.72,93.72,0,0,0,12.2,0c47.77-3.19,88.7-39.85,103.24-86.44" transform="translate(-3.24 -18.44)"/><path class="cls-119" d="M103,242.83c15,47.71,57.29,84,105.27,87.11a95.42,95.42,0,0,0,12.31,0c48.19-3.21,89.5-40.08,104.17-87.08" transform="translate(-3.24 -18.44)"/><path class="cls-120" d="M102,244.79c15.17,48.13,57.82,84.67,106.22,87.75a96.82,96.82,0,0,0,12.4,0c48.61-3.22,90.31-40.3,105.12-87.72" transform="translate(-3.24 -18.44)"/><path class="cls-121" d="M101,246.75c15.3,48.55,58.35,85.3,107.16,88.38a96.72,96.72,0,0,0,12.51,0c49-3.23,91.11-40.51,106.05-88.36" transform="translate(-3.24 -18.44)"/><path class="cls-122" d="M100,248.71c15.44,49,58.88,85.93,108.11,89a98.12,98.12,0,0,0,12.6,0c49.44-3.24,91.92-40.74,107-89" transform="translate(-3.24 -18.44)"/><path class="cls-123" d="M99,250.66c15.58,49.4,59.42,86.57,109.06,89.67a101.71,101.71,0,0,0,12.71,0c49.86-3.26,92.72-41,107.93-89.64" transform="translate(-3.24 -18.44)"/><path class="cls-124" d="M98,252.62c15.72,49.82,60,87.2,110,90.3a99.41,99.41,0,0,0,12.8,0c50.28-3.26,93.53-41.17,108.87-90.27" transform="translate(-3.24 -18.44)"/><path class="cls-125" d="M97,254.58c15.85,50.25,60.48,87.83,111,90.94a101.13,101.13,0,0,0,12.91,0c50.69-3.28,94.33-41.4,109.81-90.92" transform="translate(-3.24 -18.44)"/><path class="cls-126" d="M95.94,256.53c16,50.68,61,88.46,111.9,91.59a104.44,104.44,0,0,0,13,0C272,344.81,316,306.48,331.59,256.54" transform="translate(-3.24 -18.44)"/><path class="cls-127" d="M94.93,258.49c16.12,51.1,61.54,89.09,112.84,92.23a106.21,106.21,0,0,0,13.11,0c51.53-3.3,95.94-41.84,111.68-92.2" transform="translate(-3.24 -18.44)"/><path class="cls-128" d="M93.92,260.45C110.18,312,156,350.17,207.71,353.31a105.72,105.72,0,0,0,13.2,0c52-3.31,96.75-42.06,112.63-92.84" transform="translate(-3.24 -18.44)"/><path class="cls-129" d="M92.91,262.4c16.39,52,62.6,90.36,114.73,93.51a107.48,107.48,0,0,0,13.31,0c52.36-3.32,97.55-42.28,113.56-93.48" transform="translate(-3.24 -18.44)"/><path class="cls-130" d="M91.89,264.36c16.54,52.37,63.14,91,115.69,94.15a109.11,109.11,0,0,0,13.41,0c52.77-3.34,98.35-42.5,114.49-94.12" transform="translate(-3.24 -18.44)"/><path class="cls-131" d="M90.88,266.32c16.67,52.79,63.67,91.62,116.63,94.79a110.74,110.74,0,0,0,13.51,0c53.2-3.34,99.16-42.72,115.44-94.76" transform="translate(-3.24 -18.44)"/><path class="cls-132" d="M89.87,268.27c16.81,53.22,64.2,92.26,117.58,95.43a110.38,110.38,0,0,0,13.61,0c53.61-3.36,100-42.94,116.37-95.4" transform="translate(-3.24 -18.44)"/><path class="cls-133" d="M88.86,270.23c16.94,53.64,64.73,92.89,118.53,96.07a111.84,111.84,0,0,0,13.7,0c54-3.37,100.77-43.16,117.31-96" transform="translate(-3.24 -18.44)"/><path class="cls-134" d="M87.85,272.19c17.08,54.06,65.26,93.52,119.47,96.71a115.7,115.7,0,0,0,13.81,0c54.44-3.38,101.58-43.39,118.25-96.69" transform="translate(-3.24 -18.44)"/><path class="cls-135" d="M86.84,274.15c17.21,54.48,65.79,94.15,120.42,97.35a115.14,115.14,0,0,0,13.9,0c54.86-3.39,102.39-43.6,119.19-97.32" transform="translate(-3.24 -18.44)"/><path class="cls-136" d="M85.82,276.1c17.36,54.91,66.33,94.78,121.37,98a117,117,0,0,0,14,0c55.28-3.4,103.19-43.82,120.12-98" transform="translate(-3.24 -18.44)"/><path class="cls-137" d="M84.81,278.06c17.49,55.34,66.86,95.41,122.32,98.63a116.39,116.39,0,0,0,14.1,0c55.71-3.31,104-44.05,121.07-98.61" transform="translate(-3.24 -18.44)"/><path class="cls-138" d="M83.8,280c17.63,55.76,67.39,96,123.26,99.27a118.22,118.22,0,0,0,14.21,0C277.39,376,326.07,335,343.27,280" transform="translate(-3.24 -18.44)"/><path class="cls-139" d="M82.79,282c17.76,56.19,67.92,96.68,124.21,99.92a119.89,119.89,0,0,0,14.31,0c56.53-3.33,105.6-44.48,122.94-99.88" transform="translate(-3.24 -18.44)"/><path class="cls-140" d="M81.78,283.93c17.9,56.61,68.45,97.31,125.15,100.55a119.46,119.46,0,0,0,14.41,0c57-3.35,106.41-44.71,123.88-100.53" transform="translate(-3.24 -18.44)"/><path class="cls-141" d="M80.77,285.89c18,57,69,97.94,126.1,101.19a121.13,121.13,0,0,0,14.51,0c57.36-3.37,107.21-44.93,124.81-101.17" transform="translate(-3.24 -18.44)"/><path class="cls-142" d="M79.76,287.84c18.17,57.46,69.5,98.69,127,101.84a120.73,120.73,0,0,0,14.61,0c57.79-3.38,108-45.14,125.76-101.8" transform="translate(-3.24 -18.44)"/><path class="cls-143" d="M78.74,289.8c18.31,57.88,70,99.32,128,102.48a124.5,124.5,0,0,0,14.71,0c58.2-3.4,108.82-45.37,126.69-102.45" transform="translate(-3.24 -18.44)"/><path class="cls-144" d="M77.73,291.76c18.45,58.3,70.57,99.94,128.94,103.11a124,124,0,0,0,14.81,0c58.62-3.41,109.63-45.59,127.63-103.09" transform="translate(-3.24 -18.44)"/><path class="cls-145" d="M76.72,293.72c18.58,58.72,71.1,100.56,129.89,103.75a123.65,123.65,0,0,0,14.91,0c59-3.42,110.43-45.8,128.57-103.72" transform="translate(-3.24 -18.44)"/><path class="cls-146" d="M75.71,295.67c18.72,59.15,71.63,101.2,130.83,104.4a127.42,127.42,0,0,0,15,0C281,396.6,332.79,354,351.06,295.67" transform="translate(-3.24 -18.44)"/><path class="cls-147" d="M74.7,297.63c18.86,59.57,72.16,101.82,131.78,105a131.35,131.35,0,0,0,15.11,0c59.87-3.46,112-46.25,130.44-105" transform="translate(-3.24 -18.44)"/><path class="cls-148" d="M73.69,299.59c19,60,72.69,102.45,132.72,105.67a130.83,130.83,0,0,0,15.21,0c60.29-3.48,112.85-46.47,131.39-105.65" transform="translate(-3.24 -18.44)"/><path class="cls-149" d="M72.67,301.54C91.81,362,145.9,404.62,206.35,407.86a130.36,130.36,0,0,0,15.31,0c60.7-3.49,113.65-46.69,132.32-106.28" transform="translate(-3.24 -18.44)"/><path class="cls-150" d="M71.66,303.5c19.27,60.85,73.76,103.7,134.62,107a134.48,134.48,0,0,0,15.42,0C282.81,406.92,336.15,363.52,355,303.5" transform="translate(-3.24 -18.44)"/><path class="cls-151" d="M70.65,305.46c19.41,61.27,74.29,104.33,135.57,107.6a138.39,138.39,0,0,0,15.51,0c61.53-3.52,115.26-47.14,134.2-107.57" transform="translate(-3.24 -18.44)"/><path class="cls-152" d="M69.64,307.41c19.54,61.7,74.82,105,136.51,108.24a135.69,135.69,0,0,0,15.62,0c62-3.53,116.06-47.35,135.13-108.2" transform="translate(-3.24 -18.44)"/><path class="cls-153" d="M68.63,309.37C88.31,371.49,144,415,206.09,418.25a137.25,137.25,0,0,0,15.71,0c62.37-3.55,116.87-47.57,136.07-108.85" transform="translate(-3.24 -18.44)"/><path class="cls-154" d="M67.62,311.33C87.43,373.87,143.5,417.54,206,420.85a141.36,141.36,0,0,0,15.81,0c62.78-3.57,117.68-47.8,137-109.49" transform="translate(-3.24 -18.44)"/><path class="cls-155" d="M66.61,313.28c20,63,76.41,106.84,139.35,110.17a143.15,143.15,0,0,0,15.91,0c63.2-3.59,118.49-48,138-110.13" transform="translate(-3.24 -18.44)"/><path class="cls-156" d="M65.59,315.24C85.68,378.63,142.54,422.71,205.9,426a142.55,142.55,0,0,0,16,0c63.61-3.6,119.29-48.23,138.88-110.77" transform="translate(-3.24 -18.44)"/><path class="cls-157" d="M64.58,317.2C84.81,381,142.06,425.29,205.83,428.64a144.33,144.33,0,0,0,16.11,0C286,425,342,380.15,361.77,317.2" transform="translate(-3.24 -18.44)"/><path class="cls-158" d="M63.57,319.16c20.36,64.23,78,108.72,142.2,112.08a146.13,146.13,0,0,0,16.21,0c64.45-3.63,120.9-48.68,140.76-112" transform="translate(-3.24 -18.44)"/><path class="cls-159" d="M62.56,321.11c20.5,64.66,78.54,109.35,143.14,112.73a147.94,147.94,0,0,0,16.31,0c64.87-3.64,121.71-48.89,141.71-112.69" transform="translate(-3.24 -18.44)"/><path class="cls-160" d="M61.55,323.07c20.63,65.08,79.07,110,144.09,113.36a149.75,149.75,0,0,0,16.41,0c65.28-3.66,122.51-49.12,142.64-113.33" transform="translate(-3.24 -18.44)"/><path class="cls-161" d="M60.54,325c20.77,65.51,79.6,110.6,145,114a151.76,151.76,0,0,0,16.52,0c65.7-3.68,123.31-49.34,143.57-114" transform="translate(-3.24 -18.44)"/><path class="cls-162" d="M59.52,327c20.91,65.94,80.14,111.23,146,114.65a153.42,153.42,0,0,0,16.61,0C288.24,437.9,346.24,392,366.64,327" transform="translate(-3.24 -18.44)"/><path class="cls-163" d="M58.51,328.94C79.56,395.3,139.18,440.8,205.44,444.23a155.47,155.47,0,0,0,16.72,0c66.53-3.7,124.92-49.78,145.45-115.25" transform="translate(-3.24 -18.44)"/><path class="cls-164" d="M57.5,330.9c23,72.35,91.49,120,164.69,115.89,66.95-3.72,125.73-50,146.39-115.89" transform="translate(-3.24 -18.44)"/><path class="cls-165" d="M213.72,20.29c.42,11.81,1,14.57,1.56,14.59s1.35-2.71,2.63-14.59" transform="translate(-3.24 -18.44)"/><path class="cls-166" d="M211.19,25.27c.52,11.59,2,15.34,4,15.38s3.8-3.73,5.14-15.38" transform="translate(-3.24 -18.44)"/><path class="cls-167" d="M208.66,30.26c.62,11.36,3,16.1,6.5,16.15s6.25-4.74,7.66-16.15" transform="translate(-3.24 -18.44)"/><path class="cls-168" d="M206.13,35.24c.72,11.14,3.94,16.87,9,16.94,5.18.07,8.69-5.76,10.17-16.94" transform="translate(-3.24 -18.44)"/><path class="cls-169" d="M203.6,40.23c.82,10.91,4.91,17.63,11.44,17.71,6.73.1,11.14-6.77,12.69-17.71" transform="translate(-3.24 -18.44)"/><path class="cls-170" d="M201.07,45.21C202,55.9,207,63.6,215,63.71c8.28.11,13.59-7.79,15.2-18.5" transform="translate(-3.24 -18.44)"/><path class="cls-171" d="M198.54,50.2c1,10.46,6.84,19.15,16.38,19.28,9.83.12,16-8.81,17.72-19.28" transform="translate(-3.24 -18.44)"/><path class="cls-172" d="M196,55.18c1.12,10.24,7.81,19.92,18.85,20.06,11.38.15,18.49-9.82,20.23-20.06" transform="translate(-3.24 -18.44)"/><path class="cls-173" d="M193.48,60.17c1.22,10,8.78,20.68,21.32,20.84,12.93.16,20.93-10.84,22.75-20.84" transform="translate(-3.24 -18.44)"/><path class="cls-174" d="M191,65.16c1.32,9.78,9.75,21.44,23.79,21.61C229.21,87,238.12,74.91,240,65.16" transform="translate(-3.24 -18.44)"/><path class="cls-175" d="M188.42,70.14c1.43,9.56,10.71,22.21,26.26,22.4,16,.2,25.83-12.88,27.78-22.4" transform="translate(-3.24 -18.44)"/><path class="cls-176" d="M185.89,75.13c1.53,9.33,11.68,23,28.73,23.18,17.57.21,28.28-13.9,30.3-23.18" transform="translate(-3.24 -18.44)"/><path class="cls-177" d="M183.36,80.11c1.63,9.11,12.65,23.73,31.2,24,19.12.24,30.72-14.91,32.81-24" transform="translate(-3.24 -18.44)"/><path class="cls-178" d="M180.83,85.1c1.73,8.88,13.62,24.49,33.67,24.74,20.67.25,33.17-15.93,35.33-24.74" transform="translate(-3.24 -18.44)"/><path class="cls-179" d="M178.29,90.08c1.84,8.66,14.59,25.26,36.15,25.52,22.22.28,35.62-16.94,37.84-25.52" transform="translate(-3.24 -18.44)"/><path class="cls-180" d="M175.76,95.07c1.94,8.43,15.56,26,38.62,26.3,23.77.29,38.07-18,40.36-26.3" transform="translate(-3.24 -18.44)"/><path class="cls-181" d="M173.23,100.05c2,8.21,16.53,26.79,41.09,27.08,25.32.31,40.52-19,42.87-27.08" transform="translate(-3.24 -18.44)"/><path class="cls-182" d="M170.7,105c2.14,8,17.5,27.54,43.56,27.86,26.87.33,43-20,45.39-27.86" transform="translate(-3.24 -18.44)"/><path class="cls-183" d="M168.17,110c2.24,7.76,18.46,28.31,46,28.65,28.42.34,45.41-21,47.9-28.65" transform="translate(-3.24 -18.44)"/><path class="cls-184" d="M165.64,115c2.34,7.53,19.43,29.07,48.5,29.42,30,.37,47.86-22,50.42-29.42" transform="translate(-3.24 -18.44)"/><path class="cls-185" d="M163.11,120c2.44,7.3,20.4,29.84,51,30.21,31.52.38,50.31-23,52.94-30.21" transform="translate(-3.24 -18.44)"/><path class="cls-186" d="M160.58,125c2.54,7.07,21.36,30.6,53.44,31,33.07.4,52.75-24.06,55.45-31" transform="translate(-3.24 -18.44)"/><path class="cls-187" d="M158.05,130c2.65,6.85,22.33,31.36,55.91,31.77,34.62.42,55.2-25.08,58-31.77" transform="translate(-3.24 -18.44)"/><path class="cls-188" d="M155.52,135c2.75,6.62,23.3,32.12,58.38,32.55,36.17.43,57.65-26.1,60.48-32.55" transform="translate(-3.24 -18.44)"/><path class="cls-189" d="M153,139.94c2.85,6.39,24.27,32.88,60.85,33.32,37.72.45,60.1-27.11,63-33.32" transform="translate(-3.24 -18.44)"/><path class="cls-190" d="M150.46,144.92c2.95,6.17,25.23,33.65,63.32,34.11,39.27.47,62.55-28.13,65.51-34.11" transform="translate(-3.24 -18.44)"/><path class="cls-191" d="M147.93,149.91c3,5.94,26.2,34.41,65.79,34.88,40.82.49,65-29.14,68-34.88" transform="translate(-3.24 -18.44)"/><path class="cls-192" d="M145.4,154.89c3.15,5.72,27.17,35.18,68.26,35.67,42.37.51,67.44-30.16,70.54-35.67" transform="translate(-3.24 -18.44)"/><path class="cls-193" d="M142.87,159.88c3.25,5.49,28.14,35.93,70.74,36.44,43.91.53,69.88-31.17,73.05-36.44" transform="translate(-3.24 -18.44)"/><path class="cls-194" d="M140.34,164.86c3.35,5.27,29.1,36.7,73.21,37.23,45.46.54,72.33-32.2,75.57-37.23" transform="translate(-3.24 -18.44)"/><path class="cls-195" d="M137.81,169.85c3.45,5,30.07,37.46,75.68,38,47,.56,74.77-33.22,78.08-38" transform="translate(-3.24 -18.44)"/><path class="cls-196" d="M135.28,174.83c3.55,4.82,31,38.23,78.15,38.79,48.56.58,77.22-34.23,80.6-38.79" transform="translate(-3.24 -18.44)"/><path class="cls-197" d="M132.75,179.82c3.65,4.59,32,39,80.62,39.57,50.11.6,79.67-35.25,83.11-39.57" transform="translate(-3.24 -18.44)"/></g><circle class="cls-198" cx="99.09" cy="276.5" r="9.14"/><path class="cls-199" d="M104.53,281.68a12.56,12.56,0,0,0-5.86-.89l-.32-1.92c1.48-.72,1.75-1,1.71-1.18-.11-.36-2.26,0-2.85.09s-2.71.45-2.7.83c0,.15.36.36,2,.56l.32,1.93a12.39,12.39,0,0,0-6.63,4.11l-1.58-1.14c.53-1.55.51-2,.38-2-.31-.16-1.4,1.33-1.85,1.94-.32.44-1.72,2.36-1.43,2.63.11.11.5,0,1.81-1l1.58,1.14a12.3,12.3,0,0,0-1.81,6.94l-2,.33c-.72-1.48-1-1.75-1.17-1.71-.38.11,0,2.35.07,2.85s.45,2.71.84,2.7c.15,0,.36-.36.56-2l1.89-.31a12.51,12.51,0,0,0,1.34,3.72" transform="translate(-3.24 -18.44)"/><path class="cls-199" d="M91.29,298.91a12.51,12.51,0,0,0,2.92,3.54L93.07,304c-.61-.33-.93-.39-1.14-.3s-.26.12-.3.28c-.1.33.47.76,1.34,1.37,1.65,1.15,2.47,1.72,2.63,1.55s0-.49-1-1.81l1.14-1.58a12.37,12.37,0,0,0,7.59,1.77l.32,1.93c-1.49.76-1.75,1-1.71,1.17s.33.12,2.8-.28,2.75-.52,2.75-.63-.34-.32-2-.57l-.32-1.92a12.51,12.51,0,0,0,6.63-4.11l1.58,1.13c-.53,1.57-.5,2-.38,2s1.19-1.14,1.88-2.1,1.62-2.25,1.4-2.47-.49,0-1.81,1l-1.58-1.13a12.41,12.41,0,0,0,1.7-8.24l1.89-.31c.74,1.48,1,1.75,1.17,1.71s.08-1.08-.18-2.83c-.39-2.58-.63-2.71-.73-2.72s-.38.35-.45.61a4.68,4.68,0,0,0-.12,1.38l-2,.33a12.53,12.53,0,0,0-3.94-6l1.13-1.58c1.53.56,2,.53,2,.38.19-.33-1.13-1.45-2-2s-2.37-1.53-2.62-1.24c-.11.13,0,.54,1,1.81l-1.13,1.58a14.19,14.19,0,0,0-1.74-.88" transform="translate(-3.24 -18.44)"/><line class="cls-200" x1="108.34" y1="257.63" x2="79.38" y2="286.59"/><circle class="cls-201" cx="241.67" cy="303.63" r="45.42"/><path class="cls-202" d="M200.93,341.38a44,44,0,0,0,5.94,12.3l-5.29,4.74c-4.94-3-6.37-3.25-6.72-2.84-.92,1.06,4.44,7,5.63,8.34s6.49,7.21,7.62,6.42c.45-.31.39-1.76-2.1-7l5-4.52a43.8,43.8,0,0,0,26.43,13.51l-.38,6.85c-2.45.15-3.5.6-4,1.27a1.76,1.76,0,0,0-.37,1.39c.35,1.16,2.86,1.39,6.62,1.54,7.06.27,10.6.4,10.76-.39.1-.5-.95-1.46-6.45-3.46l.37-6.86a44.48,44.48,0,0,0,10.55-1.51" transform="translate(-3.24 -18.44)"/><path class="cls-202" d="M259.34,272.94a43.6,43.6,0,0,0-14.08-4.3l.36-6.86c5.6-1.25,6.8-2.14,6.78-2.75-.05-1.35-6.12-2.17-9.68-2.37-3.76-.22-9.94,0-10.13,1.3-.09.61,1,1.63,6.44,3.46l-.37,6.87a43.81,43.81,0,0,0-25.94,9.17l-4.6-5.12c3-4.95,3.25-6.38,2.84-6.73-1-.88-6.72,4.24-8.3,5.66s-7.22,6.5-6.46,7.6c.31.44,1.75.38,7-2.1l4.6,5.11A43.86,43.86,0,0,0,195.9,306.7l-6.86-.37c-1.36-5.62-2.21-6.82-2.76-6.77-1.22.09-1.63,6.59-1.8,9.27-.12,1.93-.64,10.28.74,10.54.53.1,1.5-.95,3.46-6.44l6.86.37a44.36,44.36,0,0,0,1.87,11.79" transform="translate(-3.24 -18.44)"/><path class="cls-202" d="M289.78,298.78a43.86,43.86,0,0,0-10.09-6.73l2.81-6.15c5.8.75,7.17.4,7.3-.08.23-.81-3-2.34-8.64-5-8.33-4-9.17-3.5-9.39-3.21-.38.51.27,1.79.9,2.52a16.2,16.2,0,0,0,3.82,3l-2.95,6.46a43.74,43.74,0,0,0-10.7-1.93" transform="translate(-3.24 -18.44)"/><path class="cls-202" d="M288,330.67a44.64,44.64,0,0,0-.55-9.53l6.67-1.64c3,5,4.13,5.88,4.6,5.69,1-.41-.32-5.8-1.32-9.85s-2.33-9.52-3.41-9.42c-.51.05-1.12,1.33-1.44,7.17l-6.68,1.64a43.7,43.7,0,0,0-8.95-15.59" transform="translate(-3.24 -18.44)"/><path class="cls-202" d="M256.32,363.08a43.65,43.65,0,0,0,15.4-7.66l4.6,5.12c-3,5.09-3.2,6.45-2.84,6.73s1.21-.25,7.79-6.16,7.18-6.76,7-7.1-1.62-.29-7,2.1l-4.6-5.11a43.8,43.8,0,0,0,9.65-15.55" transform="translate(-3.24 -18.44)"/><path class="cls-203" d="M214.68,309.46s-2.78,2.2-5.56,4.45-5.39,4.67-5.39,4.67c-2,1.69,1.42,3.53,3.19,1.81,0,0,2.68-2.42,5.49-4.64s5.6-4.35,5.6-4.35C220.22,310,216.59,308,214.68,309.46Z" transform="translate(-3.24 -18.44)"/><path class="cls-203" d="M230,288.16s3.59,1.1,6.72,1.89,5.91,1.35,5.91,1.35c2,.51,2.42-3.7.41-3.95-1.88-.48-3.84-.95-5.95-1.51s-4.39-1.25-6.82-2.09C227.47,283.07,227.09,287,230,288.16Z" transform="translate(-3.24 -18.44)"/><path class="cls-203" d="M258.49,318.46s2.26-2.18,4.48-4.51,4.5-4.61,4.5-4.61c1.67-1.76-.34-4.65-2.14-2.81,0,0-2.1,2.37-4.14,4.77s-4.16,4.75-4.16,4.75C255.24,317.73,256.81,319.93,258.49,318.46Z" transform="translate(-3.24 -18.44)"/><path class="cls-204" d="M269.82,344.73s-.13-3.19-.16-6.37,0-6.51,0-6.51c-.12-2.55-4.05-2.24-4,.08,0,0-.17,3-.25,6s.16,5.94.16,5.94C265.49,346.06,269.77,347.35,269.82,344.73Z" transform="translate(-3.24 -18.44)"/><path class="cls-203" d="M243.12,333.18c-1-.92-2-1.84-2.92-2.73s-2-1.79-3.08-2.68c-1.1-1.1-4.43.71-3.28,1.74l3.19,2.43c1.57,1.2,3.2,2.48,3.2,2.48C241.42,335.51,244.25,334.32,243.12,333.18Z" transform="translate(-3.24 -18.44)"/><path class="cls-203" d="M243.15,347.84a35.89,35.89,0,0,0-6.47,0,45.72,45.72,0,0,0-6.48,1.26c-2.35.83-2.34,4.53,0,3.64a42.4,42.4,0,0,1,6.48-1.44,31.74,31.74,0,0,1,6.48-.06C245.51,351.82,245.5,348.33,243.15,347.84Z" transform="translate(-3.24 -18.44)"/><line class="cls-205" x1="275.42" y1="242.47" x2="167.44" y2="350.46"/><path class="cls-206" d="M148.59,298.41a8,8,0,0,1-5.43-5.63" transform="translate(-3.24 -18.44)"/><path class="cls-207" d="M183.8,271.73a13.44,13.44,0,0,1,2.25-1.34c1.89-.88,2.65-.71,3.38-1.35,1.25-1.1-.26-2.37.91-3.39,1.39-1.21,4.25-.52,4.94-1.54.48-.69-.64-1.37-.12-2s1.82-.68,3-.66" transform="translate(-3.24 -18.44)"/><path class="cls-208" d="M326.85,333.25a8.47,8.47,0,0,1-6,5.77" transform="translate(-3.24 -18.44)"/><path class="cls-209" d="M357.16,292.26a8.53,8.53,0,0,1-2,3.48A8.66,8.66,0,0,1,351.2,298" transform="translate(-3.24 -18.44)"/></g></g></svg>