<svg xmlns="http://www.w3.org/2000/svg" viewBox="0 0 236.19 192.92"><defs><style>.cls-1{fill:#e0eefa;}.cls-2{font-size:18.82px;font-family:DMSans-Regular, DM Sans;}.cls-3,.cls-5{fill:none;}.cls-3,.cls-4{stroke:#000;stroke-width:0.5px;}.cls-3,.cls-4,.cls-5{stroke-miterlimit:10;}.cls-4{fill:#fff;}.cls-5{stroke:#4172b2;}</style></defs><g id="Layer_2" data-name="Layer 2"><g id="Layer_1-2" data-name="Layer 1"><path class="cls-1" d="M210.46,142.12H38.37a25,25,0,0,0-18.77,8.5h0c-14.16,16.14-2.7,41.44,18.77,41.44H210.46c21.47,0,32.93-25.3,18.77-41.44h0A25,25,0,0,0,210.46,142.12Z"/><text class="cls-2" transform="translate(95.4 84.99)">10min</text><path class="cls-3" d="M136.75,58.3,133.67,53a.57.57,0,0,0-.76-.2.56.56,0,0,0-.21.76l3.09,5.34a31.07,31.07,0,0,1-14.59,3.91V56.59a.56.56,0,0,0-1.11,0v6.17a31,31,0,0,1-14.59-3.91l3.08-5.34a.54.54,0,0,0-.2-.76.56.56,0,0,0-.76.2l-3.08,5.34A31.36,31.36,0,0,1,93.86,47.61l5.34-3.08a.56.56,0,1,0-.56-1L93.3,46.65a31,31,0,0,1-3.91-14.59h6.17a.56.56,0,1,0,0-1.11H89.39A31.07,31.07,0,0,1,93.3,16.36l5.34,3.09a.58.58,0,0,0,.28.07.55.55,0,0,0,.48-.28.56.56,0,0,0-.2-.76L93.86,15.4A31.45,31.45,0,0,1,104.54,4.72l3.08,5.34a.55.55,0,0,0,.48.28.48.48,0,0,0,.28-.08.54.54,0,0,0,.2-.75L105.5,4.17A31.08,31.08,0,0,1,120.09.25V6.42a.56.56,0,1,0,1.11,0V.25a31.08,31.08,0,0,1,14.59,3.92L132.7,9.51a.56.56,0,0,0,.21.76.56.56,0,0,0,.76-.21l3.08-5.34A31.45,31.45,0,0,1,147.43,15.4l-5.34,3.08a.56.56,0,0,0,.28,1,.58.58,0,0,0,.28-.07L148,16.36A31.19,31.19,0,0,1,151.9,31h-6.17a.56.56,0,1,0,0,1.11h6.17A31.16,31.16,0,0,1,148,46.65l-5.34-3.08a.56.56,0,0,0-.76.2.54.54,0,0,0,.2.76l5.34,3.09A31.63,31.63,0,0,1,136.75,58.3Z"/><path d="M129.61,22.53a.54.54,0,0,0-.78,0l-7.53,7.54-.1,0V10.63a.56.56,0,1,0-1.11,0V30a1.58,1.58,0,1,0,2.14,1.48,1.45,1.45,0,0,0-.15-.66l7.53-7.53A.56.56,0,0,0,129.61,22.53Z"/><line class="cls-4" x1="0.45" y1="128.14" x2="236.18" y2="128.14"/><path class="cls-3" d="M0,128.14c66.83,2,129.12,7.16,130,20.44.6,9.27-29.06,16.47-28.42,25.47.62,8.65,29.06,16.81,134.6,18.62"/><line class="cls-5" x1="59.76" y1="140.34" x2="59.76" y2="160.06"/><line class="cls-5" x1="59.76" y1="173.17" x2="59.76" y2="192.89"/><line class="cls-5" x1="33.48" y1="166.61" x2="53.2" y2="166.61"/><line class="cls-5" x1="66.31" y1="166.61" x2="86.04" y2="166.61"/><line class="cls-5" x1="23.06" y1="139.59" x2="23.06" y2="149.45"/><line class="cls-5" x1="23.06" y1="156" x2="23.06" y2="165.86"/><line class="cls-5" x1="9.92" y1="152.72" x2="19.78" y2="152.72"/><line class="cls-5" x1="26.34" y1="152.72" x2="36.2" y2="152.72"/><line class="cls-4" x1="148.52" y1="139.5" x2="232.79" y2="178.19"/><line class="cls-4" x1="161.94" y1="137.83" x2="217.19" y2="163.2"/><rect class="cls-4" x="20.92" y="112.44" width="196.27" height="15.7"/><path class="cls-4" d="M198,105.67l-1.13.35.71,1a2.47,2.47,0,0,1-1.57,3.94l-1.13.19.53,1a2.53,2.53,0,0,1,.28,1.14,2.47,2.47,0,0,1-2.32,2.47H179.08a5.3,5.3,0,0,1-3.05-1.11,3,3,0,0,0-.79-.52l-.31-.14h0V100.74l1.49-1.28,5-9.33A4.21,4.21,0,0,0,182,89a4.28,4.28,0,0,0,.1-1.29l-.4-5.24a2.3,2.3,0,0,1,1.15-.3c2.17,0,4,3.47,4,6.31a7.62,7.62,0,0,1-.09,1.18l-.87,5.67h10.91a2.67,2.67,0,0,1,1.89.8,2.41,2.41,0,0,1,.73,1.7,2.48,2.48,0,0,1-1,2l-1,.77,1.11.63a2.48,2.48,0,0,1,1.26,2.16A2.45,2.45,0,0,1,198,105.67Zm-24.81-8.59h-9.54a1.73,1.73,0,0,0-1.73,1.72v18a1.73,1.73,0,0,0,1.73,1.72h9.54a1.72,1.72,0,0,0,1.72-1.72v-18A1.72,1.72,0,0,0,173.21,97.08Zm-3.67,18.31a1.8,1.8,0,1,1,1.81-1.8A1.81,1.81,0,0,1,169.54,115.39Z"/></g></g></svg>