<svg xmlns="http://www.w3.org/2000/svg" viewBox="0 0 154.96 154.96"><defs><style>.cls-1,.cls-3,.cls-4{fill:none;}.cls-1{stroke:#231f20;}.cls-1,.cls-3{stroke-linecap:round;stroke-linejoin:round;stroke-width:1.79px;}.cls-2{fill:#231f20;}.cls-3{stroke:#000;}.cls-5{fill:#fff;}.cls-6{fill:#dedede;}.cls-7{fill:#666;}.cls-8{fill:#f1f1f1;}.cls-9{fill:#cacac9;}.cls-10{fill:#eaf3fe;}.cls-11{fill:#d4e7fc;}.cls-12{fill:#bfdbfb;}.cls-13{fill:#aacffa;}.cls-14{fill:#95c3f9;}.cls-15{fill:#7fb7f8;}.cls-16{fill:#6aacf6;}.cls-17{fill:#55a0f5;}.cls-18{fill:#4094f4;}.cls-19{fill:#2b88f3;}.cls-20{fill:#157cf1;}.cls-21{fill:#0070f0;}</style></defs><g id="Layer_2" data-name="Layer 2"><g id="Layer_1-2" data-name="Layer 1"><path class="cls-1" d="M123.7,138.56A76.59,76.59,0,0,1,21.39,25.33"/><polygon class="cls-2" points="16.66 22 23.32 23.32 24.99 29.91 24.96 29.94 16.63 22.02 16.66 22"/><path class="cls-1" d="M31,16.57A76.59,76.59,0,0,1,133.57,129.63"/><polygon class="cls-2" points="138.3 132.96 131.63 131.63 129.97 125.05 130 125.02 138.32 132.94 138.3 132.96"/><path d="M37.52,44.84a7.56,7.56,0,0,1-3.28,2.49,6.7,6.7,0,0,1-3.82.27,10.1,10.1,0,0,1-6.58-5.23,6.76,6.76,0,0,1-.61-3.79,7.5,7.5,0,0,1,1.68-3.76,7.08,7.08,0,0,1,3.83-2.67,6,6,0,0,1,4.29.6L31.4,34.81a3.66,3.66,0,0,0-2.52-.3,4.28,4.28,0,0,0-2.33,1.64A4.58,4.58,0,0,0,25.5,40a6.48,6.48,0,0,0,2.58,3.78,6.41,6.41,0,0,0,4.24,1.64,4.61,4.61,0,0,0,3.53-1.91A4.53,4.53,0,0,0,37,40.93a3.48,3.48,0,0,0-.79-2.34l1.63-2.05a5.8,5.8,0,0,1,1.47,4A7.22,7.22,0,0,1,37.52,44.84Z"/><path d="M47.06,35.66a5.63,5.63,0,0,1-2.7,1.11,5.26,5.26,0,0,1-2.81-.43,6.09,6.09,0,0,1-2.41-2,6,6,0,0,1-1.22-2.88,5.31,5.31,0,0,1,.41-2.82,5.91,5.91,0,0,1,4.53-3.39,5.35,5.35,0,0,1,2.81.42,6.56,6.56,0,0,1,3.64,4.87,5.31,5.31,0,0,1-.4,2.82A5.72,5.72,0,0,1,47.06,35.66ZM45.85,34a3,3,0,0,0,1-1.27A3.15,3.15,0,0,0,47,31.05a4.5,4.5,0,0,0-.89-1.93,4.42,4.42,0,0,0-1.6-1.41,3,3,0,0,0-1.67-.31,3,3,0,0,0-1.51.6,3,3,0,0,0-1,1.27A3.25,3.25,0,0,0,40.18,31a5.1,5.1,0,0,0,2.49,3.33,3.19,3.19,0,0,0,1.68.32A3,3,0,0,0,45.85,34Z"/><path d="M52.92,31.27,48.55,21.14l1.92-.83L51.4,22a3.8,3.8,0,0,1,.74-2.07A4.37,4.37,0,0,1,54,18.5a4.05,4.05,0,0,1,3.38-.11,5.32,5.32,0,0,1,2.52,3l2.51,5.82-2.14.93-2.41-5.6q-1.28-2.94-3.68-1.9a2.79,2.79,0,0,0-1.62,1.71,3.79,3.79,0,0,0,.27,2.79l2.25,5.23Z"/><path d="M69,25.79a3.92,3.92,0,0,1-2.69-.23A3.49,3.49,0,0,1,64.74,23l-1.15-5.33-1.84.4-.42-1.94,1.85-.39L62.87,13l2-.44.59,2.74,3-.65.41,1.93-3,.65,1.15,5.33a1.61,1.61,0,0,0,.64,1.15,2,2,0,0,0,1.39.05l1.24-.26.42,1.95Z"/><path d="M73,12.06a1.56,1.56,0,0,1-1.13-.32,1.36,1.36,0,0,1-.52-1,1.34,1.34,0,0,1,.34-1.06,1.58,1.58,0,0,1,1.07-.51,1.52,1.52,0,0,1,1.13.32,1.39,1.39,0,0,1,.52,1A1.37,1.37,0,0,1,74,11.55,1.51,1.51,0,0,1,73,12.06ZM72.9,25.23l-.93-11,2.35-.2.93,11Z"/><path d="M77.82,24.71l.89-11,2.09.17,0,1.94a3.82,3.82,0,0,1,1.63-1.48,4.34,4.34,0,0,1,2.32-.4,4,4,0,0,1,3,1.49,5.27,5.27,0,0,1,.84,3.8l-.51,6.32-2.33-.19.49-6.08c.18-2.13-.61-3.26-2.35-3.4a2.8,2.8,0,0,0-2.24.75,3.85,3.85,0,0,0-1.07,2.59l-.46,5.68Z"/><path d="M93.76,27.43a4.05,4.05,0,0,1-2.61-2.14,5.31,5.31,0,0,1,0-3.89l1.94-6,2.25.72-1.87,5.81c-.65,2-.15,3.31,1.52,3.85a2.77,2.77,0,0,0,2.34-.23A3.81,3.81,0,0,0,99,23.23l1.74-5.43,2.25.72L99.61,29l-2-.64.43-1.9a3.84,3.84,0,0,1-1.93,1.08A4.33,4.33,0,0,1,93.76,27.43Z"/><path d="M105.85,32.81a5.59,5.59,0,0,1-2-2.08,5.36,5.36,0,0,1-.65-2.76,6.06,6.06,0,0,1,.95-3,5.93,5.93,0,0,1,2.21-2.21,5.24,5.24,0,0,1,2.77-.69A5.93,5.93,0,0,1,113.92,25a5.38,5.38,0,0,1,.66,2.77A6.54,6.54,0,0,1,111.43,33a5.21,5.21,0,0,1-2.77.69A5.58,5.58,0,0,1,105.85,32.81Zm1.05-1.73a3.11,3.11,0,0,0,1.56.46,3.19,3.19,0,0,0,1.65-.47,4.39,4.39,0,0,0,1.46-1.55,4.48,4.48,0,0,0,.71-2,3,3,0,0,0-1.46-2.84,3.08,3.08,0,0,0-1.56-.46,3.19,3.19,0,0,0-1.65.47,5.1,5.1,0,0,0-2.16,3.56,3.19,3.19,0,0,0,.34,1.68A3,3,0,0,0,106.9,31.08Z"/><path d="M114.83,39.67a4.06,4.06,0,0,1-1.36-3.1,5.29,5.29,0,0,1,1.79-3.45l4.45-4.51,1.68,1.66-4.28,4.33c-1.5,1.52-1.63,2.9-.38,4.12a2.79,2.79,0,0,0,2.19.86,3.9,3.9,0,0,0,2.48-1.31l4-4.05,1.67,1.65-7.74,7.85-1.49-1.46,1.23-1.51a3.84,3.84,0,0,1-2.2.1A4.43,4.43,0,0,1,114.83,39.67Z"/><path d="M122.83,49.3a5.49,5.49,0,0,1-1-3.44,3.82,3.82,0,0,1,1.42-2.79l1.3,2a2.33,2.33,0,0,0-.63,1.42,2.74,2.74,0,0,0,.5,1.77,2.33,2.33,0,0,0,1.23,1.06,1.34,1.34,0,0,0,1.12-.15,1.14,1.14,0,0,0,.59-1.19,9.61,9.61,0,0,0-.57-1.88,14,14,0,0,1-.57-1.84,4.08,4.08,0,0,1,0-1.8A2.22,2.22,0,0,1,127.2,41a3,3,0,0,1,2.62-.39,4.59,4.59,0,0,1,2.52,2.08,4.73,4.73,0,0,1,.89,3,3.62,3.62,0,0,1-1.37,2.51l-1.24-1.9a1.6,1.6,0,0,0,.57-1.16,2.39,2.39,0,0,0-.46-1.44,2.28,2.28,0,0,0-1.06-1,1.1,1.1,0,0,0-1.06.11,1,1,0,0,0-.39,1.06,9.13,9.13,0,0,0,.47,1.83,20.67,20.67,0,0,1,.66,2,3.63,3.63,0,0,1,0,1.79,2.56,2.56,0,0,1-1.2,1.49,3.11,3.11,0,0,1-2.75.39A4.85,4.85,0,0,1,122.83,49.3Z"/><path d="M129.3,63.64a5.58,5.58,0,0,1,0-3.6,3.85,3.85,0,0,1,2.18-2.24l.65,2.29a2.36,2.36,0,0,0-1,1.17,2.73,2.73,0,0,0,0,1.84,2.28,2.28,0,0,0,.85,1.38,1.39,1.39,0,0,0,1.12.19,1.15,1.15,0,0,0,.92-1,9.6,9.6,0,0,0,0-2,15.53,15.53,0,0,1,0-1.93,4.16,4.16,0,0,1,.49-1.73,2.22,2.22,0,0,1,1.43-1,3,3,0,0,1,2.62.41,4.55,4.55,0,0,1,1.79,2.73,4.79,4.79,0,0,1,0,3.12,3.63,3.63,0,0,1-2.05,2l-.62-2.18a1.64,1.64,0,0,0,.89-.94,2.43,2.43,0,0,0,0-1.51,2.36,2.36,0,0,0-.73-1.23,1.18,1.18,0,0,0-1.05-.21,1,1,0,0,0-.69.9A9,9,0,0,0,136,62a19.28,19.28,0,0,1,0,2.14,3.61,3.61,0,0,1-.49,1.72,2.59,2.59,0,0,1-1.6,1,3.09,3.09,0,0,1-2.74-.43A4.9,4.9,0,0,1,129.3,63.64Z"/><path d="M126.27,69.78l15.9-.82.11,2.11-1.69.34A5.13,5.13,0,0,1,142,72.8a4.41,4.41,0,0,1,.72,2.37,5.2,5.2,0,0,1-2.58,4.89,6.13,6.13,0,0,1-2.94.85,6,6,0,0,1-3-.55,5.24,5.24,0,0,1-2.14-1.81,5.41,5.41,0,0,1-.89-2.81,5,5,0,0,1,.39-2.3A3.91,3.91,0,0,1,133,71.8l-6.58.34Zm7,5.46a3.29,3.29,0,0,0,1.16,2.43,3.76,3.76,0,0,0,2.75.84,4.18,4.18,0,0,0,1.91-.54,3.39,3.39,0,0,0,1.26-1.29,3.47,3.47,0,0,0,.39-1.83,3.29,3.29,0,0,0-1.17-2.42,3.84,3.84,0,0,0-2.74-.83,3.8,3.8,0,0,0-2.65,1.11A3.24,3.24,0,0,0,133.23,75.24Z"/><path d="M131.34,83l10.92,1.62L142,86.69l-2.1-.11a4.49,4.49,0,0,1,1.47,1.85,4.7,4.7,0,0,1,.26,2.57l-2.44-.37.09-.63a4.38,4.38,0,0,0-.06-1.78,2.59,2.59,0,0,0-.9-1.37,4.19,4.19,0,0,0-2-.76L131,85.32Z"/><path d="M128.72,94.11a5,5,0,0,1,1.19-2,3.21,3.21,0,0,1,1.61-.89,3.3,3.3,0,0,1,1.73.13,3,3,0,0,1,2,2A5.78,5.78,0,0,1,135,97L134,99.71l.19.07a2.53,2.53,0,0,0,2.05,0,2.6,2.6,0,0,0,1.2-1.51,3,3,0,0,0,.1-1.77,2,2,0,0,0-1.05-1.29l.76-2.23A3.75,3.75,0,0,1,139,94.39a4.48,4.48,0,0,1,.66,2.11,6.11,6.11,0,0,1-.34,2.39,5,5,0,0,1-2.3,3,4.36,4.36,0,0,1-3.54.13L127,99.81l.67-1.94,1.85.43a4.31,4.31,0,0,1-1-1.78A3.93,3.93,0,0,1,128.72,94.11Zm1.66,1.06a2.77,2.77,0,0,0-.1,1.67,3.1,3.1,0,0,0,.82,1.36,4.87,4.87,0,0,0,1.43,1l.85-2.48a3.16,3.16,0,0,0,.18-2,1.52,1.52,0,0,0-1-1,1.39,1.39,0,0,0-1.3.16A2.43,2.43,0,0,0,130.38,95.17Z"/><path d="M121.5,99.83l3.58,5.28.33-.55,10.92,1.56L135,108.3l-8.73-1.37,5.13,7.27-1.3,2.13L120.21,102Z"/><path d="M119.34,118.51a2.69,2.69,0,0,1,1.28-.74,2.81,2.81,0,0,1,1.44,0,2.66,2.66,0,0,1,1.29.73,2.73,2.73,0,0,1,.75,1.3,2.85,2.85,0,0,1,0,1.45,2.69,2.69,0,0,1-.74,1.28,2.79,2.79,0,0,1-2.73.76,2.93,2.93,0,0,1-2-2,2.82,2.82,0,0,1,.75-2.73Z"/><path d="M109.82,121.11l7.58,13.6-2.07,1.15-12.52-6.44,5.7,10.24-2.05,1.14-7.58-13.6,2.06-1.15,12.53,6.45-5.71-10.24Z"/><path d="M91.79,128.91a5.6,5.6,0,0,1,2.93,0,5.27,5.27,0,0,1,2.43,1.46,6.08,6.08,0,0,1,1.47,2.75,6,6,0,0,1,0,3.13,5.33,5.33,0,0,1-1.44,2.46,5.93,5.93,0,0,1-5.48,1.43,5.38,5.38,0,0,1-2.45-1.46,6.55,6.55,0,0,1-1.52-5.87,5.28,5.28,0,0,1,1.44-2.47A5.53,5.53,0,0,1,91.79,128.91Zm.51,2a3.08,3.08,0,0,0-1.41.81,3,3,0,0,0-.82,1.51,5.18,5.18,0,0,0,1,4,3,3,0,0,0,1.43.93,3.11,3.11,0,0,0,1.63,0,3.17,3.17,0,0,0,1.41-.81,3,3,0,0,0,.81-1.51,5.08,5.08,0,0,0-1-4,3.17,3.17,0,0,0-1.44-.93A3,3,0,0,0,92.3,130.86Z"/><path d="M79.4,131.1l-1.22,15.52-5.43-.42a6.72,6.72,0,0,1-3-.85,4.06,4.06,0,0,1-1.65-1.8,5.1,5.1,0,0,1,.35-4.71,4,4,0,0,1,1.89-1.53,6.62,6.62,0,0,1,3.11-.38l3.08.24.49-6.25Zm-3,8-3-.23a3.28,3.28,0,0,0-2.44.53,3.08,3.08,0,0,0-.31,4,3.27,3.27,0,0,0,2.32.91l3,.23Z"/><path d="M67.15,129.7l-2.94,10.63-2-.56.37-2.07a4.48,4.48,0,0,1-2,1.24,4.74,4.74,0,0,1-2.58-.06l.66-2.38.62.17a4.39,4.39,0,0,0,1.77.16,2.52,2.52,0,0,0,1.47-.73,4.13,4.13,0,0,0,1-1.92l1.4-5.11Z"/><path d="M55.36,125.22a5.46,5.46,0,0,1,2.22,1.91,5.28,5.28,0,0,1,.88,2.7,6.63,6.63,0,0,1-2.72,5.43,5.45,5.45,0,0,1-2.71.91,5.58,5.58,0,0,1-2.85-.62A5.51,5.51,0,0,1,48,133.64a5.29,5.29,0,0,1-.89-2.7,6.55,6.55,0,0,1,2.71-5.43,5.33,5.33,0,0,1,2.7-.92A5.67,5.67,0,0,1,55.36,125.22Zm-.9,1.81a2.92,2.92,0,0,0-1.59-.32,3,3,0,0,0-1.61.6A4.37,4.37,0,0,0,49.94,129,4.52,4.52,0,0,0,49.4,131a3,3,0,0,0,.47,1.63,3.13,3.13,0,0,0,1.22,1.09,3.22,3.22,0,0,0,1.59.32,3.05,3.05,0,0,0,1.6-.61,4.3,4.3,0,0,0,1.33-1.66,4.35,4.35,0,0,0,.53-2.06,3.22,3.22,0,0,0-.47-1.64A3,3,0,0,0,54.46,127Z"/><path d="M51.94,118.33,41.7,130.52l-1.62-1.35L41,127.7a5.16,5.16,0,0,1-2,.11,4.33,4.33,0,0,1-2.22-1.08,5.19,5.19,0,0,1-1.82-5.22A6.71,6.71,0,0,1,38.76,117a5.35,5.35,0,0,1,2.79-.33,5.45,5.45,0,0,1,2.66,1.26,5,5,0,0,1,1.42,1.86,4,4,0,0,1,.27,2.11l4.23-5Zm-8.74,1.38a3.26,3.26,0,0,0-2.57-.81,3.76,3.76,0,0,0-2.49,1.44,3.93,3.93,0,0,0-.9,1.77,3.33,3.33,0,0,0,.08,1.8,3.37,3.37,0,0,0,1.08,1.52,3.21,3.21,0,0,0,2.57.79,4.25,4.25,0,0,0,3.47-4.13A3.27,3.27,0,0,0,43.2,119.71Z"/><path d="M36,109a5.69,5.69,0,0,1,1.12,2.75,5,5,0,0,1-.46,2.77,6.09,6.09,0,0,1-2,2.36,6.38,6.38,0,0,1-2.87,1.23,5.17,5.17,0,0,1-2.81-.36,5.72,5.72,0,0,1-2.32-1.93,5.4,5.4,0,0,1-1.09-2.7,5.21,5.21,0,0,1,.45-2.65,5.32,5.32,0,0,1,1.74-2.1l.39-.28.48-.3,5.08,6.92A3.41,3.41,0,0,0,35,112.41a3.19,3.19,0,0,0-.62-2.26,3,3,0,0,0-1.36-1.09,2.77,2.77,0,0,0-1.59-.08l-1.4-1.9a5,5,0,0,1,3.15-.12A5.15,5.15,0,0,1,36,109Zm-7.77,5.69A3.31,3.31,0,0,0,30,116a3.05,3.05,0,0,0,2.35-.34l-3.69-5a2.8,2.8,0,0,0-1.1,1.94A3,3,0,0,0,28.23,114.68Z"/><path d="M31.9,103l-14.27,7.26-1.07-2.1,14.27-7.26Z"/><path d="M29.77,98.55l-14.88,5.9L14,102.26l14.88-5.9Z"/><path d="M27.36,90.4a5.13,5.13,0,0,1,.05,2.36,3.2,3.2,0,0,1-.9,1.59,3.31,3.31,0,0,1-1.54.8,3,3,0,0,1-2.75-.65,5.91,5.91,0,0,1-1.7-3.27l-.63-2.82-.2,0A2.53,2.53,0,0,0,18,89.56a2.57,2.57,0,0,0-.23,1.91A3,3,0,0,0,18.57,93a2,2,0,0,0,1.57.54l.52,2.3a3.67,3.67,0,0,1-2.19-.34,4.6,4.6,0,0,1-1.67-1.44,6.19,6.19,0,0,1-1-2.22,5,5,0,0,1,.39-3.76,4.4,4.4,0,0,1,2.95-2l6.61-1.49.45,2-1.8.61a4.16,4.16,0,0,1,1.8,1A4,4,0,0,1,27.36,90.4Zm-2,0a2.77,2.77,0,0,0-.8-1.47,3.08,3.08,0,0,0-1.41-.73,4.69,4.69,0,0,0-1.72-.08L22,90.64A3.13,3.13,0,0,0,23,92.47a1.48,1.48,0,0,0,1.32.31,1.43,1.43,0,0,0,1-.81A2.53,2.53,0,0,0,25.39,90.36Z"/><path d="M25.57,82.76l-11,0V80.63l1.93-.17a3.74,3.74,0,0,1-1.6-1.5,4.37,4.37,0,0,1-.59-2.29,4.06,4.06,0,0,1,1.26-3.14,5.28,5.28,0,0,1,3.71-1.13l6.34,0v2.33l-6.1,0c-2.13,0-3.2.87-3.21,2.62a2.84,2.84,0,0,0,.93,2.17,3.8,3.8,0,0,0,2.66.86l5.7,0Z"/><path d="M27,65.87a4,4,0,0,1-1.29,2.37,3.49,3.49,0,0,1-2.95.38l-5.34-1.07L17,69.4,15.06,69l.37-1.85-2.69-.84.41-2,2.75.56.61-3.06,1.95.39-.62,3.06,5.34,1.07a1.63,1.63,0,0,0,1.31-.13,2,2,0,0,0,.6-1.25l.25-1.24,2,.39Z"/><path d="M25.76,55a2.77,2.77,0,0,1-.91,1.16,2.91,2.91,0,0,1-1.34.54,2.85,2.85,0,0,1-2.64-1.14,3,3,0,0,1-.53-1.36,2.76,2.76,0,0,1,.22-1.46,2.82,2.82,0,0,1,.92-1.17,2.89,2.89,0,0,1,1.35-.53,2.7,2.7,0,0,1,1.47.23,2.64,2.64,0,0,1,1.17.92A2.8,2.8,0,0,1,26,53.54,2.7,2.7,0,0,1,25.76,55Z"/><circle class="cls-3" cx="77.46" cy="77.45" r="42.7" transform="translate(-7.92 8.83) rotate(-6.21)"/><path class="cls-4" d="M107.74,59.12a.62.62,0,0,1,1.17.4.62.62,0,1,1-1.17-.4Zm-3.12.63a.62.62,0,1,1,1.17.39.61.61,0,0,1-.78.39A.62.62,0,0,1,104.62,59.75ZM103,64.9a.62.62,0,0,1-1.17-.4.62.62,0,1,1,1.17.4Zm-.8,4.06a.62.62,0,1,1-1.17-.4.62.62,0,0,1,1.17.4Zm-.64-8.59a.62.62,0,1,1,.39.78A.61.61,0,0,1,101.51,60.37Zm-1.72,4.32a.63.63,0,0,1-.79.39.63.63,0,0,1-.39-.79.62.62,0,0,1,1.18.4Zm-.61-4.09a.62.62,0,1,1-.78.39A.61.61,0,0,1,99.18,60.6Zm-3.11.62a.62.62,0,1,1-.79.39A.61.61,0,0,1,96.07,61.22Zm.55,3.27a.62.62,0,0,1-.79.38.62.62,0,0,1,.4-1.17A.63.63,0,0,1,96.62,64.49Zm-2.14-5.24a.62.62,0,0,1,.79-.38.62.62,0,0,1-.4,1.17A.63.63,0,0,1,94.48,59.25Zm-1,5a.62.62,0,1,1-1.17-.4.62.62,0,1,1,1.17.4Zm-1.81-3.62a.61.61,0,0,1,.78-.39.62.62,0,1,1-.4,1.17A.61.61,0,0,1,91.64,60.66Zm-2.85,1.4a.62.62,0,1,1,.39.79A.61.61,0,0,1,88.79,62.06Zm-1.68,1.81a.61.61,0,0,1-.78.38.62.62,0,0,1-.39-.78.62.62,0,1,1,1.17.4Zm1.41,2.84a.62.62,0,1,1-.39-.78A.61.61,0,0,1,88.52,66.71Zm1.41,2.85a.62.62,0,0,1-1.18-.4.62.62,0,0,1,1.18.4Zm-.59-4.29a.62.62,0,1,1,.78-.39A.61.61,0,0,1,89.34,65.27Zm2,7.14a.62.62,0,1,1-.39-.79A.61.61,0,0,1,91.33,72.41ZM91.22,67a.62.62,0,1,1,.39.79A.63.63,0,0,1,91.22,67Zm1.52,8.26a.62.62,0,1,1-1.17-.4.61.61,0,0,1,.78-.38A.62.62,0,0,1,92.74,75.25Zm-.13-3.84A.62.62,0,1,1,93.4,71,.61.61,0,0,1,92.61,71.41Zm1.53,6.69a.62.62,0,1,1-.39-.79A.61.61,0,0,1,94.14,78.1Zm-.28-9.34a.62.62,0,1,1,.39.78A.62.62,0,0,1,93.86,68.76ZM94.32,73a.62.62,0,1,1,1.17.4.62.62,0,1,1-1.17-.4Zm1.23,7.93a.62.62,0,1,1-1.17-.39.61.61,0,0,1,.78-.39A.62.62,0,0,1,95.55,80.94Zm-.2-13.63a.62.62,0,1,1,.78-.39A.61.61,0,0,1,95.35,67.31ZM97,83.79a.62.62,0,0,1-.78.39.62.62,0,1,1,.4-1.17A.61.61,0,0,1,97,83.79Zm.64-8a.62.62,0,0,1-.79.39A.62.62,0,1,1,97.2,75,.62.62,0,0,1,97.59,75.79Zm.09-4.87a.62.62,0,0,1-.79.38.62.62,0,0,1,.4-1.17A.63.63,0,0,1,97.68,70.92Zm-.35-13.07a.62.62,0,1,1,.39.78A.61.61,0,0,1,97.33,57.85ZM98,67.54a.62.62,0,1,1,.39.79A.61.61,0,0,1,98,67.54Zm1.71,10.64a.62.62,0,1,1-.39-.78A.61.61,0,0,1,99.68,78.18Zm.64-5.5a.62.62,0,1,1-.39-.79A.63.63,0,0,1,100.32,72.68Zm-.14-16.24a.62.62,0,0,1,1.17.4.62.62,0,1,1-1.17-.4Zm1.59,24.13a.62.62,0,0,1-1.17-.4.62.62,0,1,1,1.17.4ZM103,74.44a.62.62,0,1,1-1.17-.4.61.61,0,0,1,.78-.38A.62.62,0,0,1,103,74.44Zm.45-18.62a.62.62,0,1,1,.78-.39A.61.61,0,0,1,103.41,55.82ZM104,69.58a.62.62,0,0,1,.79-.38.62.62,0,0,1-.4,1.17A.63.63,0,0,1,104,69.58Zm1.62,6.62a.62.62,0,1,1-1.17-.39.61.61,0,0,1,.78-.39A.62.62,0,0,1,105.6,76.2Zm.52-11.1a.62.62,0,1,1-.39-.78A.61.61,0,0,1,106.12,65.1Zm.14-10.68a.62.62,0,1,1,.39-1.17A.61.61,0,0,1,107,54,.62.62,0,0,1,106.26,54.42ZM108.16,71a.62.62,0,1,1-.39-.78A.61.61,0,0,1,108.16,71Zm1.13-5.69a.62.62,0,1,1-.39-.78A.61.61,0,0,1,109.29,65.31Z"/><path class="cls-5" d="M79.06,91.15c1-2.77,2.09-5.63,2.22-8.05a19.34,19.34,0,0,0-.93-7.1,8,8,0,0,0-1.2-1.8,4.39,4.39,0,0,1-.71-1l0-.06-1.33-.49-.12.31h0l-.14.39-19-7,.14-.39h0l.12-.32-1.9-.7.09.24a25.8,25.8,0,0,0-3.79,1.69,18,18,0,0,0-4.76,4.85A24.21,24.21,0,0,0,45.3,77l-.16.43L41.47,87.87,38.3,96.76a43.43,43.43,0,0,0,4.77,7.56h0l2.06.8a1.73,1.73,0,0,0,2.27-1.05l.72-2.09a.34.34,0,0,1,.43-.2.33.33,0,0,1,.2.42l-.72,2.09a2.42,2.42,0,0,1-1.26,1.4,2.4,2.4,0,0,1-1.89,0l-1-.39L45,106.56l1.37.52a2.44,2.44,0,0,0,3.19-1.48l1-2.77a.35.35,0,0,1,.44-.21.35.35,0,0,1,.21.44l-1,2.77a3.15,3.15,0,0,1-1.64,1.81,3.26,3.26,0,0,1-.69.22l.45.16a.32.32,0,0,1,.19.4.31.31,0,0,1-.4.18l-.57-.21a.31.31,0,0,1-.18-.4s0-.06.08-.08l-.19,0a3,3,0,0,1-1.13-.22l-.07,0q.62.65,1.26,1.26l.22.09a3.17,3.17,0,0,0,4.11-1.9l1.24-3.46a.33.33,0,0,1,.44-.21.34.34,0,0,1,.21.44l-1.24,3.46a3.78,3.78,0,0,1-2,2.21,3.82,3.82,0,0,1-1.62.36l-.31,0c.5.45,1,.89,1.53,1.31a4,4,0,0,0,1.82-.33,3.84,3.84,0,0,0,2-2.22l1.5-4.15a.35.35,0,0,1,.45-.21.35.35,0,0,1,.22.45l-1.5,4.15A4.57,4.57,0,0,1,52,111.53a4.45,4.45,0,0,1-1.28.36l.22.17a.29.29,0,0,1,.29-.08l.58.21a.31.31,0,0,1,.18.4.33.33,0,0,1-.15.16l.57.39a4.48,4.48,0,0,0,1-.32,4.6,4.6,0,0,0,2.4-2.61l1.75-4.84a.37.37,0,0,1,.47-.22.36.36,0,0,1,.21.47l-1.75,4.83a5.27,5.27,0,0,1-2.77,3,4.71,4.71,0,0,1-.52.21c.58.39,1.17.76,1.77,1.12l.16,0a5.29,5.29,0,0,0,2.76-3l2-5.52a.37.37,0,1,1,.7.25l-2,5.52a6,6,0,0,1-2.86,3.27c.6.35,1.22.68,1.84,1a6,6,0,0,0,2.41-3l2.27-6.22a.38.38,0,0,1,.71.26l-2.27,6.22a6.78,6.78,0,0,1-2.33,3.12c.62.3,1.24.59,1.88.86A6.67,6.67,0,0,0,62,114.81l2.53-6.9a.38.38,0,1,1,.72.27l-2.52,6.9A7.57,7.57,0,0,1,61,117.85c.61.25,1.23.49,1.86.71a7.29,7.29,0,0,0,1.29-2.21l2.78-7.59a.39.39,0,1,1,.74.27l-2.78,7.59a8.36,8.36,0,0,1-1.23,2.21c.61.2,1.21.39,1.83.57a7.92,7.92,0,0,0,.74-1.52l3-8.28a.41.41,0,0,1,.52-.23.39.39,0,0,1,.23.51l-3,8.28a8.48,8.48,0,0,1-.69,1.46c.73.19,1.47.37,2.21.53l6.81-18.53ZM46.7,83.05a4.52,4.52,0,0,1,1.22-1.87,3.86,3.86,0,0,1,1.83-.91,3.82,3.82,0,0,1,2.12.2,3.72,3.72,0,0,1,1.7,1.18h0a3.51,3.51,0,0,1,.75,1.82A4.67,4.67,0,0,1,54,85.59a.68.68,0,0,1-.34.38.74.74,0,0,1-.51,0L47.8,84a2.93,2.93,0,0,0,0,1.06,2.66,2.66,0,0,0,.6,1.32,2.87,2.87,0,0,0,1.26.86,3,3,0,0,0,1,.19,2.5,2.5,0,0,0,.91-.13.72.72,0,0,1,.48,0,.65.65,0,0,1,.37.27.7.7,0,0,1,.06.54.56.56,0,0,1-.36.36,4.28,4.28,0,0,1-1.4.22h0a4.41,4.41,0,0,1-3.33-1.5,3.85,3.85,0,0,1-.87-1.91A4.31,4.31,0,0,1,46.7,83.05ZM41.05,99.87h0l.09-.22a.23.23,0,0,1,0-.2.29.29,0,0,1,.23-.2.3.3,0,0,1,.3,0,.32.32,0,0,1,.19.4l0,0h0l.65.23-.16.45h0l-.17.44-1.25-.46.16-.44Zm.69,1.2a.32.32,0,0,1,.42-.16l.67.3a.3.3,0,0,0,.26,0,.27.27,0,0,0,.16-.2l.21-.71a.32.32,0,0,1,.4-.21.31.31,0,0,1,.21.39l-.2.71a.93.93,0,0,1-.51.6.86.86,0,0,1-.39.09,1,1,0,0,1-.4-.09l-.67-.3A.32.32,0,0,1,41.74,101.07ZM46,102.74a1.65,1.65,0,0,1-.88,1,1.12,1.12,0,0,1-.31.1h0a.31.31,0,0,1-.21.58l-.58-.21a.32.32,0,0,1-.18-.4l0,0-.11,0-1.37-.55a.33.33,0,0,1,.25-.61l1.36.55a1.06,1.06,0,0,0,.82,0,1,1,0,0,0,.53-.61l.47-1.4a.33.33,0,0,1,.41-.21.34.34,0,0,1,.21.42Zm14.65-2.38L43.21,94l.33-.89,17.4,6.4ZM61.85,97l-17.4-6.4.32-.89,17.4,6.4Zm2.08-4.55a6,6,0,0,1-8-2.94,6,6,0,0,1,7.56-8.19l.65-1.73,1.53,3.3-.13.06-3.2,1.42L63,82.56a4.62,4.62,0,0,0-3.61.15A4.71,4.71,0,1,0,65.68,85a.66.66,0,0,1,0-.5.68.68,0,0,1,.34-.37.65.65,0,0,1,.87.32,6,6,0,0,1-2.94,8Zm9.86,4.72a.75.75,0,0,1-.29.06.67.67,0,0,1-.24,0,.69.69,0,0,1-.42-.89l1.31-3.57a2.74,2.74,0,0,0,.18-1.45,2.06,2.06,0,0,0-.54-1.07,2.89,2.89,0,0,0-1.1-.7,2.8,2.8,0,0,0-1.25-.18,2.21,2.21,0,0,0-1.06.37,1.8,1.8,0,0,0-.64.86l-1.49,4.05a.67.67,0,0,1-.89.41.72.72,0,0,1-.41-.35.67.67,0,0,1,0-.54l2.37-6.44a.66.66,0,0,1,.35-.41.69.69,0,0,1,1,.89l0,.15a4,4,0,0,1,.87-.24,3.88,3.88,0,0,1,1.83.21,4,4,0,0,1,1.64,1.09,3.26,3.26,0,0,1,.81,1.7,4.12,4.12,0,0,1-.26,2.14l-1.31,3.56A.64.64,0,0,1,73.79,97.18Z"/><path class="cls-5" d="M53,83.69a2.35,2.35,0,0,0-.47-1.23,2.5,2.5,0,0,0-1.13-.8A2.64,2.64,0,0,0,50,81.53a2.56,2.56,0,0,0-1.23.66,3,3,0,0,0-.53.68L53,84.61A2.88,2.88,0,0,0,53,83.69Z"/><path d="M44.72,77.22a27,27,0,0,1,2.6-5.81,18.31,18.31,0,0,1,4.88-5,19.81,19.81,0,0,1,3.38-1.55l-.26-.14a2.43,2.43,0,0,1-.28-.14A19.28,19.28,0,0,0,52,66.07a18.84,18.84,0,0,0-5,5.09,25.38,25.38,0,0,0-2.49,5.47L40.61,87.57l-2.85,8,.27.58c1-2.82,2-5.63,3-8.45Z"/><path d="M79.55,92.44l.36-1c1-2.84,2.13-5.76,2.27-8.32a20.36,20.36,0,0,0-1-7.45l0,0a8.48,8.48,0,0,0-1.34-2l-.14-.19-.53,0h-.09a12,12,0,0,1,1.69,2.46,19.65,19.65,0,0,1,1,7.29c-.15,2.77-1.45,6-2.61,9.15s-2.28,6.33-3.43,9.49l-6.78,18.48.45.08,6.76-18.4Z"/><path d="M45.14,77.38,45.3,77a24.21,24.21,0,0,1,2.39-5.28,18,18,0,0,1,4.76-4.85,25.8,25.8,0,0,1,3.79-1.69l-.09-.24-.24-.09-.07.12h0l-.05.08-.21-.1a19.81,19.81,0,0,0-3.38,1.55,18.31,18.31,0,0,0-4.88,5,27,27,0,0,0-2.6,5.81L41,87.72c-1,2.82-2,5.63-3,8.45l.27.59,3.17-8.89Z"/><path d="M79.12,92.28c1.16-3.15,2.46-6.38,2.61-9.15a19.65,19.65,0,0,0-1-7.29,12,12,0,0,0-1.69-2.46H79v0l-.61-.23,0,.06a4.39,4.39,0,0,0,.71,1,8,8,0,0,1,1.2,1.8,19.34,19.34,0,0,1,.93,7.1c-.13,2.42-1.19,5.28-2.22,8.05l-3.79,10.47-6.81,18.53.45.1,6.78-18.48Q77.42,97,79.12,92.28Z"/><path class="cls-6" d="M74.94,65.2l.41-1.11-1.12-.39-.39,1Z"/><path class="cls-6" d="M75.86,65.58l.43-1.17-.12,0-.25-.09-.42,1.15Z"/><path class="cls-6" d="M73.28,64.53l.38-1c-.77-.27-1.55-.55-2.32-.84l-.36,1Z"/><rect class="cls-6" x="75.96" y="60.33" width="0.16" height="1.83" transform="translate(-7.66 111.51) rotate(-69.83)"/><path class="cls-6" d="M64.19,60,64,59.88l-.12-.05L63.39,61l.37.12Z"/><path class="cls-6" d="M65.48,61.65l.37-1-1.1-.43-.41,1.11Z"/><path class="cls-6" d="M68.33,62.66l.35-1-2.26-.85-.37,1C66.81,62.1,67.57,62.38,68.33,62.66Z"/><path class="cls-6" d="M57.07,63.61l-.55-.23-.2-.08.18-.41.2.09.47.19.15-.71-.39-.17-.21-.08.18-.41.2.09.6.24s0,0,0,0a1.68,1.68,0,0,1,.6-1.62,1.84,1.84,0,0,1,.92-.4l.08-.22c.9.22,1.81.47,2.71.72l.82.26.45-1.23C61.84,59,60.41,58.44,59,57.84a20.66,20.66,0,0,0-1.12,2.75l-.07.21-.42-.14.07-.21a20.51,20.51,0,0,1,1.14-2.79l-.18-.07.17-.41.21.09c1.75.75,3.53,1.49,5.31,2.2s3.76,1.46,5.65,2.14h0l.42.16.33.12.07,0h0c1.89.7,3.8,1.38,5.7,2s3.64,1.2,5.47,1.76l.21.06-.13.43-.18-.06A20,20,0,0,1,80.74,69l-.08.21L80.25,69l.08-.21A20.72,20.72,0,0,0,81.26,66c-1.47-.46-2.94-.93-4.4-1.42l-.45,1.23.79.35c.84.38,1.69.78,2.53,1.19l-.09.22a1.88,1.88,0,0,1,.45.9,1.69,1.69,0,0,1-.59,1.63l0,0,.62.2.21.06-.13.43L80,70.75l-.89-.28-.29.66.91.29.21.06-.13.43-.21-.07-1-.3-.28.66.79.29h0l.8.08c.66-1.63,1.25-3.29,1.76-4.94A35.63,35.63,0,0,0,83.08,62a31.44,31.44,0,0,0,.33-4.49,14.57,14.57,0,0,0-.65-2.77c-.92-.35-1.87-.69-2.79-1L77.9,53l-3.7-1.39c-2.41-.9-4.72-1.77-7-2.6A22.18,22.18,0,0,0,63.41,54a21.11,21.11,0,0,0-1.06,2.26l2.41.88.1-.26a.32.32,0,0,1,.41-.19l2,.71a.3.3,0,0,1,.18.17.29.29,0,0,1,0,.24l-.1.27,7.43,2.73.1-.27A.31.31,0,0,1,75,60.4a.36.36,0,0,1,.25,0l2,.72a.32.32,0,0,1,.19.41l-.1.26,4.37,1.61-.16.41-4.66-1.71h0L76.5,62,61.78,56.56l.08-.21A22.91,22.91,0,0,1,63,53.83a22.47,22.47,0,0,1,3.7-5l-.49-.17a22,22,0,0,0-4.89,7.51l-.08.21-.41-.16.08-.21a20.41,20.41,0,0,1,1.16-2.51,22.1,22.1,0,0,1,3.68-5l-.43-.16a22.1,22.1,0,0,0-3.75,5,23,23,0,0,0-1.13,2.47l-.08.21L60,55.89l.09-.21a21.69,21.69,0,0,1,4.83-7.51l-.21-.07-.51.39a7.89,7.89,0,0,0-1.39,1.23,27,27,0,0,0-3,4.09,36.28,36.28,0,0,0-2.59,5.7c-.56,1.41-1.09,2.85-1.58,4.29l1.34.49Zm23.66-1.93-16.33-6,.15-.42,16.34,6Z"/><polygon class="cls-6" points="65.18 57.34 66.9 57.97 66.95 57.82 65.23 57.19 65.18 57.34"/><polygon points="55.84 64.92 55.84 64.92 55.91 64.8 55.91 64.8 55.84 64.92"/><path d="M54.82,64.4l-.24-.15.09-.27c.54-1.6,1.13-3.2,1.75-4.77a38.78,38.78,0,0,1,2.64-5.81,27.57,27.57,0,0,1,3.1-4.22,9.11,9.11,0,0,1,1.51-1.34c.23-.17.44-.33.66-.52l.15-.13.2.06c3.25,1.11,6.43,2.31,9.8,3.58l3.7,1.38,2.07.76c1,.35,2,.72,3,1.1l.15.06.06.15a16.65,16.65,0,0,1,.76,3.26,31.36,31.36,0,0,1-.34,4.59,37.47,37.47,0,0,1-1.43,5.73c-.56,1.78-1.2,3.57-1.92,5.31l-.1.25-.82-.08.09.1.8.08.12-.31c.72-1.75,1.36-3.54,1.92-5.32A38.79,38.79,0,0,0,84,62.15a33.39,33.39,0,0,0,.33-4.61,15.67,15.67,0,0,0-.76-3.29l-.07-.19L83.29,54c-1-.38-2-.75-3-1.1l-2.06-.76-3.7-1.38c-3.37-1.27-6.56-2.47-9.81-3.58l-.25-.08-.2.17a8.11,8.11,0,0,1-.65.51,9.33,9.33,0,0,0-1.52,1.36A27.72,27.72,0,0,0,59,53.35a38.33,38.33,0,0,0-2.65,5.82c-.62,1.57-1.21,3.18-1.75,4.78l-.12.34.31.19.27.14.12,0Z"/><path d="M55.58,64.9l.12-.05-.34-.17-.2-.1-.12,0a2.43,2.43,0,0,0,.28.14Z"/><path d="M79.08,73.38h.06l-.08,0Z"/><path d="M79.21,73.3l0,.09.53,0-.09-.1Z"/><path d="M55.58,64.9l.21.1.05-.08-.14-.07Z"/><path d="M79,73.35v0h.06l0,0Z"/><path d="M66.71,48.82l.07-.08-.49-.17-.07.08Z"/><path d="M65.76,48.49l.07-.08-.43-.15-.07.07Z"/><path d="M57.17,59.51a36.28,36.28,0,0,1,2.59-5.7,27,27,0,0,1,3-4.09,7.89,7.89,0,0,1,1.39-1.23l.51-.39.21.07a.46.46,0,0,1,.07-.07l-.3-.11-.54.42a8.15,8.15,0,0,0-1.41,1.25,26,26,0,0,0-3,4.1,36.78,36.78,0,0,0-2.6,5.71c-.56,1.41-1.09,2.85-1.58,4.29l.09,0C56.08,62.36,56.61,60.92,57.17,59.51Z"/><path d="M74.2,51.58,77.9,53l2.07.76c.92.33,1.87.67,2.79,1a14.57,14.57,0,0,1,.65,2.77A31.44,31.44,0,0,1,83.08,62a35.63,35.63,0,0,1-1.41,5.61c-.51,1.65-1.1,3.31-1.76,4.94l-.8-.08h0l.31.12.56,0c.66-1.65,1.27-3.34,1.79-5A36.74,36.74,0,0,0,83.18,62a33.16,33.16,0,0,0,.32-4.5,14.25,14.25,0,0,0-.66-2.84c-.94-.36-1.9-.71-2.83-1l-2.08-.76-3.7-1.39c-2.39-.9-4.69-1.76-7-2.59l-.07.08C69.48,49.81,71.79,50.68,74.2,51.58Z"/><path d="M55.05,64.48l.11-.31a.55.55,0,0,1-.15-.08c.42-1.26,1-2.88,1.74-4.75a37.06,37.06,0,0,1,2.62-5.76,27.44,27.44,0,0,1,3.05-4.16,15.61,15.61,0,0,1,2.14-1.83l.64.22,0,0,.16-.16.31.32,0,0,.43.15,0,0,.16-.15.31.31,0,0,.49.17,0,0,.16-.16.31.32,0,0c3.48,1.25,7,2.59,10.55,3.92,1.7.63,3.4,1.22,5.07,1.86a16.07,16.07,0,0,1,.73,3.12,32.35,32.35,0,0,1-.33,4.55,36.73,36.73,0,0,1-1.42,5.67c-.44,1.4-1,3.2-1.9,5.29L79.35,73c.07.12.16.24.26.38l.82.08.1-.25c.72-1.74,1.36-3.53,1.92-5.31a37.47,37.47,0,0,0,1.43-5.73,31.36,31.36,0,0,0,.34-4.59,16.65,16.65,0,0,0-.76-3.26l-.06-.15-.15-.06c-1-.38-2-.75-3-1.1l-2.07-.76-3.7-1.38c-3.37-1.27-6.55-2.47-9.8-3.58l-.2-.06-.15.13c-.22.19-.43.35-.66.52a9.11,9.11,0,0,0-1.51,1.34,27.57,27.57,0,0,0-3.1,4.22,38.78,38.78,0,0,0-2.64,5.81c-.62,1.57-1.21,3.17-1.75,4.77l-.09.27.24.15.34.18.07,0Z"/><path d="M79.34,73l0,.06h0l-.11.29.4,0c-.1-.14-.19-.26-.26-.38Z"/><path d="M55.23,64.55l-.07,0,.2.1.34.17.17-.06Z"/><path d="M55.87,64.79l-.17.06.14.07.07-.12Z"/><path d="M65.4,48.26l.43.15.27-.28L65.67,48l-.11.1Z"/><path d="M66.29,48.57l.49.17c.09-.09.17-.19.27-.28l-.49-.17-.12.12C66.39,48.46,66.35,48.52,66.29,48.57Z"/><path d="M67.24,48.9c2.3.83,4.6,1.69,7,2.59l3.7,1.39,2.08.76c.93.33,1.89.68,2.83,1a14.25,14.25,0,0,1,.66,2.84,33.16,33.16,0,0,1-.32,4.5,36.74,36.74,0,0,1-1.41,5.63c-.52,1.67-1.13,3.36-1.79,5l-.56,0h0l-.12.32v0l.86.08c.85-2.09,1.46-3.89,1.9-5.29a36.73,36.73,0,0,0,1.42-5.67,32.35,32.35,0,0,0,.33-4.55,16.07,16.07,0,0,0-.73-3.12c-1.67-.64-3.37-1.23-5.07-1.86-3.57-1.33-7.07-2.67-10.55-3.92l-.13.12Z"/><path d="M55.5,63.76c.49-1.44,1-2.88,1.58-4.29a36.78,36.78,0,0,1,2.6-5.71,26,26,0,0,1,3-4.1,8.15,8.15,0,0,1,1.41-1.25l.54-.42.3.11.26-.29-.64-.22a15.61,15.61,0,0,0-2.14,1.83,27.44,27.44,0,0,0-3.05,4.16,37.06,37.06,0,0,0-2.62,5.76C56,61.21,55.43,62.83,55,64.09a.55.55,0,0,0,.15.08l.18-.47Z"/><path d="M79.34,73h0v0Z"/><polygon points="56.05 64.63 56.08 64.71 56.08 64.71 78.36 72.68 78.37 72.68 56.05 64.63"/><polygon points="78.36 72.68 56.08 64.71 56.08 64.71 56.15 64.89 58.05 65.59 58.08 65.52 77.11 72.55 77.08 72.63 78.41 73.12 78.23 72.72 78.36 72.68"/><path d="M79.05,73.08v-.15l-.21.07a3.49,3.49,0,0,0,.18.31v0h0Z"/><path d="M56,64.62h0l-.08.14.15-.06,0-.08Z"/><rect x="78.71" y="72.43" height="0.74" transform="translate(-18.73 28.06) rotate(-18.1)"/><polygon points="79.17 73.4 79.17 73.39 79.14 73.39 79.17 73.4"/><path d="M78.85,73l.21-.07h0l-.7-.25-.13,0,.18.4.61.23v0A3.49,3.49,0,0,1,78.85,73Z"/><path d="M55.93,64.77l0,0,.24.09-.07-.18Z"/><polygon points="56.13 64.44 56.04 64.59 56.05 64.63 78.37 72.68 78.39 72.67 56.13 64.44"/><path d="M79.06,72.91h0l0-.41-.79-.29,0,0c-3.51-1.16-7.12-2.41-10.8-3.76s-7.19-2.71-10.59-4.09l0-.09-1.34-.49,0,.07.15.07.55.29-.13.21,22.26,8.23.54-.17Z"/><polygon points="79.06 72.91 78.93 72.5 78.39 72.67 79.06 72.92 79.07 72.9 79.06 72.91"/><polygon points="56.02 64.62 56.02 64.62 56.05 64.63 56.04 64.59 56.02 64.62"/><polygon points="78.39 72.67 78.37 72.68 79.06 72.93 79.06 72.92 78.39 72.67"/><polygon points="55.93 64.77 55.93 64.77 56.01 64.63 55.93 64.77"/><polygon points="79.03 73.28 79.03 73.28 79.05 73.08 79.03 73.28"/><polygon points="55.93 64.77 55.91 64.8 55.91 64.8 55.93 64.77 55.93 64.77"/><polygon points="79.06 72.93 79.06 72.93 79.05 73.08 79.06 72.93"/><path d="M79,73.28v0l0,0,.08,0h0l0-.09Z"/><polygon points="56.01 64.63 56.02 64.62 56.02 64.62 56.01 64.63"/><rect x="79.06" y="72.93"/><path d="M79,73.31v0h0Z"/><polygon points="79.07 72.9 79.07 72.9 79.1 72.57 79.42 72.61 79.11 72.49 79.07 72.9"/><path d="M56.26,64.23l-.55-.29-.15-.07,0-.07-.09,0-.06.16.22.11a5.75,5.75,0,0,1,.55.28l-.08.13h0Z"/><rect x="56" y="64.52" width="0.18" transform="translate(-28.11 79.31) rotate(-58.96)"/><rect x="79.07" y="72.9" height="0.02"/><rect x="79.06" y="72.92" width="0.01" transform="matrix(0.1, -0.99, 0.99, 0.1, -1.4, 144.29)"/><rect x="56.02" y="64.6" width="0.03" transform="translate(-28.19 79.41) rotate(-59.04)"/><path d="M55.16,64.17l-.11.31.18.07.38-.15C55.47,64.34,55.32,64.25,55.16,64.17Z"/><polygon points="79.32 73.01 79.34 72.95 79.11 72.93 79.32 73.01"/><path d="M56,64.62l-.41-.22-.38.15.64.24.06,0,.08-.14Z"/><polygon points="79.06 72.93 79.06 72.93 79.06 72.93 79.06 72.93"/><polygon points="79.11 72.93 79.06 72.93 79.06 72.93 79.05 73.08 79.03 73.28 79.21 73.3 79.32 73.01 79.11 72.93"/><path d="M55.91,64.8l0,0-.06,0Z"/><polygon points="79.06 72.93 79.06 72.93 79.06 72.93 79.06 72.93"/><path d="M55.82,64.33l-.63-.24.63.24.1,0,0,.09.17.06.08-.13a5.75,5.75,0,0,0-.55-.28l-.22-.11.06-.16-.16-.06-.18.47c.16.08.31.17.45.23Z"/><polygon points="56.13 64.44 55.96 64.38 56.04 64.59 56.13 64.44"/><path d="M79.07,72.9l.19-.09.08.13.12-.32h0l-.32,0Z"/><path d="M55.92,64.29l-.1,0,.14,0Z"/><polygon points="79.06 72.93 79.06 72.93 79.11 72.93 79.06 72.92 79.06 72.93"/><path d="M79.26,72.81l-.19.09v0h0l.23,0h0Z"/><path d="M56,64.38l-.14,0-.21.07.41.22,0,0Z"/><rect x="67.17" y="59.47" width="0.42" height="20.29" transform="translate(-21.28 108.69) rotate(-69.72)"/><rect x="67.34" y="59.12" width="0.33" height="20.29" transform="translate(-20.86 108.58) rotate(-69.72)"/><rect x="67.54" y="58.93" width="0.08" height="20.29" transform="translate(-20.64 108.51) rotate(-69.71)"/><path class="cls-7" d="M67.67,67.32h0l.13.05.19.07.52.19h0c1.89.7,3.8,1.38,5.7,2,1.51.51,3.05,1,4.57,1.47l.29-.66C77.53,70,76,69.5,74.47,69c-1.93-.65-3.86-1.34-5.77-2l-.15,0-.21-.08-.22-.08L68,66.67c-1.91-.69-3.83-1.42-5.72-2.17-1.65-.66-3.3-1.34-4.93-2l-.15.71c1.6.68,3.23,1.36,4.84,2C63.88,65.92,65.78,66.64,67.67,67.32Z"/><path class="cls-7" d="M74.07,70.08c-1.91-.65-3.83-1.33-5.73-2L68.15,68l-.26-.1-.17-.06-.12,0c-1.92-.69-3.85-1.42-5.75-2.18-1.59-.63-3.2-1.3-4.78-2l-.14.68L78.32,72.2l.28-.66C77.09,71.06,75.57,70.58,74.07,70.08Z"/><path class="cls-7" d="M56.91,64.38Q62,66.45,67.5,68.47c3.68,1.35,7.29,2.6,10.8,3.76l0,0L56.93,64.29Z"/><path class="cls-7" d="M75.25,66.55c-1.08-.34-3.44-1.17-5.82-2l-.72,2,.17.06h0c1.89.7,3.8,1.38,5.7,2,1.61.54,3.24,1.06,4.86,1.56l0,0a1.69,1.69,0,0,0,.59-1.63,1.88,1.88,0,0,0-.45-.9l-.07.2C78.13,67.41,76.67,67,75.25,66.55Z"/><path d="M81.26,66a20.72,20.72,0,0,1-.93,2.82l-.08.21.41.17.08-.21a20,20,0,0,0,.94-2.86h0Z"/><path class="cls-7" d="M68.07,66.23h0l.09,0,.11,0,.72-2c-2.38-.87-4.71-1.76-5.76-2.2-1.37-.58-2.74-1.21-4.09-1.86l.07-.2a1.84,1.84,0,0,0-.92.4,1.68,1.68,0,0,0-.6,1.62s0,0,0,0c1.56.67,3.14,1.33,4.71,2Q65.22,65.2,68.07,66.23Z"/><path class="cls-7" d="M68.71,66.47l.72-2L69,64.34l-.72,2,.18.06Z"/><path d="M58.6,57.66a20.51,20.51,0,0,0-1.14,2.79l-.07.21.42.14.07-.21A20.66,20.66,0,0,1,59,57.84l-.38-.17Z"/><path class="cls-5" d="M61.35,63.83l-3.5-1.38a1.06,1.06,0,0,1-.15-.32l-.6-.24-.2-.09-.18.41.21.08.39.17,0-.09Z"/><path class="cls-5" d="M68,66.67l-.06,0,.08-.22-6.64-2.6-4-1.46,0,.09c1.63.7,3.28,1.38,4.93,2C64.14,65.25,66.06,66,68,66.67Z"/><path class="cls-5" d="M68.55,66.89l.15,0-.36-.13Z"/><path class="cls-5" d="M68.91,66.54h0Z"/><path class="cls-5" d="M61.35,63.83l6.71,2.43v0q-2.85-1-5.66-2.14c-1.57-.63-3.15-1.29-4.71-2a1.06,1.06,0,0,0,.15.32Z"/><path class="cls-5" d="M68.27,66.31l-.11,0,.11,0Z"/><path class="cls-5" d="M61.35,63.83,68,66.43l.07-.17Z"/><path class="cls-5" d="M68.27,66.31l.18.06-.18-.06Z"/><path d="M71.22,62.4a.2.2,0,0,1,.12.26h0c.77.29,1.55.57,2.32.84l0-.09a.09.09,0,0,1,.11-.06l.4.15a.1.1,0,0,1,.05.12l0,.08,1.12.39,0-.06a.09.09,0,0,1,.12-.06l.39.15a.08.08,0,0,1,.06.11l0,0,.25.09.12,0,0-.1a.09.09,0,0,1,.12-.06l.4.15a.09.09,0,0,1,0,.11l0,.08c1.46.49,2.93,1,4.4,1.42,0,0,0,0,0-.06l.06-.22.43.11-.06.21a.29.29,0,0,1,0,.09l.18.06.13-.43-.21-.06C80,65.15,78.11,64.56,76.31,64s-3.81-1.33-5.7-2l-.08.23Z"/><path d="M70.54,61.9l-.33-.12.19.07Z"/><path d="M69.76,61.61Z"/><path d="M81.76,65.84l-.43-.11-.06.22s0,0,0,.06l.39.12h0a.29.29,0,0,0,0-.09Z"/><path d="M63.42,59.47l.39.14a.1.1,0,0,1,.06.12l0,.1.12.05.24.09,0,0a.09.09,0,0,1,.11-.05l.4.14a.1.1,0,0,1,0,.12l0,.06,1.1.43,0-.08a.09.09,0,0,1,.12,0l.4.14a.1.1,0,0,1,0,.12l0,.09,2.26.85h0a.22.22,0,0,1,.26-.12l.74.28.08-.23c-1.89-.68-3.79-1.4-5.65-2.14S60.55,58,58.8,57.27l-.21-.09-.17.41.18.07,0-.08.1-.2.4.2-.1.2,0,.06c1.41.6,2.84,1.19,4.27,1.77l0-.09A.09.09,0,0,1,63.42,59.47Z"/><path d="M70.61,61.92l-.07,0,.07,0Z"/><path d="M70.21,61.78l-.42-.16.18.07Z"/><path d="M59.13,57.58l-.4-.2-.1.2,0,.08h0l.38.17,0-.06Z"/><path d="M70.53,62.15l.08-.23-.07,0-.14,0-.19-.07L70,61.69l-.18-.07h0l-.08.23Z"/><path d="M77,62.11l-.11,0L81.5,63.8l.16-.41-4.37-1.61,0,.12A.32.32,0,0,1,77,62.11Z"/><path d="M61.86,56.35l-.08.21L76.5,62l-1.61-.6A.31.31,0,0,1,74.7,61l0-.11-7.43-2.73,0,.12a.33.33,0,0,1-.17.18.28.28,0,0,1-.13,0l-.11,0-2-.72a.32.32,0,0,1-.19-.41l0-.12-2.41-.88A21.11,21.11,0,0,1,63.41,54,22.18,22.18,0,0,1,67.17,49l-.46-.16a22.47,22.47,0,0,0-3.7,5A22.91,22.91,0,0,0,61.86,56.35Z"/><path d="M67.17,49l.07-.08-.46-.16-.07.08Z"/><path d="M67.54,48.6l-.31-.32-.16.16,0,0,.46.17Z"/><path d="M67.24,48.9l.14-.15.13-.12-.46-.17c-.1.09-.18.19-.27.28Z"/><path d="M60.92,56l-.08.21.41.16.08-.21a22,22,0,0,1,4.89-7.51l-.46-.16a22.1,22.1,0,0,0-3.68,5A20.41,20.41,0,0,0,60.92,56Z"/><path d="M66.22,48.65l.07-.08-.46-.16-.07.08Z"/><path d="M66.6,48.25l-.31-.31-.16.15,0,0,.46.16Z"/><path d="M66.29,48.57c.06,0,.1-.11.15-.16l.12-.12-.46-.16-.27.28Z"/><rect x="72.42" y="49.77" width="0.45" height="17.4" transform="translate(-7.28 106.5) rotate(-69.83)"/><path d="M60,55.68l-.09.21.42.16.08-.21a23,23,0,0,1,1.13-2.47,22.1,22.1,0,0,1,3.75-5l-.46-.16A21.69,21.69,0,0,0,60,55.68Z"/><path d="M65.33,48.33l.07-.07-.46-.16a.46.46,0,0,0-.07.07Z"/><path d="M65.72,47.93l-.31-.32-.16.16,0,0,.47.17Z"/><path d="M65.4,48.26l.16-.18.11-.1-.47-.17-.26.29Z"/><path d="M77.39,61.52a.32.32,0,0,0-.19-.41l-2-.72a.36.36,0,0,0-.25,0,.31.31,0,0,0-.16.18l-.1.27,2.55.93ZM75,60.66h0Zm1.83,1L75.16,61l0-.15,1.72.63Z"/><polygon points="76.84 62.09 76.84 62.09 76.5 61.97 76.84 62.09"/><path d="M74.89,61.37l1.61.6.34.12.11,0a.32.32,0,0,0,.3-.21l0-.12-2.55-.93,0,.11A.31.31,0,0,0,74.89,61.37Z"/><path d="M67.41,57.85a.29.29,0,0,0,0-.24.3.3,0,0,0-.18-.17l-2-.71a.32.32,0,0,0-.41.19l-.1.26,2.55.94ZM66.9,58l-1.72-.64,0-.14,1.72.63Zm.17-.11Z"/><path d="M64.91,57.71l2,.72.11,0a.28.28,0,0,0,.13,0,.33.33,0,0,0,.17-.18l0-.12-2.55-.94,0,.12A.32.32,0,0,0,64.91,57.71Z"/><path class="cls-8" d="M79.07,70.47l.89.28.21.07.13-.43-.21-.06-.62-.2a2.14,2.14,0,0,1-.32.15Z"/><path class="cls-8" d="M68.12,66.73l.22.08L68,66.67Z"/><path class="cls-8" d="M68.84,66.74l-.08.22-.06,0c1.91.71,3.84,1.4,5.77,2,1.52.51,3.06,1,4.6,1.48l.08-.19Z"/><path class="cls-8" d="M68.88,66.53l-.17-.06h0Z"/><path class="cls-8" d="M68.91,66.54v0l10.24,3.71a2.14,2.14,0,0,0,.32-.15c-1.62-.5-3.25-1-4.86-1.56C72.71,67.92,70.8,67.24,68.91,66.54Z"/><path class="cls-8" d="M79.15,70.28,68.91,66.57l-.07.17Z"/><path class="cls-8" d="M68.07,66.23h0l.09,0Z"/><path class="cls-8" d="M68.71,66.47h0l-.26-.1Z"/><path class="cls-8" d="M68.84,66.74l-.21-.07h0l-.22-.09-.21-.07h0L68,66.43l-.08.22.06,0,.37.14.36.13.06,0Z"/><path class="cls-8" d="M68.7,66.49l.21.08v0h0l-.17-.06Z"/><path class="cls-8" d="M68.63,66.67l.21.07.07-.17-.21-.08Z"/><path class="cls-8" d="M68.2,66.52l.21.07-.21-.08Z"/><path class="cls-8" d="M68.27,66.31l-.11,0-.09,0v0l.2.07Z"/><path class="cls-8" d="M68.26,66.33l-.2-.07-.07.17.21.08Z"/><path class="cls-8" d="M68.63,66.68h0l-.22-.08Z"/><path class="cls-8" d="M68.71,66.47h0l-.26-.1-.18-.06h0v0l.44.16Z"/><path class="cls-8" d="M68.26,66.33l-.06.18.21.08.22.08.07-.18Z"/><path d="M76.14,66.29l-.39-.14a.09.09,0,0,1-.06-.12v0l-.35-.15,0,.11a.1.1,0,0,1-.12.05l-.39-.14a.09.09,0,0,1-.06-.12l.05-.13-1.1-.45-.06.17a.09.09,0,0,1-.12,0l-.39-.14a.1.1,0,0,1-.06-.12l.07-.18-2.3-.9,0,.13a.19.19,0,0,1-.25.12l-2.29-.84a.2.2,0,0,1-.11-.26l0-.13c-.75-.27-1.51-.56-2.28-.81l-.07.21a.09.09,0,0,1-.12.05l-.39-.14a.09.09,0,0,1-.06-.12l.07-.19-1.13-.35,0,.13a.09.09,0,0,1-.12.06l-.39-.15a.09.09,0,0,1-.06-.11l0-.1-.37-.12v0a.09.09,0,0,1-.11.06l-.4-.15a.09.09,0,0,1,0-.11c-.27-.07-.53-.16-.79-.24l-.31-.09c.61.28,1.22.55,1.84.81,2.14.9,9.75,3.7,12,4.4.64.2,1.28.39,1.93.57l-.3-.13-.75-.33A.1.1,0,0,1,76.14,66.29Z"/><path class="cls-8" d="M68.26,62.85l.07-.19c-.76-.28-1.52-.56-2.28-.82l-.08.21C66.75,62.31,67.51,62.58,68.26,62.85Z"/><path class="cls-8" d="M77.1,66.37c.87.39,1.71.79,2.53,1.19v0l.09-.22c-.84-.41-1.69-.81-2.53-1.19l-.79-.35-.08.21Z"/><path class="cls-8" d="M65.4,61.86l.08-.21-1.14-.35-.07.2Z"/><path class="cls-8" d="M75.42,65.64l.36.15.08-.21-.36-.15Z"/><path class="cls-8" d="M64.27,62.33c1.21.49,2.38.93,3.53,1.33-1.52-.56-2.91-1.09-3.85-1.47Z"/><path class="cls-8" d="M77.26,66.92l-.77-.23Z"/><path class="cls-8" d="M62.19,61.44l-.72-.32Z"/><path class="cls-8" d="M61.94,60.8c.27.07.53.16.8.24l.08-.2L62,60.58c-.9-.25-1.81-.5-2.71-.72l-.08.22h0Q60.56,60.41,61.94,60.8Z"/><path class="cls-8" d="M74.87,65.41l.07-.21-1.1-.45-.07.21Z"/><path class="cls-8" d="M73.21,64.74l.07-.21-2.3-.9-.07.21Z"/><path class="cls-8" d="M74.33,66l.34.11c-1-.33-2.37-.82-3.89-1.37C71.92,65.19,73.09,65.62,74.33,66Z"/><path class="cls-8" d="M63.76,61.13,63.39,61l-.07.2.37.11Z"/><path class="cls-8" d="M77.26,66.92l-.77-.23-1.18-.35-.64-.21L74.33,66c-1.24-.4-2.41-.83-3.55-1.26l-1.27-.47-.08.21c2.38.88,4.74,1.71,5.82,2,1.42.45,2.88.86,4.32,1.23l.07-.2v0C78.85,67.37,78.06,67.15,77.26,66.92Z"/><path class="cls-8" d="M63.23,62.14c1.05.44,3.38,1.33,5.76,2.2l.08-.21-1.27-.47c-1.15-.4-2.32-.84-3.53-1.33L64,62.19l-.63-.26-1.13-.49-.72-.32c-.77-.35-1.51-.69-2.23-1h0l-.07.2C60.49,60.93,61.86,61.56,63.23,62.14Z"/><path class="cls-8" d="M69.51,64.29l-.44-.16-.08.21.44.16Z"/><path class="cls-8" d="M73.77,65l-.08.21,1.1.45.08-.21Z"/><path class="cls-8" d="M66,62.05l-.08.21c.77.25,1.53.54,2.28.81l.09-.22C67.51,62.58,66.75,62.31,66,62.05Z"/><path class="cls-8" d="M64.27,61.5l-.08.22,1.13.35.08-.21Z"/><path class="cls-8" d="M69.08,64.1l.22.09.22.07h0l1.27.49c1.52.55,2.92,1,3.89,1.37.61.2,1.22.38,1.82.56l.77.23c.8.23,1.6.45,2.37.64-.82-.4-1.66-.8-2.53-1.19L76.33,66l-.07.21h0l.75.33.3.13c-.65-.18-1.29-.37-1.93-.57-2.22-.7-9.83-3.5-12-4.4-.62-.26-1.23-.53-1.84-.81l.31.09c.26.08.52.17.79.24h0l.07-.2c-.27-.08-.53-.17-.8-.24q-1.38-.39-2.7-.72l2.23,1,.72.32,1.76.75c.94.38,2.33.91,3.85,1.47l1.28.45Z"/><path class="cls-8" d="M70.91,63.84l-.08.21,2.3.9.08-.21Z"/><path class="cls-8" d="M63.61,61.55l.08-.23-.37-.11-.08.22Z"/><path class="cls-8" d="M75.35,65.85l.35.15.08-.21-.36-.15Z"/><path class="cls-8" d="M69.08,64.11l.22.08-.22-.09Z"/><path class="cls-8" d="M79.63,67.56c-.77-.19-1.57-.41-2.37-.64C78.06,67.15,78.85,67.37,79.63,67.56Z"/><path class="cls-8" d="M75.31,66.34l1.18.35c-.6-.18-1.21-.36-1.82-.56Z"/><path class="cls-8" d="M69.51,64.29l1.27.47-1.27-.49Z"/><path class="cls-8" d="M67.8,63.66l1.27.47v0Z"/><path class="cls-8" d="M61.47,61.12l-2.23-1C60,60.43,60.7,60.77,61.47,61.12Z"/><path class="cls-8" d="M63.32,61.93l.63.26-1.76-.75Z"/><path class="cls-8" d="M69.3,64.19l.21.08h0Z"/><path class="cls-8" d="M69.51,64.27l-.21-.08-.22-.08v0l.44.16Z"/><path d="M75.86,65.58l.55.24.45-1.23-.57-.18Z"/><path d="M76.84,64.4l-.4-.15a.09.09,0,0,0-.12.06l0,.1.57.18,0-.08A.09.09,0,0,0,76.84,64.4Z"/><path d="M75.69,66a.09.09,0,0,0,.06.12l.39.14a.1.1,0,0,0,.12-.05L75.7,66Z"/><path d="M75.78,65.79l.55.24.08-.21-.55-.24Z"/><path d="M76.26,66.24h0l.07-.21-.55-.24L75.7,66Z"/><path d="M75.5,65.43l.42-1.15-.57-.19-.41,1.11Z"/><path d="M75.94,64.23a.08.08,0,0,0-.06-.11L75.49,64a.09.09,0,0,0-.12.06l0,.06.57.19Z"/><path d="M74.74,65.75a.09.09,0,0,0,.06.12l.39.14a.1.1,0,0,0,.12-.05l0-.11-.56-.23Z"/><path d="M75.42,65.64l.08-.21-.56-.23-.07.21Z"/><path d="M74.79,65.62l.56.23.07-.21-.55-.23Z"/><path d="M73.84,64.75l.39-1-.57-.2-.38,1Z"/><path d="M74.26,63.62a.1.1,0,0,0-.05-.12l-.4-.15a.09.09,0,0,0-.11.06l0,.09.57.2Z"/><path d="M73.06,65.13a.1.1,0,0,0,.06.12l.39.14a.09.09,0,0,0,.12,0l.06-.17L73.13,65Z"/><path d="M73.77,65l.07-.21-.56-.22-.07.21Z"/><path d="M73.21,64.74l-.08.21.56.22.08-.21Z"/><path d="M63.83,59.83l-.56-.22-.45,1.23.57.17Z"/><path d="M63.87,59.73a.1.1,0,0,0-.06-.12l-.39-.14a.09.09,0,0,0-.12.05l0,.09.56.22Z"/><path d="M62.72,61.36l.4.15a.09.09,0,0,0,.11-.06v0l-.57-.18A.09.09,0,0,0,62.72,61.36Z"/><path d="M63.32,61.21l.07-.2-.57-.17-.08.2Z"/><path d="M62.67,61.25l.57.18.08-.22L62.74,61l-.07.2Z"/><path d="M64.34,61.3l.41-1.11L64.19,60l-.43,1.16Z"/><path d="M64.77,60.13a.1.1,0,0,0,0-.12l-.4-.14a.09.09,0,0,0-.11.05l0,0,.56.22Z"/><path d="M63.63,61.76l.39.15a.09.09,0,0,0,.12-.06l0-.13-.58-.17,0,.1A.09.09,0,0,0,63.63,61.76Z"/><path d="M64.34,61.3l-.58-.17-.07.19.58.18Z"/><path d="M64.27,61.5l-.58-.18-.08.23.58.17Z"/><path d="M66.05,61.84l.37-1-.57-.22-.37,1Z"/><path d="M66.45,60.75a.1.1,0,0,0,0-.12l-.4-.14a.09.09,0,0,0-.12,0l0,.08.57.22Z"/><path d="M65.25,62.26a.09.09,0,0,0,.06.12l.39.14a.09.09,0,0,0,.12-.05l.07-.21-.57-.19Z"/><path d="M66,62.05l.08-.21-.57-.19-.08.21Z"/><path d="M65.4,61.86l-.08.21.57.19.08-.21Z"/><path d="M69.69,63.14l1.29.49.36-1-1-.35-.13,0-.17-.07-.27-.09L69.64,62l-1-.35-.35,1C68.78,62.82,69.24,63,69.69,63.14Z"/><path d="M70.38,62.31l1,.35h0a.2.2,0,0,0-.12-.26l-.69-.25-.07.19Z"/><path d="M69.81,62.11l.27.09L69.64,62Z"/><path d="M69.61,62l.07-.19-.74-.28a.22.22,0,0,0-.26.12h0l1,.35Z"/><path d="M70.25,62.27l.13,0-.3-.11Z"/><path d="M69.64,62l.44.16.3.11.08,0,.07-.19-.85-.31-.07.19Z"/><path d="M68.17,63.07l0,.13a.2.2,0,0,0,.11.26l2.29.84a.19.19,0,0,0,.25-.12l0-.13-1.27-.48C69.1,63.39,68.64,63.24,68.17,63.07Z"/><path d="M69.61,63.35l1.3.49.07-.21-1.29-.49c-.45-.17-.91-.32-1.36-.48l-.07.19Z"/><path d="M69.61,63.35l-1.35-.5-.09.22c.47.17.93.32,1.39.5l1.27.48.08-.21Z"/><path class="cls-8" d="M79.56,71.84l.21.07.13-.43-.21-.06-.91-.29-.18.41Z"/><path class="cls-8" d="M67.72,67.82l.17.06-.29-.11Z"/><path class="cls-8" d="M67.67,67.32h0l.13.05Z"/><path class="cls-8" d="M68.51,67.63,68,67.44l.32.12Z"/><path class="cls-8" d="M68.51,67.63l-.15.42h0c1.9.71,3.82,1.39,5.73,2,1.5.5,3,1,4.53,1.46l.18-.41c-1.52-.48-3.06-1-4.57-1.47C72.31,69,70.4,68.33,68.51,67.63Z"/><path class="cls-5" d="M56.7,63l-.2-.09-.18.41.2.08.55.23.1-.44Z"/><polygon class="cls-5" points="68.52 67.63 68.51 67.63 68.52 67.63 68.52 67.63"/><path class="cls-5" d="M68.15,68l.19.06-.45-.16Z"/><path class="cls-5" d="M68,67.44l-.19-.07.07,0Z"/><path class="cls-5" d="M67.6,67.77l-.09,0,.16-.42c-1.89-.68-3.79-1.4-5.66-2.14-1.61-.65-3.24-1.33-4.84-2l-.1.44c1.58.68,3.19,1.35,4.78,2C63.75,66.35,65.68,67.08,67.6,67.77Z"/><path class="cls-5" d="M68.51,67.63h0l-.2-.07L68,67.44l-.12,0-.07,0-.13-.05-.16.42.09,0,.29.11.45.16h0Z"/><path d="M107.77,70.22a.62.62,0,1,0,.39.78A.61.61,0,0,0,107.77,70.22Z"/><path d="M105.15,70a.61.61,0,0,0-.38-.78.62.62,0,1,0,.38.78Z"/><path d="M101.76,68.18a.61.61,0,0,0-.78.38.62.62,0,1,0,.78-.38Z"/><path d="M99.14,67.94a.62.62,0,0,0-1.17-.4.62.62,0,0,0,.39.79A.61.61,0,0,0,99.14,67.94Z"/><path d="M96.13,66.92a.62.62,0,1,0-.78.39A.61.61,0,0,0,96.13,66.92Z"/><path d="M89.73,64.1a.62.62,0,1,0,.39.78A.61.61,0,0,0,89.73,64.1Z"/><path d="M86.73,63.08a.63.63,0,0,0-.79.39.62.62,0,0,0,.39.78.61.61,0,0,0,.78-.38A.62.62,0,0,0,86.73,63.08Z"/><path d="M108.9,64.53a.62.62,0,1,0,.39.78A.61.61,0,0,0,108.9,64.53Z"/><path d="M105.73,64.32a.62.62,0,1,0,.39.78A.61.61,0,0,0,105.73,64.32Z"/><path d="M101.78,64.5a.62.62,0,1,0,.79-.39A.63.63,0,0,0,101.78,64.5Z"/><path d="M98.61,64.29a.63.63,0,0,0,.39.79.63.63,0,0,0,.79-.39.62.62,0,0,0-1.18-.4Z"/><path d="M96.23,63.7a.62.62,0,0,0-.4,1.17.62.62,0,1,0,.4-1.17Z"/><path d="M92.28,63.88a.62.62,0,1,0,.78-.39A.62.62,0,0,0,92.28,63.88Z"/><path d="M108.12,59.91a.63.63,0,0,0,.79-.39.62.62,0,1,0-.79.39Z"/><path d="M105,60.53a.62.62,0,0,0,.4-1.17.62.62,0,1,0-.4,1.17Z"/><path d="M101.9,61.15a.62.62,0,1,0-.39-.78A.61.61,0,0,0,101.9,61.15Z"/><path d="M98.4,61a.62.62,0,1,0,.78-.39A.61.61,0,0,0,98.4,61Z"/><path d="M95.28,61.61a.62.62,0,0,0,.39.78.62.62,0,0,0,.4-1.17A.62.62,0,0,0,95.28,61.61Z"/><path d="M106.65,53.25A.62.62,0,1,0,107,54,.61.61,0,0,0,106.65,53.25Z"/><path d="M104.19,55.43a.62.62,0,1,0-.78.39A.61.61,0,0,0,104.19,55.43Z"/><path d="M101.35,56.84a.62.62,0,1,0-.79.39A.63.63,0,0,0,101.35,56.84Z"/><path d="M98.5,58.24a.62.62,0,1,0-.78.39A.61.61,0,0,0,98.5,58.24Z"/><path d="M94.87,60a.62.62,0,1,0-.39-.79A.63.63,0,0,0,94.87,60Z"/><path d="M92,61.44a.62.62,0,1,0,.4-1.17.62.62,0,0,0-.4,1.17Z"/><path d="M89.18,62.85a.62.62,0,0,0,.78-.39.62.62,0,0,0-1.17-.4A.62.62,0,0,0,89.18,62.85Z"/><path d="M105.21,75.42a.62.62,0,0,0-.4,1.17.62.62,0,1,0,.4-1.17Z"/><path d="M102.57,73.66a.61.61,0,0,0-.78.38.62.62,0,1,0,.78-.38Z"/><path d="M99.93,71.89a.63.63,0,0,0-.79.39.62.62,0,0,0,1.18.4A.63.63,0,0,0,99.93,71.89Z"/><path d="M97.29,70.13a.62.62,0,1,0,.39.79A.63.63,0,0,0,97.29,70.13Z"/><path d="M95,69.15a.62.62,0,1,0-.79.39A.62.62,0,0,0,95,69.15Z"/><path d="M92.4,67.39a.62.62,0,0,0-1.18-.4.63.63,0,0,0,.39.79A.63.63,0,0,0,92.4,67.39Z"/><path d="M101.39,79.78a.63.63,0,0,0-.79.39.62.62,0,1,0,.79-.39Z"/><path d="M99.29,77.4a.62.62,0,1,0,.39.78A.61.61,0,0,0,99.29,77.4Z"/><path d="M97.2,75a.62.62,0,1,0,.39.78A.62.62,0,0,0,97.2,75Z"/><path d="M94.71,73.8a.62.62,0,0,0,.39-1.18.63.63,0,0,0-.78.39A.62.62,0,0,0,94.71,73.8Z"/><path d="M93.4,71a.62.62,0,0,0-.39-.78.62.62,0,0,0-.4,1.17A.62.62,0,0,0,93.4,71Z"/><path d="M96.57,83a.62.62,0,1,0,.38.78A.61.61,0,0,0,96.57,83Z"/><path d="M95.16,80.16a.62.62,0,0,0-.4,1.17.62.62,0,1,0,.4-1.17Z"/><path d="M93.75,77.31a.62.62,0,0,0-.78.39.62.62,0,0,0,1.17.4A.62.62,0,0,0,93.75,77.31Z"/><path d="M92.35,74.47a.61.61,0,0,0-.78.38.62.62,0,1,0,.78-.38Z"/><path d="M90.94,71.62a.62.62,0,0,0-.78.39.62.62,0,0,0,1.17.4A.62.62,0,0,0,90.94,71.62Z"/><path d="M89.54,68.78a.62.62,0,1,0-.4,1.17.63.63,0,0,0,.79-.39A.62.62,0,0,0,89.54,68.78Z"/><path d="M88.13,65.93a.62.62,0,1,0,.39.78A.61.61,0,0,0,88.13,65.93Z"/><path d="M47.33,87.18a4.41,4.41,0,0,0,3.33,1.5h0a4.28,4.28,0,0,0,1.4-.22.56.56,0,0,0,.36-.36.7.7,0,0,0-.06-.54.65.65,0,0,0-.37-.27.72.72,0,0,0-.48,0,2.5,2.5,0,0,1-.91.13,3,3,0,0,1-1-.19,2.87,2.87,0,0,1-1.26-.86,2.66,2.66,0,0,1-.6-1.32,2.93,2.93,0,0,1,0-1.06l5.39,2a.74.74,0,0,0,.51,0,.68.68,0,0,0,.34-.38,4.67,4.67,0,0,0,.28-2.12,3.51,3.51,0,0,0-.75-1.82h0a3.72,3.72,0,0,0-1.7-1.18,3.82,3.82,0,0,0-2.12-.2,3.86,3.86,0,0,0-1.83.91,4.52,4.52,0,0,0-1.22,1.87,4.31,4.31,0,0,0-.24,2.22A3.85,3.85,0,0,0,47.33,87.18Zm1.44-5A2.56,2.56,0,0,1,50,81.53a2.64,2.64,0,0,1,1.43.13,2.5,2.5,0,0,1,1.13.8A2.35,2.35,0,0,1,53,83.69a2.88,2.88,0,0,1-.06.92l-4.73-1.74A3,3,0,0,1,48.77,82.19Z"/><path d="M75.71,91.09a3.26,3.26,0,0,0-.81-1.7,4,4,0,0,0-1.64-1.09,3.88,3.88,0,0,0-1.83-.21,4,4,0,0,0-.87.24l0-.15a.71.71,0,0,0-1-.89.66.66,0,0,0-.35.41l-2.37,6.44a.67.67,0,0,0,0,.54.72.72,0,0,0,.41.35.67.67,0,0,0,.89-.41l1.49-4.05a1.8,1.8,0,0,1,.64-.86,2.21,2.21,0,0,1,1.06-.37,2.8,2.8,0,0,1,1.25.18,2.89,2.89,0,0,1,1.1.7,2.06,2.06,0,0,1,.54,1.07,2.74,2.74,0,0,1-.18,1.45l-1.31,3.57a.69.69,0,0,0,.42.89.67.67,0,0,0,.24,0,.75.75,0,0,0,.29-.06.64.64,0,0,0,.35-.39l1.31-3.56A4.12,4.12,0,0,0,75.71,91.09Z"/><path d="M66.87,84.45a.65.65,0,0,0-.87-.32.68.68,0,0,0-.34.37.66.66,0,0,0,0,.5,4.72,4.72,0,0,1-2.3,6.27A4.73,4.73,0,0,1,57.12,89a4.7,4.7,0,0,1,2.3-6.26A4.62,4.62,0,0,1,63,82.56l-.69,1.82L65.54,83l.13-.06-1.53-3.3-.65,1.73a6,6,0,1,0,3.38,3.12Z"/><rect class="cls-9" x="52.84" y="84.09" width="0.94" height="18.54" transform="translate(-52.72 111.17) rotate(-69.81)"/><rect class="cls-9" x="51.6" y="87.45" width="0.94" height="18.54" transform="translate(-56.67 112.21) rotate(-69.81)"/><path class="cls-5" d="M70,109.88a.39.39,0,0,0-.23-.51.41.41,0,0,0-.52.23l-3,8.28a7.92,7.92,0,0,1-.74,1.52l.8.22a8.48,8.48,0,0,0,.69-1.46Z"/><path class="cls-10" d="M67.63,109a.39.39,0,1,0-.74-.27l-2.78,7.59a7.29,7.29,0,0,1-1.29,2.21l.8.27a8.36,8.36,0,0,0,1.23-2.21Z"/><path class="cls-11" d="M62.75,115.08l2.52-6.9a.38.38,0,1,0-.72-.27L62,114.81a6.67,6.67,0,0,1-1.82,2.71c.25.11.5.23.76.33A7.57,7.57,0,0,0,62.75,115.08Z"/><path class="cls-12" d="M60.65,113.54l2.27-6.22a.38.38,0,0,0-.71-.26l-2.27,6.22a6,6,0,0,1-2.41,3l.79.4A6.78,6.78,0,0,0,60.65,113.54Z"/><path class="cls-13" d="M58.55,112l2-5.52a.37.37,0,1,0-.7-.25l-2,5.52a5.29,5.29,0,0,1-2.76,3l-.16,0,.76.45A6,6,0,0,0,58.55,112Z"/><path class="cls-14" d="M56.45,110.45l1.75-4.83a.36.36,0,0,0-.21-.47.37.37,0,0,0-.47.22l-1.75,4.84a4.6,4.6,0,0,1-2.4,2.61,4.48,4.48,0,0,1-1,.32l.79.55a4.71,4.71,0,0,0,.52-.21A5.27,5.27,0,0,0,56.45,110.45Z"/><path class="cls-15" d="M54.35,108.91l1.5-4.15a.35.35,0,0,0-.22-.45.35.35,0,0,0-.45.21l-1.5,4.15a3.84,3.84,0,0,1-2,2.22,4,4,0,0,1-1.82.33c.27.23.56.45.84.67a4.45,4.45,0,0,0,1.28-.36A4.57,4.57,0,0,0,54.35,108.91Z"/><path class="cls-16" d="M50.24,109.58a3.78,3.78,0,0,0,2-2.21l1.24-3.46a.34.34,0,0,0-.21-.44.33.33,0,0,0-.44.21l-1.24,3.46a3.17,3.17,0,0,1-4.11,1.9l-.22-.09c.34.33.69.65,1,1l.31,0A3.82,3.82,0,0,0,50.24,109.58Z"/><path class="cls-17" d="M47.21,107.93l.19,0a.29.29,0,0,1,.31-.1l.12,0a3.26,3.26,0,0,0,.69-.22,3.15,3.15,0,0,0,1.64-1.81l1-2.77a.35.35,0,0,0-.21-.44.35.35,0,0,0-.44.21l-1,2.77a2.44,2.44,0,0,1-3.19,1.48L45,106.56c.35.38.7.76,1.06,1.13l.07,0A3,3,0,0,0,47.21,107.93Z"/><path class="cls-18" d="M45.8,105.91a2.5,2.5,0,0,0,1-.22,2.42,2.42,0,0,0,1.26-1.4l.72-2.09a.33.33,0,0,0-.2-.42.34.34,0,0,0-.43.2l-.72,2.09a1.73,1.73,0,0,1-2.27,1.05l-2.06-.8h0l.15.18.59.22-.13.35c.08.09.15.19.22.28l1,.39A2.51,2.51,0,0,0,45.8,105.91Z"/><path class="cls-19" d="M46.22,100.93a.33.33,0,0,0-.41.21l-.47,1.4a1,1,0,0,1-.53.61,1.06,1.06,0,0,1-.82,0l-1.36-.55a.33.33,0,0,0-.25.61l1.37.55.11,0a.3.3,0,0,1,.37-.16l.54.2a1.12,1.12,0,0,0,.31-.1,1.65,1.65,0,0,0,.88-1l.47-1.39A.34.34,0,0,0,46.22,100.93Z"/><path class="cls-20" d="M43,101.88a.86.86,0,0,0,.39-.09.93.93,0,0,0,.51-.6l.2-.71a.31.31,0,0,0-.21-.39.32.32,0,0,0-.4.21l-.21.71a.27.27,0,0,1-.16.2.3.3,0,0,1-.26,0l-.67-.3a.32.32,0,0,0-.26.58l.67.3A1,1,0,0,0,43,101.88Z"/><path class="cls-21" d="M41.22,99.42v0a.18.18,0,0,1,.23-.1l.16.06a.18.18,0,0,1,.11.22l0,0,.13.05h0l0,0a.32.32,0,0,0-.19-.4.3.3,0,0,0-.3,0,.29.29,0,0,0-.23.2.23.23,0,0,0,0,.2l.07-.22Zm.35-.15Z"/><path class="cls-21" d="M41.6,99.36l-.16-.06a.18.18,0,0,0-.23.1v0l.47.18,0,0A.18.18,0,0,0,41.6,99.36Z"/><path d="M42.14,100.77l.17-.44-.79-.29a.16.16,0,0,1-.21.09l-.16,0a.16.16,0,0,1-.1-.21l-.16.44Z"/><path d="M41.49,99.88h0a.18.18,0,0,1,.05.17h0l.79.29.16-.45-.65-.23A.37.37,0,0,1,41.49,99.88Z"/><path d="M41.24,99.77a.24.24,0,0,1-.1-.13l-.09.22A.16.16,0,0,1,41.24,99.77Z"/><path d="M41.24,99.77h0l.16.06s0,0,0,0h0a.37.37,0,0,0,.33-.23l-.13-.05a.18.18,0,0,1-.21.08l-.16-.06a.17.17,0,0,1-.1-.2h0l-.07.22A.24.24,0,0,0,41.24,99.77Z"/><path d="M41.32,99.62l.16.06a.18.18,0,0,0,.21-.08l-.47-.18A.17.17,0,0,0,41.32,99.62Z"/><path d="M43.22,104.5l.46.57.13-.35Z"/><path d="M43.86,103.8l0,0a.32.32,0,0,0,.18.4l.58.21a.31.31,0,0,0,.21-.58h0a1.55,1.55,0,0,1-.91,0Z"/><path d="M43.86,103.8a1.55,1.55,0,0,0,.91,0l-.54-.2A.3.3,0,0,0,43.86,103.8Z"/><path d="M47.32,108a.31.31,0,0,0,.18.4l.57.21a.31.31,0,0,0,.4-.18.32.32,0,0,0-.19-.4l-.45-.16a3.15,3.15,0,0,1-.43,0S47.33,108,47.32,108Z"/><path d="M47.4,107.91a3.15,3.15,0,0,0,.43,0l-.12,0A.29.29,0,0,0,47.4,107.91Z"/><path d="M51.77,112.19l-.58-.21a.29.29,0,0,0-.29.08l.9.69a.33.33,0,0,0,.15-.16A.31.31,0,0,0,51.77,112.19Z"/><polygon points="41.05 99.86 41.05 99.87 41.05 99.86 41.05 99.86"/><polygon points="41.05 99.86 41.05 99.86 41.05 99.86 41.05 99.86"/><path d="M41.52,100h0a.18.18,0,0,0-.05-.17.22.22,0,0,1-.11,0h0l-.07-.07a.16.16,0,0,0-.19.09h0Z"/><path d="M41.15,100.08l.16,0a.16.16,0,0,0,.21-.09l-.47-.17h0A.16.16,0,0,0,41.15,100.08Z"/><path d="M41.26,99.77h0l.07.07h0a.22.22,0,0,0,.11,0s0,0,0,0Z"/></g></g></svg>