<?xml version="1.0" encoding="utf-8"?>
<!-- Generator: Adobe Illustrator 25.0.0, SVG Export Plug-In . SVG Version: 6.00 Build 0)  -->
<svg version="1.1" xmlns="http://www.w3.org/2000/svg" xmlns:xlink="http://www.w3.org/1999/xlink" x="0px" y="0px"
	 viewBox="0 0 71.3 71.3" style="enable-background:new 0 0 71.3 71.3;" xml:space="preserve">
<style type="text/css">
	.st0{fill:none;stroke:#000000;stroke-width:0.9127;stroke-miterlimit:10;}
	.st1{fill:none;stroke:#000000;stroke-width:0.9127;stroke-linecap:round;stroke-linejoin:round;}
	.st2{clip-path:url(#SVGID_2_);}
	.st3{fill:#2C72B8;}
	.st4{fill:url(#SVGID_3_);stroke:#000000;stroke-width:0.5578;stroke-miterlimit:10;}
	.st5{fill:none;stroke:#FFFFFF;stroke-width:0.5578;stroke-miterlimit:10;}
	.st6{fill:none;stroke:#000000;stroke-width:0.5578;stroke-miterlimit:10;}
	.st7{stroke:#000000;stroke-width:0.1261;stroke-miterlimit:10;}
	.st8{fill:none;stroke:#000000;stroke-width:0.4503;stroke-miterlimit:10;}
	.st9{fill:#FFFFFF;}
	.st10{stroke:#000000;stroke-width:0.4503;stroke-miterlimit:10;}
	.st11{fill:none;}
	.st12{fill:none;stroke:url(#SVGID_4_);stroke-width:0.2257;stroke-miterlimit:10;}
	.st13{fill:none;stroke:url(#SVGID_5_);stroke-width:0.2257;stroke-miterlimit:10;}
	.st14{fill:none;stroke:url(#SVGID_6_);stroke-width:0.2257;stroke-miterlimit:10;}
	.st15{fill:none;stroke:url(#SVGID_7_);stroke-width:0.2257;stroke-miterlimit:10;}
	.st16{fill:none;stroke:url(#SVGID_8_);stroke-width:0.2257;stroke-miterlimit:10;}
	.st17{fill:none;stroke:url(#SVGID_9_);stroke-width:0.2257;stroke-miterlimit:10;}
	.st18{fill:none;stroke:url(#SVGID_10_);stroke-width:0.2257;stroke-miterlimit:10;}
	.st19{fill:none;stroke:url(#SVGID_11_);stroke-width:0.2257;stroke-miterlimit:10;}
	.st20{fill:none;stroke:url(#SVGID_12_);stroke-width:0.2257;stroke-miterlimit:10;}
	.st21{fill:none;stroke:url(#SVGID_13_);stroke-width:0.2257;stroke-miterlimit:10;}
	.st22{fill:none;stroke:url(#SVGID_14_);stroke-width:0.2257;stroke-miterlimit:10;}
	.st23{fill:none;stroke:url(#SVGID_15_);stroke-width:0.2257;stroke-miterlimit:10;}
	.st24{fill:none;stroke:url(#SVGID_16_);stroke-width:0.2257;stroke-miterlimit:10;}
	.st25{fill:none;stroke:url(#SVGID_17_);stroke-width:0.2257;stroke-miterlimit:10;}
	.st26{fill:none;stroke:url(#SVGID_18_);stroke-width:0.2257;stroke-miterlimit:10;}
	.st27{fill:none;stroke:#000000;stroke-width:0.8947;stroke-linecap:round;stroke-linejoin:round;stroke-miterlimit:10;}
</style>
<g id="CIRCLE">
</g>
<g id="CENTER">
	<g>
		<g>
			<g>
				<g>
					<path class="st0" d="M17,10.5"/>
					<g>
						<path class="st1" d="M55.9,61.8c-12.6,9.6-30.7,8.6-42.2-2.9C1.5,46.6,1.2,27,12.7,14.4"/>
						<g>
							<polygon points="10.3,12.8 13.7,13.4 14.6,16.7 14.6,16.7 10.3,12.8 							"/>
						</g>
					</g>
					<g>
						<path class="st1" d="M17,10.5c12.6-9.6,30.7-8.7,42.3,2.8c12.2,12.2,12.6,31.9,1,44.5"/>
						<g>
							<polygon points="62.6,59.5 59.2,58.9 58.3,55.5 58.3,55.5 62.7,59.5 							"/>
						</g>
					</g>
				</g>
			</g>
			<g>
				<g>
					<g>
						<path d="M20.3,22.9c-0.4,0.5-0.8,0.8-1.3,1s-1,0.2-1.5,0.1c-0.5-0.1-1.1-0.4-1.6-0.8c-0.5-0.4-0.9-0.9-1.1-1.4
							c-0.2-0.5-0.3-1-0.2-1.5c0.1-0.5,0.3-1,0.7-1.5c0.5-0.6,1-0.9,1.5-1.1c0.6-0.1,1.2-0.1,1.7,0.2l-0.7,0.8
							c-0.3-0.2-0.7-0.2-1-0.1c-0.3,0.1-0.7,0.3-0.9,0.7c-0.4,0.5-0.5,1-0.4,1.6c0.1,0.6,0.5,1.1,1,1.5c0.6,0.5,1.2,0.7,1.7,0.7
							c0.6,0,1-0.3,1.4-0.8c0.3-0.4,0.4-0.7,0.4-1.1c0-0.3-0.1-0.7-0.3-0.9l0.7-0.8c0.4,0.5,0.6,1,0.6,1.6
							C21,21.8,20.8,22.3,20.3,22.9z"/>
						<path d="M24.2,19.2c-0.3,0.3-0.7,0.4-1.1,0.5c-0.4,0-0.8,0-1.1-0.2c-0.4-0.2-0.7-0.4-1-0.8c-0.3-0.4-0.4-0.8-0.5-1.2
							c-0.1-0.4,0-0.8,0.2-1.1c0.2-0.4,0.4-0.7,0.7-0.9c0.3-0.3,0.7-0.4,1.1-0.5c0.4,0,0.8,0,1.1,0.2c0.4,0.2,0.7,0.4,1,0.8
							c0.3,0.4,0.4,0.8,0.5,1.2c0,0.4,0,0.8-0.2,1.1C24.8,18.6,24.5,19,24.2,19.2z M23.7,18.5c0.2-0.1,0.3-0.3,0.4-0.5
							c0.1-0.2,0.1-0.4,0.1-0.7s-0.2-0.5-0.4-0.8c-0.2-0.3-0.4-0.5-0.6-0.6c-0.2-0.1-0.5-0.2-0.7-0.1c-0.2,0-0.4,0.1-0.6,0.2
							c-0.2,0.1-0.3,0.3-0.4,0.5c-0.1,0.2-0.1,0.4-0.1,0.7c0,0.3,0.2,0.5,0.4,0.8c0.2,0.3,0.4,0.5,0.6,0.6c0.2,0.1,0.5,0.2,0.7,0.1
							C23.3,18.8,23.5,18.7,23.7,18.5z"/>
						<path d="M26.5,17.4l-1.8-4.1l0.8-0.3l0.4,0.7c0-0.3,0.1-0.6,0.3-0.8c0.2-0.3,0.4-0.4,0.8-0.6c0.5-0.2,1-0.2,1.4,0
							c0.4,0.2,0.8,0.6,1,1.2l1,2.4l-0.9,0.4l-1-2.3c-0.3-0.8-0.8-1-1.5-0.8c-0.3,0.1-0.5,0.4-0.7,0.7c-0.1,0.3-0.1,0.7,0.1,1.1
							l0.9,2.1L26.5,17.4z"/>
						<path d="M33,15.2c-0.4,0.1-0.8,0.1-1.1-0.1c-0.3-0.2-0.5-0.5-0.6-1l-0.5-2.2l-0.7,0.2l-0.2-0.8l0.7-0.2L30.5,10l0.8-0.2
							l0.2,1.1l1.2-0.3l0.2,0.8l-1.2,0.3l0.5,2.2c0.1,0.2,0.1,0.4,0.3,0.5c0.1,0.1,0.3,0.1,0.6,0l0.5-0.1l0.2,0.8L33,15.2z"/>
						<path d="M34.6,9.7c-0.2,0-0.3,0-0.5-0.1C34,9.4,34,9.3,33.9,9.1c0-0.2,0-0.3,0.1-0.4c0.1-0.1,0.3-0.2,0.4-0.2
							c0.2,0,0.3,0,0.5,0.1c0.1,0.1,0.2,0.2,0.2,0.4c0,0.2,0,0.3-0.1,0.4C34.9,9.6,34.8,9.6,34.6,9.7z M34.6,15l-0.4-4.4l1-0.1
							l0.4,4.4L34.6,15z"/>
						<path d="M36.6,14.8l0.4-4.4l0.8,0.1l0,0.8c0.2-0.3,0.4-0.5,0.7-0.6c0.3-0.1,0.6-0.2,0.9-0.2c0.5,0,0.9,0.2,1.2,0.6
							c0.3,0.4,0.4,0.9,0.3,1.5l-0.2,2.6L39.8,15l0.2-2.5c0.1-0.9-0.3-1.3-1-1.4c-0.4,0-0.7,0.1-0.9,0.3c-0.2,0.2-0.4,0.6-0.4,1
							l-0.2,2.3L36.6,14.8z"/>
						<path d="M43,15.9c-0.5-0.2-0.9-0.5-1.1-0.9c-0.2-0.4-0.2-0.9,0-1.6l0.8-2.4l0.9,0.3l-0.7,2.4c-0.3,0.8-0.1,1.3,0.6,1.6
							c0.3,0.1,0.7,0.1,0.9-0.1c0.3-0.2,0.5-0.5,0.7-0.9l0.7-2.2l0.9,0.3l-1.4,4.3l-0.8-0.3l0.2-0.8c-0.2,0.2-0.5,0.4-0.8,0.4
							C43.7,16,43.3,16,43,15.9z"/>
						<path d="M47.9,18c-0.4-0.2-0.6-0.5-0.8-0.8c-0.2-0.3-0.3-0.7-0.3-1.1c0-0.4,0.1-0.8,0.4-1.2c0.2-0.4,0.5-0.7,0.9-0.9
							c0.4-0.2,0.7-0.3,1.1-0.3s0.8,0.1,1.1,0.3c0.4,0.2,0.6,0.5,0.8,0.8c0.2,0.3,0.3,0.7,0.3,1.1c0,0.4-0.1,0.8-0.4,1.2
							c-0.2,0.4-0.5,0.7-0.9,0.9c-0.4,0.2-0.7,0.3-1.1,0.3C48.7,18.4,48.3,18.2,47.9,18z M48.3,17.3c0.2,0.1,0.4,0.2,0.6,0.2
							c0.2,0,0.4-0.1,0.7-0.2c0.2-0.1,0.4-0.3,0.6-0.6c0.2-0.3,0.3-0.6,0.3-0.8c0-0.3,0-0.5-0.1-0.7c-0.1-0.2-0.3-0.4-0.5-0.5
							c-0.2-0.1-0.4-0.2-0.6-0.2c-0.2,0-0.4,0.1-0.7,0.2c-0.2,0.1-0.4,0.3-0.6,0.6c-0.2,0.3-0.3,0.6-0.3,0.8c0,0.3,0,0.5,0.1,0.7
							C48,17,48.1,17.2,48.3,17.3z"/>
						<path d="M51.5,20.8c-0.4-0.4-0.6-0.8-0.6-1.3s0.3-0.9,0.7-1.4l1.8-1.8l0.7,0.7l-1.7,1.8c-0.6,0.6-0.7,1.2-0.1,1.7
							c0.3,0.2,0.5,0.4,0.9,0.3c0.3,0,0.7-0.2,1-0.5l1.6-1.6l0.7,0.7l-3.1,3.2l-0.6-0.6l0.5-0.6c-0.3,0.1-0.6,0.1-0.9,0
							C52,21.2,51.8,21,51.5,20.8z"/>
						<path d="M54.8,24.6c-0.3-0.5-0.5-0.9-0.4-1.4c0-0.5,0.2-0.8,0.6-1.1l0.5,0.8c-0.1,0.2-0.2,0.3-0.3,0.6c0,0.2,0,0.5,0.2,0.7
							c0.2,0.2,0.3,0.4,0.5,0.4c0.2,0,0.3,0,0.5-0.1c0.2-0.1,0.3-0.3,0.2-0.5c0-0.2-0.1-0.4-0.2-0.8c-0.1-0.2-0.2-0.5-0.2-0.7
							c-0.1-0.3-0.1-0.5,0-0.7c0-0.2,0.2-0.4,0.4-0.6c0.3-0.2,0.7-0.3,1.1-0.2s0.7,0.4,1,0.8c0.3,0.4,0.4,0.8,0.4,1.2
							c0,0.4-0.2,0.7-0.5,1l-0.5-0.8c0.1-0.1,0.2-0.3,0.2-0.5c0-0.2-0.1-0.4-0.2-0.6c-0.1-0.2-0.3-0.3-0.4-0.4c-0.2-0.1-0.3,0-0.4,0
							c-0.1,0.1-0.2,0.2-0.2,0.4c0,0.2,0.1,0.4,0.2,0.7c0.1,0.3,0.2,0.6,0.3,0.8c0.1,0.3,0.1,0.5,0,0.7c-0.1,0.2-0.2,0.4-0.5,0.6
							c-0.3,0.2-0.7,0.3-1.1,0.2C55.4,25.4,55.1,25.1,54.8,24.6z"/>
						<path d="M57.4,30.4c-0.2-0.5-0.2-1,0-1.5c0.2-0.4,0.5-0.7,0.9-0.9l0.3,0.9c-0.2,0.1-0.3,0.3-0.4,0.5c-0.1,0.2-0.1,0.5,0,0.7
							c0.1,0.3,0.2,0.5,0.3,0.6c0.2,0.1,0.3,0.1,0.5,0.1c0.2-0.1,0.3-0.2,0.4-0.4s0-0.5,0-0.8c0-0.3,0-0.5,0-0.8
							c0-0.3,0.1-0.5,0.2-0.7c0.1-0.2,0.3-0.3,0.6-0.4c0.4-0.1,0.7-0.1,1.1,0.2c0.3,0.2,0.6,0.6,0.7,1.1c0.1,0.5,0.1,0.9,0,1.3
							c-0.1,0.4-0.4,0.6-0.8,0.8l-0.3-0.9c0.2-0.1,0.3-0.2,0.4-0.4c0.1-0.2,0.1-0.4,0-0.6c-0.1-0.2-0.2-0.4-0.3-0.5
							c-0.1-0.1-0.3-0.1-0.4-0.1c-0.2,0-0.2,0.2-0.3,0.4c0,0.2,0,0.5,0,0.8c0,0.3,0,0.6,0,0.9c0,0.3-0.1,0.5-0.2,0.7
							c-0.1,0.2-0.3,0.3-0.6,0.4c-0.4,0.1-0.8,0.1-1.1-0.2C57.8,31.3,57.6,30.9,57.4,30.4z"/>
						<path d="M56.2,32.9l6.4-0.4l0,0.9L62,33.5c0.2,0.1,0.4,0.3,0.6,0.6c0.2,0.2,0.3,0.6,0.3,1c0,0.4-0.1,0.8-0.2,1.2
							c-0.2,0.3-0.4,0.6-0.8,0.8c-0.3,0.2-0.7,0.3-1.2,0.4c-0.4,0-0.9,0-1.2-0.2s-0.7-0.4-0.9-0.7c-0.2-0.3-0.3-0.7-0.4-1.1
							c0-0.3,0-0.7,0.2-0.9c0.1-0.3,0.3-0.5,0.5-0.7l-2.7,0.2L56.2,32.9z M59,35.1c0,0.4,0.2,0.7,0.5,1c0.3,0.2,0.7,0.4,1.1,0.3
							c0.3,0,0.6-0.1,0.8-0.2c0.2-0.1,0.4-0.3,0.5-0.5c0.1-0.2,0.2-0.5,0.2-0.7c0-0.4-0.2-0.7-0.5-1c-0.3-0.2-0.7-0.4-1.1-0.3
							c-0.4,0-0.8,0.2-1.1,0.5C59.1,34.3,59,34.7,59,35.1z"/>
						<path d="M58.3,38.2l4.4,0.6l-0.1,0.8l-0.8,0c0.3,0.2,0.5,0.4,0.6,0.7c0.1,0.3,0.2,0.6,0.1,1l-1-0.1l0-0.3c0-0.3,0-0.5,0-0.7
							s-0.2-0.4-0.4-0.6c-0.2-0.2-0.5-0.3-0.8-0.3l-2.1-0.3L58.3,38.2z"/>
						<path d="M57.3,42.7c0.1-0.4,0.3-0.6,0.5-0.8c0.2-0.2,0.4-0.3,0.6-0.4c0.2,0,0.5,0,0.7,0c0.4,0.1,0.7,0.4,0.8,0.8
							c0.1,0.4,0.1,0.9-0.1,1.5L59.4,45l0.1,0c0.3,0.1,0.6,0.1,0.8,0c0.2-0.1,0.4-0.3,0.5-0.6c0.1-0.3,0.1-0.5,0-0.7
							c-0.1-0.2-0.2-0.4-0.4-0.5l0.3-0.9c0.3,0.1,0.5,0.3,0.7,0.6s0.2,0.5,0.3,0.9c0,0.3,0,0.6-0.1,1c-0.2,0.6-0.5,1-0.9,1.2
							c-0.4,0.2-0.9,0.2-1.4,0.1L56.6,45l0.3-0.8l0.8,0.2c-0.2-0.2-0.3-0.4-0.4-0.7S57.1,43.1,57.3,42.7z M57.9,43.1
							c-0.1,0.2-0.1,0.5,0,0.7c0.1,0.2,0.2,0.4,0.3,0.5s0.4,0.3,0.6,0.4l0.3-1c0.1-0.4,0.1-0.6,0.1-0.8s-0.2-0.3-0.4-0.4
							c-0.2-0.1-0.4,0-0.5,0.1C58.1,42.7,58,42.9,57.9,43.1z"/>
						<path d="M54.4,45l1.5,2.1l0.1-0.2l4.4,0.6l-0.5,0.9l-3.5-0.5l2.1,2.9l-0.5,0.9l-4-5.8L54.4,45z"/>
					</g>
					<g>
						<path d="M53.4,52.7c0.1-0.1,0.3-0.2,0.5-0.3c0.2-0.1,0.4-0.1,0.6,0c0.2,0,0.4,0.1,0.5,0.3c0.2,0.2,0.3,0.3,0.3,0.5
							c0,0.2,0,0.4,0,0.6c0,0.2-0.1,0.4-0.3,0.5c-0.2,0.2-0.3,0.3-0.5,0.3c-0.2,0.1-0.4,0.1-0.6,0s-0.4-0.2-0.5-0.3
							s-0.3-0.3-0.3-0.5c0-0.2,0-0.4,0-0.6S53.3,52.9,53.4,52.7z"/>
						<path d="M49.6,53.8l3.1,5.5l-0.8,0.5l-5.1-2.6l2.3,4.1l-0.8,0.5l-3.1-5.5l0.8-0.5l5.1,2.6l-2.3-4.1L49.6,53.8z"/>
						<path d="M42.3,56.9c0.4-0.1,0.8-0.1,1.2,0c0.4,0.1,0.7,0.3,1,0.6c0.3,0.3,0.5,0.7,0.6,1.1c0.1,0.5,0.1,0.9,0,1.3
							c-0.1,0.4-0.3,0.7-0.6,1c-0.3,0.3-0.6,0.5-1,0.6c-0.4,0.1-0.8,0.1-1.2,0c-0.4-0.1-0.7-0.3-1-0.6c-0.3-0.3-0.5-0.7-0.6-1.1
							s-0.1-0.9,0-1.3c0.1-0.4,0.3-0.7,0.6-1C41.5,57.2,41.9,57,42.3,56.9z M42.5,57.7c-0.2,0.1-0.4,0.2-0.6,0.3
							c-0.2,0.2-0.3,0.4-0.3,0.6c-0.1,0.2,0,0.5,0,0.9c0.1,0.3,0.2,0.6,0.4,0.8c0.2,0.2,0.4,0.3,0.6,0.4c0.2,0.1,0.4,0.1,0.7,0
							c0.2-0.1,0.4-0.2,0.6-0.3c0.2-0.2,0.3-0.4,0.3-0.6c0.1-0.2,0-0.5,0-0.9c-0.1-0.3-0.2-0.6-0.4-0.8c-0.2-0.2-0.4-0.3-0.6-0.4
							C42.9,57.7,42.7,57.7,42.5,57.7z"/>
						<path d="M37.3,57.8l-0.5,6.3l-2.2-0.2c-0.5,0-0.9-0.2-1.2-0.3c-0.3-0.2-0.5-0.4-0.7-0.7c-0.1-0.3-0.2-0.6-0.2-1
							c0-0.3,0.1-0.6,0.3-0.9c0.2-0.3,0.4-0.5,0.8-0.6c0.3-0.1,0.8-0.2,1.3-0.2l1.2,0.1l0.2-2.5L37.3,57.8z M36.1,61.1L34.9,61
							c-0.5,0-0.8,0-1,0.2c-0.2,0.2-0.3,0.4-0.4,0.8c0,0.3,0.1,0.6,0.2,0.8c0.2,0.2,0.5,0.3,0.9,0.4l1.2,0.1L36.1,61.1z"/>
						<path d="M32.4,57.3l-1.2,4.3l-0.8-0.2l0.1-0.8c-0.2,0.2-0.5,0.4-0.8,0.5c-0.3,0.1-0.7,0.1-1,0l0.3-1l0.3,0.1
							c0.3,0.1,0.5,0.1,0.7,0.1s0.4-0.1,0.6-0.3s0.3-0.4,0.4-0.8l0.6-2.1L32.4,57.3z"/>
						<path d="M27.6,55.5c0.4,0.2,0.7,0.4,0.9,0.8s0.3,0.7,0.4,1.1s-0.1,0.8-0.3,1.2c-0.2,0.4-0.5,0.7-0.8,1
							c-0.3,0.2-0.7,0.3-1.1,0.4c-0.4,0-0.8-0.1-1.2-0.2c-0.4-0.2-0.7-0.4-0.9-0.8c-0.2-0.3-0.3-0.7-0.4-1.1c0-0.4,0.1-0.8,0.3-1.2
							s0.5-0.7,0.8-1c0.3-0.2,0.7-0.3,1.1-0.4C26.9,55.2,27.2,55.3,27.6,55.5z M27.3,56.2c-0.2-0.1-0.4-0.1-0.6-0.1
							s-0.4,0.1-0.6,0.2c-0.2,0.1-0.4,0.4-0.5,0.7c-0.1,0.3-0.2,0.6-0.2,0.8c0,0.3,0.1,0.5,0.2,0.7s0.3,0.3,0.5,0.4
							c0.2,0.1,0.4,0.1,0.6,0.1c0.2,0,0.4-0.1,0.6-0.2c0.2-0.1,0.4-0.4,0.5-0.7c0.1-0.3,0.2-0.6,0.2-0.8c0-0.3-0.1-0.5-0.2-0.7
							C27.6,56.5,27.5,56.3,27.3,56.2z"/>
						<path d="M26.2,52.7l-4.1,5l-0.7-0.5l0.4-0.6c-0.2,0.1-0.5,0.1-0.8,0c-0.3,0-0.6-0.2-0.9-0.4c-0.3-0.3-0.6-0.6-0.7-1
							c-0.1-0.4-0.1-0.7-0.1-1.1c0.1-0.4,0.3-0.8,0.6-1.1c0.3-0.3,0.6-0.6,1-0.7C21.3,52,21.6,52,22,52c0.4,0.1,0.7,0.2,1.1,0.5
							c0.3,0.2,0.5,0.5,0.6,0.8c0.1,0.3,0.2,0.6,0.1,0.9l1.7-2L26.2,52.7z M22.7,53.3c-0.3-0.3-0.7-0.4-1-0.3c-0.4,0-0.7,0.2-1,0.6
							c-0.2,0.2-0.3,0.5-0.4,0.7c-0.1,0.3,0,0.5,0,0.7c0.1,0.2,0.2,0.4,0.4,0.6c0.3,0.3,0.7,0.4,1,0.3c0.4,0,0.7-0.2,1-0.6
							c0.3-0.3,0.4-0.7,0.4-1.1C23.2,53.9,23,53.5,22.7,53.3z"/>
						<path d="M19.8,49c0.3,0.4,0.4,0.7,0.5,1.1c0,0.4,0,0.8-0.2,1.1c-0.2,0.4-0.4,0.7-0.8,1c-0.4,0.3-0.8,0.4-1.2,0.5
							c-0.4,0.1-0.8,0-1.1-0.1c-0.4-0.2-0.7-0.4-0.9-0.8c-0.3-0.4-0.4-0.7-0.4-1.1c0-0.4,0-0.7,0.2-1.1c0.2-0.3,0.4-0.6,0.7-0.9
							c0,0,0.1-0.1,0.2-0.1c0.1,0,0.1-0.1,0.2-0.1l2.1,2.8c0.3-0.3,0.5-0.6,0.5-0.9c0-0.3-0.1-0.6-0.3-0.9c-0.2-0.2-0.3-0.4-0.6-0.4
							c-0.2-0.1-0.4-0.1-0.6,0l-0.6-0.8c0.4-0.2,0.8-0.2,1.3-0.1C19.1,48.3,19.4,48.5,19.8,49z M16.6,51.3c0.2,0.3,0.4,0.4,0.7,0.5
							c0.3,0.1,0.6,0,1-0.1l-1.5-2c-0.3,0.2-0.4,0.5-0.4,0.8C16.3,50.7,16.4,51,16.6,51.3z"/>
						<path d="M18.1,46.6l-5.8,3l-0.4-0.8l5.8-3L18.1,46.6z"/>
						<path d="M17.2,44.7l-6,2.4l-0.4-0.9l6-2.4L17.2,44.7z"/>
						<path d="M16.2,41.5c0.1,0.4,0.1,0.7,0,1c-0.1,0.3-0.2,0.5-0.4,0.6c-0.2,0.2-0.4,0.3-0.6,0.3c-0.4,0.1-0.8,0-1.1-0.3
							c-0.3-0.3-0.6-0.7-0.7-1.3l-0.3-1.1l-0.1,0c-0.3,0.1-0.6,0.2-0.7,0.5c-0.1,0.2-0.2,0.5-0.1,0.8c0.1,0.3,0.2,0.5,0.3,0.6
							s0.4,0.2,0.6,0.2l0.2,0.9c-0.3,0-0.6,0-0.9-0.1c-0.3-0.1-0.5-0.3-0.7-0.6c-0.2-0.3-0.3-0.6-0.4-0.9c-0.1-0.6-0.1-1.1,0.2-1.5
							c0.2-0.4,0.6-0.7,1.2-0.8l2.7-0.6l0.2,0.8L15,40.2c0.3,0.1,0.5,0.2,0.7,0.4C16,40.8,16.1,41.1,16.2,41.5z M15.4,41.5
							c-0.1-0.3-0.2-0.4-0.3-0.6s-0.3-0.2-0.6-0.3c-0.2-0.1-0.5-0.1-0.7,0l0.2,1c0.1,0.4,0.2,0.6,0.4,0.7c0.2,0.1,0.3,0.2,0.5,0.1
							c0.2,0,0.3-0.2,0.4-0.3C15.5,41.9,15.5,41.7,15.4,41.5z"/>
						<path d="M15.5,38.4l-4.5,0l0-0.8l0.8-0.1c-0.3-0.1-0.5-0.3-0.7-0.6c-0.2-0.3-0.2-0.6-0.2-0.9c0-0.5,0.2-1,0.5-1.3
							c0.3-0.3,0.8-0.5,1.5-0.5l2.6,0l0,0.9l-2.5,0c-0.9,0-1.3,0.4-1.3,1.1c0,0.4,0.1,0.6,0.4,0.9c0.3,0.2,0.6,0.3,1.1,0.3l2.3,0
							L15.5,38.4z"/>
						<path d="M16,31.6c-0.1,0.4-0.3,0.8-0.5,1c-0.3,0.2-0.7,0.3-1.2,0.2l-2.2-0.4L12,33l-0.8-0.2l0.1-0.8l-1.1-0.3l0.2-0.8l1.1,0.2
							l0.2-1.2l0.8,0.2l-0.2,1.2l2.2,0.4c0.2,0,0.4,0,0.5-0.1c0.1-0.1,0.2-0.3,0.2-0.5l0.1-0.5l0.8,0.2L16,31.6z"/>
						<path d="M15.5,27.2c-0.1,0.2-0.2,0.4-0.4,0.5c-0.2,0.1-0.3,0.2-0.5,0.2c-0.2,0-0.4,0-0.6-0.1c-0.2-0.1-0.4-0.2-0.5-0.4
							c-0.1-0.2-0.2-0.3-0.2-0.5c0-0.2,0-0.4,0.1-0.6c0.1-0.2,0.2-0.4,0.4-0.5c0.2-0.1,0.3-0.2,0.5-0.2c0.2,0,0.4,0,0.6,0.1
							c0.2,0.1,0.4,0.2,0.5,0.4s0.2,0.3,0.2,0.5C15.6,26.8,15.6,27,15.5,27.2z"/>
					</g>
				</g>
			</g>
		</g>
		<g>
			<g>
				<g>
					<defs>
						<circle id="SVGID_1_" cx="36.3" cy="36.3" r="17.9"/>
					</defs>
					<clipPath id="SVGID_2_">
						<use xlink:href="#SVGID_1_"  style="overflow:visible;"/>
					</clipPath>
					<g class="st2">
						<g>
							<circle class="st3" cx="46.3" cy="38.6" r="0.5"/>
							<circle class="st3" cx="44.7" cy="37.8" r="0.5"/>
							<circle class="st3" cx="43" cy="37.1" r="0.5"/>
							<circle class="st3" cx="41.4" cy="36.3" r="0.5"/>
							<circle class="st3" cx="39.8" cy="35.5" r="0.5"/>
							<circle class="st3" cx="36.5" cy="34" r="0.5"/>
							<circle class="st3" cx="34.8" cy="33.3" r="0.5"/>
							<circle class="st3" cx="47.3" cy="35.4" r="0.5"/>
							<circle class="st3" cx="45.5" cy="35.1" r="0.5"/>
							<circle class="st3" cx="43.7" cy="34.8" r="0.5"/>
							<circle class="st3" cx="42" cy="34.5" r="0.5"/>
							<circle class="st3" cx="40.2" cy="34.2" r="0.5"/>
							<circle class="st3" cx="38.4" cy="33.9" r="0.5"/>
							<circle class="st3" cx="47.4" cy="32.1" r="0.5"/>
							<circle class="st3" cx="45.6" cy="32.3" r="0.5"/>
							<circle class="st3" cx="43.8" cy="32.5" r="0.5"/>
							<circle class="st3" cx="42" cy="32.6" r="0.5"/>
							<circle class="st3" cx="40.2" cy="32.8" r="0.5"/>
							<circle class="st3" cx="46.7" cy="28.9" r="0.5"/>
							<circle class="st3" cx="45" cy="29.5" r="0.5"/>
							<circle class="st3" cx="43.3" cy="30.2" r="0.5"/>
							<circle class="st3" cx="41.6" cy="30.8" r="0.5"/>
							<circle class="st3" cx="39.9" cy="31.4" r="0.5"/>
							<circle class="st3" cx="38.2" cy="32" r="0.5"/>
							<circle class="st3" cx="36.5" cy="32.6" r="0.5"/>
							<circle class="st3" cx="44.5" cy="41.4" r="0.5"/>
							<circle class="st3" cx="43.2" cy="40.2" r="0.5"/>
							<circle class="st3" cx="41.8" cy="39" r="0.5"/>
							<circle class="st3" cx="40.4" cy="37.9" r="0.5"/>
							<circle class="st3" cx="39" cy="36.7" r="0.5"/>
							<circle class="st3" cx="37.6" cy="35.6" r="0.5"/>
							<circle class="st3" cx="42.1" cy="43.6" r="0.5"/>
							<circle class="st3" cx="41.1" cy="42.1" r="0.5"/>
							<circle class="st3" cx="40" cy="40.6" r="0.5"/>
							<circle class="st3" cx="39" cy="39.2" r="0.5"/>
							<circle class="st3" cx="38" cy="37.7" r="0.5"/>
							<circle class="st3" cx="39.2" cy="45.1" r="0.5"/>
							<circle class="st3" cx="38.6" cy="43.4" r="0.5"/>
							<circle class="st3" cx="37.9" cy="41.7" r="0.5"/>
							<circle class="st3" cx="37.3" cy="40" r="0.5"/>
							<circle class="st3" cx="36.7" cy="38.3" r="0.5"/>
							<circle class="st3" cx="36.1" cy="36.6" r="0.5"/>
							<circle class="st3" cx="35.5" cy="35" r="0.5"/>
						</g>
						<g>
							
								<linearGradient id="SVGID_3_" gradientUnits="userSpaceOnUse" x1="479.955" y1="-632.866" x2="463.1898" y2="-616.2288" gradientTransform="matrix(0.9468 -0.3218 0.3218 0.9468 -225.8558 791.6297)">
								<stop  offset="0.423" style="stop-color:#FFFFFF"/>
								<stop  offset="0.5257" style="stop-color:#F4F9FC"/>
								<stop  offset="0.7081" style="stop-color:#D5E9F6"/>
								<stop  offset="0.9475" style="stop-color:#A5CFEB"/>
								<stop  offset="1" style="stop-color:#99C9E8"/>
							</linearGradient>
							<path class="st4" d="M26.9,27.5c-0.3-0.1-0.7-0.2-1.2,0c-0.5,0.2-0.7,0.5-1,0.8c-0.5,0.6-1.1,1.3-1.8,2.2
								c-0.4,0-0.9,0-1.4,0.2c-0.5,0.2-0.9,0.4-1,0.5c-0.9,0.6-1.3,1.4-1.4,1.6c0,0,0,0-0.2,0.5c-0.1,0.1-9.7,19.6-10.7,21.8
								c-0.1,0.2-0.3,0.6-0.3,1.1c0,0.4,0,0.8,0.2,1.2c0.3,0.8,0.8,1.4,1.5,1.8l7.8,3.9c1.5,0.7,3.3,0.1,4.1-1.4
								c3.6-7.3,7.2-14.6,10.8-21.9c0.2-0.3,0.3-0.6,0.4-1.1c0.3-1.6-0.3-3-0.6-3.5c0-0.1,0.4-1.7,0.5-1.8c0.1-0.4,0.2-0.7,0.3-1.1
								c0.1-0.7,0.2-1.2,0-1.6c-0.1-0.1-0.3-0.4-0.7-0.6C30.3,29.3,28.6,28.3,26.9,27.5z"/>
							<g>
								<line class="st5" x1="31.7" y1="35.1" x2="23.3" y2="30.7"/>
							</g>
							<path class="st6" d="M16.8,56.1 M29.9,34.5l-5.3-2.6"/>
							<g>
								<g>
									<g>
										<path class="st7" d="M22.2,36.9c-0.1-0.2-0.3-0.3-0.5-0.4c-0.2-0.1-0.5-0.2-0.7-0.1c-0.2,0-0.4,0.1-0.6,0.2
											c-0.2,0.1-0.3,0.3-0.5,0.6c-0.1,0.2-0.2,0.5-0.2,0.7c0,0.2,0.1,0.5,0.2,0.7c0.1,0.2,0.3,0.4,0.6,0.5
											c0.1,0.1,0.3,0.1,0.5,0.1c0.2,0,0.3,0,0.5,0c0.1,0,0.1,0,0.1-0.1c0,0,0-0.1,0-0.1c0,0,0-0.1-0.1-0.1c0,0-0.1,0-0.1,0
											c-0.1,0-0.2,0-0.3,0c-0.1,0-0.2-0.1-0.4-0.1c-0.2-0.1-0.3-0.2-0.4-0.4c-0.1-0.1-0.2-0.3-0.2-0.5c0-0.1,0-0.3,0.1-0.4
											l1.8,0.9c0,0,0.1,0,0.1,0c0,0,0.1,0,0.1-0.1c0.1-0.2,0.2-0.5,0.2-0.7C22.3,37.3,22.3,37.1,22.2,36.9z M22,37.6
											c0,0.1-0.1,0.2-0.1,0.4l-1.6-0.8c0.1-0.1,0.1-0.2,0.2-0.3c0.1-0.1,0.3-0.2,0.5-0.2c0.2,0,0.3,0,0.5,0.1
											c0.2,0.1,0.3,0.2,0.4,0.3C22,37.2,22,37.4,22,37.6z"/>
										<path class="st7" d="M29.1,40.3c-0.1-0.2-0.3-0.3-0.5-0.4c-0.2-0.1-0.4-0.1-0.6-0.1c-0.1,0-0.3,0.1-0.4,0.1l0.1-0.2
											c0-0.1,0-0.1,0-0.2c0,0,0-0.1-0.1-0.1c-0.1,0-0.1,0-0.2,0s-0.1,0.1-0.1,0.1l-1,2.1c0,0.1,0,0.1,0,0.1c0,0,0.1,0.1,0.1,0.1
											c0.1,0,0.1,0,0.1,0c0,0,0.1,0,0.1-0.1l0.7-1.3c0.1-0.1,0.1-0.2,0.3-0.3c0.1-0.1,0.2-0.1,0.4-0.1c0.1,0,0.3,0,0.4,0.1
											c0.2,0.1,0.3,0.2,0.4,0.3c0.1,0.1,0.1,0.3,0.2,0.4c0,0.2,0,0.3-0.1,0.5l-0.6,1.2c0,0,0,0.1,0,0.1c0,0,0,0.1,0.1,0.1
											c0,0,0.1,0,0.1,0c0.1,0,0.1,0,0.1-0.1l0.6-1.2c0.1-0.2,0.2-0.5,0.2-0.7C29.3,40.7,29.3,40.5,29.1,40.3z"/>
										<path class="st7" d="M26.6,38.3c0-0.1-0.1-0.1-0.2-0.1c-0.1,0-0.1,0.1-0.1,0.2c0.3,0.9-0.2,1.8-1,2.1
											c-0.9,0.3-1.8-0.2-2.1-1s0.2-1.8,1-2.1c0.4-0.1,0.9-0.1,1.3,0.1L25.2,38l1-0.3l-0.4-1l-0.3,0.5c-0.5-0.3-1-0.3-1.6-0.1
											c-1.1,0.4-1.6,1.5-1.3,2.6c0.4,1.1,1.5,1.6,2.6,1.3C26.4,40.5,26.9,39.4,26.6,38.3z"/>
									</g>
									<line class="st8" x1="14.1" y1="49.7" x2="20.4" y2="52.8"/>
									<line class="st8" x1="13.5" y1="50.8" x2="19.3" y2="53.6"/>
									<line class="st8" x1="13" y1="51.9" x2="18.7" y2="54.7"/>
									<rect x="11.2" y="54.6" transform="matrix(0.897 0.4419 -0.4419 0.897 26.2691 -0.613)" width="6.6" height="2.9"/>
									
										<rect x="16.9" y="61" transform="matrix(0.897 0.4419 -0.4419 0.897 28.9468 -1.6922)" class="st9" width="2.3" height="0.6"/>
									<g>
										<g>
											<g>
												<line class="st10" x1="17.1" y1="42.8" x2="17.5" y2="43"/>
												<line class="st10" x1="16.4" y1="44.1" x2="17.8" y2="44.7"/>
												<line class="st10" x1="15.8" y1="45.4" x2="18.1" y2="46.5"/>
												<line class="st10" x1="15.2" y1="46.6" x2="18.3" y2="48.2"/>
												<line class="st10" x1="14.6" y1="47.9" x2="18.6" y2="49.9"/>
											</g>
										</g>
										<g>
											<path class="st11" d="M17.1,42.9"/>
										</g>
										<g>
											<g>
												
													<linearGradient id="SVGID_4_" gradientUnits="userSpaceOnUse" x1="35.6052" y1="63.0273" x2="28.5654" y2="67.0918" gradientTransform="matrix(0.8915 0.453 -0.453 0.8915 22.824 -23.3336)">
													<stop  offset="0" style="stop-color:#5B83C2"/>
													<stop  offset="0.4897" style="stop-color:#FFFFFF"/>
													<stop  offset="1" style="stop-color:#2C72B8"/>
												</linearGradient>
												<path class="st12" d="M25.8,47.2L25,48.8c-1,1.9-3.4,2.7-5.3,1.7L18,49.6"/>
												
													<linearGradient id="SVGID_5_" gradientUnits="userSpaceOnUse" x1="34.8544" y1="62.9205" x2="28.3054" y2="66.7016" gradientTransform="matrix(0.8915 0.453 -0.453 0.8915 22.824 -23.3336)">
													<stop  offset="0" style="stop-color:#5B83C2"/>
													<stop  offset="0.4897" style="stop-color:#FFFFFF"/>
													<stop  offset="1" style="stop-color:#2C72B8"/>
												</linearGradient>
												<path class="st13" d="M25.2,46.9l-0.7,1.4c-0.9,1.8-3.1,2.5-4.9,1.6l-1.6-0.8"/>
												
													<linearGradient id="SVGID_6_" gradientUnits="userSpaceOnUse" x1="34.1036" y1="62.8137" x2="28.0454" y2="66.3114" gradientTransform="matrix(0.8915 0.453 -0.453 0.8915 22.824 -23.3336)">
													<stop  offset="0" style="stop-color:#5B83C2"/>
													<stop  offset="0.4897" style="stop-color:#FFFFFF"/>
													<stop  offset="1" style="stop-color:#2C72B8"/>
												</linearGradient>
												<path class="st14" d="M24.6,46.6l-0.7,1.3c-0.8,1.7-2.9,2.3-4.5,1.5l-1.5-0.8"/>
												
													<linearGradient id="SVGID_7_" gradientUnits="userSpaceOnUse" x1="33.3528" y1="62.7068" x2="27.7853" y2="65.9212" gradientTransform="matrix(0.8915 0.453 -0.453 0.8915 22.824 -23.3336)">
													<stop  offset="0" style="stop-color:#5B83C2"/>
													<stop  offset="0.4897" style="stop-color:#FFFFFF"/>
													<stop  offset="1" style="stop-color:#2C72B8"/>
												</linearGradient>
												<path class="st15" d="M24,46.3l-0.6,1.2c-0.8,1.5-2.6,2.1-4.2,1.4l-1.4-0.7"/>
												
													<linearGradient id="SVGID_8_" gradientUnits="userSpaceOnUse" x1="32.602" y1="62.6" x2="27.5253" y2="65.531" gradientTransform="matrix(0.8915 0.453 -0.453 0.8915 22.824 -23.3336)">
													<stop  offset="0" style="stop-color:#5B83C2"/>
													<stop  offset="0.4897" style="stop-color:#FFFFFF"/>
													<stop  offset="1" style="stop-color:#2C72B8"/>
												</linearGradient>
												<path class="st16" d="M23.4,46l-0.6,1.1c-0.7,1.4-2.4,1.9-3.8,1.2l-1.3-0.6"/>
												
													<linearGradient id="SVGID_9_" gradientUnits="userSpaceOnUse" x1="31.8512" y1="62.4932" x2="27.2653" y2="65.1409" gradientTransform="matrix(0.8915 0.453 -0.453 0.8915 22.824 -23.3336)">
													<stop  offset="0" style="stop-color:#5B83C2"/>
													<stop  offset="0.4897" style="stop-color:#FFFFFF"/>
													<stop  offset="1" style="stop-color:#2C72B8"/>
												</linearGradient>
												<path class="st17" d="M22.7,45.7l-0.5,1c-0.6,1.3-2.2,1.7-3.4,1.1l-1.1-0.6"/>
												
													<linearGradient id="SVGID_10_" gradientUnits="userSpaceOnUse" x1="31.1005" y1="62.3863" x2="27.0053" y2="64.7507" gradientTransform="matrix(0.8915 0.453 -0.453 0.8915 22.824 -23.3336)">
													<stop  offset="0" style="stop-color:#5B83C2"/>
													<stop  offset="0.4897" style="stop-color:#FFFFFF"/>
													<stop  offset="1" style="stop-color:#2C72B8"/>
												</linearGradient>
												<path class="st18" d="M22.1,45.4l-0.5,0.9c-0.6,1.1-1.9,1.6-3,1l-1-0.5"/>
												
													<linearGradient id="SVGID_11_" gradientUnits="userSpaceOnUse" x1="30.3497" y1="62.2795" x2="26.7453" y2="64.3605" gradientTransform="matrix(0.8915 0.453 -0.453 0.8915 22.824 -23.3336)">
													<stop  offset="0" style="stop-color:#5B83C2"/>
													<stop  offset="0.4897" style="stop-color:#FFFFFF"/>
													<stop  offset="1" style="stop-color:#2C72B8"/>
												</linearGradient>
												<path class="st19" d="M21.5,45l-0.4,0.8c-0.5,1-1.7,1.4-2.7,0.9l-0.9-0.5"/>
												
													<linearGradient id="SVGID_12_" gradientUnits="userSpaceOnUse" x1="29.5989" y1="62.1727" x2="26.4852" y2="63.9703" gradientTransform="matrix(0.8915 0.453 -0.453 0.8915 22.824 -23.3336)">
													<stop  offset="0" style="stop-color:#5B83C2"/>
													<stop  offset="0.4897" style="stop-color:#FFFFFF"/>
													<stop  offset="1" style="stop-color:#2C72B8"/>
												</linearGradient>
												<path class="st20" d="M20.9,44.7l-0.3,0.7c-0.4,0.8-1.4,1.2-2.3,0.7l-0.8-0.4"/>
												
													<linearGradient id="SVGID_13_" gradientUnits="userSpaceOnUse" x1="28.8481" y1="62.0658" x2="26.2252" y2="63.5801" gradientTransform="matrix(0.8915 0.453 -0.453 0.8915 22.824 -23.3336)">
													<stop  offset="0" style="stop-color:#5B83C2"/>
													<stop  offset="0.4897" style="stop-color:#FFFFFF"/>
													<stop  offset="1" style="stop-color:#2C72B8"/>
												</linearGradient>
												<path class="st21" d="M20.3,44.4L20,45c-0.4,0.7-1.2,1-1.9,0.6l-0.6-0.3"/>
												
													<linearGradient id="SVGID_14_" gradientUnits="userSpaceOnUse" x1="28.0973" y1="61.959" x2="25.9652" y2="63.19" gradientTransform="matrix(0.8915 0.453 -0.453 0.8915 22.824 -23.3336)">
													<stop  offset="0" style="stop-color:#5B83C2"/>
													<stop  offset="0.4897" style="stop-color:#FFFFFF"/>
													<stop  offset="1" style="stop-color:#2C72B8"/>
												</linearGradient>
												<path class="st22" d="M19.7,44.1l-0.2,0.4c-0.3,0.6-1,0.8-1.5,0.5l-0.5-0.3"/>
												
													<linearGradient id="SVGID_15_" gradientUnits="userSpaceOnUse" x1="27.3465" y1="61.8522" x2="25.7052" y2="62.7998" gradientTransform="matrix(0.8915 0.453 -0.453 0.8915 22.824 -23.3336)">
													<stop  offset="0" style="stop-color:#5B83C2"/>
													<stop  offset="0.4897" style="stop-color:#FFFFFF"/>
													<stop  offset="1" style="stop-color:#2C72B8"/>
												</linearGradient>
												<path class="st23" d="M19.1,43.8l-0.2,0.3c-0.2,0.4-0.7,0.6-1.2,0.4l-0.4-0.2"/>
												
													<linearGradient id="SVGID_16_" gradientUnits="userSpaceOnUse" x1="26.5957" y1="61.7453" x2="25.4452" y2="62.4096" gradientTransform="matrix(0.8915 0.453 -0.453 0.8915 22.824 -23.3336)">
													<stop  offset="0" style="stop-color:#5B83C2"/>
													<stop  offset="0.4897" style="stop-color:#FFFFFF"/>
													<stop  offset="1" style="stop-color:#2C72B8"/>
												</linearGradient>
												<path class="st24" d="M18.4,43.5l-0.1,0.2c-0.1,0.3-0.5,0.4-0.8,0.3l-0.3-0.1"/>
												
													<linearGradient id="SVGID_17_" gradientUnits="userSpaceOnUse" x1="25.8449" y1="61.6385" x2="25.1851" y2="62.0194" gradientTransform="matrix(0.8915 0.453 -0.453 0.8915 22.824 -23.3336)">
													<stop  offset="0" style="stop-color:#5B83C2"/>
													<stop  offset="0.4897" style="stop-color:#FFFFFF"/>
													<stop  offset="1" style="stop-color:#2C72B8"/>
												</linearGradient>
												<path class="st25" d="M17.8,43.2l-0.1,0.1c-0.1,0.1-0.3,0.2-0.4,0.1l-0.1-0.1"/>
												
													<linearGradient id="SVGID_18_" gradientUnits="userSpaceOnUse" x1="25.0912" y1="61.5052" x2="24.8717" y2="61.632" gradientTransform="matrix(0.8915 0.453 -0.453 0.8915 22.824 -23.3336)">
													<stop  offset="0" style="stop-color:#5B83C2"/>
													<stop  offset="0.4897" style="stop-color:#FFFFFF"/>
													<stop  offset="1" style="stop-color:#2C72B8"/>
												</linearGradient>
												<path class="st26" d="M17.2,42.9L17.2,42.9C17.2,42.9,17.2,42.9,17.2,42.9L17.2,42.9"/>
											</g>
										</g>
									</g>
								</g>
								<g>
									<line class="st6" x1="19" y1="39.8" x2="24.8" y2="42.6"/>
									<line class="st6" x1="18.4" y1="40.9" x2="24.2" y2="43.7"/>
								</g>
							</g>
						</g>
					</g>
				</g>
				
					<ellipse transform="matrix(0.9941 -0.1082 0.1082 0.9941 -3.6926 4.155)" class="st27" cx="36.5" cy="36.1" rx="17.9" ry="17.9"/>
			</g>
		</g>
	</g>
</g>
</svg>
