<?xml version="1.0" encoding="utf-8"?>
<!-- Generator: Adobe Illustrator 25.0.1, SVG Export Plug-In . SVG Version: 6.00 Build 0)  -->
<svg version="1.1" id="Layer_1" xmlns="http://www.w3.org/2000/svg" xmlns:xlink="http://www.w3.org/1999/xlink" x="0px" y="0px"
	 viewBox="0 0 152.5 254.1" style="enable-background:new 0 0 152.5 254.1;" xml:space="preserve">
<style type="text/css">
	.st0{fill:none;stroke:#000000;stroke-width:1.5;stroke-miterlimit:10;}
	.st1{fill:#FFFFFF;stroke:#000000;stroke-width:1.5;stroke-miterlimit:10;}
	.st2{fill-rule:evenodd;clip-rule:evenodd;fill:url(#SVGID_1_);stroke:#000000;stroke-width:1.5;stroke-miterlimit:10;}
	.st3{opacity:0.5;}
	
		.st4{opacity:0.5;fill-rule:evenodd;clip-rule:evenodd;fill:#DEDEDE;stroke:#000000;stroke-width:0.91;stroke-miterlimit:10;enable-background:new    ;}
	.st5{fill:none;}
	.st6{fill-rule:evenodd;clip-rule:evenodd;fill:#FFFFFF;stroke:#000000;stroke-miterlimit:10;}
	.st7{fill:none;stroke:#000000;stroke-width:1.07;stroke-miterlimit:10;}
	.st8{fill:#666666;}
	.st9{fill:none;stroke:#000000;stroke-width:0.57;stroke-linecap:square;stroke-linejoin:bevel;}
	.st10{fill:none;stroke:#FFFFFF;stroke-width:0.57;stroke-linecap:square;stroke-miterlimit:10;}
	.st11{fill:none;stroke:#000000;stroke-width:0.57;stroke-linecap:square;stroke-miterlimit:10;}
	.st12{fill:none;stroke:#F1F1F1;stroke-width:0.57;stroke-linecap:square;stroke-miterlimit:10;}
	.st13{stroke:#F1F1F1;stroke-width:0.57;stroke-linecap:square;stroke-linejoin:bevel;}
	.st14{fill:none;stroke:#FFFFFF;stroke-width:0.92;stroke-linecap:round;stroke-miterlimit:10;}
	.st15{fill:none;stroke:#EAF3FE;stroke-width:0.92;stroke-linecap:round;stroke-miterlimit:10;}
	.st16{fill:none;stroke:#D4E7FC;stroke-width:0.92;stroke-linecap:round;stroke-miterlimit:10;}
	.st17{fill:none;stroke:#BFDBFB;stroke-width:0.92;stroke-linecap:round;stroke-miterlimit:10;}
	.st18{fill:none;stroke:#AACFFA;stroke-width:0.92;stroke-linecap:round;stroke-miterlimit:10;}
	.st19{fill:none;stroke:#95C3F9;stroke-width:0.92;stroke-linecap:round;stroke-miterlimit:10;}
	.st20{fill:none;stroke:#7FB7F8;stroke-width:0.92;stroke-linecap:round;stroke-miterlimit:10;}
	.st21{fill:none;stroke:#6AACF6;stroke-width:0.92;stroke-linecap:round;stroke-miterlimit:10;}
	.st22{fill:none;stroke:#55A0F5;stroke-width:0.92;stroke-linecap:round;stroke-miterlimit:10;}
	.st23{fill:none;stroke:#4094F4;stroke-width:0.92;stroke-linecap:round;stroke-miterlimit:10;}
	.st24{fill:none;stroke:#2B88F3;stroke-width:0.92;stroke-linecap:round;stroke-miterlimit:10;}
	.st25{fill:none;stroke:#157CF1;stroke-width:0.92;stroke-linecap:round;stroke-miterlimit:10;}
	.st26{fill:none;stroke:#0070F0;stroke-width:0.92;stroke-linecap:round;stroke-miterlimit:10;}
	.st27{fill:none;stroke:#9C9C9B;stroke-width:1.21;stroke-miterlimit:10;}
	.st28{fill:#E4E4E4;}
	.st29{fill:none;stroke:#000000;stroke-width:1.21;stroke-miterlimit:10;}
</style>
<path class="st0" d="M36.1,116.2h90.5c11.6,0,21,9.4,21,21v90c0,11.6-9.4,21-21,21H36.1c-11.6,0-21-9.4-21-21v-90
	C15.1,125.6,24.5,116.2,36.1,116.2z"/>
<path class="st1" d="M53,154.3L53,154.3c1.4-2.8,4.9-3.9,7.6-2.5c1.9,1,3.1,3,3.1,5.1l0,0c-0.1,3.1,2.5,5.7,5.6,5.8
	c1.2,0,2.4-0.4,3.4-1.1l0,0c2.6-1.8,6.1-1.2,7.9,1.3c1.3,1.8,1.4,4.1,0.4,6l0,0c-1.5,2.8-0.5,6.2,2.3,7.7c1,0.6,2.2,0.8,3.4,0.6l0,0
	c3.1-0.5,6,1.6,6.5,4.7c0.3,2.2-0.6,4.4-2.5,5.6l0,0c-2.6,1.7-3.3,5.3-1.5,7.9c0.7,1,1.6,1.8,2.8,2.2l0,0c3,1.1,4.5,4.3,3.4,7.3
	c-0.7,2.1-2.6,3.5-4.8,3.7l0,0c-3.1,0.3-5.4,3.1-5,6.3c0.1,1.2,0.6,2.3,1.4,3.2l0,0c2.1,2.4,1.8,5.9-0.5,8c-1.6,1.4-3.8,1.8-5.8,1
	l0,0c-2.9-1.2-6.2,0.3-7.4,3.2c-0.4,1.1-0.5,2.4-0.2,3.5l0,0c0.8,3-1,6.1-4.1,6.9c-2.1,0.5-4.3-0.1-5.7-1.8l0,0
	c-2.1-2.4-5.6-2.6-8-0.6c-0.9,0.8-1.5,1.8-1.8,3l0,0c-0.7,3.1-3.8,5-6.8,4.3c-2.1-0.5-3.8-2.1-4.3-4.3l0,0c-0.7-3.1-3.8-5-6.8-4.2
	c-1.2,0.3-2.2,0.9-3,1.8l0,0c-2,2.4-5.6,2.6-8,0.6c-1.6-1.4-2.3-3.6-1.8-5.7l0,0c0.8-3-1-6.1-4-6.9c-1.2-0.3-2.5-0.2-3.6,0.2l0,0
	c-2.9,1.1-6.2-0.3-7.4-3.2c-0.8-2-0.4-4.3,1.1-5.9l0,0c2.1-2.3,1.9-5.9-0.4-8c-0.9-0.8-2-1.3-3.2-1.4l0,0c-3.1-0.3-5.4-3.1-5.1-6.2
	c0.2-2.2,1.7-4,3.7-4.8l0,0c2.9-1.1,4.5-4.3,3.4-7.3c-0.4-1.1-1.2-2.1-2.2-2.8l0,0c-2.6-1.7-3.3-5.3-1.6-7.9
	c1.2-1.8,3.3-2.8,5.5-2.5l0,0c3.1,0.4,6-1.8,6.4-4.9c0.2-1.2-0.1-2.4-0.6-3.5l0,0c-1.5-2.8-0.5-6.2,2.3-7.7c1.9-1,4.2-0.9,6,0.4l0,0
	c2.5,1.8,6.1,1.3,7.9-1.3c0.7-1,1.1-2.2,1.1-3.4l0,0c0-3.1,2.5-5.7,5.7-5.7c2.1,0,4.1,1.2,5.1,3.1l0,0c1.4,2.8,4.8,3.9,7.6,2.5
	C51.6,156.2,52.5,155.4,53,154.3z"/>
<polygon class="st1" points="71.7,201.1 64.8,207.9 32,214.3 27,188.5 60.5,182 68.9,186.6 "/>
<circle class="st1" cx="62.1" cy="195.2" r="4.1"/>
<path d="M151.5,119.9c-0.4,0-0.8,0.3-0.8,0.8c0,0,0,0,0,0c0,0.4,0.3,0.8,0.7,0.8c0,0,0,0,0,0c0.4,0,0.8-0.3,0.8-0.8c0,0,0,0,0,0
	C152.3,120.2,151.9,119.9,151.5,119.9z"/>
<path d="M146.8,120.7c0,0.4,0.4,0.8,0.8,0.8c0.4,0,0.8-0.3,0.8-0.8c0-0.4-0.4-0.8-0.8-0.8C147.1,119.9,146.8,120.2,146.8,120.7z"/>
<circle cx="143.5" cy="120.7" r="0.8"/>
<path d="M138.8,120.7c0,0.4,0.3,0.8,0.8,0.8s0.8-0.3,0.8-0.8c0-0.4-0.3-0.8-0.8-0.8l0,0C139.1,119.9,138.8,120.2,138.8,120.7z"/>
<path d="M135.5,119.9c-0.4,0-0.8,0.3-0.8,0.8s0.3,0.8,0.8,0.8s0.8-0.3,0.8-0.8l0,0C136.3,120.2,136,119.9,135.5,119.9z"/>
<path d="M128.3,120.7c0-0.4-0.3-0.8-0.8-0.8c-0.4,0-0.8,0.3-0.8,0.8c0,0,0,0,0,0c0,0.4,0.3,0.8,0.8,0.8
	C128,121.4,128.3,121.1,128.3,120.7C128.3,120.7,128.3,120.7,128.3,120.7z"/>
<path d="M123.5,119.9c-0.4,0-0.8,0.4-0.8,0.8c0,0.4,0.3,0.8,0.8,0.8c0.4,0,0.8-0.4,0.8-0.8C124.3,120.2,124,119.9,123.5,119.9z"/>
<circle cx="150.6" cy="113.4" r="0.8"/>
<circle cx="146.7" cy="114.5" r="0.8"/>
<circle cx="142.8" cy="115.5" r="0.8"/>
<path d="M138.2,116.5c0,0.4,0.3,0.8,0.8,0.8c0,0,0,0,0,0c0.4,0,0.8-0.3,0.8-0.8c0-0.4-0.3-0.8-0.7-0.8c0,0,0,0,0,0
	C138.6,115.7,138.2,116.1,138.2,116.5C138.2,116.5,138.2,116.5,138.2,116.5z"/>
<path d="M135.1,116.8c-0.4,0-0.8,0.3-0.8,0.8s0.3,0.8,0.8,0.8s0.8-0.3,0.8-0.8l0,0C135.9,117.1,135.5,116.8,135.1,116.8z"/>
<path d="M131.3,119.4c0.4,0,0.8-0.4,0.8-0.8c0-0.4-0.3-0.8-0.8-0.8c-0.4,0-0.8,0.4-0.8,0.8C130.5,119,130.8,119.4,131.3,119.4z"/>
<path d="M147.8,105.9c-0.4,0-0.8,0.4-0.8,0.8c0,0.4,0.3,0.8,0.8,0.8c0.4,0,0.8-0.4,0.8-0.8C148.5,106.2,148.2,105.9,147.8,105.9z"/>
<circle cx="144.3" cy="108.7" r="0.8"/>
<circle cx="140.8" cy="110.7" r="0.8"/>
<circle cx="137.4" cy="112.7" r="0.8"/>
<path d="M133.9,115.4c0.4,0,0.8-0.3,0.8-0.8c0-0.4-0.4-0.8-0.8-0.8c-0.4,0-0.8,0.3-0.8,0.8C133.1,115.1,133.5,115.4,133.9,115.4z"/>
<circle cx="143.3" cy="100.9" r="0.8"/>
<path d="M140.5,104.5c0.4,0,0.8-0.4,0.8-0.8c0-0.4-0.3-0.8-0.8-0.8c-0.4,0-0.8,0.4-0.8,0.8C139.7,104.1,140.1,104.5,140.5,104.5z"/>
<path d="M137.7,107.3c0.4,0,0.8-0.3,0.8-0.8c0-0.4-0.4-0.8-0.8-0.8c-0.4,0-0.8,0.3-0.8,0.8C136.9,106.9,137.2,107.3,137.7,107.3z"/>
<circle cx="134.8" cy="109.4" r="0.8"/>
<path d="M132,113c0.4,0,0.8-0.3,0.8-0.8c0-0.4-0.3-0.8-0.8-0.8c-0.4,0-0.8,0.3-0.8,0.8c0,0,0,0,0,0C131.2,112.6,131.6,112.9,132,113
	C132,113,132,113,132,113z"/>
<circle cx="129.2" cy="115" r="0.8"/>
<path d="M126.4,118.6c0.4,0,0.8-0.3,0.8-0.8s-0.3-0.8-0.8-0.8c-0.4,0-0.8,0.3-0.8,0.8l0,0C125.6,118.3,125.9,118.6,126.4,118.6z"/>
<path d="M150.6,127.1c-0.4,0-0.8,0.3-0.8,0.8c0,0,0,0,0,0c0,0.4,0.3,0.8,0.8,0.8l0,0c0.4,0,0.8-0.3,0.8-0.8c0,0,0,0,0,0
	C151.3,127.5,151,127.1,150.6,127.1L150.6,127.1z"/>
<path d="M147.5,126.9c0-0.4-0.3-0.8-0.8-0.8s-0.8,0.3-0.8,0.8c0,0.4,0.3,0.8,0.8,0.8l0,0C147.1,127.6,147.5,127.3,147.5,126.9z"/>
<path d="M143.6,125.8c0-0.4-0.3-0.8-0.8-0.8s-0.8,0.3-0.8,0.8c0,0.4,0.3,0.8,0.8,0.8l0,0C143.3,126.6,143.6,126.3,143.6,125.8z"/>
<circle cx="139" cy="124.8" r="0.8"/>
<circle cx="135.1" cy="123.8" r="0.8"/>
<path d="M132,122.7c0-0.4-0.3-0.8-0.8-0.8c-0.4,0-0.7,0.4-0.7,0.9c0,0.4,0.3,0.6,0.7,0.7C131.7,123.5,132,123.2,132,122.7z"/>
<path d="M147.8,133.9c-0.4,0-0.8,0.3-0.8,0.8s0.3,0.8,0.8,0.8s0.8-0.3,0.8-0.8l0,0C148.5,134.2,148.2,133.9,147.8,133.9z"/>
<circle cx="144.3" cy="132.6" r="0.8"/>
<circle cx="140.8" cy="130.6" r="0.8"/>
<path d="M137.4,129.4c0.4,0,0.8-0.3,0.8-0.8s-0.3-0.8-0.8-0.8s-0.8,0.3-0.8,0.8l0,0C136.6,129.1,136.9,129.4,137.4,129.4z"/>
<circle cx="133.9" cy="126.6" r="0.8"/>
<path d="M143.3,139.7c-0.4,0-0.8,0.3-0.8,0.8s0.3,0.8,0.8,0.8s0.8-0.3,0.8-0.8l0,0C144.1,140,143.7,139.7,143.3,139.7z"/>
<path d="M140.5,136.8c-0.4,0-0.8,0.3-0.8,0.8c0,0,0,0,0,0c0,0.4,0.4,0.8,0.8,0.8c0.4,0,0.8-0.3,0.8-0.8
	C141.3,137.2,140.9,136.8,140.5,136.8C140.5,136.8,140.5,136.8,140.5,136.8z"/>
<path d="M137.7,134c-0.4,0-0.8,0.4-0.8,0.8c0,0.4,0.3,0.8,0.7,0.8c0,0,0,0,0,0c0.4,0,0.8-0.3,0.8-0.8c0,0,0,0,0,0
	C138.4,134.4,138.1,134,137.7,134z"/>
<path d="M134.8,131.2c-0.4,0-0.8,0.3-0.8,0.8s0.3,0.8,0.8,0.8s0.8-0.3,0.8-0.8l0,0C135.6,131.5,135.3,131.2,134.8,131.2z"/>
<path d="M132,128.4c-0.4,0-0.8,0.3-0.8,0.8c0,0,0,0,0,0c0,0.4,0.3,0.8,0.8,0.8c0.4,0,0.8-0.3,0.8-0.8c0,0,0,0,0,0
	C132.8,128.7,132.4,128.4,132,128.4C132,128.4,132,128.4,132,128.4z"/>
<path d="M129.2,125.5c-0.4,0-0.8,0.3-0.8,0.8s0.3,0.8,0.8,0.8s0.8-0.3,0.8-0.8l0,0C130,125.9,129.6,125.5,129.2,125.5z"/>
<circle cx="126.4" cy="123.5" r="0.8"/>
<linearGradient id="SVGID_1_" gradientUnits="userSpaceOnUse" x1="102.8437" y1="79.785" x2="102.8437" y2="-1.385" gradientTransform="matrix(1 0 0 -1 0 256)">
	<stop  offset="0.38" style="stop-color:#FFFFFF"/>
	<stop  offset="0.79" style="stop-color:#B8D8FF"/>
</linearGradient>
<path class="st2" d="M118.3,135.5l-0.2,0.2c0.7,0.7,2.1,1.1,3.6,2.6c2,2.5,3.5,5.4,4.4,8.4c1,3.4,0.9,7.9,0.9,12.3s0,8.7,0.1,13v68
	c0,3.1,0.4,6.9-0.9,8.7c-0.4,0.6-0.9,1-1.5,1.4c-0.9,0.6-1.9,1.1-2.9,1.5c-3.5,1-7,1.6-10.6,2c-2,0.2-3.3,0.3-4.6,0.4h-3.7
	c-12.9-0.1-19.9-1.1-22.3-5c-1.4-2.2-1.1-6.2-1.1-9.9c0-6.7,0-13.5-0.1-20.2c-0.2-16.2-0.3-32.3-0.5-48.5l-0.2-14.4
	c-0.1-2.7,0.1-5.5,0.6-8.2c0.7-2.9,2-5.7,3.7-8.2c1.2-1.4,2.5-2.7,3.9-3.8"/>
<g class="st3">
	<path class="st4" d="M86.8,135.8c-0.5-0.1-0.9-0.1-1.4-0.2c0-1.7-0.1-3.9,0-6.5c0-2.7,0.2-5.4,0.6-8.1c0.4-2.2,1-4.3,1.8-6.4
		c0.5-1.1,1.1-2.2,1.8-3.2c6.1-0.2,12.2,0,18.5,0c2.3,0,4.6,0,6.9,0c0.9,1.1,1.6,2.2,2.3,3.4c0.7,1.8,1.2,3.7,1.6,5.6
		c0.5,2.5,0.7,5,0.8,7.5c0.1,1.9,0.2,4.3,0,7.2l-1.4,0.4"/>
	<line class="st5" x1="118.5" y1="135.6" x2="85.5" y2="135.5"/>
	<line class="st5" x1="115.7" y1="136.6" x2="89.6" y2="136.5"/>
</g>
<path class="st6" d="M86.8,135.8c-0.5-0.1-0.9-0.1-1.4-0.2c0-1.7-0.1-3.9,0-6.5c0-2.7,0.2-5.4,0.6-8.1c0.4-2.2,1-4.3,1.8-6.4
	c0.5-1.1,1.1-2.2,1.8-3.2c6.1-0.2,12.2,0,18.5,0c2.3,0,4.6,0,6.9,0c0.9,1.1,1.6,2.2,2.3,3.4c0.7,1.8,1.2,3.7,1.6,5.6
	c0.5,2.5,0.7,5,0.8,7.5c0.1,1.9,0.2,4.3,0,7.2l-1.4,0.4"/>
<line class="st7" x1="118.5" y1="135.6" x2="85.5" y2="135.5"/>
<line class="st7" x1="115.7" y1="136.6" x2="89.6" y2="136.5"/>
<path class="st8" d="M117.1,132.4l-0.2,2.7c-4.7,0.2-9.6,0.2-14.7,0.2s-9.9-0.1-14.6-0.2c-0.1-0.9-0.2-1.7-0.4-2.6L117.1,132.4z"/>
<path class="st8" d="M102.3,129.4c2.2,0.1,4.7,0.1,7.2,0c2.5-0.1,4.8-0.3,7.1-0.5c0.4,0.2,0.8,0.5,1,0.9c0.4,0.7,0.4,1.5,0,2.2
	c-0.1,0.1-0.2,0.3-0.3,0.4l-14.9,0.3"/>
<path class="st9" d="M118.1,126.2c0.1,1.3,0.2,2.6,0.1,3.9"/>
<path class="st8" d="M102.9,129.4c-2.2,0.1-4.7,0.1-7.2,0c-2.5-0.1-4.9-0.3-7.1-0.5c-0.4,0.2-0.8,0.5-1,0.9c-0.4,0.7-0.4,1.5,0,2.2
	c0.1,0.1,0.2,0.3,0.3,0.4l14.9,0.3"/>
<path class="st9" d="M87.1,126.2c-0.1,1.3-0.2,2.6-0.2,3.9"/>
<path class="st10" d="M86.8,132.3c2.4,0.1,4.9,0.2,7.4,0.3c3,0.1,5.8,0.1,8.7,0.1"/>
<path class="st11" d="M118.3,126c-2.4,0.1-4.9,0.2-7.4,0.3c-3,0.1-5.8,0.1-8.7,0.1"/>
<path class="st11" d="M86.8,126c2.4,0.1,4.9,0.2,7.4,0.3c3,0.1,5.8,0.1,8.7,0.1"/>
<path class="st11" d="M116.8,123.3H90.4c0-1.2,0.1-2.3,0.3-3.5c0.4-2.8,1.2-5.6,2.5-8.2"/>
<path class="st11" d="M89.1,123.3c0-1.2,0.1-2.3,0.3-3.5c0.4-2.8,1.2-5.6,2.5-8.2"/>
<line class="st11" x1="114.9" y1="121" x2="93.2" y2="121"/>
<path class="st11" d="M87.9,123.3c0-1.2,0.1-2.3,0.3-3.5c0.4-2.8,1.2-5.6,2.5-8.2"/>
<path class="st11" d="M107.9,123.1v-0.5c0-0.1,0.1-0.1,0.1-0.1h2.7c0.1,0,0.1,0.1,0.1,0.1v0.5c0,0.1-0.1,0.1-0.1,0.1H108
	C108,123.2,107.9,123.2,107.9,123.1z"/>
<path class="st11" d="M94.3,123.1v-0.5c0-0.1,0.1-0.1,0.1-0.1h2.7c0.1,0,0.1,0.1,0.1,0.1v0.5c0,0.1-0.1,0.1-0.1,0.1h-2.7
	C94.3,123.2,94.3,123.2,94.3,123.1z"/>
<path class="st12" d="M118.3,132.3c-2.4,0.1-4.9,0.2-7.4,0.3c-3,0.1-5.8,0.1-8.7,0.1"/>
<path class="st13" d="M94.3,129.3c-2-0.1-3.9-0.2-5.7-0.4c1.2-0.1,2.4-0.2,3.6-0.3c3.6-0.3,7.1-0.4,10.4-0.3c0.1,0,6.6,0,10.4,0.3
	c1.2,0.1,2.4,0.2,3.6,0.3c-1.8,0.2-3.7,0.3-5.8,0.4C107.8,129.5,97.4,129.5,94.3,129.3z"/>
<path d="M111.7,128.9h-0.5c-0.1,0-0.1-0.1-0.1-0.1v-2.4c0-0.1,0.1-0.1,0.1-0.1h0.5c0.1,0,0.1,0.1,0.1,0.1v2.4
	C111.9,128.8,111.8,128.9,111.7,128.9z"/>
<path d="M110.5,129h-0.5c-0.1,0-0.1-0.1-0.1-0.1v-2.4c0-0.1,0.1-0.1,0.1-0.1h0.5c0.1,0,0.1,0.1,0.1,0.1v2.4
	C110.6,128.9,110.5,129,110.5,129z"/>
<path d="M108.2,129h-0.5c-0.1,0-0.1-0.1-0.1-0.1v-2.4c0-0.1,0.1-0.1,0.1-0.1h0.5c0.1,0,0.1,0.1,0.1,0.1v2.4
	C108.3,128.9,108.2,129,108.2,129z"/>
<path d="M93.4,126.3h0.5c0.1,0,0.1,0.1,0.1,0.1v2.4c0,0.1-0.1,0.1-0.1,0.1h-0.5c-0.1,0-0.1-0.1-0.1-0.1v-2.4
	C93.3,126.4,93.3,126.3,93.4,126.3z"/>
<path d="M94.6,126.4h0.5c0.1,0,0.1,0.1,0.1,0.1v2.3c0,0.1-0.1,0.1-0.1,0.1h-0.5c-0.1,0-0.1-0.1-0.1-0.1v-2.3
	C94.5,126.4,94.6,126.4,94.6,126.4z"/>
<path d="M96.9,126.4h0.5c0.1,0,0.1,0.1,0.1,0.1v2.3c0,0.1-0.1,0.1-0.1,0.1h-0.5c-0.1,0-0.1-0.1-0.1-0.1v-2.3
	C96.8,126.4,96.9,126.4,96.9,126.4z"/>
<path d="M101,126.4h3.1c0.1,0,0.3,0.1,0.3,0.3v2.1c0,0.1-0.1,0.3-0.3,0.3H101c-0.1,0-0.3-0.1-0.3-0.3v-2.1
	C100.7,126.5,100.8,126.4,101,126.4z"/>
<path class="st12" d="M118.3,133.8c-2.4,0.1-4.9,0.2-7.4,0.3c-3,0.1-5.8,0.1-8.7,0.1"/>
<path class="st10" d="M86.8,133.8c2.4,0.1,4.9,0.2,7.4,0.3c3,0.1,5.8,0.1,8.7,0.1"/>
<path d="M102.6,193.5L102.6,193.5C102.6,193.5,102.6,193.6,102.6,193.5L102.6,193.5c0.1,0.1,0,0.1,0,0.1h0
	C102.5,193.7,102.5,193.6,102.6,193.5L102.6,193.5C102.5,193.6,102.5,193.5,102.6,193.5z"/>
<path class="st14" d="M101.8,205.3h10.6c5.7,0,10.3-4.6,10.3-10.3v-10.6"/>
<path class="st15" d="M119.7,184.4v9.7c0,5.2-4.2,9.4-9.4,9.4h0h-9.7"/>
<path class="st16" d="M116.8,184.5v8.8c0,4.7-3.8,8.6-8.6,8.6h-8.9"/>
<path class="st17" d="M113.8,184.5v8c0,4.3-3.5,7.7-7.7,7.7h-7.9"/>
<path class="st18" d="M110.8,184.5v7.1c0,3.8-3.1,6.9-6.9,6.9l0,0h-7"/>
<path class="st19" d="M107.8,184.5v6.2c0,3.3-2.7,6-6,6h-6.2"/>
<path class="st20" d="M104.8,184.5v5.3c0,2.8-2.3,5.2-5.2,5.2h0h-5.3"/>
<path class="st21" d="M101.9,184.5v4.4c0,2.4-1.9,4.3-4.3,4.3c0,0,0,0,0,0h-4.4"/>
<path class="st22" d="M98.9,184.5v3.6c0,1.9-1.5,3.5-3.5,3.5c0,0,0,0,0,0h-3.6"/>
<path class="st23" d="M95.9,184.5v2.7c0,1.4-1.2,2.6-2.6,2.6l0,0h-2.7"/>
<path class="st24" d="M93,184.5v1.8c0,1-0.8,1.8-1.7,1.8c0,0,0,0,0,0h-1.8"/>
<path class="st25" d="M90,184.5v0.9c0,0.5-0.4,0.9-0.9,0.9c0,0,0,0,0,0h-0.9"/>
<path class="st26" d="M87,184.6L87,184.6C87,184.6,87,184.6,87,184.6L87,184.6"/>
<path d="M91.3,157.4c-0.8-0.5-1.7-0.7-2.6-0.7c-0.9,0-1.8,0.2-2.6,0.7c-0.8,0.5-1.4,1.1-1.8,1.9c-0.4,0.9-0.7,1.8-0.6,2.8
	c0,1,0.2,1.9,0.7,2.8c0.4,0.8,1.1,1.5,1.9,1.9c0.9,0.5,1.8,0.7,2.8,0.7c0.6,0,1.3-0.1,1.9-0.4c0.6-0.2,1.1-0.5,1.6-0.9
	c0.2-0.1,0.3-0.4,0.3-0.6c0-0.2-0.1-0.5-0.3-0.6c-0.2-0.1-0.4-0.2-0.6-0.2c-0.2,0-0.4,0.1-0.6,0.2c-0.3,0.3-0.6,0.4-1,0.6
	c-0.4,0.1-0.9,0.2-1.3,0.2c-0.7,0-1.3-0.2-1.9-0.5c-0.9-0.6-1.6-1.5-1.7-2.6h7.3c0.2,0,0.4-0.1,0.6-0.2c0.2-0.2,0.3-0.4,0.2-0.6
	c0-0.9-0.2-1.9-0.6-2.7C92.6,158.5,92,157.9,91.3,157.4z M91.9,161.2h-6.5c0.1-0.4,0.2-0.7,0.3-1.1c0.3-0.5,0.7-1,1.2-1.3
	c0.5-0.3,1.2-0.5,1.8-0.5c0.6,0,1.2,0.1,1.7,0.5c0.5,0.3,0.9,0.8,1.1,1.3C91.8,160.5,91.9,160.9,91.9,161.2L91.9,161.2z"/>
<path d="M122.2,159c-0.4-0.7-1-1.3-1.7-1.7c-0.8-0.4-1.6-0.6-2.5-0.6c-0.8,0-1.6,0.2-2.3,0.6c-0.3,0.2-0.7,0.4-0.9,0.7v-0.2
	c0-0.5-0.3-0.9-0.8-0.9c0,0-0.1,0-0.1,0c-0.2,0-0.5,0.1-0.7,0.2c-0.2,0.2-0.3,0.4-0.2,0.7v8.8c0,0.2,0.1,0.5,0.2,0.6
	c0.2,0.2,0.4,0.3,0.7,0.2c0.5,0,0.9-0.3,0.9-0.8c0,0,0-0.1,0-0.1V161c0-0.5,0.1-0.9,0.4-1.3c0.3-0.4,0.7-0.7,1.1-0.9
	c0.5-0.2,1-0.3,1.6-0.3c0.6,0,1.1,0.1,1.6,0.4c0.5,0.2,0.9,0.6,1.1,1.1c0.3,0.6,0.4,1.2,0.4,1.8v4.9c0,0.2,0.1,0.5,0.2,0.6
	c0.2,0.2,0.4,0.3,0.7,0.2c0.2,0,0.5-0.1,0.6-0.2c0.2-0.2,0.3-0.4,0.3-0.6v-4.9C122.9,160.7,122.6,159.8,122.2,159z"/>
<path d="M108,154.7c-0.5,0-0.8,0.4-0.8,0.9l0,0c0,0.2,0.1,0.4,0.2,0.6c2.4,2.4,2.4,6.2,0,8.6c-1.1,1.1-2.7,1.8-4.3,1.8
	c-3.3,0-6.1-2.7-6.1-6.1c0-1.6,0.6-3.1,1.8-4.3c1.1-1.1,2.7-1.8,4.3-1.8l0,0v2.5l3.3-3.2l-3.3-3.3v2.4l0,0c-4.3,0-7.7,3.5-7.7,7.8
	c0,4.3,3.5,7.7,7.8,7.7c4.3,0,7.7-3.5,7.7-7.8c0-2.1-0.8-4-2.3-5.5C108.5,154.7,108.3,154.6,108,154.7z"/>
<line class="st27" x1="84.1" y1="212.7" x2="110.2" y2="212.7"/>
<line class="st27" x1="84.1" y1="217.2" x2="107.9" y2="217.3"/>
<line class="st27" x1="84.1" y1="221.8" x2="107.9" y2="221.8"/>
<rect x="84" y="227.9" class="st28" width="24.4" height="10.8"/>
<rect x="113.6" y="243.6" class="st28" width="8.7" height="2.2"/>
<line class="st29" x1="84.3" y1="184.9" x2="86" y2="184.9"/>
<line class="st29" x1="84.3" y1="190.2" x2="89.8" y2="190.2"/>
<line class="st29" x1="84.3" y1="195.4" x2="93.5" y2="195.4"/>
<line class="st29" x1="84.3" y1="200.6" x2="97.3" y2="200.6"/>
<line class="st29" x1="84.3" y1="205.9" x2="101" y2="205.9"/>
<path d="M90.6,188.9h-0.8c-0.2,0-0.4-0.2-0.3-0.5c0-0.2,0.2-0.3,0.3-0.3h0.8c0.2,0,0.4,0.2,0.4,0.4c0,0,0,0,0,0
	C90.9,188.7,90.8,188.8,90.6,188.9z"/>
<path d="M96.6,192.4h-0.8c-0.2,0-0.4-0.2-0.4-0.4c0,0,0,0,0,0c0-0.2,0.2-0.4,0.4-0.4c0,0,0,0,0,0h0.8c0.2,0,0.4,0.2,0.3,0.5
	C96.9,192.2,96.8,192.3,96.6,192.4z"/>
<path d="M102.7,195.8h-0.8c-0.2,0-0.4-0.2-0.4-0.4c0-0.2,0.2-0.4,0.4-0.4c0,0,0,0,0,0h0.8c0.2,0,0.4,0.2,0.4,0.4
	S102.9,195.8,102.7,195.8C102.7,195.8,102.7,195.8,102.7,195.8z M96.1,195.8h-0.8c-0.2,0-0.4-0.2-0.3-0.5c0-0.2,0.2-0.3,0.3-0.3h0.8
	c0.2,0,0.4,0.2,0.4,0.4c0,0,0,0,0,0C96.5,195.7,96.3,195.8,96.1,195.8z"/>
<path d="M108.8,199.3H108c-0.2,0-0.4-0.1-0.5-0.3c0-0.2,0.1-0.4,0.3-0.5c0,0,0.1,0,0.1,0h0.8c0.2,0,0.4,0.1,0.5,0.3
	c0,0.2-0.1,0.4-0.3,0.5C108.8,199.3,108.8,199.3,108.8,199.3z M102.2,199.3h-0.8c-0.2,0-0.4-0.2-0.3-0.5c0-0.2,0.2-0.3,0.3-0.3h0.8
	c0.2,0,0.4,0.2,0.3,0.5C102.5,199.1,102.4,199.3,102.2,199.3z"/>
<path d="M114.8,202.8H114c-0.2,0-0.4-0.2-0.3-0.5c0-0.2,0.2-0.3,0.3-0.3h0.8c0.2,0,0.4,0.2,0.3,0.5
	C115.1,202.7,114.9,202.8,114.8,202.8z M108.2,202.8h-0.8c-0.2,0-0.4-0.2-0.4-0.4s0.2-0.4,0.4-0.4c0,0,0,0,0,0h0.8
	c0.2,0,0.4,0.2,0.4,0.4C108.6,202.6,108.4,202.8,108.2,202.8C108.2,202.8,108.2,202.8,108.2,202.8z"/>
<path d="M120.8,206.3H120c-0.2,0-0.4-0.2-0.4-0.4s0.2-0.4,0.4-0.4c0,0,0,0,0,0h0.8c0.2,0,0.4,0.2,0.4,0.4
	C121.2,206.1,121,206.3,120.8,206.3C120.8,206.3,120.8,206.3,120.8,206.3z M114.3,206.3h-0.8c-0.2,0-0.4-0.2-0.4-0.4c0,0,0,0,0,0
	c0-0.2,0.2-0.4,0.4-0.4h0.8c0.2,0,0.4,0.2,0.4,0.4C114.7,206.1,114.5,206.3,114.3,206.3C114.3,206.3,114.3,206.3,114.3,206.3z
	 M107.8,206.3H107c-0.2,0-0.4-0.2-0.3-0.5c0-0.2,0.2-0.3,0.3-0.3h0.8c0.2,0,0.4,0.2,0.3,0.5C108.1,206.1,107.9,206.3,107.8,206.3z"
	/>
<path d="M84.5,184.7h0.2c0.1,0,0.2,0.1,0.2,0.2v0c0,0.1-0.1,0.2-0.2,0.2h-0.2c-0.1,0-0.2-0.1-0.2-0.2v0
	C84.3,184.8,84.4,184.7,84.5,184.7z"/>
<line class="st27" x1="84.3" y1="171.7" x2="108.1" y2="171.7"/>
<line class="st27" x1="84.3" y1="176.2" x2="108.1" y2="176.3"/>
<line class="st0" x1="54.2" y1="29.6" x2="54.2" y2="18.6"/>
<line class="st0" x1="54.2" y1="108" x2="54.2" y2="97"/>
<line class="st0" x1="31.2" y1="38.6" x2="23.6" y2="30.6"/>
<line class="st0" x1="20.5" y1="60.9" x2="9.5" y2="60.2"/>
<line class="st0" x1="25.4" y1="81.1" x2="16.7" y2="87.9"/>
<line class="st0" x1="77.2" y1="42.7" x2="84.6" y2="34.5"/>
<line class="st0" x1="87.8" y1="60.9" x2="98.8" y2="60.2"/>
<line class="st0" x1="88.8" y1="85.6" x2="79.2" y2="80.1"/>
<line class="st0" x1="107.4" y1="0.3" x2="107.4" y2="11.1"/>
<line class="st0" x1="107.4" y1="20.2" x2="107.4" y2="30.9"/>
<line class="st0" x1="92.1" y1="15.6" x2="102.9" y2="15.6"/>
<line class="st0" x1="112" y1="15.6" x2="122.8" y2="15.6"/>
<path class="st1" d="M53.1,67.7l-1.9,1c-1.1,0.6-2.4,0.2-3-0.9c-0.2-0.4-0.3-0.9-0.2-1.4l0.3-2.1c0.1-0.7-0.1-1.5-0.6-2l-1.5-1.5
	c-0.9-0.9-0.9-2.3,0-3.1c0.3-0.4,0.8-0.6,1.3-0.7l2.1-0.3c0.7-0.1,1.4-0.6,1.7-1.2l0.9-1.9c0.5-1.1,1.9-1.6,3-1c0.5,0.2,0.8,0.6,1,1
	l0.9,1.9c0.3,0.7,0.9,1.1,1.6,1.2l2.1,0.3c1.2,0.2,2.1,1.3,1.9,2.5c-0.1,0.5-0.3,0.9-0.7,1.3l-1.5,1.4c-0.5,0.5-0.8,1.3-0.6,2
	l0.4,2.1c0.2,1.2-0.6,2.4-1.8,2.6c-0.5,0.1-1,0-1.4-0.2l-1.9-1C54.5,67.4,53.8,67.4,53.1,67.7z"/>
</svg>
