<svg xmlns="http://www.w3.org/2000/svg" viewBox="0 0 38.71 38.71">
  <defs>
    <style>
      .cls-1 {
        fill: #4d73a8;
      }

      .cls-2 {
        fill: #fff;
      }
    </style>
  </defs>
  <g id="Layer_2" data-name="Layer 2">
    <g id="Layer_1-2" data-name="Layer 1">
      <rect class="cls-1" width="38.71" height="38.71" rx="3.98" />
      <polygon class="cls-2"
        points="4.97 25.83 4.97 13.48 12.61 13.48 12.61 15.57 7.22 15.57 7.22 18.49 11.87 18.49 11.87 20.58 7.22 20.58 7.22 25.83 4.97 25.83" />
      <path class="cls-2"
        d="M14.45,13.48h4.11a7.23,7.23,0,0,1,2.12.23,3.71,3.71,0,0,1,1.68,1.14,5.36,5.36,0,0,1,1.06,2,9.88,9.88,0,0,1,.37,2.92,9.05,9.05,0,0,1-.34,2.63,5.63,5.63,0,0,1-1.2,2.18,3.81,3.81,0,0,1-1.58,1,6.43,6.43,0,0,1-2,.26H14.45Zm2.25,2.09v8.18h1.68a6.2,6.2,0,0,0,1.36-.12,2.11,2.11,0,0,0,.91-.51,2.9,2.9,0,0,0,.59-1.19,8.92,8.92,0,0,0,.22-2.24,8.56,8.56,0,0,0-.22-2.2,3,3,0,0,0-.64-1.19,2,2,0,0,0-1-.58,8.19,8.19,0,0,0-1.85-.12Z" />
      <path class="cls-2"
        d="M35.74,25.83H33.29l-1-2.8H27.87L27,25.83H24.56L28.9,13.48h2.38ZM31.6,20.94,30,16.36l-1.5,4.58Z" />
    </g>
  </g>
</svg>