<?xml version="1.0" encoding="utf-8"?>
<!-- Generator: Adobe Illustrator 24.3.0, SVG Export Plug-In . SVG Version: 6.00 Build 0)  -->
<svg version="1.1" id="Layer_1" xmlns="http://www.w3.org/2000/svg" xmlns:xlink="http://www.w3.org/1999/xlink" x="0px"
	y="0px" viewBox="0 0 36.6 31.2" style="enable-background:new 0 0 36.6 31.2;" xml:space="preserve">
	<style type="text/css">
		.st0 {
			fill: #ea001f;
		}

		.st1 {
			fill: #4073b2;
		}

		.st2 {
			fill: #FFFFFF;
		}
	</style>
	<g>
		<path class="st0" d="M21.3,2.6L21.3,2.6L21,2.9h13.3c-0.1-0.1-0.2-0.2-0.2-0.3C30.5-0.9,24.8-0.9,21.3,2.6z" />
		<path class="st0" d="M18.3,10h18.3c0.1-1.2,0-2.4-0.3-3.6h-18V10z" />
		<path class="st0" d="M18.2,17.2L18.2,17.2l14.1,0l1.7-1.7c0.6-0.6,1.1-1.2,1.5-1.9H18.3L18.2,17.2L18.2,17.2z" />
		<polygon class="st0" points="7.9,20.8 11.5,24.4 25.1,24.4 28.7,20.8 	" />
		<polygon class="st0" points="21.2,28.3 15.4,28.3 18.3,31.2 	" />
		<path class="st1" d="M18.3,5.5l-2.8-2.8c0,0,0,0-0.1-0.1L15,2.9l0.4,1.5l-1.3-0.8l-1.2,0.8l0.4-1.5l-1.1-1h1.4l0.2-0.6
		C11.2-0.2,8-0.4,5.3,0.8L5.8,2h1.4l-1.1,1l0.4,1.5L5.2,3.6L4,4.4l0.4-1.5L3.4,2C3.1,2.2,2.9,2.4,2.7,2.6l0,0h0
		C2.3,3,1.9,3.5,1.6,3.9l0.1,0.5L1.4,4.2c-0.6,1-1,2-1.3,3.1h1.1l0.5-1.5l0.6,1.5h1.4l-1.1,1l0.4,1.5L1.8,8.9L0.6,9.8L1,8.3L0.1,7.5
		c-0.2,1.3-0.2,2.7,0.2,4l0.1-0.4L1,12.6h1.4l-1.1,1l0.1,0.5c0.3,0.5,0.7,1,1.1,1.4l1.7,1.7h13.9h0.1v-3.6V10V6.4V5.5z M13,7.3
		l-1.1,1l0.4,1.5L11,8.9L9.8,9.8l0.4-1.5l-1.1-1h1.4L11,5.8l0.6,1.5H13z M9.2,2l0.5-1.5L10.3,2h1.4l-1.1,1L11,4.4L9.7,3.6L8.5,4.4
		l0.4-1.5L7.8,2H9.2z M6,7.3l0.5-1.5l0.6,1.5h1.4l-1.1,1l0.4,1.5L6.5,8.9L5.3,9.8l0.4-1.5l-1.1-1H6z M6.5,15.1l-1.3-0.8L4,15.1
		l0.4-1.5l-1.1-1h1.4l0.5-1.5l0.6,1.5h1.4l-1.1,1L6.5,15.1z M11,15.1l-1.3-0.8l-1.2,0.8l0.4-1.5l-1.1-1h1.4l0.5-1.5l0.6,1.5h1.4
		l-1.1,1L11,15.1z M15.4,15.1l-1.3-0.8l-1.2,0.8l0.4-1.5l-1.1-1h1.4l0.5-1.5l0.6,1.5h1.4l-1.1,1L15.4,15.1z M16.7,9.8l-1.3-0.8
		l-1.2,0.8l0.4-1.5l-1.1-1h1.4l0.5-1.5L16,7.3h1.4l-1.1,1L16.7,9.8z" />
		<path class="st1" d="M5,1C4.5,1.2,3.9,1.6,3.5,2h1.2L5,1z" />
		<path class="st2" d="M1.6,3.9C1.6,4,1.5,4.1,1.4,4.2l0.3,0.2L1.6,3.9z" />
		<path class="st2" d="M4,4.4l1.2-0.8l1.3,0.8L6.1,2.9l1.1-1H5.8L5.3,0.8C5.2,0.9,5.1,0.9,5,1L4.7,2H3.5C3.4,2,3.4,2,3.4,2l1,0.9
		L4,4.4z" />
		<polygon class="st2" points="8.5,4.4 9.7,3.6 11,4.4 10.6,2.9 11.7,2 10.3,2 9.7,0.5 9.2,2 7.8,2 8.9,2.9 	" />
		<path class="st2" d="M12.2,2l1.1,1l-0.4,1.5l1.2-0.8l1.3,0.8L15,2.9l0.4-0.3c-0.5-0.5-1-0.9-1.6-1.2L13.6,2H12.2z" />
		<path class="st2" d="M2.4,12.6H1l-0.6-1.5l-0.1,0.4c0.2,0.9,0.6,1.7,1.2,2.5l-0.1-0.5L2.4,12.6z" />
		<polygon class="st2"
			points="5.8,12.6 5.2,11.2 4.7,12.6 3.3,12.6 4.4,13.6 4,15.1 5.2,14.3 6.5,15.1 6.1,13.6 7.2,12.6 	" />
		<polygon class="st2"
			points="10.3,12.6 9.7,11.2 9.2,12.6 7.8,12.6 8.9,13.6 8.5,15.1 9.7,14.3 11,15.1 10.6,13.6 11.7,12.6 	" />
		<polygon class="st2" points="14.7,12.6 14.1,11.2 13.6,12.6 12.2,12.6 13.3,13.6 12.9,15.1 14.1,14.3 15.4,15.1 15,13.6 16.1,12.6 
			" />
		<path class="st2"
			d="M0.6,9.8l1.2-0.8l1.3,0.8L2.7,8.3l1.1-1H2.4L1.8,5.8L1.3,7.3H0.2c0,0.1,0,0.2,0,0.2L1,8.3L0.6,9.8z" />
		<polygon class="st2" points="5.3,9.8 6.5,8.9 7.8,9.8 7.4,8.3 8.5,7.3 7.1,7.3 6.5,5.8 6,7.3 4.6,7.3 5.7,8.3 	" />
		<polygon class="st2" points="11,5.8 10.5,7.3 9.1,7.3 10.2,8.3 9.8,9.8 11,8.9 12.3,9.8 11.9,8.3 13,7.3 11.6,7.3 	" />
		<polygon class="st2"
			points="16,7.3 15.5,5.8 14.9,7.3 13.5,7.3 14.6,8.3 14.3,9.8 15.5,8.9 16.7,9.8 16.4,8.3 17.4,7.3 	" />
	</g>
</svg>