<svg xmlns="http://www.w3.org/2000/svg" viewBox="0 0 289.59 320.7"><defs><style>.cls-1,.cls-3{fill:#fff;}.cls-1,.cls-2,.cls-3,.cls-6{stroke:#000;}.cls-1,.cls-6{stroke-linecap:square;}.cls-1,.cls-2,.cls-3,.cls-5,.cls-6{stroke-miterlimit:10;}.cls-2,.cls-5,.cls-6{fill:none;}.cls-4{opacity:0.5;}.cls-5{stroke:#4d73a9;}</style></defs><g id="Layer_2" data-name="Layer 2"><g id="BG"><path class="cls-1" d="M169.37,261.79c-9.48,3.75-22-1.72-22-1.72-20.45-16.41-39.93-13.24-47.74-8.5-6.66,4.22-5.16,14.75,6.51,21.1,4.06,2.21,37.11,22.62,45,25.2s28.5,2.33,37.86,4.48c10,1.25,50.17-1.17,50.17-1.17L267.11,320"/><path class="cls-2" d="M53.44,214s-23.93-20.28-32.92-32.9C11.89,169,32.35,166,47.2,184.83"/><path class="cls-2" d="M51.26,185.33s-8.43-22.24-8.9-36,15.94-8.54,19.49,7.55c3.13,14.19,6.89,21.64,8.7,24.63"/><path class="cls-2" d="M81.14,178.63S70.26,160.86,68.78,143.4C67.36,126.6,82.5,132.75,86,147.6c2.94,12.67,13.52,27.45,14.73,27.3"/><path class="cls-2" d="M106.48,172.93s-6.19-13.7-5.88-25.68S113,143.59,115.05,157c1.58,10,5.79,12.82,5.79,12.82"/><path class="cls-3" d="M258.81,231.32A71.15,71.15,0,0,1,288.61,259"/><g class="cls-4"><path class="cls-1" d="M224.78,206.81c-6.22,3.5-15.33,11.32-19.13,13.64s-31,6.08-44.28,14.49c-12.92,8.16-7.54,19.49-7.54,19.49s3.6,10.85,20.73,6.2c11.92-3.32,35.71-11.39,49.93-13,17.62-1.9,24.2-6.29,33.64-27.35,6.19-13.83,30.78-26.82,30.78-26.82"/><path class="cls-1" d="M288.61,125.53s-35.3,21.38-53.87,27.78c-17.56,7.08-82.09,6.38-95.45,10.65-12.91,5.83-88.18,22.09-96.87,22.75a3.25,3.25,0,0,0-1.84.85c-2.43,2.33-1.28,9.53,2.46,12.6,2.68,2.2,6.15,1.83,7.89,1.59,14-1.93,43.73-6.28,48.56-7.43"/><path class="cls-1" d="M114.11,189.47c-4,1.26-9.74,3.1-16.45,5.51-10.48,3.75-18.2,6.55-25.91,10.43-8.47,4.27-7.15,4.75-22.87,14.85-16.27,12.67-22.34,15.69-23,21.33.18,3.25,3.87,5.83,7.17,7.39"/><path class="cls-1" d="M137.78,199.5c-6,2.55-31.12,9.64-53.53,21.2-23.88,12.3-47.74,26.6-54,31.76a9.08,9.08,0,0,0-3.05,5.78c.06,2.92,5,6.12,9.27,6.75,5.3,1.06,10-1.43,11.27-2.1C53.88,259.13,67,252,85.31,241.72,101.2,233,139,223.9,161.67,216.49"/><path class="cls-1" d="M96.31,261.73c-7.39,3.34-12.89,5.59-17,7.18-.63.24-2.2,1-4.44,1.68h0a28.63,28.63,0,0,1-16.09.87c-5-1.32-10.83-4.71-10.26-7.44a8,8,0,0,1,1.06-2.3"/><line class="cls-1" x1="126.61" y1="249.23" x2="154.11" y2="243.82"/><path class="cls-1" d="M160.85,190.08s8-5.38,22.86-2.5"/></g><path class="cls-3" d="M232.13,246.51s24,0,32.8,21.46"/><line class="cls-5" x1="87.55" y1="1.32" x2="87.55" y2="35.96"/><line class="cls-5" x1="87.55" y1="59" x2="87.55" y2="93.64"/><line class="cls-5" x1="41.39" y1="47.48" x2="76.03" y2="47.48"/><line class="cls-5" x1="99.06" y1="47.48" x2="133.71" y2="47.48"/><line class="cls-5" x1="23.08" x2="23.08" y2="17.32"/><line class="cls-5" x1="23.08" y1="28.84" x2="23.08" y2="46.16"/><line class="cls-5" y1="23.08" x2="17.32" y2="23.08"/><line class="cls-5" x1="28.84" y1="23.08" x2="46.16" y2="23.08"/><path class="cls-6" d="M224.78,206.81c-6.22,3.5-15.33,11.32-19.13,13.64s-31,6.08-44.28,14.49c-12.92,8.16-7.54,19.49-7.54,19.49s3.6,10.85,20.73,6.2c11.92-3.32,35.71-11.39,49.93-13,17.62-1.9,24.2-6.29,33.64-27.35,6.19-13.83,30.78-26.82,30.78-26.82"/><path class="cls-6" d="M288.61,125.53s-35.3,21.38-53.87,27.78c-17.56,7.08-82.09,6.38-95.45,10.65-12.91,5.83-88.18,22.09-96.87,22.75a3.25,3.25,0,0,0-1.84.85c-2.43,2.33-1.28,9.53,2.46,12.6,2.68,2.2,6.15,1.83,7.89,1.59,14-1.93,43.73-6.28,48.56-7.43"/><path class="cls-6" d="M114.11,189.47c-4,1.26-9.74,3.1-16.45,5.51-10.48,3.75-18.2,6.55-25.91,10.43-8.47,4.27-7.15,4.75-22.87,14.85-16.27,12.67-22.34,15.69-23,21.33.18,3.25,3.87,5.83,7.17,7.39"/><path class="cls-6" d="M137.78,199.5c-6,2.55-31.12,9.64-53.53,21.2-23.88,12.3-47.74,26.6-54,31.76a9.08,9.08,0,0,0-3.05,5.78c.06,2.92,5,6.12,9.27,6.75,5.3,1.06,10-1.43,11.27-2.1C53.88,259.13,67,252,85.31,241.72,101.2,233,139,223.9,161.67,216.49"/><path class="cls-6" d="M96.31,261.73c-7.39,3.34-12.89,5.59-17,7.18-.63.24-2.2,1-4.44,1.68h0a28.63,28.63,0,0,1-16.09.87c-5-1.32-10.83-4.71-10.26-7.44a8,8,0,0,1,1.06-2.3"/><line class="cls-6" x1="126.61" y1="249.23" x2="154.11" y2="243.82"/><path class="cls-6" d="M160.85,190.08s8-5.38,22.86-2.5"/></g></g></svg>