<svg xmlns="http://www.w3.org/2000/svg" viewBox="0 0 55.95 31.64"><defs><style>.cls-1{fill:#fff;}.cls-2{fill:#be353b;}.cls-3{fill:#4d73a8;}</style></defs><g id="Layer_2" data-name="Layer 2"><g id="Layer_1-2" data-name="Layer 1"><rect class="cls-1" width="55.95" height="31.63"/><rect class="cls-2" x="25" width="30.95" height="3.51"/><rect class="cls-2" x="25" y="6.9" width="30.95" height="3.51"/><rect class="cls-2" x="25" y="13.82" width="30.95" height="3.51"/><rect class="cls-2" y="20.85" width="55.95" height="3.51"/><rect class="cls-2" y="28.13" width="55.95" height="3.51"/><rect class="cls-3" width="25.06" height="17.33"/><polygon class="cls-1" points="1.32 2.58 2.69 2.58 3.19 1.14 3.75 2.58 5.1 2.58 4.07 3.52 4.45 4.95 3.21 4.15 2.05 4.95 2.39 3.52 1.32 2.58"/><polygon class="cls-1" points="5.9 2.58 7.27 2.58 7.77 1.14 8.33 2.58 9.68 2.58 8.65 3.52 9.03 4.95 7.79 4.15 6.63 4.95 6.97 3.52 5.9 2.58"/><polygon class="cls-1" points="10.48 2.58 11.85 2.58 12.35 1.14 12.91 2.58 14.26 2.58 13.23 3.52 13.61 4.95 12.37 4.15 11.21 4.95 11.55 3.52 10.48 2.58"/><polygon class="cls-1" points="14.85 2.58 16.22 2.58 16.72 1.14 17.27 2.58 18.63 2.58 17.6 3.52 17.98 4.95 16.74 4.15 15.58 4.95 15.92 3.52 14.85 2.58"/><polygon class="cls-1" points="19.15 2.58 20.52 2.58 21.02 1.14 21.57 2.58 22.93 2.58 21.9 3.52 22.28 4.95 21.04 4.15 19.88 4.95 20.22 3.52 19.15 2.58"/><polygon class="cls-1" points="1.32 12.94 2.69 12.94 3.19 11.5 3.75 12.94 5.1 12.94 4.07 13.88 4.45 15.31 3.21 14.51 2.05 15.31 2.39 13.88 1.32 12.94"/><polygon class="cls-1" points="5.9 12.94 7.27 12.94 7.77 11.5 8.33 12.94 9.68 12.94 8.65 13.88 9.03 15.31 7.79 14.51 6.63 15.31 6.97 13.88 5.9 12.94"/><polygon class="cls-1" points="10.48 12.94 11.85 12.94 12.35 11.5 12.91 12.94 14.26 12.94 13.23 13.88 13.61 15.31 12.37 14.51 11.21 15.31 11.55 13.88 10.48 12.94"/><polygon class="cls-1" points="14.85 12.94 16.22 12.94 16.72 11.5 17.27 12.94 18.63 12.94 17.6 13.88 17.98 15.31 16.74 14.51 15.58 15.31 15.92 13.88 14.85 12.94"/><polygon class="cls-1" points="19.15 12.94 20.52 12.94 21.02 11.5 21.57 12.94 22.93 12.94 21.9 13.88 22.28 15.31 21.04 14.51 19.88 15.31 20.22 13.88 19.15 12.94"/><polygon class="cls-1" points="2.62 7.76 3.99 7.76 4.49 6.32 5.04 7.76 6.4 7.76 5.37 8.7 5.75 10.13 4.51 9.33 3.35 10.13 3.69 8.7 2.62 7.76"/><polygon class="cls-1" points="7.2 7.76 8.57 7.76 9.07 6.32 9.62 7.76 10.98 7.76 9.95 8.7 10.33 10.13 9.09 9.33 7.93 10.13 8.27 8.7 7.2 7.76"/><polygon class="cls-1" points="11.78 7.76 13.15 7.76 13.65 6.32 14.2 7.76 15.56 7.76 14.53 8.7 14.91 10.13 13.67 9.33 12.51 10.13 12.85 8.7 11.78 7.76"/><polygon class="cls-1" points="16.14 7.76 17.51 7.76 18.02 6.32 18.57 7.76 19.93 7.76 18.9 8.7 19.28 10.13 18.04 9.33 16.88 10.13 17.21 8.7 16.14 7.76"/><polygon class="cls-1" points="20.44 7.76 21.81 7.76 22.31 6.32 22.87 7.76 24.23 7.76 23.19 8.7 23.57 10.13 22.33 9.33 21.17 10.13 21.51 8.7 20.44 7.76"/></g></g></svg>