<svg xmlns="http://www.w3.org/2000/svg" xmlns:xlink="http://www.w3.org/1999/xlink" viewBox="0 0 317.74 302.74"><defs><style>.cls-1,.cls-2,.cls-5,.cls-7{fill:none;}.cls-11,.cls-2,.cls-3,.cls-4,.cls-5,.cls-6{stroke:#000;}.cls-2,.cls-3{stroke-linecap:square;}.cls-11,.cls-2,.cls-3,.cls-4,.cls-5,.cls-6,.cls-7{stroke-miterlimit:10;}.cls-3,.cls-4{fill:#fff;}.cls-3{opacity:0.5;}.cls-6{stroke-width:0.5px;}.cls-7{stroke:#c6c6c5;}.cls-8{fill:#e0e0e0;}.cls-9{clip-path:url(#clip-path);}.cls-10{fill:#2e72af;}</style><clipPath id="clip-path"><rect class="cls-1" x="56.82" y="44.64" width="54.53" height="32.85" transform="translate(110.84 -39.35) rotate(68.93)"/></clipPath></defs><g id="Layer_2" data-name="Layer 2"><g id="BG"><circle cx="232.21" cy="165.49" r="4.27"/><circle cx="226.65" cy="151.05" r="4.27"/><circle cx="221.09" cy="136.62" r="4.27"/><circle cx="215.53" cy="122.18" r="4.27"/><circle cx="209.97" cy="107.75" r="4.27"/><circle cx="198.85" cy="78.88" r="4.27"/><circle cx="193.29" cy="64.45" r="4.27"/><circle cx="257.03" cy="151.98" r="4.27"/><circle cx="247.93" cy="139.47" r="4.27"/><circle cx="238.82" cy="126.97" r="4.27"/><circle cx="229.71" cy="114.46" r="4.27"/><circle cx="220.6" cy="101.96" r="4.27"/><circle cx="211.5" cy="89.45" r="4.27"/><circle cx="277.51" cy="132.49" r="4.27"/><circle cx="265.48" cy="122.77" r="4.27"/><circle cx="253.45" cy="113.05" r="4.27"/><circle cx="241.42" cy="103.33" r="4.27"/><circle cx="229.39" cy="93.61" r="4.27"/><circle cx="292.25" cy="108.38" r="4.27"/><circle cx="278.12" cy="102.1" r="4.27"/><circle cx="263.98" cy="95.82" r="4.27"/><circle cx="249.84" cy="89.55" r="4.27"/><circle cx="235.7" cy="83.27" r="4.27"/><circle cx="221.56" cy="77" r="4.27"/><circle cx="207.43" cy="70.73" r="4.27"/><circle cx="204.73" cy="172.12" r="4.27"/><circle cx="203.09" cy="156.74" r="4.27"/><circle cx="201.46" cy="141.35" r="4.27"/><circle cx="199.83" cy="125.98" r="4.27"/><circle cx="198.19" cy="110.59" r="4.27"/><circle cx="196.56" cy="95.21" r="4.27"/><circle cx="176.47" cy="171.41" r="4.27"/><circle cx="178.87" cy="156.13" r="4.27"/><circle cx="181.28" cy="140.85" r="4.27"/><circle cx="183.68" cy="125.57" r="4.27"/><circle cx="186.08" cy="110.29" r="4.27"/><circle cx="149.36" cy="163.41" r="4.27"/><circle cx="155.64" cy="149.28" r="4.27"/><circle cx="161.91" cy="135.14" r="4.27"/><circle cx="168.19" cy="121" r="4.27"/><circle cx="174.46" cy="106.87" r="4.27"/><circle cx="180.74" cy="92.72" r="4.27"/><circle cx="187.01" cy="78.59" r="4.27"/><path class="cls-2" d="M317.13,236.81,306.48,234c-15.64-4.11-46.75-12.58-63.32-6.15-19.45,7.55-29,18.58-30.91,18.4s-27.58-10.5-43.11-11.3-20.87,17.65-13.32,22.57c8.81,5.74,17.79,8.12,24.88,13.92s14.2,8.66,22.47,7.14,41.31,5,53.7-2.77"/><path class="cls-2" d="M293.55,230.88c-18.49-6.81-37.05-11.35-56-8.54-18,3.11-38.25-.18-58.88,2.37-13.69-5.54-28.23-10-39.71-15-11.2-4.87-22.65-15.55-35.38-12.81"/><path class="cls-2" d="M302.52,301.11c-13.33-4.05-27.34-10-35.27-8.62-16.87,3-65,12.85-80.45,8.77-11.2-2.94-51.83-32-61.93-38.26-14.24-8.82-49.13-40.79-55.77-45.49s2.59-16.7,20.72-8,38.94,30.58,55.65,35.63"/><path class="cls-2" d="M151.21,236.42s-18.56-4.88-33.62-16.51c-13.84-10.67-34.44-30.33-46.7-32.33s-15.15,8.4-14.7,9.5,13.63,10.27,13.63,10.27"/><path class="cls-2" d="M70.89,187.58s7.24-7.05,27.69,6.38c19.43,12.76,24.19,21.21,31.87,24.74S157.31,230,157.31,230"/><path class="cls-2" d="M170.37,225.94s-10,.64-15.21,7.31"/><path class="cls-2" d="M309.8,259A72.72,72.72,0,0,0,294,254.1c-16-2.66-33.26,3-33.26,3"/><path class="cls-3" d="M170.54,55.76l12.74-8.15a8.57,8.57,0,0,0,4.91-11q-4.73-14.16-9.44-28.31a8.59,8.59,0,0,0-4.51-4.74c-2.39-1.06-4.71-.56-6.54-.17-4.25.9-8.9,1.83-14.82,3"/><path class="cls-4" d="M152.88,6.31a35.05,35.05,0,0,0-6.34-4A24.24,24.24,0,0,0,132.6,1l-5.11,2c-65,24.93-112.4,43.2-116.85,45a16.1,16.1,0,0,0-5,3.11A15.83,15.83,0,0,0,1.89,56.2a15.48,15.48,0,0,0-.35,12l16.15,41.91a15.73,15.73,0,0,0,20.36,9L155.59,73.79a15.62,15.62,0,0,0,4.41-1.7c9.74-5.6,10.55-14.47,10.54-16.33Z"/><path class="cls-5" d="M165.32,45.61,154.3,17"/><path class="cls-6" d="M127.61,27.77a6.44,6.44,0,0,0-.4-3.5A6.39,6.39,0,0,0,121.87,20a7.72,7.72,0,0,0-3.78.53A7.35,7.35,0,0,0,115,22.75,6.6,6.6,0,0,0,113.5,26a7.48,7.48,0,0,0,.48,3.77A7.27,7.27,0,0,0,115.33,32a6.7,6.7,0,0,0,1.89,1.58.72.72,0,0,0,.69.06.89.89,0,0,0,.49-.57.85.85,0,0,0,0-.64,1.05,1.05,0,0,0-.46-.52,4.28,4.28,0,0,1-1.29-1.11,5.49,5.49,0,0,1-1-1.61,5.12,5.12,0,0,1,.77-5.23,5.33,5.33,0,0,1,1.8-1.25l3.7,9.57a.92.92,0,0,0,.46.54.88.88,0,0,0,.71,0,7.68,7.68,0,0,0,3-2A6,6,0,0,0,127.61,27.77Zm-2.94,1.86a5.77,5.77,0,0,1-1.61,1l-3.29-8.53a5.82,5.82,0,0,1,1.81-.28,4.56,4.56,0,0,1,2.4.91,4.74,4.74,0,0,1,1.58,2.15,4.48,4.48,0,0,1,.26,2.55A4.3,4.3,0,0,1,124.67,29.63Z"/><path class="cls-6" d="M142.12,65a7,7,0,0,0-.46-3.31,6.41,6.41,0,0,0-1.79-2.58,6,6,0,0,0-2-1l1-.39a1,1,0,0,0,.58-.51.92.92,0,0,0,0-.76,1,1,0,0,0-.51-.59,1,1,0,0,0-.78,0L126.9,60.23a1,1,0,0,0-.57.5,1,1,0,0,0,0,.78.9.9,0,0,0,.5.57,1,1,0,0,0,.76,0l7.1-2.74a3.26,3.26,0,0,1,2-.14,4.13,4.13,0,0,1,1.82,1,5.55,5.55,0,0,1,1.64,4.34,3.89,3.89,0,0,1-.85,2.09,5.11,5.11,0,0,1-2.23,1.51l-6.24,2.4a1,1,0,0,0-.55,1.29,1,1,0,0,0,.51.54.93.93,0,0,0,.75,0l6.24-2.4a6.94,6.94,0,0,0,3-2.06A5.62,5.62,0,0,0,142.12,65Z"/><path class="cls-6" d="M139.35,48.58a.94.94,0,0,0-.47-1.22.92.92,0,0,0-1.22.47,8.54,8.54,0,1,1-4.34-11.27,8.45,8.45,0,0,1,4.54,5L135,42.61,140.09,45l2.28-5.13-2.79,1.06a10.26,10.26,0,0,0-5.51-6,10.38,10.38,0,1,0,5.28,13.7Z"/><line class="cls-7" x1="52.24" y1="47.85" x2="65.29" y2="81.73"/><line class="cls-7" x1="46.29" y1="50.15" x2="58.19" y2="81.06"/><line class="cls-7" x1="40.33" y1="52.44" x2="52.24" y2="83.35"/><rect class="cls-8" x="14.35" y="65.94" width="33.94" height="14.96" transform="translate(88.58 17.8) rotate(68.93)"/><rect class="cls-8" x="20.9" y="104.43" width="12.11" height="3" transform="translate(116.12 42.7) rotate(68.93)"/><g class="cls-9"><path class="cls-10" d="M88.36,32.25A1.14,1.14,0,0,1,89,33a.91.91,0,0,1-.06.51.92.92,0,0,1-1.3.45,2.53,2.53,0,0,0-.23-.12,1,1,0,0,1-.69-.67,1,1,0,0,1,.26-.89.81.81,0,0,1,.27-.22A1.3,1.3,0,0,1,88.36,32.25Z"/><path class="cls-10" d="M86.53,37l0,.08c-.13.33-.25.61.2.85a.72.72,0,0,1,.23.77c0,.14,0,.14.15.2a.77.77,0,0,0,1-.09c.24-.22.59-.11.89,0a1,1,0,0,1,.55-.77.91.91,0,0,1,1.07.21.92.92,0,0,1,.12,1.08.87.87,0,0,1-1,.43c-.24-.08-.31,0-.4.21a.88.88,0,0,1-1.35.37c-.16-.11-.23-.1-.36.05A.91.91,0,0,1,86,39.64c0-.16,0-.23-.17-.25a.89.89,0,0,1-.59-.37,1,1,0,0,1-.8.72.84.84,0,0,1-.67-.16.93.93,0,0,1-.18-1.32c.37-.46.92-.46,1.5,0a1.14,1.14,0,0,1,.25-.42.94.94,0,0,1-.69-1,.84.84,0,0,1,.59-.78.94.94,0,0,1,1.15.41,1.16,1.16,0,0,1,0-.16c.13-.26.08-.42-.19-.59a.86.86,0,0,1-.2-1.19.91.91,0,0,1,1.16-.36,1,1,0,0,1,.5,1.14c0,.09-.14.18-.06.26s.21.09.3-.09a.87.87,0,0,1,1-.5.9.9,0,0,1,.72.81.91.91,0,0,1-1.08,1,3.37,3.37,0,0,1-.34-.1A1,1,0,0,1,86.53,37Z"/><path class="cls-10" d="M84.19,43.37a.85.85,0,0,1,.85.42A1,1,0,0,1,84.92,45a1,1,0,0,1,.93.14,1.1,1.1,0,0,1,.37.9,1.07,1.07,0,0,1,.88-.33,1,1,0,0,1,.75.56,1.21,1.21,0,0,1,.4-.66.89.89,0,0,1,.7-.17.92.92,0,0,1,.17,1.78c-.46.17-.85,0-1.2-.51-.23.62-.6.9-1.09.83s-.74-.42-.79-1.06a1.46,1.46,0,0,1-.73.32.93.93,0,0,1-.7-.29,1,1,0,0,1,0-1.31,1,1,0,0,1-1.18-.42c-.29.62-.62.84-1.1.75a.94.94,0,0,1-.76-.82.9.9,0,0,1,.56-.93.92.92,0,0,1,1.18.39c.12-.19.17-.43.38-.55S84,43.27,84.19,43.37Z"/><path class="cls-10" d="M83.1,41.65a.88.88,0,0,1-.94-.79.87.87,0,0,1,.63-1,.89.89,0,0,1,1.12.51l.07.1a1.2,1.2,0,0,1,.48-.58.92.92,0,0,1,1.37.89.92.92,0,0,1-.75.82c-.47.09-.83-.13-1.1-.69a1,1,0,0,1-.33.53C83.5,41.6,83.34,41.74,83.1,41.65Z"/><path class="cls-10" d="M81.14,48.93c-.23.64-.58.9-1.07.84A.93.93,0,0,1,79.86,48c.47-.17.87,0,1.22.55.28-.61.65-.86,1.14-.77a1,1,0,0,1,.74.9.91.91,0,0,1-.73.91C81.77,49.68,81.4,49.47,81.14,48.93Z"/><path class="cls-10" d="M83.76,43.42a1,1,0,0,1-1-.64,1,1,0,0,1-.43.62.91.91,0,0,1-1.43-.75.9.9,0,0,1,.69-.9c.46-.13.84.07,1.14.62a1.08,1.08,0,0,1,.41-.61c.12-.14.29-.13.45-.17a.87.87,0,0,1,.94.61.86.86,0,0,1-.31,1A.74.74,0,0,1,83.76,43.42Z"/><path class="cls-10" d="M83.11,65a.92.92,0,0,1-.54,1.19.93.93,0,1,1-.65-1.74A.93.93,0,0,1,83.11,65Z"/><path class="cls-10" d="M69.9,71a.93.93,0,1,1,1.2.52A.92.92,0,0,1,69.9,71Z"/><path class="cls-10" d="M77,84.1a1,1,0,0,1,.5-1.22,1,1,0,0,1,1.21.51A.93.93,0,1,1,77,84.1Z"/><path class="cls-10" d="M89.63,43.51A.92.92,0,0,1,89,41.79a.92.92,0,1,1,.68,1.72Z"/><path class="cls-10" d="M86.54,43.05c-.1,0-.15.05-.21.1a.92.92,0,1,1-.39-1.58.94.94,0,0,1,.69,1c0,.05,0,.1.05.12A.36.36,0,0,1,86.54,43.05Z"/><path class="cls-10" d="M86.75,73.1a.9.9,0,0,1-.52,1.19A.89.89,0,0,1,85,73.77a.88.88,0,0,1,.52-1.18A.9.9,0,0,1,86.75,73.1Z"/><path class="cls-10" d="M75.57,81.86a.92.92,0,0,1-1.2-.5.93.93,0,0,1,.52-1.2.92.92,0,1,1,.68,1.7Z"/><path class="cls-10" d="M83,73.44a.92.92,0,1,1,.54-1.18A.9.9,0,0,1,83,73.44Z"/><path class="cls-10" d="M103.9,85.76a.88.88,0,0,1-1.18-.53.92.92,0,1,1,1.18.53Z"/><path class="cls-10" d="M90.69,77.23a.91.91,0,1,1,.53-1.18A.88.88,0,0,1,90.69,77.23Z"/><path class="cls-10" d="M97.74,56.37a.9.9,0,0,1-.53,1.19A.92.92,0,0,1,96,57a.89.89,0,0,1,.54-1.18A.88.88,0,0,1,97.74,56.37Z"/><path class="cls-10" d="M80.8,70.47a.87.87,0,0,1-.52,1.18.9.9,0,0,1-1.19-.52.92.92,0,0,1,.53-1.19A.88.88,0,0,1,80.8,70.47Z"/><path class="cls-10" d="M88.12,52.35a.88.88,0,0,1,1.18.51.92.92,0,1,1-1.7.68A.88.88,0,0,1,88.12,52.35Z"/><path class="cls-10" d="M95.43,50.43a.93.93,0,1,1-1.19-.55A.94.94,0,0,1,95.43,50.43Z"/><path class="cls-10" d="M79.63,47.3a.91.91,0,0,1-1.18-.55.92.92,0,1,1,1.18.55Z"/><path class="cls-10" d="M92.49,55a.92.92,0,1,1,1.2.52A.92.92,0,0,1,92.49,55Z"/><path class="cls-10" d="M89.86,60.53A.9.9,0,0,1,88.68,60a.92.92,0,0,1,1.72-.63A.9.9,0,0,1,89.86,60.53Z"/><path class="cls-10" d="M81.46,67.33a.91.91,0,0,1-.52,1.2.93.93,0,1,1,.52-1.2Z"/><path class="cls-10" d="M92.85,58.34a.94.94,0,0,1-.52,1.21A1,1,0,0,1,91.12,59a.94.94,0,0,1,.53-1.21A.93.93,0,0,1,92.85,58.34Z"/><path class="cls-10" d="M68.41,64.41a.91.91,0,1,1-.65-1.71.91.91,0,1,1,.65,1.71Z"/><path class="cls-10" d="M77.14,51.1A.89.89,0,0,1,76,50.56a.92.92,0,0,1,1.72-.64A.89.89,0,0,1,77.14,51.1Z"/><path class="cls-10" d="M90.5,65.14a.91.91,0,0,1,1.2.5.93.93,0,0,1-1.72.69A.91.91,0,0,1,90.5,65.14Z"/><path class="cls-10" d="M81.06,91.94a.92.92,0,0,1-.52,1.2,1,1,0,0,1-1.21-.52,1,1,0,0,1,.54-1.21A.93.93,0,0,1,81.06,91.94Z"/><path class="cls-10" d="M86.36,57.42a.92.92,0,1,1,.54-1.19A.93.93,0,0,1,86.36,57.42Z"/><path class="cls-10" d="M92.26,69.82a.91.91,0,0,1-1.2-.5.93.93,0,1,1,1.2.5Z"/><path class="cls-10" d="M71.54,64.88A1,1,0,0,1,71,66.09a1,1,0,0,1-1.21-.52.93.93,0,0,1,1.72-.69Z"/><path class="cls-10" d="M93,78.78a.93.93,0,0,1,1.74-.67.93.93,0,0,1-1.74.67Z"/><path class="cls-10" d="M72.17,63.94a.92.92,0,1,1,.52-1.19A.9.9,0,0,1,72.17,63.94Z"/><path class="cls-10" d="M75.31,83.67a.94.94,0,0,1-.53,1.2,1,1,0,0,1-1.21-.54,1,1,0,0,1,.54-1.2A.94.94,0,0,1,75.31,83.67Z"/><path class="cls-10" d="M67.91,68.36a.92.92,0,0,1,1.21.5.93.93,0,1,1-1.73.7A.93.93,0,0,1,67.91,68.36Z"/><path class="cls-10" d="M98.4,66.4a.92.92,0,1,1-1.19-.52A.89.89,0,0,1,98.4,66.4Z"/><path class="cls-10" d="M97.26,63.42a.9.9,0,0,1-.51,1.19.91.91,0,0,1-1.2-.52.88.88,0,0,1,.53-1.18A.86.86,0,0,1,97.26,63.42Z"/><path class="cls-10" d="M80.64,79.17a.93.93,0,0,1-1.2-.52A.91.91,0,0,1,80,77.46a.92.92,0,1,1,.66,1.71Z"/><path class="cls-10" d="M91.33,45a.92.92,0,0,1,.84-1.12.93.93,0,0,1,.64,1.64.92.92,0,0,1-1.11,0l-.22-.19A.29.29,0,0,1,91.33,45Z"/><path class="cls-10" d="M77.56,67.4a.87.87,0,0,1,1.16.56.89.89,0,0,1-.56,1.17A.9.9,0,0,1,77,68.56.89.89,0,0,1,77.56,67.4Z"/><path class="cls-10" d="M87.33,49.1a.9.9,0,0,1,1.19.52.93.93,0,1,1-1.19-.52Z"/><path class="cls-10" d="M75.7,63a.9.9,0,0,1-1.18-.53.93.93,0,0,1,1.74-.65A.91.91,0,0,1,75.7,63Z"/><path class="cls-10" d="M76.86,66.09a.87.87,0,0,1-1.17-.54.9.9,0,0,1,.54-1.18.91.91,0,0,1,1.18.54A.9.9,0,0,1,76.86,66.09Z"/><path class="cls-10" d="M77.37,69.89a.91.91,0,0,1-.54,1.19.93.93,0,1,1,.54-1.19Z"/><path class="cls-10" d="M68.48,62a.91.91,0,0,1,.52-1.2.93.93,0,0,1,.67,1.74A.91.91,0,0,1,68.48,62Z"/><path class="cls-10" d="M70.46,80.15a.92.92,0,0,1-1.2-.51.91.91,0,0,1,.51-1.2.93.93,0,0,1,1.21.5A.94.94,0,0,1,70.46,80.15Z"/><path class="cls-10" d="M79.93,56.11a.92.92,0,0,1,.53-1.2,1,1,0,0,1,1.2.52,1,1,0,0,1-.53,1.21A.94.94,0,0,1,79.93,56.11Z"/><path class="cls-10" d="M99.51,65.94a.92.92,0,1,1,1.2.53A.91.91,0,0,1,99.51,65.94Z"/><path class="cls-10" d="M90,73a.88.88,0,0,1-.51,1.18.92.92,0,1,1-.68-1.7A.89.89,0,0,1,90,73Z"/><path class="cls-10" d="M93.49,82A.92.92,0,0,1,94,80.81a.93.93,0,0,1,1.19.56.92.92,0,0,1-.54,1.19A.91.91,0,0,1,93.49,82Z"/><path class="cls-10" d="M94.73,84.9a.92.92,0,0,1,.54-1.16.94.94,0,0,1,1.21.58.93.93,0,0,1-.58,1.17A.92.92,0,0,1,94.73,84.9Z"/><path class="cls-10" d="M81.43,44.21a.94.94,0,0,1-.53,1.2.93.93,0,0,1-.66-1.74A.93.93,0,0,1,81.43,44.21Z"/><path class="cls-10" d="M94.26,47.47a.89.89,0,0,1-.55,1.17.9.9,0,0,1-1.18-.55.92.92,0,1,1,1.73-.62Z"/><path class="cls-10" d="M87.28,60.9a.92.92,0,1,1-.66-1.71.92.92,0,1,1,.66,1.71Z"/><path class="cls-10" d="M91.67,51.94a.92.92,0,0,1,.51-1.2.93.93,0,0,1,1.21.5.93.93,0,1,1-1.72.7Z"/><path class="cls-10" d="M95.87,61.54a.92.92,0,1,1,.53-1.2A.94.94,0,0,1,95.87,61.54Z"/><path class="cls-10" d="M72.85,81.34a.92.92,0,1,1-.65-1.72.94.94,0,0,1,1.2.53A.92.92,0,0,1,72.85,81.34Z"/><path class="cls-10" d="M66,65.74a.89.89,0,0,1,.54-1.15.92.92,0,0,1,1.2.57.94.94,0,0,1-.55,1.17A.91.91,0,0,1,66,65.74Z"/><path class="cls-10" d="M67.6,90.72a.89.89,0,0,1,.52-1.19.91.91,0,0,1,1.19.52.9.9,0,0,1-.53,1.19A.89.89,0,0,1,67.6,90.72Z"/><path class="cls-10" d="M76.34,87.24a.93.93,0,0,1,.53-1.2.92.92,0,0,1,1.19.54.9.9,0,0,1-.53,1.19A.92.92,0,0,1,76.34,87.24Z"/><path class="cls-10" d="M99.53,63.49A.9.9,0,0,1,98.34,63a.93.93,0,0,1,1.73-.67A.91.91,0,0,1,99.53,63.49Z"/><path class="cls-10" d="M101.1,78.05a.89.89,0,0,1,1.2.5.93.93,0,0,1-.51,1.21,1,1,0,0,1-1.21-.51A.93.93,0,0,1,101.1,78.05Z"/><path class="cls-10" d="M81.17,54a.91.91,0,0,1,.5-1.21.93.93,0,0,1,1.2.51.94.94,0,0,1-.5,1.22A.93.93,0,0,1,81.17,54Z"/><path class="cls-10" d="M74.45,75.06a.87.87,0,0,1,1.17.54.89.89,0,0,1-.54,1.18.91.91,0,0,1-1.18-.55A.89.89,0,0,1,74.45,75.06Z"/><path class="cls-10" d="M84.92,48a.92.92,0,0,1-.54,1.19,1,1,0,0,1-1.2-.54.93.93,0,0,1,.55-1.19A.91.91,0,0,1,84.92,48Z"/><path class="cls-10" d="M67.87,94a.94.94,0,0,1-1.21-.5,1,1,0,0,1,.52-1.21A.92.92,0,1,1,67.87,94Z"/><path class="cls-10" d="M104.18,75.37a.9.9,0,0,1-1.19-.51.92.92,0,0,1,.53-1.2.94.94,0,0,1,1.2.52A.92.92,0,0,1,104.18,75.37Z"/><path class="cls-10" d="M75.33,72.2a.92.92,0,1,1-.56,1.18A.91.91,0,0,1,75.33,72.2Z"/><path class="cls-10" d="M77.73,47.48a.92.92,0,0,1,1.2.52.94.94,0,0,1-.52,1.21,1,1,0,0,1-1.21-.53A.94.94,0,0,1,77.73,47.48Z"/><path class="cls-10" d="M73.42,67.27a.91.91,0,1,1-.66-1.7.9.9,0,0,1,1.19.51A.91.91,0,0,1,73.42,67.27Z"/><path class="cls-10" d="M70.9,60.6a.9.9,0,0,1-1.19-.53.93.93,0,1,1,1.19.53Z"/><path class="cls-10" d="M78.92,81.86a.91.91,0,1,1,1.71-.65.91.91,0,1,1-1.71.65Z"/><path class="cls-10" d="M85.19,70.42a.93.93,0,0,1,.52-1.2A.93.93,0,0,1,86.39,71,.93.93,0,0,1,85.19,70.42Z"/><path class="cls-10" d="M91.76,85.14a.9.9,0,0,1,1.19.52.92.92,0,0,1-.54,1.19.93.93,0,0,1-1.2-.53A.91.91,0,0,1,91.76,85.14Z"/><path class="cls-10" d="M91.09,83.89a.89.89,0,0,1-1.18-.54.91.91,0,0,1,.55-1.18.89.89,0,0,1,1.17.55A.87.87,0,0,1,91.09,83.89Z"/><path class="cls-10" d="M80.52,59.38a.9.9,0,0,1,1.19.52.93.93,0,1,1-1.19-.52Z"/><path class="cls-10" d="M75.63,68a1,1,0,0,1-1.2-.55A1,1,0,0,1,75,66.26a.94.94,0,0,1,1.19.56A.92.92,0,0,1,75.63,68Z"/><path class="cls-10" d="M87.43,77.72a.92.92,0,0,1-1.19-.53A.93.93,0,0,1,88,76.54.9.9,0,0,1,87.43,77.72Z"/><path class="cls-10" d="M73.38,59.37a.89.89,0,0,1,.52-1.18.92.92,0,1,1-.52,1.18Z"/><path class="cls-10" d="M94,65.73A.93.93,0,0,1,93.28,64a.94.94,0,0,1,1.2.53A.92.92,0,0,1,94,65.73Z"/><path class="cls-10" d="M73.41,56.8a.92.92,0,1,1,.53-1.19A.92.92,0,0,1,73.41,56.8Z"/><path class="cls-10" d="M93.87,68.17a.92.92,0,1,1,1.18.55A.91.91,0,0,1,93.87,68.17Z"/><path class="cls-10" d="M96.86,74.85a.92.92,0,0,1-1.19-.53.92.92,0,1,1,1.19.53Z"/><path class="cls-10" d="M79.56,65.05A.92.92,0,0,1,79,66.21a.94.94,0,0,1-1.2-.59.92.92,0,0,1,.59-1.16A.9.9,0,0,1,79.56,65.05Z"/><path class="cls-10" d="M74.51,57.21a.93.93,0,0,1,1.74-.66.93.93,0,1,1-1.74.66Z"/><path class="cls-10" d="M75.77,55.29a.91.91,0,1,1,1.18.53A.9.9,0,0,1,75.77,55.29Z"/><path class="cls-10" d="M66.15,74A.94.94,0,0,1,65,73.5a.92.92,0,0,1,.56-1.18.91.91,0,0,1,1.18.53A.92.92,0,0,1,66.15,74Z"/><path class="cls-10" d="M100,82.9a.89.89,0,0,1-.51,1.19.91.91,0,0,1-1.2-.52.93.93,0,0,1,.52-1.2A.9.9,0,0,1,100,82.9Z"/><path class="cls-10" d="M97.53,78a.92.92,0,1,1-.63-1.72A.92.92,0,1,1,97.53,78Z"/><path class="cls-10" d="M91.83,49.43a.92.92,0,0,1-1.2-.52,1,1,0,0,1,.54-1.2.94.94,0,0,1,1.2.54A.91.91,0,0,1,91.83,49.43Z"/><path class="cls-10" d="M88.13,89.38a.92.92,0,1,1-.52,1.19A.89.89,0,0,1,88.13,89.38Z"/><path class="cls-10" d="M75.91,53a.91.91,0,0,1-1.2-.5.93.93,0,1,1,1.73-.69A.91.91,0,0,1,75.91,53Z"/><path class="cls-10" d="M81.92,50.71a.92.92,0,0,1,.8-.92.93.93,0,0,1,.72,1.63A.94.94,0,0,1,82,51.11.3.3,0,0,1,81.92,50.71Z"/><path class="cls-10" d="M65.9,78.56a.89.89,0,0,1,1.19.51.92.92,0,1,1-1.71.68A.89.89,0,0,1,65.9,78.56Z"/><path class="cls-10" d="M70,73.82a.89.89,0,0,1-1.19-.52.93.93,0,0,1,.52-1.19.9.9,0,0,1,1.19.52A.88.88,0,0,1,70,73.82Z"/><path class="cls-10" d="M67,76.25a.86.86,0,0,1,1.18.52A.9.9,0,0,1,67.65,78a.92.92,0,0,1-1.19-.53A.89.89,0,0,1,67,76.25Z"/><path class="cls-10" d="M101.38,75.52a.9.9,0,0,1-.54,1.18.93.93,0,0,1-1.19-.55A1,1,0,0,1,100.2,75,.92.92,0,0,1,101.38,75.52Z"/><path class="cls-10" d="M82.91,82.22a.92.92,0,1,1,.68,1.71.91.91,0,0,1-1.2-.51A.92.92,0,0,1,82.91,82.22Z"/><path class="cls-10" d="M105.32,78.35a.87.87,0,0,1-1.17-.55.91.91,0,0,1,.55-1.18.92.92,0,0,1,1.18.56A.89.89,0,0,1,105.32,78.35Z"/><path class="cls-10" d="M66.11,89.43a.86.86,0,0,1-1.17-.54.9.9,0,0,1,.53-1.19.94.94,0,0,1,1.19.55A.9.9,0,0,1,66.11,89.43Z"/><path class="cls-10" d="M84.4,63.5a.87.87,0,0,1,.53-1.18.9.9,0,0,1,1.19.53A.93.93,0,0,1,85.58,64,.9.9,0,0,1,84.4,63.5Z"/><path class="cls-10" d="M79.3,51.67a.88.88,0,0,1-1.18-.52.92.92,0,1,1,1.71-.66A.88.88,0,0,1,79.3,51.67Z"/><path class="cls-10" d="M84.8,49.93a.93.93,0,0,1,.53-1.2.94.94,0,0,1,1.19.55A.91.91,0,0,1,86,50.46.89.89,0,0,1,84.8,49.93Z"/><path class="cls-10" d="M90.13,56a.9.9,0,0,1,.51-1.19.93.93,0,0,1,1.2.52,1,1,0,0,1-.52,1.21A.92.92,0,0,1,90.13,56Z"/><path class="cls-10" d="M83.65,61.76A.91.91,0,0,1,83.12,63a.92.92,0,0,1-.65-1.73A.9.9,0,0,1,83.65,61.76Z"/><path class="cls-10" d="M90.86,63.55A.9.9,0,0,1,89.67,63a.92.92,0,1,1,1.19.51Z"/><path class="cls-10" d="M92.17,62a.92.92,0,1,1,1.72-.63.92.92,0,1,1-1.72.63Z"/><path class="cls-10" d="M79,53.63a.92.92,0,1,1,1.19.53A.92.92,0,0,1,79,53.63Z"/><path class="cls-10" d="M75,63.7a.92.92,0,1,1-1.71.68.94.94,0,0,1,.52-1.21A.92.92,0,0,1,75,63.7Z"/><path class="cls-10" d="M72.68,60.09a.9.9,0,0,1,1.18.54.93.93,0,0,1-1.74.63A.9.9,0,0,1,72.68,60.09Z"/><path class="cls-10" d="M78.61,52.46a.91.91,0,0,1-.53,1.19,1,1,0,0,1-1.2-.55.94.94,0,0,1,.55-1.19A.9.9,0,0,1,78.61,52.46Z"/><path class="cls-10" d="M90.88,80.56a.91.91,0,1,1,.56-1.17A.89.89,0,0,1,90.88,80.56Z"/><path class="cls-10" d="M81,89.85a.91.91,0,0,1-1.19-.51.93.93,0,0,1,.51-1.21.92.92,0,0,1,1.19.53A.89.89,0,0,1,81,89.85Z"/><path class="cls-10" d="M86.62,54.07a.92.92,0,1,1-.68-1.7.92.92,0,0,1,.68,1.7Z"/><path class="cls-10" d="M79,56.16a.91.91,0,1,1-.65-1.71.91.91,0,0,1,1.19.53A.9.9,0,0,1,79,56.16Z"/><path class="cls-10" d="M71.16,69.11a.91.91,0,0,1,.55-1.18.89.89,0,0,1,1.17.55.87.87,0,0,1-.54,1.17A.89.89,0,0,1,71.16,69.11Z"/><path class="cls-10" d="M105.32,80.78a.91.91,0,0,1,.53-1.19.93.93,0,0,1,.65,1.75A.91.91,0,0,1,105.32,80.78Z"/><path class="cls-10" d="M88.76,49.71a.92.92,0,1,1,1.71-.66.92.92,0,1,1-1.71.66Z"/><path class="cls-10" d="M106.48,83.76a.87.87,0,0,1,.53-1.17.88.88,0,0,1,1.18.52.9.9,0,0,1-.53,1.19A.89.89,0,0,1,106.48,83.76Z"/><path class="cls-10" d="M86.54,43.05l.14-.39a2.54,2.54,0,0,1,.34-.23.87.87,0,0,1,1.11.2.9.9,0,0,1,.1,1.1,1,1,0,0,1-1,.4.93.93,0,0,1-.67-.92C86.52,43.15,86.54,43.1,86.54,43.05Z"/><path class="cls-10" d="M88.21,70.27a.89.89,0,0,1,.52-1.19.92.92,0,0,1,1.19.54.89.89,0,0,1-.54,1.18A.88.88,0,0,1,88.21,70.27Z"/><path class="cls-10" d="M103,82.71a.92.92,0,1,1,.55-1.18A.91.91,0,0,1,103,82.71Z"/><path class="cls-10" d="M80.46,57.5a.89.89,0,0,1-.5,1.2A.92.92,0,1,1,79.27,57,.89.89,0,0,1,80.46,57.5Z"/><path class="cls-10" d="M87.71,56.86a.89.89,0,0,1,.55-1.17.92.92,0,0,1,.63,1.73A.92.92,0,0,1,87.71,56.86Z"/><path class="cls-10" d="M91.45,72.56A.89.89,0,0,1,92,71.38a.92.92,0,1,1,.65,1.72A.89.89,0,0,1,91.45,72.56Z"/><path class="cls-10" d="M83.45,70.15a.89.89,0,0,1-1.18-.53.93.93,0,0,1,.55-1.19A.91.91,0,0,1,84,69,.89.89,0,0,1,83.45,70.15Z"/><path class="cls-10" d="M103,72.41a.91.91,0,0,1-1.19-.53.92.92,0,0,1,1.72-.66A.91.91,0,0,1,103,72.41Z"/><path class="cls-10" d="M86.2,80.54a.92.92,0,1,1,1.17.56A.91.91,0,0,1,86.2,80.54Z"/><path class="cls-10" d="M71.44,77.58a.87.87,0,0,1-1.18-.52.91.91,0,0,1,.51-1.2.92.92,0,0,1,1.19.53A.89.89,0,0,1,71.44,77.58Z"/><path class="cls-10" d="M95.38,52.87a.92.92,0,1,1-.51,1.19A.9.9,0,0,1,95.38,52.87Z"/><path class="cls-10" d="M98.36,60.52A.9.9,0,0,1,97.18,60a.92.92,0,0,1,.54-1.19.9.9,0,0,1,1.18.54A.88.88,0,0,1,98.36,60.52Z"/><path class="cls-10" d="M67.47,82.68a.92.92,0,1,1-.53,1.19A.92.92,0,0,1,67.47,82.68Z"/><path class="cls-10" d="M68,71a.92.92,0,0,1-.53,1.19.93.93,0,0,1-.65-1.75A.92.92,0,0,1,68,71Z"/><path class="cls-10" d="M68.93,76.16a.91.91,0,1,1-.65-1.71.92.92,0,0,1,1.19.54A.88.88,0,0,1,68.93,76.16Z"/><path class="cls-10" d="M94.1,56.84a.89.89,0,0,1,1.19.51.92.92,0,1,1-1.71.68A.88.88,0,0,1,94.1,56.84Z"/><path class="cls-10" d="M83.43,52.63A.9.9,0,0,1,84,51.46a.93.93,0,0,1,.64,1.74A.91.91,0,0,1,83.43,52.63Z"/><path class="cls-10" d="M90.76,41a.89.89,0,0,1,1.18.54A.92.92,0,1,1,90.76,41Z"/><path class="cls-10" d="M80.4,64.1a.9.9,0,0,1-1.18-.54.89.89,0,0,1,.54-1.18.92.92,0,1,1,.64,1.72Z"/><path class="cls-10" d="M77.33,56.93a.87.87,0,0,1,1.18.52A.88.88,0,0,1,78,58.63a.91.91,0,0,1-1.2-.52A.89.89,0,0,1,77.33,56.93Z"/><path class="cls-10" d="M87.07,63.71a.93.93,0,0,1,.53-1.2.93.93,0,1,1-.53,1.2Z"/><path class="cls-10" d="M72.37,89.59a.88.88,0,0,1-1.18-.53.91.91,0,1,1,1.71-.65A.89.89,0,0,1,72.37,89.59Z"/><path class="cls-10" d="M98.22,81.14A.88.88,0,0,1,97,80.62a.9.9,0,0,1,.52-1.19.93.93,0,0,1,1.2.53A.89.89,0,0,1,98.22,81.14Z"/><path class="cls-10" d="M70.64,85.79a.92.92,0,1,1,.52-1.19A.91.91,0,0,1,70.64,85.79Z"/><path class="cls-10" d="M75.73,90.4a.92.92,0,0,1,1.71-.67.92.92,0,0,1-.52,1.2A.91.91,0,0,1,75.73,90.4Z"/><path class="cls-10" d="M91.43,45.39a.93.93,0,0,1-1.53.85A.92.92,0,0,1,91,44.77a2.27,2.27,0,0,1,.28.26A.68.68,0,0,1,91.43,45.39Z"/><path class="cls-10" d="M82.26,46.7a1.13,1.13,0,0,1-.57.73.89.89,0,0,1-1.19-.38.92.92,0,0,1,1.58-.94,1.26,1.26,0,0,1,.13.26.73.73,0,0,1,.08.25A.11.11,0,0,1,82.26,46.7Z"/><path class="cls-10" d="M72.49,83a.89.89,0,0,1-.55,1.17.87.87,0,0,1-1.17-.53A.92.92,0,1,1,72.49,83Z"/><path class="cls-10" d="M72.81,87.33a.89.89,0,0,1,.51-1.19.92.92,0,1,1,.68,1.7A.89.89,0,0,1,72.81,87.33Z"/><path class="cls-10" d="M94.31,74.87a.89.89,0,0,1-.52,1.19.92.92,0,1,1,.52-1.19Z"/><path class="cls-10" d="M84,56.38a.92.92,0,1,1-.66-1.71.91.91,0,0,1,1.19.53A.9.9,0,0,1,84,56.38Z"/><path class="cls-10" d="M99.3,69.47a.92.92,0,1,1-1.19-.53A.91.91,0,0,1,99.3,69.47Z"/><path class="cls-10" d="M85.28,67.36a.88.88,0,0,1-1.17-.54.92.92,0,1,1,1.73-.62A.88.88,0,0,1,85.28,67.36Z"/><path class="cls-10" d="M72.58,78a.89.89,0,0,1,.53-1.18A.92.92,0,1,1,72.58,78Z"/><path class="cls-10" d="M65.94,86.38a.92.92,0,0,1,1.72-.64.92.92,0,1,1-1.72.64Z"/><path class="cls-10" d="M89.27,86.54a.87.87,0,0,1-.52,1.18.9.9,0,0,1-1.19-.51.93.93,0,0,1,.52-1.2A.92.92,0,0,1,89.27,86.54Z"/><path class="cls-10" d="M87.33,84.45a.9.9,0,0,1-1.18-.55.92.92,0,1,1,1.73-.62A.89.89,0,0,1,87.33,84.45Z"/><path class="cls-10" d="M91.36,52.1a.92.92,0,1,1-1.71.67.92.92,0,1,1,1.71-.67Z"/><path class="cls-10" d="M76.54,78.22a.92.92,0,0,1,.66,1.72.92.92,0,1,1-.66-1.72Z"/><path class="cls-10" d="M75.59,60.05a.87.87,0,0,1,.52-1.18.91.91,0,0,1,1.19.52.92.92,0,0,1-.53,1.19A.89.89,0,0,1,75.59,60.05Z"/><path class="cls-10" d="M74.66,70.61A.92.92,0,0,1,74,68.89a.92.92,0,1,1,.64,1.72Z"/><path class="cls-10" d="M83.87,80.61a.9.9,0,0,1-1.18-.53.91.91,0,0,1,.54-1.19.92.92,0,0,1,.64,1.72Z"/><path class="cls-10" d="M77.26,75.17a.89.89,0,0,1,1.19.52.9.9,0,0,1-.52,1.19.92.92,0,1,1-.67-1.71Z"/><path class="cls-10" d="M94.52,71.36a.92.92,0,1,1,1.19.52A.91.91,0,0,1,94.52,71.36Z"/><path class="cls-10" d="M80,75.42a.89.89,0,0,1,.53-1.18.87.87,0,0,1,1.18.52A.9.9,0,0,1,81.17,76,.92.92,0,0,1,80,75.42Z"/><path class="cls-10" d="M85,87.63a.88.88,0,0,1-1.18-.52.92.92,0,1,1,1.71-.66A.88.88,0,0,1,85,87.63Z"/><path class="cls-10" d="M84.8,91a.88.88,0,0,1-1.19-.51.92.92,0,1,1,1.71-.68A.9.9,0,0,1,84.8,91Z"/><path class="cls-10" d="M78,72.11a.91.91,0,1,1,.67,1.7.91.91,0,0,1-.67-1.7Z"/><path class="cls-10" d="M71.53,92.52A.87.87,0,0,1,70.36,92a.89.89,0,0,1,.54-1.17.93.93,0,0,1,1.19.55A.92.92,0,0,1,71.53,92.52Z"/><path class="cls-10" d="M65.26,66.51a.86.86,0,0,1,1.17.52.9.9,0,0,1-.51,1.19.93.93,0,0,1-1.2-.53A.91.91,0,0,1,65.26,66.51Z"/><path class="cls-10" d="M88.29,67.59a.92.92,0,0,1-.68-1.7.92.92,0,0,1,1.2.51A.91.91,0,0,1,88.29,67.59Z"/><path class="cls-10" d="M78.34,62.22a.89.89,0,0,1-.5,1.19.92.92,0,1,1-.7-1.7A.9.9,0,0,1,78.34,62.22Z"/><path class="cls-10" d="M73.47,54.37a.91.91,0,1,1,1.71-.65.91.91,0,1,1-1.71.65Z"/><path class="cls-10" d="M73.7,73.21a.87.87,0,0,1-1.18-.52A.9.9,0,0,1,73,71.5a.93.93,0,0,1,1.2.53A.9.9,0,0,1,73.7,73.21Z"/><path class="cls-10" d="M83.1,57.63a.9.9,0,0,1-.53,1.19.92.92,0,0,1-1.19-.53.91.91,0,0,1,.54-1.19A.88.88,0,0,1,83.1,57.63Z"/><path class="cls-10" d="M77.85,60.92a.89.89,0,0,1,.51-1.19.93.93,0,0,1,1.2.52A.91.91,0,0,1,79,61.44.89.89,0,0,1,77.85,60.92Z"/><path class="cls-10" d="M73,73.84A.89.89,0,0,1,72.42,75a.91.91,0,1,1-.65-1.71A.88.88,0,0,1,73,73.84Z"/><path class="cls-10" d="M69.74,68a.9.9,0,0,1-1.18-.54.92.92,0,1,1,1.72-.64A.89.89,0,0,1,69.74,68Z"/><path class="cls-10" d="M100.45,72.43a.88.88,0,0,1-.51,1.19.89.89,0,0,1-1.19-.51.92.92,0,1,1,1.7-.68Z"/><path class="cls-10" d="M69.66,80.69a.91.91,0,0,1-1.71.65.91.91,0,1,1,1.71-.65Z"/><path class="cls-10" d="M75,92.88a.92.92,0,0,1-.69-1.7.92.92,0,1,1,.69,1.7Z"/><path class="cls-10" d="M84.71,60.3a.87.87,0,0,1-1.17-.53.92.92,0,1,1,1.72-.64A.89.89,0,0,1,84.71,60.3Z"/><path class="cls-10" d="M70.22,87.33a.87.87,0,0,1-.51,1.18.92.92,0,0,1-1.2-.51A.93.93,0,0,1,69,86.8.88.88,0,0,1,70.22,87.33Z"/><path class="cls-10" d="M81.89,85.37a.92.92,0,1,1-1.7.69.92.92,0,0,1,1.7-.69Z"/><path class="cls-10" d="M100.67,68.9a.88.88,0,0,1,.54-1.18.9.9,0,0,1,1.18.54.92.92,0,1,1-1.72.64Z"/><path class="cls-10" d="M84.71,76.1a.92.92,0,0,1-.53,1.19A.9.9,0,0,1,83,76.76a.87.87,0,0,1,.52-1.18A.89.89,0,0,1,84.71,76.1Z"/><path class="cls-10" d="M71,58.18A.87.87,0,0,1,71.5,57a.89.89,0,0,1,1.19.52.92.92,0,0,1-.52,1.19A.91.91,0,0,1,71,58.18Z"/><path class="cls-10" d="M82.26,46.7v-.05c0-.1-.07-.21,0-.31A.92.92,0,0,1,84,46.08a.88.88,0,0,1-.13,1.05A.91.91,0,0,1,82.26,46.7Z"/><path class="cls-10" d="M82,51.13a.9.9,0,0,1-.69,1,.92.92,0,0,1-1.06-.48,1,1,0,0,1,.24-1.12.92.92,0,0,1,1.36.2A.75.75,0,0,1,82,51.13Z"/><path class="cls-10" d="M83.58,41.59l-.45.17,0-.11a2.16,2.16,0,0,0,.55-.21Z"/><path class="cls-10" d="M83.76,43.42l.45-.17,0,.12-.5.2Z"/><path class="cls-10" d="M82,51.13l-.15-.38.1,0,.09.4Z"/><path class="cls-10" d="M91.43,45.39,91.28,45l0,0,.15.36Z"/><path class="cls-10" d="M82.26,46.34l0,.31c0-.09-.1-.18,0-.28A.05.05,0,0,0,82.26,46.34Z"/></g><line class="cls-11" x1="87.6" y1="32.38" x2="88.46" y2="34.62"/><line class="cls-11" x1="80.8" y1="35" x2="83.54" y2="42.11"/><line class="cls-11" x1="74.01" y1="37.62" x2="78.63" y2="49.61"/><line class="cls-11" x1="67.21" y1="40.24" x2="73.71" y2="57.11"/><line class="cls-11" x1="60.42" y1="42.85" x2="68.8" y2="64.61"/><path d="M85.64,42.51l-.39-1a.55.55,0,1,1,1-.39l.39,1a.54.54,0,0,1-.31.7A.55.55,0,0,1,85.64,42.51Z"/><path d="M84.14,52.1l-.39-1a.55.55,0,0,1,.31-.71.56.56,0,0,1,.71.32l.39,1a.55.55,0,1,1-1,.39Z"/><path d="M82.65,61.69l-.4-1a.55.55,0,0,1,1-.39l.4,1a.55.55,0,0,1-.32.71A.53.53,0,0,1,82.65,61.69Zm-3.28-8.5-.39-1a.55.55,0,0,1,1-.4l.39,1a.55.55,0,1,1-1,.4Z"/><path d="M81.15,71.29l-.4-1a.56.56,0,0,1,.32-.71.55.55,0,0,1,.71.31l.39,1a.55.55,0,0,1-1,.4Zm-3.28-8.51-.39-1a.55.55,0,1,1,1-.39l.39,1a.54.54,0,0,1-.31.7A.55.55,0,0,1,77.87,62.78Z"/><path d="M79.65,80.88l-.39-1a.55.55,0,1,1,1-.4l.39,1a.54.54,0,0,1-.31.7A.55.55,0,0,1,79.65,80.88Zm-3.28-8.51-.39-1A.55.55,0,1,1,77,71l.39,1a.55.55,0,0,1-.31.71A.56.56,0,0,1,76.37,72.37Z"/><path d="M78.15,90.47l-.39-1a.55.55,0,0,1,.31-.71.54.54,0,0,1,.71.32l.39,1a.54.54,0,0,1-.31.7A.55.55,0,0,1,78.15,90.47ZM74.88,82l-.4-1a.55.55,0,0,1,1-.39l.4,1a.55.55,0,0,1-.32.71A.53.53,0,0,1,74.88,82Zm-3.28-8.5-.39-1a.55.55,0,1,1,1-.4l.39,1a.55.55,0,0,1-1,.4Z"/><rect x="87.46" y="32.35" width="0.59" height="0.89" rx="0.29" transform="translate(-5.92 33.74) rotate(-21.07)"/><line class="cls-7" x1="105.51" y1="27.52" x2="117.42" y2="58.43"/><line class="cls-7" x1="99.56" y1="29.82" x2="111.46" y2="60.73"/><path class="cls-2" d="M170.54,55.76l12.74-8.15a8.57,8.57,0,0,0,4.91-11q-4.73-14.16-9.44-28.31a8.59,8.59,0,0,0-4.51-4.74c-2.39-1.06-4.71-.56-6.54-.17-4.25.9-8.9,1.83-14.82,3"/></g></g></svg>