<svg xmlns="http://www.w3.org/2000/svg" xmlns:xlink="http://www.w3.org/1999/xlink" viewBox="0 0 289.59 320.7"><defs><style>.cls-1{fill:#d9eaff;}.cls-2{fill:url(#radial-gradient);}.cls-3{fill:#7f7f7f;}.cls-4{fill:url(#radial-gradient-2);}.cls-5{fill:url(#radial-gradient-3);}.cls-6{fill:url(#radial-gradient-5);}.cls-7{fill:url(#radial-gradient-6);}.cls-8{fill:url(#radial-gradient-7);}.cls-9{fill:#6c757f;}.cls-10{fill:url(#radial-gradient-8);}.cls-11{fill:#4d73a9;}</style><radialGradient id="radial-gradient" cx="-357.78" cy="3087.3" r="1" gradientTransform="matrix(53.87, 0, 0, -53.87, 19495.88, 166553.76)" gradientUnits="userSpaceOnUse"><stop offset="0" stop-color="#fff"/><stop offset="1" stop-color="#e5f4ff"/></radialGradient><radialGradient id="radial-gradient-2" cx="-357.78" cy="3087.3" r="1" gradientTransform="matrix(92.19, 0, 0, -92.19, 33147.22, 284779.11)" xlink:href="#radial-gradient"/><radialGradient id="radial-gradient-3" cx="-357.78" cy="3087.3" r="1" gradientTransform="matrix(92.19, 0, 0, -92.19, 33147.22, 284779.11)" gradientUnits="userSpaceOnUse"><stop offset="0" stop-color="gray"/><stop offset="1" stop-color="#667580"/></radialGradient><radialGradient id="radial-gradient-5" cx="-357.78" cy="3087.3" r="1" gradientTransform="matrix(37.61, 0, 0, -37.61, 13527.15, 116341.9)" xlink:href="#radial-gradient"/><radialGradient id="radial-gradient-6" cx="-357.78" cy="3087.3" r="1" gradientTransform="matrix(52.92, 0, 0, -52.92, 19026.44, 163598.22)" xlink:href="#radial-gradient"/><radialGradient id="radial-gradient-7" cx="-357.78" cy="3087.3" r="1" gradientTransform="matrix(17.32, 0, 0, -17.32, 6268.48, 53733.59)" xlink:href="#radial-gradient"/><radialGradient id="radial-gradient-8" cx="-357.78" cy="3087.3" r="1" gradientTransform="matrix(8.17, 0, 0, -8.17, 3094.77, 25406.84)" xlink:href="#radial-gradient"/></defs><g id="Layer_2" data-name="Layer 2"><g id="BG"><path class="cls-1" d="M169.37,261.79c-9.48,3.75-22-1.72-22-1.72-20.45-16.41-39.93-13.24-47.74-8.5-6.66,4.22-5.16,14.75,6.51,21.1,4.06,2.21,37.11,22.62,45,25.2s28.5,2.33,37.86,4.48c10,1.25,50.17-1.17,50.17-1.17L267.11,320l-97.74-58.21"/><path d="M169.18,261.33a20.27,20.27,0,0,1-7.4,1.28,36.91,36.91,0,0,1-9.85-1.5c-1.31-.38-2.4-.75-3.16-1l-.87-.34-.3-.13-.2.46.31-.39c-11.67-9.37-23.07-12.43-32.2-12.42-7,0-12.63,1.77-16.11,3.88h0a8.77,8.77,0,0,0-4.18,7.6c0,4.86,3.49,10.42,10.72,14.36,1,.54,3.83,2.23,7.62,4.5,5.69,3.39,13.55,8.08,20.73,12.17,3.59,2,7,3.93,9.91,5.44a53.82,53.82,0,0,0,6.79,3.12c4.05,1.33,11.17,1.9,18.49,2.43s14.81,1,19.42,2.07h.05a87.3,87.3,0,0,0,9.42.36c15.47,0,40.83-1.53,40.84-1.53l0-.5-.28.42,28.35,19.1.56-.83-28.49-19.2h-.17l-4.21.24c-7.85.43-25,1.29-36.57,1.29a87.1,87.1,0,0,1-9.3-.35l-.06.49.11-.48c-4.75-1.09-12.25-1.56-19.57-2.09s-14.43-1.13-18.25-2.39a75.13,75.13,0,0,1-9.69-4.67c-6.38-3.47-14.42-8.17-21.23-12.21s-12.41-7.43-14-8.28c-7-3.81-10.21-9.12-10.2-13.48A7.77,7.77,0,0,1,99.93,252l-.27-.42.26.43c3.28-2,8.78-3.75,15.59-3.74,8.91,0,20.07,3,31.58,12.2l0,.05.06,0a41.19,41.19,0,0,0,14.58,3.08,21.46,21.46,0,0,0,7.77-1.35l.47-.19-.37-.93-.47.19h0"/><path d="M53.76,213.59l-1-.9c-2.35-2-8.35-7.26-14.73-13.36s-13.17-13.09-17.06-18.55a8.73,8.73,0,0,1-2-4.89,3.4,3.4,0,0,1,1.53-2.95,7.62,7.62,0,0,1,4.32-1.1c5.68,0,14.55,3.86,22,13.3l.79-.62c-7.61-9.64-16.66-13.67-22.77-13.68a8.59,8.59,0,0,0-4.9,1.28,4.45,4.45,0,0,0-2,3.77,9.73,9.73,0,0,0,2.14,5.47c4.54,6.37,12.78,14.6,19.9,21.26s13.1,11.73,13.1,11.73l.65-.76"/><path d="M51.73,185.16l-.36-1c-.81-2.21-2.83-8-4.71-14.62s-3.6-14.28-3.8-20.21c0-.18,0-.37,0-.55a8.09,8.09,0,0,1,1.48-5.24A4.42,4.42,0,0,1,47.9,142c2.29,0,5.15,1.35,7.68,3.93A22.89,22.89,0,0,1,61.36,157c3.14,14.25,6.92,21.74,8.76,24.79l.86-.52c-1.78-2.94-5.52-10.33-8.65-24.48a23.83,23.83,0,0,0-6-11.61c-2.67-2.72-5.71-4.23-8.39-4.23a5.42,5.42,0,0,0-4.34,2,9,9,0,0,0-1.71,5.87c0,.19,0,.39,0,.59.24,7,2.48,16,4.65,23.25s4.28,12.86,4.29,12.87l.93-.35"/><path d="M81.56,178.37l-.12-.2c-1.18-2-10.8-18.6-12.16-34.81q-.09-1.11-.09-2.07a10.21,10.21,0,0,1,1.35-5.79,3.66,3.66,0,0,1,3.15-1.68c2,0,4.43,1.32,6.64,3.76a22.79,22.79,0,0,1,5.13,10.14c1.48,6.38,4.86,13.24,8,18.51a68.41,68.41,0,0,0,4.34,6.48,20.74,20.74,0,0,0,1.59,1.88,5.38,5.38,0,0,0,.59.54,1.17,1.17,0,0,0,.28.17.77.77,0,0,0,.37.1h0v0h0v-1h0l0,.32v-.32h0l0,.32v-.07l.07-.24h-.07v.25l.07-.24h0a4.3,4.3,0,0,1-.87-.81,63.5,63.5,0,0,1-7-10.36,64.13,64.13,0,0,1-6.48-15.75,23.82,23.82,0,0,0-5.36-10.59c-2.34-2.56-5-4.07-7.38-4.08a4.69,4.69,0,0,0-4,2.11,11.22,11.22,0,0,0-1.52,6.36c0,.67,0,1.39.09,2.15,1.5,17.63,12.42,35.42,12.43,35.45l.85-.52"/><path d="M106.94,172.73l-.25-.58c-1.12-2.62-5.61-13.87-5.6-24,0-.29,0-.58,0-.87a8.08,8.08,0,0,1,1-4.15,2.31,2.31,0,0,1,2-1.14,5.12,5.12,0,0,1,2.84,1.09c3.15,2.17,6.62,7.49,7.63,14,1.59,10.08,5.89,13.09,6,13.15l.56-.82-.1.14.1-.14h0l-.1.15.1-.14s-4-2.8-5.58-12.49a25.57,25.57,0,0,0-4.66-11.32,15.4,15.4,0,0,0-3.37-3.38,6.25,6.25,0,0,0-3.42-1.26,3.3,3.3,0,0,0-2.85,1.59,8.84,8.84,0,0,0-1.14,4.67c0,.3,0,.6,0,.9,0,11.92,5.93,25,5.94,25l.91-.41"/><path class="cls-1" d="M258.81,231.32A71.15,71.15,0,0,1,288.61,259"/><path d="M258.61,231.78l.2.08a71.19,71.19,0,0,1,29.37,27.39l.86-.5a71.56,71.56,0,0,0-30-27.89l-.39.92Z"/><path class="cls-2" d="M287.25,193.8l-62,12.9.17.3-.43.25a100.35,100.35,0,0,0-10.42,7.22c-3.53,2.68-6.75,5.22-8.7,6.41a12,12,0,0,1-2.56,1c-1.15.34-2.58.71-4.23,1.12-3.29.81-7.45,1.76-11.91,2.9-8.91,2.27-19,5.31-25.57,9.46a18.79,18.79,0,0,0-6.8,6.9c-.18.34-.34.67-.48,1l.14,0,.2,1-.77.15a14.21,14.21,0,0,0,.35,9.82v0l0,0v0h0l0,.05.09.22c.08.18.21.45.39.78a10.72,10.72,0,0,0,1.89,2.42c1.84,1.76,4.91,3.54,10,3.54a29.62,29.62,0,0,0,7.72-1.14h0c5.94-1.66,14.87-4.51,24.1-7.14s18.74-5.07,25.9-5.88h0c8.79-.95,14.72-2.51,19.64-6.39s8.89-10.16,13.6-20.67c3.18-7.08,10.93-13.8,17.88-18.8a130.44,130.44,0,0,1,11.7-7.47"/><path class="cls-3" d="M289.12,192.77l-.44.24s-.52.27-1.43.79a130.44,130.44,0,0,0-11.7,7.47c-6.95,5-14.7,11.72-17.88,18.8-4.71,10.51-8.68,16.79-13.6,20.67s-10.85,5.44-19.64,6.39h0c-7.16.81-16.68,3.24-25.9,5.88s-18.16,5.48-24.1,7.14h0a29.62,29.62,0,0,1-7.72,1.14c-5.1,0-8.17-1.78-10-3.54a10.72,10.72,0,0,1-1.89-2.42c-.18-.33-.31-.6-.39-.78l-.09-.22,0-.05h0v0l0,0v0a14.21,14.21,0,0,1-.35-9.82l-1.11.22a14.65,14.65,0,0,0-.6,4.18,14.89,14.89,0,0,0,1.15,5.84,10.7,10.7,0,0,0,2.64,3.86,14.49,14.49,0,0,0,9.78,3.8,17.21,17.21,0,0,0,3.39-.94h0l.47-.19.37.93a36.55,36.55,0,0,0,4.67-.95h0c6-1.66,14.9-4.51,24.11-7.14s18.69-5.05,25.74-5.85h0c8.84-1,15-2.54,20.15-6.59s9.16-10.5,13.89-21.05c3-6.76,10.66-13.45,17.55-18.4,3.45-2.48,6.71-4.53,9.1-6,1.2-.71,2.18-1.27,2.86-1.65l1.06-.58.44-.23-.47-.89"/><path d="M169.65,261.14l-.47.19h0a17.21,17.21,0,0,1-3.39.94l.9,0h0a26.37,26.37,0,0,0,3.31-.22l-.37-.93"/><path class="cls-3" d="M225,206.13l-.43.25a101.34,101.34,0,0,0-10.54,7.3c-3.53,2.68-6.76,5.22-8.61,6.35a12.14,12.14,0,0,1-2.33.89c-3.92,1.18-11.48,2.73-19.5,4.9s-16.54,5-22.45,8.7a19.75,19.75,0,0,0-7.15,7.27,16.19,16.19,0,0,0-.78,1.71l1.18-.23c.14-.34.3-.67.48-1a18.79,18.79,0,0,1,6.8-6.9c6.57-4.15,16.66-7.19,25.57-9.46,4.46-1.14,8.62-2.09,11.91-2.9,1.65-.41,3.08-.78,4.23-1.12a12,12,0,0,0,2.56-1c2-1.19,5.17-3.73,8.7-6.41A100.35,100.35,0,0,1,225,207.25l.43-.25-.17-.3-.32-.57"/><path class="cls-4" d="M195.07,159.56c-13.11.92-26.84,1.58-37.66,2.43-8.17.64-14.7,1.41-17.94,2.44a108,108,0,0,1-13,4.22c-1.84.51-3.81,1-5.88,1.58h0c-4.64,1.21-9.79,2.5-15.17,3.79l-4.7,1.12v.25h0a.77.77,0,0,1-.37-.1l-.08,0C86,178.6,70.84,181.9,59.5,184.19c-8.49,1.71-14.8,2.85-17,3a2.73,2.73,0,0,0-1.52.71,5,5,0,0,0-1.13,3.59,12.23,12.23,0,0,0,.93,4.52,9.59,9.59,0,0,0,2.63,3.75,8.07,8.07,0,0,0,5.22,1.65,17.06,17.06,0,0,0,2.28-.17c10.48-1.45,29.84-4.26,40.89-6.06,3.65-.59,6.4-1.08,7.6-1.36,5.91-2.08,10.94-3.7,14.61-4.85l.48-.15v0l80.62-29.32m91.05-33.13L198.51,158.3c5.51-.41,10.84-.88,15.73-1.44,8.71-1,16-2.28,20.32-4h0c8.07-2.78,19.39-8.44,29.55-13.93,9.56-5.16,18.1-10.17,22-12.48"/><path class="cls-5" d="M100.68,175.15l-.47.11.08,0a.77.77,0,0,0,.37.1h0v-.25"/><path class="cls-5" d="M120.56,170.23h0"/><path class="cls-3" d="M99.28,174.45c-6,1.4-12.09,2.79-18,4.1l-.56.34-.11-.19-7.22,1.57-2.67.57q.14.24.27.45l-.86.52-.44-.75c-6.14,1.3-11.74,2.44-16.3,3.32l-1.81.34c.1.29.16.44.16.44l-.93.35-.23-.6c-4,.74-6.9,1.21-8.19,1.3a3.66,3.66,0,0,0-2.14,1,6,6,0,0,0-1.44,4.31,13.14,13.14,0,0,0,1,4.9,10.59,10.59,0,0,0,2.91,4.14,9.06,9.06,0,0,0,5.86,1.88,18.52,18.52,0,0,0,2.42-.18c7-1,17.92-2.54,27.71-4,4.9-.74,9.51-1.45,13.2-2.05l1.64-.27,3.94-1.41,1.86-.67c-1.2.28-3.95.77-7.6,1.36-11,1.8-30.41,4.61-40.89,6.06a17.06,17.06,0,0,1-2.28.17,8.07,8.07,0,0,1-5.22-1.65A9.59,9.59,0,0,1,40.73,196a12.23,12.23,0,0,1-.93-4.52,5,5,0,0,1,1.13-3.59,2.73,2.73,0,0,1,1.52-.71c2.25-.17,8.56-1.31,17-3,11.34-2.29,26.51-5.59,40.71-8.93l-.2-.13a5.38,5.38,0,0,1-.59-.54,1.85,1.85,0,0,1-.14-.14m20.38-5c-4,1-8.26,2.11-12.76,3.2a.41.41,0,0,0,0,.09l-.91.41s0-.1-.12-.27q-2.7.66-5.48,1.31a2.12,2.12,0,0,0,.3.23h0l0,.18v.56l4.7-1.12c5.38-1.29,10.53-2.58,15.17-3.79a5.78,5.78,0,0,1-.89-.8m169.12-44.6-.43.26-1.55.93-.68.4c-3.89,2.31-12.43,7.32-22,12.48-10.16,5.49-21.48,11.15-29.55,13.93h0c-4.3,1.73-11.61,3-20.32,4-4.89.56-10.22,1-15.73,1.44-9.21.7-18.9,1.23-27.81,1.78-7.12.44-13.73.89-19.19,1.42a68.21,68.21,0,0,0-12.37,2h0c-3,1.37-9.77,3.39-18.3,5.63a2.09,2.09,0,0,0,.33.27h0l-.07.09-.49.72c2.07-.54,4-1.07,5.88-1.58a108,108,0,0,0,13-4.22c3.24-1,9.77-1.8,17.94-2.44,10.82-.85,24.55-1.51,37.66-2.43l5.31-.4c7.32-.57,14.28-1.24,20.25-2.11s10.92-1.92,14.28-3.27c9.35-3.22,22.82-10.17,34-16.32s20-11.5,20-11.5l.42-.26-.51-.86"/><path d="M51.57,184.72l-1,.19.23.6.93-.35s-.06-.15-.16-.44m19.14-3.88-1,.22.44.75.86-.52q-.14-.21-.27-.45"/><path d="M81.27,178.55l-.67.15.11.19.56-.34m19.16-4.37-1.15.27a1.85,1.85,0,0,0,.14.14,5.38,5.38,0,0,0,.59.54l.2.13.47-.11v-.56l0-.18h0a2.12,2.12,0,0,1-.3-.23"/><path d="M106.9,172.64l-1,.23c.07.17.12.26.12.27l.91-.41a.41.41,0,0,1,0-.09m13.89-3.5-1,.26-.14,0a5.78,5.78,0,0,0,.89.8h0l.49-.72.07-.09h0a2.09,2.09,0,0,1-.33-.27"/><path class="cls-6" d="M112.87,190.38c-3.92,1.24-9.08,2.93-15.05,5.07C87.35,199.2,79.65,202,72,205.85a56,56,0,0,0-8.65,5.21c-2.68,1.91-6.3,4.56-14.15,9.61-6.1,4.75-10.77,8.14-14.24,10.82s-5.74,4.63-7,6.46a7.56,7.56,0,0,0-1.46,3.65,6.15,6.15,0,0,0,2.25,4,19.25,19.25,0,0,0,4.64,3l.24.12,79.31-58.27"/><path class="cls-3" d="M114.44,188.84,114,189c-3.67,1.15-8.7,2.77-14.61,4.85l-1.86.67-3.94,1.41a195.32,195.32,0,0,0-22,9,56.81,56.81,0,0,0-8.78,5.28c-2.69,1.92-6.28,4.55-14.13,9.6h0l0,0c-8.13,6.33-13.7,10.24-17.36,13.31a23.59,23.59,0,0,0-4.13,4.19,8.56,8.56,0,0,0-1.65,4.16v.08A7.11,7.11,0,0,0,28,246.29a19.92,19.92,0,0,0,4.88,3.14l.37.18.15-.11.36-.76-.21-.09-.24-.12a19.25,19.25,0,0,1-4.64-3,6.15,6.15,0,0,1-2.25-4A7.56,7.56,0,0,1,27.89,238c1.3-1.83,3.57-3.79,7-6.46s8.14-6.07,14.24-10.82c7.85-5,11.47-7.7,14.15-9.61A56,56,0,0,1,72,205.85c7.68-3.85,15.38-6.65,25.85-10.4,6-2.14,11.13-3.83,15.05-5.07l1.39-.44.48-.14-.29-.92v0"/><path class="cls-7" d="M138.26,199.84,138,200c-1.53.65-4.22,1.57-7.77,2.78s-8,2.69-12.86,4.45a279.34,279.34,0,0,0-32.87,13.95c-11.93,6.15-23.86,12.8-33.58,18.55s-17.21,10.59-20.29,13.13a8.62,8.62,0,0,0-2.89,5.43,3.37,3.37,0,0,0,.77,1.89,9.31,9.31,0,0,0,2.08,1.93,14.92,14.92,0,0,0,6,2.43h0a12.61,12.61,0,0,0,2.56.25,18.09,18.09,0,0,0,8.36-2.29l1.61-1,.1-.12.36-.35.12.12c6.79-4,19-10.68,35.37-19.85h0c8-4.38,21.44-8.83,35.72-13.13,14.12-4.26,29.07-8.35,40.37-12l-22.9-16.29"/><path class="cls-3" d="M162,215.86l-.48.16-.35.11c-11.3,3.67-26.25,7.76-40.37,12-14.28,4.3-27.7,8.75-35.72,13.13h0c-16.38,9.17-28.58,15.84-35.37,19.85l.57.59h.4c6.85-4,18.87-10.61,34.88-19.57h0c7.87-4.3,21.27-8.76,35.53-13s29.37-8.43,40.74-12.14l.48-.16-.31-.95m-24-17-.46.2c-1.45.62-4.15,1.55-7.69,2.75-10.65,3.61-29,9.78-45.87,18.46-12,6.16-23.89,12.82-33.63,18.58-7.12,4.21-13.06,7.94-17,10.67l-.15.11c-1.37.95-2.48,1.78-3.31,2.46h0l0,0a9.6,9.6,0,0,0-3.2,6.11v0a4.39,4.39,0,0,0,1,2.49,11.9,11.9,0,0,0,3.77,3.05,15.73,15.73,0,0,0,4.95,1.7,14.58,14.58,0,0,0,2.74.26A19.09,19.09,0,0,0,48,263.33h0l.25-.15a1.67,1.67,0,0,1,.08-.2,8.86,8.86,0,0,1,.51-1.07,2.63,2.63,0,0,1,.26-.41l-1.61,1a18.09,18.09,0,0,1-8.36,2.29,12.61,12.61,0,0,1-2.56-.25h0a14.92,14.92,0,0,1-6-2.43,9.31,9.31,0,0,1-2.08-1.93,3.37,3.37,0,0,1-.77-1.89,8.62,8.62,0,0,1,2.89-5.43c3.08-2.54,10.6-7.4,20.29-13.13s21.65-12.4,33.58-18.55a279.34,279.34,0,0,1,32.87-13.95c4.91-1.76,9.31-3.25,12.86-4.45s6.24-2.13,7.77-2.78l.28-.12.18-.08-.4-.92"/><path class="cls-8" d="M95.09,261.73H50.28l-.36.35h0l0,0,0,.06-.13.22c-.1.17-.2.39-.31.62a7.54,7.54,0,0,0-.42,1.13,1.18,1.18,0,0,0,0,.27,2.79,2.79,0,0,0,.82,1.72A11,11,0,0,0,52.12,268,25.3,25.3,0,0,0,58.9,271a24,24,0,0,0,6.18.78,30,30,0,0,0,9.62-1.64h0c2.21-.7,3.74-1.42,4.41-1.68,3.91-1.51,9.09-3.63,16-6.71"/><path class="cls-3" d="M49.58,261l-.36.35-.1.12a2.63,2.63,0,0,0-.26.41,8.86,8.86,0,0,0-.51,1.07,1.67,1.67,0,0,0-.08.2,4.16,4.16,0,0,0-.25.76,2,2,0,0,0-.05.48A3.72,3.72,0,0,0,49,266.78a14.52,14.52,0,0,0,4.16,3.05A27.24,27.24,0,0,0,58.64,272a24.78,24.78,0,0,0,6.44.82,30.47,30.47,0,0,0,9.94-1.7h0a46.92,46.92,0,0,0,4.47-1.7c4-1.54,9.31-3.71,16.38-6.89-.12-.32-.21-.65-.3-1l-.48.22c-6.87,3.08-12,5.2-16,6.71-.67.26-2.2,1-4.41,1.68h0a30,30,0,0,1-9.62,1.64A24,24,0,0,1,58.9,271,25.3,25.3,0,0,1,52.12,268a11,11,0,0,1-2.33-1.91,2.79,2.79,0,0,1-.82-1.72,1.18,1.18,0,0,1,0-.27,7.54,7.54,0,0,1,.42-1.13c.11-.23.21-.45.31-.62l.13-.22,0-.06,0,0h0l.36-.35h0l-.57-.59-.12-.12"/><path class="cls-9" d="M96.56,261.07l-.06,0c.08.32.17.64.28,1L97,262l-.41-.91"/><path d="M96.5,261.1l-.4.18-.53.23c.09.32.18.65.3,1l.64-.29.27-.12c-.11-.33-.2-.65-.28-1"/><path class="cls-3" d="M154.5,243.24l-.14,0-1.18.23-26.55,5.22c.7.18,1.41.38,2.12.6l24.07-4.73,1.11-.22.77-.15-.2-1"/><path class="cls-9" d="M126.18,249.63l0,.19.39-.08-.42-.11"/><path d="M126.63,248.72l-.61.12.16.79.42.11,2.15-.42c-.71-.22-1.42-.42-2.12-.6"/><path class="cls-10" d="M175.2,187.23a29.36,29.36,0,0,0-13.09,2.71l19.82-2.16a42.83,42.83,0,0,0-6.73-.55"/><path class="cls-3" d="M175.2,186.23c-9.52,0-14.58,3.4-14.63,3.44l-.42.28.56.83.42-.28,0,0c.12-.07.43-.27.94-.53a29.36,29.36,0,0,1,13.09-2.71,42.83,42.83,0,0,1,6.73.55c.55.08,1.11.18,1.68.29l.49.1.19-1-.49-.1a45.69,45.69,0,0,0-8.6-.86"/><path class="cls-1" d="M232.13,246.51s24,0,32.8,21.46"/><path d="M232.13,247h.25a41.7,41.7,0,0,1,14,3.17,32.63,32.63,0,0,1,18.1,18l.92-.38a33.85,33.85,0,0,0-20-19A42,42,0,0,0,232.13,246v1Z"/><polyline class="cls-11" points="87.05 1.32 87.05 35.96 88.05 35.96 88.05 1.32"/><polyline class="cls-11" points="87.05 59 87.05 93.64 88.05 93.64 88.05 59"/><polyline class="cls-11" points="41.39 47.98 76.03 47.98 76.03 46.98 41.39 46.98"/><polyline class="cls-11" points="99.06 47.98 133.71 47.98 133.71 46.98 99.06 46.98"/><polyline class="cls-11" points="22.58 0 22.58 17.32 23.58 17.32 23.58 0"/><polyline class="cls-11" points="22.58 28.84 22.58 46.16 23.58 46.16 23.58 28.84"/><polyline class="cls-11" points="0 23.58 17.32 23.58 17.32 22.58 0 22.58"/><polyline class="cls-11" points="28.84 23.58 46.16 23.58 46.16 22.58 28.84 22.58"/><path d="M224.54,206.38a101.34,101.34,0,0,0-10.54,7.3c-3.53,2.68-6.76,5.22-8.61,6.35a12.14,12.14,0,0,1-2.33.89c-3.92,1.18-11.48,2.73-19.5,4.9s-16.54,5-22.45,8.7a19.75,19.75,0,0,0-7.15,7.27,15.12,15.12,0,0,0-.58,12.85l.45-.21-.47.16a10.55,10.55,0,0,0,2.65,3.88c2,1.92,5.36,3.82,10.7,3.82a31,31,0,0,0,8-1.17h0c6-1.66,14.9-4.51,24.11-7.14s18.69-5.05,25.74-5.85h0c8.84-1,15-2.54,20.15-6.59s9.16-10.5,13.89-21.05c3-6.76,10.66-13.45,17.55-18.4,3.45-2.48,6.71-4.53,9.1-6,1.2-.71,2.18-1.27,2.86-1.65l1.06-.58.44-.23-.47-.89-.44.24a124.13,124.13,0,0,0-13.13,8.26c-6.95,5-14.7,11.72-17.88,18.8-4.71,10.51-8.68,16.79-13.6,20.67s-10.85,5.44-19.64,6.39h0c-7.16.81-16.68,3.24-25.9,5.88s-18.16,5.48-24.1,7.14h0a29.62,29.62,0,0,1-7.72,1.14c-5.1,0-8.17-1.78-10-3.54a10.72,10.72,0,0,1-1.89-2.42c-.18-.33-.31-.6-.39-.78l-.09-.22,0-.05h0v0l0,0v0a14.11,14.11,0,0,1,.56-11.93,18.79,18.79,0,0,1,6.8-6.9c6.57-4.15,16.66-7.19,25.57-9.46,4.45-1.14,8.62-2.09,11.91-2.9,1.65-.41,3.08-.78,4.23-1.12a12,12,0,0,0,2.56-1c2-1.19,5.17-3.73,8.7-6.41A100.35,100.35,0,0,1,225,207.25l.43-.25-.49-.87-.43.25Z"/><path d="M288.35,125.1l-1.55.93c-3.5,2.09-12.51,7.4-22.67,12.88s-21.48,11.15-29.55,13.93h0c-4.3,1.73-11.61,3-20.32,4-13.07,1.5-29.31,2.35-43.54,3.22-7.12.44-13.73.89-19.2,1.42a68.23,68.23,0,0,0-12.36,2h0c-3.16,1.42-10.29,3.54-19.28,5.89-13.51,3.53-31.25,7.61-46.43,10.87-7.59,1.63-14.54,3.06-20,4.11s-9.43,1.71-11,1.83a3.66,3.66,0,0,0-2.14,1,6,6,0,0,0-1.44,4.31,13.14,13.14,0,0,0,1,4.9,10.59,10.59,0,0,0,2.91,4.14,9,9,0,0,0,5.86,1.88,18.52,18.52,0,0,0,2.42-.18c7-1,17.92-2.54,27.71-4,4.9-.74,9.51-1.45,13.2-2.05s6.46-1.09,7.7-1.38l.49-.11-.23-1-.49.12c-1.18.28-3.95.76-7.63,1.36-11,1.8-30.41,4.61-40.89,6.06a16.87,16.87,0,0,1-2.28.18,8.14,8.14,0,0,1-5.22-1.66A9.59,9.59,0,0,1,40.73,196a12.23,12.23,0,0,1-.93-4.52,5,5,0,0,1,1.13-3.59,2.73,2.73,0,0,1,1.52-.71c2.25-.17,8.56-1.31,17-3,12.73-2.57,30.29-6.41,45.88-10.16,7.79-1.87,15.09-3.72,21.06-5.38a108.52,108.52,0,0,0,13.06-4.23l-.21-.46.15.48c3.24-1,9.78-1.81,18-2.45,12.29-1,28.34-1.69,43-2.83,7.32-.57,14.28-1.24,20.25-2.11s10.93-1.92,14.3-3.28l-.19-.46.17.47c9.34-3.22,22.81-10.17,34-16.32s20-11.5,20-11.5l.42-.26-.51-.86-.43.26Z"/><path d="M114,189c-4,1.27-9.75,3.11-16.47,5.52-10.48,3.75-18.22,6.56-26,10.45a56.81,56.81,0,0,0-8.78,5.28c-2.69,1.92-6.28,4.55-14.13,9.6h0l0,0c-8.13,6.33-13.7,10.24-17.36,13.31a23.59,23.59,0,0,0-4.13,4.19,8.56,8.56,0,0,0-1.65,4.16v.08A7.11,7.11,0,0,0,28,246.29a19.92,19.92,0,0,0,4.88,3.14l.45.22.43-.91-.45-.21a19.25,19.25,0,0,1-4.64-3,6.12,6.12,0,0,1-2.25-4l-.5,0,.5,0A7.46,7.46,0,0,1,27.89,238c1.3-1.83,3.57-3.79,7-6.46s8.15-6.08,14.25-10.83l-.3-.4.27.42c7.87-5.05,11.48-7.71,14.17-9.62A56,56,0,0,1,72,205.85c7.68-3.85,15.38-6.65,25.85-10.4,6.71-2.4,12.39-4.24,16.44-5.51l.48-.14-.3-1L114,189Z"/><path d="M137.58,199c-1.45.62-4.15,1.55-7.69,2.75-10.65,3.61-29,9.78-45.87,18.46-12,6.16-23.89,12.82-33.63,18.58S33.13,249.45,30,252.07h0l0,0a9.6,9.6,0,0,0-3.2,6.11v0a4.39,4.39,0,0,0,1,2.49,11.9,11.9,0,0,0,3.77,3.05,15.7,15.7,0,0,0,5,1.7l.07-.5-.1.49a13.94,13.94,0,0,0,2.76.27A19.09,19.09,0,0,0,48,263.33h0c6.09-3.75,19.2-10.9,37.54-21.16l-.25-.44.24.44c7.87-4.3,21.27-8.76,35.53-13s29.37-8.43,40.74-12.14l.48-.16-.31-.95-.48.16c-11.34,3.69-26.45,7.83-40.72,12.13s-27.7,8.75-35.71,13.13h0c-18.33,10.26-31.43,17.4-37.57,21.18l.26.42-.24-.44a18.16,18.16,0,0,1-8.37,2.3,12.61,12.61,0,0,1-2.56-.25h0a14.92,14.92,0,0,1-6-2.43,9.31,9.31,0,0,1-2.08-1.93,3.38,3.38,0,0,1-.77-1.91h-.5l.49,0a8.62,8.62,0,0,1,2.91-5.46l-.35-.35.32.38c3.06-2.54,10.59-7.4,20.31-13.15s21.65-12.4,33.58-18.55a279.34,279.34,0,0,1,32.87-13.95c4.91-1.76,9.31-3.25,12.86-4.45s6.24-2.13,7.77-2.78l.46-.2-.4-.92-.46.2Z"/><path d="M96.1,261.28c-7.37,3.33-12.87,5.57-17,7.16-.67.26-2.2,1-4.41,1.68h0a30,30,0,0,1-9.62,1.64A24,24,0,0,1,58.9,271,25.44,25.44,0,0,1,52.12,268a11,11,0,0,1-2.33-1.91,2.79,2.79,0,0,1-.82-1.72,1.18,1.18,0,0,1,0-.27,7.54,7.54,0,0,1,.42-1.13c.11-.23.21-.45.31-.63l.13-.21,0-.06,0,0h0l.36-.35-.7-.72-.36.35a2.59,2.59,0,0,0-.36.53,8.86,8.86,0,0,0-.51,1.07,5.79,5.79,0,0,0-.33,1,2.61,2.61,0,0,0-.05.48A3.72,3.72,0,0,0,49,266.78a14.52,14.52,0,0,0,4.16,3.05A27.24,27.24,0,0,0,58.64,272a24.78,24.78,0,0,0,6.44.82,30.77,30.77,0,0,0,10-1.7h0l-.17-.48.15.48c2.26-.71,3.87-1.46,4.48-1.7,4.11-1.59,9.62-3.84,17-7.18L97,262l-.41-.91-.46.21Z"/><polyline points="126.21 249.82 154.7 244.22 154.5 243.24 126.02 248.84"/><path d="M161.13,190.5l0,0c.52-.33,5.33-3.24,14-3.24a44.49,44.49,0,0,1,8.41.84l.49.1.19-1-.49-.1a45.69,45.69,0,0,0-8.6-.86c-9.52,0-14.58,3.4-14.63,3.44l-.42.28.56.83.42-.28Z"/></g></g></svg>