<svg xmlns="http://www.w3.org/2000/svg" viewBox="0 0 21.58 31.74"><defs><style>.cls-1{fill:#2e71af;}.cls-2{fill:none;stroke:#2e71af;stroke-miterlimit:10;stroke-width:0.79px;}</style></defs><g id="Layer_2" data-name="Layer 2"><g id="Layer_1-2" data-name="Layer 1"><circle class="cls-1" cx="10.84" cy="27.08" r="1.48"/><circle class="cls-1" cx="10.84" cy="23.34" r="1.48"/><circle class="cls-1" cx="10.84" cy="19.6" r="1.48"/><circle class="cls-1" cx="10.84" cy="15.86" r="1.48"/><circle class="cls-1" cx="10.84" cy="12.12" r="1.48"/><circle class="cls-1" cx="10.84" cy="8.38" r="1.48"/><circle class="cls-1" cx="7.69" cy="25.5" r="1.25"/><circle class="cls-1" cx="7.69" cy="22.35" r="1.25"/><circle class="cls-1" cx="7.69" cy="19.19" r="1.25"/><circle class="cls-1" cx="7.69" cy="16.04" r="1.25"/><circle class="cls-1" cx="7.69" cy="12.89" r="1.25"/><circle class="cls-1" cx="10.8" cy="1.25" r="1.25"/><circle class="cls-1" cx="13.94" cy="25.5" r="1.25"/><circle class="cls-1" cx="13.94" cy="22.35" r="1.25"/><circle class="cls-1" cx="13.94" cy="19.19" r="1.25"/><circle class="cls-1" cx="13.94" cy="16.04" r="1.25"/><circle class="cls-1" cx="13.94" cy="12.89" r="1.25"/><circle class="cls-1" cx="7.69" cy="9.73" r="1.25"/><circle class="cls-1" cx="7.69" cy="6.58" r="1.25"/><circle class="cls-1" cx="13.94" cy="9.73" r="1.25"/><circle class="cls-1" cx="13.94" cy="6.58" r="1.25"/><circle class="cls-1" cx="10.84" cy="4.6" r="1.48"/><circle class="cls-1" cx="7.69" cy="3.44" r="1.25"/><circle class="cls-1" cx="13.94" cy="3.44" r="1.25"/><path class="cls-2" d="M20.33,16.28a6.56,6.56,0,0,0-2.62,1.86c0-.12,0-.23,0-.34A6.22,6.22,0,0,1,20.81,13a.64.64,0,0,0-.54-1.16,7.47,7.47,0,0,0-3.8,5.74,21,21,0,0,0-.1,2.65c0,3.93.11,9.48-5.62,9.47-5.55,0-5.53-5.54-5.54-9.47a19.06,19.06,0,0,0-.11-2.65,7.44,7.44,0,0,0-3.79-5.74.64.64,0,0,0-.85.31A.65.65,0,0,0,.77,13,6.16,6.16,0,0,1,3.83,17.8c0,.11,0,.22,0,.34a6.56,6.56,0,0,0-2.62-1.86.64.64,0,0,0-.82.39.65.65,0,0,0,.4.82,5,5,0,0,1,3,3.47,12,12,0,0,1,.09,1.85c0,3.06.66,8.54,6.74,8.54h.26c6,0,6.7-5.47,6.72-8.53A10.81,10.81,0,0,1,17.74,21a4.91,4.91,0,0,1,3-3.47.65.65,0,0,0,.4-.82A.64.64,0,0,0,20.33,16.28Z"/></g></g></svg>