<svg xmlns="http://www.w3.org/2000/svg" viewBox="0 0 32.29 50.26"><defs><style>.cls-1{fill:none;}.cls-2{fill:#d4edfe;}.cls-3{fill:#7f7f7f;}.cls-4{fill:#fff;}.cls-5{fill:#c7c7c6;}.cls-6{fill:#4d72a9;}</style></defs><g id="Layer_2" data-name="Layer 2"><g id="Disinfectant"><polygon class="cls-1" points="4.38 12.13 4.38 12.13 19.6 12.13 19.6 12.13 4.38 12.13"/><path d="M31.43,8a.43.43,0,0,0,.86,0,.43.43,0,0,0-.45-.41A.43.43,0,0,0,31.43,8Z"/><path d="M29.88,8a.44.44,0,0,0,.45.41A.43.43,0,0,0,30.74,8a.43.43,0,0,0-.45-.41A.45.45,0,0,0,29.88,8Z"/><path d="M28.74,7.67a.43.43,0,0,0-.41.45.43.43,0,1,0,.86,0A.43.43,0,0,0,28.74,7.67Z"/><path d="M27.19,7.74a.45.45,0,0,0-.41.45.43.43,0,0,0,.45.41.43.43,0,0,0,.41-.45A.43.43,0,0,0,27.19,7.74Z"/><path d="M25.23,8.27a.45.45,0,0,0,.45.41.44.44,0,0,0,.41-.45.43.43,0,0,0-.45-.41A.43.43,0,0,0,25.23,8.27Z"/><path d="M23,8.38a.43.43,0,1,0-.86,0,.43.43,0,1,0,.86,0Z"/><path d="M20.58,8.49A.43.43,0,0,0,21,8.9a.43.43,0,0,0,.41-.45A.43.43,0,0,0,21,8,.44.44,0,0,0,20.58,8.49Z"/><path d="M31.38,5.59a.43.43,0,0,0,0-.86.43.43,0,0,0-.41.45A.43.43,0,0,0,31.38,5.59Z"/><path d="M29.9,6.06a.43.43,0,1,0,0-.86.43.43,0,0,0-.41.45A.43.43,0,0,0,29.9,6.06Z"/><path d="M28.42,6.53a.43.43,0,0,0,.41-.45.42.42,0,0,0-.45-.4.43.43,0,0,0-.41.45A.44.44,0,0,0,28.42,6.53Z"/><path d="M26.9,6.15a.42.42,0,0,0-.4.45.42.42,0,0,0,.44.41.44.44,0,0,0,.41-.45A.43.43,0,0,0,26.9,6.15Z"/><path d="M25,7.07a.43.43,0,0,0,.45.41.42.42,0,0,0,.4-.45.43.43,0,0,0-.45-.41A.44.44,0,0,0,25,7.07Z"/><path d="M23.54,7.55A.43.43,0,0,0,24,8a.43.43,0,0,0,.41-.45A.44.44,0,0,0,24,7.1.43.43,0,0,0,23.54,7.55Z"/><path d="M30.17,3a.43.43,0,0,0,.41-.45.45.45,0,0,0-.45-.41.44.44,0,0,0-.41.45A.43.43,0,0,0,30.17,3Z"/><path d="M28.41,3.45a.43.43,0,0,0,.45.41.43.43,0,0,0,.41-.45A.43.43,0,0,0,28.82,3,.44.44,0,0,0,28.41,3.45Z"/><path d="M27.11,4.29a.43.43,0,0,0,.45.41A.43.43,0,0,0,28,4.25a.45.45,0,0,0-.45-.41A.44.44,0,0,0,27.11,4.29Z"/><path d="M26.66,5.09a.43.43,0,0,0-.45-.41.43.43,0,0,0,0,.86A.43.43,0,0,0,26.66,5.09Z"/><path d="M24.91,5.52A.44.44,0,0,0,24.5,6a.43.43,0,0,0,.45.41.43.43,0,0,0,.41-.45A.44.44,0,0,0,24.91,5.52Z"/><path d="M28.33.86a.43.43,0,0,0,.41-.45A.43.43,0,0,0,28.29,0a.42.42,0,0,0-.4.45A.42.42,0,0,0,28.33.86Z"/><path d="M27.29,2a.44.44,0,0,0,.41-.45.43.43,0,0,0-.86,0A.43.43,0,0,0,27.29,2Z"/><path d="M26.25,3.16a.45.45,0,0,0,.41-.45.44.44,0,0,0-.45-.41.43.43,0,0,0-.41.45A.43.43,0,0,0,26.25,3.16Z"/><path d="M25.21,4.3a.42.42,0,0,0,.4-.44.43.43,0,1,0-.85,0A.42.42,0,0,0,25.21,4.3Z"/><path d="M24.57,5a.43.43,0,0,0-.86,0,.43.43,0,0,0,.45.4A.43.43,0,0,0,24.57,5Z"/><path d="M23.53,6.15a.43.43,0,0,0-.45-.4.43.43,0,1,0,.45.4Z"/><path d="M22.48,7.3a.43.43,0,0,0-.85,0,.43.43,0,0,0,.45.41A.42.42,0,0,0,22.48,7.3Z"/><path d="M31.61,10.35a.43.43,0,1,0,.45.4A.43.43,0,0,0,31.61,10.35Z"/><path d="M30.54,10.43a.43.43,0,0,0-.45-.41.43.43,0,1,0,0,.85A.42.42,0,0,0,30.54,10.43Z"/><path d="M29,10.1a.43.43,0,1,0-.85,0,.43.43,0,0,0,.85,0Z"/><path d="M27.06,9.36a.43.43,0,0,0,0,.86.43.43,0,1,0,0-.86Z"/><path d="M25.58,9.89A.43.43,0,0,0,26,9.44a.43.43,0,0,0-.86,0A.43.43,0,0,0,25.58,9.89Z"/><path d="M24.07,9.56a.43.43,0,1,0-.45-.41A.43.43,0,0,0,24.07,9.56Z"/><path d="M31.1,13.42a.42.42,0,0,0-.45-.4.42.42,0,0,0-.41.44.43.43,0,0,0,.45.41A.43.43,0,0,0,31.1,13.42Z"/><path d="M29.27,12.31a.42.42,0,0,0-.41.44.43.43,0,0,0,.45.41.43.43,0,0,0,.41-.45A.42.42,0,0,0,29.27,12.31Z"/><path d="M27.48,12a.43.43,0,0,0,.45.41.43.43,0,0,0,.41-.45.42.42,0,0,0-.45-.4A.42.42,0,0,0,27.48,12Z"/><path d="M26.1,11.33a.43.43,0,0,0,.45.41.43.43,0,0,0,.41-.45.43.43,0,0,0-.45-.41A.44.44,0,0,0,26.1,11.33Z"/><path d="M24.72,10.62a.43.43,0,0,0,.45.41.43.43,0,0,0,.41-.45.42.42,0,0,0-.45-.4A.42.42,0,0,0,24.72,10.62Z"/><path d="M29,15.35a.43.43,0,1,0,0,.85.43.43,0,0,0,0-.85Z"/><path d="M27.89,14.3a.43.43,0,0,0-.41.45.43.43,0,0,0,.45.41.42.42,0,0,0,.4-.45A.42.42,0,0,0,27.89,14.3Z"/><path d="M26.74,13.26a.43.43,0,0,0-.41.45.43.43,0,0,0,.45.41.43.43,0,1,0,0-.86Z"/><path d="M26,12.62a.43.43,0,0,0-.45-.4.43.43,0,1,0,.45.4Z"/><path d="M24.48,12a.43.43,0,0,0,.41-.45.43.43,0,0,0-.86,0A.43.43,0,0,0,24.48,12Z"/><path d="M23.33,11a.43.43,0,0,0,.41-.45.43.43,0,1,0-.41.45Z"/><path d="M22.18,9.94a.43.43,0,1,0-.45-.4A.43.43,0,0,0,22.18,9.94Z"/><path class="cls-2" d="M19.6,12.13c0-.1,0-.19-.05-.28l-.43-2.64c-.1-.58-.18-1.13-.26-1.66a2.83,2.83,0,0,0-.67-1.69,1.5,1.5,0,0,0-.37-.28,4.76,4.76,0,0,0-1.22-.41H7.41l-.13,0-.17,0L7,5.25l-.22.06a3.1,3.1,0,0,0-.63.26,1.47,1.47,0,0,0-.39.29,2.08,2.08,0,0,0-.3.38s0,.11-.07.16a4,4,0,0,0-.3,1.15L5,8.5c-.11.69-.23,1.43-.37,2.24v.1l0,.19c-.06.35-.12.71-.19,1.1Z"/><path class="cls-3" d="M20.27,12.07l0,.15h0l0-.15c-.12-.72-.23-1.36-.33-2,.1.62.21,1.26.33,2Z"/><path class="cls-3" d="M14.48,4.45h0Z"/><path class="cls-3" d="M16.75,4.52l-.15,0h0Z"/><path class="cls-3" d="M13.54,4.44h0Z"/><path class="cls-3" d="M4.38,12.13h0c.07-.39.13-.75.19-1.1-.06.35-.13.72-.19,1.1Z"/><polygon class="cls-3" points="12.46 4.44 12.46 4.44 12.46 4.44 12.46 4.44"/><path class="cls-3" d="M7,5.25l.07,0Z"/><path class="cls-3" d="M19.6,12.13h0c0-.1,0-.19-.05-.28,0,.09,0,.18.05.28Z"/><path class="cls-3" d="M4.6,10.84v0Z"/><path class="cls-3" d="M18.86,7.55c.08.53.16,1.08.26,1.66-.1-.58-.18-1.13-.26-1.66a3,3,0,0,0-.67-1.7,1.77,1.77,0,0,0-.37-.27,1.5,1.5,0,0,1,.37.28A2.83,2.83,0,0,1,18.86,7.55Z"/><path class="cls-3" d="M9.78,4.45h0Z"/><path class="cls-3" d="M5.43,6.4a4,4,0,0,0-.3,1.15L5,8.5l.15-1A4,4,0,0,1,5.43,6.4Z"/><path class="cls-3" d="M10.72,4.44h0Z"/><path class="cls-3" d="M8,4.48H8Z"/><path class="cls-3" d="M12.46,4.44h0Z"/><path class="cls-3" d="M6.19,5.57a1.7,1.7,0,0,0-.39.28,2.55,2.55,0,0,0-.3.39,2.08,2.08,0,0,1,.3-.38A1.47,1.47,0,0,1,6.19,5.57Z"/><polygon class="cls-3" points="7.46 5.16 7.46 5.16 7.42 5.17 7.41 5.17 7.42 5.17 7.46 5.16"/><path class="cls-3" d="M8.68,4.47h0Z"/><path class="cls-3" d="M16.6,5.17h0Z"/><path class="cls-3" d="M15.47,4.47h0Z"/><path class="cls-3" d="M7.4,4.49h0l-.15,0,.15,0Z"/><path class="cls-3" d="M4.92,5.91a4.35,4.35,0,0,0-.46,1.54c0,.23-.07.48-.11.72,0-.24.08-.49.11-.72A4.35,4.35,0,0,1,4.92,5.91Z"/><polygon class="cls-3" points="7.42 4.49 7.42 4.49 7.42 4.49 7.42 4.49"/><rect class="cls-3" x="16.04" y="5.15" height="0.01"/><path class="cls-3" d="M8.86,4.46h0Z"/><path class="cls-4" d="M7.64,23.18a1.22,1.22,0,0,0-1.17-.71h0a1.38,1.38,0,0,0-1.24.76,1.55,1.55,0,0,0-.09.41l2.61,0a1.42,1.42,0,0,0-.1-.44l.09,0Z"/><path class="cls-4" d="M23.66,19v0a3.81,3.81,0,0,0,.05-.66,4,4,0,0,0-.06-.72,6.53,6.53,0,0,0-1.87-3.63A6.19,6.19,0,0,0,20,12.67H17.53v.71H6.81v-.71H4.12L4,12.75l-.48.32A8.54,8.54,0,0,0,2.38,14,7.28,7.28,0,0,0,.54,17.73c0,.56,0,1.12,0,1.67.09,13,.17,23.93.23,30.86H5.15v-.49l10.28-.09v.58h8.48Q23.79,34.63,23.66,19ZM4.54,41.35v-.72l4.56,0A.31.31,0,0,1,9,40.43a.29.29,0,1,1,.57,0,.25.25,0,0,1-.06.15H10a.25.25,0,0,1-.06-.15.29.29,0,0,1,.28-.29.3.3,0,0,1,.29.29.29.29,0,0,1-.28.29.26.26,0,0,1-.12,0v.27h0v.34h0a.3.3,0,0,1,.3.28.29.29,0,0,1-.29.29.27.27,0,0,1-.28-.28.26.26,0,0,1,.23-.27ZM5,28.84v-.73L15.3,28v.72ZM15.32,30v.72l-10.27.08v-.72ZM12.21,41.86a.29.29,0,0,1-.29-.29.28.28,0,0,1,.28-.28.28.28,0,0,1,.3.27A.3.3,0,0,1,12.21,41.86Zm.25.84a.29.29,0,1,1-.57,0,.28.28,0,0,1,.28-.29A.29.29,0,0,1,12.46,42.7ZM4.52,39.09v-.72l2.94,0a.28.28,0,0,1-.08-.2.27.27,0,0,1,.28-.28.28.28,0,0,1,.29.29.3.3,0,0,1-.08.19h.36a.3.3,0,0,1-.06-.18c0-.16.1-.25.29-.3-.15-.14-.18-.28-.1-.41a.31.31,0,0,1,.35-.12.29.29,0,0,1,.18.31c0,.15-.12.23-.31.25.16.14.2.27.13.4a.29.29,0,0,1-.21.14v.26h0V39a.28.28,0,0,1,0,.56.27.27,0,0,1-.28-.28.29.29,0,0,1,.15-.24ZM7,37.58a.29.29,0,1,1,.57,0,.29.29,0,1,1-.57,0Zm1-.3A.27.27,0,0,1,7.83,37a.29.29,0,0,1,.24-.21.28.28,0,0,1,.29.16.28.28,0,0,1-.3.41c.07.07.15.13.15.25a.27.27,0,0,1-.24.3.28.28,0,0,1-.1-.56H8Zm12.56.59a.28.28,0,0,1-.28-.28.29.29,0,0,1,.3-.29.28.28,0,0,1,.27.3A.27.27,0,0,1,20.52,37.87Zm.31.89a.29.29,0,0,1-.29.29.29.29,0,0,1,0-.58A.29.29,0,0,1,20.83,38.76Zm-.32-2.06a.28.28,0,0,1-.29-.28.29.29,0,1,1,.29.28Zm0-1.17a.28.28,0,0,1-.28-.29.29.29,0,1,1,.28.29Zm0-1.18a.29.29,0,0,1,0-.57.27.27,0,0,1,.28.28A.28.28,0,0,1,20.47,34.35Zm-.07,5.28a.29.29,0,1,1-.29.29A.3.3,0,0,1,20.4,39.63Zm-2.06,3.31a.29.29,0,1,1,0-.57.29.29,0,0,1,.3.27A.28.28,0,0,1,18.34,42.94Zm-.44-.81a.28.28,0,0,1-.28-.28s0,0,0,0h-.27a.17.17,0,0,1-.17-.16.18.18,0,0,1,.17-.18h.34a.17.17,0,0,1,.15.12s0,0,0,0a.29.29,0,0,1,.29.29A.28.28,0,0,1,17.9,42.13Zm-.93,1a.29.29,0,0,1,.28-.29.28.28,0,0,1,.24.16h0a.17.17,0,0,1,.17.17.18.18,0,0,1-.17.17h0a.27.27,0,0,1-.18.08.26.26,0,0,1-.22-.13.17.17,0,0,1-.06-.12h0S17,43.13,17,43.11ZM17,41.63a.29.29,0,0,1-.29-.29.28.28,0,0,1,.28-.29.29.29,0,0,1,.29.29A.28.28,0,0,1,17,41.63Zm-.16.51a.29.29,0,1,1,0,.57.28.28,0,0,1-.29-.29A.27.27,0,0,1,16.87,42.14ZM18,43.38s.05,0,.08,0H18A.24.24,0,0,1,18,43.38Zm2.89-.26a.27.27,0,0,1-.15-.22.27.27,0,0,1,.14-.23ZM19,43.4a.28.28,0,0,1-.14-.22.29.29,0,0,1,.29-.28.28.28,0,0,1,.29.28.25.25,0,0,1-.13.22ZM19,41.94a.29.29,0,0,1,.57,0,.28.28,0,0,1-.28.29A.28.28,0,0,1,19,41.94Zm1,1h.34a.18.18,0,0,1,.17.17.16.16,0,0,1-.17.17H20a.18.18,0,0,1-.17-.17A.17.17,0,0,1,20,43Zm-.1-.54a.28.28,0,0,1,.28-.29.29.29,0,1,1-.28.29ZM20.24,41a.28.28,0,0,1-.28.29.3.3,0,0,1-.29-.28.28.28,0,0,1,.29-.29A.27.27,0,0,1,20.24,41Zm-.7-1.9a.28.28,0,0,1-.28-.29.27.27,0,0,1,.28-.28.27.27,0,0,1,.28.29A.27.27,0,0,1,19.54,39.1Zm0-1.19a.28.28,0,1,1,.29-.28A.28.28,0,0,1,19.54,37.91Zm0-1.18a.29.29,0,1,1,.28-.28A.26.26,0,0,1,19.52,36.73Zm0-1.18a.29.29,0,1,1,0-.57.28.28,0,0,1,.29.28A.29.29,0,0,1,19.51,35.55Zm0-1.19a.29.29,0,1,1,.29-.28A.28.28,0,0,1,19.48,34.36Zm-.18,5.32a.28.28,0,0,1,.28.29.28.28,0,0,1-.29.28A.29.29,0,0,1,19,40,.29.29,0,0,1,19.3,39.68ZM19,41a.28.28,0,0,1-.28.29.29.29,0,0,1,0-.57A.29.29,0,0,1,19,41Zm-.47-2.2a.28.28,0,0,1-.28-.29.28.28,0,0,1,.28-.29.29.29,0,0,1,0,.58Zm0-1.11a.28.28,0,0,1-.29-.28.29.29,0,0,1,.29-.29.3.3,0,0,1,.29.28A.29.29,0,0,1,18.55,37.69Zm0-1.1a.28.28,0,0,1-.28-.29.29.29,0,0,1,.28-.29.3.3,0,0,1,.29.29A.29.29,0,0,1,18.53,36.59Zm0-1.1a.31.31,0,0,1-.29-.29.29.29,0,0,1,.3-.29.29.29,0,0,1,0,.58Zm0-1.11a.29.29,0,0,1,0-.58.28.28,0,0,1,.29.29A.29.29,0,0,1,18.5,34.38Zm-.17,4.92a.28.28,0,0,1,.28.29.29.29,0,0,1-.29.28.28.28,0,0,1-.28-.29A.28.28,0,0,1,18.33,39.3Zm-.25,1.26a.27.27,0,0,1-.28.28.29.29,0,1,1,0-.57A.28.28,0,0,1,18.08,40.56Zm-.52-2.07a.29.29,0,0,1,0-.57.28.28,0,0,1,.29.28A.28.28,0,0,1,17.56,38.49Zm0-1a.29.29,0,0,1-.29-.29.29.29,0,0,1,.57,0A.28.28,0,0,1,17.56,37.47Zm0-1a.29.29,0,0,1,0-.57.28.28,0,0,1,.29.28A.29.29,0,0,1,17.54,36.44Zm0-1a.28.28,0,0,1-.29-.28.29.29,0,0,1,.57,0A.29.29,0,0,1,17.53,35.42Zm0-1a.28.28,0,0,1-.29-.29.29.29,0,0,1,.57,0A.28.28,0,0,1,17.51,34.39Zm-.16,4.53a.29.29,0,0,1,0,.57.29.29,0,1,1,0-.57Zm-.2,1.18a.29.29,0,1,1-.29-.28A.28.28,0,0,1,17.15,40.1Zm-.61-1.6a.28.28,0,0,1-.29-.28.29.29,0,0,1,.28-.29.27.27,0,0,1,.29.28A.28.28,0,0,1,16.54,38.5Zm0-1a.28.28,0,0,1-.28-.29.29.29,0,0,1,.57,0A.28.28,0,0,1,16.57,37.48Zm0-1a.28.28,0,0,1-.29-.28.29.29,0,0,1,.28-.29.29.29,0,1,1,0,.57Zm0-1a.28.28,0,0,1-.29-.28.28.28,0,0,1,.28-.29.29.29,0,1,1,0,.57Zm0-1a.28.28,0,0,1-.29-.29.29.29,0,1,1,.29.29Zm0,4.78a.28.28,0,0,1-.28.29.28.28,0,0,1-.29-.28.27.27,0,0,1,.28-.29A.29.29,0,0,1,16.51,39.18Zm-.36,1.37a.28.28,0,0,1,.29.28.29.29,0,0,1-.29.29.27.27,0,0,1-.28-.28A.27.27,0,0,1,16.15,40.55ZM14,40.38a.29.29,0,0,1-.29-.29.29.29,0,1,1,.29.29Zm.15.58a.28.28,0,1,1-.56,0,.28.28,0,1,1,.56,0Zm-.66-1.31a.31.31,0,0,1-.29-.3.29.29,0,0,1,.58,0A.3.3,0,0,1,13.46,39.65Zm-.09.74a.29.29,0,0,1-.3.29.3.3,0,0,1-.28-.3.29.29,0,0,1,.58,0Zm-.55.33a.29.29,0,0,1,0,.57.29.29,0,1,1,0-.57Zm.42.56a.28.28,0,0,1,.28.29.29.29,0,1,1-.28-.29Zm.12,1.14a.29.29,0,0,1,0,.57.29.29,0,0,1-.29-.29A.28.28,0,0,1,13.36,42.42Zm.24-.28a.29.29,0,0,1,.29-.29.28.28,0,0,1,.28.29.27.27,0,0,1-.28.28A.28.28,0,0,1,13.6,42.14Zm.37-.58a.29.29,0,0,1,.29-.29.27.27,0,0,1,.26.23h.35a.18.18,0,0,1,.17.17.17.17,0,0,1-.17.17h-.34a.17.17,0,0,1-.12-.06.28.28,0,0,1-.15.06A.29.29,0,0,1,14,41.56Zm.83-1.22a.28.28,0,0,1,.29.28.29.29,0,1,1-.57,0A.27.27,0,0,1,14.8,40.34Zm-.23-.18a.17.17,0,0,1,.17-.17h.34a.17.17,0,0,1,.17.17.18.18,0,0,1-.17.17h-.34A.16.16,0,0,1,14.57,40.16Zm0,2.26a.29.29,0,0,1,0,.57.29.29,0,0,1,0-.57Zm.17-.3a.29.29,0,0,1,.29-.29.3.3,0,0,1,.28.3.29.29,0,0,1-.29.28A.28.28,0,0,1,14.71,42.12Zm.55-.51a.27.27,0,0,1-.29-.28.29.29,0,0,1,.28-.29.28.28,0,0,1,.29.29A.27.27,0,0,1,15.26,41.61Zm.47.79a.28.28,0,0,1,.28.29.29.29,0,1,1-.28-.29Zm0-.52a.29.29,0,1,1,.29.28A.28.28,0,0,1,15.78,41.88Zm-.16-1.58a.28.28,0,0,1-.28-.29.29.29,0,1,1,.28.29Zm-.07-2.13a.29.29,0,0,1,0-.57.28.28,0,0,1,.29.28A.28.28,0,0,1,15.55,38.17Zm0-.93A.29.29,0,0,1,15.3,37a.28.28,0,0,1,.28-.29.29.29,0,0,1,0,.58Zm0-1a.29.29,0,0,1-.29-.28.31.31,0,0,1,.3-.29.29.29,0,0,1,.28.29A.28.28,0,0,1,15.56,36.29Zm0-.94a.27.27,0,0,1-.29-.28.27.27,0,0,1,.28-.28.27.27,0,0,1,.29.28A.27.27,0,0,1,15.55,35.35Zm0-.94a.28.28,0,0,1-.29-.28.29.29,0,0,1,.28-.29.3.3,0,0,1,.3.28A.29.29,0,0,1,15.53,34.41Zm-.27,4.08a.28.28,0,0,1,.29.28.29.29,0,0,1-.28.29.3.3,0,0,1-.3-.28A.29.29,0,0,1,15.26,38.49Zm-.26,1a.27.27,0,0,1-.28.28.29.29,0,0,1-.29-.29.28.28,0,0,1,.29-.28A.28.28,0,0,1,15,39.54Zm-.4-2.32a.28.28,0,0,1-.29-.28.28.28,0,0,1,.28-.29.28.28,0,0,1,.29.28A.28.28,0,0,1,14.6,37.22Zm0-.93a.28.28,0,0,1-.29-.28.28.28,0,0,1,.28-.29.29.29,0,1,1,0,.57Zm0-.93a.29.29,0,0,1-.29-.28.29.29,0,1,1,.29.28Zm0-.93a.29.29,0,0,1-.29-.29.3.3,0,0,1,.29-.29.29.29,0,0,1,.28.29A.28.28,0,0,1,14.54,34.43Zm0,3.14a.3.3,0,0,1,.3.28.28.28,0,0,1-.28.29.27.27,0,0,1-.29-.28A.27.27,0,0,1,14.49,37.57Zm-.1,1.13a.28.28,0,0,1-.29.28.29.29,0,0,1,0-.57A.28.28,0,0,1,14.39,38.7ZM13.61,37a.28.28,0,0,1-.29-.28.29.29,0,0,1,.28-.29.29.29,0,0,1,0,.57Zm0-.84a.27.27,0,0,1-.28-.28.28.28,0,0,1,.29-.28.28.28,0,1,1,0,.56Zm0-.83a.29.29,0,0,1-.29-.28.3.3,0,0,1,.28-.3.29.29,0,0,1,.29.29A.28.28,0,0,1,13.57,35.28Zm0-.84a.29.29,0,0,1-.29-.29.29.29,0,1,1,.29.29Zm0,2.77a.29.29,0,1,1,0,.57.28.28,0,0,1-.29-.28A.29.29,0,0,1,13.52,37.21Zm-.06,1a.28.28,0,0,1-.29.28.26.26,0,0,1-.28-.28.28.28,0,0,1,.28-.29A.29.29,0,0,1,13.46,38.25Zm-.84-1.34a.28.28,0,0,1-.29-.29.28.28,0,0,1,.29-.28.29.29,0,0,1,0,.57ZM11,38.56a.29.29,0,1,1,.57,0,.29.29,0,1,1-.57,0Zm.25.74a.29.29,0,1,1-.57,0A.29.29,0,0,1,11,39,.28.28,0,0,1,11.29,39.3Zm.54-.38a.29.29,0,1,1-.28.29A.28.28,0,0,1,11.83,38.92Zm.29-.07a.17.17,0,0,1-.17-.17.16.16,0,0,1,.16-.17h.34a.16.16,0,0,1,.13.06h0a.28.28,0,0,1,.29.29.29.29,0,0,1-.57,0Zm.49-2.76a.29.29,0,1,1,0-.57.28.28,0,0,1,.3.28A.3.3,0,0,1,12.61,36.09Zm0-.82a.29.29,0,0,1,0-.57.3.3,0,0,1,.3.28A.29.29,0,0,1,12.58,35.27Zm0-.82a.28.28,0,0,1-.29-.28.28.28,0,0,1,.29-.29.29.29,0,0,1,0,.57Zm-.12,2.68a.28.28,0,0,1,.29.28.29.29,0,1,1-.57,0A.29.29,0,0,1,12.44,37.13Zm-.16,1a.28.28,0,0,1-.29.29.28.28,0,0,1-.28-.29.29.29,0,0,1,.57,0Zm-.67-1.24a.29.29,0,1,1,0-.57.27.27,0,0,1,.28.29A.27.27,0,0,1,11.61,36.85Zm0-.8a.28.28,0,0,1-.29-.28.29.29,0,1,1,.57,0A.28.28,0,0,1,11.62,36.05Zm0-.79a.3.3,0,0,1-.3-.28.29.29,0,0,1,.58,0A.28.28,0,0,1,11.6,35.26Zm0-.8a.28.28,0,0,1-.29-.28.29.29,0,0,1,.57,0A.28.28,0,0,1,11.57,34.46ZM11.33,37a.28.28,0,0,1,.29.28.29.29,0,1,1-.57,0A.28.28,0,0,1,11.33,37Zm-.27.84a.28.28,0,0,1-.28.29.29.29,0,1,1,0-.57A.27.27,0,0,1,11.06,37.86Zm-.43-1.34a.28.28,0,0,1-.29-.28.27.27,0,0,1,.28-.29.29.29,0,0,1,0,.57Zm0-.68a.29.29,0,1,1,.28-.29A.28.28,0,0,1,10.63,35.84Zm0-.68a.3.3,0,0,1-.3-.28.28.28,0,0,1,.28-.29.29.29,0,1,1,0,.57Zm0-.68a.29.29,0,0,1-.29-.29.29.29,0,1,1,.29.29Zm-.2,2.1a.3.3,0,0,1,.3.28.3.3,0,0,1-.28.3.29.29,0,0,1-.29-.29A.27.27,0,0,1,10.38,36.58ZM9,37.53a.29.29,0,0,1,.26-.23.3.3,0,0,1,.29.19.3.3,0,0,1-.25.39h0a.29.29,0,0,1,.23.31.32.32,0,0,1-.26.26.29.29,0,0,1-.3-.2.28.28,0,0,1,.21-.37v0A.28.28,0,0,1,9,37.53Zm.13,1.11a.17.17,0,0,1,.15-.11h.22a.29.29,0,1,1,.21.49.24.24,0,0,1-.23-.15h-.2a.16.16,0,0,1-.14-.08A.26.26,0,0,1,8.9,39a.28.28,0,0,1-.29-.28.28.28,0,0,1,.28-.29A.25.25,0,0,1,9.14,38.64Zm.62-.48a.29.29,0,0,1,.28-.3.28.28,0,0,1,.29.28.28.28,0,0,1-.28.29A.27.27,0,0,1,9.76,38.16Zm.45-.82a.29.29,0,0,1-.3.29.27.27,0,0,1-.27-.26H9.49a.17.17,0,0,1,0-.34h.34a.13.13,0,0,1,.09,0h0A.3.3,0,0,1,10.21,37.34Zm-.62-.94a.29.29,0,0,1-.28-.29.28.28,0,0,1,.28-.29.29.29,0,0,1,0,.58Zm.05-.64a.29.29,0,1,1,0-.57.3.3,0,0,1,.29.29A.29.29,0,0,1,9.64,35.76Zm0-.63a.29.29,0,0,1-.29-.29.29.29,0,0,1,.57,0A.29.29,0,0,1,9.62,35.13Zm0-.64a.29.29,0,0,1-.28-.29.28.28,0,0,1,.29-.28.28.28,0,0,1,.28.29A.28.28,0,0,1,9.58,34.49Zm0,2.16a.28.28,0,0,1-.29.29A.29.29,0,0,1,9,36.65a.3.3,0,0,1,.29-.29A.29.29,0,0,1,9.56,36.65ZM9,37a.29.29,0,1,1-.57,0,.28.28,0,0,1,.28-.29A.29.29,0,0,1,9,37ZM8.9,39.57a.28.28,0,0,1,.29.28.28.28,0,0,1-.27.3.31.31,0,0,1-.3-.29A.3.3,0,0,1,8.9,39.57ZM9,39.29a.29.29,0,0,1,.58,0,.29.29,0,0,1-.58,0Zm.8.29a.28.28,0,0,1,.29.28.29.29,0,1,1-.29-.28Zm0-.28a.29.29,0,0,1,.29-.29.29.29,0,1,1-.29.29Zm.37-.56a.28.28,0,0,1,.28-.29.3.3,0,0,1,.29.29.3.3,0,0,1-.28.29A.29.29,0,0,1,10.25,38.74Zm.52.84a.29.29,0,1,1,0,.57.27.27,0,0,1-.28-.28A.28.28,0,0,1,10.77,39.58Zm.43.57a.29.29,0,1,1,0,.57.28.28,0,0,1-.29-.28A.28.28,0,0,1,11.2,40.15Zm.22-.27a.3.3,0,0,1,.28-.3.29.29,0,0,1,.29.29.28.28,0,0,1-.06.15h.32a.18.18,0,0,1,.17.17.16.16,0,0,1-.05.11.28.28,0,0,1,.06.14.3.3,0,0,1-.28.3.29.29,0,0,1-.29-.28.18.18,0,0,1,0-.1.17.17,0,0,1-.16-.16.14.14,0,0,1,0-.06l0,0A.26.26,0,0,1,11.42,39.88Zm.37.83a.29.29,0,0,1,.28.29.28.28,0,1,1-.56,0A.29.29,0,0,1,11.79,40.71Zm.55-1a.27.27,0,0,1,.28-.28.29.29,0,1,1,0,.57A.28.28,0,0,1,12.34,39.76Zm.44,2.09a.28.28,0,0,1,.29.28.3.3,0,0,1-.28.3.29.29,0,0,1-.29-.29A.28.28,0,0,1,12.78,41.85Zm.68,1.43a.29.29,0,0,1,.58,0,.26.26,0,0,1-.07.17h-.43A.3.3,0,0,1,13.46,43.28Zm1.25.16a.42.42,0,0,1,0-.1h-.34a.18.18,0,0,1-.18-.17.18.18,0,0,1,.17-.17h.34a.17.17,0,0,1,.12,0,.22.22,0,0,1,.14-.06.28.28,0,0,1,.29.28.22.22,0,0,1-.07.16Zm1.1-.17A.3.3,0,0,1,16.1,43a.28.28,0,0,1,.28.29.25.25,0,0,1-.06.15h-.44A.26.26,0,0,1,15.81,43.27Zm5.11-1.56a.28.28,0,0,1-.29-.28.28.28,0,0,1,.28-.29h0ZM8.56,34.5a.29.29,0,0,1-.24-.36.28.28,0,0,1,.28-.21.27.27,0,0,1,.27.2.3.3,0,0,1-.11.33l-.08,0v0a.28.28,0,0,1,.08.53.29.29,0,0,1-.38-.1.29.29,0,0,1,.07-.38l.11,0Zm-.92,0a.3.3,0,0,1,.3.28.29.29,0,1,1-.58,0A.28.28,0,0,1,7.64,34.55Zm-.31-.32a.28.28,0,0,1,.28-.29.29.29,0,1,1-.28.29ZM4.48,34v-.16h.74v.36h0v.27a.27.27,0,0,1,.12,0l.06,0v-.1a.26.26,0,0,1,0-.35A.28.28,0,0,1,5.7,34a.28.28,0,0,1,.17.42l-.06.09a.3.3,0,0,1-.12.53l0,0c.08.07.15.14.27,0h.25l.07,0a.24.24,0,0,0,.09-.31c0-.09,0-.18.11-.25a.3.3,0,0,1-.17-.25A.29.29,0,0,1,6.51,34a.28.28,0,0,1,.33.08.27.27,0,0,1,0,.34l0,.14a.28.28,0,0,1,0,.44l0,.11a.28.28,0,0,1-.38.37l-.09,0-.17.13a.33.33,0,0,1,.12.31l-.12.16h.25l-.09-.15.06-.23a.29.29,0,0,1,.35-.07h0a.16.16,0,0,1,.14-.09h.34a.14.14,0,0,1,.12.06h0l0-.13a.27.27,0,0,1,.18-.3.28.28,0,0,1,.33.09.32.32,0,0,1,0,.35.29.29,0,0,1-.34.09l0,0v.07a.28.28,0,0,1-.12.35A.28.28,0,0,1,7,36.05a.25.25,0,0,1-.08-.17h0s0,0,0,.06a.26.26,0,0,1-.09.14h.06v.12a.29.29,0,0,1,.14,0,.27.27,0,0,1,.27.21l0,0a.27.27,0,0,1,.22-.2.28.28,0,0,1,.32.16A.31.31,0,0,1,8,36.1a.41.41,0,0,1,.31,0,.29.29,0,0,1,.24-.44l-.15-.19,0-.22a.27.27,0,0,1,.34-.13.27.27,0,0,1,.19.27c0,.15-.09.25-.27.29.15.14.19.27.12.41a.32.32,0,0,1-.4.12l0,.24-.16.17c-.14.06-.26,0-.39-.14a.31.31,0,0,1-.24.3c.14.15.17.27.09.4a.28.28,0,0,1-.32.13A.29.29,0,0,1,7.18,37a.31.31,0,0,1,.24-.31l-.12-.17,0,0c0,.15-.15.2-.3.22l.14.19,0,.23a.31.31,0,0,1-.34.11.3.3,0,0,1-.19-.3.26.26,0,0,1,.09-.17l-2.13,0v-.72H5.86s-.08,0-.11-.09,0-.31.17-.43l-.09-.12a.29.29,0,0,1-.37.09.24.24,0,0,1-.16-.25A.28.28,0,0,1,5.54,35l0,0H5.3a.26.26,0,0,1-.36-.07.29.29,0,0,1,0-.34H4.49v-.08a.33.33,0,0,1-.11-.11l0-.1A.36.36,0,0,1,4.48,34Zm6.09,7.84a.29.29,0,1,1-.28.29A.29.29,0,0,1,10.57,41.85Zm.2-.57a.27.27,0,0,1-.29-.28.29.29,0,0,1,.28-.29.28.28,0,0,1,.29.29A.27.27,0,0,1,10.77,41.28Zm.42,0a.3.3,0,0,1,.28.29.29.29,0,0,1-.29.29.29.29,0,0,1,0-.58Zm.48.57a.29.29,0,1,1,0,.57.28.28,0,0,1-.29-.28A.29.29,0,0,1,11.67,41.85Zm.62,1.43a.29.29,0,0,1,.29-.29.28.28,0,0,1,.28.29.26.26,0,0,1-.07.17h-.42A.25.25,0,0,1,12.29,43.28Zm4.55-21.49a.41.41,0,0,1,.3-.12.44.44,0,0,1,.29.11.41.41,0,0,1,.12.3v.07a1.42,1.42,0,0,1,.35-.29,2,2,0,0,1,1-.25,2.26,2.26,0,0,1,1.05.24l0,.09.05-.09a1.79,1.79,0,0,1,.75.72A2.24,2.24,0,0,1,21,23.73l0,2.09v0l-.1.26h0l-.23.1h0a.39.39,0,0,1-.3-.12h0v0l-.1-.24,0-2.09A1.43,1.43,0,0,0,20,23a1,1,0,0,0-.47-.43,1.47,1.47,0,0,0-.67-.15h0a1.45,1.45,0,0,0-.66.15,1.07,1.07,0,0,0-.45.39.87.87,0,0,0-.16.54l0,2.36a.44.44,0,0,1-.11.29h0a.38.38,0,0,1-.29.12.42.42,0,0,1-.29-.11.4.4,0,0,1-.12-.29l0-3.76A.38.38,0,0,1,16.84,21.79Zm-6.63-.88a3.28,3.28,0,0,1,2.32-1V18.88L14,20.33l-1.48,1.46V20.71a2.48,2.48,0,0,0-1.77.75,2.55,2.55,0,1,0,3.6,0,.43.43,0,0,1-.11-.28.4.4,0,0,1,.11-.27h0a.39.39,0,0,1,.28-.12.39.39,0,0,1,.27.12h0a3.32,3.32,0,0,1-2.34,5.69,3.26,3.26,0,0,1-2.32-.95,3.31,3.31,0,0,1,0-4.7ZM4.55,22.86A2.1,2.1,0,0,1,5.31,22a2.21,2.21,0,0,1,1.12-.31h0A2.06,2.06,0,0,1,7.56,22l0,.08,0-.08a1.88,1.88,0,0,1,.74.79A2.45,2.45,0,0,1,8.57,24v0h0l-.1.25,0,0-.22.08-3.09,0a1.4,1.4,0,0,0,.14.5,1.39,1.39,0,0,0,.55.55,1.51,1.51,0,0,0,.78.2h0a1.56,1.56,0,0,0,.55-.1,1.43,1.43,0,0,0,.43-.23v0h0l.23-.09h0l.23.07,0,0,.14.25,0,0-.1.21,0,0a2.13,2.13,0,0,1-.7.39,2.2,2.2,0,0,1-.81.16,2.47,2.47,0,0,1-1.2-.28,2.09,2.09,0,0,1-.82-.82,2.27,2.27,0,0,1-.31-1.19h0v0A2.46,2.46,0,0,1,4.55,22.86Zm0,20,6.2-.05a.26.26,0,0,1-.05-.12.29.29,0,1,1,.58,0,.31.31,0,0,1,0,.12h.56v.36h0v.36l-7.23.05Zm.56,2.92,11.27-.09v.72l-11.26.09Zm0,2.7v-.72l10.28-.08v.72Z"/><path d="M24.2,19a5.91,5.91,0,0,0,.05-.7,5,5,0,0,0-.06-.81,7.13,7.13,0,0,0-2-3.92,6.69,6.69,0,0,0-1.86-1.33h0l0-.15h0c-.12-.72-.23-1.36-.33-2-.16-1-.3-1.83-.42-2.64a3.49,3.49,0,0,0-.86-2.07,3,3,0,0,0-1.3-.71,4.7,4.7,0,0,0-.61-.15l-.15,0h0l-1.09,0H7.38l-.15,0c-.14,0-.35.07-.61.15a3,3,0,0,0-1.3.71,2.38,2.38,0,0,0-.4.53,4.35,4.35,0,0,0-.46,1.54c0,.23-.07.48-.11.72-.18,1.14-.38,2.39-.64,3.9l0,.25A9.59,9.59,0,0,0,2,13.62a7.82,7.82,0,0,0-2,4v.05c0,.56,0,1.13,0,1.7.09,13,.17,23.92.23,30.85H.78C.72,43.33.64,32.44.55,19.4c0-.55,0-1.11,0-1.67A7.28,7.28,0,0,1,2.38,14a8.54,8.54,0,0,1,1.13-.92L4,12.75l.13-.08H6.81v.71H17.53v-.71H20a6.19,6.19,0,0,1,1.8,1.26,6.53,6.53,0,0,1,1.87,3.63,4,4,0,0,1,.06.72,3.81,3.81,0,0,1-.05.66v0q.14,15.65.25,31.28h.55Q24.33,34.61,24.2,19ZM4.6,10.84v-.1c.14-.81.26-1.55.37-2.24l.15-1a4,4,0,0,1,.3-1.15c0-.05,0-.11.07-.16a2.55,2.55,0,0,1,.3-.39,1.7,1.7,0,0,1,.39-.28,3.1,3.1,0,0,1,.63-.26L7,5.25l.07,0,.17,0,.13,0H16.6a4.76,4.76,0,0,1,1.22.41,1.77,1.77,0,0,1,.37.27,3,3,0,0,1,.67,1.7c.08.53.16,1.08.26,1.66l.43,2.64c0,.09,0,.18.05.28H4.38c.06-.38.13-.75.19-1.1Z"/><path d="M4.28,24.07a2.27,2.27,0,0,0,.31,1.19,2.09,2.09,0,0,0,.82.82,2.47,2.47,0,0,0,1.2.28,2.2,2.2,0,0,0,.81-.16,2.13,2.13,0,0,0,.7-.39l0,0,.1-.21,0,0-.14-.25,0,0-.23-.07h0l-.23.09h0v0a1.43,1.43,0,0,1-.43.23,1.56,1.56,0,0,1-.55.1h0a1.51,1.51,0,0,1-.78-.2,1.39,1.39,0,0,1-.55-.55,1.4,1.4,0,0,1-.14-.5l3.09,0,.22-.08,0,0,.1-.25h0v0a2.45,2.45,0,0,0-.27-1.16A1.88,1.88,0,0,0,7.56,22l0,.08,0-.08a2.06,2.06,0,0,0-1.09-.29h0A2.21,2.21,0,0,0,5.31,22a2.1,2.1,0,0,0-.76.83A2.46,2.46,0,0,0,4.28,24v0Zm3.46-.45-2.61,0a1.55,1.55,0,0,1,.09-.41,1.38,1.38,0,0,1,1.24-.76h0a1.22,1.22,0,0,1,1.17.71l.09,0-.09,0A1.42,1.42,0,0,1,7.74,23.62Z"/><path d="M16.88,26.13a.42.42,0,0,0,.29.11.38.38,0,0,0,.29-.12h0a.44.44,0,0,0,.11-.29l0-2.36a.87.87,0,0,1,.16-.54,1.07,1.07,0,0,1,.45-.39,1.45,1.45,0,0,1,.66-.15h0a1.47,1.47,0,0,1,.67.15A1,1,0,0,1,20,23a1.43,1.43,0,0,1,.18.76l0,2.09.1.24v0h0a.39.39,0,0,0,.3.12h0l.23-.1h0l.1-.26v0l0-2.09a2.24,2.24,0,0,0-.28-1.16,1.79,1.79,0,0,0-.75-.72l-.05.09,0-.09a2.26,2.26,0,0,0-1.05-.24,2,2,0,0,0-1,.25,1.42,1.42,0,0,0-.35.29v-.07a.41.41,0,0,0-.12-.3.44.44,0,0,0-.29-.11.41.41,0,0,0-.3.12.38.38,0,0,0-.11.29l0,3.76A.4.4,0,0,0,16.88,26.13Z"/><path d="M12.57,26.56a3.32,3.32,0,0,0,2.34-5.69h0a.39.39,0,0,0-.27-.12.39.39,0,0,0-.28.12h0a.4.4,0,0,0-.11.27.43.43,0,0,0,.11.28,2.54,2.54,0,1,1-3.6,0,2.48,2.48,0,0,1,1.77-.75v1.08L14,20.33l-1.48-1.45v1.06a3.29,3.29,0,0,0-3.28,3.3,3.33,3.33,0,0,0,1,2.37A3.26,3.26,0,0,0,12.57,26.56Z"/><rect class="cls-5" x="5.11" y="45.76" width="11.27" height="0.72" transform="translate(-0.36 0.09) rotate(-0.45)"/><rect class="cls-5" x="5.13" y="47.74" width="10.28" height="0.72" transform="translate(-0.37 0.08) rotate(-0.45)"/><polygon class="cls-5" points="5.14 49.77 5.15 50.26 15.43 50.26 15.42 49.68 5.14 49.77"/><path class="cls-6" d="M4.49,34.49V34a.36.36,0,0,0-.14.27l0,.1A.33.33,0,0,0,4.49,34.49Z"/><path class="cls-6" d="M4.94,34.56a.29.29,0,0,0,0,.34A.26.26,0,0,0,5.3,35h.2l0,0a.28.28,0,0,0-.24.29.24.24,0,0,0,.16.25.29.29,0,0,0,.37-.09l.09.12c-.2.12-.26.28-.17.43s.07.06.11.09h.3l.12-.16a.33.33,0,0,0-.12-.31l.17-.13.09,0a.28.28,0,0,0,.38-.37l0-.11a.28.28,0,0,0,0-.44l0-.14a.27.27,0,0,0,0-.34A.28.28,0,0,0,6.51,34a.29.29,0,0,0-.18.28.3.3,0,0,0,.17.25c-.08.07-.15.16-.11.25a.24.24,0,0,1-.09.31l-.07,0H6c-.12.1-.19,0-.27,0l0,0a.3.3,0,0,0,.12-.53l.06-.09A.28.28,0,0,0,5.7,34a.28.28,0,0,0-.31.12.26.26,0,0,0,0,.35v.1l-.06,0a.27.27,0,0,0-.12,0v.09Z"/><path class="cls-6" d="M6.89,36s0,0,0-.06h0a.18.18,0,0,1-.17-.17s0,0,0-.08h0a.29.29,0,0,0-.35.07l-.06.23.09.15H6.8A.26.26,0,0,0,6.89,36Z"/><path class="cls-6" d="M8.5,38.43a.29.29,0,0,0,.21-.14c.07-.13,0-.26-.13-.4.19,0,.29-.1.31-.25a.29.29,0,0,0-.18-.31.31.31,0,0,0-.35.12c-.08.13,0,.27.1.41-.19,0-.29.14-.29.3a.3.3,0,0,0,.06.18H8.5Z"/><path class="cls-6" d="M6.87,36.45h0v.36H6.63a.26.26,0,0,0-.09.17.3.3,0,0,0,.19.3.31.31,0,0,0,.34-.11l0-.23L7,36.75c.15,0,.26-.07.3-.22l0,0,.12.17a.31.31,0,0,0-.24.31.29.29,0,0,0,.21.26.28.28,0,0,0,.32-.13c.08-.13,0-.25-.09-.4a.31.31,0,0,0,.24-.3c.13.15.25.2.39.14l.16-.17,0-.24a.32.32,0,0,0,.4-.12c.07-.14,0-.27-.12-.41.18,0,.27-.14.27-.29a.27.27,0,0,0-.19-.27.27.27,0,0,0-.34.13l0,.22.15.19a.29.29,0,0,0-.24.44.41.41,0,0,0-.31,0,.31.31,0,0,0-.14.26.28.28,0,0,0-.32-.16.27.27,0,0,0-.22.2l0,0A.27.27,0,0,0,7,36.17a.29.29,0,0,0-.14,0v.24Z"/><path class="cls-6" d="M13.46,39.07a.29.29,0,0,0-.29.28.29.29,0,1,0,.58,0A.29.29,0,0,0,13.46,39.07Z"/><path class="cls-6" d="M14,43.27a.29.29,0,0,0-.58,0,.3.3,0,0,0,.08.17H14A.26.26,0,0,0,14,43.27Z"/><path class="cls-6" d="M18.32,42.37a.29.29,0,1,0,0,.57.28.28,0,0,0,.28-.3A.29.29,0,0,0,18.32,42.37Z"/><path class="cls-6" d="M7.65,35.13a.31.31,0,0,0,.29-.3.3.3,0,0,0-.3-.28.28.28,0,0,0-.28.29A.3.3,0,0,0,7.65,35.13Z"/><path class="cls-6" d="M7.21,35.88H6.92a.25.25,0,0,0,.08.17.28.28,0,0,0,.35.05.28.28,0,0,0,.12-.35v-.07l0,0a.29.29,0,0,0,.34-.09.32.32,0,0,0,0-.35.28.28,0,0,0-.33-.09.27.27,0,0,0-.18.3l0,.13h0a.16.16,0,0,1,0,.11A.17.17,0,0,1,7.21,35.88Z"/><path class="cls-6" d="M15.94,39.19a.28.28,0,0,0,.29.28.28.28,0,0,0,.28-.29.29.29,0,0,0-.29-.28A.27.27,0,0,0,15.94,39.19Z"/><path class="cls-6" d="M17.15,43h.34a.28.28,0,0,0-.24-.16.29.29,0,0,0-.28.29s0,0,0,0A.18.18,0,0,1,17.15,43Z"/><path class="cls-6" d="M17,43.27a.26.26,0,0,0,.22.13.27.27,0,0,0,.18-.08h-.29A.16.16,0,0,1,17,43.27Z"/><path class="cls-6" d="M15.63,39.73a.28.28,0,0,0-.29.28.28.28,0,0,0,.28.29.29.29,0,1,0,0-.57Z"/><path class="cls-6" d="M17.56,37.92a.29.29,0,1,0,.29.28A.28.28,0,0,0,17.56,37.92Z"/><path class="cls-6" d="M12.56,33.88a.28.28,0,0,0-.29.29.28.28,0,0,0,.29.28.29.29,0,0,0,0-.57Z"/><path class="cls-6" d="M14.81,40.91a.28.28,0,0,0,.28-.29.29.29,0,0,0-.57,0A.28.28,0,0,0,14.81,40.91Z"/><path class="cls-6" d="M10.62,36a.27.27,0,0,0-.28.29.28.28,0,0,0,.29.28.29.29,0,0,0,0-.57Z"/><path class="cls-6" d="M10.58,33.9a.3.3,0,0,0-.29.29.29.29,0,0,0,.29.29.29.29,0,1,0,0-.58Z"/><path class="cls-6" d="M8,38.15a.28.28,0,0,0-.29-.29.27.27,0,0,0-.28.28.28.28,0,0,0,.08.2h.41A.3.3,0,0,0,8,38.15Z"/><path class="cls-6" d="M11.58,34.69a.29.29,0,0,0-.28.29.3.3,0,0,0,.3.28.28.28,0,0,0,.28-.29A.29.29,0,0,0,11.58,34.69Z"/><path class="cls-6" d="M12.62,36.34a.28.28,0,0,0-.29.28.29.29,0,1,0,.57,0A.27.27,0,0,0,12.62,36.34Z"/><path class="cls-6" d="M14.25,40.09a.29.29,0,0,0-.57,0,.29.29,0,0,0,.29.29A.28.28,0,0,0,14.25,40.09Z"/><path class="cls-6" d="M12.59,35.52a.29.29,0,1,0,0,.57.3.3,0,0,0,.28-.29A.28.28,0,0,0,12.59,35.52Z"/><path class="cls-6" d="M8.21,39.29a.29.29,0,0,0,.57,0A.28.28,0,0,0,8.51,39v0H8.36A.29.29,0,0,0,8.21,39.29Z"/><path class="cls-6" d="M14.59,36.65a.28.28,0,0,0-.28.29.28.28,0,0,0,.29.28.28.28,0,0,0,.28-.29A.28.28,0,0,0,14.59,36.65Z"/><path class="cls-6" d="M20.78,42.9a.27.27,0,0,0,.15.22v-.45A.27.27,0,0,0,20.78,42.9Z"/><path class="cls-6" d="M11.05,37.3a.29.29,0,1,0,.57,0,.28.28,0,0,0-.29-.28A.28.28,0,0,0,11.05,37.3Z"/><path class="cls-6" d="M15.58,36.66a.28.28,0,0,0-.28.29.29.29,0,0,0,.29.29.29.29,0,0,0,0-.58Z"/><path class="cls-6" d="M12.17,42.42a.28.28,0,0,0-.28.29.29.29,0,1,0,.28-.29Z"/><path class="cls-6" d="M18.55,37.12a.29.29,0,0,0-.29.29.28.28,0,0,0,.29.28.29.29,0,0,0,.29-.29A.3.3,0,0,0,18.55,37.12Z"/><path class="cls-6" d="M11.68,42.42a.29.29,0,1,0,0-.57.29.29,0,0,0-.28.29A.28.28,0,0,0,11.68,42.42Z"/><path class="cls-6" d="M18,43.38a.24.24,0,0,0-.09,0h.17S18.07,43.38,18,43.38Z"/><path class="cls-6" d="M15.54,34.79a.27.27,0,0,0-.28.28.27.27,0,0,0,.29.28.27.27,0,0,0,.28-.28A.27.27,0,0,0,15.54,34.79Z"/><path class="cls-6" d="M14.55,34.79a.28.28,0,0,0-.28.29.29.29,0,0,0,.29.28.29.29,0,1,0,0-.57Z"/><path class="cls-6" d="M17,41.05a.28.28,0,0,0-.28.29.29.29,0,0,0,.29.29.28.28,0,0,0,.28-.29A.29.29,0,0,0,17,41.05Z"/><path class="cls-6" d="M13.56,41a.28.28,0,1,0,.56,0,.28.28,0,1,0-.56,0Z"/><path class="cls-6" d="M9.59,35.82a.28.28,0,0,0-.28.29.29.29,0,1,0,.28-.29Z"/><path class="cls-6" d="M11.79,41.29a.28.28,0,0,0,.28-.29.28.28,0,1,0-.56,0A.28.28,0,0,0,11.79,41.29Z"/><path class="cls-6" d="M12.53,41a.28.28,0,0,0,.29.29.29.29,0,0,0,0-.57A.28.28,0,0,0,12.53,41Z"/><path class="cls-6" d="M14.41,41.78a.16.16,0,0,1-.05-.11.17.17,0,0,1,.16-.17.27.27,0,0,0-.26-.23.29.29,0,1,0,0,.57A.28.28,0,0,0,14.41,41.78Z"/><path class="cls-6" d="M11.28,42.71a.29.29,0,1,0-.58,0,.26.26,0,0,0,.05.12h.48A.31.31,0,0,0,11.28,42.71Z"/><path class="cls-6" d="M10.82,38.74a.3.3,0,0,0-.29-.29.28.28,0,0,0-.28.29.29.29,0,0,0,.29.29A.3.3,0,0,0,10.82,38.74Z"/><path class="cls-6" d="M15.52,33.84a.29.29,0,0,0-.28.29.28.28,0,0,0,.29.28.29.29,0,0,0,.29-.29A.3.3,0,0,0,15.52,33.84Z"/><path class="cls-6" d="M16.82,38.21a.27.27,0,0,0-.29-.28.29.29,0,0,0-.28.29.29.29,0,1,0,.57,0Z"/><path class="cls-6" d="M19.54,37.35a.28.28,0,1,0,.29.28A.28.28,0,0,0,19.54,37.35Z"/><path class="cls-6" d="M20.54,37.3a.29.29,0,0,0-.3.29.28.28,0,0,0,.28.28.27.27,0,0,0,.29-.27A.28.28,0,0,0,20.54,37.3Z"/><path class="cls-6" d="M7.53,37.58a.29.29,0,1,0-.57,0,.29.29,0,1,0,.57,0Z"/><path class="cls-6" d="M9.59,33.92a.28.28,0,0,0-.29.28.29.29,0,0,0,.28.29.28.28,0,0,0,.29-.28A.28.28,0,0,0,9.59,33.92Z"/><path class="cls-6" d="M12.16,37.42a.29.29,0,1,0,.57,0,.28.28,0,0,0-.29-.28A.29.29,0,0,0,12.16,37.42Z"/><path class="cls-6" d="M10.59,34.59a.28.28,0,0,0-.28.29.3.3,0,0,0,.3.28.29.29,0,1,0,0-.57Z"/><path class="cls-6" d="M13.56,34.7a.3.3,0,0,0-.28.3.29.29,0,0,0,.29.28.28.28,0,0,0,.28-.29A.29.29,0,0,0,13.56,34.7Z"/><path class="cls-6" d="M19.47,43.18a.28.28,0,0,0-.29-.28.29.29,0,0,0-.29.28.28.28,0,0,0,.14.22h.31A.25.25,0,0,0,19.47,43.18Z"/><path class="cls-6" d="M14.54,33.85a.3.3,0,0,0-.29.29.29.29,0,0,0,.29.29.28.28,0,0,0,.28-.29A.29.29,0,0,0,14.54,33.85Z"/><path class="cls-6" d="M19.5,35a.29.29,0,1,0,0,.57.29.29,0,0,0,.28-.29A.28.28,0,0,0,19.5,35Z"/><path class="cls-6" d="M10.33,38.14a.28.28,0,0,0-.29-.28.29.29,0,0,0-.28.3.27.27,0,0,0,.29.27A.28.28,0,0,0,10.33,38.14Z"/><path class="cls-6" d="M15.72,43a.28.28,0,0,0,.29-.28.28.28,0,0,0-.28-.29.29.29,0,0,0,0,.57Z"/><path class="cls-6" d="M8.73,36.69a.28.28,0,0,0-.28.29.29.29,0,1,0,.28-.29Z"/><path class="cls-6" d="M18.49,33.8a.29.29,0,1,0,.29.29A.28.28,0,0,0,18.49,33.8Z"/><path class="cls-6" d="M15.28,42.13a.3.3,0,0,0-.28-.3.29.29,0,0,0-.29.29.28.28,0,0,0,.28.29A.29.29,0,0,0,15.28,42.13Z"/><path class="cls-6" d="M12.79,42.43a.3.3,0,0,0,.28-.3.29.29,0,1,0-.57,0A.29.29,0,0,0,12.79,42.43Z"/><path class="cls-6" d="M10.57,42.43a.29.29,0,1,0-.28-.29A.29.29,0,0,0,10.57,42.43Z"/><path class="cls-6" d="M17.9,41.56s0,0,0,0,0,0,0,0a.18.18,0,0,1-.17.17h-.07s0,0,0,0a.29.29,0,0,0,.57,0A.29.29,0,0,0,17.9,41.56Z"/><path class="cls-6" d="M15,38.78a.3.3,0,0,0,.3.28.29.29,0,0,0,.28-.29.28.28,0,0,0-.29-.28A.29.29,0,0,0,15,38.78Z"/><path class="cls-6" d="M20.26,38.76a.28.28,0,0,0,.28.29.29.29,0,0,0,0-.58A.28.28,0,0,0,20.26,38.76Z"/><path class="cls-6" d="M19.54,38.53a.27.27,0,0,0-.28.28.28.28,0,0,0,.28.29.27.27,0,0,0,.28-.28A.27.27,0,0,0,19.54,38.53Z"/><path class="cls-6" d="M11.84,39.5a.29.29,0,0,0,0-.58.28.28,0,0,0-.28.29A.29.29,0,0,0,11.84,39.5Z"/><path class="cls-6" d="M13.23,41.86a.29.29,0,0,0,.29-.29.28.28,0,0,0-.28-.29.29.29,0,0,0,0,.58Z"/><path class="cls-6" d="M17.06,39.2a.29.29,0,0,0,.29.29.29.29,0,0,0,0-.57A.29.29,0,0,0,17.06,39.2Z"/><path class="cls-6" d="M11.05,41a.28.28,0,0,0-.29-.29.29.29,0,0,0-.28.29.27.27,0,0,0,.29.28A.27.27,0,0,0,11.05,41Z"/><path class="cls-6" d="M14.57,35.72a.28.28,0,0,0-.28.29.29.29,0,1,0,.28-.29Z"/><path class="cls-6" d="M15.57,35.72a.31.31,0,0,0-.3.29.29.29,0,0,0,.29.28.28.28,0,0,0,.29-.28A.29.29,0,0,0,15.57,35.72Z"/><path class="cls-6" d="M17.54,35.87a.29.29,0,0,0,0,.57.29.29,0,0,0,.29-.29A.28.28,0,0,0,17.54,35.87Z"/><path class="cls-6" d="M12.79,40.38a.3.3,0,0,0,.28.3.29.29,0,0,0,.3-.29.29.29,0,0,0-.58,0Z"/><path class="cls-6" d="M10.15,40.67a.26.26,0,0,0,.12,0,.29.29,0,0,0,.28-.29.3.3,0,0,0-.29-.29.29.29,0,0,0-.28.29.25.25,0,0,0,.06.15h.11Z"/><path class="cls-6" d="M9.84,40.15a.29.29,0,0,0,.29-.29.28.28,0,0,0-.29-.28.29.29,0,1,0,0,.57Z"/><path class="cls-6" d="M20.5,36.13a.28.28,0,0,0-.28.29.28.28,0,0,0,.29.28.29.29,0,0,0,0-.57Z"/><path class="cls-6" d="M18.53,36a.29.29,0,0,0-.28.29.28.28,0,0,0,.28.29.29.29,0,0,0,.29-.29A.3.3,0,0,0,18.53,36Z"/><path class="cls-6" d="M9.61,34.56a.27.27,0,0,0-.28.28.29.29,0,1,0,.57,0A.28.28,0,0,0,9.61,34.56Z"/><path class="cls-6" d="M8.92,40.15a.28.28,0,0,0,.27-.3.28.28,0,0,0-.29-.28.3.3,0,0,0-.28.29A.31.31,0,0,0,8.92,40.15Z"/><path class="cls-6" d="M18.52,34.91a.29.29,0,0,0-.3.29.31.31,0,0,0,.29.29.29.29,0,0,0,0-.58Z"/><path class="cls-6" d="M18.73,40.72a.29.29,0,0,0,0,.57A.28.28,0,0,0,19,41,.29.29,0,0,0,18.73,40.72Z"/><path class="cls-6" d="M19.49,33.79a.29.29,0,0,0,0,.57.28.28,0,0,0,.29-.28A.28.28,0,0,0,19.49,33.79Z"/><path class="cls-6" d="M12.89,38.25a.26.26,0,0,0,.28.28.28.28,0,0,0,.29-.28.29.29,0,0,0-.29-.29A.28.28,0,0,0,12.89,38.25Z"/><path class="cls-6" d="M8.61,38.73A.28.28,0,0,0,8.9,39a.26.26,0,0,0,.25-.22.24.24,0,0,1,0-.09.14.14,0,0,1,0-.06.25.25,0,0,0-.25-.2A.28.28,0,0,0,8.61,38.73Z"/><path class="cls-6" d="M9,36.65a.29.29,0,0,0,.29.29.28.28,0,0,0,.29-.29.29.29,0,0,0-.29-.29A.3.3,0,0,0,9,36.65Z"/><path class="cls-6" d="M11.61,35.48a.29.29,0,0,0-.28.29.28.28,0,0,0,.29.28.28.28,0,0,0,.28-.29A.29.29,0,0,0,11.61,35.48Z"/><path class="cls-6" d="M12.46,38.85H12.3a.29.29,0,1,0,.28-.29h0a.18.18,0,0,1,0,.11A.17.17,0,0,1,12.46,38.85Z"/><path class="cls-6" d="M13.6,36.38a.29.29,0,0,0-.28.29.28.28,0,0,0,.29.28.29.29,0,0,0,0-.57Z"/><path class="cls-6" d="M13.59,35.55a.28.28,0,0,0-.29.28.27.27,0,0,0,.28.28.28.28,0,1,0,0-.56Z"/><path class="cls-6" d="M9.79,38.7a.16.16,0,0,1-.16.17H9.49a.24.24,0,0,0,.23.15.29.29,0,1,0-.21-.49h.11A.16.16,0,0,1,9.79,38.7Z"/><path class="cls-6" d="M12.2,41.29a.28.28,0,0,0-.28.28.29.29,0,0,0,.29.29.3.3,0,0,0,.29-.3A.28.28,0,0,0,12.2,41.29Z"/><path class="cls-6" d="M11.18,41.86a.29.29,0,0,0,.29-.29.3.3,0,0,0-.28-.29.29.29,0,0,0,0,.58Z"/><path class="cls-6" d="M9.62,39.3a.29.29,0,0,0-.58,0,.29.29,0,0,0,.58,0Z"/><path class="cls-6" d="M18.55,38.22a.28.28,0,0,0-.28.29.28.28,0,0,0,.28.29.29.29,0,0,0,0-.58Z"/><path class="cls-6" d="M20.45,42.41a.28.28,0,0,0-.29-.28.28.28,0,0,0-.28.29.29.29,0,0,0,.57,0Z"/><path class="cls-6" d="M10.11,36.87a.29.29,0,0,0,.29.29.3.3,0,0,0,.28-.3.3.3,0,0,0-.3-.28A.27.27,0,0,0,10.11,36.87Z"/><path class="cls-6" d="M10.45,39.3a.28.28,0,0,0-.28-.29.29.29,0,0,0-.29.29.29.29,0,0,0,.57,0Z"/><path class="cls-6" d="M13.36,43a.29.29,0,1,0-.29-.29A.29.29,0,0,0,13.36,43Z"/><path class="cls-6" d="M20.48,33.78a.29.29,0,1,0,.28.28A.27.27,0,0,0,20.48,33.78Z"/><path class="cls-6" d="M9.64,35.19a.29.29,0,1,0,.29.29A.3.3,0,0,0,9.64,35.19Z"/><path class="cls-6" d="M15.84,37.88a.28.28,0,0,0-.29-.28.29.29,0,1,0,.29.28Z"/><path class="cls-6" d="M20.49,35a.29.29,0,0,0-.28.29.28.28,0,0,0,.28.29.29.29,0,0,0,0-.58Z"/><path class="cls-6" d="M10.72,39.31A.29.29,0,1,0,11,39,.29.29,0,0,0,10.72,39.31Z"/><path class="cls-6" d="M11.89,36.57a.27.27,0,0,0-.28-.29.29.29,0,1,0,0,.57A.27.27,0,0,0,11.89,36.57Z"/><path class="cls-6" d="M16.57,36.91a.28.28,0,0,0-.28.28.28.28,0,0,0,.28.29.29.29,0,1,0,0-.57Z"/><path class="cls-6" d="M14.72,39.25a.28.28,0,0,0-.29.28.29.29,0,0,0,.29.29.29.29,0,0,0,0-.57Z"/><path class="cls-6" d="M17.5,33.82a.27.27,0,0,0-.28.28.28.28,0,0,0,.29.29.28.28,0,0,0,.28-.29A.28.28,0,0,0,17.5,33.82Z"/><path class="cls-6" d="M18,39.58a.28.28,0,0,0,.28.29.29.29,0,0,0,.29-.28.29.29,0,1,0-.57,0Z"/><path class="cls-6" d="M11.56,33.89a.29.29,0,0,0-.28.29.29.29,0,0,0,.57,0A.29.29,0,0,0,11.56,33.89Z"/><path class="cls-6" d="M13.55,33.87a.28.28,0,0,0-.29.28.29.29,0,0,0,.29.29.29.29,0,0,0,0-.57Z"/><path class="cls-6" d="M12.57,34.7a.29.29,0,0,0,0,.57.29.29,0,0,0,.29-.29A.3.3,0,0,0,12.57,34.7Z"/><path class="cls-6" d="M9.92,37.06a.16.16,0,0,1,.08.13.16.16,0,0,1-.17.17H9.64a.27.27,0,0,0,.27.26.29.29,0,0,0,.3-.29.3.3,0,0,0-.29-.28Z"/><path class="cls-6" d="M7.89,34.23a.28.28,0,0,0-.28-.29.28.28,0,0,0-.28.29.28.28,0,1,0,.56,0Z"/><path class="cls-6" d="M12.91,39.76a.28.28,0,0,0-.29-.28.29.29,0,0,0,0,.57A.28.28,0,0,0,12.91,39.76Z"/><path class="cls-6" d="M10.77,40.15a.29.29,0,1,0,0-.57.28.28,0,0,0-.28.29A.27.27,0,0,0,10.77,40.15Z"/><path class="cls-6" d="M13.52,37.78a.29.29,0,1,0-.29-.28A.28.28,0,0,0,13.52,37.78Z"/><path class="cls-6" d="M19.52,36.16a.29.29,0,0,0,0,.57.26.26,0,0,0,.28-.28A.28.28,0,0,0,19.52,36.16Z"/><path class="cls-6" d="M8.38,35a.29.29,0,0,0,.38.1.28.28,0,0,0-.08-.53v0l.08,0a.3.3,0,0,0,.11-.33.27.27,0,0,0-.27-.2.28.28,0,0,0-.28.21.29.29,0,0,0,.24.36v0l-.11,0A.29.29,0,0,0,8.38,35Z"/><path class="cls-6" d="M7.64,37.63a.29.29,0,0,0,.33.24.27.27,0,0,0,.24-.3c0-.12-.08-.18-.15-.25a.28.28,0,0,0,.3-.41.28.28,0,0,0-.29-.16.29.29,0,0,0-.24.21.27.27,0,0,0,.13.32v0H7.87A.29.29,0,0,0,7.64,37.63Z"/><path class="cls-6" d="M17.56,36.9a.28.28,0,0,0-.29.28.29.29,0,0,0,.29.29.28.28,0,0,0,.28-.29A.27.27,0,0,0,17.56,36.9Z"/><path class="cls-6" d="M10.78,37.58a.29.29,0,1,0,0,.57.29.29,0,0,0,0-.57Z"/><path class="cls-6" d="M16.53,34.86a.28.28,0,0,0-.28.29.29.29,0,1,0,.28-.29Z"/><path class="cls-6" d="M13.82,38.69a.28.28,0,0,0,.28.29.29.29,0,0,0,0-.57A.28.28,0,0,0,13.82,38.69Z"/><path class="cls-6" d="M16.38,43.27A.28.28,0,0,0,16.1,43a.3.3,0,0,0-.29.29.26.26,0,0,0,.07.16h.44A.25.25,0,0,0,16.38,43.27Z"/><path class="cls-6" d="M20.4,40.2a.29.29,0,0,0,0-.57.3.3,0,0,0-.29.29A.28.28,0,0,0,20.4,40.2Z"/><path class="cls-6" d="M19,40a.29.29,0,0,0,.29.28.28.28,0,0,0,.29-.28.28.28,0,0,0-.28-.29A.29.29,0,0,0,19,40Z"/><path class="cls-6" d="M10.62,35.27a.29.29,0,1,0,.29.28A.28.28,0,0,0,10.62,35.27Z"/><path class="cls-6" d="M16.59,42.42a.28.28,0,0,0,.29.29.29.29,0,1,0,0-.57A.27.27,0,0,0,16.59,42.42Z"/><path class="cls-6" d="M11.21,40.72a.29.29,0,1,0-.29-.28A.28.28,0,0,0,11.21,40.72Z"/><path class="cls-6" d="M13.89,42.42a.27.27,0,0,0,.28-.28.28.28,0,0,0-.28-.29.29.29,0,0,0-.29.29A.28.28,0,0,0,13.89,42.42Z"/><path class="cls-6" d="M17.8,40.27a.29.29,0,1,0,0,.57.29.29,0,0,0,0-.57Z"/><path class="cls-6" d="M16.35,41.87a.29.29,0,1,0-.57,0,.28.28,0,0,0,.29.28A.28.28,0,0,0,16.35,41.87Z"/><path class="cls-6" d="M16.55,35.88a.29.29,0,0,0-.28.29.29.29,0,1,0,.28-.29Z"/><path class="cls-6" d="M16.15,41.12a.29.29,0,0,0,.29-.29.28.28,0,0,0-.29-.28.27.27,0,0,0-.28.29A.27.27,0,0,0,16.15,41.12Z"/><path class="cls-6" d="M19.67,41a.3.3,0,0,0,.29.28.28.28,0,0,0,.28-.29.27.27,0,0,0-.28-.28A.28.28,0,0,0,19.67,41Z"/><path class="cls-6" d="M20.63,41.43a.28.28,0,0,0,.29.28v-.57h0A.28.28,0,0,0,20.63,41.43Z"/><path class="cls-6" d="M15.54,41.33a.28.28,0,0,0-.29-.29.29.29,0,0,0-.28.29.27.27,0,0,0,.29.28A.27.27,0,0,0,15.54,41.33Z"/><path class="cls-6" d="M14.51,38.14a.28.28,0,0,0,.28-.29.3.3,0,0,0-.3-.28.27.27,0,0,0-.27.29A.27.27,0,0,0,14.51,38.14Z"/><path class="cls-6" d="M12.25,40.35H11.9a.18.18,0,0,0,0,.1.29.29,0,0,0,.29.28.3.3,0,0,0,.28-.3.28.28,0,0,0-.06-.14A.14.14,0,0,1,12.25,40.35Z"/><path class="cls-6" d="M9.61,40.43a.29.29,0,1,0-.57,0,.31.31,0,0,0,.06.16h.45A.25.25,0,0,0,9.61,40.43Z"/><path class="cls-6" d="M14.54,43a.29.29,0,0,0,0-.57.29.29,0,0,0,0,.57Z"/><path class="cls-6" d="M11.61,38.55a.29.29,0,1,0-.57,0,.29.29,0,1,0,.57,0Z"/><path class="cls-6" d="M11.71,40.15l0,0a.15.15,0,0,1,.15-.11h0a.28.28,0,0,0,.06-.15.29.29,0,0,0-.29-.29.3.3,0,0,0-.28.3A.26.26,0,0,0,11.71,40.15Z"/><path class="cls-6" d="M14.92,43a.22.22,0,0,0-.14.06.17.17,0,0,1,.05.12.17.17,0,0,1-.16.17.42.42,0,0,0,0,.1h.43a.22.22,0,0,0,.07-.16A.28.28,0,0,0,14.92,43Z"/><path class="cls-6" d="M12.86,43.28a.28.28,0,0,0-.28-.29.29.29,0,0,0-.29.29.25.25,0,0,0,.08.18h.42A.26.26,0,0,0,12.86,43.28Z"/><path class="cls-6" d="M17.52,34.85a.28.28,0,0,0-.28.29.28.28,0,0,0,.29.28.29.29,0,0,0,.28-.3A.27.27,0,0,0,17.52,34.85Z"/><path class="cls-6" d="M11.71,38.09a.28.28,0,0,0,.28.29.28.28,0,0,0,.29-.29.29.29,0,0,0-.57,0Z"/><path class="cls-6" d="M19.26,42.22a.28.28,0,0,0,.28-.29.29.29,0,1,0-.28.29Z"/><path class="cls-6" d="M16.52,33.83a.28.28,0,0,0-.29.28.29.29,0,0,0,.57,0A.28.28,0,0,0,16.52,33.83Z"/><path class="cls-6" d="M16.58,40.11a.29.29,0,1,0,.57,0,.28.28,0,0,0-.29-.28A.28.28,0,0,0,16.58,40.11Z"/><path class="cls-6" d="M9.88,41.57a.27.27,0,0,0,.28.28.29.29,0,0,0,.29-.29.3.3,0,0,0-.3-.28h0v0h0A.26.26,0,0,0,9.88,41.57Z"/><path class="cls-6" d="M9,38.26a.29.29,0,0,0,.3.2.32.32,0,0,0,.26-.26.29.29,0,0,0-.23-.31h0a.3.3,0,0,0,.25-.39.3.3,0,0,0-.29-.19.29.29,0,0,0-.26.23.28.28,0,0,0,.18.33v0A.28.28,0,0,0,9,38.26Z"/><polygon points="4.49 34.57 4.94 34.56 5.23 34.56 5.23 34.47 5.23 34.2 5.22 33.84 4.48 33.85 4.48 34.01 4.49 34.49 4.49 34.57"/><polygon points="4.5 36.11 4.5 36.83 6.63 36.81 6.87 36.81 6.87 36.45 6.86 36.21 6.86 36.09 6.8 36.09 6.41 36.09 6.16 36.09 5.87 36.1 4.5 36.11"/><polygon points="8.51 39.01 8.51 38.69 8.51 38.43 8.5 38.33 8.23 38.34 7.87 38.34 7.46 38.34 4.52 38.37 4.52 39.09 8.36 39.05 8.51 39.05 8.51 39.01"/><polygon points="10.15 41.28 10.15 40.94 10.15 40.67 10.15 40.58 10.04 40.58 9.55 40.59 9.11 40.59 4.54 40.63 4.54 41.34 10.11 41.3 10.15 41.3 10.15 41.28"/><polygon points="11.79 43.55 11.79 43.19 11.79 42.83 11.23 42.83 10.75 42.83 4.55 42.88 4.56 43.6 11.79 43.55"/><path d="M6.87,35.89h.34a.17.17,0,0,0,.17-.17.16.16,0,0,0,0-.11.14.14,0,0,0-.12-.06H6.87a.16.16,0,0,0-.14.09s0,0,0,.08A.18.18,0,0,0,6.87,35.89Z"/><path d="M10,37.19a.16.16,0,0,0-.08-.13.13.13,0,0,0-.09,0H9.49a.17.17,0,0,0,0,.34h.34A.16.16,0,0,0,10,37.19Z"/><path d="M9.15,38.79a.16.16,0,0,0,.14.08h.34a.16.16,0,0,0,.16-.17.16.16,0,0,0-.17-.17H9.29a.17.17,0,0,0-.15.11.14.14,0,0,0,0,.06A.24.24,0,0,0,9.15,38.79Z"/><path d="M12.46,38.85a.17.17,0,0,0,.16-.17.18.18,0,0,0,0-.11.16.16,0,0,0-.13-.06h-.34a.16.16,0,0,0-.16.17.17.17,0,0,0,.17.17h.34Z"/><path d="M14.74,40.33h.34a.18.18,0,0,0,.17-.17.17.17,0,0,0-.17-.17h-.34a.17.17,0,0,0-.17.17A.16.16,0,0,0,14.74,40.33Z"/><path d="M11.76,40.13a.14.14,0,0,0,0,.06.17.17,0,0,0,.16.16h.35a.14.14,0,0,0,.12-.06.16.16,0,0,0,.05-.11.18.18,0,0,0-.17-.17h-.34A.15.15,0,0,0,11.76,40.13Z"/><path d="M14.36,41.67a.16.16,0,0,0,.05.11.17.17,0,0,0,.12.06h.34a.17.17,0,0,0,.17-.17.18.18,0,0,0-.17-.17h-.35A.17.17,0,0,0,14.36,41.67Z"/><path d="M17.87,41.64s0,0,0,0a.17.17,0,0,0-.15-.12h-.34a.18.18,0,0,0-.17.18.17.17,0,0,0,.17.16h.34A.18.18,0,0,0,17.87,41.64Z"/><path d="M19.81,43.13a.18.18,0,0,0,.17.17h.34a.16.16,0,0,0,.17-.17.18.18,0,0,0-.17-.17H20A.17.17,0,0,0,19.81,43.13Z"/><path d="M17,43.27a.16.16,0,0,0,.11,0h.34a.18.18,0,0,0,.17-.17.17.17,0,0,0-.17-.17h-.34a.18.18,0,0,0-.17.17h0A.17.17,0,0,0,17,43.27Z"/><path d="M14.83,43.17a.17.17,0,0,0-.17-.17h-.34a.18.18,0,0,0-.17.17.18.18,0,0,0,.18.17h.34A.17.17,0,0,0,14.83,43.17Z"/><rect class="cls-5" x="5.03" y="28.07" width="10.28" height="0.72" transform="translate(-0.22 0.08) rotate(-0.45)"/><rect class="cls-5" x="5.04" y="30.05" width="10.28" height="0.72" transform="translate(-0.24 0.08) rotate(-0.45)"/></g></g></svg>