<svg xmlns="http://www.w3.org/2000/svg" viewBox="0 0 66.91 37.83"><defs><style>.cls-1{fill:#ea001f;}.cls-2{fill:#225faa;}.cls-3{fill:#fff;}</style></defs><g id="Layer_2" data-name="Layer 2"><g id="BG"><rect class="cls-1" x="29.9" width="37.01" height="4.2"/><rect class="cls-1" x="29.9" y="8.25" width="37.01" height="4.2"/><rect class="cls-1" x="29.9" y="16.52" width="37.01" height="4.2"/><rect class="cls-1" y="24.92" width="66.91" height="4.2"/><rect class="cls-1" y="33.63" width="66.91" height="4.2"/><rect class="cls-2" width="29.96" height="20.72"/><polygon class="cls-3" points="1.58 3.08 3.22 3.08 3.82 1.36 4.49 3.08 6.11 3.08 4.88 4.21 5.33 5.92 3.85 4.96 2.46 5.92 2.86 4.21 1.58 3.08"/><polygon class="cls-3" points="7.06 3.08 8.7 3.08 9.3 1.36 9.96 3.08 11.58 3.08 10.35 4.21 10.81 5.92 9.32 4.96 7.94 5.92 8.34 4.21 7.06 3.08"/><polygon class="cls-3" points="12.54 3.08 14.17 3.08 14.77 1.36 15.44 3.08 17.06 3.08 15.83 4.21 16.28 5.92 14.8 4.96 13.41 5.92 13.82 4.21 12.54 3.08"/><polygon class="cls-3" points="17.76 3.08 19.4 3.08 20 1.36 20.66 3.08 22.28 3.08 21.05 4.21 21.5 5.92 20.02 4.96 18.64 5.92 19.04 4.21 17.76 3.08"/><polygon class="cls-3" points="22.9 3.08 24.54 3.08 25.14 1.36 25.8 3.08 27.42 3.08 26.19 4.21 26.64 5.92 25.16 4.96 23.77 5.92 24.18 4.21 22.9 3.08"/><polygon class="cls-3" points="1.58 15.47 3.22 15.47 3.82 13.75 4.49 15.47 6.11 15.47 4.88 16.6 5.33 18.31 3.85 17.35 2.46 18.31 2.86 16.6 1.58 15.47"/><polygon class="cls-3" points="7.06 15.47 8.7 15.47 9.3 13.75 9.96 15.47 11.58 15.47 10.35 16.6 10.81 18.31 9.32 17.35 7.94 18.31 8.34 16.6 7.06 15.47"/><polygon class="cls-3" points="12.54 15.47 14.17 15.47 14.77 13.75 15.44 15.47 17.06 15.47 15.83 16.6 16.28 18.31 14.8 17.35 13.41 18.31 13.82 16.6 12.54 15.47"/><polygon class="cls-3" points="17.76 15.47 19.4 15.47 20 13.75 20.66 15.47 22.28 15.47 21.05 16.6 21.5 18.31 20.02 17.35 18.64 18.31 19.04 16.6 17.76 15.47"/><polygon class="cls-3" points="22.9 15.47 24.54 15.47 25.14 13.75 25.8 15.47 27.42 15.47 26.19 16.6 26.64 18.31 25.16 17.35 23.77 18.31 24.18 16.6 22.9 15.47"/><polygon class="cls-3" points="3.13 9.28 4.77 9.28 5.37 7.56 6.04 9.28 7.66 9.28 6.42 10.4 6.88 12.11 5.39 11.16 4.01 12.11 4.41 10.4 3.13 9.28"/><polygon class="cls-3" points="8.61 9.28 10.25 9.28 10.85 7.56 11.51 9.28 13.13 9.28 11.9 10.4 12.35 12.11 10.87 11.16 9.48 12.11 9.89 10.4 8.61 9.28"/><polygon class="cls-3" points="14.09 9.28 15.72 9.28 16.32 7.56 16.99 9.28 18.61 9.28 17.38 10.4 17.83 12.11 16.35 11.16 14.96 12.11 15.37 10.4 14.09 9.28"/><polygon class="cls-3" points="19.31 9.28 20.95 9.28 21.55 7.56 22.21 9.28 23.83 9.28 22.6 10.4 23.05 12.11 21.57 11.16 20.18 12.11 20.59 10.4 19.31 9.28"/><polygon class="cls-3" points="24.45 9.28 26.09 9.28 26.69 7.56 27.35 9.28 28.97 9.28 27.74 10.4 28.19 12.11 26.71 11.16 25.32 12.11 25.73 10.4 24.45 9.28"/></g></g></svg>