<svg xmlns="http://www.w3.org/2000/svg" viewBox="0 0 39.93 38.31">
  <defs>
    <style>
      .cls-1 {
        fill: #fff;
      }
    </style>
  </defs>
  <g id="Layer_2" data-name="Layer 2">
    <g id="Layer_1-2" data-name="Layer 1">
      <path class="cls-1"
        d="M34.67,30.76a6.78,6.78,0,0,0-1.06-4c-.64-1-1.29-2.1-1.94-3.14-.46-.74-.92-1.48-1.37-2.22-.65-1-1.29-2.09-1.93-3.14l-.58-.95,7.48-4.68.89,1.4,2.3,3.69a8.07,8.07,0,0,1,1.15,2.87l0,.14v.95a17.12,17.12,0,0,1-1.46,2.81c-.24.4-.48.8-.7,1.21-.55,1-1.12,2-1.69,3l-1,1.79Z" />
      <path
        d="M35.18,13.06l.74,1.16.61,1,1.69,2.72a7.61,7.61,0,0,1,1.12,2.79l0,.13v.8A15.56,15.56,0,0,1,38,24.39c-.24.41-.49.81-.72,1.23-.54,1-1.13,2-1.69,3l-.64,1.13a7.2,7.2,0,0,0-1.07-3.09c-.65-1.07-1.31-2.13-2-3.19L30.53,21.3l-1.85-3-.51-.84,7-4.39m.18-.75c-2.67,1.66-5.3,3.3-7.94,5l.11.2c.84,1.37,1.68,2.75,2.53,4.12,1.1,1.79,2.23,3.57,3.32,5.36a6.45,6.45,0,0,1,1,3.92c0,.35-.08.71-.12,1.07.29-.42.53-.84.77-1.26.9-1.6,1.83-3.18,2.71-4.8a26.94,26.94,0,0,0,2.19-4.15v-1l0-.11a8.17,8.17,0,0,0-1.19-3l-2.3-3.7Z" />
      <path class="cls-1"
        d="M29.92,12.61,24,12.54l-2.1,0,1-.64.43-.27a.5.5,0,0,0,.26-.3.52.52,0,0,0-.08-.38l-.38-.66c-.58-1-1.17-2.06-1.75-3.1l-.18-.3c-.21-.36-.42-.73-.62-1.1l.18-.38a11.22,11.22,0,0,1,2.17-3A4.55,4.55,0,0,1,26,1.14a5.36,5.36,0,0,1,1,.09,2.13,2.13,0,0,1,1.38,1q1.32,2,2.61,4a.63.63,0,0,0,.51.35.75.75,0,0,0,.31-.08c.49-.22,1-.43,1.5-.64l.41-.18L30,12.53Z" />
      <path
        d="M26,1.41A4.76,4.76,0,0,1,27,1.5a1.92,1.92,0,0,1,1.22,1q1.3,2,2.59,3.93a.88.88,0,0,0,.74.47.92.92,0,0,0,.42-.1l1.19-.51-.7,1.28-2.61,4.8L24,12.27H22.85l.22-.15.41-.25a.76.76,0,0,0,.39-.48.72.72,0,0,0-.1-.58l-.49-.86C22.74,9,22.18,8,21.64,7l-.2-.33c-.18-.32-.36-.63-.54-1L21,5.52a10.53,10.53,0,0,1,2.1-2.94A4.27,4.27,0,0,1,26,1.41m0-.55a4.84,4.84,0,0,0-3.27,1.3,12.6,12.6,0,0,0-2.41,3.42V5.9c.26.48.53.94.8,1.41.71,1.26,1.42,2.52,2.13,3.76.09.15.06.23-.08.31s-.46.29-.7.44L21,12.76l.21,0c2.88,0,5.78.05,8.66.09a.34.34,0,0,0,.34-.22C31.5,10.37,32.73,8.09,34,5.81c.11-.19.2-.38.33-.64-.16.07-.24.09-.32.12-.76.32-1.53.63-2.29,1l-.19,0c-.12,0-.19-.08-.28-.22q-1.29-2-2.6-4A2.44,2.44,0,0,0,27.05,1,5,5,0,0,0,26,.86Z" />
      <path class="cls-1"
        d="M24.38,36.88l-1-1.65L20.64,31l0-.15q1.5-2.61,3-5.25l.95-1.67.13,2.17h.63l5.68,0,.18.05a12.68,12.68,0,0,1,1.7,3.39,4.72,4.72,0,0,1-.7,4.11,2.28,2.28,0,0,1-1.83.93l-2.24.17-2.45.19a.62.62,0,0,0-.65.62c0,.49-.09,1-.14,1.45l-.06.57Z" />
      <path
        d="M24.34,24.87c0,.32,0,.64.06,1l0,.52h.9c1.58,0,3.16,0,4.77,0H31a12.77,12.77,0,0,1,1.62,3.24A4.43,4.43,0,0,1,32,33.45a2,2,0,0,1-1.62.81l-2.24.18-2.46.19a.86.86,0,0,0-.89.87l-.12,1.23h0L23.53,35,20.91,30.9l2.95-5.18.48-.85m.38-1.74c0,.09-.13.18-.18.28l-4.16,7.3a.35.35,0,0,0,0,.43c1.25,2,2.49,3.92,3.74,5.88L25,38.31c0-.24.06-.39.08-.55.08-.74.17-1.47.23-2.21,0-.28.12-.35.39-.37,1.56-.11,3.13-.25,4.69-.37a2.53,2.53,0,0,0,2-1,5,5,0,0,0,.75-4.34,13.6,13.6,0,0,0-1.75-3.49.6.6,0,0,0-.4-.16l-5.68,0H25c-.05-.93-.11-1.8-.16-2.68Z" />
      <path class="cls-1"
        d="M6.9,8.6l2.78-5A7.38,7.38,0,0,1,12.06.76,2.67,2.67,0,0,1,13.57.28L18,.32l2.74,0L23,.37a7.4,7.4,0,0,0-3.19,3.32c-.66,1.23-1.34,2.43-2,3.63l-3.15,5.57Z" />
      <path
        d="M13.57,0l0,.55L18,.59l2.76,0H22a8.43,8.43,0,0,0-2.47,2.93c-.65,1.22-1.35,2.45-2,3.63L16.89,8.3l-1.26,2.24-1.11,2-6-3.35L7.27,8.5l.13-.23L8,7.21l.81-1.45c.37-.69.75-1.37,1.13-2A7.15,7.15,0,0,1,12.21,1,2.41,2.41,0,0,1,13.57.55V0m0,0a3,3,0,0,0-1.66.52A7.84,7.84,0,0,0,9.44,3.44C8.79,4.6,8.15,5.77,7.5,6.94l-1,1.77,8.18,4.54.13-.18,2.53-4.5C18.27,7,19.17,5.42,20,3.82A7.08,7.08,0,0,1,23.48.44l.73-.26v0l-.27,0-3.18,0L13.61,0Z" />
      <path class="cls-1"
        d="M13.89,34.69c-1.38,0-2.76,0-4.14,0a5,5,0,0,1-3-1,2.15,2.15,0,0,1-.58-.61q-1.28-2.32-2.53-4.67l-2-3.77a6.94,6.94,0,0,0,4,1.18l6.36,0,4.59,0v8.83Z" />
      <path
        d="M2.26,25.35a7.43,7.43,0,0,0,3.32.71l6.46.05,4.22,0v8.27H14c-1.34,0-2.76,0-4.19,0a4.77,4.77,0,0,1-2.89-.93,2.12,2.12,0,0,1-.5-.53c-.87-1.58-1.73-3.17-2.58-4.75l-.93-1.72-.6-1.1M.75,23.6l0,0,1.67,3.07C3.54,28.87,4.7,31,5.88,33.18a2.41,2.41,0,0,0,.65.7,5.26,5.26,0,0,0,3.22,1c1.4,0,2.8,0,4.2,0h2.62l.24,0V25.62l-.29,0L5.58,25.51a6.64,6.64,0,0,1-4-1.18C1.32,24.1,1,23.84.75,23.6Z" />
      <path class="cls-1"
        d="M7.33,24.11l-.92-.05a18.64,18.64,0,0,1-2.58-.26,4.44,4.44,0,0,1-3.5-3.19l0-.14v-.65l.48-1c.32-.68.65-1.37,1-2s.73-1.41,1.11-2.1A.49.49,0,0,0,2.69,14l-1-.8L1,12.65l5.76,0h2l.11.06c1.26,2.32,2.53,4.65,3.79,7l-1.91-1L9.68,20.38l-.41.68c-.6,1-1.2,2-1.81,3Z" />
      <path
        d="M8.5,12.86h.2c1.1,2,2.2,4.06,3.3,6.11l-.88-.47-.45-.24-.27.44-1,1.54-.23.39c-.65,1.07-1.31,2.15-2,3.2l-.82,0a17.77,17.77,0,0,1-2.54-.25,4.18,4.18,0,0,1-3.3-3l0-.05h0l0,0v-.54c.16-.32.31-.65.47-1,.32-.68.64-1.36,1-2s.66-1.28,1.11-2.1a.76.76,0,0,0-.25-1l-1-.79-.05,0,5,0h.68l1,0m0-.55-1.73,0-6.08.05-.44,0,.25.2c.67.52,1.35,1.07,2,1.59.12.09.18.17.09.34-.38.69-.76,1.39-1.11,2.1C1,17.67.5,18.71,0,19.75v.77l.07.17a4.72,4.72,0,0,0,3.71,3.38,27.87,27.87,0,0,0,3.54.31h0a.52.52,0,0,0,.36-.22c.75-1.2,1.49-2.42,2.23-3.63L10.87,19l2.47,1.32-.13-.25c-1.35-2.53-2.72-5-4.08-7.56a.48.48,0,0,0-.35-.19Z" />
    </g>
  </g>
</svg>