<svg xmlns="http://www.w3.org/2000/svg" xmlns:xlink="http://www.w3.org/1999/xlink" viewBox="0 0 317.74 302.74">
  <defs>
    <clipPath id="clip-path">
      <rect class="cls-1" x="85.21" y="40.75" width="1.49" height="2.12" />
    </clipPath>
    <clipPath id="clip-path-2">
      <rect class="cls-1" x="83.71" y="50.34" width="1.49" height="2.12" />
    </clipPath>
    <clipPath id="clip-path-3">
      <rect class="cls-1" x="78.94" y="51.42" width="4.76" height="10.62" />
    </clipPath>
    <clipPath id="clip-path-4">
      <rect class="cls-1" x="77.44" y="61.01" width="4.76" height="10.62" />
    </clipPath>
    <clipPath id="clip-path-5">
      <rect class="cls-1" x="75.94" y="70.61" width="4.76" height="10.62" />
    </clipPath>
  </defs>
  <g id="Layer_2" data-name="Layer 2">
    <g id="BG">
      <path d="M233.74,169.48A4.28,4.28,0,1,1,236.2,164,4.28,4.28,0,0,1,233.74,169.48Z" />
      <path d="M228.18,155a4.27,4.27,0,1,1,2.46-5.52A4.27,4.27,0,0,1,228.18,155Z" />
      <path d="M222.62,140.61a4.28,4.28,0,1,1,2.46-5.52A4.27,4.27,0,0,1,222.62,140.61Z" />
      <path d="M217.06,126.17a4.27,4.27,0,1,1,2.46-5.52A4.27,4.27,0,0,1,217.06,126.17Z" />
      <path d="M211.5,111.74a4.28,4.28,0,1,1,2.46-5.53A4.27,4.27,0,0,1,211.5,111.74Z" />
      <path d="M200.38,82.87a4.28,4.28,0,1,1,2.46-5.52A4.27,4.27,0,0,1,200.38,82.87Z" />
      <path d="M194.82,68.44a4.28,4.28,0,1,1,2.46-5.53A4.28,4.28,0,0,1,194.82,68.44Z" />
      <path d="M258.57,156a4.27,4.27,0,1,1,2.45-5.52A4.28,4.28,0,0,1,258.57,156Z" />
      <path d="M249.46,143.46a4.28,4.28,0,1,1,2.45-5.53A4.27,4.27,0,0,1,249.46,143.46Z" />
      <path d="M240.36,131a4.28,4.28,0,1,1,2.45-5.53A4.28,4.28,0,0,1,240.36,131Z" />
      <path d="M231.25,118.45a4.28,4.28,0,1,1,2.45-5.52A4.27,4.27,0,0,1,231.25,118.45Z" />
      <path d="M222.14,106a4.28,4.28,0,1,1,2.45-5.53A4.27,4.27,0,0,1,222.14,106Z" />
      <path d="M213,93.44a4.28,4.28,0,1,1,2.45-5.52A4.28,4.28,0,0,1,213,93.44Z" />
      <path d="M279.05,136.48A4.27,4.27,0,1,1,281.5,131,4.27,4.27,0,0,1,279.05,136.48Z" />
      <path d="M267,126.76a4.28,4.28,0,1,1,2.45-5.52A4.28,4.28,0,0,1,267,126.76Z" />
      <path d="M255,117a4.28,4.28,0,1,1,2.46-5.52A4.27,4.27,0,0,1,255,117Z" />
      <path d="M243,107.32a4.28,4.28,0,1,1,2.46-5.52A4.27,4.27,0,0,1,243,107.32Z" />
      <path d="M230.92,97.6a4.28,4.28,0,1,1,2.45-5.53A4.27,4.27,0,0,1,230.92,97.6Z" />
      <path d="M293.79,112.37a4.28,4.28,0,1,1,2.45-5.53A4.29,4.29,0,0,1,293.79,112.37Z" />
      <path d="M279.65,106.09a4.28,4.28,0,1,1,2.46-5.52A4.27,4.27,0,0,1,279.65,106.09Z" />
      <path d="M265.51,99.81A4.27,4.27,0,1,1,268,94.29,4.27,4.27,0,0,1,265.51,99.81Z" />
      <path d="M251.38,93.54A4.28,4.28,0,1,1,253.83,88,4.28,4.28,0,0,1,251.38,93.54Z" />
      <path d="M237.24,87.26a4.27,4.27,0,1,1,2.45-5.52A4.28,4.28,0,0,1,237.24,87.26Z" />
      <path d="M223.1,81a4.28,4.28,0,1,1,2.45-5.53A4.27,4.27,0,0,1,223.1,81Z" />
      <path d="M209,74.71a4.27,4.27,0,1,1,2.45-5.52A4.26,4.26,0,0,1,209,74.71Z" />
      <path d="M206.27,176.11a4.28,4.28,0,1,1,2.45-5.53A4.28,4.28,0,0,1,206.27,176.11Z" />
      <path d="M204.63,160.73a4.28,4.28,0,1,1,2.45-5.53A4.28,4.28,0,0,1,204.63,160.73Z" />
      <path d="M203,145.34a4.27,4.27,0,1,1,2.45-5.52A4.28,4.28,0,0,1,203,145.34Z" />
      <path d="M201.36,130a4.28,4.28,0,1,1,2.45-5.53A4.27,4.27,0,0,1,201.36,130Z" />
      <path d="M199.73,114.58a4.28,4.28,0,1,1,2.45-5.52A4.28,4.28,0,0,1,199.73,114.58Z" />
      <path d="M198.09,99.2a4.27,4.27,0,1,1,2.45-5.52A4.27,4.27,0,0,1,198.09,99.2Z" />
      <path d="M178,175.4a4.28,4.28,0,1,1,2.45-5.52A4.28,4.28,0,0,1,178,175.4Z" />
      <path d="M180.41,160.12a4.28,4.28,0,1,1,2.45-5.53A4.27,4.27,0,0,1,180.41,160.12Z" />
      <path d="M182.82,144.84a4.28,4.28,0,1,1,2.45-5.53A4.28,4.28,0,0,1,182.82,144.84Z" />
      <path d="M185.22,129.56a4.28,4.28,0,1,1,2.45-5.53A4.28,4.28,0,0,1,185.22,129.56Z" />
      <path d="M187.61,114.28a4.28,4.28,0,1,1,2.46-5.53A4.27,4.27,0,0,1,187.61,114.28Z" />
      <path d="M150.9,167.4a4.27,4.27,0,1,1,2.45-5.52A4.27,4.27,0,0,1,150.9,167.4Z" />
      <path d="M157.17,153.26a4.27,4.27,0,1,1,2.45-5.52A4.27,4.27,0,0,1,157.17,153.26Z" />
      <path d="M163.45,139.12a4.27,4.27,0,1,1,2.45-5.52A4.27,4.27,0,0,1,163.45,139.12Z" />
      <path d="M169.72,125a4.28,4.28,0,1,1,2.46-5.53A4.27,4.27,0,0,1,169.72,125Z" />
      <path d="M176,110.85a4.27,4.27,0,1,1,2.45-5.52A4.28,4.28,0,0,1,176,110.85Z" />
      <path d="M182.27,96.71a4.28,4.28,0,1,1,2.45-5.52A4.27,4.27,0,0,1,182.27,96.71Z" />
      <path d="M188.55,82.58A4.28,4.28,0,1,1,191,77.05,4.28,4.28,0,0,1,188.55,82.58Z" />
      <path d="M317.26,236.33l-10.65-2.8c-11.59-3.05-31.69-8.5-48.16-8.5-5.76,0-11.09.66-15.47,2.36a96.86,96.86,0,0,0-22,12.07c-2.54,1.84-4.53,3.45-6,4.58-.74.57-1.35,1-1.81,1.32-.24.14-.44.25-.59.32a.79.79,0,0,1-.26.08h0l0,.5.05-.5a3.84,3.84,0,0,1-.54-.13c-1.09-.31-3.4-1.12-6.45-2.17-9.18-3.14-25.1-8.42-36.14-9l-1,0a15.79,15.79,0,0,0-12.06,5.27,16.31,16.31,0,0,0-4.17,10.56c0,3.17,1.15,6.08,3.62,7.69,8.89,5.78,17.87,8.18,24.83,13.89,5.87,4.81,11.83,7.66,18.47,7.65a24.85,24.85,0,0,0,4.41-.4,20.74,20.74,0,0,1,3.52-.23c6.51,0,18,1.38,28.77,1.38,8.49,0,16.56-.84,21.59-4l.42-.27-.53-.85-.43.27c-4.67,3-12.63,3.84-21.05,3.84-10.71,0-22.14-1.38-28.77-1.38a21.37,21.37,0,0,0-3.7.24,22.88,22.88,0,0,1-4.23.39c-6.34,0-12.06-2.7-17.84-7.42-7.2-5.89-16.19-8.26-24.91-14-2.11-1.36-3.16-3.91-3.17-6.85a15.27,15.27,0,0,1,3.91-9.89,14.78,14.78,0,0,1,11.32-4.94c.32,0,.63,0,1,0,7.68.39,18,3.16,26.54,5.86,4.29,1.35,8.16,2.68,11.07,3.69,1.46.5,2.68.92,3.61,1.22l1.15.36a4.43,4.43,0,0,0,.72.17h.1a1.62,1.62,0,0,0,.67-.17,22.08,22.08,0,0,0,3.49-2.44,100.65,100.65,0,0,1,26.88-15.82,42.24,42.24,0,0,1,15.11-2.3c16.26,0,36.32,5.42,47.91,8.47L317,237.3l.49.13.25-1-.48-.13Z" />
      <path d="M293.73,230.41C279,225,264.23,221,249.2,221a80.21,80.21,0,0,0-11.73.85h0a127.19,127.19,0,0,1-21.57,1.44c-5.4,0-10.94-.14-16.55-.14a169.34,169.34,0,0,0-20.74,1.06l.06.5.19-.47c-13.72-5.54-28.26-10-39.7-15h0c-4.92-2.14-10-5.44-15.14-8.23S113.44,196,107.76,196a19.82,19.82,0,0,0-4.29.46l-.49.1.21,1,.49-.11a19.72,19.72,0,0,1,4.08-.43c5.4,0,10.64,2.18,15.78,4.94s10.18,6.08,15.21,8.27h0c11.52,5,26.05,9.46,39.72,15l.12.05.13,0a168.85,168.85,0,0,1,20.62-1c5.6,0,11.13.14,16.55.14a127.61,127.61,0,0,0,21.74-1.46l-.09-.49.08.49A79.35,79.35,0,0,1,249.2,222c14.85,0,29.52,4,44.18,9.36l.47.17.35-.94-.47-.17Z" />
      <path d="M302.67,300.63c-6-1.81-12.09-4-17.75-5.78s-10.86-3.07-15.05-3.07a15.57,15.57,0,0,0-2.71.22c-14.05,2.52-49.73,9.74-70.13,9.74a42.16,42.16,0,0,1-10.1-1c-2.7-.7-7.34-3.06-12.86-6.29-8.29-4.84-18.63-11.64-27.84-17.82s-17.29-11.73-21.1-14.09c-7.06-4.38-19.35-14.58-30.67-24.25-5.66-4.84-11.09-9.55-15.52-13.35s-7.85-6.67-9.55-7.88a4.2,4.2,0,0,1-1.94-3.45,5.82,5.82,0,0,1,2.65-4.5,13,13,0,0,1,7.76-2.22,27.41,27.41,0,0,1,11.74,3c9,4.31,18.72,11.94,28.28,19.13s19,13.95,27.45,16.52l.48.15.29-1-.48-.14c-8.23-2.48-17.59-9.18-27.14-16.37S99.18,213.45,90,209.06a28.37,28.37,0,0,0-12.18-3.13,13.93,13.93,0,0,0-8.35,2.41,6.84,6.84,0,0,0-3.06,5.31,5.19,5.19,0,0,0,2.37,4.27c1.62,1.14,5.05,4,9.47,7.82,6.64,5.69,15.53,13.45,24.11,20.61s16.82,13.74,22.21,17.08c5,3.11,17.72,11.95,30.54,20.37,6.41,4.21,12.86,8.31,18.42,11.56s10.19,5.62,13.1,6.39a42.82,42.82,0,0,0,10.36,1c20.59,0,56.26-7.24,70.3-9.76a14.46,14.46,0,0,1,2.54-.2c4,0,9.13,1.28,14.76,3s11.75,4,17.75,5.78l.47.14.29-1-.47-.15Z" />
      <path d="M151.34,235.93l-.82-.23c-3.72-1.08-19.54-6.08-32.63-16.18C111,214.2,102.38,206.61,94,200.1a124,124,0,0,0-12.28-8.56c-3.9-2.3-7.53-3.93-10.7-4.45a19,19,0,0,0-3.08-.26A12.1,12.1,0,0,0,58.24,191a12.61,12.61,0,0,0-2,3.29,7.14,7.14,0,0,0-.59,2.45,1.3,1.3,0,0,0,.08.51,1.5,1.5,0,0,0,.33.45A28.2,28.2,0,0,0,59,200.14c4,3.09,10.55,7.62,10.56,7.62l.41.29.57-.82-.41-.29L68,205.49c-1.86-1.31-4.66-3.31-7-5.08-1.19-.88-2.27-1.71-3.07-2.36-.4-.32-.72-.61-1-.82a3.37,3.37,0,0,1-.27-.27l-.06-.07v0l-.14.08.15-.06v0l-.14.08.15-.06-.06,0,.06,0h0l-.06,0,.06,0v-.14a6.32,6.32,0,0,1,.52-2.07,11.13,11.13,0,0,1,3.33-4.48,11.51,11.51,0,0,1,7.39-2.38,18.21,18.21,0,0,1,2.92.24c3,.48,6.51,2.06,10.35,4.33,11.54,6.83,25.72,19.88,36.12,27.91,15.17,11.7,33.77,16.58,33.8,16.59l.49.13.25-1-.48-.13Z" />
      <path d="M71.24,187.94l-.08-.07.07.07h0l-.08-.07.07.07s1.84-1.71,6.16-1.71,11,1.63,20.92,8.15a155.83,155.83,0,0,1,20.28,15.78c4.57,4.14,7.71,7.17,11.65,9,7.71,3.55,26.88,11.26,26.88,11.26l.46.19.38-.93-.47-.19-3.11-1.26c-5.75-2.33-18-7.33-23.72-10-3.73-1.72-6.82-4.67-11.4-8.83a156.77,156.77,0,0,0-20.4-15.88c-10-6.58-17-8.31-21.47-8.31-4.74,0-6.78,1.92-6.85,2l-.36.35.7.72.36-.35Z" />
      <path d="M170.33,225.44a26.43,26.43,0,0,0-5.77,1.18,19.85,19.85,0,0,0-9.8,6.32l-.3.4.79.61.3-.39a18.92,18.92,0,0,1,9.31-6,29.44,29.44,0,0,1,3.94-.94c.5-.08.9-.13,1.18-.16l.31,0h.11l.5,0-.07-1-.5,0Z" />
      <path d="M310,258.58a73.16,73.16,0,0,0-15.93-5,57.06,57.06,0,0,0-9.26-.71,87.83,87.83,0,0,0-24.23,3.71l-.48.16.31.95.48-.16.5-.15a86.62,86.62,0,0,1,23.42-3.51,55.84,55.84,0,0,1,9.09.7,72.32,72.32,0,0,1,15.71,4.91l.46.2.39-.92-.46-.2Z" />
      <path class="cls-2" d="M170.54,55.76l12.74-8.15a8.57,8.57,0,0,0,4.91-11q-4.73-14.16-9.44-28.31a8.59,8.59,0,0,0-4.51-4.74c-2.39-1.06-4.71-.56-6.54-.17-4.25.9-8.9,1.83-14.82,3" />
      <path d="M170.81,56.19,183.55,48l-.27-.42.18.46a9.06,9.06,0,0,0,5.8-8.45,9,9,0,0,0-.6-3.24l-.47.18.47-.16Q184,22.24,179.23,8.09a9.11,9.11,0,0,0-4.79-5,8.09,8.09,0,0,0-3.31-.67,17.05,17.05,0,0,0-3.53.47c-4.25.9-8.9,1.83-14.81,3l-.49.1.19,1,.49-.1c5.91-1.14,10.57-2.07,14.83-3a15.57,15.57,0,0,1,3.32-.45A7,7,0,0,1,174,4a8.13,8.13,0,0,1,4.24,4.43q4.71,14.16,9.43,28.32h0a7.86,7.86,0,0,1,.54,2.88,8.06,8.06,0,0,1-5.16,7.52l0,0-13.21,8.45.53.85Z" />
      <path class="cls-3" d="M152.88,6.31a35.05,35.05,0,0,0-6.34-4A24.24,24.24,0,0,0,132.6,1l-5.11,2c-65,24.93-112.4,43.2-116.85,45a16.1,16.1,0,0,0-5,3.11A15.83,15.83,0,0,0,1.89,56.2a15.48,15.48,0,0,0-.35,12l16.15,41.91a15.73,15.73,0,0,0,20.36,9L155.59,73.79a15.62,15.62,0,0,0,4.41-1.7c9.74-5.6,10.55-14.47,10.54-16.33Z" />
      <path d="M152.88,6.31l.31-.39a35.14,35.14,0,0,0-6.45-4.06A23.89,23.89,0,0,0,137.4,0a25.32,25.32,0,0,0-4.89.47h-.09l-5.11,2c-65,24.92-112.39,43.19-116.85,45a16.63,16.63,0,0,0-5.19,3.22A16.32,16.32,0,0,0,0,62.63a15.93,15.93,0,0,0,1.08,5.75l16.14,41.91a16.2,16.2,0,0,0,15.14,10.34,16.4,16.4,0,0,0,5.87-1.1L155.77,74.26l-.18-.47.11.49a16.5,16.5,0,0,0,4.55-1.75,21.47,21.47,0,0,0,9.09-9.71,18,18,0,0,0,1.7-7v-.14L153.31,6l-.12-.09-.31.39-.47.17,17.66,49.45.47-.17H170v0a17.06,17.06,0,0,1-1.61,6.59,20.42,20.42,0,0,1-8.68,9.25,15.09,15.09,0,0,1-4.26,1.64h-.08L37.87,118.6a15.26,15.26,0,0,1-19.72-8.67L2,68A15,15,0,0,1,2.35,56.4a15.21,15.21,0,0,1,3.6-5,15.64,15.64,0,0,1,4.88-3c4.44-1.78,51.82-20.06,116.84-45l5.11-2L132.6,1l.1.49A24.41,24.41,0,0,1,137.4,1a23,23,0,0,1,8.95,1.78,26,26,0,0,1,4.13,2.39c.61.42,1.13.81,1.51,1.08s.58.45.58.46l.31-.4-.47.17Z" />
      <polyline points="165.79 45.43 154.77 16.82 153.84 17.18 164.86 45.79" />
      <path d="M127.61,27.77a6.44,6.44,0,0,0-.4-3.5A6.39,6.39,0,0,0,121.87,20a7.72,7.72,0,0,0-3.78.53A7.35,7.35,0,0,0,115,22.75,6.6,6.6,0,0,0,113.5,26a7.47,7.47,0,0,0,.48,3.77A7.27,7.27,0,0,0,115.33,32a6.7,6.7,0,0,0,1.89,1.58.72.72,0,0,0,.69.06.89.89,0,0,0,.49-.57.85.85,0,0,0,0-.64,1.05,1.05,0,0,0-.46-.52,4.28,4.28,0,0,1-1.29-1.11,5.49,5.49,0,0,1-1-1.61,5.12,5.12,0,0,1,.77-5.23,5.47,5.47,0,0,1,1.8-1.25l3.7,9.57a.92.92,0,0,0,.46.54.88.88,0,0,0,.71,0,7.68,7.68,0,0,0,3-2A6,6,0,0,0,127.61,27.77Zm-2.94,1.86a5.77,5.77,0,0,1-1.61,1l-3.29-8.53a5.82,5.82,0,0,1,1.81-.28,4.56,4.56,0,0,1,2.4.91,4.74,4.74,0,0,1,1.58,2.15,4.48,4.48,0,0,1,.26,2.55A4.3,4.3,0,0,1,124.67,29.63Z" />
      <path d="M127.61,27.77l.49.09a6,6,0,0,0,.1-1.12,7.3,7.3,0,0,0-.52-2.65,7.15,7.15,0,0,0-2.28-3.15h0a7,7,0,0,0-3.46-1.41h0a8.25,8.25,0,0,0-4,.56,8,8,0,0,0-3.33,2.34h0a7.08,7.08,0,0,0-1.58,3.5,7.42,7.42,0,0,0-.08,1.05,8.39,8.39,0,0,0,.58,3h0A8,8,0,0,0,115,32.29a7.35,7.35,0,0,0,2,1.7l.23-.45L117,34a1.29,1.29,0,0,0,.65.18,1.12,1.12,0,0,0,.48-.1l-.2-.46.19.46a1.41,1.41,0,0,0,.77-.85h0a1.26,1.26,0,0,0,.08-.43,1.44,1.44,0,0,0-.13-.58,1.65,1.65,0,0,0-.66-.75h0a3.83,3.83,0,0,1-1.15-1h0a5.22,5.22,0,0,1-.88-1.47,5,5,0,0,1-.37-1.84,4.14,4.14,0,0,1,.06-.7,4.67,4.67,0,0,1,1-2.19,5.19,5.19,0,0,1,1.64-1.13l-.23-.44-.46.18,3.69,9.57a1.4,1.4,0,0,0,.72.81l.21-.45-.22.44a1.24,1.24,0,0,0,.56.13,1.62,1.62,0,0,0,.54-.1h0a8.16,8.16,0,0,0,3.24-2.17l-.38-.33.37.34a6.47,6.47,0,0,0,1.61-3.23h0l-.49-.09-.49-.09a5.42,5.42,0,0,1-1.37,2.73h0a7.13,7.13,0,0,1-2.85,1.89l.18.47-.18-.47-.19,0-.11,0h0c-.1,0-.15-.09-.22-.26L118.48,22l-.5.25a5.9,5.9,0,0,0-2,1.38,5.73,5.73,0,0,0-1.22,2.66,6.38,6.38,0,0,0-.07.87,6,6,0,0,0,.44,2.2,6.13,6.13,0,0,0,1,1.76h0a5,5,0,0,0,1.44,1.24l.23-.45-.25.43a.59.59,0,0,1,.25.29l0,.18,0,.1.47.16-.47-.17c-.07.2-.15.25-.21.28h-.09l-.16,0h0a6.46,6.46,0,0,1-1.75-1.46,6.69,6.69,0,0,1-1.26-2h0a7.28,7.28,0,0,1-.52-2.63,5.46,5.46,0,0,1,.07-.9,6,6,0,0,1,1.36-3h0a6.82,6.82,0,0,1,2.92-2,7.36,7.36,0,0,1,2.75-.55,6.79,6.79,0,0,1,.78,0h0a6.23,6.23,0,0,1,3,1.21h0a6.07,6.07,0,0,1,1.95,2.72,6.31,6.31,0,0,1,.46,2.29,4.9,4.9,0,0,1-.08.94h0Zm-2.94,1.86-.36-.34a5.73,5.73,0,0,1-1.48.93l.23.44.47-.18L120.24,22l-.47.18.11.49a7.84,7.84,0,0,1,1.5-.28h.15a4,4,0,0,1,2.15.81l0,0,0,0a4.23,4.23,0,0,1,1.41,1.93,4.16,4.16,0,0,1,.31,1.56,3.35,3.35,0,0,1-.07.71,3.87,3.87,0,0,1-1,1.93l.36.34L125,30a4.87,4.87,0,0,0,1.27-2.41,4.6,4.6,0,0,0,.09-.91,5.55,5.55,0,0,0-2.12-4.29h0a5.13,5.13,0,0,0-2.65-1l0,.5,0-.5h-.25a7.79,7.79,0,0,0-1.71.3l-.57.13,3.69,9.59.5-.25A6.18,6.18,0,0,0,125,30Z" />
      <path d="M142.12,65a7,7,0,0,0-.46-3.31,6.41,6.41,0,0,0-1.79-2.58,6,6,0,0,0-2-1l1-.39a1,1,0,0,0,.58-.51.92.92,0,0,0,0-.76,1,1,0,0,0-.51-.59,1,1,0,0,0-.78,0L126.9,60.23a1,1,0,0,0-.57.5,1,1,0,0,0,0,.78.9.9,0,0,0,.5.57,1,1,0,0,0,.76,0l7.1-2.74a3.26,3.26,0,0,1,2-.14,4.13,4.13,0,0,1,1.82,1,5.55,5.55,0,0,1,1.64,4.34,3.89,3.89,0,0,1-.85,2.09,5.11,5.11,0,0,1-2.23,1.51l-6.23,2.4a.94.94,0,0,0-.56.51,1,1,0,0,0,.51,1.32,1,1,0,0,0,.75,0L137.82,70a6.94,6.94,0,0,0,3-2.06A5.62,5.62,0,0,0,142.12,65Z" />
      <path d="M142.12,65l.5.06c0-.26,0-.52,0-.78a7.66,7.66,0,0,0-.54-2.77h0a6.85,6.85,0,0,0-1.92-2.77h0A6.54,6.54,0,0,0,138,57.65l-.16.47.18.47,1-.39a1.5,1.5,0,0,0,.86-.78,1.39,1.39,0,0,0,.12-.57,1.6,1.6,0,0,0-.11-.57,1.49,1.49,0,0,0-.78-.87,1.47,1.47,0,0,0-.56-.11,1.57,1.57,0,0,0-.6.12h0l-11.28,4.34a1.45,1.45,0,0,0-.84.77,1.38,1.38,0,0,0-.12.56,1.57,1.57,0,0,0,.12.6,1.46,1.46,0,0,0,.77.85l.2-.46-.2.46a1.39,1.39,0,0,0,.57.12,1.55,1.55,0,0,0,.56-.11h0l7.09-2.73h0a2.89,2.89,0,0,1,1.05-.21,2.5,2.5,0,0,1,.66.09h0a3.66,3.66,0,0,1,1.6.89h0a4.75,4.75,0,0,1,1.16,1.76,4.83,4.83,0,0,1,.35,1.76c0,.13,0,.27,0,.4h0a3.28,3.28,0,0,1-.74,1.81h0a4.51,4.51,0,0,1-2,1.35l-6.23,2.41.18.46-.18-.47a1.46,1.46,0,0,0-.84.78,1.43,1.43,0,0,0-.12.58,1.52,1.52,0,0,0,.12.59l.46-.19-.46.18a1.44,1.44,0,0,0,.77.82l.2-.46-.21.45a1.25,1.25,0,0,0,.6.13,1.24,1.24,0,0,0,.54-.1l6.24-2.4h0a7.53,7.53,0,0,0,3.25-2.22l-.39-.31.39.31a6,6,0,0,0,1.36-3.18h0l-.5-.06-.5-.06a5,5,0,0,1-1.15,2.67h0a6.43,6.43,0,0,1-2.83,1.91l-.08,0-6.16,2.38.18.47-.17-.47-.19,0-.18,0h0a.43.43,0,0,1-.23-.26h0l0-.21,0-.18a.44.44,0,0,1,.27-.24l6.24-2.41a5.39,5.39,0,0,0,2.44-1.67l-.39-.3.39.31a4.39,4.39,0,0,0,1-2.36l-.5,0,.49,0a4,4,0,0,0,0-.49,6.14,6.14,0,0,0-1.82-4.25h0a4.53,4.53,0,0,0-2-1.13l-.11.48.12-.48a3.56,3.56,0,0,0-.91-.12,3.85,3.85,0,0,0-1.41.28l-7.1,2.73.18.47-.17-.47-.22,0-.17,0h0c-.09,0-.15-.1-.23-.29a.64.64,0,0,1,0-.24l0-.15c0-.11.1-.17.29-.24l11.28-4.35h0a.64.64,0,0,1,.24-.05l.16,0c.09,0,.16.11.25.31l0,.21,0,.16a.52.52,0,0,1-.31.26l-2.28.87,1.28.45a5.49,5.49,0,0,1,1.83.9h0a5.93,5.93,0,0,1,1.64,2.38h0a6.92,6.92,0,0,1,.47,2.42,4.92,4.92,0,0,1,0,.67h0Z" />
      <path d="M139.35,48.58a.94.94,0,0,0-.47-1.22.92.92,0,0,0-1.22.47,8.54,8.54,0,1,1-4.34-11.27,8.44,8.44,0,0,1,4.54,5L135,42.61,140.09,45l2.28-5.13-2.79,1.06a10.26,10.26,0,0,0-5.51-6,10.38,10.38,0,1,0,5.28,13.7Z" />
      <path d="M139.35,48.58l.46.2a1.42,1.42,0,0,0-.73-1.87h0a1.33,1.33,0,0,0-.58-.13,1.42,1.42,0,0,0-1.3.85,8.07,8.07,0,0,1-7.36,4.78,7.9,7.9,0,0,1-3.24-.69A8,8,0,1,1,133.12,37a7.94,7.94,0,0,1,4.27,4.68l.47-.16-.17-.47-4,1.5,6.62,3.06,3-6.69-3.91,1.48.18.47.47-.17a10.84,10.84,0,1,0-10.21,14.53,10.92,10.92,0,0,0,10-6.47l-.46-.2-.46-.2a9.9,9.9,0,0,1-9,5.87,9.78,9.78,0,0,1-4-.85,9.9,9.9,0,0,1-5.88-9,9.88,9.88,0,0,1,9.9-9.87,10,10,0,0,1,4,.85,9.84,9.84,0,0,1,5.24,5.72l.17.48,2.14-.81-1.58,3.57-3.54-1.63,2.2-.83-.16-.46a9,9,0,0,0-16.75-.67,9.06,9.06,0,0,0,4.6,11.93,9,9,0,0,0,3.65.78A9,9,0,0,0,138.11,48a.44.44,0,0,1,.39-.25l.17,0h0a.43.43,0,0,1,.26.39l0,.17Z" />
      <polyline class="cls-4" points="51.78 48.03 64.83 81.91 65.76 81.55 52.71 47.67" />
      <polyline class="cls-4" points="45.82 50.33 57.73 81.24 58.66 80.88 46.75 49.97" />
      <polyline class="cls-4" points="39.86 52.62 51.77 83.53 52.7 83.17 40.8 52.26" />
      <rect class="cls-5" x="23.84" y="56.45" width="14.96" height="33.94" transform="translate(-24.3 16.17) rotate(-21.07)" />
      <rect class="cls-5" x="25.46" y="99.88" width="3" height="12.11" transform="translate(-36.27 16.77) rotate(-21.07)" />
      <line x1="87.6" y1="32.38" x2="88.46" y2="34.62" />
      <polyline points="87.13 32.56 87.99 34.8 88.92 34.44 88.06 32.2" />
      <line x1="80.8" y1="35" x2="83.54" y2="42.11" />
      <polyline points="80.34 35.18 83.08 42.29 84.01 41.93 81.27 34.82" />
      <line x1="74.01" y1="37.62" x2="78.63" y2="49.61" />
      <polyline points="73.54 37.8 78.16 49.79 79.09 49.43 74.47 37.44" />
      <line x1="67.21" y1="40.24" x2="73.71" y2="57.11" />
      <polyline points="66.75 40.42 73.25 57.29 74.18 56.93 67.68 40.06" />
      <line x1="60.42" y1="42.85" x2="68.8" y2="64.61" />
      <polyline points="59.95 43.03 68.33 64.78 69.27 64.43 60.89 42.67" />
      <g class="cls-6">
        <path d="M85.64,42.51l-.39-1a.55.55,0,1,1,1-.39l.39,1a.55.55,0,0,1-.31.71A.56.56,0,0,1,85.64,42.51Z" />
      </g>
      <g class="cls-7">
        <path d="M84.14,52.1l-.39-1a.54.54,0,0,1,.31-.7.55.55,0,0,1,.71.31l.39,1a.55.55,0,1,1-1,.39Z" />
      </g>
      <g class="cls-8">
        <path d="M82.65,61.69l-.4-1a.55.55,0,0,1,1-.39l.4,1a.55.55,0,0,1-.32.71A.53.53,0,0,1,82.65,61.69Zm-3.28-8.5-.39-1a.55.55,0,0,1,1-.4l.39,1a.55.55,0,1,1-1,.4Z" />
      </g>
      <g class="cls-9">
        <path d="M81.15,71.29l-.4-1a.56.56,0,0,1,.32-.71.55.55,0,0,1,.71.31l.39,1a.55.55,0,0,1-1,.4Zm-3.28-8.51-.39-1a.55.55,0,1,1,1-.39l.39,1a.54.54,0,0,1-.31.7A.55.55,0,0,1,77.87,62.78Z" />
      </g>
      <g class="cls-10">
        <path d="M79.65,80.88l-.39-1a.55.55,0,1,1,1-.4l.39,1a.54.54,0,0,1-.31.7A.55.55,0,0,1,79.65,80.88Zm-3.28-8.51-.39-1a.55.55,0,0,1,.31-.71A.56.56,0,0,1,77,71l.39,1a.55.55,0,0,1-.31.71A.56.56,0,0,1,76.37,72.37Z" />
      </g>
      <path d="M78.15,90.47l-.39-1a.55.55,0,0,1,.31-.71.54.54,0,0,1,.71.32l.39,1a.54.54,0,0,1-.31.7A.55.55,0,0,1,78.15,90.47ZM74.88,82l-.4-1a.55.55,0,0,1,1-.39l.4,1a.55.55,0,0,1-.32.71A.53.53,0,0,1,74.88,82Zm-3.28-8.5-.39-1a.55.55,0,1,1,1-.4l.39,1a.55.55,0,0,1-1,.4Z" />
      <path d="M87.54,33l-.11-.28a.3.3,0,0,1,.17-.38.3.3,0,0,1,.38.17l.11.28a.3.3,0,0,1-.17.38A.3.3,0,0,1,87.54,33Z" />
      <polyline class="cls-4" points="105.05 27.7 116.95 58.61 117.88 58.25 105.98 27.34" />
      <polyline class="cls-4" points="99.09 30 111 60.91 111.93 60.55 100.02 29.64" />
      <path d="M170.81,56.19,183.55,48l-.27-.42.18.46a9.06,9.06,0,0,0,5.8-8.45,9,9,0,0,0-.6-3.24l-.47.18.47-.16Q184,22.24,179.23,8.09a9.11,9.11,0,0,0-4.79-5,8.09,8.09,0,0,0-3.31-.67,17.05,17.05,0,0,0-3.53.47c-4.25.9-8.9,1.83-14.81,3l-.49.1.19,1,.49-.1c5.91-1.14,10.57-2.07,14.83-3a15.57,15.57,0,0,1,3.32-.45A7,7,0,0,1,174,4a8.13,8.13,0,0,1,4.24,4.43q4.71,14.16,9.43,28.32h0a7.86,7.86,0,0,1,.54,2.88,8.06,8.06,0,0,1-5.16,7.52l0,0-13.21,8.45.53.85Z" />
    </g>
  </g>
</svg>