<?xml version="1.0" encoding="utf-8"?>
<!-- Generator: Adobe Illustrator 24.3.0, SVG Export Plug-In . SVG Version: 6.00 Build 0)  -->
<svg version="1.1" id="Layer_1" xmlns="http://www.w3.org/2000/svg" xmlns:xlink="http://www.w3.org/1999/xlink" x="0px" y="0px"
	 viewBox="0 0 219.5 41.2" style="enable-background:new 0 0 219.5 41.2;" xml:space="preserve">
<style type="text/css">
	.st0{fill:#DAA520;}
</style>
<g>
	<path class="st0" d="M43.3,15.7c-2.1,1.6-6.4,4.9-12.9,9.9c0.5,1.7,1.4,4.3,2.4,7.8l2.4,7.8l-13.4-9.2c0.1,0-4.4,3.1-13.4,9.2
		C11.5,31.1,13,25.9,13,25.7c0-0.4-4.3-3.3-13-9.9l14.8-0.4h1.4c1.1-3.2,2.9-8.3,5.3-15.4c2.2,6,4,11.1,5.4,15.3
		c0.3,0.1,0.6,0.1,0.9,0.2C31.7,15.5,36.9,15.6,43.3,15.7z"/>
	<path class="st0" d="M87.4,15.7c-2.1,1.6-6.4,4.9-12.9,9.9c0.6,1.7,1.4,4.3,2.4,7.8c1.1,3.5,1.9,6,2.4,7.8l-13.4-9.2
		c0.1,0-4.4,3.1-13.3,9.2c3.1-10.1,4.6-15.2,4.6-15.5c0-0.4-4.3-3.3-13-9.9l14.8-0.4h1.4c1.1-3.2,2.9-8.3,5.3-15.4
		c2.2,6,4,11.1,5.4,15.3c0.3,0.1,0.7,0.1,1,0.2C75.8,15.5,80.9,15.6,87.4,15.7z"/>
	<path class="st0" d="M131.4,15.7c-2.1,1.6-6.4,4.9-12.9,9.9c0.6,1.7,1.4,4.3,2.4,7.8c1.1,3.5,1.9,6,2.4,7.8l-13.4-9.2
		c0.1,0-4.4,3.1-13.4,9.2c3.1-10.1,4.6-15.2,4.6-15.5c0-0.4-4.3-3.3-13-9.9l14.8-0.4h1.4c1.1-3.2,2.8-8.3,5.3-15.4
		c2.1,6,4,11.1,5.4,15.3c0.3,0.1,0.6,0.1,1,0.2C119.8,15.5,125,15.6,131.4,15.7z"/>
	<path class="st0" d="M175.4,15.7c-2.1,1.6-6.4,4.9-12.9,9.9c0.5,1.7,1.4,4.3,2.4,7.8l2.4,7.8l-13.4-9.2c0.1,0-4.4,3.1-13.3,9.2
		c3.1-10.1,4.6-15.2,4.6-15.5c0-0.4-4.3-3.3-13-9.9l14.8-0.4h1.4c1.1-3.1,2.9-8.3,5.3-15.4c2.2,6,4,11.1,5.4,15.3
		c0.3,0.1,0.7,0.1,1,0.2C163.9,15.5,169,15.6,175.4,15.7z"/>
	<path class="st0" d="M219.5,15.7c-2.1,1.6-6.4,4.9-12.9,9.9c0.6,1.7,1.4,4.3,2.4,7.8c1.1,3.5,1.9,6,2.4,7.8l-13.4-9.2
		c0.1,0-4.4,3.1-13.3,9.2c3.1-10.1,4.6-15.2,4.6-15.5c0-0.4-4.3-3.3-13-9.9l14.8-0.4h1.5c1.1-3.1,2.9-8.3,5.3-15.4
		c2.1,6,4,11.1,5.4,15.3c0.3,0.1,0.6,0.1,0.9,0.2C207.9,15.5,213,15.6,219.5,15.7z"/>
</g>
</svg>
