<svg xmlns="http://www.w3.org/2000/svg" xmlns:xlink="http://www.w3.org/1999/xlink" viewBox="0 0 569.05 837.62"><defs><style>.cls-1{fill:none;}.cls-2{clip-path:url(#clip-path);}.cls-3{fill:#0072b6;}.cls-4{fill:#0273b6;}.cls-5{fill:#0374b7;}.cls-6{fill:#0575b7;}.cls-7{fill:#0776b8;}.cls-8{fill:#0877b8;}.cls-9{fill:#0a77b9;}.cls-10{fill:#0b78b9;}.cls-11{fill:#0d79ba;}.cls-12{fill:#0f7aba;}.cls-13{fill:#107bbb;}.cls-14{fill:#127cbb;}.cls-15{fill:#147dbc;}.cls-16{fill:#157ebc;}.cls-17{fill:#177fbd;}.cls-18{fill:#1980bd;}.cls-19{fill:#1a80bd;}.cls-20{fill:#1c81be;}.cls-21{fill:#1d82be;}.cls-22{fill:#1f83bf;}.cls-23{fill:#2184bf;}.cls-24{fill:#2285c0;}.cls-25{fill:#2486c0;}.cls-26{fill:#2687c1;}.cls-27{fill:#2788c1;}.cls-28{fill:#2989c2;}.cls-29{fill:#2b8ac2;}.cls-30{fill:#2c8ac3;}.cls-31{fill:#2e8bc3;}.cls-32{fill:#2f8cc4;}.cls-33{fill:#318dc4;}.cls-34{fill:#338ec5;}.cls-35{fill:#348fc5;}.cls-36{fill:#3690c5;}.cls-37{fill:#3891c6;}.cls-38{fill:#3992c6;}.cls-39{fill:#3b93c7;}.cls-40{fill:#3c93c7;}.cls-41{fill:#3e94c8;}.cls-42{fill:#4095c8;}.cls-43{fill:#4196c9;}.cls-44{fill:#4397c9;}.cls-45{fill:#4598ca;}.cls-46{fill:#4699ca;}.cls-47{fill:#489acb;}.cls-48{fill:#4a9bcb;}.cls-49{fill:#4b9ccc;}.cls-50{fill:#4d9ccc;}.cls-51{fill:#4e9dcc;}.cls-52{fill:#509ecd;}.cls-53{fill:#529fcd;}.cls-54{fill:#53a0ce;}.cls-55{fill:#55a1ce;}.cls-56{fill:#57a2cf;}.cls-57{fill:#58a3cf;}.cls-58{fill:#5aa4d0;}.cls-59{fill:#5ca5d0;}.cls-60{fill:#5da6d1;}.cls-61{fill:#5fa6d1;}.cls-62{fill:#60a7d2;}.cls-63{fill:#62a8d2;}.cls-64{fill:#64a9d3;}.cls-65{fill:#65aad3;}.cls-66{fill:#67abd3;}.cls-67{fill:#69acd4;}.cls-68{fill:#6aadd4;}.cls-69{fill:#6caed5;}.cls-70{fill:#6eafd5;}.cls-71{fill:#6fafd6;}.cls-72{fill:#71b0d6;}.cls-73{fill:#72b1d7;}.cls-74{fill:#74b2d7;}.cls-75{fill:#76b3d8;}.cls-76{fill:#77b4d8;}.cls-77{fill:#79b5d9;}.cls-78{fill:#7bb6d9;}.cls-79{fill:#7cb7da;}.cls-80{fill:#7eb8da;}.cls-81{fill:#80b9db;}.cls-82{fill:#81b9db;}.cls-83{fill:#83badb;}.cls-84{fill:#84bbdc;}.cls-85{fill:#86bcdc;}.cls-86{fill:#88bddd;}.cls-87{fill:#89bedd;}.cls-88{fill:#8bbfde;}.cls-89{fill:#8dc0de;}.cls-90{fill:#8ec1df;}.cls-91{fill:#90c2df;}.cls-92{fill:#91c2e0;}.cls-93{fill:#93c3e0;}.cls-94{fill:#95c4e1;}.cls-95{fill:#96c5e1;}.cls-96{fill:#98c6e2;}.cls-97{fill:#9ac7e2;}.cls-98{fill:#9bc8e2;}.cls-99{fill:#9dc9e3;}.cls-100{fill:#9fcae3;}.cls-101{fill:#a0cbe4;}.cls-102{fill:#a2cbe4;}.cls-103{fill:#a3cce5;}.cls-104{fill:#a5cde5;}.cls-105{fill:#a7cee6;}.cls-106{fill:#a8cfe6;}.cls-107{fill:#aad0e7;}.cls-108{fill:gray;}.cls-109{fill:#838383;}.cls-110{fill:#868686;}.cls-111{fill:#898989;}.cls-112{fill:#8c8c8c;}.cls-113{fill:#8f8f8f;}.cls-114{fill:#929292;}.cls-115{fill:#959595;}.cls-116{fill:#989898;}.cls-117{fill:#9a9a9a;}.cls-118{fill:#9d9d9d;}.cls-119{fill:#a0a0a0;}.cls-120{fill:#a3a3a3;}.cls-121{fill:#a6a6a6;}.cls-122{fill:#a9a9a9;}.cls-123{fill:#acacac;}.cls-124{fill:#afafaf;}.cls-125{fill:#b2b2b2;}.cls-126{fill:#b5b5b5;}.cls-127{fill:#b8b8b8;}.cls-128{fill:#bbb;}.cls-129{fill:#bebebe;}.cls-130{fill:#c1c1c1;}.cls-131{fill:#c4c4c4;}.cls-132{fill:#c7c7c7;}.cls-133{fill:#c9c9c9;}.cls-134{fill:#ccc;}.cls-135{fill:#cfcfcf;}.cls-136{fill:#d2d2d2;}.cls-137{fill:#d5d5d5;}.cls-138{fill:#d8d8d8;}.cls-139{fill:#dbdbdb;}.cls-140{fill:#dedede;}.cls-141{fill:#2e72af;}</style><clipPath id="clip-path" transform="translate(-35.37 40.35)"><rect class="cls-1" width="444.34" height="790.95"/></clipPath></defs><g id="Layer_2" data-name="Layer 2"><g id="BG"><g class="cls-2"><path class="cls-3" d="M41.29,377.37a151.14,151.14,0,0,1,20.19-1.86,29.45,29.45,0,0,1,4.64.29,4.12,4.12,0,0,1,2.45,1,1.69,1.69,0,0,1,.33,1,1.72,1.72,0,0,1-.25.88c-.38.64-1.77,1.12-3.72,1.4a53,53,0,0,1-7.1.38c-7.46,0-16-.84-16.44-.91l-.14.1.1.15c.43.07,9,.91,16.48.92a51.85,51.85,0,0,0,7.14-.4c2-.29,3.39-.73,3.89-1.51a1.94,1.94,0,0,0,.29-1,1.91,1.91,0,0,0-.38-1.15,4.27,4.27,0,0,0-2.61-1.09,30,30,0,0,0-4.68-.3,155.47,155.47,0,0,0-20.25,1.87l-.09.15.15.1Z" transform="translate(-35.37 40.35)"/><path class="cls-4" d="M45.11,375.13c1.09,0,9.4-.87,16.84-.87a51.89,51.89,0,0,1,7.59.45c2.11.32,3.65.87,4.15,1.65a2,2,0,0,1,.34,1.12,1.93,1.93,0,0,1-.24.94,2.89,2.89,0,0,1-1.46,1.06c-3.23,1.42-10.73,1.72-17,1.72-4.25,0-7.94-.14-9.41-.14l-.6,0,0,.25.57,0c1.46,0,5.16.14,9.41.14,6.29,0,13.77-.29,17.1-1.74A3.14,3.14,0,0,0,74,378.54a2.31,2.31,0,0,0,.26-1.06,2.22,2.22,0,0,0-.38-1.26c-.61-.9-2.19-1.42-4.32-1.76A52.56,52.56,0,0,0,62,374c-7.45,0-15.79.84-16.84.87v.25Z" transform="translate(-35.37 40.35)"/><path class="cls-5" d="M49,372.88l.63,0c1.73,0,5.83-.18,10.45-.18a94.31,94.31,0,0,1,11.76.6c3.52.46,6.26,1.3,7,2.6a2.49,2.49,0,0,1,.35,1.25,2.29,2.29,0,0,1-.23,1,3.24,3.24,0,0,1-1.46,1.22c-3,1.61-9.47,2.32-15.5,2.67-3,.17-5.91.26-8.19.33a44.45,44.45,0,0,0-4.51.24l0,.24c.53-.1,2.2-.16,4.48-.23,3.42-.11,8.23-.25,12.75-.67s8.75-1.12,11-2.36a3.48,3.48,0,0,0,1.57-1.33,2.62,2.62,0,0,0-.14-2.49c-.89-1.45-3.66-2.24-7.21-2.72a94.9,94.9,0,0,0-11.79-.6c-4.63,0-8.73.18-10.45.18l-.61,0,0,.25Z" transform="translate(-35.37 40.35)"/><path class="cls-6" d="M52.8,370.64c1.73.2,8.78.09,15.8.6a62.13,62.13,0,0,1,9.78,1.34c2.79.67,4.87,1.63,5.56,2.91a2.84,2.84,0,0,1,.36,1.38,2.7,2.7,0,0,1-.21,1.05,3.66,3.66,0,0,1-1.45,1.38c-3,1.95-9.63,3-15.84,3.64s-12,.87-13.57,1.23l.06.25c1.47-.36,7.32-.6,13.53-1.23s12.84-1.68,16-3.68A3.85,3.85,0,0,0,84.32,378a3,3,0,0,0,.23-1.15,3.11,3.11,0,0,0-.39-1.5c-.78-1.41-2.91-2.35-5.73-3a83.26,83.26,0,0,0-15-1.62c-5-.19-9.33-.17-10.59-.32l0,.25Z" transform="translate(-35.37 40.35)"/><path class="cls-7" d="M56.64,368.4c2.12.31,9.45.46,16.66,1.3a59.9,59.9,0,0,1,10,1.88c2.85.86,5,2,5.73,3.47a3.27,3.27,0,0,1,.37,1.51,3,3,0,0,1-.21,1.11,4,4,0,0,1-1.44,1.54c-3.07,2.3-9.78,3.7-16.18,4.62s-12.49,1.38-14.41,1.89l.06.24c1.87-.49,8-1,14.39-1.89s13.12-2.3,16.29-4.66a4.3,4.3,0,0,0,1.53-1.65,3.45,3.45,0,0,0,.22-1.2,3.58,3.58,0,0,0-.39-1.62c-.82-1.59-3-2.73-5.89-3.6-8.64-2.62-23.61-2.72-26.73-3.19l0,.25Z" transform="translate(-35.37 40.35)"/><path class="cls-8" d="M60.49,366.15c2.49.43,10.11.85,17.53,2a59.36,59.36,0,0,1,10.28,2.41c2.92,1.05,5.11,2.39,5.9,4.05a3.82,3.82,0,0,1,.38,1.64,3.49,3.49,0,0,1-.2,1.16,4.48,4.48,0,0,1-1.44,1.7c-3.12,2.67-9.93,4.4-16.51,5.6s-13,1.9-15.27,2.54l.07.24c2.27-.63,8.65-1.32,15.24-2.53s13.42-2.93,16.64-5.66a4.66,4.66,0,0,0,1.51-1.81,3.67,3.67,0,0,0,.21-1.24,4.18,4.18,0,0,0-.4-1.75c-.86-1.77-3.1-3.11-6.05-4.17-8.83-3.18-24.15-3.8-27.85-4.43l0,.24Z" transform="translate(-35.37 40.35)"/><path class="cls-9" d="M64.34,363.91c2.87.54,10.78,1.22,18.39,2.72a57.1,57.1,0,0,1,10.54,2.94c3,1.24,5.22,2.76,6.06,4.62a4.45,4.45,0,0,1,.38,1.78,4.06,4.06,0,0,1-.18,1.2A5,5,0,0,1,98.1,379c-3.18,3.05-10.09,5.12-16.86,6.61S67.84,388,65.12,388.8l.07.25c2.67-.78,9.33-1.69,16.11-3.18s13.7-3.55,17-6.66a5.14,5.14,0,0,0,1.5-2A4.16,4.16,0,0,0,100,376a4.57,4.57,0,0,0-.4-1.88c-.89-2-3.18-3.5-6.2-4.75-9-3.75-24.7-4.87-29-5.68l0,.25Z" transform="translate(-35.37 40.35)"/><path class="cls-10" d="M68.19,361.67c3.25.65,11.44,1.59,19.26,3.42a56.4,56.4,0,0,1,10.78,3.47c3.06,1.43,5.35,3.15,6.23,5.2a4.91,4.91,0,0,1,.39,1.91,4.23,4.23,0,0,1-.18,1.24,5.36,5.36,0,0,1-1.41,2c-3.24,3.43-10.24,5.84-17.2,7.6s-13.87,2.9-17,3.82l.07.24c3.07-.91,10-2,17-3.81s14-4.17,17.32-7.67a5.66,5.66,0,0,0,1.47-2.12,4.53,4.53,0,0,0,.19-1.32,5.2,5.2,0,0,0-.41-2c-.93-2.15-3.27-3.89-6.35-5.33-9.24-4.31-25.25-5.94-30.11-6.91l0,.25Z" transform="translate(-35.37 40.35)"/><path class="cls-11" d="M72,359.43c3.65.76,12.11,2,20.14,4.11s15.6,5.29,17.41,9.79a5.43,5.43,0,0,1,.41,2.05,4.94,4.94,0,0,1-.17,1.28,6,6,0,0,1-1.41,2.18c-3.29,3.82-10.38,6.57-17.53,8.61s-14.33,3.38-17.83,4.44l.07.24c3.48-1.05,10.67-2.39,17.83-4.44s14.29-4.79,17.65-8.68a6.22,6.22,0,0,0,1.46-2.28,5.05,5.05,0,0,0,.18-1.35,5.75,5.75,0,0,0-.42-2.15c-1.92-4.67-9.54-7.76-17.58-9.93s-16.53-3.36-20.15-4.12l-.06.25Z" transform="translate(-35.37 40.35)"/><path class="cls-12" d="M75.88,357.18c4,.87,12.78,2.34,21,4.82s15.93,6,17.82,10.89a6,6,0,0,1,.42,2.2,5.24,5.24,0,0,1-.16,1.32,6.67,6.67,0,0,1-1.4,2.34c-3.33,4.21-10.53,7.3-17.86,9.62s-14.8,3.87-18.7,5.07l.08.24c3.87-1.19,11.34-2.75,18.69-5.07s14.58-5.41,18-9.71a6.66,6.66,0,0,0,1.44-2.43,5.27,5.27,0,0,0,.17-1.38,6.5,6.5,0,0,0-.43-2.29c-2-5-9.74-8.54-18-11s-17-3.95-21-4.82l-.06.24Z" transform="translate(-35.37 40.35)"/><path class="cls-13" d="M79.73,354.94a210.94,210.94,0,0,1,21.89,5.52c8.44,2.81,16.26,6.73,18.22,12a6.83,6.83,0,0,1,.43,2.35,6.07,6.07,0,0,1-.15,1.35,7.29,7.29,0,0,1-1.39,2.5c-3.38,4.61-10.67,8-18.2,10.63S85.27,393.64,81,395l.07.24c4.27-1.33,12-3.1,19.57-5.69s14.86-6,18.31-10.73a7.23,7.23,0,0,0,1.43-2.59,5.89,5.89,0,0,0,.16-1.4,7.1,7.1,0,0,0-.44-2.44c-2-5.42-9.93-9.32-18.38-12.15a210.91,210.91,0,0,0-21.91-5.53l-.06.25Z" transform="translate(-35.37 40.35)"/><path class="cls-14" d="M83.58,352.7a187.57,187.57,0,0,1,22.76,6.22c8.65,3.14,16.6,7.45,18.63,13.11a7.43,7.43,0,0,1,.44,2.49,6.28,6.28,0,0,1-.15,1.38,7.77,7.77,0,0,1-1.37,2.66c-3.42,5-10.81,8.79-18.53,11.65s-15.73,4.84-20.42,6.31l.08.24c4.67-1.47,12.7-3.44,20.43-6.31s15.17-6.64,18.64-11.74a8.21,8.21,0,0,0,1.42-2.75,6.9,6.9,0,0,0,.15-1.44,7.6,7.6,0,0,0-.45-2.57c-2.11-5.82-10.12-10.11-18.78-13.27a190.14,190.14,0,0,0-22.79-6.23l-.06.25Z" transform="translate(-35.37 40.35)"/><path class="cls-15" d="M87.43,350.46a173.76,173.76,0,0,1,23.64,6.91c8.85,3.47,16.93,8.18,19,14.23a8,8,0,0,1,.45,2.64,7.33,7.33,0,0,1-.14,1.41,8.44,8.44,0,0,1-1.37,2.82c-6.88,10.86-30,16.38-40.13,19.6l.07.24c10.14-3.23,33.26-8.7,40.28-19.7a9.07,9.07,0,0,0,1.4-2.91,7,7,0,0,0,.14-1.46,8.49,8.49,0,0,0-.46-2.72c-2.17-6.2-10.31-10.9-19.18-14.38a173.9,173.9,0,0,0-23.67-6.93l-.06.25Z" transform="translate(-35.37 40.35)"/><path class="cls-16" d="M91.28,348.21a163.55,163.55,0,0,1,24.52,7.62c9.06,3.8,17.26,8.9,19.43,15.34a8.91,8.91,0,0,1,.46,2.79,7.64,7.64,0,0,1-.13,1.44,9.44,9.44,0,0,1-1.36,3c-6.94,11.67-30.38,17.74-41.33,21.23l.08.24c10.93-3.5,34.4-9.52,41.47-21.34a9.72,9.72,0,0,0,1.39-3.07,8,8,0,0,0,.13-1.48,9.13,9.13,0,0,0-.47-2.87c-2.23-6.58-10.5-11.68-19.58-15.49A162,162,0,0,0,91.34,348l-.06.24Z" transform="translate(-35.37 40.35)"/><path class="cls-17" d="M95.13,346a153.09,153.09,0,0,1,25.4,8.32c9.27,4.12,17.59,9.62,19.83,16.45a9.63,9.63,0,0,1,.47,2.95,8.69,8.69,0,0,1-.12,1.45,10.22,10.22,0,0,1-1.35,3.14c-7,12.49-30.79,19.11-42.52,22.87l.07.24c11.73-3.78,35.56-10.34,42.67-23a10.56,10.56,0,0,0,1.38-3.22,9.29,9.29,0,0,0,.13-1.5,9.85,9.85,0,0,0-.49-3c-2.29-7-10.68-12.46-20-16.6a154.3,154.3,0,0,0-25.44-8.34l-.06.25Z" transform="translate(-35.37 40.35)"/><path class="cls-18" d="M99,343.73a146.75,146.75,0,0,1,26.28,9c9.47,4.46,17.93,10.35,20.22,17.57a10,10,0,0,1,.49,3.1,9,9,0,0,1-.12,1.48,11.1,11.1,0,0,1-1.33,3.3c-7,13.31-31.19,20.46-43.72,24.51l.08.24c12.52-4.06,36.72-11.17,43.87-24.63a11.24,11.24,0,0,0,1.35-3.38,8.43,8.43,0,0,0,.13-1.52,10.51,10.51,0,0,0-.5-3.18c-2.35-7.34-10.87-13.24-20.37-17.71a146.9,146.9,0,0,0-26.32-9l-.06.25Z" transform="translate(-35.37 40.35)"/><path class="cls-19" d="M102.83,341.49A141.13,141.13,0,0,1,130,351.2c9.68,4.78,18.27,11.07,20.62,18.68a11.09,11.09,0,0,1,.51,3.26,9.29,9.29,0,0,1-.12,1.5,12,12,0,0,1-1.32,3.46c-7.07,14.13-31.59,21.82-44.92,26.14l.08.24c13.32-4.34,37.89-12,45.07-26.27a12.46,12.46,0,0,0,1.34-3.53,9.8,9.8,0,0,0,.12-1.54,11.62,11.62,0,0,0-.51-3.34c-2.41-7.73-11.05-14-20.76-18.83a141.68,141.68,0,0,0-27.21-9.73l-.06.25Z" transform="translate(-35.37 40.35)"/><path class="cls-20" d="M106.68,339.24a136.36,136.36,0,0,1,28,10.42c9.89,5.11,18.61,11.8,21,19.79a11.84,11.84,0,0,1,.52,3.43,10.59,10.59,0,0,1-.11,1.5,12.94,12.94,0,0,1-1.31,3.62c-7.1,15-32,23.18-46.11,27.78l.08.24c14.11-4.61,39.06-12.8,46.26-27.91a12.87,12.87,0,0,0,1.33-3.69,9.8,9.8,0,0,0,.11-1.54,12.38,12.38,0,0,0-.52-3.51c-2.47-8.11-11.24-14.81-21.15-19.94A137.24,137.24,0,0,0,106.74,339l-.06.24Z" transform="translate(-35.37 40.35)"/><path class="cls-21" d="M110.53,337a133.26,133.26,0,0,1,28.92,11.11c10.11,5.44,19,12.53,21.42,20.91a12.64,12.64,0,0,1,.53,3.59,10.88,10.88,0,0,1-.1,1.52,14,14,0,0,1-1.3,3.78c-7.12,15.77-32.4,24.54-47.31,29.42l.08.24C127.68,402.67,153,394,160.23,378a14.16,14.16,0,0,0,1.32-3.85,11.21,11.21,0,0,0,.1-1.55,13.19,13.19,0,0,0-.53-3.67c-2.53-8.5-11.42-15.59-21.55-21.05a133.36,133.36,0,0,0-29-11.14l-.06.25Z" transform="translate(-35.37 40.35)"/><path class="cls-22" d="M114.38,334.76a130.46,130.46,0,0,1,29.81,11.81c10.31,5.77,19.28,13.25,21.81,22a13.41,13.41,0,0,1,.54,3.76,12.54,12.54,0,0,1-.09,1.52,14.79,14.79,0,0,1-1.29,3.94c-7.14,16.6-32.8,25.9-48.5,31.06l.08.24c15.7-5.17,41.42-14.44,48.65-31.2a15.13,15.13,0,0,0,1.31-4,13.33,13.33,0,0,0,.1-1.56,13.5,13.5,0,0,0-.56-3.83c-2.57-8.89-11.59-16.39-21.93-22.17a130.57,130.57,0,0,0-29.87-11.84l-.06.25Z" transform="translate(-35.37 40.35)"/><path class="cls-23" d="M118.23,332.52A128,128,0,0,1,148.92,345c10.52,6.1,19.62,14,22.21,23.14a14.69,14.69,0,0,1,.56,3.93,11,11,0,0,1-.1,1.53,15.92,15.92,0,0,1-1.27,4.1c-7.16,17.42-33.21,27.26-49.7,32.69l.08.25c16.5-5.45,42.61-15.26,49.85-32.84a15.89,15.89,0,0,0,1.3-4.17,13.34,13.34,0,0,0,.09-1.56,14.76,14.76,0,0,0-.57-4c-2.63-9.28-11.78-17.17-22.32-23.29a128.29,128.29,0,0,0-30.76-12.53l-.06.25Z" transform="translate(-35.37 40.35)"/><path class="cls-24" d="M122.07,330.27a126.19,126.19,0,0,1,31.59,13.21c10.73,6.43,20,14.7,22.6,24.24a15.69,15.69,0,0,1,.57,4.12,13,13,0,0,1-.09,1.53,17,17,0,0,1-1.26,4.26c-7.17,18.24-33.61,28.62-50.89,34.33l.08.24c17.29-5.73,43.79-16.07,51.05-34.48A17.43,17.43,0,0,0,177,373.4c.05-.52.08-1,.08-1.56a15.67,15.67,0,0,0-.58-4.18c-2.68-9.66-12-18-22.71-24.4A126.42,126.42,0,0,0,122.14,330l-.06.24Z" transform="translate(-35.37 40.35)"/><path class="cls-25" d="M125.92,328a124.82,124.82,0,0,1,32.47,13.91c10.94,6.75,20.29,15.42,23,25.35a16.54,16.54,0,0,1,.58,4.29c0,.52,0,1-.08,1.53a17.6,17.6,0,0,1-1.25,4.42c-7.17,19.07-34,30-52.09,36l.08.24c18.09-6,45-16.89,52.25-36.12a18.45,18.45,0,0,0,1.26-4.48,13.34,13.34,0,0,0,.09-1.56,16.54,16.54,0,0,0-.6-4.35c-2.74-10.05-12.14-18.74-23.11-25.51A125.31,125.31,0,0,0,126,327.78l-.07.25Z" transform="translate(-35.37 40.35)"/><path class="cls-26" d="M129.77,325.79a124,124,0,0,1,33.36,14.6c11.15,7.08,20.63,16.15,23.39,26.47a17.48,17.48,0,0,1,.59,4.47c0,.52,0,1-.07,1.53a19.34,19.34,0,0,1-1.24,4.58c-7.18,19.89-34.41,31.34-53.28,37.61l.08.24c18.88-6.29,46.18-17.71,53.44-37.77a19.07,19.07,0,0,0,1.25-4.64c.05-.51.08-1,.08-1.55a17.47,17.47,0,0,0-.61-4.53c-2.79-10.43-12.32-19.52-23.5-26.62a124.15,124.15,0,0,0-33.42-14.64l-.07.25Z" transform="translate(-35.37 40.35)"/><path class="cls-27" d="M133.62,323.55a123.16,123.16,0,0,1,34.24,15.3c11.36,7.41,21,16.87,23.79,27.58a18.44,18.44,0,0,1,.61,4.65c0,.52,0,1-.07,1.52a20.31,20.31,0,0,1-1.23,4.74c-7.18,20.72-34.82,32.7-54.48,39.25l.08.24c19.68-6.56,47.38-18.52,54.64-39.4a20.55,20.55,0,0,0,1.24-4.8c.05-.51.07-1,.07-1.55a18.46,18.46,0,0,0-.62-4.71c-2.85-10.82-12.5-20.31-23.89-27.73a123.55,123.55,0,0,0-34.31-15.34l-.07.25Z" transform="translate(-35.37 40.35)"/><path class="cls-28" d="M137.47,321.3a123.22,123.22,0,0,1,35.13,16c11.57,7.74,21.3,17.6,24.18,28.7a20,20,0,0,1,.62,4.84c0,.51,0,1-.07,1.51a21.68,21.68,0,0,1-1.21,4.9c-7.18,21.54-35.22,34.06-55.68,40.88l.09.24c20.47-6.83,48.58-19.34,55.83-41a22.23,22.23,0,0,0,1.23-5c0-.5.07-1,.07-1.53a19.44,19.44,0,0,0-.64-4.9c-2.9-11.2-12.68-21.09-24.28-28.85a122.88,122.88,0,0,0-35.2-16l-.07.24Z" transform="translate(-35.37 40.35)"/><path class="cls-29" d="M141.32,319.06c21.1,5.5,54.74,23.53,60.58,46.51a20.51,20.51,0,0,1,.64,5c0,.51,0,1-.06,1.51a22.77,22.77,0,0,1-1.2,5c-7.17,22.37-35.62,35.43-56.87,42.53l.08.24c21.27-7.12,49.79-20.16,57-42.69a22.93,22.93,0,0,0,1.22-5.11q.06-.76.06-1.53a20.46,20.46,0,0,0-.65-5.08c-5.92-23.17-39.61-41.16-60.76-46.7l-.07.25Z" transform="translate(-35.37 40.35)"/><path class="cls-30" d="M145.17,316.82c21.87,5.72,55.92,24.56,61.86,48.32a21.57,21.57,0,0,1,.66,5.21c0,.5,0,1-.06,1.49a23.64,23.64,0,0,1-1.19,5.22c-7.17,23.19-36,36.78-58.07,44.16l.09.24c22-7.39,51-21,58.23-44.33a24.87,24.87,0,0,0,1.2-5.27c0-.5.05-1,.05-1.51a22,22,0,0,0-.66-5.27c-6-23.94-40.12-42.75-62-48.51l-.07.25Z" transform="translate(-35.37 40.35)"/><path class="cls-31" d="M149,314.58c22.64,5.94,57.09,25.6,63.14,50.13a22.62,22.62,0,0,1,.67,5.4c0,.5,0,1-.05,1.48A25.52,25.52,0,0,1,211.6,377c-7.16,24-36.43,38.15-59.26,45.8l.08.25c22.85-7.68,52.2-21.8,59.43-46a25.66,25.66,0,0,0,1.18-5.43c0-.5.06-1,.06-1.5a23.06,23.06,0,0,0-.68-5.46c-6.13-24.71-40.63-44.34-63.32-50.32l-.07.25Z" transform="translate(-35.37 40.35)"/><path class="cls-32" d="M152.87,312.33c23.41,6.17,58.26,26.64,64.42,51.95a23.78,23.78,0,0,1,.69,5.6c0,.49,0,1,0,1.45a27.06,27.06,0,0,1-1.17,5.54c-7.15,24.83-36.83,39.5-60.46,47.44l.08.24C180,416.6,209.79,401.93,217,376.94a27,27,0,0,0,1.17-5.59c0-.48,0-1,0-1.47a24.28,24.28,0,0,0-.69-5.66c-6.23-25.49-41.14-45.93-64.6-52.13l-.07.24Z" transform="translate(-35.37 40.35)"/><path class="cls-33" d="M156.72,310.09c24.17,6.39,59.44,27.67,65.7,53.76a24.85,24.85,0,0,1,.7,5.79c0,.48,0,1-.05,1.44a27.1,27.1,0,0,1-1.15,5.69c-7.14,25.66-37.23,40.87-61.65,49.08l.08.24c24.44-8.22,54.62-23.44,61.82-49.25a28.5,28.5,0,0,0,1.16-5.74c0-.48,0-1,0-1.46a25.37,25.37,0,0,0-.71-5.85c-6.34-26.26-41.65-47.52-65.88-54l-.07.25Z" transform="translate(-35.37 40.35)"/><path class="cls-34" d="M160.57,307.85c24.94,6.61,60.61,28.71,67,55.57a26,26,0,0,1,.72,6c0,.48,0,.95-.05,1.41a29.34,29.34,0,0,1-1.14,5.86c-7.13,26.47-37.63,42.22-62.85,50.71l.08.25c25.24-8.51,55.83-24.26,63-50.9a29.9,29.9,0,0,0,1.15-5.9c0-.47,0-.95,0-1.43a26.53,26.53,0,0,0-.72-6.05c-6.44-27-42.16-49.11-67.16-55.76l-.07.25Z" transform="translate(-35.37 40.35)"/><path class="cls-35" d="M164.42,305.61c25.71,6.83,61.78,29.74,68.26,57.38a27.25,27.25,0,0,1,.73,6.19c0,.47,0,.93,0,1.39a30.64,30.64,0,0,1-1.13,6c-7.11,27.3-38,43.59-64,52.36l.08.24c26-8.78,57-25.08,64.21-52.53a31.62,31.62,0,0,0,1.14-6.06c0-.47,0-.94,0-1.41a27.79,27.79,0,0,0-.74-6.25c-6.54-27.81-42.67-50.7-68.44-57.57l-.07.25Z" transform="translate(-35.37 40.35)"/><path class="cls-36" d="M168.27,303.36c26.48,7.06,63,30.79,69.54,59.2a28.53,28.53,0,0,1,.75,6.4c0,.45,0,.91,0,1.36a32.36,32.36,0,0,1-1.12,6.17c-7.09,28.11-38.44,44.95-65.24,54l.08.24c26.83-9.06,58.26-25.9,65.41-54.17a32.46,32.46,0,0,0,1.13-6.22c0-.45,0-.91,0-1.37a29,29,0,0,0-.75-6.46c-6.64-28.58-43.18-52.29-69.72-59.38l-.07.24Z" transform="translate(-35.37 40.35)"/><path class="cls-37" d="M172.12,301.12c27.25,7.28,64.14,31.82,70.82,61a29.64,29.64,0,0,1,.76,6.6c0,.45,0,.89,0,1.33a33,33,0,0,1-1.11,6.33c-7.08,28.93-38.84,46.31-66.43,55.63l.08.25c27.62-9.34,59.47-26.73,66.6-55.82a33.14,33.14,0,0,0,1.11-6.38c0-.44,0-.89,0-1.34a30.19,30.19,0,0,0-.77-6.66c-6.74-29.35-43.69-53.88-71-61.2l-.07.25Z" transform="translate(-35.37 40.35)"/><path class="cls-38" d="M176,298.88c28,7.5,65.31,32.85,72.1,62.82a31.55,31.55,0,0,1,.78,6.81c0,.44,0,.87,0,1.3a35.47,35.47,0,0,1-1.08,6.49c-7.07,29.75-39.25,47.67-67.64,57.27l.08.24c28.41-9.61,60.69-27.54,67.81-57.45a36.6,36.6,0,0,0,1.09-6.54c0-.43,0-.87,0-1.31a31.31,31.31,0,0,0-.78-6.86c-6.85-30.14-44.2-55.48-72.28-63l-.07.25Z" transform="translate(-35.37 40.35)"/><path class="cls-39" d="M179.82,296.64c28.78,7.72,66.49,33.89,73.38,64.63a32.92,32.92,0,0,1,.79,7c0,.42,0,.85,0,1.26a37,37,0,0,1-1.07,6.65c-7,30.57-39.66,49-68.84,58.91l.09.24c29.2-9.89,61.9-28.36,69-59.09a37.16,37.16,0,0,0,1.08-6.7c0-.42,0-.84,0-1.27a32.61,32.61,0,0,0-.8-7.07c-6.95-30.91-44.71-57.07-73.56-64.83l-.07.25Z" transform="translate(-35.37 40.35)"/><path class="cls-40" d="M183.67,294.39c29.55,7.95,67.67,34.93,74.66,66.45a34.33,34.33,0,0,1,.81,7.24c0,.41,0,.81,0,1.22a38.93,38.93,0,0,1-1.06,6.81c-7,31.38-40.06,50.39-70,60.54l.08.25c30-10.17,63.12-29.19,70.2-60.74a39,39,0,0,0,1.07-6.85c0-.41,0-.82,0-1.23a34.07,34.07,0,0,0-.81-7.29c-7-31.68-45.21-58.67-74.84-66.65l-.07.25Z" transform="translate(-35.37 40.35)"/><path class="cls-41" d="M187.52,292.15c30.32,8.17,68.84,36,75.93,68.26a35,35,0,0,1,.83,7.45c0,.4,0,.79,0,1.18a39.62,39.62,0,0,1-1.05,7c-7,32.21-40.46,51.75-71.23,62.19l.09.24c30.79-10.45,64.34-30,71.39-62.38a40.6,40.6,0,0,0,1.06-7c0-.39,0-.79,0-1.19a35.39,35.39,0,0,0-.83-7.5C256.56,327.9,218,300.1,187.59,291.9l-.07.25Z" transform="translate(-35.37 40.35)"/><path class="cls-42" d="M191.37,289.91c31.09,8.39,70,37,77.21,70.07a36.41,36.41,0,0,1,.85,7.67c0,.38,0,.76,0,1.14a42.29,42.29,0,0,1-1,7.12c-7,33-40.86,53.12-72.42,63.83l.08.24c31.59-10.72,65.56-30.83,72.59-64a40.63,40.63,0,0,0,1-7.17c0-.38,0-.77,0-1.15a36.16,36.16,0,0,0-.85-7.72c-7.24-33.23-46.22-61.85-77.39-70.27l-.07.25Z" transform="translate(-35.37 40.35)"/><path class="cls-43" d="M195.22,287.67c31.86,8.61,71.2,38,78.49,71.88a37.91,37.91,0,0,1,.86,7.9c0,.36,0,.72,0,1.08a44.29,44.29,0,0,1-1,7.29c-7,33.84-41.27,54.48-73.62,65.46l.09.25c32.38-11,66.78-31.66,73.78-65.66a43.28,43.28,0,0,0,1-7.33c0-.36,0-.73,0-1.09a37.66,37.66,0,0,0-.87-7.95c-7.34-34-46.73-63.44-78.67-72.08l-.07.25Z" transform="translate(-35.37 40.35)"/><path class="cls-44" d="M199.07,285.42c32.63,8.84,72.38,39.08,79.77,73.7a39.34,39.34,0,0,1,.88,8.12c0,.35,0,.69,0,1a44,44,0,0,1-1,7.44c-6.94,34.66-41.67,55.84-74.81,67.11l.08.24c33.18-11.28,68-32.48,75-67.3a45.19,45.19,0,0,0,1-7.48c0-.35,0-.7,0-1.05a39.08,39.08,0,0,0-.89-8.17c-7.44-34.78-47.24-65-79.95-73.9l-.07.25Z" transform="translate(-35.37 40.35)"/><path class="cls-45" d="M202.92,283.18c33.4,9.06,73.56,40.11,81.05,75.51a40.77,40.77,0,0,1,.89,8.34c0,.33,0,.66,0,1a45.83,45.83,0,0,1-1,7.6c-6.92,35.47-42.07,57.2-76,68.74l.09.25c34-11.56,69.22-33.31,76.17-68.94a46.15,46.15,0,0,0,1-7.65c0-.33,0-.67,0-1a40.57,40.57,0,0,0-.9-8.39C276.68,323.09,236.47,292,203,282.93l-.07.25Z" transform="translate(-35.37 40.35)"/><path class="cls-46" d="M206.77,280.94c34.17,9.28,74.74,41.15,82.33,77.32a42.29,42.29,0,0,1,.91,8.56c0,.32,0,.64,0,.95a47.6,47.6,0,0,1-1,7.76c-6.89,36.29-42.47,58.56-77.2,70.38l.08.25c34.76-11.84,70.44-34.13,77.37-70.58a48,48,0,0,0,1-7.8c0-.32,0-.64,0-1a42,42,0,0,0-.92-8.61c-7.64-36.32-48.26-68.21-82.51-77.52l-.07.25Z" transform="translate(-35.37 40.35)"/><path class="cls-47" d="M210.62,278.7c34.94,9.5,75.92,42.18,83.61,79.13a43.93,43.93,0,0,1,.93,8.8c0,.3,0,.59,0,.89a50.87,50.87,0,0,1-1,7.92c-6.87,37.1-42.87,59.92-78.4,72l.08.24c35.56-12.11,71.67-35,78.57-72.22a49.91,49.91,0,0,0,1-8c0-.29,0-.59,0-.89a43.64,43.64,0,0,0-.94-8.85c-7.74-37.1-48.77-69.8-83.79-79.33l-.07.25Z" transform="translate(-35.37 40.35)"/><path class="cls-48" d="M214.47,276.45c35.71,9.73,77.1,43.23,84.89,80.95a44.82,44.82,0,0,1,.94,9v.83a51.69,51.69,0,0,1-1,8.08c-6.84,37.92-43.28,61.28-79.59,73.66l.08.25c36.35-12.39,72.89-35.79,79.77-73.86a50.87,50.87,0,0,0,1-8.12c0-.28,0-.56,0-.84a45.25,45.25,0,0,0-.95-9.08c-7.84-37.87-49.28-71.39-85.07-81.15l-.07.25Z" transform="translate(-35.37 40.35)"/><path class="cls-49" d="M218.32,274.21c36.47,10,78.28,44.26,86.17,82.76a46.29,46.29,0,0,1,1,9.26c0,.26,0,.52,0,.78a52.64,52.64,0,0,1-.95,8.24c-6.81,38.73-43.68,62.64-80.79,75.3l.08.24c37.15-12.67,74.12-36.61,81-75.5a52.6,52.6,0,0,0,.95-8.28c0-.26,0-.52,0-.78a46.8,46.8,0,0,0-1-9.31c-7.93-38.64-49.79-73-86.35-83l-.07.25Z" transform="translate(-35.37 40.35)"/><path class="cls-50" d="M222.17,272c37.24,10.17,79.46,45.3,87.45,84.57a48,48,0,0,1,1,9.5c0,.24,0,.47,0,.71a54.4,54.4,0,0,1-.94,8.4c-6.79,39.55-44.08,64-82,76.94l.08.24c37.94-12.94,75.33-37.43,82.16-77.14a55.76,55.76,0,0,0,.94-8.43c0-.24,0-.48,0-.72a48.46,48.46,0,0,0-1-9.55c-8-39.42-50.3-74.57-87.63-84.77l-.07.25Z" transform="translate(-35.37 40.35)"/><path class="cls-51" d="M226,269.73c38,10.39,80.64,46.33,88.73,86.38a49.7,49.7,0,0,1,1,9.75v.64a55.09,55.09,0,0,1-.93,8.55c-6.76,40.37-44.48,65.37-83.18,78.58l.08.25c38.74-13.23,76.56-38.26,83.36-78.78a56.85,56.85,0,0,0,.93-8.6v-.64a49.46,49.46,0,0,0-1-9.8c-8.13-40.19-50.81-76.16-88.92-86.58l-.06.25Z" transform="translate(-35.37 40.35)"/><path class="cls-52" d="M229.87,267.48c38.78,10.62,81.82,47.38,90,88.2a51.46,51.46,0,0,1,1,10v.57A58.58,58.58,0,0,1,320,375c-6.73,41.18-44.88,66.73-84.38,80.22l.09.24c39.53-13.5,77.78-39.09,84.55-80.42a58.84,58.84,0,0,0,.92-8.75v-.58a51.13,51.13,0,0,0-1-10c-8.23-41-51.32-77.75-90.2-88.4l-.06.25Z" transform="translate(-35.37 40.35)"/><path class="cls-53" d="M233.72,265.24c39.55,10.84,83,48.41,91.28,90a52.28,52.28,0,0,1,1,10.22V366a60.59,60.59,0,0,1-.91,8.87c-6.7,42-45.29,68.09-85.57,81.86l.08.25c40.32-13.78,79-39.92,85.75-82.07a60.85,60.85,0,0,0,.91-8.91v-.52a52.78,52.78,0,0,0-1-10.27c-8.33-41.74-51.83-79.34-91.47-90.21l-.07.25Z" transform="translate(-35.37 40.35)"/><path class="cls-54" d="M237.57,263c40.32,11.06,84.18,49.45,92.56,91.82a54.14,54.14,0,0,1,1.06,10.47c0,.15,0,.3,0,.44a61.65,61.65,0,0,1-.88,9c-6.69,42.81-45.7,69.45-86.78,83.49l.09.25c41.11-14.06,80.23-40.74,86.94-83.7a60.46,60.46,0,0,0,.89-9.07c0-.15,0-.3,0-.45a54.57,54.57,0,0,0-1.06-10.52c-8.42-42.51-52.34-80.93-92.76-92l-.06.25Z" transform="translate(-35.37 40.35)"/><path class="cls-55" d="M241.42,260.76c41.09,11.28,85.36,50.48,93.84,93.63a55.83,55.83,0,0,1,1.07,10.72v.37a63.56,63.56,0,0,1-.87,9.19c-6.66,43.62-46.1,70.81-88,85.14l.08.24c41.91-14.33,81.46-41.57,88.14-85.34a62.6,62.6,0,0,0,.88-9.23v-.37a56.42,56.42,0,0,0-1.07-10.77c-8.52-43.29-52.85-82.52-94-93.83l-.06.25Z" transform="translate(-35.37 40.35)"/><path class="cls-56" d="M245.27,258.51C287.13,270,331.81,310,340.39,354a57.63,57.63,0,0,1,1.09,11v.3a65.64,65.64,0,0,1-.86,9.34c-6.63,44.44-46.5,72.18-89.17,86.78l.09.25c42.7-14.62,82.68-42.4,89.33-87a66.07,66.07,0,0,0,.87-9.38v-.3a58.14,58.14,0,0,0-1.09-11c-8.62-44.06-53.36-84.11-95.32-95.65l-.06.25Z" transform="translate(-35.37 40.35)"/><path class="cls-57" d="M249.11,256.27c42.64,11.73,87.74,52.56,96.41,97.26a59.52,59.52,0,0,1,1.11,11.22V365a68,68,0,0,1-.85,9.51c-6.6,45.25-46.91,73.54-90.36,88.41l.08.25c43.5-14.89,83.91-43.22,90.53-88.62a67,67,0,0,0,.86-9.55v-.22a60,60,0,0,0-1.11-11.27c-8.72-44.83-53.87-85.7-96.6-97.46l-.07.25Z" transform="translate(-35.37 40.35)"/><path class="cls-58" d="M253,254c43.4,12,88.91,53.59,97.68,99.07a60.61,60.61,0,0,1,1.13,11.48v.14a70.19,70.19,0,0,1-.84,9.66c-6.57,46.07-47.31,74.9-91.56,90.06l.09.24c44.29-15.16,85.13-44.05,91.73-90.26a70.64,70.64,0,0,0,.84-9.7v-.14a62,62,0,0,0-1.13-11.53c-8.82-45.61-54.38-87.29-97.88-99.27L253,254Z" transform="translate(-35.37 40.35)"/><path class="cls-59" d="M256.81,251.79c44.17,12.17,90.1,54.63,99,100.88a62.5,62.5,0,0,1,1.15,11.73v.06h0a72.68,72.68,0,0,1-.83,9.83c-6.54,46.87-47.71,76.26-92.75,91.69l.08.25c45.09-15.45,86.36-44.88,92.93-91.91a72.85,72.85,0,0,0,.83-9.86h0v-.06A63.87,63.87,0,0,0,356,352.62c-8.91-46.38-54.89-88.88-99.16-101.09l-.06.26Z" transform="translate(-35.37 40.35)"/><path class="cls-60" d="M260.66,249.54c44.94,12.4,91.28,55.67,100.25,102.7a64.11,64.11,0,0,1,1.16,12v0a73,73,0,0,1-.81,10c-6.51,47.69-48.11,77.62-93.95,93.33l.09.25c45.87-15.72,87.58-45.7,94.12-93.54a73.31,73.31,0,0,0,.81-10v0a64.72,64.72,0,0,0-1.16-12c-9-47.16-55.4-90.47-100.44-102.9l-.07.25Z" transform="translate(-35.37 40.35)"/><path class="cls-61" d="M264.51,247.3C310.22,259.92,357,304,366,351.81A66.91,66.91,0,0,1,367.22,364v.1a76.09,76.09,0,0,1-.8,10.05c-6.48,48.5-48.51,79-95.15,95l.09.24c46.67-16,88.81-46.53,95.32-95.18a76.27,76.27,0,0,0,.8-10.08V364a66.5,66.5,0,0,0-1.19-12.19c-9.1-47.93-55.9-92.06-101.71-104.71l-.07.25Z" transform="translate(-35.37 40.35)"/><path class="cls-62" d="M268.36,245.06C314.84,257.9,362,302.8,371.17,351.38a68,68,0,0,1,1.2,12.32v.16a77.32,77.32,0,0,1-.79,10.14c-6.45,49.32-48.92,80.35-96.34,96.61l.08.25c47.47-16.28,90-47.36,96.52-96.83a77.51,77.51,0,0,0,.79-10.17v-.16a67.59,67.59,0,0,0-1.21-12.37c-9.19-48.7-56.41-93.65-103-106.52l-.07.25Z" transform="translate(-35.37 40.35)"/><path class="cls-63" d="M272.21,242.82C319.46,255.88,367,301.6,376.3,351a70.83,70.83,0,0,1,1.22,12.49v.24a80.19,80.19,0,0,1-.78,10.22c-6.42,50.13-49.32,81.71-97.54,98.25l.09.25c48.26-16.55,91.27-48.19,97.71-98.46a80.82,80.82,0,0,0,.78-10.26v-.24a70.38,70.38,0,0,0-1.23-12.54c-9.29-49.48-56.92-95.24-104.27-108.34l-.07.26Z" transform="translate(-35.37 40.35)"/><path class="cls-64" d="M276.06,240.57c48,13.29,96,59.82,105.37,110a72.79,72.79,0,0,1,1.24,12.67v.32a81.73,81.73,0,0,1-.77,10.3c-6.39,50.94-49.72,83.07-98.73,99.89l.08.25c49.06-16.84,92.5-49,98.91-100.11a82.07,82.07,0,0,0,.77-10.33v-.32a72.41,72.41,0,0,0-1.25-12.72c-9.39-50.25-57.43-96.83-105.55-110.15l-.07.25Z" transform="translate(-35.37 40.35)"/><path class="cls-65" d="M279.91,238.33c48.79,13.51,97.19,60.86,106.64,111.76a72.91,72.91,0,0,1,1.26,12.84v.4a85,85,0,0,1-.75,10.38c-6.36,51.75-50.12,84.43-99.93,101.53l.09.25c49.85-17.11,93.72-49.85,100.1-101.75a85.15,85.15,0,0,0,.76-10.41c0-.13,0-.27,0-.4a73.27,73.27,0,0,0-1.26-12.88c-9.48-51-57.94-98.43-106.83-112l-.07.25Z" transform="translate(-35.37 40.35)"/><path class="cls-66" d="M283.76,236.09c49.56,13.73,98.38,61.89,107.92,113.57a74.88,74.88,0,0,1,1.28,13v.48a86.26,86.26,0,0,1-.74,10.46c-6.33,52.56-50.52,85.79-101.12,103.16l.08.25c50.64-17.39,94.95-50.67,101.3-103.38a86.61,86.61,0,0,0,.75-10.49c0-.16,0-.32,0-.48a75.24,75.24,0,0,0-1.28-13.06c-9.58-51.81-58.45-100-108.11-113.78l-.07.25Z" transform="translate(-35.37 40.35)"/><path class="cls-67" d="M287.61,233.85c50.33,14,99.56,62.93,109.2,115.38a77,77,0,0,1,1.3,13.19V363a89.51,89.51,0,0,1-.73,10.53c-6.29,53.38-50.93,87.15-102.32,104.81l.09.25c51.43-17.67,96.17-51.51,102.49-105a89.72,89.72,0,0,0,.73-10.56v-.57a77.31,77.31,0,0,0-1.3-13.23c-9.68-52.58-59-101.61-109.39-115.6l-.07.26Z" transform="translate(-35.37 40.35)"/><path class="cls-68" d="M291.46,231.6c51.1,14.18,100.74,64,110.48,117.2a79.06,79.06,0,0,1,1.32,13.37v.66a92.94,92.94,0,0,1-.71,10.6c-6.27,54.18-51.34,88.51-103.52,106.44l.08.25c52.23-17.94,97.41-52.33,103.7-106.66a93.31,93.31,0,0,0,.71-10.63v-.66a79.43,79.43,0,0,0-1.32-13.41c-9.77-53.36-59.47-103.2-110.67-117.41l-.07.25Z" transform="translate(-35.37 40.35)"/><path class="cls-69" d="M295.31,229.36c51.87,14.39,101.92,65,111.76,119a82.16,82.16,0,0,1,1.34,13.54v.76a96.37,96.37,0,0,1-.7,10.66c-6.24,55-51.74,89.88-104.72,108.09l.09.24c53-18.22,98.63-53.16,104.89-108.3a96.75,96.75,0,0,0,.7-10.69v-.76a82.53,82.53,0,0,0-1.34-13.58c-9.87-54.13-60-104.79-111.95-119.22l-.07.25Z" transform="translate(-35.37 40.35)"/><path class="cls-70" d="M299.16,227.12c52.64,14.61,103.11,66.05,113,120.82a83.24,83.24,0,0,1,1.35,13.72c0,.28,0,.56,0,.85a97.46,97.46,0,0,1-.69,10.72C406.66,429,360.73,464.47,307,483l.08.25c53.82-18.5,99.86-54,106.09-109.95a97.84,97.84,0,0,0,.69-10.75v-.85a83.52,83.52,0,0,0-1.36-13.76c-10-54.9-60.49-106.38-113.23-121l-.07.25Z" transform="translate(-35.37 40.35)"/><path class="cls-71" d="M303,224.88C356.42,239.71,407.3,292,417.33,347.51a85.43,85.43,0,0,1,1.37,13.89c0,.32,0,.63,0,1a101.46,101.46,0,0,1-.68,10.79c-6.18,56.62-52.54,92.6-107.11,111.36l.09.25C365.62,466,412.09,429.93,418.29,373.17a99.29,99.29,0,0,0,.68-10.82v-1a86.84,86.84,0,0,0-1.38-13.93c-10.06-55.68-61-108-114.51-122.85l-.07.26Z" transform="translate(-35.37 40.35)"/><path class="cls-72" d="M306.86,222.63c54.17,15.06,105.47,68.13,115.6,124.45a87.54,87.54,0,0,1,1.39,14.07c0,.35,0,.69,0,1a102.43,102.43,0,0,1-.67,10.85c-6.15,57.43-52.95,94-108.31,113l.09.24c55.41-19.05,102.32-55.64,108.48-113.22a102.83,102.83,0,0,0,.67-10.88c0-.35,0-.7,0-1A87.81,87.81,0,0,0,422.72,347c-10.16-56.45-61.51-109.56-115.79-124.66l-.07.25Z" transform="translate(-35.37 40.35)"/><path class="cls-73" d="M310.71,220.39c54.94,15.28,106.66,69.16,116.88,126.26A89.68,89.68,0,0,1,429,360.89c0,.39,0,.77,0,1.15a103.73,103.73,0,0,1-.66,10.91c-6.11,58.24-53.35,95.32-109.5,114.64l.09.25C375.13,468.51,422.48,431.36,428.61,373a104,104,0,0,0,.66-10.93c0-.38,0-.77,0-1.15a88.9,88.9,0,0,0-1.41-14.28c-10.25-57.23-62-111.15-117.07-126.47l-.07.25Z" transform="translate(-35.37 40.35)"/><path class="cls-74" d="M314.56,218.15c55.71,15.5,107.84,70.2,118.16,128.07a93.17,93.17,0,0,1,1.43,14.42c0,.42,0,.83,0,1.25a107.48,107.48,0,0,1-.65,11c-6.08,59-53.75,96.68-110.7,116.28l.09.25c57-19.61,104.77-57.31,110.87-116.5a107.9,107.9,0,0,0,.65-11c0-.42,0-.84,0-1.25A92.34,92.34,0,0,0,433,346.18c-10.35-58-62.53-112.74-118.35-128.28l-.07.25Z" transform="translate(-35.37 40.35)"/><path class="cls-75" d="M318.41,215.91c56.48,15.72,109,71.23,119.44,129.88a92.92,92.92,0,0,1,1.44,14.6c0,.45,0,.9,0,1.35a108.3,108.3,0,0,1-.64,11c-6.05,59.87-54.15,98.05-111.89,117.93l.08.25c57.79-19.89,106-58.14,112.07-118.15a108.89,108.89,0,0,0,.64-11c0-.45,0-.91,0-1.36a94.53,94.53,0,0,0-1.45-14.63c-10.45-58.77-63-114.33-119.63-130.1l-.07.26Z" transform="translate(-35.37 40.35)"/><path class="cls-76" d="M322.26,213.66c57.25,16,110.21,72.28,120.72,131.7a96.46,96.46,0,0,1,1.46,14.77c0,.49,0,1,0,1.48,0,3.72-.27,7.4-.63,11.05-6,60.67-54.55,99.41-113.09,119.56l.09.25c58.58-20.17,107.23-59,113.26-119.79.36-3.65.63-7.33.63-11.07,0-.5,0-1,0-1.48a96.87,96.87,0,0,0-1.47-14.81C432.7,285.77,379.69,229.4,322.33,213.41l-.07.25Z" transform="translate(-35.37 40.35)"/><path class="cls-77" d="M326.11,211.42c58,16.17,111.39,73.31,122,133.51a98.83,98.83,0,0,1,1.48,14.95c0,.53,0,1.05,0,1.58,0,3.74-.26,7.44-.62,11.1-6,61.49-55,100.77-114.28,121.2l.08.25c59.38-20.44,108.46-59.79,114.46-121.42.36-3.67.62-7.37.62-11.13,0-.53,0-1.06,0-1.59a99.22,99.22,0,0,0-1.48-15c-10.64-60.32-64.06-117.51-122.19-133.72l-.07.25Z" transform="translate(-35.37 40.35)"/><path class="cls-78" d="M330,209.18c58.79,16.39,112.58,74.35,123.28,135.32a101.09,101.09,0,0,1,1.5,15.12c0,.57,0,1.14,0,1.7,0,3.76-.26,7.47-.61,11.15-5.95,62.29-55.36,102.13-115.48,122.84l.09.25c60.17-20.72,109.69-60.63,115.66-123.07.35-3.68.6-7.4.6-11.17,0-.57,0-1.13,0-1.7a100.18,100.18,0,0,0-1.5-15.16c-10.73-61.1-64.57-119.1-123.47-135.54l-.07.26Z" transform="translate(-35.37 40.35)"/><path class="cls-79" d="M333.81,206.94c59.56,16.61,113.76,75.38,124.55,137.13a102.21,102.21,0,0,1,1.53,15.3c0,.6,0,1.21,0,1.82,0,3.77-.25,7.49-.6,11.18-5.92,63.11-55.76,103.49-116.67,124.48l.08.25c61-21,110.92-61.46,116.86-124.71.34-3.69.59-7.42.59-11.2,0-.61,0-1.22,0-1.83A102.47,102.47,0,0,0,458.62,344c-10.82-61.87-65.07-120.69-124.74-137.35l-.07.26Z" transform="translate(-35.37 40.35)"/><path class="cls-80" d="M337.66,204.69c60.33,16.84,114.94,76.43,125.83,139A103.28,103.28,0,0,1,465,359.11q0,1,0,1.95c0,3.78-.25,7.51-.59,11.21-5.89,63.92-56.16,104.86-117.87,126.12l.09.25c61.75-21.27,112.14-62.28,118.05-126.34.34-3.71.58-7.45.58-11.24,0-.65,0-1.3,0-1.95a104.89,104.89,0,0,0-1.55-15.51c-10.91-62.64-65.58-122.28-126-139.16l-.07.25Z" transform="translate(-35.37 40.35)"/><path class="cls-81" d="M341.51,202.45c61.1,17.06,116.13,77.46,127.11,140.76a106.78,106.78,0,0,1,1.56,15.65c0,.69,0,1.37,0,2.06,0,3.79-.24,7.54-.58,11.26-5.85,64.73-56.56,106.22-119.06,127.76l.08.25C413.2,478.63,464,437.07,469.9,372.2c.33-3.72.57-7.48.57-11.28,0-.69,0-1.38,0-2.07a105.85,105.85,0,0,0-1.57-15.68c-11-63.42-66.09-123.87-127.3-141l-.07.25Z" transform="translate(-35.37 40.35)"/><path class="cls-82" d="M345.36,200.21c61.87,17.28,117.31,78.5,128.39,142.58a109,109,0,0,1,1.58,15.81q0,1.09,0,2.19c0,3.8-.23,7.56-.56,11.29-5.83,65.54-57,107.58-120.27,129.4l.09.25c63.34-21.83,114.6-64,120.44-129.62.33-3.74.56-7.51.56-11.32,0-.73,0-1.46,0-2.19A109.68,109.68,0,0,0,474,342.74C462.9,278.55,407.41,217.28,345.43,200l-.07.26Z" transform="translate(-35.37 40.35)"/><path class="cls-83" d="M349.21,198c62.64,17.5,118.5,79.53,129.67,144.39a110.07,110.07,0,0,1,1.6,16q0,1.15,0,2.31c0,3.81-.23,7.59-.55,11.33-5.8,66.34-57.38,108.94-121.46,131l.08.25C422.72,481.17,474.41,438.5,480.22,372c.33-3.75.55-7.52.55-11.35,0-.77,0-1.54,0-2.32a110.75,110.75,0,0,0-1.6-16c-11.2-65-67.11-127-129.86-144.6l-.07.26Z" transform="translate(-35.37 40.35)"/><path class="cls-84" d="M353.06,195.72c63.41,17.73,119.68,80.58,131,146.21a113.87,113.87,0,0,1,1.62,16.16c0,.83,0,1.65,0,2.47,0,3.81-.22,7.59-.54,11.33-5.76,67.16-57.78,110.3-122.66,132.68l.09.25c64.93-22.39,117.06-65.61,122.83-132.91.32-3.75.54-7.53.54-11.35,0-.83,0-1.65,0-2.47a113.11,113.11,0,0,0-1.62-16.21C473,276.14,416.65,213.24,353.13,195.47l-.07.25Z" transform="translate(-35.37 40.35)"/><path class="cls-85" d="M356.91,193.48c64.18,18,120.86,81.61,132.23,148a116.42,116.42,0,0,1,1.64,16.34c0,.86,0,1.73,0,2.59,0,3.83-.22,7.61-.53,11.36-5.73,68-58.18,111.67-123.86,134.32l.09.25c65.72-22.66,118.29-66.44,124-134.54.32-3.76.53-7.55.53-11.39,0-.86,0-1.73,0-2.6a115.64,115.64,0,0,0-1.64-16.38C478,274.94,421.27,211.22,357,193.23l-.07.25Z" transform="translate(-35.37 40.35)"/><path class="cls-86" d="M360.76,191.24c64.95,18.17,122.05,82.65,133.51,149.83a117.48,117.48,0,0,1,1.65,16.51c0,.91,0,1.83,0,2.73,0,3.83-.21,7.63-.52,11.39-5.7,68.77-58.58,113-125,136l.09.26C437,485,490,440.64,495.7,371.72c.31-3.77.53-7.57.53-11.41,0-.91,0-1.82,0-2.73A118.2,118.2,0,0,0,494.53,341C483,273.73,425.89,209.2,360.83,191l-.07.26Z" transform="translate(-35.37 40.35)"/><path class="cls-87" d="M364.61,189c65.71,18.39,123.23,83.69,134.79,151.64a119.9,119.9,0,0,1,1.67,16.69c0,1,0,1.91,0,2.87,0,3.83-.21,7.63-.51,11.4-5.66,69.59-59,114.39-126.25,137.6l.09.25c67.31-23.22,120.75-68.1,126.42-137.83.31-3.77.52-7.58.52-11.42,0-1,0-1.92,0-2.88a120.65,120.65,0,0,0-1.68-16.73c-11.58-68.06-69.15-133.41-135-151.85l-.07.26Z" transform="translate(-35.37 40.35)"/><path class="cls-88" d="M368.46,186.75c66.48,18.62,124.42,84.73,136.07,153.46a122.52,122.52,0,0,1,1.69,16.86c0,1,0,2,0,3,0,3.84-.2,7.64-.5,11.41-5.63,70.39-59.39,115.75-127.44,139.23l.08.25c68.11-23.49,122-68.93,127.62-139.46.31-3.78.51-7.58.51-11.43,0-1,0-2,0-3a124.68,124.68,0,0,0-1.7-16.91c-11.68-68.83-69.66-135-136.26-153.66l-.07.25Z" transform="translate(-35.37 40.35)"/><path class="cls-89" d="M372.31,184.51c67.25,18.84,125.6,85.77,137.35,155.27a126.76,126.76,0,0,1,1.71,17c0,1.06,0,2.11,0,3.17,0,3.84-.19,7.64-.49,11.42-5.6,71.21-59.79,117.11-128.64,140.88l.09.25c68.9-23.78,123.21-69.76,128.82-141.11.29-3.78.49-7.59.49-11.44,0-1.06,0-2.12-.05-3.18a124.15,124.15,0,0,0-1.71-17.08c-11.77-69.61-70.17-136.59-137.54-155.47l-.07.25Z" transform="translate(-35.37 40.35)"/><path class="cls-90" d="M376.16,182.27c68,19.06,126.79,86.8,138.63,157.08a129.14,129.14,0,0,1,1.73,17.21c0,1.11.05,2.22.05,3.32,0,3.84-.2,7.65-.49,11.43-5.56,72-60.19,118.48-129.83,142.52l.08.25c69.7-24.05,124.44-70.59,130-142.75.29-3.78.48-7.6.48-11.45,0-1.11,0-2.21-.05-3.32a128.23,128.23,0,0,0-1.73-17.26C503.18,268.92,444.37,201.12,376.23,182l-.07.26Z" transform="translate(-35.37 40.35)"/><path class="cls-91" d="M380,180c68.79,19.28,128,87.84,139.9,158.89a128.55,128.55,0,0,1,1.75,17.39c0,1.16.06,2.31.06,3.47,0,3.84-.19,7.66-.48,11.44-5.53,72.82-60.59,119.83-131,144.15l.09.25C460.78,491.29,516,444.2,521.51,371.24c.28-3.79.47-7.61.47-11.46,0-1.16,0-2.32-.05-3.48a130.94,130.94,0,0,0-1.75-17.43c-12-71.16-71.19-139.77-140.1-159.1L380,180Z" transform="translate(-35.37 40.35)"/><path class="cls-92" d="M383.86,177.78C453.42,197.29,513,266.66,525,338.49a131.25,131.25,0,0,1,1.77,17.56q.06,1.83.06,3.63c0,3.85-.19,7.66-.47,11.44-5.49,73.64-61,121.2-132.22,145.8l.08.25c71.28-24.61,126.9-72.25,132.41-146,.28-3.79.47-7.6.47-11.46q0-1.81-.06-3.63a133.66,133.66,0,0,0-1.77-17.61c-12.06-71.93-71.7-141.36-141.38-160.91l-.07.25Z" transform="translate(-35.37 40.35)"/><path class="cls-93" d="M387.71,175.54C458,195.27,518.05,265.46,530.17,338.06A133.79,133.79,0,0,1,532,355.8q.06,1.89.06,3.78c0,3.85-.18,7.66-.46,11.45-5.46,74.44-61.4,122.55-133.42,147.43l.09.25c72.07-24.88,128.12-73.08,133.6-147.66.28-3.8.46-7.62.46-11.47,0-1.26,0-2.52-.06-3.79A136.26,136.26,0,0,0,530.44,338c-12.15-72.7-72.21-142.95-142.66-162.72l-.07.25Z" transform="translate(-35.37 40.35)"/><path class="cls-94" d="M391.56,173.3c71.1,19.95,131.52,90.95,143.74,164.33a136.54,136.54,0,0,1,1.81,17.91c0,1.32.06,2.63.06,3.94,0,3.85-.17,7.66-.45,11.45-5.43,75.25-61.8,123.92-134.61,149.07l.08.26C475.06,495.09,531.55,446.34,537,371c.27-3.79.45-7.61.45-11.47,0-1.31,0-2.63-.06-3.94a139,139,0,0,0-1.81-18C523.32,264.1,462.85,193,391.63,173l-.07.26Z" transform="translate(-35.37 40.35)"/><path class="cls-95" d="M395.41,171.06c71.87,20.17,132.71,92,145,166.14a141.07,141.07,0,0,1,1.83,18.09q.06,2.07.06,4.11c0,3.84-.17,7.65-.43,11.43-5.4,76.07-62.21,125.29-135.82,150.72l.09.25c73.66-25.44,130.58-74.75,136-150.95.27-3.78.44-7.6.44-11.45,0-1.37,0-2.74-.07-4.12a140.05,140.05,0,0,0-1.82-18.13C528.36,262.9,467.47,191,395.48,170.8l-.07.26Z" transform="translate(-35.37 40.35)"/><path class="cls-96" d="M399.25,168.81c72.65,20.4,133.9,93,146.31,168A140.15,140.15,0,0,1,547.4,355c.05,1.43.08,2.86.08,4.28,0,3.84-.17,7.65-.43,11.43-5.37,76.87-62.61,126.64-137,152.35l.09.25c74.46-25.72,131.82-75.57,137.19-152.58.27-3.79.43-7.6.43-11.45,0-1.42,0-2.85-.07-4.28a142.7,142.7,0,0,0-1.85-18.31c-12.43-75-73.73-147.73-146.49-168.16l-.08.25Z" transform="translate(-35.37 40.35)"/><path class="cls-97" d="M403.11,166.57c73.41,20.62,135.08,94.07,147.58,169.77a144.72,144.72,0,0,1,1.86,18.44c.05,1.48.08,3,.08,4.44,0,3.83-.16,7.64-.42,11.42-5.34,77.68-63,128-138.21,154l.09.26c75.24-26,133-76.41,138.38-154.23.26-3.78.43-7.6.43-11.44,0-1.48,0-3-.08-4.45A143.57,143.57,0,0,0,551,336.29c-12.52-75.8-74.24-149.32-147.77-170l-.07.26Z" transform="translate(-35.37 40.35)"/><path class="cls-98" d="M407,164.33c74.19,20.84,136.27,95.11,148.87,171.58a147.56,147.56,0,0,1,1.88,18.62c.06,1.53.08,3.07.08,4.6,0,3.83-.16,7.64-.41,11.42C552.07,449,494,499.91,418,526.18l.09.25c76-26.28,134.28-77.24,139.58-155.87.26-3.78.42-7.59.42-11.43,0-1.53,0-3.07-.08-4.61a146.2,146.2,0,0,0-1.89-18.66C543.46,259.29,481.33,185,407,164.07l-.07.26Z" transform="translate(-35.37 40.35)"/><path class="cls-99" d="M410.8,162.09c75,21.06,137.46,96.14,150.15,173.39a150.09,150.09,0,0,1,1.9,18.79c.06,1.6.08,3.2.08,4.79,0,3.83-.15,7.62-.4,11.39-5.27,79.3-63.82,130.73-140.6,157.27l.09.25c76.83-26.55,135.5-78.06,140.78-157.5.25-3.78.4-7.58.4-11.41,0-1.59,0-3.19-.08-4.8a150.93,150.93,0,0,0-1.91-18.83C548.5,258.08,486,182.93,410.88,161.83l-.08.26Z" transform="translate(-35.37 40.35)"/><path class="cls-100" d="M414.65,159.84C490.38,181.13,553.29,257,566.08,335.05A153,153,0,0,1,568,354c.06,1.65.09,3.31.09,5,0,3.82-.16,7.61-.4,11.37-5.23,80.11-64.22,132.1-141.8,158.91l.09.26c77.63-26.83,136.74-78.9,142-159.15.24-3.77.39-7.57.39-11.39,0-1.66,0-3.31-.09-5a151.9,151.9,0,0,0-1.92-19c-12.81-78.12-75.77-154.09-151.61-175.41l-.08.25Z" transform="translate(-35.37 40.35)"/><path class="cls-101" d="M418.5,157.6c76.5,21.51,139.83,98.22,152.71,177a155.93,155.93,0,0,1,1.94,19.14q.09,2.58.09,5.13c0,3.82-.15,7.61-.39,11.37-5.2,80.91-64.62,133.45-143,160.55l.09.25c78.42-27.11,138-79.73,143.17-160.79.24-3.76.39-7.55.39-11.38,0-1.7,0-3.42-.1-5.14a152.74,152.74,0,0,0-1.94-19.18c-12.9-78.9-76.28-155.68-152.89-177.23l-.08.26Z" transform="translate(-35.37 40.35)"/><path class="cls-102" d="M422.35,155.36c77.26,21.73,141,99.26,154,178.83a156.69,156.69,0,0,1,1.95,19.32c.07,1.77.1,3.55.1,5.31,0,3.81-.14,7.59-.38,11.34C572.85,451.89,513,505,433.82,532.35l.09.25c79.22-27.38,139.2-80.56,144.37-162.42.24-3.76.38-7.54.38-11.36,0-1.77,0-3.54-.1-5.32a157.55,157.55,0,0,0-2-19.36c-13-79.67-76.79-157.27-154.17-179l-.08.26Z" transform="translate(-35.37 40.35)"/><path class="cls-103" d="M426.2,153.12c78,21.95,142.2,100.29,155.26,180.64a159.69,159.69,0,0,1,2,19.49c.07,1.84.1,3.68.1,5.51,0,3.79-.14,7.56-.37,11.31C578,452.6,517.74,506.24,437.79,533.89l.09.26c80-27.67,140.42-81.4,145.56-164.07.23-3.75.37-7.52.37-11.32,0-1.84,0-3.67-.1-5.52a160.18,160.18,0,0,0-2-19.52c-13.09-80.45-77.3-158.87-155.45-180.86l-.08.26Z" transform="translate(-35.37 40.35)"/><path class="cls-104" d="M430.05,150.87c78.8,22.18,143.38,101.34,156.54,182.46a160.67,160.67,0,0,1,2,19.67c.07,1.9.11,3.79.11,5.68,0,3.79-.14,7.55-.37,11.29-5.1,83.34-65.83,137.54-146.58,165.47l.09.25c80.8-27.94,141.65-82.22,146.76-165.7.23-3.75.37-7.51.37-11.31,0-1.89,0-3.79-.11-5.69a165,165,0,0,0-2-19.7c-13.19-81.23-77.81-160.46-156.73-182.67l-.08.26Z" transform="translate(-35.37 40.35)"/><path class="cls-105" d="M433.9,148.63C513.47,171,578.46,251,591.72,332.9a165.49,165.49,0,0,1,2,19.84c.07,2,.11,3.92.11,5.87,0,3.78-.13,7.53-.36,11.26C588.43,454,527.26,508.77,445.72,537l.08.26c81.6-28.22,142.89-83.06,148-167.35.22-3.74.36-7.5.36-11.28,0-1.95,0-3.91-.11-5.88a166,166,0,0,0-2-19.87c-13.28-82-78.32-162-158-184.49l-.08.26Z" transform="translate(-35.37 40.35)"/><path class="cls-106" d="M437.75,146.39C518.09,169,583.5,249.8,596.85,332.47a168.51,168.51,0,0,1,2,20c.08,2,.11,4,.11,6.06,0,3.76-.13,7.51-.35,11.23-5,85-66.63,140.26-149,168.74l.09.26c82.39-28.5,144.11-83.89,149.15-169,.22-3.72.35-7.47.35-11.24,0-2,0-4-.12-6.07a166.7,166.7,0,0,0-2-20.05c-13.38-82.78-78.83-163.64-159.29-186.3l-.08.26Z" transform="translate(-35.37 40.35)"/><path class="cls-107" d="M441.6,144.15C522.71,167,588.53,248.6,602,332a169.47,169.47,0,0,1,2,20.19q.13,3.13.13,6.26c0,3.75-.13,7.48-.35,11.19-5,85.77-67,141.63-150.16,170.39l.08.25c83.19-28.77,145.35-84.72,150.35-170.62.22-3.72.35-7.45.35-11.21q0-3.12-.13-6.27a171.64,171.64,0,0,0-2-20.22c-13.47-83.55-79.34-165.23-160.57-188.11l-.08.26Z" transform="translate(-35.37 40.35)"/><path class="cls-108" d="M36.39,404.35h0a.9.9,0,0,0-.77,1,.91.91,0,0,0,1,.77h0a.9.9,0,0,0-.25-1.78Zm10.08-1.49h0a.9.9,0,0,0,.28,1.78h0a.9.9,0,1,0-.28-1.78Zm10-1.86h0a.9.9,0,0,0,.41,1.76h0a.91.91,0,0,0,.67-1.08.9.9,0,0,0-1.08-.68Zm.14-1.34h0a.9.9,0,1,0,.18-1.79h0a.9.9,0,0,0-.18,1.79Zm-10.12-.54h0a.9.9,0,1,0,0-1.8h0a.9.9,0,0,0,0,1.8ZM36.27,399h0a.89.89,0,0,0,.9-.89.9.9,0,0,0-.89-.91h0a.91.91,0,0,0-.91.9.9.9,0,0,0,.9.9Z" transform="translate(-35.37 40.35)"/><path class="cls-109" d="M51.44,407.27h0a.9.9,0,1,0,1,.73A.9.9,0,0,0,51.44,407.27Zm9.88-2.15h0a.9.9,0,0,0,.49,1.73h0a.91.91,0,0,0,.62-1.11.89.89,0,0,0-1.11-.62ZM69.85,401h0a.9.9,0,1,0,1.26-.19A.91.91,0,0,0,69.85,401Zm-5.09-4.87h0a.9.9,0,0,0,.42-1.75h0a.89.89,0,0,0-1.08.66.9.9,0,0,0,.66,1.09Zm-10-1.35h0a.91.91,0,0,0,1-.83.9.9,0,0,0-.83-1h0a.9.9,0,0,0-1,.83.91.91,0,0,0,.84,1Zm-10.15-.4h0a.9.9,0,0,0,0-1.8h0a.9.9,0,0,0,0,1.8Z" transform="translate(-35.37 40.35)"/><path class="cls-110" d="M57.24,411.65h0a.9.9,0,1,0,1,.73A.9.9,0,0,0,57.24,411.65Zm9.85-2.25h0a.9.9,0,0,0,.5,1.73h0a.9.9,0,0,0-.5-1.73Zm9.1-3.88h0a.89.89,0,0,0-.25,1.25.91.91,0,0,0,1.25.25h0a.91.91,0,0,0,.25-1.25.89.89,0,0,0-1.25-.25ZM80,398h0a.9.9,0,1,0,1.73-.49h0A.9.9,0,0,0,80,398Zm-7-5.57h0a.9.9,0,0,0,.58-1.71h0a.9.9,0,0,0-.58,1.71Zm-9.79-2h0a.9.9,0,0,0,1-.8.89.89,0,0,0-.79-1h0a.89.89,0,0,0-1,.79.91.91,0,0,0,.79,1Zm-10.1-.65h0a.9.9,0,0,0,0-1.8h0a.9.9,0,1,0,0,1.8Z" transform="translate(-35.37 40.35)"/><path class="cls-111" d="M63.41,416h0a.9.9,0,0,0,.31,1.77.9.9,0,1,0-.31-1.77Zm9.84-2.25h0a.9.9,0,0,0,.51,1.72h0a.9.9,0,1,0-.51-1.72Zm9.22-3.8h0a.9.9,0,0,0-.32,1.23.89.89,0,0,0,1.22.33.9.9,0,1,0-.9-1.56Zm6.73-6.68h0a.9.9,0,0,0,1.64.74.89.89,0,0,0-.45-1.19A.91.91,0,0,0,89.2,403.28Zm-.51-8.95h0a.9.9,0,0,0,1.54-.93h0a.89.89,0,0,0-1.23-.3.9.9,0,0,0-.31,1.23Zm-7.54-5.72h0a.92.92,0,0,0,1.18-.49.91.91,0,0,0-.49-1.18h0a.9.9,0,0,0-.69,1.67Zm-9.64-2.52h0a.89.89,0,0,0,1-.75.9.9,0,0,0-.75-1h0a.9.9,0,1,0-.27,1.78Zm-10.06-.89h0a.9.9,0,0,0,.06-1.8h0a.9.9,0,1,0-.06,1.8Z" transform="translate(-35.37 40.35)"/><path class="cls-112" d="M79.66,418.14h0a.9.9,0,0,0,.51,1.73h0a.9.9,0,1,0-.51-1.73Zm9.28-3.73h0A.9.9,0,0,0,89.8,416h0a.89.89,0,0,0,.36-1.21.91.91,0,0,0-1.22-.37Zm7.66-6.08h0a.89.89,0,0,0,.13,1.26.9.9,0,0,0,1.27-.14h0a.9.9,0,0,0-1.4-1.12Zm3.32-8.83h0a.9.9,0,0,0,1.8,0h0a.9.9,0,1,0-1.8,0Zm-2.85-9h0a.9.9,0,0,0,1.26.17.9.9,0,0,0,.17-1.26h0a.9.9,0,1,0-1.43,1.09Zm-7.71-5.84h0a.91.91,0,0,0,1.2-.44.9.9,0,0,0-.44-1.19h0a.89.89,0,0,0-1.19.43.9.9,0,0,0,.43,1.2Zm-9.51-3h0a.9.9,0,0,0,.34-1.77h0a.9.9,0,0,0-1,.72.89.89,0,0,0,.71,1.05Zm-10-1.13h0a.9.9,0,0,0,.09-1.8h0a.9.9,0,0,0-.09,1.8Z" transform="translate(-35.37 40.35)"/><path class="cls-113" d="M86.23,422.54h0a.9.9,0,1,0,.5,1.73h0a.9.9,0,0,0-.5-1.73Zm9.32-3.66h0a.91.91,0,0,0-.38,1.22.9.9,0,0,0,1.21.38h0a.9.9,0,0,0-.83-1.6Zm8.06-5.74h0a.91.91,0,0,0,0,1.28.9.9,0,0,0,1.27,0h0a.9.9,0,0,0-1.27-1.28Zm5.22-8.17h0a.89.89,0,0,0,.57,1.14.88.88,0,0,0,1.13-.57h0a.88.88,0,0,0-.56-1.13.9.9,0,0,0-1.14.56Zm.65-9.62h0a.9.9,0,0,0,1,.72.89.89,0,0,0,.72-1h0a.9.9,0,1,0-1.77.32Zm-4.14-8.67h0a.91.91,0,0,0,1.27.1.9.9,0,0,0,.1-1.27h0a.9.9,0,1,0-1.37,1.17Zm-7.77-6h0a.9.9,0,0,0,.82-1.6h0a.9.9,0,0,0-.82,1.6Zm-9.38-3.33h0a.9.9,0,0,0,.4-1.76h0a.9.9,0,0,0-.4,1.76Zm-10-1.37h0a.9.9,0,0,0,.1-1.8h0a.9.9,0,1,0-.1,1.8Z" transform="translate(-35.37 40.35)"/><path class="cls-114" d="M92.93,426.94h0a.9.9,0,0,0-.63,1.11.89.89,0,0,0,1.11.62h0a.88.88,0,0,0,.62-1.1.9.9,0,0,0-1.1-.63Zm9.35-3.57h0a.9.9,0,0,0,.81,1.6h0a.9.9,0,1,0-.81-1.6Zm8.29-5.52h0a.9.9,0,0,0-.08,1.27.89.89,0,0,0,1.27.08h0a.89.89,0,0,0,.08-1.26.9.9,0,0,0-1.27-.09Zm6.2-7.63h0a.91.91,0,0,0,.36,1.22.89.89,0,0,0,1.22-.36h0a.9.9,0,0,0-1.58-.86Zm2.81-9.34h0a.9.9,0,0,0,1.79.15h0a.9.9,0,1,0-1.79-.15Zm-1.08-9.72h0a.89.89,0,1,0,1.7-.56h0a.9.9,0,0,0-1.14-.57.89.89,0,0,0-.57,1.13Zm-4.93-8.41h0a.9.9,0,0,0,1.34-1.21h0a.9.9,0,0,0-1.34,1.21Zm-7.78-6.06h0a.9.9,0,1,0-.36-1.22A.9.9,0,0,0,105.79,376.69ZM96.52,373h0a.9.9,0,1,0-.64-1.1A.9.9,0,0,0,96.52,373Zm-9.89-1.6h0a.91.91,0,0,0,1-.84.9.9,0,0,0-.84-1h0a.9.9,0,1,0-.12,1.8Z" transform="translate(-35.37 40.35)"/><path class="cls-115" d="M99.71,431.33h0a.91.91,0,0,0-.65,1.1.9.9,0,0,0,1.1.64.88.88,0,0,0,.64-1.09A.9.9,0,0,0,99.71,431.33Zm9.39-3.47h0a.9.9,0,0,0,.79,1.62h0a.9.9,0,1,0-.79-1.61Zm8.43-5.34h0a.9.9,0,1,0,1.27.13A.91.91,0,0,0,117.53,422.52Zm6.78-7.24h0a.9.9,0,0,0,1.48,1h0a.9.9,0,1,0-1.48-1Zm4.2-8.91h0a.89.89,0,0,0,.62,1.1.9.9,0,0,0,1.11-.63h0a.9.9,0,0,0-1.73-.47Zm1-9.81h0a.9.9,0,0,0,1,.84.89.89,0,0,0,.84-1,.9.9,0,1,0-1.79.12ZM127.21,387h0a.9.9,0,1,0,1.65-.71h0a.9.9,0,1,0-1.65.71Zm-5.42-8.21h0a.9.9,0,1,0,0-1.28A.91.91,0,0,0,121.79,378.77ZM114,372.62h0a.9.9,0,0,0,.91-1.55h0a.9.9,0,0,0-.91,1.55Zm-9.16-3.95h0a.9.9,0,0,0,1.12-.6.89.89,0,0,0-.6-1.12h0a.89.89,0,0,0-1.12.6.91.91,0,0,0,.6,1.12ZM95,366.83h0a.9.9,0,1,0,.15-1.79h0a.9.9,0,0,0-.14,1.79Z" transform="translate(-35.37 40.35)"/><path class="cls-116" d="M106.56,435.7h0a.9.9,0,0,0,.42,1.75h0a.9.9,0,1,0-.42-1.75Zm9.44-3.33h0a.9.9,0,0,0-.43,1.2.9.9,0,0,0,1.63-.77A.91.91,0,0,0,116,432.37Zm8.54-5.21h0a.9.9,0,1,0,1.26.17A.9.9,0,0,0,124.54,427.16Zm7.14-7h0a.9.9,0,1,0,1.26-.14A.89.89,0,0,0,131.68,420.21Zm5.09-8.52h0a.9.9,0,1,0,1.66.7h0a.9.9,0,1,0-1.66-.7Zm2.46-9.59h0a.9.9,0,1,0,1.78.19h0a.89.89,0,0,0-.8-1,.9.9,0,0,0-1,.8Zm-.35-9.92h0a.9.9,0,1,0,.73-1A.9.9,0,0,0,138.88,392.18Zm-3.13-9.38h0a.9.9,0,1,0,1.6-.82h0a.89.89,0,0,0-1.21-.39.9.9,0,0,0-.39,1.21ZM130,374.74h0a.9.9,0,0,0,1.27,0,.91.91,0,0,0,0-1.28h0a.89.89,0,0,0-1.27,0,.9.9,0,0,0,0,1.27Zm-7.76-6.23h0a.9.9,0,0,0,1.24-.3.9.9,0,0,0-1.53-.94A.9.9,0,0,0,122.23,368.51Zm-9-4.21h0a.9.9,0,1,0,.57-1.7h0a.9.9,0,1,0-.57,1.7Zm-9.77-2.06h0a.9.9,0,1,0,.17-1.79h0a.9.9,0,1,0-.16,1.79Z" transform="translate(-35.37 40.35)"/><path class="cls-117" d="M123,436.88h0a.9.9,0,1,0,.76,1.63h0a.9.9,0,1,0-.76-1.63Zm8.62-5.09h0a.9.9,0,1,0,1.07,1.45h0a.9.9,0,0,0-1.06-1.45Zm7.4-6.73h0a.9.9,0,0,0,1.34,1.19h0a.9.9,0,1,0-1.34-1.19Zm5.7-8.18h0a.9.9,0,0,0,1.59.84h0a.9.9,0,1,0-1.59-.84Zm3.53-9.3h0a.9.9,0,0,0,.67,1.08A.89.89,0,0,0,150,408h0a.9.9,0,1,0-1.75-.41Zm1.08-9.9h0a.9.9,0,1,0,1.8,0h0a.89.89,0,0,0-.91-.89.92.92,0,0,0-.89.91ZM148,387.81h0a.9.9,0,0,0,1.74-.46h0a.9.9,0,1,0-1.74.46Zm-3.77-9.19h0a.9.9,0,1,0,1.56-.9h0a.9.9,0,0,0-1.23-.33.91.91,0,0,0-.34,1.23Zm-6-7.95h0a.89.89,0,0,0,1.27,0,.9.9,0,1,0-1.26-1.29A.9.9,0,0,0,138.2,370.67Zm-7.74-6.3h0a.9.9,0,1,0,1-1.51h0a.9.9,0,1,0-1,1.51Zm-9-4.44h0a.9.9,0,1,0-.54-1.15A.9.9,0,0,0,121.51,359.93Zm-9.7-2.28h0a.9.9,0,0,0,1-.8.89.89,0,0,0-.8-1h0a.9.9,0,1,0-.18,1.79Z" transform="translate(-35.37 40.35)"/><path class="cls-118" d="M130,441.39h0a.9.9,0,0,0,.73,1.65h0a.9.9,0,1,0-.73-1.65Zm8.69-5h0a.89.89,0,0,0-.21,1.25.9.9,0,0,0,1.25.21h0a.9.9,0,0,0-1-1.46Zm7.58-6.57h0a.9.9,0,1,0,1.3,1.24h0a.9.9,0,0,0-1.3-1.24Zm6.13-7.9h0a.9.9,0,1,0,1.24-.29A.91.91,0,0,0,152.36,422Zm4.32-9h0a.9.9,0,1,0,1.69.59.9.9,0,1,0-1.69-.59Zm2.2-9.73h0a.89.89,0,0,0,.79,1,.9.9,0,0,0,1-.79h0a.9.9,0,1,0-1.79-.2Zm0-10h0a.91.91,0,0,0,1,.81.9.9,0,0,0,.8-1h0a.9.9,0,0,0-1-.8.88.88,0,0,0-.8,1Zm-2.09-9.75h0a.9.9,0,0,0,1.7-.58h0a.9.9,0,1,0-1.7.58Zm-4.25-9h0a.9.9,0,0,0,1.24.29.89.89,0,0,0,.29-1.23h0a.9.9,0,1,0-1.53.94Zm-6.17-7.85h0a.9.9,0,0,0,1.28-1.26h0a.9.9,0,0,0-1.28,1.26Zm-7.71-6.38h0a.9.9,0,1,0-.25-1.24A.88.88,0,0,0,138.69,360.2Zm-8.86-4.64h0a.91.91,0,0,0,1.17-.51.9.9,0,0,0-.51-1.16h0a.9.9,0,0,0-1.17.5.91.91,0,0,0,.51,1.17Zm-9.63-2.5h0a.9.9,0,0,0,.21-1.79h0a.9.9,0,1,0-.21,1.79Z" transform="translate(-35.37 40.35)"/><path class="cls-119" d="M137,445.9h0a.9.9,0,0,0,.7,1.66h0a.9.9,0,1,0-.7-1.66Zm8.75-4.86h0a.9.9,0,0,0,1,1.48h0a.9.9,0,1,0-1-1.48Zm7.72-6.42h0a.9.9,0,0,0,1.27,1.27h0a.9.9,0,1,0-1.27-1.27Zm6.45-7.69h0a.9.9,0,0,0,1.48,1h0a.9.9,0,0,0-.23-1.25.89.89,0,0,0-1.25.22Zm4.89-8.74h0a.91.91,0,0,0,.47,1.19.9.9,0,1,0-.47-1.19Zm3.08-9.52h0a.9.9,0,0,0,.69,1.07.89.89,0,0,0,1.07-.69h0A.9.9,0,0,0,169,408a.91.91,0,0,0-1.07.69Zm1.13-9.94h0a.9.9,0,0,0,1.8,0h0a.91.91,0,0,0-.89-.92.9.9,0,0,0-.91.89Zm-.79-10h0a.9.9,0,0,0,1.77-.31h0a.9.9,0,1,0-1.77.31Zm-2.72-9.63h0A.9.9,0,1,0,166,378,.9.9,0,0,0,165.52,379.11Zm-4.62-8.87h0a.9.9,0,0,0,1.51-1h0a.91.91,0,0,0-1.25-.26.9.9,0,0,0-.26,1.25Zm-6.3-7.79h0a.9.9,0,1,0,1.28-1.26h0a.9.9,0,1,0-1.28,1.26ZM146.92,356h0a.9.9,0,0,0,1-1.49h0a.9.9,0,0,0-1,1.49Zm-8.77-4.84h0a.9.9,0,0,0,.7-1.66h0a.9.9,0,1,0-.7,1.66Zm-9.56-2.72h0a.9.9,0,1,0,.23-1.78h0a.9.9,0,1,0-.23,1.78Z" transform="translate(-35.37 40.35)"/><path class="cls-120" d="M144.1,450.4h0a.9.9,0,1,0,1.17.5A.9.9,0,0,0,144.1,450.4Zm8.81-4.74h0a.9.9,0,1,0,1,1.49.91.91,0,0,0,.25-1.25A.9.9,0,0,0,152.91,445.66Zm7.83-6.3h0a.9.9,0,0,0,1.24,1.3h0a.9.9,0,1,0-1.24-1.3Zm6.69-7.51h0a.9.9,0,1,0,1.43,1.09h0a.9.9,0,1,0-1.43-1.09Zm5.33-8.5h0a.91.91,0,0,0,.39,1.21.9.9,0,0,0,1.21-.39h0a.9.9,0,1,0-1.6-.82Zm3.76-9.3h0a.91.91,0,0,0,.6,1.12.89.89,0,0,0,1.12-.6h0a.9.9,0,0,0-1.72-.52Zm2-9.82h0a.9.9,0,0,0,1.79.2h0a.9.9,0,0,0-1.79-.2Zm.26-10h0a.9.9,0,0,0,1.8-.11h0a.9.9,0,1,0-1.8.11Zm-1.46-9.93h0a.9.9,0,0,0,1.08.67.91.91,0,0,0,.67-1.09h0a.9.9,0,0,0-1.09-.66.89.89,0,0,0-.66,1.08Zm-3.23-9.49h0a.9.9,0,1,0,1.65-.73h0a.9.9,0,0,0-1.65.73ZM169.2,366h0a.9.9,0,0,0,1.49-1h0a.9.9,0,0,0-1.49,1Zm-6.39-7.73h0a.9.9,0,0,0,1.27-1.27h0a.9.9,0,0,0-1.27,0,.91.91,0,0,0,0,1.28Zm-7.66-6.51h0a.9.9,0,1,0-.21-1.25A.9.9,0,0,0,155.15,351.8Zm-8.68-5h0a.9.9,0,1,0,.74-1.64h0a.9.9,0,0,0-.74,1.64ZM137,343.87h0a.9.9,0,1,0,.26-1.78h0a.9.9,0,1,0-.26,1.78Z" transform="translate(-35.37 40.35)"/><path class="cls-121" d="M151.22,454.88h0a.9.9,0,0,0,.62,1.69h0a.9.9,0,0,0-.62-1.69Zm8.86-4.6h0a.9.9,0,0,0,1,1.5h0a.9.9,0,1,0-1-1.5Zm7.93-6.2h0a.9.9,0,0,0,1.21,1.33h0a.9.9,0,1,0-1.21-1.33Zm6.87-7.35h0A.91.91,0,0,0,175,438a.91.91,0,0,0,1.27-.14h0a.91.91,0,0,0-.14-1.27.9.9,0,0,0-1.27.14Zm5.68-8.3h0a.89.89,0,0,0,.33,1.22.9.9,0,0,0,1.23-.33h0a.9.9,0,1,0-1.56-.89Zm4.29-9.09h0a.9.9,0,1,0,1.16-.53A.91.91,0,0,0,184.85,419.34Zm2.76-9.66h0a.9.9,0,1,0,1.76.35h0a.9.9,0,1,0-1.76-.35Zm1.13-10h0a.9.9,0,1,0,1.8.06h0a.9.9,0,0,0-1.8-.06Zm-.45-10.05h0a.9.9,0,1,0,1.79-.22.9.9,0,0,0-1.79.22Zm-2-9.83h0a.9.9,0,1,0,1.73-.51h0a.9.9,0,0,0-1.73.51Zm-3.63-9.36h0a.9.9,0,0,0,1.61-.79h0a.9.9,0,1,0-1.61.79Zm-5.14-8.63h0a.9.9,0,1,0,1.46-1.05h0a.9.9,0,1,0-1.46,1.05Zm-6.48-7.7h0a.9.9,0,1,0,0-1.27A.89.89,0,0,0,171,354.13Zm-7.62-6.55h0a.9.9,0,0,0,1.06-1.46h0a.9.9,0,0,0-1.06,1.46Zm-8.6-5.17h0a.9.9,0,0,0,.77-1.62h0a.89.89,0,0,0-1.2.42.9.9,0,0,0,.43,1.2Zm-9.42-3.13h0a.9.9,0,0,0,1-.74.91.91,0,0,0-.74-1h0a.9.9,0,1,0-.29,1.78Z" transform="translate(-35.37 40.35)"/><path class="cls-122" d="M158.36,459.33h0a.9.9,0,0,0,.57,1.71h0a.9.9,0,0,0-.57-1.71Zm8.93-4.43h0a.9.9,0,1,0,1,1.51.9.9,0,0,0-1-1.51Zm8-6.1h0a.9.9,0,1,0,1.19,1.34h0a.9.9,0,1,0-1.19-1.34Zm7-7.23h0a.9.9,0,1,0,1.38,1.16h0a.89.89,0,0,0-.11-1.26.9.9,0,0,0-1.27.1Zm5.95-8.13h0a.9.9,0,0,0,1.52,1h0a.9.9,0,1,0-1.52-1Zm4.72-8.89h0a.9.9,0,0,0,1.65.72h0a.9.9,0,0,0-1.65-.72Zm3.35-9.49h0a.9.9,0,1,0,1.74.47h0a.89.89,0,0,0-.63-1.1.9.9,0,0,0-1.11.63Zm1.89-9.88h0a.9.9,0,1,0,1.78.21h0a.9.9,0,0,0-.79-1,.89.89,0,0,0-1,.79Zm.39-10.05h0a.92.92,0,0,0,.93.87.9.9,0,0,0,.87-.93h0a.89.89,0,0,0-.93-.87.9.9,0,0,0-.87.93Zm-1-10h0a.9.9,0,0,0,1.77-.32h0a.9.9,0,1,0-1.77.32Zm-2.52-9.74h0a.9.9,0,1,0,1.7-.58h0a.9.9,0,0,0-1.7.58Zm-4-9.24h0a.9.9,0,1,0,1.59-.83h0a.9.9,0,0,0-1.59.83Zm-5.33-8.54h0a.91.91,0,0,0,1.26.2.9.9,0,0,0,.19-1.26h0a.88.88,0,0,0-1.25-.19.9.9,0,0,0-.2,1.25Zm-6.53-7.66h0a.89.89,0,0,0,1.27,0,.91.91,0,0,0,0-1.27h0a.91.91,0,0,0-1.28,0,.9.9,0,0,0,0,1.27Zm-7.59-6.61h0a.88.88,0,0,0,1.25-.18.9.9,0,0,0-.18-1.26h0a.9.9,0,1,0-1.08,1.44ZM163.1,338h0a.9.9,0,1,0,.81-1.61h0a.9.9,0,0,0-.81,1.61Zm-9.35-3.34h0a.9.9,0,1,0,.32-1.77h0a.9.9,0,0,0-1,.73.89.89,0,0,0,.72,1Z" transform="translate(-35.37 40.35)"/><path class="cls-123" d="M174.52,459.52h0a.9.9,0,1,0,.95,1.53h0a.9.9,0,0,0-.95-1.53Zm8.06-6h0a.91.91,0,0,0-.09,1.27.9.9,0,0,0,1.36-1.18A.91.91,0,0,0,182.58,453.5Zm7.15-7.11h0a.91.91,0,0,0,.08,1.27.9.9,0,0,0,1.27-.08h0a.9.9,0,0,0-1.35-1.19Zm6.17-8h0a.9.9,0,0,0,.24,1.25.91.91,0,0,0,1.25-.25h0a.9.9,0,1,0-1.49-1Zm5.06-8.72h0a.9.9,0,0,0,1.62.8h0a.9.9,0,0,0-1.62-.8Zm3.84-9.31h0a.9.9,0,0,0,1.71.56h0a.9.9,0,0,0-1.71-.56Zm2.52-9.76h0a.9.9,0,0,0,.72,1.05.89.89,0,0,0,1-.72h0a.9.9,0,0,0-.72-1.05.89.89,0,0,0-1,.72Zm1.13-10h0a.9.9,0,0,0,1.8.08h0a.9.9,0,1,0-1.8-.08Zm-.22-10.08h0a.9.9,0,1,0,1.79-.16h0a.9.9,0,1,0-1.79.16Zm-1.56-10h0a.9.9,0,1,0,.67-1.08A.91.91,0,0,0,206.67,380.59ZM203.74,371h0a.9.9,0,1,0,1.68-.64h0a.9.9,0,0,0-1.68.64Zm-4.25-9.12h0a.9.9,0,1,0,1.57-.88h0a.9.9,0,0,0-1.22-.35.91.91,0,0,0-.35,1.23ZM194,353.37h0a.9.9,0,0,0,1.44-1.08h0a.9.9,0,0,0-1.44,1.08Zm-6.58-7.63h0a.9.9,0,0,0,1.27-1.27h0a.9.9,0,1,0-1.28,1.27Zm-7.57-6.67h0a.9.9,0,0,0,1.09-1.43h0a.9.9,0,1,0-1.09,1.43Zm-8.45-5.45h0a.89.89,0,0,0,1.22-.37.91.91,0,0,0-.38-1.22h0a.9.9,0,0,0-.84,1.59Zm-9.27-3.53h0a.9.9,0,0,0,1.06-.71.89.89,0,0,0-.71-1.05h0a.89.89,0,0,0-1.05.7.9.9,0,0,0,.7,1.06Z" transform="translate(-35.37 40.35)"/><path class="cls-124" d="M181.77,464.14h0a.9.9,0,1,0,1.23.3A.9.9,0,0,0,181.77,464.14Zm8.13-5.93h0a.9.9,0,1,0,1.16,1.37.9.9,0,0,0-1.16-1.37Zm7.25-7h0a.89.89,0,0,0,.06,1.27.9.9,0,0,0,1.27-.06h0a.9.9,0,0,0-1.33-1.21Zm6.34-7.86h0a.9.9,0,1,0,1.47,1.05h0a.9.9,0,1,0-1.47-1.05Zm5.35-8.56h0a.9.9,0,0,0,1.58.86h0a.9.9,0,0,0-1.58-.86Zm4.24-9.15h0a.9.9,0,1,0,1.17-.51A.9.9,0,0,0,213.08,425.62Zm3-9.61h0a.9.9,0,0,0,1.75.43h0a.9.9,0,1,0-1.75-.43Zm1.78-9.93h0a.9.9,0,1,0,1.78.2h0a.9.9,0,1,0-1.78-.2Zm.49-10.07h0a.9.9,0,1,0,1.8,0h0a.9.9,0,0,0-1.8,0ZM217.64,386h0a.9.9,0,0,0,1.78-.24h0a.9.9,0,1,0-1.78.24Zm-2-9.87h0a.9.9,0,1,0,.63-1.11A.9.9,0,0,0,215.63,376.08Zm-3.28-9.54h0a.9.9,0,1,0,.48-1.17A.89.89,0,0,0,212.35,366.54Zm-4.49-9h0a.9.9,0,0,0,1.56-.9h0a.9.9,0,1,0-1.56.9Zm-5.6-8.38h0a.9.9,0,1,0,1.42-1.09h0a.9.9,0,1,0-1.42,1.09Zm-6.62-7.62h0a.89.89,0,0,0,1.27,0,.9.9,0,1,0-1.27-1.28A.9.9,0,0,0,195.64,341.51Zm-7.54-6.71h0a.92.92,0,0,0,1.27-.16.9.9,0,0,0-1.42-1.1A.89.89,0,0,0,188.1,334.8Zm-8.37-5.58h0a.9.9,0,1,0,.87-1.57h0a.91.91,0,0,0-1.23.35.9.9,0,0,0,.35,1.22Zm-9.2-3.72h0a.91.91,0,0,0,1.07-.69.9.9,0,0,0-.69-1.07h0a.9.9,0,0,0-1.07.69.91.91,0,0,0,.69,1.07Z" transform="translate(-35.37 40.35)"/><path class="cls-125" d="M189,468.76h0a.9.9,0,1,0,1.23.32A.9.9,0,0,0,189,468.76Zm8.18-5.85h0a.9.9,0,1,0,1.16,1.38h0a.9.9,0,1,0-1.16-1.38Zm7.34-6.94h0a.9.9,0,0,0,0,1.27.89.89,0,0,0,1.27,0h0a.9.9,0,1,0-1.31-1.23Zm6.5-7.74h0a.9.9,0,0,0,.18,1.26.91.91,0,0,0,1.26-.19h0a.91.91,0,0,0-.19-1.26.9.9,0,0,0-1.25.19Zm5.58-8.43h0a.9.9,0,0,0,1.55.91h0a.9.9,0,0,0-1.55-.91Zm4.57-9h0a.91.91,0,0,0,.47,1.19.89.89,0,0,0,1.18-.47h0a.9.9,0,0,0-1.65-.72Zm3.49-9.47h0a.9.9,0,0,0,1.72.52h0a.89.89,0,0,0-.6-1.12.91.91,0,0,0-1.12.6Zm2.33-9.82h0a.9.9,0,0,0,1.77.31.91.91,0,0,0-.74-1A.89.89,0,0,0,227,411.51Zm1.12-10h0a.91.91,0,0,0,.85.94.9.9,0,0,0,.95-.85h0a.9.9,0,1,0-1.8-.09Zm-.05-10.1h0a.89.89,0,0,0,1,.84.9.9,0,0,0,.84-1h0a.9.9,0,1,0-1.79.11Zm-1.22-10h0a.9.9,0,1,0,.72-1A.88.88,0,0,0,226.88,381.37Zm-2.41-9.8h0a.9.9,0,1,0,1.72-.53h0a.9.9,0,0,0-1.72.53Zm-3.57-9.43h0a.9.9,0,0,0,1.64-.74h0a.9.9,0,1,0-1.64.74Zm-4.69-8.94h0a.91.91,0,0,0,1.24.3.89.89,0,0,0,.3-1.23h0a.9.9,0,0,0-1.23-.31.91.91,0,0,0-.31,1.24Zm-5.71-8.33h0a.89.89,0,0,0,1.26.16.9.9,0,1,0-1.1-1.42A.89.89,0,0,0,210.5,344.87Zm-6.65-7.6h0a.89.89,0,0,0,1.27,0,.9.9,0,0,0,0-1.27h0a.9.9,0,1,0-1.28,1.26Zm-7.51-6.76h0a.9.9,0,1,0-.14-1.26A.89.89,0,0,0,196.34,330.51ZM188,324.82h0a.9.9,0,1,0,.9-1.56h0a.9.9,0,0,0-.9,1.56Zm-9.11-3.92h0a.89.89,0,0,0,1.08-.67.9.9,0,0,0-.67-1.08h0a.9.9,0,0,0-1.08.67.89.89,0,0,0,.67,1.08Z" transform="translate(-35.37 40.35)"/><path class="cls-126" d="M196.33,473.38h0a.9.9,0,1,0,.89,1.56.9.9,0,1,0-.89-1.56Zm8.24-5.77h0a.9.9,0,1,0,1.14,1.39h0a.9.9,0,0,0-1.14-1.39Zm7.41-6.86h0a.9.9,0,1,0,1.3,1.24h0a.9.9,0,0,0-1.3-1.24Zm6.62-7.65h0a.9.9,0,0,0,.16,1.26.9.9,0,0,0,1.26-.16h0a.9.9,0,0,0-.16-1.26.89.89,0,0,0-1.26.16Zm5.77-8.3h0a.9.9,0,0,0,1.53.94h0a.9.9,0,0,0-1.53-.94Zm4.87-8.87h0a.9.9,0,0,0,1.62.78h0a.9.9,0,1,0-1.62-.78Zm3.86-9.33h0a.9.9,0,1,0,1.7.59h0a.9.9,0,0,0-.55-1.14.9.9,0,0,0-1.15.55Zm2.8-9.7h0a.9.9,0,0,0,1.75.4h0a.9.9,0,1,0-1.75-.4Zm1.68-10h0a.9.9,0,1,0,1-.79A.9.9,0,0,0,237.58,406.94Zm.56-10.08h0a.9.9,0,1,0,1.8,0h0a.9.9,0,1,0-1.8,0Zm-.53-10.09h0a.89.89,0,0,0,1,.79.9.9,0,0,0,.8-1h0a.9.9,0,0,0-1-.79.89.89,0,0,0-.8,1Zm-1.64-10h0a.9.9,0,0,0,1.76-.39h0a.9.9,0,0,0-1.76.39Zm-2.74-9.71h0a.9.9,0,1,0,.56-1.15A.9.9,0,0,0,233.23,367.09Zm-3.83-9.35h0a.9.9,0,0,0,1.2.43A.91.91,0,0,0,231,357a.9.9,0,0,0-1.2-.43A.89.89,0,0,0,229.4,357.74Zm-4.86-8.86h0a.9.9,0,0,0,1.53-.95h0a.9.9,0,0,0-1.53.95Zm-5.81-8.27h0a.9.9,0,0,0,1.42-1.11h0a.9.9,0,0,0-1.42,1.11ZM212.06,333h0a.9.9,0,1,0,1.28-1.26h0a.9.9,0,0,0-1.28,1.26Zm-7.47-6.8h0a.9.9,0,0,0,1.13-1.4.9.9,0,1,0-1.13,1.4Zm-8.25-5.81h0a.9.9,0,1,0,.93-1.54h0a.9.9,0,1,0-.93,1.54Zm-9-4.1h0a.9.9,0,1,0,.45-1.75h0a.9.9,0,0,0-.45,1.75Z" transform="translate(-35.37 40.35)"/><path class="cls-127" d="M203.64,478h0a.9.9,0,0,0,.86,1.58h0a.89.89,0,0,0,.36-1.22.91.91,0,0,0-1.22-.36Zm8.29-5.67h0a.88.88,0,0,0-.13,1.26.89.89,0,0,0,1.26.14.9.9,0,1,0-1.13-1.4Zm7.48-6.8h0a.9.9,0,0,0,1.28,1.26h0a.9.9,0,1,0-1.28-1.26Zm6.72-7.57h0a.9.9,0,0,0,.14,1.27.89.89,0,0,0,1.26-.14h0a.9.9,0,0,0-1.4-1.13Zm5.94-8.19h0a.9.9,0,1,0,1.51,1,.9.9,0,0,0-.26-1.24A.91.91,0,0,0,232.07,449.75Zm5.1-8.74h0a.9.9,0,1,0,1.6.83h0a.9.9,0,0,0-1.6-.83Zm4.19-9.2h0a.9.9,0,1,0,1.16-.51A.9.9,0,0,0,241.36,431.81Zm3.2-9.58h0a.9.9,0,0,0,.63,1.1.91.91,0,0,0,1.11-.63h0a.9.9,0,0,0-1.74-.48Zm2.18-9.87h0a.9.9,0,0,0,1.77.29h0a.9.9,0,1,0-1.77-.29Zm1.11-10.05h0a.89.89,0,0,0,.85.95.9.9,0,0,0,1-.84h0a.9.9,0,0,0-1.8-.11Zm.07-10.1h0a.9.9,0,1,0,1.79-.08h0a.9.9,0,1,0-1.79.08Zm-1-10.06h0a.89.89,0,0,0,1,.75.9.9,0,0,0,.76-1h0a.9.9,0,0,0-1-.75.89.89,0,0,0-.75,1Zm-2-9.91h0a.91.91,0,0,0,1.1.65.9.9,0,0,0,.64-1.1h0a.88.88,0,0,0-1.09-.64.9.9,0,0,0-.65,1.09Zm-3-9.63h0a.9.9,0,0,0,1.68-.63h0a.9.9,0,1,0-1.68.63Zm-4.06-9.26h0a.9.9,0,1,0,1.61-.81h0a.9.9,0,1,0-1.61.81Zm-5-8.78h0a.9.9,0,1,0,1.51-1h0a.9.9,0,1,0-1.51,1ZM227,336.34h0a.9.9,0,0,0,1.27.14.89.89,0,0,0,.14-1.26h0a.89.89,0,0,0-1.26-.14.9.9,0,0,0-.15,1.26Zm-6.69-7.59h0a.9.9,0,1,0,0-1.27A.89.89,0,0,0,220.27,328.75Zm-7.44-6.84h0a.9.9,0,1,0-.13-1.27A.9.9,0,0,0,212.83,321.91ZM204.65,316h0a.9.9,0,0,0,.95-1.53h0a.9.9,0,1,0-.95,1.53Zm-9-4.29h0a.91.91,0,0,0,1.11-.63.9.9,0,0,0-.63-1.1h0a.89.89,0,0,0-1.11.62.9.9,0,0,0,.63,1.11Z" transform="translate(-35.37 40.35)"/><path class="cls-128" d="M211,482.57h0a.9.9,0,1,0,.81,1.61h0a.9.9,0,0,0-.81-1.61Zm8.34-5.56h0a.9.9,0,1,0,1.12,1.41h0a.9.9,0,0,0-1.12-1.41Zm7.53-6.74h0a.9.9,0,0,0,1.27,1.27h0a.9.9,0,1,0-1.27-1.27Zm6.81-7.49h0a.9.9,0,0,0,1.39,1.14h0a.9.9,0,0,0-1.39-1.14Zm6.09-8.1h0a.9.9,0,1,0,1.48,1h0a.9.9,0,1,0-1.48-1Zm5.3-8.62h0a.9.9,0,0,0,1.57.87.9.9,0,1,0-1.57-.87ZM249.5,437h0a.9.9,0,1,0,1.65.71h0a.9.9,0,0,0-1.65-.71Zm3.56-9.47h0a.9.9,0,0,0,1.71.55h0a.89.89,0,0,0-.58-1.13.9.9,0,0,0-1.13.58Zm2.6-9.77h0a.9.9,0,0,0,.69,1.06.89.89,0,0,0,1.07-.69.9.9,0,0,0-1.76-.37Zm1.61-10h0a.9.9,0,0,0,1.79.19h0a.9.9,0,1,0-1.79-.19Zm.61-10.1h0a.9.9,0,0,0,1.8,0h0a.9.9,0,0,0-1.8,0Zm-.37-10.11h0a.9.9,0,0,0,1.79-.15h0a.9.9,0,1,0-1.79.15Zm-1.34-10h0a.9.9,0,0,0,1.77-.32h0a.9.9,0,0,0-1.05-.72.89.89,0,0,0-.72,1Zm-2.33-9.83h0a.9.9,0,1,0,.61-1.12A.89.89,0,0,0,253.84,367.7Zm-3.31-9.56h0a.9.9,0,1,0,1.66-.67h0A.9.9,0,0,0,251,357a.89.89,0,0,0-.49,1.17ZM246.28,349h0a.9.9,0,1,0,.38-1.21A.9.9,0,0,0,246.28,349Zm-5.14-8.71h0a.9.9,0,1,0,.26-1.25A.91.91,0,0,0,241.14,340.25Zm-5.95-8.19h0a.9.9,0,0,0,1.27.14.91.91,0,0,0,.14-1.27h0a.9.9,0,0,0-1.41,1.13Zm-6.7-7.58h0a.9.9,0,0,0,1.28-1.26h0a.9.9,0,1,0-1.28,1.26Zm-7.42-6.89h0a.9.9,0,1,0,1.15-1.38h0a.89.89,0,0,0-1.26.11.9.9,0,0,0,.11,1.27Zm-8.11-6h0a.9.9,0,1,0,1-1.51.9.9,0,1,0-1,1.51Zm-8.89-4.47h0a.9.9,0,1,0,.52-1.72h0a.9.9,0,0,0-.52,1.72Z" transform="translate(-35.37 40.35)"/><path class="cls-129" d="M218.31,487.13h0a.9.9,0,1,0,.74,1.64h0a.9.9,0,0,0-.74-1.64Zm8.39-5.42h0a.91.91,0,0,0-.15,1.27.89.89,0,0,0,1.26.15h0a.89.89,0,0,0,.15-1.26.9.9,0,0,0-1.26-.16Zm7.58-6.69h0a.9.9,0,0,0,1.26,1.28h0a.9.9,0,1,0-1.26-1.28Zm6.89-7.43h0a.9.9,0,0,0,1.38,1.17h0a.9.9,0,0,0-1.38-1.17Zm6.21-8h0a.9.9,0,1,0,1.25-.21A.89.89,0,0,0,247.38,459.58Zm5.48-8.52h0a.9.9,0,0,0,1.55.91h0a.9.9,0,1,0-1.55-.91Zm4.7-9h0a.89.89,0,0,0,.43,1.19.9.9,0,0,0,1.2-.43h0a.91.91,0,0,0-.44-1.2.9.9,0,0,0-1.19.44Zm3.86-9.36h0a.9.9,0,0,0,.54,1.15.89.89,0,0,0,1.15-.54h0a.9.9,0,0,0-1.69-.61Zm3-9.67h0a.91.91,0,0,0,.65,1.1.9.9,0,0,0,1.09-.65h0a.91.91,0,0,0-.65-1.1.9.9,0,0,0-1.09.65Zm2.05-9.91h0a.89.89,0,0,0,.75,1,.88.88,0,0,0,1-.74h0a.88.88,0,0,0-.74-1,.9.9,0,0,0-1,.74Zm1.1-10.05h0a.9.9,0,0,0,1.8.11h0a.9.9,0,0,0-1.8-.11Zm.16-10.12h0a.9.9,0,1,0,1.8-.05.9.9,0,0,0-1.8.05ZM267,382.9h0a.9.9,0,0,0,1.79-.21h0a.9.9,0,1,0-1.79.21Zm-1.69-10h0a.9.9,0,1,0,1.76-.38h0a.9.9,0,0,0-1.76.38Zm-2.63-9.77h0a.9.9,0,0,0,1.72-.55h0a.9.9,0,0,0-1.72.55Zm-3.54-9.47h0a.91.91,0,0,0,1.18.47.89.89,0,0,0,.47-1.18h0a.9.9,0,0,0-1.18-.48.92.92,0,0,0-.47,1.19Zm-4.42-9.11h0a.9.9,0,1,0,1.58-.86h0a.9.9,0,0,0-1.58.86Zm-5.24-8.66h0a.9.9,0,1,0,.24-1.25A.91.91,0,0,0,249.43,335.92Zm-6-8.15h0a.9.9,0,0,0,1.4-1.13h0a.9.9,0,1,0-1.4,1.13Zm-6.72-7.58h0a.91.91,0,0,0,1.27,0,.9.9,0,1,0-1.27,0Zm-7.39-6.93h0a.9.9,0,0,0,1.17-1.37.9.9,0,0,0-1.17,1.37Zm-8.05-6.1h0a.9.9,0,1,0,1-1.5h0a.9.9,0,0,0-1,1.5Zm-8.8-4.64h0a.9.9,0,1,0,.55-1.71h0a.89.89,0,0,0-1.13.57.9.9,0,0,0,.58,1.14Z" transform="translate(-35.37 40.35)"/><path class="cls-130" d="M234.11,486.42h0a.9.9,0,0,0-.16,1.26.89.89,0,0,0,1.26.16h0a.89.89,0,0,0,.16-1.26.9.9,0,0,0-1.26-.16Zm7.62-6.65h0a.9.9,0,1,0,1.26,1.29h0a.9.9,0,1,0-1.26-1.29Zm7-7.37h0a.91.91,0,0,0,.09,1.27.9.9,0,1,0,1.18-1.36.91.91,0,0,0-1.27.09Zm6.31-7.93h0a.9.9,0,0,0,.2,1.25.88.88,0,0,0,1.25-.19h0a.9.9,0,0,0-.19-1.26.91.91,0,0,0-1.26.2Zm5.63-8.43h0a.9.9,0,1,0,1.54.94h0a.9.9,0,0,0-1.54-.94Zm4.91-8.86h0a.9.9,0,0,0,1.61.8h0a.9.9,0,0,0-1.61-.8Zm4.13-9.25h0a.91.91,0,0,0,.51,1.17.89.89,0,0,0,1.16-.51h0a.88.88,0,0,0-.5-1.16.9.9,0,0,0-1.17.5Zm3.31-9.57h0a.9.9,0,1,0,1.72.51h0a.89.89,0,0,0-.6-1.11.9.9,0,0,0-1.12.6Zm2.44-9.82h0a.9.9,0,1,0,1.76.35h0a.88.88,0,0,0-.7-1.05.89.89,0,0,0-1.06.7Zm1.55-10h0a.9.9,0,1,0,1-.8A.89.89,0,0,0,277,408.54Zm.64-10.1h0a.9.9,0,1,0,.92-.88A.9.9,0,0,0,277.61,398.44Zm-.24-10.12h0a.9.9,0,0,0,1.8-.12.91.91,0,0,0-1-.84A.9.9,0,0,0,277.37,388.32Zm-1.11-10.06h0A.9.9,0,1,0,278,378h0a.89.89,0,0,0-1-.75.9.9,0,0,0-.75,1Zm-2-9.92h0a.9.9,0,1,0,.66-1.09A.9.9,0,0,0,274.25,368.34Zm-2.89-9.7h0a.9.9,0,0,0,1.15.55.88.88,0,0,0,.55-1.14.9.9,0,0,0-1.14-.56A.91.91,0,0,0,271.36,358.64Zm-3.75-9.4h0a.91.91,0,0,0,1.19.45.9.9,0,0,0-.74-1.64A.9.9,0,0,0,267.61,349.24Zm-4.57-9h0a.9.9,0,0,0,1.57-.88.9.9,0,0,0-1.57.88Zm-5.34-8.61h0a.9.9,0,1,0,1.49-1h0a.9.9,0,0,0-1.49,1Zm-6.06-8.12h0a.9.9,0,0,0,1.27.13.89.89,0,0,0,.13-1.26h0a.9.9,0,0,0-1.4,1.13Zm-6.72-7.58h0a.9.9,0,1,0,0-1.27A.89.89,0,0,0,244.92,315.89Zm-7.36-7h0a.9.9,0,0,0,1.27-.1.89.89,0,0,0-.1-1.26.88.88,0,0,0-1.26.09A.89.89,0,0,0,237.56,308.93Zm-8-6.19h0a.9.9,0,0,0,1-1.49h0a.9.9,0,0,0-1,1.49Zm-8.72-4.82h0a.9.9,0,0,0,.6-1.7h0a.9.9,0,0,0-.6,1.7Z" transform="translate(-35.37 40.35)"/><path class="cls-131" d="M241.54,491.13h0a.9.9,0,1,0,1.26.16A.89.89,0,0,0,241.54,491.13Zm7.66-6.61h0a.9.9,0,0,0,1.24,1.3h0a.9.9,0,1,0-1.24-1.3Zm7-7.32h0a.91.91,0,0,0,.08,1.27.9.9,0,1,0-.08-1.27Zm6.4-7.87h0a.9.9,0,1,0,1.26-.18A.91.91,0,0,0,262.61,469.33Zm5.77-8.34h0a.89.89,0,1,0,1.51,1h0a.89.89,0,1,0-1.51-1Zm5.08-8.77h0a.91.91,0,0,0,.38,1.22.9.9,0,0,0,1.21-.38h0a.88.88,0,0,0-.37-1.21.91.91,0,0,0-1.22.37Zm4.37-9.14h0a.9.9,0,0,0,1.66.71h0a.9.9,0,0,0-1.66-.71Zm3.6-9.47h0a.9.9,0,1,0,1.71.57h0a.9.9,0,0,0-1.71-.57Zm2.79-9.74h0a.9.9,0,1,0,1.75.43h0a.91.91,0,0,0-.67-1.09.89.89,0,0,0-1.08.67Zm1.94-9.93h0a.9.9,0,0,0,.76,1,.89.89,0,0,0,1-.75.9.9,0,1,0-1.78-.27Zm1.09-10.07h0a.9.9,0,0,0,.84,1,.91.91,0,0,0,1-.84h0a.9.9,0,0,0-1.8-.12Zm.24-10.12h0a.88.88,0,0,0,.91.88.89.89,0,0,0,.88-.91h0a.89.89,0,0,0-.91-.88.88.88,0,0,0-.88.91Zm-.6-10.11h0a.89.89,0,0,0,1.78-.18h0a.89.89,0,1,0-1.78.18Zm-1.45-10h0a.91.91,0,0,0,1.05.72.9.9,0,1,0-1.05-.72Zm-2.28-9.86h0a.9.9,0,0,0,1.73-.49h0a.91.91,0,0,0-1.11-.62.89.89,0,0,0-.62,1.11ZM280,354.12h0a.9.9,0,1,0,.53-1.15A.9.9,0,0,0,280,354.12Zm-3.93-9.33h0a.9.9,0,1,0,1.63-.77h0a.9.9,0,0,0-1.63.77Zm-4.71-9h0a.9.9,0,0,0,1.56-.9h0a.9.9,0,1,0-1.55.9ZM266,327.26h0a.9.9,0,0,0,1.48-1h0a.9.9,0,1,0-1.48,1Zm-6.1-8.1h0a.89.89,0,0,0,1.26.13.9.9,0,0,0,.13-1.27h0a.9.9,0,1,0-1.39,1.13Zm-6.73-7.58h0a.9.9,0,1,0,1.29-1.25h0a.91.91,0,0,0-1.27,0,.89.89,0,0,0,0,1.27Zm-7.34-7h0a.9.9,0,1,0,1.19-1.35h0a.9.9,0,0,0-1.19,1.35Zm-7.94-6.27h0a.91.91,0,0,0,1.26-.22.9.9,0,0,0-1.47-1A.91.91,0,0,0,237.86,298.31Zm-8.64-5h0a.9.9,0,0,0,.64-1.68h0a.9.9,0,1,0-.64,1.68Z" transform="translate(-35.37 40.35)"/><path class="cls-132" d="M249,495.83h0a.9.9,0,0,0,1.08,1.44h0a.9.9,0,0,0,.18-1.26.91.91,0,0,0-1.26-.18Zm7.69-6.56h0a.9.9,0,0,0,1.24,1.3h0a.9.9,0,1,0-1.24-1.3Zm7.07-7.28h0a.9.9,0,1,0,1.34,1.2h0a.9.9,0,0,0-1.34-1.2Zm6.48-7.8h0a.9.9,0,1,0,1.26-.17A.9.9,0,0,0,270.22,474.19Zm5.88-8.27h0a.89.89,0,0,0,.25,1.24.9.9,0,0,0,1.25-.25h0a.9.9,0,0,0-.26-1.25.89.89,0,0,0-1.24.26Zm5.24-8.68h0a.9.9,0,0,0,1.58.87h0a.9.9,0,0,0-1.58-.87Zm4.58-9.05h0a.9.9,0,1,0,1.63.75h0a.9.9,0,0,0-1.63-.75Zm3.85-9.37h0a.9.9,0,1,0,1.15-.54A.9.9,0,0,0,289.77,438.82Zm3.1-9.65h0a.9.9,0,1,0,1.73.48h0a.91.91,0,0,0-.63-1.11.9.9,0,0,0-1.1.63Zm2.3-9.86h0a.9.9,0,1,0,1.77.33h0a.9.9,0,0,0-1.77-.33Zm1.49-10h0a.9.9,0,0,0,1.79.19h0a.9.9,0,0,0-.8-1,.91.91,0,0,0-1,.8Zm.68-10.11h0a.9.9,0,1,0,1.79.05h0a.9.9,0,0,0-1.79-.05Zm-.14-10.13h0A.9.9,0,0,0,299,389h0a.9.9,0,0,0-1.8.09ZM296.27,379h0a.9.9,0,0,0,1.78-.24h0a.9.9,0,1,0-1.78.24Zm-1.74-10h0a.91.91,0,0,0,1.07.69.9.9,0,0,0,.69-1.07h0a.9.9,0,0,0-1.07-.69.91.91,0,0,0-.69,1.07Zm-2.54-9.8h0a.9.9,0,0,0,1.72-.53h0a.9.9,0,1,0-1.72.53Zm-3.34-9.57h0a.9.9,0,1,0,1.68-.66h0a.9.9,0,1,0-1.68.66Zm-4.1-9.27h0a.9.9,0,0,0,1.62-.79h0a.9.9,0,0,0-1.62.79Zm-4.82-8.91h0a.89.89,0,0,0,1.23.31.9.9,0,0,0,.32-1.23h0a.9.9,0,0,0-1.55.92Zm-5.5-8.52h0a.9.9,0,1,0,1.47-1,.9.9,0,0,0-1.47,1Zm-6.14-8.07h0a.9.9,0,0,0,1.39-1.14h0a.9.9,0,1,0-1.39,1.14Zm-6.74-7.58h0a.91.91,0,0,0,1.28,0,.9.9,0,0,0,0-1.27h0a.9.9,0,0,0-1.27,0,.91.91,0,0,0,0,1.28Zm-7.3-7h0a.9.9,0,1,0,1.19-1.34h0a.9.9,0,1,0-1.19,1.34Zm-7.89-6.35h0a.9.9,0,0,0,1.06-1.46h0a.9.9,0,0,0-1.06,1.46Zm-8.56-5.16h0a.9.9,0,1,0,.68-1.66h0a.9.9,0,1,0-.68,1.66Z" transform="translate(-35.37 40.35)"/><path class="cls-133" d="M256.43,500.55h0a.9.9,0,0,0,1.08,1.44h0a.9.9,0,0,0-1.08-1.44Zm7.73-6.53h0a.9.9,0,0,0,1.23,1.31h0a.9.9,0,1,0-1.23-1.31Zm7.11-7.24h0a.89.89,0,0,0,.06,1.27.9.9,0,0,0,1.27-.06h0a.91.91,0,0,0-.06-1.27.9.9,0,0,0-1.27.06Zm6.54-7.75h0a.9.9,0,0,0,1.42,1.11h0a.9.9,0,1,0-1.42-1.11Zm6-8.2h0a.9.9,0,0,0,1.49,1h0a.9.9,0,1,0-1.49-1Zm5.39-8.6h0a.9.9,0,1,0,1.23-.33A.9.9,0,0,0,289.18,462.23Zm4.76-9h0a.9.9,0,0,0,.41,1.2.91.91,0,0,0,1.21-.41h0a.91.91,0,0,0-.42-1.21.9.9,0,0,0-1.2.42ZM298,444h0a.9.9,0,1,0,1.67.66h0a.9.9,0,0,0-.5-1.17A.91.91,0,0,0,298,444Zm3.37-9.56h0a.91.91,0,0,0,.6,1.13.9.9,0,0,0,1.12-.6h0a.9.9,0,0,0-1.72-.53Zm2.63-9.79h0a.9.9,0,1,0,1.75.4h0a.9.9,0,0,0-1.75-.4Zm1.86-10h0a.9.9,0,1,0,1-.76A.9.9,0,0,0,305.88,414.68ZM307,404.61h0a.9.9,0,1,0,1-.84A.91.91,0,0,0,307,404.61Zm.3-10.13h0a.9.9,0,1,0,1.79,0h0a.92.92,0,0,0-.91-.9.9.9,0,0,0-.89.91Zm-.47-10.13h0a.9.9,0,0,0,1,.83.91.91,0,0,0,.82-1h0a.9.9,0,0,0-1-.82.89.89,0,0,0-.82,1Zm-1.24-10.05h0a.9.9,0,0,0,1,.74.9.9,0,1,0-.29-1.77A.9.9,0,0,0,305.54,374.3Zm-2-9.93h0a.9.9,0,1,0,1.75-.43h0a.9.9,0,0,0-1.75.43Zm-2.78-9.75h0a.91.91,0,0,0,1.14.58.9.9,0,0,0,.57-1.14h0a.9.9,0,0,0-1.71.56Zm-3.52-9.5h0a.89.89,0,0,0,1.17.49.91.91,0,0,0,.49-1.18h0a.9.9,0,0,0-1.66.69Zm-4.25-9.2h0a.9.9,0,1,0,.39-1.21A.9.9,0,0,0,293,335.92Zm-4.93-8.86h0a.91.91,0,0,0,1.24.3.9.9,0,0,0,.3-1.23h0a.9.9,0,1,0-1.54.93Zm-5.57-8.48h0a.89.89,0,0,0,1.25.21.9.9,0,0,0,.22-1.25h0a.9.9,0,0,0-1.47,1Zm-6.17-8.05h0a.9.9,0,0,0,1.27.12.91.91,0,0,0,.12-1.27h0a.91.91,0,0,0-1.27-.12.9.9,0,0,0-.12,1.27Zm-6.74-7.59h0a.9.9,0,0,0,1.27,0,.9.9,0,1,0-1.27,0Zm-7.28-7.07h0a.9.9,0,0,0,1.27-.07.89.89,0,0,0-.06-1.27.9.9,0,0,0-1.27.07A.89.89,0,0,0,262.29,295.87Zm-7.83-6.43h0a.9.9,0,0,0,1.26-.19.88.88,0,0,0-.18-1.25.89.89,0,0,0-1.26.18A.91.91,0,0,0,254.46,289.44ZM246,284.12h0a.9.9,0,0,0,.73-1.65h0a.9.9,0,0,0-.73,1.65Z" transform="translate(-35.37 40.35)"/><path class="cls-134" d="M263.91,505.26h0a.9.9,0,0,0,1,1.46h0a.9.9,0,0,0-1-1.46Zm7.75-6.49h0a.89.89,0,0,0-.05,1.27.91.91,0,0,0,1.27,0h0a.91.91,0,0,0,.05-1.27.89.89,0,0,0-1.27-.05Zm7.14-7.21h0a.9.9,0,1,0,1.32,1.22h0a.9.9,0,0,0-1.32-1.22Zm6.61-7.7h0a.9.9,0,1,0,1.26-.14A.89.89,0,0,0,285.41,483.86Zm6.07-8.14h0a.9.9,0,0,0,1.48,1h0a.9.9,0,0,0-.23-1.25.89.89,0,0,0-1.25.22ZM297,467.2h0a.9.9,0,0,0,1.54.92h0a.9.9,0,1,0-1.54-.92Zm4.92-8.88h0a.9.9,0,0,0,1.6.82h0a.9.9,0,1,0-1.6-.82Zm4.28-9.19h0a.9.9,0,1,0,1.66.7h0a.9.9,0,0,0-1.66-.7Zm3.62-9.48h0a.9.9,0,0,0,.56,1.14.91.91,0,0,0,1.15-.56.9.9,0,0,0-.56-1.14A.91.91,0,0,0,309.81,439.65Zm2.92-9.71h0a.9.9,0,0,0,.64,1.1.89.89,0,0,0,1.1-.64h0a.9.9,0,0,0-1.74-.46Zm2.19-9.89h0a.89.89,0,0,0,.72,1,.9.9,0,0,0,1.05-.72h0a.9.9,0,1,0-1.77-.32Zm1.44-10h0a.9.9,0,0,0,.8,1,.89.89,0,0,0,1-.79h0a.9.9,0,1,0-1.79-.19Zm.7-10.11h0a.9.9,0,0,0,1.79,0h0a.9.9,0,1,0-1.79,0ZM317,389.77h0a.9.9,0,1,0,1.79-.08h0a.9.9,0,1,0-1.79.08Zm-.78-10.11h0a.9.9,0,1,0,.79-1A.91.91,0,0,0,316.23,379.66Zm-1.52-10h0a.9.9,0,0,0,1.05.72.91.91,0,0,0,.72-1.06.9.9,0,0,0-1.77.34Zm-2.26-9.88h0a.9.9,0,1,0,1.74-.47.9.9,0,0,0-1.74.47Zm-3-9.69h0a.91.91,0,0,0,1.15.56.9.9,0,0,0,.55-1.15h0a.88.88,0,0,0-1.14-.55.9.9,0,0,0-.56,1.14Zm-3.69-9.44h0a.89.89,0,0,0,1.18.47.9.9,0,0,0,.46-1.18h0a.89.89,0,0,0-1.18-.47.9.9,0,0,0-.46,1.18Zm-4.39-9.14h0a.9.9,0,0,0,1.6-.84h0a.9.9,0,1,0-1.6.84Zm-5-8.81h0a.9.9,0,0,0,1.53-.95h0a.9.9,0,1,0-1.53.95Zm-5.63-8.44h0a.9.9,0,1,0,.2-1.26A.91.91,0,0,0,290.73,314.24Zm-6.2-8h0a.9.9,0,1,0,1.38-1.15h0a.9.9,0,1,0-1.38,1.15Zm-6.74-7.59h0a.9.9,0,0,0,1.31-1.24h0a.9.9,0,1,0-1.31,1.24Zm-7.25-7.1h0a.91.91,0,0,0,1.27-.06.9.9,0,1,0-1.27.06ZM262.76,285h0a.9.9,0,1,0-.17-1.26A.9.9,0,0,0,262.76,285Zm-8.4-5.48h0a.9.9,0,0,0,.78-1.63h0a.9.9,0,0,0-.78,1.63Z" transform="translate(-35.37 40.35)"/><path class="cls-135" d="M271.39,510h0a.91.91,0,0,0-.21,1.26.9.9,0,0,0,1.25.21h0a.9.9,0,0,0,.22-1.25.91.91,0,0,0-1.26-.22Zm7.77-6.46h0a.91.91,0,0,0,0,1.28.9.9,0,0,0,1.27,0h0a.91.91,0,0,0,.05-1.27.92.92,0,0,0-1.28-.05Zm7.18-7.17h0a.89.89,0,0,0,.05,1.27.91.91,0,0,0,1.27-.05h0a.9.9,0,0,0-1.32-1.22Zm6.66-7.67h0a.9.9,0,0,0,1.4,1.13h0a.9.9,0,0,0-1.4-1.13Zm6.15-8.08h0a.9.9,0,1,0,1.26-.21A.9.9,0,0,0,299.15,480.6Zm5.62-8.46h0a.9.9,0,0,0,1.53.95h0a.9.9,0,1,0-1.53-.95Zm5.06-8.8h0a.9.9,0,0,0,1.59.85h0a.9.9,0,1,0-1.59-.85Zm4.47-9.11h0a.9.9,0,1,0,1.64.74h0a.9.9,0,0,0-.45-1.19.91.91,0,0,0-1.19.45Zm3.84-9.39h0a.91.91,0,0,0,.54,1.16.9.9,0,0,0,1.15-.54h0a.9.9,0,0,0-.53-1.15.91.91,0,0,0-1.16.53Zm3.18-9.63h0a.9.9,0,0,0,1.73.5h0a.9.9,0,0,0-1.73-.5Zm2.49-9.83h0a.9.9,0,0,0,1.76.38h0a.89.89,0,0,0-.69-1.07.91.91,0,0,0-1.07.69Zm1.78-10h0a.91.91,0,0,0,.77,1,.9.9,0,0,0,1-.77h0a.89.89,0,0,0-.76-1,.9.9,0,0,0-1,.76Zm1.06-10.08h0a.9.9,0,1,0,1.8.12h0a.9.9,0,1,0-1.8-.12Zm.35-10.13h0a.9.9,0,0,0,.9.9.92.92,0,0,0,.9-.91h0a.9.9,0,0,0-1.8,0Zm-.37-10.14h0a.9.9,0,0,0,1.8-.13h0a.9.9,0,0,0-1.8.13ZM325.57,375h0a.9.9,0,0,0,1.78-.25h0a.9.9,0,1,0-1.78.25Zm-1.78-10h0a.9.9,0,1,0,1.76-.38h0a.9.9,0,0,0-1.76.38Zm-2.48-9.83h0a.9.9,0,0,0,1.72-.5h0a.9.9,0,0,0-1.72.5Zm-3.18-9.63h0a.9.9,0,0,0,1.68-.62h0a.9.9,0,1,0-1.68.62Zm-3.86-9.38h0a.9.9,0,1,0,1.64-.74.9.9,0,0,0-1.64.74Zm-4.5-9.09h0a.9.9,0,1,0,1.58-.85h0a.9.9,0,1,0-1.58.85Zm-5.11-8.77h0a.9.9,0,1,0,.28-1.24A.9.9,0,0,0,304.66,318.29ZM299,309.88h0a.9.9,0,0,0,1.46-1.05.91.91,0,0,0-1.26-.2A.9.9,0,0,0,299,309.88Zm-6.22-8h0a.89.89,0,0,0,1.38-1.14h0a.89.89,0,1,0-1.38,1.14Zm-6.74-7.6h0a.9.9,0,1,0,0-1.27A.89.89,0,0,0,286,294.26Zm-7.22-7.13h0a.89.89,0,0,0,1.27-.05.9.9,0,1,0-1.27.05Zm-7.73-6.57h0a.9.9,0,0,0,1.26-.16.89.89,0,0,0-.15-1.26h0a.9.9,0,0,0-1.27.15.92.92,0,0,0,.16,1.27Zm-8.32-5.64h0a.9.9,0,0,0,1.21-.39.89.89,0,0,0-.39-1.21h0a.9.9,0,0,0-.82,1.61Z" transform="translate(-35.37 40.35)"/><path class="cls-136" d="M278.9,514.7h0a.9.9,0,0,0,1,1.49h0a.9.9,0,0,0,.25-1.25.89.89,0,0,0-1.25-.24Zm7.79-6.42h0a.9.9,0,0,0-.06,1.27.91.91,0,0,0,1.28.06h0a.9.9,0,1,0-1.21-1.33Zm7.2-7.15h0a.9.9,0,1,0,1.31,1.23h0a.91.91,0,0,0,0-1.28.89.89,0,0,0-1.27.05Zm6.7-7.64h0a.9.9,0,0,0,.13,1.27.89.89,0,0,0,1.26-.12.9.9,0,0,0-.12-1.27A.91.91,0,0,0,300.59,493.49Zm6.22-8h0a.9.9,0,1,0,1.46,1.06h0a.9.9,0,0,0-1.46-1.06Zm5.72-8.39h0a.9.9,0,0,0,.28,1.24.89.89,0,0,0,1.24-.27h0a.9.9,0,1,0-1.52-1Zm5.19-8.73h0A.9.9,0,1,0,319,468,.91.91,0,0,0,317.72,468.34Zm4.64-9h0a.9.9,0,1,0,1.62.77h0a.9.9,0,0,0-.43-1.2.89.89,0,0,0-1.19.43Zm4-9.31h0a.9.9,0,0,0,.5,1.17.91.91,0,0,0,1.17-.51h0a.91.91,0,0,0-.51-1.17.9.9,0,0,0-1.16.51Zm3.41-9.56h0a.9.9,0,0,0,.58,1.13.9.9,0,0,0,.55-1.71A.9.9,0,0,0,329.81,440.44Zm2.77-9.76h0a.9.9,0,1,0,1.74.43h0a.9.9,0,0,0-1.74-.43Zm2.09-9.92h0a.9.9,0,1,0,1.77.31h0a.9.9,0,0,0-1.78-.31Zm1.4-10h0a.89.89,0,1,0,1.78.18h0a.89.89,0,0,0-1.78-.18Zm.7-10.12h0a.9.9,0,0,0,1.8.07h0a.89.89,0,0,0-.86-.93A.9.9,0,0,0,336.77,400.6Zm0-10.14h0a.9.9,0,1,0,1.79-.06.9.9,0,1,0-1.79.06Zm-.66-10.12h0a.9.9,0,1,0,.81-1,.9.9,0,0,0-.81,1Zm-1.33-10.06h0a.91.91,0,0,0,1,.74.88.88,0,0,0,.73-1,.9.9,0,1,0-1.77.29Zm-2-9.93h0a.89.89,0,0,0,1.74-.42h0a.9.9,0,1,0-1.74.42Zm-2.7-9.78h0a.9.9,0,1,0,1.72-.54h0a.9.9,0,0,0-1.72.54ZM326.74,341h0a.91.91,0,0,0,1.17.51.9.9,0,0,0,.51-1.16h0a.89.89,0,0,0-1.16-.52.9.9,0,0,0-.52,1.17Zm-4-9.33h0a.89.89,0,1,0,.43-1.19A.88.88,0,0,0,322.75,331.67Zm-4.61-9h0a.89.89,0,0,0,1.22.36.91.91,0,0,0,.35-1.23h0a.9.9,0,0,0-1.57.87ZM313,313.91h0a.9.9,0,1,0,.27-1.24A.89.89,0,0,0,313,313.91Zm-5.74-8.38h0a.9.9,0,0,0,1.26.19.88.88,0,0,0,.19-1.25h0a.9.9,0,0,0-1.25-.2.91.91,0,0,0-.2,1.26Zm-6.25-8h0a.9.9,0,0,0,1.39-1.15h0a.9.9,0,1,0-1.39,1.15Zm-6.73-7.6h0a.9.9,0,0,0,1.31-1.24h0a.9.9,0,0,0-1.27,0,.91.91,0,0,0,0,1.28Zm-7.2-7.17h0a.9.9,0,1,0,0-1.27A.9.9,0,0,0,287,282.75Zm-7.67-6.64h0a.89.89,0,0,0,1.26-.14.9.9,0,1,0-1.41-1.12A.89.89,0,0,0,279.36,276.11Zm-8.24-5.8h0a.9.9,0,1,0,.87-1.57h0a.9.9,0,1,0-.87,1.57Z" transform="translate(-35.37 40.35)"/><path class="cls-137" d="M294.22,513.05h0a.9.9,0,1,0,1.27.05A.9.9,0,0,0,294.22,513.05Zm7.22-7.15h0a.91.91,0,0,0,0,1.28.9.9,0,1,0,0-1.28Zm6.75-7.6h0a.9.9,0,1,0,1.38,1.16h0a.9.9,0,0,0-1.38-1.16Zm6.28-8h0a.9.9,0,1,0,1.45,1.07h0a.9.9,0,0,0-1.45-1.07Zm5.81-8.34h0a.9.9,0,0,0,.26,1.25.89.89,0,0,0,1.24-.27.9.9,0,1,0-1.5-1Zm5.3-8.66h0a.9.9,0,1,0,1.57.89h0a.9.9,0,0,0-.34-1.22.89.89,0,0,0-1.22.33Zm4.78-9h0a.9.9,0,0,0,1.62.8h0a.9.9,0,0,0-1.62-.8Zm4.22-9.24h0a.9.9,0,1,0,1.66.7h0a.9.9,0,0,0-1.66-.7Zm3.63-9.48h0a.91.91,0,0,0,.56,1.15.9.9,0,0,0,1.14-.56h0a.89.89,0,0,0-.55-1.14.92.92,0,0,0-1.15.55Zm3-9.69h0a.9.9,0,0,0,1.74.48h0a.9.9,0,0,0-1.73-.48Zm2.38-9.86h0a.9.9,0,0,0,1.76.36h0a.91.91,0,0,0-.7-1.06.89.89,0,0,0-1.06.7Zm1.71-10h0a.9.9,0,1,0,1.78.25h0a.9.9,0,0,0-1.78-.25ZM346.36,406h0a.9.9,0,1,0,1-.84A.9.9,0,0,0,346.36,406Zm.38-10.14h0a.9.9,0,0,0,1.8,0h0a.9.9,0,0,0-1.8,0Zm-.27-10.14h0a.9.9,0,0,0,1.79-.11h0a.9.9,0,0,0-1.79.11Zm-.92-10.1h0a.9.9,0,1,0,1.78-.23h0a.9.9,0,0,0-1-.78.88.88,0,0,0-.78,1Zm-1.58-10h0a.9.9,0,0,0,1,.71.88.88,0,0,0,.71-1.05h0a.9.9,0,1,0-1.76.34Zm-2.24-9.9h0a.9.9,0,1,0,1.74-.45.9.9,0,0,0-1.1-.64A.88.88,0,0,0,341.73,355.71ZM338.84,346h0a.9.9,0,0,0,1.71-.57h0a.9.9,0,0,0-1.71.57Zm-3.52-9.52h0a.92.92,0,0,0,1.18.5.91.91,0,0,0,.49-1.18h0a.89.89,0,0,0-1.17-.49.91.91,0,0,0-.5,1.17Zm-4.12-9.27h0a.89.89,0,1,0,1.61-.78h0a.89.89,0,1,0-1.61.78Zm-4.71-9h0a.9.9,0,1,0,.34-1.23A.9.9,0,0,0,326.49,318.21Zm-5.26-8.69h0a.89.89,0,0,0,1.24.27.9.9,0,1,0-1-1.51A.89.89,0,0,0,321.23,309.52Zm-5.78-8.35h0a.9.9,0,1,0,1.45-1.07h0a.9.9,0,0,0-1.45,1.07Zm-6.27-8h0a.9.9,0,1,0,1.38-1.15h0a.9.9,0,0,0-1.38,1.15Zm-6.73-7.61h0a.9.9,0,1,0,1.31-1.23h0a.9.9,0,1,0-1.31,1.23Zm-7.17-7.19h0a.9.9,0,1,0,1.23-1.31h0a.9.9,0,0,0-1.27,0,.91.91,0,0,0,0,1.28Zm-7.63-6.71h0a.9.9,0,1,0,1.14-1.39h0a.9.9,0,0,0-1.27.12.91.91,0,0,0,.13,1.27Zm-8.15-6h0a.9.9,0,0,0,1.23-.32.89.89,0,0,0-.31-1.23h0a.9.9,0,0,0-.92,1.55Z" transform="translate(-35.37 40.35)"/><path class="cls-138" d="M301.77,517.82h0a.9.9,0,1,0,1.22,1.32h0a.9.9,0,1,0-1.22-1.32Zm7.24-7.13h0a.89.89,0,1,0,1.3,1.23h0a.89.89,0,1,0-1.3-1.23Zm6.78-7.58h0a.9.9,0,1,0,1.37,1.16h0a.9.9,0,0,0-.11-1.27.89.89,0,0,0-1.26.11Zm6.33-7.95h0a.91.91,0,0,0,.18,1.26.9.9,0,0,0,1.26-.17h0a.9.9,0,0,0-1.44-1.09Zm5.89-8.28h0a.9.9,0,1,0,1.49,1h0a.9.9,0,0,0-.24-1.25.91.91,0,0,0-1.25.25Zm5.41-8.6h0a.9.9,0,1,0,1.23-.32A.9.9,0,0,0,333.42,478.28Zm4.91-8.89h0a.9.9,0,1,0,1.6.82h0a.9.9,0,1,0-1.6-.82Zm4.38-9.17h0a.9.9,0,1,0,1.65.73h0a.9.9,0,0,0-1.65-.73Zm3.83-9.4h0a.9.9,0,1,0,1.68.62h0a.9.9,0,1,0-1.68-.62Zm3.24-9.62h0a.89.89,0,0,0,.6,1.12.9.9,0,0,0,.52-1.72A.89.89,0,0,0,349.78,441.2Zm2.63-9.8h0a.89.89,0,0,0,.66,1.08.91.91,0,0,0,1.09-.67.9.9,0,0,0-.67-1.08A.88.88,0,0,0,352.41,431.4Zm2-9.95h0a.9.9,0,1,0,1.77.3h0a.91.91,0,0,0-.74-1,.9.9,0,0,0-1,.74Zm1.36-10.05h0a.9.9,0,0,0,1.79.18h0a.9.9,0,1,0-1.79-.18Zm.72-10.12h0a.9.9,0,0,0,1.8.07h0a.9.9,0,1,0-1.8-.07Zm.08-10.15h0a.9.9,0,0,0,1.8,0h0a.9.9,0,1,0-1.8,0ZM356,381h0a.9.9,0,0,0,1,.83.91.91,0,0,0,.82-1h0a.9.9,0,0,0-1-.82.89.89,0,0,0-.82,1Zm-1.18-10.07h0a.9.9,0,0,0,1,.76.91.91,0,0,0,.76-1h0a.89.89,0,0,0-1-.75.9.9,0,0,0-.76,1Zm-1.81-10h0a.9.9,0,1,0,.69-1.07A.9.9,0,0,0,353,360.94Zm-2.44-9.85h0a.9.9,0,0,0,1.73-.49h0a.9.9,0,1,0-1.73.49Zm-3.06-9.67h0a.9.9,0,1,0,1.69-.6.9.9,0,1,0-1.69.6ZM343.87,332h0a.9.9,0,0,0,1.66-.7h0a.9.9,0,0,0-1.66.7Zm-4.25-9.22h0a.9.9,0,0,0,1.21.41.91.91,0,0,0,.4-1.21.88.88,0,0,0-1.2-.4A.89.89,0,0,0,339.62,322.73Zm-4.8-9h0a.9.9,0,0,0,1.23.33.89.89,0,0,0,.33-1.22h0a.9.9,0,0,0-1.56.89Zm-5.32-8.65h0a.9.9,0,0,0,1.5-1h0a.9.9,0,1,0-1.5,1Zm-5.82-8.33h0a.9.9,0,1,0,1.45-1.07h0a.9.9,0,0,0-1.45,1.07Zm-6.28-8h0a.9.9,0,0,0,1.27.11.89.89,0,0,0,.11-1.26h0a.9.9,0,1,0-1.38,1.15Zm-6.73-7.62h0a.91.91,0,0,0,1.28,0,.9.9,0,0,0,0-1.27h0a.9.9,0,0,0-1.32,1.23ZM303.52,274h0a.9.9,0,1,0,0-1.27A.89.89,0,0,0,303.52,274Zm-7.58-6.77h0a.9.9,0,1,0-.11-1.26A.89.89,0,0,0,295.94,267.2Zm-8.06-6.1h0a.9.9,0,1,0,1-1.51h0a.92.92,0,0,0-1.25.28.9.9,0,0,0,.28,1.24Z" transform="translate(-35.37 40.35)"/><path class="cls-139" d="M309.34,522.6h0a.9.9,0,1,0,1.27,0A.9.9,0,0,0,309.34,522.6Zm7.24-7.13h0a.9.9,0,1,0,1.3,1.24h0a.9.9,0,0,0-1.3-1.24Zm6.81-7.56h0a.9.9,0,1,0,1.37,1.17h0a.9.9,0,1,0-1.37-1.17Zm6.38-7.91h0a.9.9,0,1,0,1.43,1.09.89.89,0,0,0-.16-1.26A.92.92,0,0,0,329.77,500Zm6-8.24h0a.9.9,0,1,0,1.25-.23A.89.89,0,0,0,335.73,491.76Zm5.5-8.54h0a.9.9,0,0,0,.31,1.23.89.89,0,0,0,1.23-.3h0a.9.9,0,0,0-1.54-.93Zm5-8.83h0a.9.9,0,0,0,1.59.85.89.89,0,0,0-.37-1.22A.91.91,0,0,0,346.26,474.39Zm4.53-9.09h0a.9.9,0,0,0,1.64.75h0a.9.9,0,0,0-1.64-.75Zm4-9.34h0a.9.9,0,0,0,1.68.66h0a.9.9,0,0,0-1.68-.66Zm3.45-9.55h0a.89.89,0,0,0,.57,1.13A.9.9,0,0,0,360,447a.9.9,0,1,0-1.71-.56Zm2.87-9.74h0a.9.9,0,0,0,1.74.46h0a.91.91,0,0,0-.65-1.1.88.88,0,0,0-1.09.64Zm2.26-9.89h0a.9.9,0,0,0,1.77.35.9.9,0,0,0-1.77-.35Zm1.66-10h0a.9.9,0,1,0,1-.78A.9.9,0,0,0,365,416.77Zm1-10.1h0a.9.9,0,1,0,1-.83A.9.9,0,0,0,366.06,406.67Zm.42-10.14h0a.9.9,0,0,0,1.8,0h0a.92.92,0,0,0-.89-.91.9.9,0,0,0-.91.89Zm-.2-10.15h0a.9.9,0,1,0,.86-.94A.91.91,0,0,0,366.28,386.38Zm-.8-10.11h0a.9.9,0,0,0,1.79-.2h0a.9.9,0,1,0-1.79.2Zm-1.41-10h0a.9.9,0,1,0,1.77-.31h0a.9.9,0,1,0-1.77.31Zm-2-9.94h0a.89.89,0,0,0,1.08.66.9.9,0,0,0,.67-1.08h0a.91.91,0,0,0-1.08-.67.9.9,0,0,0-.67,1.09Zm-2.63-9.81h0a.9.9,0,0,0,1.12.61.92.92,0,0,0,.6-1.13h0a.91.91,0,0,0-1.12-.6.89.89,0,0,0-.6,1.12Zm-3.23-9.62h0a.9.9,0,0,0,1.69-.62h0a.9.9,0,0,0-1.69.62Zm-3.8-9.41h0a.9.9,0,1,0,1.64-.73h0a.9.9,0,1,0-1.64.73ZM348,318.26h0a.9.9,0,1,0,1.6-.81h0a.9.9,0,1,0-1.6.81Zm-4.88-8.9h0a.9.9,0,1,0,.32-1.23A.9.9,0,0,0,343.15,309.36Zm-5.38-8.62h0a.89.89,0,0,0,1.49-1h0a.89.89,0,1,0-1.49,1Zm-5.86-8.31h0a.91.91,0,0,0,1.26.19.9.9,0,0,0,.18-1.26h0a.9.9,0,1,0-1.44,1.07Zm-6.3-8h0a.89.89,0,0,0,1.27.12.91.91,0,0,0,.12-1.27h0a.9.9,0,0,0-1.27-.11.91.91,0,0,0-.12,1.27Zm-6.72-7.62h0a.91.91,0,0,0,1.28,0,.9.9,0,0,0,0-1.27h0a.9.9,0,0,0-1.32,1.23Zm-7.12-7.26h0a.89.89,0,0,0,1.27,0,.9.9,0,0,0-1.3-1.25A.9.9,0,0,0,311.77,269.57Zm-7.53-6.82h0a.89.89,0,0,0,1.26-.11.89.89,0,1,0-1.36-1.16A.89.89,0,0,0,304.24,262.75Zm-8-6.26h0a.9.9,0,0,0,1-1.48h0a.91.91,0,0,0-1.26.23.9.9,0,0,0,.23,1.25Z" transform="translate(-35.37 40.35)"/><path class="cls-140" d="M316.92,527.39h0a.89.89,0,0,0-.05,1.27.91.91,0,0,0,1.27.05h0a.9.9,0,1,0-1.22-1.32Zm7.25-7.14h0a.89.89,0,0,0,0,1.27.91.91,0,0,0,1.28,0h0a.9.9,0,0,0-1.3-1.24Zm6.83-7.54h0a.9.9,0,1,0,1.26-.09A.89.89,0,0,0,331,512.71Zm6.42-7.88h0a.9.9,0,0,0,1.43,1.1h0a.9.9,0,0,0-.16-1.26.92.92,0,0,0-1.27.16Zm6-8.19h0a.9.9,0,1,0,1.48,1h0a.9.9,0,0,0-1.48-1Zm5.59-8.5h0a.9.9,0,1,0,1.24-.29A.9.9,0,0,0,349,488.14Zm5.14-8.77h0a.9.9,0,1,0,1.58.87h0a.9.9,0,0,0-1.58-.87Zm4.66-9h0a.92.92,0,0,0,.42,1.21.91.91,0,0,0,1.2-.42h0a.89.89,0,0,0-.42-1.2.9.9,0,0,0-1.2.41Zm4.16-9.26h0a.89.89,0,0,0,.49,1.17.9.9,0,0,0,1.18-.48h0a.9.9,0,1,0-1.67-.69Zm3.64-9.49h0a.9.9,0,0,0,1.7.6h0a.91.91,0,0,0-.56-1.15.9.9,0,0,0-1.14.55Zm3.08-9.67h0a.9.9,0,1,0,1.11-.62A.9.9,0,0,0,369.71,441.92Zm2.51-9.84h0a.9.9,0,0,0,1.76.39h0a.9.9,0,0,0-1.76-.39Zm1.93-10h0a.9.9,0,1,0,1.77.29.9.9,0,0,0-1.77-.29Zm1.33-10.06h0a.9.9,0,1,0,1.79.18h0a.9.9,0,0,0-1.79-.18Zm.73-10.12h0A.9.9,0,1,0,378,402h0a.9.9,0,1,0-1.79-.08Zm.13-10.15h0a.9.9,0,1,0,1.8,0,.9.9,0,0,0-1.8,0Zm-.46-10.14h0a.9.9,0,1,0,1.8-.14h0a.9.9,0,1,0-1.8.14Zm-1-10.1h0a.9.9,0,0,0,1.79-.24h0a.9.9,0,0,0-1.79.24Zm-1.63-10h0a.9.9,0,0,0,1.05.71.91.91,0,0,0,.72-1.06h0a.9.9,0,0,0-1.77.34ZM371,351.62h0a.9.9,0,0,0,1.74-.44h0a.9.9,0,0,0-1.74.44Zm-2.81-9.75h0a.9.9,0,0,0,1.71-.55h0a.9.9,0,1,0-1.71.55Zm-3.38-9.58h0a.9.9,0,1,0,1.68-.64h0a.89.89,0,0,0-1.16-.52.91.91,0,0,0-.52,1.16Zm-3.92-9.36h0a.91.91,0,0,0,1.19.45.92.92,0,0,0,.45-1.2h0a.9.9,0,0,0-1.2-.44.89.89,0,0,0-.44,1.19Zm-4.46-9.13h0A.9.9,0,1,0,358,313a.9.9,0,1,0-1.59.83Zm-5-8.87h0A.9.9,0,1,0,353,304h0a.92.92,0,0,0-1.24-.31.91.91,0,0,0-.31,1.23ZM346,296.35h0a.9.9,0,0,0,1.49-1h0a.9.9,0,1,0-1.49,1Zm-5.89-8.29h0a.9.9,0,1,0,1.44-1.08h0a.9.9,0,0,0-1.44,1.08Zm-6.31-8h0a.9.9,0,0,0,1.27.11.89.89,0,0,0,.11-1.26h0a.9.9,0,1,0-1.38,1.16Zm-6.71-7.64h0a.9.9,0,0,0,1.27.05.91.91,0,0,0,.05-1.27h0a.9.9,0,1,0-1.32,1.22ZM320,265.17h0a.9.9,0,1,0,1.26-1.29h0a.89.89,0,0,0-1.27,0,.9.9,0,0,0,0,1.27Zm-7.48-6.89h0a.9.9,0,1,0-.09-1.26A.88.88,0,0,0,312.53,258.28Zm-7.9-6.4h0a.9.9,0,0,0,1.08-1.44h0a.9.9,0,1,0-1.08,1.44Z" transform="translate(-35.37 40.35)"/><path class="cls-141" d="M68.31,377.42c1.74.15,2.81.27,3.43.38.31.06.51.11.61.14l.05,0h0l.09-.13-.12.09,0,0,.09-.13-.12.09.2-.15h-.25l0,.15.2-.15h-.25a.31.31,0,0,0,0,.19c.06.1.13.18.19.29a.48.48,0,0,1,.09.27l0,.12a1,1,0,0,1-.5.28,6.36,6.36,0,0,1-1.49.23.31.31,0,1,0,0,.61,5.42,5.42,0,0,0,2-.39,1.13,1.13,0,0,0,.47-.37.84.84,0,0,0,.16-.48,1.21,1.21,0,0,0-.21-.64l-.13-.18,0,0-.2.11h.22c0-.1,0-.11,0-.11l-.2.11h.22a.39.39,0,0,0-.16-.31,1.33,1.33,0,0,0-.43-.17,29.47,29.47,0,0,0-4-.49.3.3,0,0,0-.33.28.3.3,0,0,0,.28.33Z" transform="translate(-35.37 40.35)"/><path class="cls-141" d="M144.48,273.09a74.65,74.65,0,0,1,11.83,9.44c16.11,15.19,41.26,47.26,41.81,93.83,0,.54,0,1.08,0,1.61a134,134,0,0,1-22.94,74.77,137.56,137.56,0,0,1-17.48,21.32c-5.24,5.18-9.51,8.41-11.49,9.51a.31.31,0,0,0,.3.54c2.07-1.16,6.34-4.4,11.62-9.61,15.83-15.64,40.61-49,40.61-96.53,0-.54,0-1.08,0-1.62a129.49,129.49,0,0,0-24.05-73.45,137,137,0,0,0-18-20.81,74.34,74.34,0,0,0-11.94-9.53.31.31,0,1,0-.31.53Z" transform="translate(-35.37 40.35)"/><path class="cls-141" d="M220.76,168.79c6.71,4.72,32.14,25.22,56.06,60.05s46.35,84,47.1,146.09c0,1.06,0,2.13,0,3.19,0,63-22.33,113.3-46.25,148.9S228.23,583.57,221.91,588a.31.31,0,0,0,.36.5c6.39-4.44,31.94-25.42,55.92-61.1s46.36-86.05,46.36-149.24c0-1.07,0-2.13,0-3.2-.74-62.24-23.22-111.52-47.2-146.43s-49.44-55.44-56.22-60.21a.31.31,0,1,0-.35.51Z" transform="translate(-35.37 40.35)"/><path class="cls-141" d="M297.05,64.49c18.44,14.05,150.44,122.75,152.66,309,0,1.59,0,3.18,0,4.76,0,189.12-134.84,301-152.12,314.08a.31.31,0,0,0-.06.43.33.33,0,0,0,.44.06c17.35-13.17,152.35-125.13,152.36-314.57q0-2.38,0-4.77C448.09,186.92,315.93,78.11,297.42,64a.3.3,0,0,0-.43.06.3.3,0,0,0,.06.43Z" transform="translate(-35.37 40.35)"/><path class="cls-141" d="M373.34-39.8c23.45,18.65,199.2,163.53,202.16,411.87q0,3.18,0,6.33c0,252.17-180.31,400.89-202.2,418.31a.31.31,0,0,0,0,.44.3.3,0,0,0,.43,0c21.94-17.46,202.43-166.3,202.44-418.79q0-3.16,0-6.34c-3-248.65-178.9-393.65-202.4-412.35a.31.31,0,0,0-.43,0,.31.31,0,0,0,0,.44Z" transform="translate(-35.37 40.35)"/></g></g></g></svg>